<svg xmlns="http://www.w3.org/2000/svg" width="280.69" height="101.11" viewBox="0 0 280.69 101.11">
    <g data-name="그룹 3894">
        <path data-name="패스 5078" d="M272.21 244.02H8.1a7.793 7.793 0 0 1-7.79-7.79v-34.1a7.793 7.793 0 0 1 7.79-7.79h264.11a7.793 7.793 0 0 1 7.79 7.79v34.1a7.787 7.787 0 0 1-7.79 7.79z" style="fill:#fff" transform="translate(.19 -143.41)"/>
        <path data-name="패스 5079" d="M272.21 244.52H8.1a8.3 8.3 0 0 1-8.29-8.29v-34.1a8.3 8.3 0 0 1 8.29-8.29h264.11a8.3 8.3 0 0 1 8.29 8.29v34.1a8.3 8.3 0 0 1-8.29 8.29zM8.1 194.83a7.3 7.3 0 0 0-7.29 7.29v34.1a7.3 7.3 0 0 0 7.29 7.29h264.11a7.3 7.3 0 0 0 7.29-7.29v-34.1a7.3 7.3 0 0 0-7.29-7.29z" style="fill:#3f52fc" transform="translate(.19 -143.41)"/>
    </g>
    <g data-name="그룹 3895">
        <path data-name="패스 5080" d="M15.02 218.52h-1.07v3.45q.72-.045 1.56-.15l.07.69a41.2 41.2 0 0 1-6.12.38h-.25l-.11-.76c.43 0 .88-.01 1.35-.02v-3.59H9.39v-.75h5.62v.75zm-4.32 5.2h.9v2.47h6.09v.77h-7v-3.24zm2.35-1.69v-3.51h-1.7v3.57c.51-.01 1.07-.03 1.7-.06zm3.25-5.24h.91v3.16h1.57v.79h-1.57v3.71h-.91z" style="fill:#3f52fc" transform="translate(.19 -143.41)"/>
        <path data-name="패스 5081" d="M19.82 217.99h3.98v6.4h-3.98zm3.12 5.66v-4.92h-2.25v4.92zm5.43 3.54h-.89v-5.52h-1.45v4.99h-.88V217h.88v3.91h1.45v-4.14h.89z" style="fill:#3f52fc" transform="translate(.19 -143.41)"/>
        <path data-name="패스 5082" d="M33.69 221.64a5.62 5.62 0 0 0 .98 1.53 4.334 4.334 0 0 0 1.37 1.04l-.53.73a4.763 4.763 0 0 1-1.58-1.29 5.946 5.946 0 0 1-1.05-1.93 7.151 7.151 0 0 1-.65 1.44 5.973 5.973 0 0 1-.93 1.21 4.561 4.561 0 0 1-1.1.82l-.56-.73a4.519 4.519 0 0 0 1.39-1.09 6 6 0 0 0 1.03-1.63 4.43 4.43 0 0 0 .39-1.77v-1.36h-2.43v-.76h5.67v.76h-2.34v1.36a3.875 3.875 0 0 0 .34 1.67zm3.27-4.86h.91V221h1.75v.79h-1.75v5.41h-.91z" style="fill:#3f52fc" transform="translate(.19 -143.41)"/>
        <path data-name="패스 5083" d="M43.36 222.01a6.448 6.448 0 0 0 1.26-3.34h-3.88v-.77h4.82a7.83 7.83 0 0 1-1.17 4.21 8.574 8.574 0 0 1-3.61 3.1l-.52-.73a8.467 8.467 0 0 0 3.1-2.47zm4.88-.99h1.69v.77h-1.69v5.4h-.91v-10.42h.91z" style="fill:#3f52fc" transform="translate(.19 -143.41)"/>
        <path data-name="패스 5084" d="M54.16 218.75a2.459 2.459 0 0 1 .98-.91 2.952 2.952 0 0 1 1.4-.33 2.884 2.884 0 0 1 1.39.33 2.526 2.526 0 0 1 .98.91 2.519 2.519 0 0 1-.98 3.56 2.94 2.94 0 0 1-1.39.33 2.98 2.98 0 0 1-1.4-.33 2.432 2.432 0 0 1-1.33-2.24 2.553 2.553 0 0 1 .35-1.32zm.78 2.23a1.578 1.578 0 0 0 .66.62 2.067 2.067 0 0 0 .94.22 1.935 1.935 0 0 0 .93-.22 1.674 1.674 0 0 0 .9-1.53 1.682 1.682 0 0 0-.24-.9 1.714 1.714 0 0 0-.66-.62 2.055 2.055 0 0 0-1.87-.01 1.714 1.714 0 0 0-.66.62 1.614 1.614 0 0 0-.23.9 1.748 1.748 0 0 0 .23.92zm.5 2.65h.91v2.57h6.14v.77h-7.05zm6.72.77h-.91v-7.62h.91z" style="fill:#3f52fc" transform="translate(.19 -143.41)"/>
        <path data-name="패스 5085" d="M66.48 221.92a6.639 6.639 0 0 0 1.03-3.04h-3.12v-.76h4.03a8.989 8.989 0 0 1-.14 1.57h1.58v-2.62h.88v9.61h-.88v-3.61h-1.93v-.76h1.93v-1.85H68.1a7.33 7.33 0 0 1-1.28 2.5 8.528 8.528 0 0 1-2.33 2l-.56-.67a7.708 7.708 0 0 0 2.55-2.37zm6.37 5.27h-.88v-10.42h.88z" style="fill:#3f52fc" transform="translate(.19 -143.41)"/>
        <path data-name="패스 5086" d="M83.83 222.34h-9.54v-.73h9.54zm-8.39.83h7.2v2.21h-6.26v1h6.6v.67h-7.52v-2.3h6.27v-.89h-6.28v-.69zm.06-6.08h7.1v2.16h-6.15v.91h6.34v.67h-7.25v-2.21h6.14v-.86H75.5z" style="fill:#3f52fc" transform="translate(.19 -143.41)"/>
        <path data-name="패스 5087" d="M85.47 228.65h-.87l.64-3.19h1.14z" style="fill:#3f52fc" transform="translate(.19 -143.41)"/>
        <path data-name="패스 5088" d="M99 218.37c0 .67-.02 1.27-.05 1.79a13.37 13.37 0 0 1-.25 1.77h1.55v.76h-4.3v4.52h-.93v-4.52h-4.27v-.76h7.01a12.139 12.139 0 0 0 .26-1.78c.03-.52.05-1.12.05-1.78v-.15h-6.13v-.76H99z" style="fill:#3f52fc" transform="translate(.19 -143.41)"/>
        <path data-name="패스 5089" d="M101.52 217.99h3.98v6.4h-3.98zm3.12 5.66v-4.92h-2.25v4.92zm5.42 3.54h-.89v-5.52h-1.45v4.99h-.88V217h.88v3.91h1.45v-4.14h.89z" style="fill:#3f52fc" transform="translate(.19 -143.41)"/>
        <path data-name="패스 5090" d="M115.39 221.64a5.62 5.62 0 0 0 .98 1.53 4.334 4.334 0 0 0 1.37 1.04l-.53.73a4.763 4.763 0 0 1-1.58-1.29 5.947 5.947 0 0 1-1.05-1.93 7.151 7.151 0 0 1-.65 1.44 5.973 5.973 0 0 1-.93 1.21 4.561 4.561 0 0 1-1.1.82l-.56-.73a4.519 4.519 0 0 0 1.39-1.09 6 6 0 0 0 1.03-1.63 4.43 4.43 0 0 0 .39-1.77v-1.36h-2.43v-.76h5.67v.76h-2.34v1.36a3.875 3.875 0 0 0 .34 1.67zm3.26-4.86h.91V221h1.75v.79h-1.75v5.41h-.91z" style="fill:#3f52fc" transform="translate(.19 -143.41)"/>
        <path data-name="패스 5091" d="M125.05 222.01a6.448 6.448 0 0 0 1.26-3.34h-3.88v-.77h4.82a7.83 7.83 0 0 1-1.17 4.21 8.574 8.574 0 0 1-3.61 3.1l-.52-.73a8.385 8.385 0 0 0 3.1-2.47zm4.89-.99h1.69v.77h-1.69v5.4h-.91v-10.42h.91z" style="fill:#3f52fc" transform="translate(.19 -143.41)"/>
        <path data-name="패스 5092" d="M135.86 218.75a2.459 2.459 0 0 1 .98-.91 2.952 2.952 0 0 1 1.4-.33 2.884 2.884 0 0 1 1.39.33 2.526 2.526 0 0 1 .98.91 2.519 2.519 0 0 1-.98 3.56 2.94 2.94 0 0 1-1.39.33 2.98 2.98 0 0 1-1.4-.33 2.586 2.586 0 0 1-.98-3.56zm.78 2.23a1.578 1.578 0 0 0 .66.62 2.067 2.067 0 0 0 .94.22 1.935 1.935 0 0 0 .93-.22 1.674 1.674 0 0 0 .9-1.53 1.682 1.682 0 0 0-.24-.9 1.714 1.714 0 0 0-.66-.62 2.055 2.055 0 0 0-1.87-.01 1.714 1.714 0 0 0-.66.62 1.613 1.613 0 0 0-.23.9 1.659 1.659 0 0 0 .23.92zm.49 2.65h.91v2.57h6.14v.77h-7.05zm6.73.77h-.91v-7.62h.91z" style="fill:#3f52fc" transform="translate(.19 -143.41)"/>
        <path data-name="패스 5093" d="M145.63 222.65h9.49v.77h-4.31v3.77h-.9v-3.77h-4.28v-.77zm5.78-3.55a4.487 4.487 0 0 0 1.42 1.08 5.9 5.9 0 0 0 1.83.57l-.38.75a6.763 6.763 0 0 1-1.59-.47 5.717 5.717 0 0 1-1.37-.84 3.674 3.674 0 0 1-.93-1.13 3.513 3.513 0 0 1-.93 1.13 5.6 5.6 0 0 1-1.37.84 6.763 6.763 0 0 1-1.59.47l-.38-.75a5.9 5.9 0 0 0 1.83-.57 4.614 4.614 0 0 0 1.42-1.07 2.016 2.016 0 0 0 .54-1.36v-.6h.95v.6a2.042 2.042 0 0 0 .55 1.35z" style="fill:#3f52fc" transform="translate(.19 -143.41)"/>
        <path data-name="패스 5094" d="M165.53 222.34h-9.54v-.73h9.54zm-8.39.83h7.2v2.21h-6.26v1h6.6v.67h-7.52v-2.3h6.27v-.89h-6.28v-.69zm.06-6.08h7.1v2.16h-6.15v.91h6.34v.67h-7.25v-2.21h6.14v-.86h-6.18v-.67z" style="fill:#3f52fc" transform="translate(.19 -143.41)"/>
        <path data-name="패스 5095" d="M178.92 225.86h-9.54v-.77h4.29v-2.54h-3.16v-4.89h7.23v4.89h-3.16v2.54h4.35v.77zm-2.07-4.06v-3.41h-5.44v3.41z" style="fill:#3f52fc" transform="translate(.19 -143.41)"/>
        <path data-name="패스 5096" d="M179.74 222.8h9.54v.75h-4.35v3.61h-.9v-3.61h-4.29zm8.32-1.38h-7v-4.02h6.86v.76H182v2.52h6.06z" style="fill:#3f52fc" transform="translate(.19 -143.41)"/>
        <path data-name="패스 5097" d="M198.38 224.54h-4.8v-6.71h4.8zm-.92-.75v-5.23h-3v5.23zm2.83-7.01h.91v4.16h1.75v.8h-1.75v5.46h-.91z" style="fill:#3f52fc" transform="translate(.19 -143.41)"/>
        <path data-name="패스 5098" d="M205.1 221.75a3.557 3.557 0 0 0 .94-1.15 3.059 3.059 0 0 0 .34-1.38v-.28h-2.4v-.74h2.4v-1.36h.93v1.36h2.38v.74h-2.39v.28a2.631 2.631 0 0 0 .34 1.3 3.463 3.463 0 0 0 .95 1.08 4.492 4.492 0 0 0 1.38.7l-.46.74a4.623 4.623 0 0 1-1.61-.9 4.066 4.066 0 0 1-1.05-1.4 4.132 4.132 0 0 1-1.04 1.52 4.464 4.464 0 0 1-1.62.97l-.47-.73a4.192 4.192 0 0 0 1.38-.75zm.28 2.02h.91v2.43h6.14v.77h-7.05zm6.73.72h-.91v-7.7h.91z" style="fill:#3f52fc" transform="translate(.19 -143.41)"/>
        <path data-name="패스 5099" d="M220.7 219.81a3.7 3.7 0 0 0 .92 1.14 4.1 4.1 0 0 0 1.34.75l-.5.73a4.347 4.347 0 0 1-1.51-.93 4.242 4.242 0 0 1-1-1.44 4.394 4.394 0 0 1-1.01 1.62 4.5 4.5 0 0 1-1.59 1.05l-.49-.74a4.159 4.159 0 0 0 1.37-.83 3.86 3.86 0 0 0 .92-1.25 3.539 3.539 0 0 0 .33-1.51v-1.08h.9v1.15a2.785 2.785 0 0 0 .32 1.34zm-2.04 4.44a2.741 2.741 0 0 1 1.2-.65 6.7 6.7 0 0 1 1.85-.22 6.626 6.626 0 0 1 1.84.22 2.516 2.516 0 0 1 1.18.65 1.486 1.486 0 0 1 0 2.05 2.66 2.66 0 0 1-1.18.65 6.626 6.626 0 0 1-1.84.22 6.751 6.751 0 0 1-1.85-.22 2.645 2.645 0 0 1-1.19-.65 1.452 1.452 0 0 1-.42-1.03 1.372 1.372 0 0 1 .41-1.02zm.8 1.65a2 2 0 0 0 .88.4 6.676 6.676 0 0 0 2.72 0 2.183 2.183 0 0 0 .88-.4.776.776 0 0 0 .31-.63.767.767 0 0 0-.31-.61 2.183 2.183 0 0 0-.88-.4 6.579 6.579 0 0 0-2.7 0 2.121 2.121 0 0 0-.88.4.786.786 0 0 0-.3.61.744.744 0 0 0 .28.63zm4.66-9.12h.91v2.72h1.57v.77h-1.57v2.85h-.91z" style="fill:#3f52fc" transform="translate(.19 -143.41)"/>
        <path data-name="패스 5100" d="M231.81 218.73h-3.25v2h3.09v.74h-3.09v2.36c.82 0 1.49-.02 2.03-.06a15.238 15.238 0 0 0 1.62-.2l.08.76a14.173 14.173 0 0 1-1.67.22c-.55.04-1.22.06-2.03.06h-.91v-6.63h4.12v.75zm1.17-1.73h.89v3.97h1.43v-4.2h.89v10.42h-.89v-5.46h-1.43v4.93h-.89z" style="fill:#3f52fc" transform="translate(.19 -143.41)"/>
        <path data-name="패스 5101" d="M238.23 218.43a2.364 2.364 0 0 1 .97-.85 3.207 3.207 0 0 1 1.41-.3 3.1 3.1 0 0 1 1.41.3 2.269 2.269 0 0 1 1.32 2.1 2.272 2.272 0 0 1-.35 1.24 2.365 2.365 0 0 1-.97.85 3.463 3.463 0 0 1-2.82 0 2.238 2.238 0 0 1-.97-.85 2.389 2.389 0 0 1 0-2.49zm.78 2.09a1.592 1.592 0 0 0 .65.58 2.075 2.075 0 0 0 .95.21 2.033 2.033 0 0 0 .94-.21 1.658 1.658 0 0 0 .65-.58 1.518 1.518 0 0 0 .23-.84 1.6 1.6 0 0 0-.23-.84 1.449 1.449 0 0 0-.65-.57 2.2 2.2 0 0 0-.94-.21 2.075 2.075 0 0 0-.95.21 1.643 1.643 0 0 0-.65.57 1.5 1.5 0 0 0-.23.84 1.6 1.6 0 0 0 .23.84zm.48 2.37h.91v1.27h4.92v-1.27h.91v4.16h-6.75v-4.16zm5.83 3.41v-1.41h-4.92v1.41zm.92-3.93h-.91v-5.59h.91z" style="fill:#3f52fc" transform="translate(.19 -143.41)"/>
        <path data-name="패스 5102" d="M248.69 217.81h.9v5.91c.86-.01 1.7-.05 2.51-.13a21.746 21.746 0 0 0 2.47-.38l.13.79a25.11 25.11 0 0 1-2.59.4q-1.26.12-2.58.12h-.84zm7.91 9.38h-.91v-10.42h.91z" style="fill:#3f52fc" transform="translate(.19 -143.41)"/>
        <path data-name="패스 5103" d="M258.83 217.79h4.86v.76h-3.95v5.27c.98 0 1.84-.03 2.56-.09a21.968 21.968 0 0 0 2.21-.29l.12.8a20.372 20.372 0 0 1-2.27.28c-.74.05-1.64.07-2.71.07h-.82v-6.8zm7.61 3.11h1.75v.77h-1.75v5.54h-.91v-10.44h.91z" style="fill:#3f52fc" transform="translate(.19 -143.41)"/>
        <path data-name="패스 5104" d="M269.47 226.21a.753.753 0 0 1-.28-.28.721.721 0 0 1-.1-.38.686.686 0 0 1 .1-.37.833.833 0 0 1 .28-.28.721.721 0 0 1 .38-.1.686.686 0 0 1 .37.1.9.9 0 0 1 .28.27.686.686 0 0 1 .1.37.732.732 0 0 1-.22.54.743.743 0 0 1-.91.13z" style="fill:#3f52fc" transform="translate(.19 -143.41)"/>
    </g>
    <g data-name="그룹 3896">
        <path data-name="패스 5105" d="M158.56 202.8h-37.12a7.793 7.793 0 0 1-7.79-7.79v-1.35a7.793 7.793 0 0 1 7.79-7.79h37.12a7.793 7.793 0 0 1 7.79 7.79v1.35a7.793 7.793 0 0 1-7.79 7.79z" style="fill:#3f52fc" transform="translate(.19 -143.41)"/>
    </g>
    <g data-name="그룹 3897">
        <path data-name="패스 5106" d="M122.53 194.01a6.293 6.293 0 0 0 1.15-3.18h-3.64v-1.03H125a9.918 9.918 0 0 1-.45 3.02 6.839 6.839 0 0 1-1.5 2.52 9.29 9.29 0 0 1-2.82 2.02l-.68-1.02a7.9 7.9 0 0 0 2.98-2.33zm5.95 5.26h-1.3v-5.39h-2.24v-1.07h2.24v-4.14h1.3z" style="fill:#fff" transform="translate(.19 -143.41)"/>
        <path data-name="패스 5107" d="M134.29 193.71h-2.74v2.06c.62-.01 1.18-.03 1.7-.06a14.707 14.707 0 0 0 1.58-.18l.09 1.05c-.66.11-1.28.18-1.87.22s-1.27.06-2.03.06h-.73v-4.21h2.74v-1.84h-2.75v-1.05h4.01zm1.17-4.83h1.2v3.87h1.2v-4.07h1.24v10.59h-1.24v-5.47h-1.2v4.93h-1.2z" style="fill:#fff" transform="translate(.19 -143.41)"/>
        <path data-name="패스 5108" d="M145.81 193.81h4.2v1.05h-9.66v-1.05h4.17v-1.35h1.29v1.35zm-3.31-2.15a3.811 3.811 0 0 0 1.19-.65 1.618 1.618 0 0 0 .56-.82h-3.02v-1.04h7.91v1.04h-3.05a1.618 1.618 0 0 0 .56.82 3.759 3.759 0 0 0 1.2.65 6.971 6.971 0 0 0 1.71.36l-.47 1.02a6.716 6.716 0 0 1-2.46-.68 3.365 3.365 0 0 1-1.46-1.34 3.279 3.279 0 0 1-1.45 1.34 6.919 6.919 0 0 1-2.45.68l-.46-1.02a6.706 6.706 0 0 0 1.69-.36zm-.58 4.74a2.8 2.8 0 0 1 1.27-.63 8.078 8.078 0 0 1 1.98-.22 7.539 7.539 0 0 1 1.97.22 2.864 2.864 0 0 1 1.26.63 1.368 1.368 0 0 1 0 2.01 2.865 2.865 0 0 1-1.26.63 8.051 8.051 0 0 1-1.97.22 7.619 7.619 0 0 1-1.98-.22 3.019 3.019 0 0 1-1.27-.63 1.348 1.348 0 0 1-.44-1.01 1.293 1.293 0 0 1 .44-1zm1.48 1.66a5.333 5.333 0 0 0 1.77.22 5.24 5.24 0 0 0 1.75-.22c.4-.15.61-.37.61-.66s-.21-.49-.61-.64a5.306 5.306 0 0 0-1.76-.22 5.613 5.613 0 0 0-1.77.22c-.4.14-.6.35-.59.64s.2.51.6.66z" style="fill:#fff" transform="translate(.19 -143.41)"/>
        <path data-name="패스 5109" d="M160.4 198.04h-9.68v-1.08h2.57v-1.75h-1.42v-3.46h6.09v-1.3h-6.12v-1.05h7.41v3.4h-6.08v1.36h6.33v1.05h-1.55v1.75h2.45v1.08zm-3.72-1.07v-1.75h-2.12v1.75z" style="fill:#fff" transform="translate(.19 -143.41)"/>
    </g>
    <g data-name="그룹 3898">
        <path data-name="패스 5110" d="M263.19 154.43H16.61a3.5 3.5 0 0 1-3.5-3.5 3.5 3.5 0 0 1 3.5-3.5H263.2a3.5 3.5 0 0 1 3.5 3.5 3.519 3.519 0 0 1-3.51 3.5z" style="fill:#3f52fc" transform="translate(.19 -143.41)"/>
    </g>
    <g data-name="그룹 3901">
        <g data-name="그룹 3899" transform="translate(.19 -143.41)">
            <circle data-name="타원 134" cx="7" cy="7" r="7" transform="translate(8.54 143.91)" style="fill:#3f52fc"/>
            <path data-name="패스 5111" d="M15.54 158.41a7.5 7.5 0 1 1 7.5-7.5 7.5 7.5 0 0 1-7.5 7.5zm0-14a6.5 6.5 0 1 0 6.5 6.5 6.513 6.513 0 0 0-6.5-6.5z" style="fill:#3f52fc"/>
        </g>
        <g data-name="그룹 3900">
            <path data-name="패스 5112" d="M16.31 154.59h-.87v-6.03h-.04l-1.68 1.12v-.87l1.72-1.15h.87z" style="fill:#fff" transform="translate(.19 -143.41)"/>
        </g>
    </g>
    <g data-name="그룹 3902">
        <path data-name="패스 5113" d="M6.29 164.99h-.92v3.13c.59-.05 1.04-.1 1.35-.13l.09.96a25.419 25.419 0 0 1-3.02.32c-1.06.05-2.18.08-3.34.08l-.14-1.05c.24 0 .65 0 1.22-.01V165H.59v-1.04H6.3v1.03zm-4.39 5.09h1.3v2.26h5.91v1.05H1.9zm2.2-1.88v-3.21H2.78v3.26c.44-.01.88-.03 1.32-.05zm3.28-5.17h1.3v3.06h1.48v1.09H8.69v3.64h-1.3v-7.79z" style="fill:#3f52fc" transform="translate(.19 -143.41)"/>
        <path data-name="패스 5114" d="M11.03 164.17h4.16v6.71h-4.16zm2.94 5.68v-4.65h-1.72v4.65zm5.87 3.76h-1.25v-5.43h-1.12v4.91h-1.23v-9.89h1.23v3.9h1.12v-4.09h1.25z" style="fill:#3f52fc" transform="translate(.19 -143.41)"/>
        <path data-name="패스 5115" d="M30.73 168.94h-4.2v.89a4.8 4.8 0 0 1 2.23.58 1.494 1.494 0 0 1 .8 1.3 1.391 1.391 0 0 1-.44 1.03 2.918 2.918 0 0 1-1.27.65 7.51 7.51 0 0 1-1.96.22 7.619 7.619 0 0 1-1.98-.22 2.816 2.816 0 0 1-1.27-.65 1.407 1.407 0 0 1-.44-1.03 1.475 1.475 0 0 1 .8-1.3 4.979 4.979 0 0 1 2.25-.58v-.88h-4.17v-1.05h9.66v1.04zm-7.5-2.93a3.819 3.819 0 0 0 1.19-.66 1.6 1.6 0 0 0 .56-.83h-3.02v-1.04h7.91v1.04h-3.05a1.617 1.617 0 0 0 .55.83 3.766 3.766 0 0 0 1.2.66 6.548 6.548 0 0 0 1.71.35l-.46 1.03a6.714 6.714 0 0 1-2.46-.69 3.383 3.383 0 0 1-1.46-1.35 3.354 3.354 0 0 1-1.45 1.35 6.717 6.717 0 0 1-2.45.69l-.45-1.03a6.487 6.487 0 0 0 1.68-.35zm.88 6.36a4.9 4.9 0 0 0 1.73.23 5.4 5.4 0 0 0 1.78-.23c.41-.15.62-.38.62-.67s-.21-.52-.62-.67a5.278 5.278 0 0 0-1.75-.23 5.371 5.371 0 0 0-1.77.23c-.41.15-.6.38-.6.67.02.29.21.51.61.67z" style="fill:#3f52fc" transform="translate(.19 -143.41)"/>
    </g>
    <g data-name="그룹 3903">
        <path data-name="패스 5116" d="M130.55 165.01a2.7 2.7 0 0 1 1.03-.95 3.262 3.262 0 0 1 2.9 0 2.641 2.641 0 0 1 1.03 3.68 2.626 2.626 0 0 1-1.03.95 3.262 3.262 0 0 1-2.9 0 2.575 2.575 0 0 1-1.41-2.32 2.425 2.425 0 0 1 .38-1.36zm1.1 2.16a1.3 1.3 0 0 0 .56.53 1.8 1.8 0 0 0 .82.19 1.631 1.631 0 0 0 .8-.19 1.364 1.364 0 0 0 .56-.53 1.614 1.614 0 0 0 .21-.8 1.481 1.481 0 0 0-.21-.79 1.386 1.386 0 0 0-.57-.53 1.78 1.78 0 0 0-.8-.19 1.67 1.67 0 0 0-.81.19 1.456 1.456 0 0 0-.57.53 1.475 1.475 0 0 0-.2.79 1.614 1.614 0 0 0 .21.8zm.15 2.74h1.31v2.44h5.99v1.05h-7.3zm7 .77h-1.31v-7.65h1.31z" style="fill:#3f52fc" transform="translate(.19 -143.41)"/>
        <path data-name="패스 5117" d="M142.67 168.24a6.247 6.247 0 0 0 .97-2.88h-2.84v-1.05h4.12a11.015 11.015 0 0 1-.11 1.56h1.24v-2.59h1.24v9.83h-1.24v-3.54h-1.65v-1.07h1.65v-1.57h-1.46a7.04 7.04 0 0 1-1.27 2.48 8.421 8.421 0 0 1-2.32 1.97l-.76-.93a7.1 7.1 0 0 0 2.43-2.21zm6.82 5.37h-1.24v-10.59h1.24z" style="fill:#3f52fc" transform="translate(.19 -143.41)"/>
    </g>
    <g data-name="그룹 3906">
        <g data-name="그룹 3904" transform="translate(.19 -143.41)">
            <circle data-name="타원 135" cx="7" cy="7" r="7" transform="translate(133 143.93)" style="fill:#3f52fc"/>
            <path data-name="패스 5118" d="M140 158.43a7.5 7.5 0 1 1 7.5-7.5 7.5 7.5 0 0 1-7.5 7.5zm0-14a6.5 6.5 0 1 0 6.5 6.5 6.513 6.513 0 0 0-6.5-6.5z" style="fill:#3f52fc"/>
        </g>
        <g data-name="그룹 3905">
            <path data-name="패스 5119" d="m137.77 153.98 2.36-2.49c.31-.33.55-.6.71-.8a3.075 3.075 0 0 0 .38-.59 1.368 1.368 0 0 0 .13-.59 1.045 1.045 0 0 0-.18-.61 1.273 1.273 0 0 0-.5-.41 1.6 1.6 0 0 0-.7-.15 1.462 1.462 0 0 0-.71.17 1.157 1.157 0 0 0-.47.46 1.345 1.345 0 0 0-.17.68h-.81a2.011 2.011 0 0 1 .28-1.07 1.9 1.9 0 0 1 .79-.72 2.462 2.462 0 0 1 1.12-.26 2.385 2.385 0 0 1 1.11.25 1.983 1.983 0 0 1 .77.69 1.836 1.836 0 0 1 .28.98 1.944 1.944 0 0 1-.15.76 3.068 3.068 0 0 1-.48.8q-.345.435-.96 1.08l-1.59 1.64v.06h3.3v.77h-4.5z" style="fill:#fff" transform="translate(.19 -143.41)"/>
        </g>
    </g>
    <g data-name="그룹 3907">
        <path data-name="패스 5120" d="M241.74 168.35a6.293 6.293 0 0 0 1.15-3.18h-3.64v-1.03h4.96a9.918 9.918 0 0 1-.45 3.02 6.839 6.839 0 0 1-1.5 2.52 9.29 9.29 0 0 1-2.82 2.02l-.68-1.02a8 8 0 0 0 2.98-2.33zm5.95 5.26h-1.3v-5.39h-2.24v-1.07h2.24v-4.14h1.3z" style="fill:#707070" transform="translate(.19 -143.41)"/>
        <path data-name="패스 5121" d="M253.5 168.04h-2.74v2.06c.62-.01 1.18-.03 1.7-.06a14.707 14.707 0 0 0 1.58-.18l.09 1.05c-.66.11-1.28.18-1.87.22s-1.27.06-2.03.06h-.73v-4.21h2.74v-1.84h-2.75v-1.05h4.01zm1.17-4.82h1.2v3.87h1.2v-4.07h1.24v10.59h-1.24v-5.47h-1.2v4.93h-1.2v-9.85z" style="fill:#707070" transform="translate(.19 -143.41)"/>
        <path data-name="패스 5122" d="M265.02 168.15h4.2v1.05h-9.66v-1.05h4.17v-1.35h1.29v1.35zm-3.31-2.15a3.811 3.811 0 0 0 1.19-.65 1.618 1.618 0 0 0 .56-.82h-3.02v-1.04h7.91v1.04h-3.05a1.618 1.618 0 0 0 .56.82 3.759 3.759 0 0 0 1.2.65 6.971 6.971 0 0 0 1.71.36l-.47 1.02a6.715 6.715 0 0 1-2.46-.68 3.365 3.365 0 0 1-1.46-1.34 3.279 3.279 0 0 1-1.45 1.34 6.919 6.919 0 0 1-2.45.68l-.46-1.02a7.843 7.843 0 0 0 1.69-.36zm-.59 4.73a2.8 2.8 0 0 1 1.27-.63 8.078 8.078 0 0 1 1.98-.22 7.539 7.539 0 0 1 1.97.22 2.864 2.864 0 0 1 1.26.63 1.368 1.368 0 0 1 0 2.01 2.864 2.864 0 0 1-1.26.63 8.051 8.051 0 0 1-1.97.22 7.62 7.62 0 0 1-1.98-.22 3.019 3.019 0 0 1-1.27-.63 1.368 1.368 0 0 1 0-2.01zm1.48 1.66a5.333 5.333 0 0 0 1.77.22 5.24 5.24 0 0 0 1.75-.22c.4-.15.61-.37.61-.66s-.21-.49-.61-.64a5.306 5.306 0 0 0-1.76-.22 5.613 5.613 0 0 0-1.77.22c-.4.14-.6.35-.59.64s.2.51.6.66z" style="fill:#707070" transform="translate(.19 -143.41)"/>
        <path data-name="패스 5123" d="M279.61 172.38h-9.68v-1.08h2.57v-1.75h-1.42v-3.46h6.09v-1.3h-6.12v-1.05h7.41v3.4h-6.08v1.36h6.33v1.05h-1.55v1.75h2.45v1.08zm-3.73-1.08v-1.75h-2.12v1.75z" style="fill:#707070" transform="translate(.19 -143.41)"/>
    </g>
    <g data-name="그룹 3910">
        <g data-name="그룹 3908" transform="translate(.19 -143.41)">
            <circle data-name="타원 136" cx="7" cy="7" r="7" transform="translate(252.21 143.93)" style="fill:#3f52fc"/>
            <path data-name="패스 5124" d="M259.21 158.43a7.5 7.5 0 1 1 7.5-7.5 7.5 7.5 0 0 1-7.5 7.5zm0-14a6.5 6.5 0 1 0 6.5 6.5 6.513 6.513 0 0 0-6.5-6.5z" style="fill:#3f52fc"/>
        </g>
        <g data-name="그룹 3909">
            <path data-name="패스 5125" d="M258 154.48a1.94 1.94 0 0 1-.85-.65 1.637 1.637 0 0 1-.33-.96h.87a.966.966 0 0 0 .23.57 1.3 1.3 0 0 0 .54.37 2.056 2.056 0 0 0 .76.13 2.088 2.088 0 0 0 .81-.15 1.3 1.3 0 0 0 .56-.43 1.008 1.008 0 0 0 .2-.63 1.176 1.176 0 0 0-.2-.67 1.3 1.3 0 0 0-.58-.46 2.273 2.273 0 0 0-.91-.17h-.56v-.76h.56a1.747 1.747 0 0 0 .74-.15 1.117 1.117 0 0 0 .68-1.04 1.135 1.135 0 0 0-.16-.61 1.054 1.054 0 0 0-.45-.41 1.48 1.48 0 0 0-.68-.15 1.822 1.822 0 0 0-.7.14 1.228 1.228 0 0 0-.53.38.925.925 0 0 0-.22.58h-.83a1.584 1.584 0 0 1 .33-.95 2.064 2.064 0 0 1 .83-.65 2.818 2.818 0 0 1 1.13-.23 2.343 2.343 0 0 1 1.12.25 1.878 1.878 0 0 1 .74.68 1.657 1.657 0 0 1 .25.92 1.609 1.609 0 0 1-.31 1 1.557 1.557 0 0 1-.87.57v.05a1.744 1.744 0 0 1 .77.29 1.478 1.478 0 0 1 .5.58 1.832 1.832 0 0 1 .17.79 1.723 1.723 0 0 1-.31 1.01 2.154 2.154 0 0 1-.86.71 2.926 2.926 0 0 1-1.24.26 2.788 2.788 0 0 1-1.2-.21z" style="fill:#fff" transform="translate(.19 -143.41)"/>
        </g>
    </g>
</svg>
