<svg xmlns="http://www.w3.org/2000/svg" width="780.93" height="100.47" viewBox="0 0 780.93 100.47">
  <defs>
    <style>
      .cls-1 {
        fill: #3f52fc;
      }

      .cls-2 {
        fill: #fff;
      }
    </style>
  </defs>
  <g id="판매중-거래종료" transform="translate(-179.53 -48.25)">
    <g id="그룹_3831" data-name="그룹 3831">
      <g id="그룹_3830" data-name="그룹 3830">
        <path id="패스_5178" data-name="패스 5178" class="cls-1" d="M931.1,64.45H235.4c-1.19,0-2.15-1.57-2.15-3.5s.96-3.5,2.15-3.5H931.1c1.19,0,2.15,1.57,2.15,3.5S932.29,64.45,931.1,64.45Z"/>
      </g>
    </g>
    <g id="그룹_3833" data-name="그룹 3833">
      <g id="그룹_3832" data-name="그룹 3832">
        <path id="패스_5179" data-name="패스 5179" class="cls-1" d="M576.31,64.45H203.36a3.5,3.5,0,1,1,0-7H576.3a3.5,3.5,0,1,1,.01,7Z"/>
      </g>
    </g>
    <g id="그룹_3834" data-name="그룹 3834">
      <path id="패스_5180" data-name="패스 5180" class="cls-1" d="M570.65,82.55a3.431,3.431,0,0,1,1.38-1.26,4.134,4.134,0,0,1,1.93-.46,4.017,4.017,0,0,1,1.93.46,3.474,3.474,0,0,1,1.37,1.26,3.4,3.4,0,0,1,.5,1.81,3.442,3.442,0,0,1-.5,1.83,3.4,3.4,0,0,1-1.37,1.26,4.364,4.364,0,0,1-3.86,0,3.5,3.5,0,0,1-1.38-1.26,3.355,3.355,0,0,1-.5-1.83A3.206,3.206,0,0,1,570.65,82.55Zm1.47,2.88a1.833,1.833,0,0,0,.75.71,2.276,2.276,0,0,0,1.09.25,2.223,2.223,0,0,0,1.07-.25,1.833,1.833,0,0,0,.75-.71,2.075,2.075,0,0,0,.27-1.07,2,2,0,0,0-.27-1.05,1.833,1.833,0,0,0-.75-.71,2.251,2.251,0,0,0-1.07-.25,2.332,2.332,0,0,0-1.09.25,1.833,1.833,0,0,0-.75.71,2.052,2.052,0,0,0-.27,1.05A2.075,2.075,0,0,0,572.12,85.43Zm.19,3.65h1.75v3.25h7.98v1.41h-9.73Zm9.35,1.03h-1.75V79.91h1.75Z"/>
      <path id="패스_5181" data-name="패스 5181" class="cls-1" d="M586.82,86.86a8.2,8.2,0,0,0,1.29-3.84h-3.78V81.61h5.5a13.843,13.843,0,0,1-.15,2.08h1.65V80.24h1.66V93.35h-1.66V88.63h-2.2V87.2h2.2V85.11h-1.95a9.576,9.576,0,0,1-1.69,3.3,10.951,10.951,0,0,1-3.1,2.62l-1.02-1.23A9.659,9.659,0,0,0,586.82,86.86Zm9.09,7.16h-1.66V79.89h1.66Z"/>
    </g>
    <g id="그룹_3835" data-name="그룹 3835">
      <path id="패스_5182" data-name="패스 5182" class="cls-1" d="M909.96,87a8.375,8.375,0,0,0,1.53-4.23h-4.86V81.39h6.61a12.859,12.859,0,0,1-.61,4.03,9.323,9.323,0,0,1-2,3.36,12.705,12.705,0,0,1-3.75,2.7l-.91-1.36A10.615,10.615,0,0,0,909.96,87Zm7.93,7.02h-1.73V86.83h-2.98V85.41h2.98V79.89h1.73Z"/>
      <path id="패스_5183" data-name="패스 5183" class="cls-1" d="M925.64,86.6h-3.66v2.75c.82-.01,1.58-.04,2.26-.08a20.142,20.142,0,0,0,2.11-.25l.12,1.41a23.729,23.729,0,0,1-2.5.29c-.79.05-1.69.08-2.71.08h-.97V85.19h3.66V82.74h-3.67V81.33h5.34V86.6Zm1.57-6.44h1.59v5.16h1.59V79.9h1.66V94.02h-1.66v-7.3H928.8V93.3h-1.59Z"/>
      <path id="패스_5184" data-name="패스 5184" class="cls-1" d="M941,86.74h5.59v1.41H933.71V86.74h5.56v-1.8H941Zm-4.41-2.88a5.158,5.158,0,0,0,1.59-.86,2.159,2.159,0,0,0,.75-1.09H934.9V80.52h10.55v1.39h-4.07a2.159,2.159,0,0,0,.75,1.09,5.164,5.164,0,0,0,1.59.87,9.162,9.162,0,0,0,2.28.48l-.62,1.36a8.907,8.907,0,0,1-3.28-.91,4.4,4.4,0,0,1-1.94-1.78,4.474,4.474,0,0,1-1.94,1.79,9.108,9.108,0,0,1-3.27.9l-.61-1.36A9.576,9.576,0,0,0,936.59,83.86Zm-.78,6.32a3.774,3.774,0,0,1,1.69-.84,10.7,10.7,0,0,1,2.64-.29,10.417,10.417,0,0,1,2.62.29,3.787,3.787,0,0,1,1.68.84,1.839,1.839,0,0,1,.01,2.69,3.786,3.786,0,0,1-1.68.84,12.116,12.116,0,0,1-5.27,0,3.774,3.774,0,0,1-1.69-.84,1.8,1.8,0,0,1-.59-1.35A1.759,1.759,0,0,1,935.81,90.18Zm1.97,2.21a9.354,9.354,0,0,0,4.7,0c.54-.2.81-.49.82-.88s-.28-.66-.81-.85a7.378,7.378,0,0,0-2.34-.29,7.689,7.689,0,0,0-2.36.29c-.53.19-.8.47-.79.85C936.98,91.9,937.25,92.19,937.78,92.39Z"/>
      <path id="패스_5185" data-name="패스 5185" class="cls-1" d="M960.46,92.38H947.55V90.94h3.42V88.61h-1.89V84h8.12V82.27h-8.16V80.86h9.88v4.53h-8.11V87.2h8.44v1.41h-2.06v2.33h3.27v1.44Zm-4.97-1.44V88.61h-2.83v2.33Z"/>
    </g>
    <g id="그룹_3838" data-name="그룹 3838">
      <g id="그룹_3836" data-name="그룹 3836">
        <circle id="타원_155" data-name="타원 155" class="cls-1" cx="12.2" cy="12.2" r="12.2" transform="translate(187.63 48.75)"/>
        <path id="패스_5186" data-name="패스 5186" class="cls-1" d="M199.83,73.65a12.7,12.7,0,1,1,12.7-12.7A12.718,12.718,0,0,1,199.83,73.65Zm0-24.39a11.7,11.7,0,1,0,11.7,11.7A11.715,11.715,0,0,0,199.83,49.26Z"/>
      </g>
      <g id="그룹_3837" data-name="그룹 3837">
        <path id="패스_5187" data-name="패스 5187" class="cls-2" d="M201.18,67.37h-1.52V56.87h-.07l-2.93,1.95V57.3l3-2h1.52Z"/>
      </g>
    </g>
    <g id="그룹_3841" data-name="그룹 3841">
      <g id="그룹_3839" data-name="그룹 3839">
        <circle id="타원_156" data-name="타원 156" class="cls-1" cx="12.2" cy="12.2" r="12.2" transform="translate(571.05 48.75)"/>
        <path id="패스_5188" data-name="패스 5188" class="cls-1" d="M583.25,73.65a12.7,12.7,0,1,1,12.7-12.7A12.718,12.718,0,0,1,583.25,73.65Zm0-24.39a11.7,11.7,0,1,0,11.7,11.7A11.715,11.715,0,0,0,583.25,49.26Z"/>
      </g>
      <g id="그룹_3840" data-name="그룹 3840">
        <path id="패스_5189" data-name="패스 5189" class="cls-2" d="M579.36,66.27l4.12-4.33c.54-.58.95-1.04,1.24-1.4a4.551,4.551,0,0,0,.65-1.02,2.446,2.446,0,0,0,.22-1.03,1.851,1.851,0,0,0-.32-1.07,2.1,2.1,0,0,0-.86-.72,2.835,2.835,0,0,0-1.22-.26,2.581,2.581,0,0,0-1.24.29,1.977,1.977,0,0,0-.82.8,2.371,2.371,0,0,0-.29,1.18h-1.42a3.368,3.368,0,0,1,1.86-3.12,4.473,4.473,0,0,1,3.89-.01,3.346,3.346,0,0,1,1.34,1.21,3.142,3.142,0,0,1,.48,1.7,3.916,3.916,0,0,1-.25,1.32,5.732,5.732,0,0,1-.84,1.4,20.861,20.861,0,0,1-1.68,1.88l-2.77,2.85v.1h5.75v1.33h-7.84Z"/>
      </g>
    </g>
    <g id="그룹_3844" data-name="그룹 3844">
      <g id="그룹_3842" data-name="그룹 3842">
        <circle id="타원_157" data-name="타원 157" class="cls-1" cx="12.2" cy="12.2" r="12.2" transform="translate(921.05 48.75)"/>
        <path id="패스_5190" data-name="패스 5190" class="cls-1" d="M933.25,73.65a12.7,12.7,0,1,1,12.7-12.7A12.718,12.718,0,0,1,933.25,73.65Zm0-24.39a11.7,11.7,0,1,0,11.7,11.7A11.715,11.715,0,0,0,933.25,49.26Z"/>
      </g>
      <g id="그룹_3843" data-name="그룹 3843">
        <path id="패스_5191" data-name="패스 5191" class="cls-2" d="M931.15,67.14a3.566,3.566,0,0,1-1.49-1.13,2.837,2.837,0,0,1-.58-1.67h1.52a1.68,1.68,0,0,0,.4.99,2.334,2.334,0,0,0,.95.65,3.693,3.693,0,0,0,1.32.23,3.56,3.56,0,0,0,1.42-.27,2.34,2.34,0,0,0,.98-.75,1.783,1.783,0,0,0,.35-1.1,2.043,2.043,0,0,0-.35-1.17,2.314,2.314,0,0,0-1-.8,3.979,3.979,0,0,0-1.58-.29h-.98V60.51h.98a3.094,3.094,0,0,0,1.29-.26,2.054,2.054,0,0,0,.88-.73,1.876,1.876,0,0,0,.31-1.08,2,2,0,0,0-.27-1.05,1.918,1.918,0,0,0-.78-.71,2.638,2.638,0,0,0-1.19-.25,3.314,3.314,0,0,0-1.22.24,2.256,2.256,0,0,0-.93.66,1.661,1.661,0,0,0-.39,1h-1.45a2.807,2.807,0,0,1,.58-1.66,3.725,3.725,0,0,1,1.45-1.13,4.753,4.753,0,0,1,1.97-.4,4.155,4.155,0,0,1,1.95.44,3.212,3.212,0,0,1,1.29,1.18,2.937,2.937,0,0,1,.44,1.61,2.756,2.756,0,0,1-.54,1.74,2.869,2.869,0,0,1-1.51,1v.08a3.223,3.223,0,0,1,1.35.51,2.572,2.572,0,0,1,.87,1.01,3.106,3.106,0,0,1,.3,1.38,2.965,2.965,0,0,1-.55,1.76,3.678,3.678,0,0,1-1.5,1.24,5.015,5.015,0,0,1-2.15.45A5.589,5.589,0,0,1,931.15,67.14Z"/>
      </g>
    </g>
    <g id="그룹_3845" data-name="그룹 3845">
      <path id="패스_5192" data-name="패스 5192" class="cls-1" d="M187.51,83.94h-1.23v4.18q1.185-.1,1.8-.18l.12,1.28a35.3,35.3,0,0,1-4.03.43c-1.42.07-2.9.11-4.45.11l-.19-1.41c.32,0,.86,0,1.62-.02V83.94H179.9V82.55h7.61Zm-5.86,6.8h1.73v3.02h7.88v1.41h-9.61Zm2.94-2.51V83.95h-1.77V88.3C183.42,88.28,184,88.26,184.59,88.23Zm4.38-6.9h1.73v4.08h1.97v1.45H190.7v4.86h-1.73Z"/>
      <path id="패스_5193" data-name="패스 5193" class="cls-1" d="M193.83,82.85h5.55V91.8h-5.55Zm3.92,7.58v-6.2h-2.3v6.2Zm7.83,5.01h-1.67V88.21h-1.5v6.55h-1.64V81.57h1.64v5.2h1.5V81.32h1.67Z"/>
      <path id="패스_5194" data-name="패스 5194" class="cls-1" d="M220.09,89.21H214.5V90.4a6.485,6.485,0,0,1,2.97.77,1.971,1.971,0,0,1,1.06,1.73,1.839,1.839,0,0,1-.59,1.37,3.739,3.739,0,0,1-1.69.86,10.409,10.409,0,0,1-2.61.3,10.586,10.586,0,0,1-2.64-.29,3.739,3.739,0,0,1-1.69-.86,1.86,1.86,0,0,1-.59-1.38,1.952,1.952,0,0,1,1.06-1.73,6.623,6.623,0,0,1,3-.77V89.22h-5.56V87.8H220.1v1.41Zm-10-3.9a4.972,4.972,0,0,0,1.59-.88,2.224,2.224,0,0,0,.75-1.1H208.4V81.94h10.55v1.39h-4.07a2.158,2.158,0,0,0,.74,1.11,4.972,4.972,0,0,0,1.59.88,9.261,9.261,0,0,0,2.29.47l-.61,1.38a9.017,9.017,0,0,1-3.29-.92,4.464,4.464,0,0,1-1.95-1.8,4.434,4.434,0,0,1-1.94,1.8,9.107,9.107,0,0,1-3.27.91l-.59-1.38A8.7,8.7,0,0,0,210.09,85.31Zm1.18,8.48a6.573,6.573,0,0,0,2.31.31,7.283,7.283,0,0,0,2.38-.3c.55-.2.83-.5.83-.9s-.28-.69-.82-.89a7.014,7.014,0,0,0-2.34-.31,7.105,7.105,0,0,0-2.36.31c-.54.2-.81.5-.8.89S210.74,93.58,211.27,93.79Z"/>
    </g>
    <g id="그룹_3850" data-name="그룹 3850">
      <g id="그룹_3846" data-name="그룹 3846">
        <path id="패스_5195" data-name="패스 5195" class="cls-1" d="M436.79,130.53h-1.23v4.18q1.185-.105,1.8-.18l.12,1.28a35.3,35.3,0,0,1-4.03.43c-1.42.07-2.9.11-4.45.11l-.19-1.41c.32,0,.86,0,1.62-.02v-4.39h-1.25v-1.39h7.61v1.39Zm-5.85,6.79h1.73v3.02h7.88v1.41h-9.61v-4.43Zm2.93-2.51v-4.28H432.1v4.35C432.7,134.86,433.28,134.84,433.87,134.81Zm4.38-6.89h1.73V132h1.97v1.45h-1.97v4.86h-1.73Z"/>
        <path id="패스_5196" data-name="패스 5196" class="cls-1" d="M443.11,129.43h5.55v8.95h-5.55Zm3.92,7.58v-6.2h-2.3v6.2Zm7.83,5.02h-1.67V134.8h-1.5v6.55h-1.64V128.16h1.64v5.2h1.5v-5.45h1.67Z"/>
        <path id="패스_5197" data-name="패스 5197" class="cls-1" d="M461.98,134.14a6.627,6.627,0,0,0,1.23,2.05,5.667,5.667,0,0,0,1.88,1.43l-.97,1.38a5.72,5.72,0,0,1-2.04-1.61,8.141,8.141,0,0,1-1.37-2.43,8.5,8.5,0,0,1-1.4,2.65,5.839,5.839,0,0,1-2.1,1.73l-1.02-1.36a5.481,5.481,0,0,0,1.91-1.49,7.1,7.1,0,0,0,1.26-2.18,7.262,7.262,0,0,0,.45-2.39v-1.19h-3.08v-1.44h7.77v1.44h-2.95v1.19A6.115,6.115,0,0,0,461.98,134.14Zm3.85-6.24h1.73v5.5h2.17v1.45h-2.17v7.17h-1.73Z"/>
        <path id="패스_5198" data-name="패스 5198" class="cls-1" d="M474.23,135.03a8.309,8.309,0,0,0,1.66-4.22h-4.88v-1.44h6.64a10.572,10.572,0,0,1-6.42,10.11l-.98-1.34A11.261,11.261,0,0,0,474.23,135.03Zm7.16-1.61h2.09v1.45h-2.09V142h-1.73V127.9h1.73Z"/>
        <path id="패스_5199" data-name="패스 5199" class="cls-1" d="M488.7,130.56a3.431,3.431,0,0,1,1.38-1.26,4.164,4.164,0,0,1,1.93-.46,4.016,4.016,0,0,1,1.93.46,3.474,3.474,0,0,1,1.37,1.26,3.4,3.4,0,0,1,.5,1.81,3.443,3.443,0,0,1-.5,1.83,3.4,3.4,0,0,1-1.37,1.26,4.364,4.364,0,0,1-3.86,0,3.5,3.5,0,0,1-1.38-1.26,3.562,3.562,0,0,1,0-3.64Zm1.47,2.88a1.833,1.833,0,0,0,.75.71,2.276,2.276,0,0,0,1.09.25,2.223,2.223,0,0,0,1.07-.25,1.833,1.833,0,0,0,.75-.71,2.075,2.075,0,0,0,.27-1.07,2,2,0,0,0-.27-1.05,1.833,1.833,0,0,0-.75-.71,2.251,2.251,0,0,0-1.07-.25,2.332,2.332,0,0,0-1.09.25,1.833,1.833,0,0,0-.75.71,2.052,2.052,0,0,0-.27,1.05A2.074,2.074,0,0,0,490.17,133.44Zm.2,3.65h1.75v3.25h7.98v1.41h-9.73Zm9.35,1.03h-1.75v-10.2h1.75Z"/>
        <path id="패스_5200" data-name="패스 5200" class="cls-1" d="M504.88,134.87a8.2,8.2,0,0,0,1.29-3.84h-3.78v-1.41h5.5a13.848,13.848,0,0,1-.15,2.08h1.65v-3.45h1.66v13.11h-1.66v-4.72h-2.2v-1.42h2.2v-2.09h-1.95a9.577,9.577,0,0,1-1.69,3.3,10.95,10.95,0,0,1-3.1,2.62l-1.02-1.23A9.785,9.785,0,0,0,504.88,134.87Zm9.09,7.16h-1.66V127.9h1.66Z"/>
        <path id="패스_5201" data-name="패스 5201" class="cls-1" d="M528.5,135.62H515.59v-1.31H528.5Zm-11.41.84h9.84v3.22h-8.09v.98h8.52v1.2H517.11v-3.31h8.11v-.88H517.1v-1.21Zm.1-8.25h9.72v3.19h-7.95v.92h8.2v1.19h-9.92v-3.23h7.94v-.86H517.2v-1.21Z"/>
        <path id="패스_5202" data-name="패스 5202" class="cls-1" d="M530.87,143.9h-1.48l.81-4.38h1.98Z"/>
        <path id="패스_5203" data-name="패스 5203" class="cls-1" d="M548.61,130.03c-.01.93-.03,1.73-.07,2.42a19.635,19.635,0,0,1-.3,2.35h1.95v1.41h-5.61v5.84h-1.75v-5.84h-5.52V134.8h9.16a18.846,18.846,0,0,0,.33-2.33c.05-.7.07-1.46.07-2.3h-8.05v-1.41h9.78v1.27Z"/>
        <path id="패스_5204" data-name="패스 5204" class="cls-1" d="M551.58,129.43h5.55v8.95h-5.55Zm3.93,7.58v-6.2h-2.3v6.2Zm7.82,5.02h-1.67V134.8h-1.5v6.55h-1.64V128.16h1.64v5.2h1.5v-5.45h1.67Z"/>
        <path id="패스_5205" data-name="패스 5205" class="cls-1" d="M570.45,134.14a6.628,6.628,0,0,0,1.23,2.05,5.666,5.666,0,0,0,1.88,1.43L572.6,139a5.72,5.72,0,0,1-2.04-1.61,8.141,8.141,0,0,1-1.37-2.43,8.5,8.5,0,0,1-1.4,2.65,5.839,5.839,0,0,1-2.1,1.73l-1.02-1.36a5.481,5.481,0,0,0,1.91-1.49,7.1,7.1,0,0,0,1.26-2.18,7.263,7.263,0,0,0,.45-2.39v-1.19h-3.08v-1.44h7.77v1.44h-2.95v1.19A6.318,6.318,0,0,0,570.45,134.14Zm3.85-6.24h1.73v5.5h2.17v1.45h-2.17v7.17H574.3Z"/>
        <path id="패스_5206" data-name="패스 5206" class="cls-1" d="M582.71,135.03a8.309,8.309,0,0,0,1.66-4.22h-4.88v-1.44h6.64a10.572,10.572,0,0,1-6.42,10.11l-.98-1.34A11.261,11.261,0,0,0,582.71,135.03Zm7.15-1.61h2.09v1.45h-2.09V142h-1.73V127.9h1.73Z"/>
        <path id="패스_5207" data-name="패스 5207" class="cls-1" d="M597.18,130.56a3.431,3.431,0,0,1,1.38-1.26,4.194,4.194,0,0,1,1.93-.46,4.044,4.044,0,0,1,1.93.46,3.549,3.549,0,0,1,1.37,1.26,3.4,3.4,0,0,1,.5,1.81,3.442,3.442,0,0,1-.5,1.83,3.4,3.4,0,0,1-1.37,1.26,4.364,4.364,0,0,1-3.86,0,3.5,3.5,0,0,1-1.38-1.26,3.355,3.355,0,0,1-.5-1.83A3.288,3.288,0,0,1,597.18,130.56Zm1.47,2.88a1.833,1.833,0,0,0,.75.71,2.276,2.276,0,0,0,1.09.25,2.223,2.223,0,0,0,1.07-.25,1.833,1.833,0,0,0,.75-.71,2.075,2.075,0,0,0,.27-1.07,2,2,0,0,0-.27-1.05,1.833,1.833,0,0,0-.75-.71,2.251,2.251,0,0,0-1.07-.25,2.332,2.332,0,0,0-1.09.25,1.833,1.833,0,0,0-.75.71,2.052,2.052,0,0,0-.27,1.05A2.074,2.074,0,0,0,598.65,133.44Zm.2,3.65h1.75v3.25h7.98v1.41h-9.73Zm9.34,1.03h-1.75v-10.2h1.75Z"/>
        <path id="패스_5208" data-name="패스 5208" class="cls-1" d="M610.25,135.67h12.88v1.44h-5.61v4.92H615.8v-4.92h-5.55v-1.44Zm7.99-4.86a5.311,5.311,0,0,0,1.77,1.45,7.745,7.745,0,0,0,2.61.79l-.69,1.41a8.413,8.413,0,0,1-3.16-1.1,5.706,5.706,0,0,1-2.07-2.04,5.834,5.834,0,0,1-2.06,2.04,8.328,8.328,0,0,1-3.13,1.1l-.69-1.41a7.481,7.481,0,0,0,2.59-.79,5.229,5.229,0,0,0,1.76-1.44,2.853,2.853,0,0,0,.62-1.74v-.72h1.83v.72A2.785,2.785,0,0,0,618.24,130.81Z"/>
        <path id="패스_5209" data-name="패스 5209" class="cls-1" d="M636.97,135.62H624.06v-1.31h12.91Zm-11.4.84h9.84v3.22h-8.09v.98h8.52v1.2H625.59v-3.31h8.11v-.88h-8.12v-1.21Zm.09-8.25h9.72v3.19h-7.95v.92h8.2v1.19h-9.92v-3.23h7.94v-.86h-7.98v-1.21Z"/>
        <path id="패스_5210" data-name="패스 5210" class="cls-1" d="M654.61,140.31H641.7v-1.42h5.56v-3.08h-4.14V129h10v6.81h-4.14v3.08h5.62v1.42Zm-3.2-5.86v-4.06h-6.58v4.06Z"/>
        <path id="패스_5211" data-name="패스 5211" class="cls-1" d="M655.52,135.95h12.91v1.41h-5.62V142h-1.72v-4.64h-5.56v-1.41Zm11.36-1.56h-9.67v-5.7h9.52v1.39H659v2.94h7.89v1.37Z"/>
        <path id="패스_5212" data-name="패스 5212" class="cls-1" d="M680.35,138.53h-6.69v-9.25h6.69Zm-1.74-1.39v-6.5h-3.25v6.5Zm3.88-9.24h1.73v5.42h2.17v1.47h-2.17v7.23h-1.73Z"/>
        <path id="패스_5213" data-name="패스 5213" class="cls-1" d="M689.04,134.38a4.3,4.3,0,0,0,1.18-1.46,3.841,3.841,0,0,0,.4-1.72v-.19H687.6v-1.38h3.02v-1.66h1.75v1.66h3v1.38h-3.02v.19a3.466,3.466,0,0,0,.4,1.62,4.068,4.068,0,0,0,1.19,1.38,5.675,5.675,0,0,0,1.88.91l-.83,1.38a6.078,6.078,0,0,1-2.09-1.07,5.092,5.092,0,0,1-1.38-1.69,5.316,5.316,0,0,1-1.38,1.85,5.617,5.617,0,0,1-2.13,1.15l-.84-1.36A5.649,5.649,0,0,0,689.04,134.38Zm.37,2.96h1.75v3h7.98v1.41h-9.73Zm9.34.94H697V127.92h1.75Z"/>
        <path id="패스_5214" data-name="패스 5214" class="cls-1" d="M710,131.87a4.115,4.115,0,0,0,1.13,1.45,5.149,5.149,0,0,0,1.81.97l-.94,1.36a5.421,5.421,0,0,1-3.23-2.86,5.774,5.774,0,0,1-1.32,1.99,5.443,5.443,0,0,1-2.05,1.26l-.94-1.36a5.163,5.163,0,0,0,1.88-1.1,4.615,4.615,0,0,0,1.15-1.64,4.992,4.992,0,0,0,.39-1.95v-1.34h1.73v1.5A3.967,3.967,0,0,0,710,131.87Zm-3.04,6.02a3.619,3.619,0,0,1,1.66-.91,9.173,9.173,0,0,1,2.55-.31,8.951,8.951,0,0,1,2.52.31,3.634,3.634,0,0,1,1.64.91,2.01,2.01,0,0,1,.57,1.43,2.04,2.04,0,0,1-.57,1.45,3.643,3.643,0,0,1-1.64.92,8.926,8.926,0,0,1-2.52.32,9.149,9.149,0,0,1-2.55-.32,3.721,3.721,0,0,1-1.66-.92,2.008,2.008,0,0,1-.58-1.45A1.978,1.978,0,0,1,706.96,137.89Zm1.94,2.41a6.092,6.092,0,0,0,2.26.33,5.975,5.975,0,0,0,2.24-.33,1.066,1.066,0,0,0,.78-.98c0-.42-.26-.74-.79-.96a5.925,5.925,0,0,0-2.23-.34,5.842,5.842,0,0,0-2.25.34c-.53.23-.8.55-.8.96A1.068,1.068,0,0,0,708.9,140.3Zm5.12-12.4h1.73v3.44h1.97v1.44h-1.97v3.58h-1.73Z"/>
        <path id="패스_5215" data-name="패스 5215" class="cls-1" d="M724.65,130.82h-4.03v2.31h3.78v1.36h-3.78v2.75c.92-.01,1.71-.04,2.37-.08s1.33-.11,2.02-.22l.14,1.42c-.75.12-1.48.21-2.2.26s-1.61.07-2.66.07h-1.33v-9.27h5.69Zm1.21-2.67h1.64v5.3h1.45V127.9h1.67v14.13h-1.67v-7.17H727.5v6.48h-1.64Z"/>
        <path id="패스_5216" data-name="패스 5216" class="cls-1" d="M733.02,130.12a3.4,3.4,0,0,1,1.36-1.18,4.737,4.737,0,0,1,3.9,0,3.263,3.263,0,0,1,1.36,1.18,3.086,3.086,0,0,1,.49,1.72,3,3,0,0,1-.49,1.7,3.221,3.221,0,0,1-1.36,1.16,4.737,4.737,0,0,1-3.9,0,3.366,3.366,0,0,1-1.36-1.16,3.005,3.005,0,0,1-.5-1.7A3.094,3.094,0,0,1,733.02,130.12Zm1.47,2.7a1.764,1.764,0,0,0,.75.65,2.575,2.575,0,0,0,1.1.23,2.516,2.516,0,0,0,1.08-.23,1.8,1.8,0,0,0,0-3.26,2.516,2.516,0,0,0-1.08-.23,2.575,2.575,0,0,0-1.1.23,1.734,1.734,0,0,0-1.02,1.63A1.8,1.8,0,0,0,734.49,132.82Zm.2,3.32h1.72v1.45h5.89v-1.45h1.73v5.72h-9.34v-5.72Zm7.61,4.31v-1.5h-5.89v1.5Zm1.74-4.97h-1.75V127.9h1.75Z"/>
        <path id="패스_5217" data-name="패스 5217" class="cls-1" d="M746.91,129.28h1.72V137a35.393,35.393,0,0,0,6.27-.64l.22,1.45a33.407,33.407,0,0,1-6.98.67h-1.22v-9.2Zm10.97,12.75h-1.72V127.9h1.72Z"/>
        <path id="패스_5218" data-name="패스 5218" class="cls-1" d="M760.5,129.25h6.61v1.41h-4.88v6.48c1.15,0,2.18-.04,3.09-.11s1.84-.18,2.78-.34l.2,1.47a27.078,27.078,0,0,1-3.03.35c-1,.06-2.2.09-3.61.09h-1.17v-9.35Zm10.49,4.01h2.17v1.42h-2.17v7.36h-1.73V127.9h1.73Z"/>
        <path id="패스_5219" data-name="패스 5219" class="cls-1" d="M774.86,140.6a1.214,1.214,0,0,1-.45-.45,1.224,1.224,0,0,1,0-1.21,1.266,1.266,0,0,1,.45-.44,1.224,1.224,0,0,1,1.21,0,1.236,1.236,0,0,1,.44.44,1.149,1.149,0,0,1,.16.6,1.184,1.184,0,0,1-.16.61,1.266,1.266,0,0,1-.44.45,1.124,1.124,0,0,1-.6.16A1.184,1.184,0,0,1,774.86,140.6Z"/>
      </g>
      <g id="그룹_3847" data-name="그룹 3847">
        <path id="패스_5220" data-name="패스 5220" class="cls-1" d="M330.12,148.22h-52.9a7.793,7.793,0,0,1-7.79-7.79V129.24a7.793,7.793,0,0,1,7.79-7.79h52.9a7.793,7.793,0,0,1,7.79,7.79v11.19A7.793,7.793,0,0,1,330.12,148.22Z"/>
      </g>
      <g id="그룹_3848" data-name="그룹 3848">
        <path id="패스_5221" data-name="패스 5221" class="cls-1" d="M862.78,148.72H277.22a8.3,8.3,0,0,1-8.29-8.29V129.24a8.3,8.3,0,0,1,8.29-8.29H862.79a8.3,8.3,0,0,1,8.29,8.29v11.19A8.3,8.3,0,0,1,862.78,148.72ZM277.22,121.94a7.3,7.3,0,0,0-7.29,7.29v11.19a7.3,7.3,0,0,0,7.29,7.29H862.79a7.3,7.3,0,0,0,7.29-7.29V129.23a7.3,7.3,0,0,0-7.29-7.29H277.22Z"/>
      </g>
      <g id="그룹_3849" data-name="그룹 3849">
        <path id="패스_5222" data-name="패스 5222" class="cls-2" d="M280.37,135.01a8.375,8.375,0,0,0,1.53-4.23h-4.86V129.4h6.61a13.155,13.155,0,0,1-.61,4.03,9.322,9.322,0,0,1-2,3.36,12.838,12.838,0,0,1-3.75,2.7l-.91-1.36A10.633,10.633,0,0,0,280.37,135.01Zm7.94,7.02h-1.73v-7.19H283.6v-1.42h2.98V127.9h1.73Z"/>
        <path id="패스_5223" data-name="패스 5223" class="cls-2" d="M296.06,134.6H292.4v2.75c.82-.01,1.58-.04,2.26-.08a20.142,20.142,0,0,0,2.11-.25l.12,1.41a23.726,23.726,0,0,1-2.5.29c-.79.05-1.69.08-2.71.08h-.97v-5.61h3.66v-2.45H290.7v-1.41h5.34v5.27Zm1.56-6.43h1.59v5.16h1.59v-5.42h1.66v14.13H300.8v-7.3h-1.59v6.58h-1.59Z"/>
        <path id="패스_5224" data-name="패스 5224" class="cls-2" d="M311.42,134.74h5.59v1.41H304.13v-1.41h5.56v-1.8h1.72v1.8Zm-4.41-2.87a5.157,5.157,0,0,0,1.59-.86,2.159,2.159,0,0,0,.75-1.09h-4.03v-1.39h10.55v1.39H311.8a2.159,2.159,0,0,0,.75,1.09,5.164,5.164,0,0,0,1.59.87,9.162,9.162,0,0,0,2.28.48l-.62,1.36a8.907,8.907,0,0,1-3.28-.91,4.4,4.4,0,0,1-1.94-1.78,4.473,4.473,0,0,1-1.94,1.79,9.108,9.108,0,0,1-3.27.9l-.61-1.36A9.687,9.687,0,0,0,307.01,131.87Zm-.79,6.32a3.774,3.774,0,0,1,1.69-.84,10.7,10.7,0,0,1,2.64-.29,10.418,10.418,0,0,1,2.62.29,3.786,3.786,0,0,1,1.68.84,1.839,1.839,0,0,1,.01,2.69,3.787,3.787,0,0,1-1.68.84,12.116,12.116,0,0,1-5.27,0,3.774,3.774,0,0,1-1.69-.84,1.8,1.8,0,0,1-.59-1.35A1.759,1.759,0,0,1,306.22,138.19Zm1.97,2.21a9.354,9.354,0,0,0,4.7,0c.54-.2.81-.49.82-.88-.01-.38-.28-.66-.81-.85a7.378,7.378,0,0,0-2.34-.29,7.689,7.689,0,0,0-2.36.29c-.53.19-.8.47-.79.85C307.4,139.91,307.66,140.2,308.19,140.4Z"/>
        <path id="패스_5225" data-name="패스 5225" class="cls-2" d="M330.87,140.39H317.96v-1.44h3.42v-2.33h-1.89v-4.61h8.12v-1.73h-8.16v-1.41h9.88v4.53h-8.11v1.81h8.44v1.41H327.6v2.33h3.27Zm-4.97-1.44v-2.33h-2.83v2.33Z"/>
      </g>
    </g>
  </g>
</svg>
