<svg xmlns="http://www.w3.org/2000/svg" width="780.9" height="100.47" viewBox="0 0 780.9 100.47">
    <g data-name="그룹 3824">
        <g data-name="그룹 3809">
            <g data-name="그룹 3808">
                <path data-name="패스 5123" d="M2162.12-184.47h-695.7c-1.19 0-2.15-1.57-2.15-3.5s.96-3.5 2.15-3.5h695.7c1.19 0 2.15 1.57 2.15 3.5s-.96 3.5-2.15 3.5z" style="fill:#f0f0f0" transform="translate(-1410.58 200.68)"/>
            </g>
        </g>
        <g data-name="그룹 3811">
            <g data-name="그룹 3810">
                <path data-name="패스 5124" d="M1807.33-184.47h-372.94a3.517 3.517 0 0 1-3.53-3.5 3.517 3.517 0 0 1 3.53-3.5h372.94a3.517 3.517 0 0 1 3.53 3.5 3.517 3.517 0 0 1-3.53 3.5z" style="fill:#3f52fc" transform="translate(-1410.58 200.68)"/>
            </g>
        </g>
        <g data-name="그룹 3812">
            <path data-name="패스 5125" d="M1801.67-166.38a3.431 3.431 0 0 1 1.38-1.26 4.194 4.194 0 0 1 1.93-.46 4.045 4.045 0 0 1 1.93.46 3.548 3.548 0 0 1 1.37 1.26 3.4 3.4 0 0 1 .5 1.81 3.443 3.443 0 0 1-.5 1.83 3.4 3.4 0 0 1-1.37 1.26 4.157 4.157 0 0 1-1.93.45 4.157 4.157 0 0 1-1.93-.45 3.5 3.5 0 0 1-1.38-1.26 3.355 3.355 0 0 1-.5-1.83 3.228 3.228 0 0 1 .5-1.81zm1.47 2.88a1.834 1.834 0 0 0 .75.71 2.276 2.276 0 0 0 1.09.25 2.223 2.223 0 0 0 1.07-.25 1.834 1.834 0 0 0 .75-.71 2.074 2.074 0 0 0 .27-1.07 2 2 0 0 0-.27-1.05 1.834 1.834 0 0 0-.75-.71 2.251 2.251 0 0 0-1.07-.25 2.332 2.332 0 0 0-1.09.25 1.834 1.834 0 0 0-.75.71 2.052 2.052 0 0 0-.27 1.05 2.049 2.049 0 0 0 .27 1.07zm.2 3.65h1.75v3.25h7.98v1.41h-9.73zm9.34 1.03h-1.75v-10.2h1.75z" style="fill:#3f52fc" transform="translate(-1410.58 200.68)"/>
            <path data-name="패스 5126" d="M1814.74-161.27h12.88v1.44h-5.61v4.92h-1.72v-4.92h-5.55zm7.98-4.86a5.311 5.311 0 0 0 1.77 1.45 7.745 7.745 0 0 0 2.61.79l-.69 1.41a8.414 8.414 0 0 1-3.16-1.1 5.705 5.705 0 0 1-2.07-2.04 5.833 5.833 0 0 1-2.06 2.04 8.328 8.328 0 0 1-3.13 1.1l-.69-1.41a7.481 7.481 0 0 0 2.59-.79 5.229 5.229 0 0 0 1.76-1.44 2.852 2.852 0 0 0 .62-1.74v-.72h1.83v.72a2.847 2.847 0 0 0 .62 1.73z" style="fill:#3f52fc" transform="translate(-1410.58 200.68)"/>
        </g>
        <g data-name="그룹 3813">
            <path data-name="패스 5127" d="M2140.98-161.92a8.375 8.375 0 0 0 1.53-4.23h-4.86v-1.38h6.61a13.15 13.15 0 0 1-.61 4.03 9.322 9.322 0 0 1-2 3.36 12.837 12.837 0 0 1-3.75 2.7l-.91-1.36a10.732 10.732 0 0 0 3.99-3.12zm7.94 7.01h-1.73v-7.19h-2.98v-1.42h2.98v-5.52h1.73z" style="fill:#707070" transform="translate(-1410.58 200.68)"/>
            <path data-name="패스 5128" d="M2156.67-162.33h-3.66v2.75a48.7 48.7 0 0 0 2.26-.08 20.154 20.154 0 0 0 2.11-.25l.12 1.41a23.722 23.722 0 0 1-2.5.29c-.79.05-1.69.08-2.71.08h-.97v-5.61h3.66v-2.45h-3.67v-1.41h5.34v5.27zm1.56-6.44h1.59v5.16h1.59v-5.42h1.66v14.12h-1.66v-7.3h-1.59v6.58h-1.59z" style="fill:#707070" transform="translate(-1410.58 200.68)"/>
            <path data-name="패스 5129" d="M2172.02-162.19h5.59v1.41h-12.88v-1.41h5.56v-1.8h1.72v1.8zm-4.41-2.87a5.161 5.161 0 0 0 1.59-.86 2.16 2.16 0 0 0 .75-1.09h-4.03v-1.39h10.55v1.39h-4.07a2.16 2.16 0 0 0 .75 1.09 5.161 5.161 0 0 0 1.59.87 9.16 9.16 0 0 0 2.28.48l-.62 1.36a8.907 8.907 0 0 1-3.28-.91 4.4 4.4 0 0 1-1.94-1.78 4.473 4.473 0 0 1-1.94 1.79 9.107 9.107 0 0 1-3.27.9l-.61-1.36a9.467 9.467 0 0 0 2.25-.49zm-.78 6.31a3.773 3.773 0 0 1 1.69-.84 10.7 10.7 0 0 1 2.64-.29 10.42 10.42 0 0 1 2.62.29 3.786 3.786 0 0 1 1.68.84 1.775 1.775 0 0 1 .59 1.34 1.786 1.786 0 0 1-.58 1.35 3.786 3.786 0 0 1-1.68.84 10.558 10.558 0 0 1-2.63.29 10.586 10.586 0 0 1-2.64-.29 3.773 3.773 0 0 1-1.69-.84 1.8 1.8 0 0 1-.59-1.35 1.773 1.773 0 0 1 .59-1.34zm1.97 2.22a7.068 7.068 0 0 0 2.36.3 7.056 7.056 0 0 0 2.34-.3c.54-.2.81-.49.82-.88-.01-.38-.28-.66-.81-.85a7.379 7.379 0 0 0-2.34-.29 7.69 7.69 0 0 0-2.36.29c-.53.19-.8.47-.79.85-.02.39.25.68.78.88z" style="fill:#707070" transform="translate(-1410.58 200.68)"/>
            <path data-name="패스 5130" d="M2191.48-156.55h-12.91v-1.44h3.42v-2.33h-1.89v-4.61h8.12v-1.73h-8.16v-1.41h9.88v4.53h-8.11v1.81h8.44v1.41h-2.06v2.33h3.27zm-4.97-1.44v-2.33h-2.83v2.33z" style="fill:#707070" transform="translate(-1410.58 200.68)"/>
        </g>
        <g data-name="그룹 3816">
            <g data-name="그룹 3814" transform="translate(-1410.58 200.68)">
                <circle data-name="타원 152" cx="12.2" cy="12.2" r="12.2" transform="translate(1418.66 -200.17)" style="fill:#3f52fc"/>
                <path data-name="패스 5131" d="M1430.86-175.28a12.718 12.718 0 0 1-12.7-12.7 12.718 12.718 0 0 1 12.7-12.7 12.718 12.718 0 0 1 12.7 12.7 12.718 12.718 0 0 1-12.7 12.7zm0-24.39a11.715 11.715 0 0 0-11.7 11.7 11.715 11.715 0 0 0 11.7 11.7 11.715 11.715 0 0 0 11.7-11.7 11.721 11.721 0 0 0-11.7-11.7z" style="fill:#3f52fc"/>
            </g>
            <g data-name="그룹 3815">
                <path data-name="패스 5132" d="M1432.2-181.56h-1.52v-10.5h-.07l-2.93 1.95v-1.52l3-2h1.52z" style="fill:#fff" transform="translate(-1410.58 200.68)"/>
            </g>
        </g>
        <g data-name="그룹 3819">
            <g data-name="그룹 3817" transform="translate(-1410.58 200.68)">
                <circle data-name="타원 153" cx="12.2" cy="12.2" r="12.2" transform="translate(1802.07 -200.17)" style="fill:#3f52fc"/>
                <path data-name="패스 5133" d="M1814.27-175.28a12.718 12.718 0 0 1-12.7-12.7 12.718 12.718 0 0 1 12.7-12.7 12.718 12.718 0 0 1 12.7 12.7 12.718 12.718 0 0 1-12.7 12.7zm0-24.39a11.715 11.715 0 0 0-11.7 11.7 11.715 11.715 0 0 0 11.7 11.7 11.715 11.715 0 0 0 11.7-11.7 11.715 11.715 0 0 0-11.7-11.7z" style="fill:#3f52fc"/>
            </g>
            <g data-name="그룹 3818">
                <path data-name="패스 5134" d="m1810.38-182.66 4.12-4.33c.54-.58.95-1.04 1.24-1.4a4.549 4.549 0 0 0 .65-1.02 2.446 2.446 0 0 0 .22-1.03 1.851 1.851 0 0 0-.32-1.07 2.1 2.1 0 0 0-.86-.72 2.835 2.835 0 0 0-1.22-.26 2.581 2.581 0 0 0-1.24.29 1.977 1.977 0 0 0-.82.8 2.372 2.372 0 0 0-.29 1.18h-1.42a3.492 3.492 0 0 1 .49-1.86 3.4 3.4 0 0 1 1.37-1.26 4.222 4.222 0 0 1 1.96-.45 4.188 4.188 0 0 1 1.93.44 3.345 3.345 0 0 1 1.34 1.21 3.142 3.142 0 0 1 .48 1.7 3.914 3.914 0 0 1-.25 1.32 5.733 5.733 0 0 1-.84 1.4 20.846 20.846 0 0 1-1.68 1.88l-2.77 2.85v.1h5.75v1.33h-7.84z" style="fill:#fff" transform="translate(-1410.58 200.68)"/>
            </g>
        </g>
        <g data-name="그룹 3822">
            <g data-name="그룹 3820" transform="translate(-1410.58 200.68)">
                <circle data-name="타원 154" cx="12.2" cy="12.2" r="12.2" transform="translate(2152.07 -200.17)" style="fill:#fff"/>
                <path data-name="패스 5135" d="M2164.27-175.28a12.718 12.718 0 0 1-12.7-12.7 12.718 12.718 0 0 1 12.7-12.7 12.718 12.718 0 0 1 12.7 12.7 12.718 12.718 0 0 1-12.7 12.7zm0-24.39a11.715 11.715 0 0 0-11.7 11.7 11.715 11.715 0 0 0 11.7 11.7 11.715 11.715 0 0 0 11.7-11.7 11.715 11.715 0 0 0-11.7-11.7z" style="fill:#707070"/>
            </g>
            <g data-name="그룹 3821">
                <path data-name="패스 5136" d="M2162.17-181.79a3.566 3.566 0 0 1-1.49-1.13 2.906 2.906 0 0 1-.58-1.67h1.52a1.68 1.68 0 0 0 .4.99 2.334 2.334 0 0 0 .95.65 3.653 3.653 0 0 0 1.32.23 3.559 3.559 0 0 0 1.42-.27 2.34 2.34 0 0 0 .98-.75 1.848 1.848 0 0 0 .35-1.1 2.121 2.121 0 0 0-.35-1.17 2.287 2.287 0 0 0-1.01-.8 3.979 3.979 0 0 0-1.58-.29h-.98v-1.32h.98a3.1 3.1 0 0 0 1.29-.26 2.054 2.054 0 0 0 .88-.73 1.876 1.876 0 0 0 .31-1.08 2 2 0 0 0-.27-1.05 1.883 1.883 0 0 0-.79-.71 2.638 2.638 0 0 0-1.19-.25 3.314 3.314 0 0 0-1.22.24 2.257 2.257 0 0 0-.93.66 1.659 1.659 0 0 0-.39 1h-1.45a2.807 2.807 0 0 1 .58-1.66 3.637 3.637 0 0 1 1.45-1.13 4.753 4.753 0 0 1 1.97-.4 4.184 4.184 0 0 1 1.95.44 3.213 3.213 0 0 1 1.29 1.18 2.937 2.937 0 0 1 .44 1.61 2.7 2.7 0 0 1-.54 1.74 2.87 2.87 0 0 1-1.51 1v.08a3.225 3.225 0 0 1 1.35.51 2.575 2.575 0 0 1 .87 1.01 3.107 3.107 0 0 1 .3 1.38 3.026 3.026 0 0 1-.54 1.76 3.71 3.71 0 0 1-1.51 1.24 5.015 5.015 0 0 1-2.15.45 5.31 5.31 0 0 1-2.12-.4z" style="fill:#707070" transform="translate(-1410.58 200.68)"/>
            </g>
        </g>
        <g data-name="그룹 3823">
            <path data-name="패스 5137" d="M1421.88-165.48c0 .93-.03 1.73-.07 2.42a19.612 19.612 0 0 1-.3 2.35h1.95v1.41h-5.61v5.84h-1.75v-5.84h-5.52v-1.41h9.16a18.822 18.822 0 0 0 .33-2.33c.05-.7.07-1.46.07-2.3h-8.05v-1.41h9.78v1.27z" style="fill:#3f52fc" transform="translate(-1410.58 200.68)"/>
            <path data-name="패스 5138" d="M1424.85-166.08h5.55v8.95h-5.55zm3.92 7.58v-6.2h-2.3v6.2zm7.83 5.02h-1.67v-7.23h-1.5v6.55h-1.64v-13.19h1.64v5.2h1.5v-5.45h1.67z" style="fill:#3f52fc" transform="translate(-1410.58 200.68)"/>
            <path data-name="패스 5139" d="M1451.11-159.72h-5.59v1.19a6.484 6.484 0 0 1 2.97.77 1.971 1.971 0 0 1 1.06 1.73 1.839 1.839 0 0 1-.59 1.37 3.739 3.739 0 0 1-1.69.86 10.409 10.409 0 0 1-2.61.3 10.587 10.587 0 0 1-2.64-.29 3.738 3.738 0 0 1-1.69-.86 1.861 1.861 0 0 1-.59-1.38 1.951 1.951 0 0 1 1.06-1.73 6.623 6.623 0 0 1 3-.77v-1.18h-5.56v-1.41h12.88v1.4zm-10-3.9a4.972 4.972 0 0 0 1.59-.88 2.223 2.223 0 0 0 .75-1.1h-4.03v-1.39h10.55v1.39h-4.07a2.158 2.158 0 0 0 .74 1.11 4.973 4.973 0 0 0 1.59.88 9.261 9.261 0 0 0 2.29.47l-.61 1.38a9.018 9.018 0 0 1-3.29-.92 4.463 4.463 0 0 1-1.95-1.8 4.434 4.434 0 0 1-1.94 1.8 9.107 9.107 0 0 1-3.27.91l-.59-1.38a8.7 8.7 0 0 0 2.24-.47zm1.18 8.48a6.573 6.573 0 0 0 2.31.31 7.283 7.283 0 0 0 2.38-.3c.55-.2.83-.5.83-.9s-.28-.69-.82-.89a7.013 7.013 0 0 0-2.34-.31 7.105 7.105 0 0 0-2.36.31c-.54.2-.81.5-.8.89s.27.68.8.89z" style="fill:#3f52fc" transform="translate(-1410.58 200.68)"/>
        </g>
    </g>
    <g data-name="그룹 3829">
        <g data-name="그룹 3825">
            <path data-name="패스 5140" d="M1603.23-118.4H1602v4.18c.79-.07 1.38-.13 1.8-.18l.12 1.28a35.549 35.549 0 0 1-4.03.43c-1.42.07-2.9.11-4.45.11l-.19-1.41c.32 0 .86 0 1.62-.02v-4.39h-1.25v-1.39h7.61v1.39zm-5.85 6.8h1.73v3.02h7.88v1.41h-9.61zm2.93-2.52v-4.28h-1.77v4.35c.59-.01 1.18-.04 1.77-.07zm4.38-6.89h1.73v4.08h1.97v1.45h-1.97v4.86h-1.73z" style="fill:#3f52fc" transform="translate(-1410.58 200.68)"/>
            <path data-name="패스 5141" d="M1609.55-119.49h5.55v8.95h-5.55zm3.92 7.57v-6.2h-2.3v6.2zm7.83 5.02h-1.67v-7.23h-1.5v6.55h-1.64v-13.19h1.64v5.2h1.5v-5.45h1.67z" style="fill:#3f52fc" transform="translate(-1410.58 200.68)"/>
            <path data-name="패스 5142" d="M1628.42-114.78a6.627 6.627 0 0 0 1.23 2.05 5.667 5.667 0 0 0 1.88 1.43l-.97 1.38a5.721 5.721 0 0 1-2.04-1.61 8.141 8.141 0 0 1-1.37-2.43 8.5 8.5 0 0 1-1.4 2.65 5.84 5.84 0 0 1-2.1 1.73l-1.02-1.36a5.482 5.482 0 0 0 1.91-1.49 7.1 7.1 0 0 0 1.26-2.18 7.261 7.261 0 0 0 .45-2.39v-1.19h-3.08v-1.44h7.77v1.44H1628v1.19a5.9 5.9 0 0 0 .42 2.22zm3.85-6.24h1.73v5.5h2.17v1.45H1634v7.17h-1.73z" style="fill:#3f52fc" transform="translate(-1410.58 200.68)"/>
            <path data-name="패스 5143" d="M1637.28-117.59a3.927 3.927 0 0 1 1.07-1.75 2.345 2.345 0 0 1 1.61-.61 2.4 2.4 0 0 1 1.51.51 3.571 3.571 0 0 1 1.06 1.46 7.039 7.039 0 0 1 .5 2.27h1.36v-5.06h1.66v13.19h-1.66v-6.72h-1.34a7.428 7.428 0 0 1-.48 2.37 3.749 3.749 0 0 1-1.07 1.54 2.439 2.439 0 0 1-1.54.53 2.363 2.363 0 0 1-1.61-.61 3.841 3.841 0 0 1-1.07-1.75 8.62 8.62 0 0 1-.38-2.68 8.9 8.9 0 0 1 .38-2.69zm1.61 5.21c.25.58.61.86 1.06.86.47.01.84-.28 1.1-.87a6.543 6.543 0 0 0 .4-2.52 6.615 6.615 0 0 0-.4-2.52c-.26-.59-.63-.88-1.1-.87s-.81.29-1.06.88a6.807 6.807 0 0 0-.38 2.55 6.7 6.7 0 0 0 .38 2.49zm10.06 5.48h-1.67v-14.12h1.67z" style="fill:#3f52fc" transform="translate(-1410.58 200.68)"/>
            <path data-name="패스 5144" d="M1653.72-114.06a8.2 8.2 0 0 0 1.29-3.84h-3.81v-1.41h5.53a12.806 12.806 0 0 1-.55 3.84h1.96v-5.22h1.64v13.11h-1.64v-6.5h-2.53a10.156 10.156 0 0 1-4.14 4.19l-.98-1.23a9.579 9.579 0 0 0 3.23-2.94zm9.06 7.16h-1.66v-14.12h1.66z" style="fill:#3f52fc" transform="translate(-1410.58 200.68)"/>
            <path data-name="패스 5145" d="M1681.09-113.92h-5.59v1.06h3.98v3.47h-8.03v1.03h8.42v1.33h-10.12v-3.61h8.03v-.91h-8.05v-1.31h4.03v-1.06h-5.55v-1.38h12.88zm-11.25-6.67h9.59v4.41h-9.59zm7.86 3.05v-1.69h-6.16v1.69z" style="fill:#3f52fc" transform="translate(-1410.58 200.68)"/>
            <path data-name="패스 5146" d="M1694.92-112.95h-5.59v1.36h4.03v4.52h-9.8v-4.52h4.05v-1.36h-5.56v-1.39h12.88v1.39zm-11.72-7.65h10.53v1.39h-1.94v2.42h1.86v1.41h-10.38v-1.41h1.86v-2.42h-1.94v-1.39zm8.47 12.12v-1.77h-6.39v1.77zm-1.62-8.31v-2.42h-3.17v2.42z" style="fill:#3f52fc" transform="translate(-1410.58 200.68)"/>
            <path data-name="패스 5147" d="M1695.88-115.2h12.88v1.39h-12.88zm9.17-5.32a4.034 4.034 0 0 1 1.74.82 1.709 1.709 0 0 1 .6 1.32 1.744 1.744 0 0 1-.6 1.33 3.923 3.923 0 0 1-1.74.82 12.017 12.017 0 0 1-2.75.29 11.481 11.481 0 0 1-2.75-.29 3.923 3.923 0 0 1-1.74-.82 1.729 1.729 0 0 1-.6-1.33 1.724 1.724 0 0 1 .6-1.32 3.923 3.923 0 0 1 1.74-.82 12.605 12.605 0 0 1 2.75-.29 11.481 11.481 0 0 1 2.75.29zm-7.66 7.67h9.75v3.45h-8.03v1.05h8.42v1.33h-10.12v-3.61h8.03v-.94h-8.05zm2.45-4.67a7.955 7.955 0 0 0 2.45.28 8.057 8.057 0 0 0 2.47-.28c.55-.19.82-.47.82-.86 0-.36-.28-.65-.84-.84a7.707 7.707 0 0 0-2.46-.3 7.61 7.61 0 0 0-2.44.3c-.56.2-.83.48-.83.84.02.38.29.67.83.86z" style="fill:#3f52fc" transform="translate(-1410.58 200.68)"/>
            <path data-name="패스 5148" d="M1713.98-120.2h1.72v1.92h3.3v-1.92h1.72v6.66h-6.73v-6.66zm1.55 8.1h9.2v1.39h-7.47v2.23h7.73v1.38h-9.47v-5zm3.47-2.82v-2.02h-3.3v2.02zm5.64-2.82h1.97v1.44h-1.97v3.52h-1.73v-8.23h1.73z" style="fill:#3f52fc" transform="translate(-1410.58 200.68)"/>
            <path data-name="패스 5149" d="M1727.31-114.01h12.91v1.38h-12.91zm1.55 2.63h1.73v2.75h8.27v1.41h-10zm9.91-4.27h-9.78v-4.86h1.72v3.48h8.06z" style="fill:#3f52fc" transform="translate(-1410.58 200.68)"/>
            <path data-name="패스 5150" d="M1745.55-119.85h6.33v1.39h-4.61v3.84c1.38 0 2.48-.03 3.32-.09a18.886 18.886 0 0 0 2.49-.35l.19 1.41a20.754 20.754 0 0 1-2.77.36q-1.41.09-3.81.09h-1.14v-6.65zm1.5 7.97h1.73v3.3h7.88v1.41h-9.61zm9.04-5.18h1.98v1.44h-1.98v4.81h-1.73v-10.22h1.73z" style="fill:#3f52fc" transform="translate(-1410.58 200.68)"/>
            <path data-name="패스 5151" d="M1761.88-114.06a8.2 8.2 0 0 0 1.29-3.84h-3.78v-1.41h5.5a13.851 13.851 0 0 1-.15 2.08h1.65v-3.45h1.66v13.11h-1.66v-4.72h-2.2v-1.42h2.2v-2.09h-1.95a9.578 9.578 0 0 1-1.69 3.3 10.952 10.952 0 0 1-3.1 2.62l-1.02-1.23a9.786 9.786 0 0 0 3.25-2.95zm9.09 7.16h-1.66v-14.12h1.66z" style="fill:#3f52fc" transform="translate(-1410.58 200.68)"/>
            <path data-name="패스 5152" d="M1773.36-118.81a3.4 3.4 0 0 1 1.36-1.18 4.427 4.427 0 0 1 1.95-.42 4.427 4.427 0 0 1 1.95.42 3.264 3.264 0 0 1 1.36 1.18 3.086 3.086 0 0 1 .49 1.72 3 3 0 0 1-.49 1.7 3.221 3.221 0 0 1-1.36 1.16 4.427 4.427 0 0 1-1.95.42 4.4 4.4 0 0 1-1.95-.42 3.366 3.366 0 0 1-1.36-1.16 3.006 3.006 0 0 1-.5-1.7 3.016 3.016 0 0 1 .5-1.72zm1.47 2.7a1.765 1.765 0 0 0 .75.65 2.574 2.574 0 0 0 1.1.23 2.515 2.515 0 0 0 1.08-.23 1.765 1.765 0 0 0 .75-.65 1.78 1.78 0 0 0 .27-.98 1.78 1.78 0 0 0-.27-.98 1.765 1.765 0 0 0-.75-.65 2.516 2.516 0 0 0-1.08-.23 2.574 2.574 0 0 0-1.1.23 1.765 1.765 0 0 0-.75.65 1.78 1.78 0 0 0-.27.98 1.782 1.782 0 0 0 .27.98zm.2 3.32h1.72v1.45h5.89v-1.45h1.73v5.72h-9.34zm7.61 4.31v-1.5h-5.89v1.5zm1.74-4.97h-1.75v-7.58h1.75z" style="fill:#3f52fc" transform="translate(-1410.58 200.68)"/>
            <path data-name="패스 5153" d="M1787.25-119.65h1.72v7.72a35.393 35.393 0 0 0 6.27-.64l.22 1.45a33.407 33.407 0 0 1-6.98.67h-1.22v-9.2zm10.97 12.75h-1.72v-14.12h1.72z" style="fill:#3f52fc" transform="translate(-1410.58 200.68)"/>
            <path data-name="패스 5154" d="M1800.84-119.68h6.61v1.41h-4.88v6.48c1.15 0 2.18-.04 3.09-.11s1.84-.18 2.78-.34l.2 1.47a27.074 27.074 0 0 1-3.03.35c-1 .06-2.2.09-3.61.09h-1.17v-9.35zm10.49 4.01h2.17v1.42h-2.17v7.36h-1.73v-14.14h1.73z" style="fill:#3f52fc" transform="translate(-1410.58 200.68)"/>
            <path data-name="패스 5155" d="M1815.2-108.33a1.215 1.215 0 0 1-.45-.45 1.184 1.184 0 0 1-.16-.61 1.174 1.174 0 0 1 .16-.6 1.266 1.266 0 0 1 .45-.44 1.184 1.184 0 0 1 .61-.16 1.174 1.174 0 0 1 .6.16 1.322 1.322 0 0 1 .44.44 1.149 1.149 0 0 1 .16.6 1.184 1.184 0 0 1-.16.61 1.266 1.266 0 0 1-.44.45 1.149 1.149 0 0 1-.6.16 1.184 1.184 0 0 1-.61-.16z" style="fill:#3f52fc" transform="translate(-1410.58 200.68)"/>
            <path data-name="패스 5156" d="M1834.77-113.92h-5.59v1.06h3.98v3.47h-8.03v1.03h8.42v1.33h-10.12v-3.61h8.03v-.91h-8.05v-1.31h4.03v-1.06h-5.55v-1.38h12.88zm-11.25-6.67h9.59v4.41h-9.59zm7.86 3.05v-1.69h-6.16v1.69z" style="fill:#3f52fc" transform="translate(-1410.58 200.68)"/>
            <path data-name="패스 5157" d="M1848.6-112.95h-5.59v1.36h4.03v4.52h-9.8v-4.52h4.05v-1.36h-5.56v-1.39h12.88v1.39zm-11.72-7.65h10.53v1.39h-1.94v2.42h1.86v1.41h-10.38v-1.41h1.86v-2.42h-1.94v-1.39zm8.47 12.12v-1.77h-6.39v1.77zm-1.62-8.31v-2.42h-3.17v2.42z" style="fill:#3f52fc" transform="translate(-1410.58 200.68)"/>
            <path data-name="패스 5158" d="M1849.55-115.2h12.88v1.39h-12.88zm9.18-5.32a4.034 4.034 0 0 1 1.74.82 1.709 1.709 0 0 1 .6 1.32 1.744 1.744 0 0 1-.6 1.33 3.923 3.923 0 0 1-1.74.82 12.017 12.017 0 0 1-2.75.29 11.481 11.481 0 0 1-2.75-.29 3.923 3.923 0 0 1-1.74-.82 1.729 1.729 0 0 1-.6-1.33 1.724 1.724 0 0 1 .6-1.32 3.923 3.923 0 0 1 1.74-.82 12.605 12.605 0 0 1 2.75-.29 11.48 11.48 0 0 1 2.75.29zm-7.66 7.67h9.75v3.45h-8.03v1.05h8.42v1.33h-10.12v-3.61h8.03v-.94h-8.05zm2.45-4.67a7.955 7.955 0 0 0 2.45.28 8.057 8.057 0 0 0 2.47-.28c.55-.19.82-.47.82-.86 0-.36-.28-.65-.84-.84a7.707 7.707 0 0 0-2.46-.3 7.61 7.61 0 0 0-2.44.3c-.56.2-.83.48-.83.84.02.38.29.67.83.86z" style="fill:#3f52fc" transform="translate(-1410.58 200.68)"/>
            <path data-name="패스 5159" d="M1867.66-120.2h1.72v1.92h3.3v-1.92h1.72v6.66h-6.73v-6.66zm1.55 8.1h9.2v1.39h-7.47v2.23h7.73v1.38h-9.47v-5zm3.47-2.82v-2.02h-3.3v2.02zm5.64-2.82h1.97v1.44h-1.97v3.52h-1.73v-8.23h1.73z" style="fill:#3f52fc" transform="translate(-1410.58 200.68)"/>
            <path data-name="패스 5160" d="M1893.88-112.34H1881v-1.39h12.88zm-10.92-6.9a4.051 4.051 0 0 1 1.78-.99 9.409 9.409 0 0 1 2.69-.34 9.336 9.336 0 0 1 2.68.34 4.051 4.051 0 0 1 1.78.99 2.115 2.115 0 0 1 .63 1.53 2.138 2.138 0 0 1-.63 1.54 3.965 3.965 0 0 1-1.78 1 9.365 9.365 0 0 1-2.68.35 9.387 9.387 0 0 1-2.69-.35 3.965 3.965 0 0 1-1.78-1 2.138 2.138 0 0 1-.63-1.54 2.157 2.157 0 0 1 .63-1.53zm-.36 7.95h1.73v2.7h8.09v1.41h-9.83v-4.11zm2.4-5.33a6.112 6.112 0 0 0 2.39.38 6.3 6.3 0 0 0 2.47-.38c.58-.25.88-.61.88-1.09q0-.69-.87-1.08a6.092 6.092 0 0 0-2.43-.39 8.3 8.3 0 0 0-1.77.17 2.583 2.583 0 0 0-1.13.5.972.972 0 0 0-.38.79c-.02.48.27.84.84 1.1z" style="fill:#3f52fc" transform="translate(-1410.58 200.68)"/>
            <path data-name="패스 5161" d="M1898.63-111.9h12.91v1.42h-5.62v3.59h-1.72v-3.59h-5.56v-1.42zm12.17-6.2h-11.53v-1.41h4.92v-1.55h1.72v1.55h4.89zm-9.96 1.73a3.657 3.657 0 0 1 1.64-.81 10.625 10.625 0 0 1 2.57-.28 10.2 10.2 0 0 1 2.57.28 3.815 3.815 0 0 1 1.64.81 1.722 1.722 0 0 1 .57 1.3 1.722 1.722 0 0 1-.57 1.3 3.657 3.657 0 0 1-1.64.81 10.147 10.147 0 0 1-2.57.28 10.147 10.147 0 0 1-2.57-.28 3.706 3.706 0 0 1-1.64-.81 1.722 1.722 0 0 1-.57-1.3 1.706 1.706 0 0 1 .57-1.3zm1.98 2.11a6.386 6.386 0 0 0 2.18.28 7.237 7.237 0 0 0 2.27-.27c.51-.18.77-.46.78-.82-.01-.36-.26-.63-.77-.82a6.964 6.964 0 0 0-2.22-.28 6.608 6.608 0 0 0-2.22.28c-.5.19-.75.46-.75.82s.23.63.73.81z" style="fill:#3f52fc" transform="translate(-1410.58 200.68)"/>
            <path data-name="패스 5162" d="M1917.59-119.62h1.48l-.81 4.38h-1.98zm3.29 0h1.48l-.81 4.38h-1.98z" style="fill:#3f52fc" transform="translate(-1410.58 200.68)"/>
            <path data-name="패스 5163" d="M1936.65-113.92h-5.59v1.06h3.98v3.47h-8.03v1.03h8.42v1.33h-10.12v-3.61h8.03v-.91h-8.05v-1.31h4.03v-1.06h-5.55v-1.38h12.88zm-11.25-6.67h9.59v4.41h-9.59zm7.86 3.05v-1.69h-6.16v1.69z" style="fill:#3f52fc" transform="translate(-1410.58 200.68)"/>
            <path data-name="패스 5164" d="M1950.48-112.95h-5.59v1.36h4.03v4.52h-9.8v-4.52h4.05v-1.36h-5.56v-1.39h12.88v1.39zm-11.72-7.65h10.53v1.39h-1.94v2.42h1.86v1.41h-10.38v-1.41h1.86v-2.42h-1.94v-1.39zm8.47 12.12v-1.77h-6.39v1.77zm-1.63-8.31v-2.42h-3.17v2.42z" style="fill:#3f52fc" transform="translate(-1410.58 200.68)"/>
            <path data-name="패스 5165" d="M1952.18-118.37a3.431 3.431 0 0 1 1.38-1.26 4.134 4.134 0 0 1 1.93-.46 4.017 4.017 0 0 1 1.93.46 3.474 3.474 0 0 1 1.37 1.26 3.4 3.4 0 0 1 .5 1.81 3.443 3.443 0 0 1-.5 1.83 3.4 3.4 0 0 1-1.37 1.26 4.157 4.157 0 0 1-1.93.45 4.129 4.129 0 0 1-1.93-.45 3.5 3.5 0 0 1-1.38-1.26 3.355 3.355 0 0 1-.5-1.83 3.4 3.4 0 0 1 .5-1.81zm1.47 2.88a1.834 1.834 0 0 0 .75.71 2.276 2.276 0 0 0 1.09.25 2.223 2.223 0 0 0 1.07-.25 1.834 1.834 0 0 0 .75-.71 2.074 2.074 0 0 0 .27-1.07 2 2 0 0 0-.27-1.05 1.834 1.834 0 0 0-.75-.71 2.251 2.251 0 0 0-1.07-.25 2.332 2.332 0 0 0-1.09.25 1.834 1.834 0 0 0-.75.71 2.052 2.052 0 0 0-.27 1.05 2.049 2.049 0 0 0 .27 1.07zm.2 3.65h1.75v3.25h7.98v1.41h-9.73zm9.35 1.03h-1.75v-10.2h1.75z" style="fill:#3f52fc" transform="translate(-1410.58 200.68)"/>
            <path data-name="패스 5166" d="M1965.26-113.26h12.88v1.44h-5.61v4.92h-1.72v-4.92h-5.55zm7.98-4.86a5.311 5.311 0 0 0 1.77 1.45 7.745 7.745 0 0 0 2.61.79l-.69 1.41a8.415 8.415 0 0 1-3.16-1.1 5.629 5.629 0 0 1-2.07-2.04 5.833 5.833 0 0 1-2.06 2.04 8.5 8.5 0 0 1-3.13 1.1l-.69-1.41a7.481 7.481 0 0 0 2.59-.79 5.229 5.229 0 0 0 1.76-1.44 2.852 2.852 0 0 0 .62-1.74v-.72h1.83v.72a2.785 2.785 0 0 0 .62 1.73z" style="fill:#3f52fc" transform="translate(-1410.58 200.68)"/>
            <path data-name="패스 5167" d="M1981.04-115.21h-1.48l.81-4.38h1.98zm3.3 0h-1.48l.81-4.38h1.98z" style="fill:#3f52fc" transform="translate(-1410.58 200.68)"/>
            <path data-name="패스 5168" d="M1999.49-113.31h-12.91v-1.31h12.91zm-11.4.85h9.84v3.22h-8.09v.98h8.52v1.2h-10.25v-3.31h8.11v-.88h-8.12v-1.21zm.09-8.25h9.72v3.19h-7.95v.92h8.2v1.19h-9.92v-3.23h7.94v-.86h-7.98v-1.21z" style="fill:#3f52fc" transform="translate(-1410.58 200.68)"/>
            <path data-name="패스 5169" d="M2004.21-115.63h12.91v1.41h-5.62v1.23h4.05v3.52h-8.03v1.11h8.5v1.34h-10.25v-3.67h8.06v-.98h-8.08v-1.31h4.05v-1.23h-5.58v-1.42zm11.42-.96h-9.75v-4.25h1.7v2.86h8.05z" style="fill:#3f52fc" transform="translate(-1410.58 200.68)"/>
            <path data-name="패스 5170" d="M2018.52-119.79h6.39v5.17h-4.62v2.97c1.16 0 2.18-.04 3.05-.09a24.4 24.4 0 0 0 2.64-.33l.14 1.42a26.949 26.949 0 0 1-2.95.35c-.98.06-2.14.1-3.47.1h-1.12v-5.83h4.64v-2.36h-4.69v-1.4zm11.36 12.91h-1.73v-7.52h-2.42v-1.42h2.42v-5.2h1.73z" style="fill:#3f52fc" transform="translate(-1410.58 200.68)"/>
            <path data-name="패스 5171" d="M2044.76-111.74h-5.61v4.83h-1.72v-4.83h-5.55v-1.41h12.88zm-9.8-4.4a5.093 5.093 0 0 0 1.67-1.22 2.657 2.657 0 0 0 .68-1.49h-4.24v-1.38h10.5v1.38h-4.24a2.574 2.574 0 0 0 .67 1.49 4.856 4.856 0 0 0 1.67 1.22 7.761 7.761 0 0 0 2.42.68l-.62 1.36a8.554 8.554 0 0 1-3.14-1.04 5.241 5.241 0 0 1-2-1.93 5.282 5.282 0 0 1-1.99 1.93 8.513 8.513 0 0 1-3.12 1.04l-.66-1.36a7.83 7.83 0 0 0 2.4-.68z" style="fill:#3f52fc" transform="translate(-1410.58 200.68)"/>
            <path data-name="패스 5172" d="M2050.41-115.02a6.858 6.858 0 0 0 .89 2.05 4.973 4.973 0 0 0 1.52 1.51l-.95 1.33a4.892 4.892 0 0 1-1.56-1.48 7.767 7.767 0 0 1-1.01-2.13 8.387 8.387 0 0 1-1.08 2.34 5.409 5.409 0 0 1-1.66 1.61l-1.08-1.3a5.521 5.521 0 0 0 1.66-1.57 7.014 7.014 0 0 0 .98-2.15 9.744 9.744 0 0 0 .33-2.42v-2.53h1.67v2.45a9.228 9.228 0 0 0 .29 2.29zm.89-1.15h2.02v-4.61h1.64v13.19h-1.64v-7.14h-2.02zm4.93-4.85h1.67v14.12h-1.67z" style="fill:#3f52fc" transform="translate(-1410.58 200.68)"/>
            <path data-name="패스 5173" d="M2072.45-108.62h-12.91v-1.42h2.98v-3.57a3.707 3.707 0 0 1-1.33-1.24 3.024 3.024 0 0 1-.46-1.67 3.065 3.065 0 0 1 .67-1.96 4.378 4.378 0 0 1 1.86-1.31 7.424 7.424 0 0 1 2.7-.46 7.62 7.62 0 0 1 2.71.46 4.447 4.447 0 0 1 1.88 1.31 3.074 3.074 0 0 1 .68 1.96 3.086 3.086 0 0 1-.45 1.64 3.757 3.757 0 0 1-1.3 1.23v3.61h2.97v1.42zm-9.58-6.66a2.731 2.731 0 0 0 1.24.82 5.485 5.485 0 0 0 1.85.29 5.587 5.587 0 0 0 1.86-.29 2.884 2.884 0 0 0 1.26-.82 1.882 1.882 0 0 0 .45-1.25 1.908 1.908 0 0 0-.45-1.26 2.8 2.8 0 0 0-1.26-.82 5.6 5.6 0 0 0-1.86-.28 5.6 5.6 0 0 0-1.86.28 2.678 2.678 0 0 0-1.24.82 1.953 1.953 0 0 0-.44 1.26 1.99 1.99 0 0 0 .45 1.25zm4.84 5.24v-2.95a8.239 8.239 0 0 1-1.75.18 8.878 8.878 0 0 1-1.72-.17v2.94h3.47z" style="fill:#3f52fc" transform="translate(-1410.58 200.68)"/>
        </g>
        <g data-name="그룹 3826">
            <path data-name="패스 5174" d="M1561.14-100.71h-52.9a7.793 7.793 0 0 1-7.79-7.79v-11.19a7.793 7.793 0 0 1 7.79-7.79h52.9a7.793 7.793 0 0 1 7.79 7.79v11.19a7.793 7.793 0 0 1-7.79 7.79z" style="fill:#3f52fc" transform="translate(-1410.58 200.68)"/>
        </g>
        <g data-name="그룹 3827">
            <path data-name="패스 5175" d="M2093.81-100.21h-585.57a8.3 8.3 0 0 1-8.29-8.29v-11.19a8.3 8.3 0 0 1 8.29-8.29h585.57a8.3 8.3 0 0 1 8.29 8.29v11.19a8.3 8.3 0 0 1-8.29 8.29zm-585.57-26.78a7.3 7.3 0 0 0-7.29 7.29v11.19a7.3 7.3 0 0 0 7.29 7.29h585.57a7.3 7.3 0 0 0 7.29-7.29v-11.19a7.3 7.3 0 0 0-7.29-7.29z" style="fill:#3f52fc" transform="translate(-1410.58 200.68)"/>
        </g>
        <g data-name="그룹 3828">
            <path data-name="패스 5176" d="M1522.08-118.37a3.431 3.431 0 0 1 1.38-1.26 4.194 4.194 0 0 1 1.93-.46 4.045 4.045 0 0 1 1.93.46 3.548 3.548 0 0 1 1.37 1.26 3.4 3.4 0 0 1 .5 1.81 3.443 3.443 0 0 1-.5 1.83 3.4 3.4 0 0 1-1.37 1.26 4.157 4.157 0 0 1-1.93.45 4.157 4.157 0 0 1-1.93-.45 3.5 3.5 0 0 1-1.38-1.26 3.355 3.355 0 0 1-.5-1.83 3.4 3.4 0 0 1 .5-1.81zm1.47 2.88a1.834 1.834 0 0 0 .75.71 2.276 2.276 0 0 0 1.09.25 2.223 2.223 0 0 0 1.07-.25 1.834 1.834 0 0 0 .75-.71 2.074 2.074 0 0 0 .27-1.07 2 2 0 0 0-.27-1.05 1.834 1.834 0 0 0-.75-.71 2.251 2.251 0 0 0-1.07-.25 2.332 2.332 0 0 0-1.09.25 1.834 1.834 0 0 0-.75.71 2.052 2.052 0 0 0-.27 1.05 2.049 2.049 0 0 0 .27 1.07zm.2 3.65h1.75v3.25h7.98v1.41h-9.73zm9.34 1.03h-1.75v-10.2h1.75z" style="fill:#fff" transform="translate(-1410.58 200.68)"/>
            <path data-name="패스 5177" d="M1535.16-113.26h12.88v1.44h-5.61v4.92h-1.72v-4.92h-5.55zm7.98-4.86a5.311 5.311 0 0 0 1.77 1.45 7.745 7.745 0 0 0 2.61.79l-.69 1.41a8.415 8.415 0 0 1-3.16-1.1 5.705 5.705 0 0 1-2.07-2.04 5.833 5.833 0 0 1-2.06 2.04 8.328 8.328 0 0 1-3.13 1.1l-.69-1.41a7.481 7.481 0 0 0 2.59-.79 5.229 5.229 0 0 0 1.76-1.44 2.852 2.852 0 0 0 .62-1.74v-.72h1.83v.72a2.785 2.785 0 0 0 .62 1.73z" style="fill:#fff" transform="translate(-1410.58 200.68)"/>
        </g>
    </g>
</svg>
