<?xml version="1.0" encoding="UTF-8"?>
<svg id="_레이어_1" data-name="레이어 1" xmlns="http://www.w3.org/2000/svg" viewBox="0 0 124.13 31.69">
  <defs>
    <style>
      .cls-1 {
        fill: #707070;
      }

      .cls-2 {
        isolation: isolate;
      }
    </style>
  </defs>
  <g id="_출금가능_마일리지" data-name="출금가능 마일리지" class="cls-2">
    <g class="cls-2">
      <path class="cls-1" d="m4.04,12.18h-1.83v.42h1.31v.96H.88v.43h2.77v.3H.49v-1.01h2.64v-.38H.48v-.29h1.34v-.42H0v-.3h4.04v.3Zm-3.07-.94c.23-.07.42-.15.57-.27s.23-.24.25-.38H.42v-.31h1.41v-.41h.38v.41h1.42v.31h-1.39c.02.14.11.27.25.38.15.11.33.2.57.27.23.07.49.11.76.13l-.12.3c-.39-.03-.74-.11-1.04-.23-.3-.12-.52-.28-.65-.48-.13.2-.35.36-.65.48-.3.12-.65.2-1.04.23l-.12-.3c.28-.02.53-.06.76-.13Z"/>
      <path class="cls-1" d="m7.95,10.46c0,.24,0,.46-.02.65-.01.19-.05.41-.1.66h.65v.32h-4.07v-.32h3.02c.05-.22.08-.42.1-.61.02-.18.02-.37.02-.57v-.13h0s-2.63,0-2.63,0v-.32h3.02v.33Zm-3.03,2.24h3.05v1.57h-3.05v-1.57Zm2.66,1.25v-.94h-2.27v.94h2.27Z"/>
      <path class="cls-1" d="m10.19,12.13c.31-.42.49-.89.54-1.42h-1.66v-.33h2.05c0,.66-.17,1.26-.5,1.8-.33.54-.84.98-1.54,1.32l-.22-.31c.57-.28,1.01-.63,1.32-1.05Zm2.08-.42h.72v.33h-.72v2.3h-.39v-4.44h.39v1.81Z"/>
      <path class="cls-1" d="m13.26,11.98h4.05v.32h-4.05v-.32Zm.67,1.09c.12-.12.3-.21.53-.27.23-.06.5-.09.82-.09s.59.03.82.09.4.15.53.27c.12.12.18.27.19.44,0,.17-.06.31-.19.44-.12.12-.3.21-.53.27s-.5.09-.82.09-.59-.03-.82-.09c-.23-.06-.41-.15-.53-.27s-.18-.27-.18-.44.06-.32.18-.44Zm2.91-1.61h-3.03v-1.48h.39v1.15h2.64v.32Zm-2.56,2.31c.09.07.22.13.39.17.17.04.37.06.61.06s.43-.02.6-.06c.17-.04.3-.1.39-.17.09-.07.14-.16.14-.27,0-.16-.1-.28-.3-.36-.2-.09-.48-.13-.83-.13-.36,0-.64.05-.84.13-.2.09-.3.21-.3.36,0,.1.04.19.13.27Z"/>
    </g>
    <g class="cls-2">
      <path class="cls-1" d="m2.23,19.6H.18v-2.86h2.05v2.86Zm-.39-.32v-2.23H.56v2.23h1.28Zm1.2-2.99h.39v1.77h.74v.34h-.74v2.33h-.39v-4.44Z"/>
      <path class="cls-1" d="m6.27,16.58c.17.08.31.2.41.35.1.15.15.32.15.51s-.05.36-.15.51c-.1.15-.24.26-.41.35-.17.08-.37.12-.59.12s-.42-.04-.6-.12-.31-.2-.41-.35-.15-.32-.15-.51.05-.36.15-.51c.1-.15.23-.27.41-.35.18-.08.37-.13.6-.13s.42.04.59.13Zm-1.26,1.2c.07.1.16.18.27.23.12.06.25.08.4.08s.28-.03.39-.08c.12-.06.21-.13.28-.23.07-.1.1-.21.1-.34s-.03-.24-.1-.34c-.07-.1-.16-.18-.28-.23-.12-.05-.25-.08-.39-.08s-.28.03-.4.08c-.12.06-.21.13-.27.23-.07.1-.1.21-.1.34,0,.13.03.24.1.34Zm.19,1.01h2.89v1.07h-2.49v.5h2.65v.31h-3.04v-1.11h2.49v-.46h-2.5v-.31Zm2.5-2.5h.39v2.28h-.39v-2.28Z"/>
      <path class="cls-1" d="m9.09,16.7h2.07v1.58h-1.66v1.05c.39,0,.76,0,1.1-.03s.71-.07,1.08-.13l.04.33c-.39.06-.76.1-1.11.12s-.74.03-1.15.03h-.37v-1.7h1.66v-.93h-1.67v-.32Zm3.42,4.04h-.39v-4.45h.39v4.45Z"/>
      <path class="cls-1" d="m15.01,18.38c.11.24.26.46.44.65.18.19.38.33.6.42l-.22.31c-.26-.12-.5-.3-.71-.54-.21-.24-.37-.52-.47-.82-.1.32-.26.62-.47.88-.21.26-.44.46-.7.59l-.23-.31c.21-.1.41-.25.59-.46s.33-.44.44-.69c.11-.26.16-.51.16-.76v-.58h-1.05v-.32h2.5v.32h-1.06v.58c0,.24.05.49.16.73Zm1.51-2.1h.39v4.44h-.39v-4.44Z"/>
    </g>
  </g>
  <g id="_전체_마일리지_-" data-name="전체 마일리지 -" class="cls-2">
    <g class="cls-2">
      <path class="cls-1" d="m34.05,15.01c.17-.15.31-.32.4-.51.1-.19.15-.4.15-.6v-.23h-1v-.32h2.39v.32h-.99v.23c0,.19.05.37.14.55.09.18.22.34.39.48.17.14.35.25.57.32l-.2.31c-.25-.09-.47-.22-.65-.4-.19-.18-.33-.38-.43-.61-.1.26-.24.48-.44.68-.2.19-.43.34-.69.44l-.21-.32c.22-.08.41-.19.58-.34Zm.23.93h.39v1.05h2.58v.33h-2.98v-1.38Zm2.85.29h-.39v-1.7h-.91v-.32h.91v-1.23h.39v3.26Z"/>
      <path class="cls-1" d="m39.28,15.05c.08.23.19.44.34.63s.32.33.51.44l-.22.29c-.22-.12-.4-.29-.56-.5-.16-.22-.28-.46-.36-.74-.08.29-.2.56-.36.79-.16.23-.34.42-.56.55l-.23-.3c.2-.11.37-.27.51-.47.15-.2.26-.42.33-.66s.12-.49.12-.73v-.22h-.84v-.32h.84v-.66h.37v.66h.83v.32h-.83v.22c0,.24.04.48.12.71Zm.41-.32h.7v-1.64h.37v4.1h-.37v-2.12h-.7v-.33Zm1.59-1.75h.38v4.44h-.38v-4.44Z"/>
      <path class="cls-1" d="m45.8,16.29h-2.05v-2.86h2.05v2.86Zm-.39-.32v-2.23h-1.28v2.23h1.28Zm1.2-2.99h.39v1.77h.74v.34h-.74v2.33h-.39v-4.44Z"/>
      <path class="cls-1" d="m49.84,13.27c.17.08.31.2.41.35.1.15.15.32.15.51s-.05.36-.15.51c-.1.15-.24.26-.41.35-.17.08-.37.12-.59.12s-.42-.04-.6-.12-.31-.2-.41-.35-.15-.32-.15-.51.05-.36.15-.51c.1-.15.23-.27.41-.35.18-.08.37-.13.6-.13s.42.04.59.13Zm-1.26,1.2c.07.1.16.18.27.23.12.06.25.08.4.08s.28-.03.39-.08c.12-.06.21-.13.28-.23.07-.1.1-.21.1-.34s-.03-.24-.1-.34c-.07-.1-.16-.18-.28-.23-.12-.05-.25-.08-.39-.08s-.28.03-.4.08c-.12.06-.21.13-.27.23-.07.1-.1.21-.1.34,0,.13.03.24.1.34Zm.19,1.01h2.89v1.07h-2.49v.5h2.65v.31h-3.04v-1.11h2.49v-.46h-2.5v-.31Zm2.5-2.5h.39v2.28h-.39v-2.28Z"/>
      <path class="cls-1" d="m52.66,13.39h2.07v1.58h-1.66v1.05c.39,0,.76,0,1.1-.03s.71-.07,1.08-.13l.04.33c-.39.06-.76.1-1.11.12s-.74.03-1.15.03h-.37v-1.7h1.66v-.93h-1.67v-.32Zm3.42,4.04h-.39v-4.45h.39v4.45Z"/>
      <path class="cls-1" d="m58.58,15.07c.11.24.26.46.44.65.18.19.38.33.6.42l-.22.31c-.26-.12-.5-.3-.71-.54-.21-.24-.37-.52-.47-.82-.1.32-.26.62-.47.88-.21.26-.44.46-.7.59l-.23-.31c.21-.1.41-.25.59-.46s.33-.44.44-.69c.11-.26.16-.51.16-.76v-.58h-1.05v-.32h2.5v.32h-1.06v.58c0,.24.05.49.16.73Zm1.51-2.1h.39v4.44h-.39v-4.44Z"/>
      <path class="cls-1" d="m65.54,15.67h-1.58v-.39h1.58v.39Z"/>
    </g>
  </g>
  <g id="_" data-name=" ">
    <rect class="cls-1" x="23.46" y="14.16" width="4.26" height="1"/>
  </g>
  <g id="_2" data-name=" 2">
    <rect class="cls-1" x="23.46" y="16.97" width="4.26" height="1"/>
  </g>
  <g id="_구매전용마일리지_출금요청중인_마일리지_거래사용중_마일리지" data-name="구매전용마일리지 출금요청중인 마일리지 거래사용중 마일리지" class="cls-2">
    <g class="cls-2">
      <path class="cls-1" d="m82.84,4.39c0,.29,0,.54-.02.76-.01.22-.05.47-.11.76h.66v.32h-1.83v1.93h-.39v-1.93h-1.82v-.32h2.99c.06-.28.1-.54.11-.76.01-.22.02-.48.02-.76v-.06h-2.61v-.32h3v.39Z"/>
      <path class="cls-1" d="m83.91,4.23h1.7v2.73h-1.7v-2.73Zm1.33,2.41v-2.1h-.96v2.1h.96Zm2.31,1.51h-.38v-2.35h-.62v2.13h-.38V3.8h.38v1.67h.62v-1.76h.38v4.44Z"/>
      <path class="cls-1" d="m88.77,5.75c.17-.15.31-.32.4-.51s.14-.4.14-.6v-.23h-1v-.32h2.39v.32h-.99v.23c0,.19.05.37.14.55.09.18.22.34.39.48.17.14.35.25.57.32l-.2.31c-.25-.09-.47-.22-.65-.4-.19-.18-.33-.38-.43-.61-.1.26-.24.48-.44.68s-.43.34-.69.44l-.21-.32c.22-.08.41-.19.58-.34Zm.23.93h.39v1.05h2.58v.33h-2.98v-1.38Zm2.85.29h-.39v-1.7h-.91v-.32h.91v-1.23h.39v3.26Z"/>
      <path class="cls-1" d="m96.63,6.23h-4.05v-.32h1v-.63c-.18-.07-.32-.16-.41-.27-.09-.11-.14-.24-.14-.39,0-.17.06-.32.19-.44.13-.12.31-.22.54-.28s.52-.1.84-.1.6.03.83.1.42.16.54.28c.13.12.19.27.19.44,0,.15-.05.28-.14.39-.09.11-.23.2-.41.27v.63h1v.32Zm-3.38.7c.12-.12.3-.21.53-.27s.51-.09.83-.09.59.03.82.09c.23.06.4.15.53.27.12.12.18.26.19.43,0,.17-.06.31-.19.43-.12.12-.3.21-.52.27-.23.06-.5.09-.82.09s-.6-.03-.83-.09c-.23-.06-.4-.15-.53-.27-.12-.12-.18-.26-.18-.43s.06-.31.18-.43Zm.32-2.03c.09.08.23.14.4.18.18.04.38.06.63.06s.45-.02.62-.06c.17-.04.31-.1.41-.18.09-.08.14-.17.14-.28s-.05-.2-.14-.27c-.1-.08-.23-.14-.41-.18-.18-.04-.38-.06-.62-.06s-.45.02-.63.06c-.18.04-.31.1-.4.18-.09.08-.14.17-.14.27s.05.2.14.28Zm.03,2.72c.09.07.22.13.39.16.17.04.37.06.6.06s.44-.02.61-.06c.17-.04.3-.09.4-.17.09-.07.14-.16.14-.26s-.05-.19-.14-.26c-.09-.07-.22-.13-.39-.17-.17-.04-.37-.06-.61-.06-.24,0-.44.02-.61.06-.17.04-.3.09-.39.17-.09.07-.13.16-.13.26,0,.1.04.19.13.26Zm1.63-1.71v-.52c-.19.03-.4.05-.63.05s-.44-.02-.63-.05v.52h1.26Z"/>
      <path class="cls-1" d="m99.24,7.02h-2.05v-2.86h2.05v2.86Zm-.39-.32v-2.23h-1.28v2.23h1.28Zm1.2-2.99h.39v1.77h.74v.34h-.74v2.33h-.39V3.71Z"/>
      <path class="cls-1" d="m103.28,4c.17.08.31.2.41.35.1.15.15.32.15.51s-.05.36-.15.51c-.1.15-.24.26-.41.35s-.37.12-.59.12-.42-.04-.6-.12-.31-.2-.41-.35c-.1-.15-.15-.32-.15-.51s.05-.36.15-.51c.1-.15.24-.27.41-.35.18-.08.37-.13.6-.13s.42.04.59.13Zm-1.26,1.2c.07.1.16.18.27.23.12.06.25.08.4.08s.28-.03.39-.08c.12-.06.21-.13.28-.23.07-.1.1-.21.1-.34s-.03-.24-.1-.34c-.07-.1-.16-.18-.28-.23-.12-.05-.25-.08-.39-.08s-.28.03-.4.08c-.12.06-.21.13-.27.23-.07.1-.1.21-.1.34,0,.13.03.24.1.34Zm.19,1.01h2.89v1.07h-2.49v.5h2.65v.31h-3.04v-1.11h2.49v-.46h-2.5v-.31Zm2.5-2.5h.39v2.28h-.39v-2.28Z"/>
      <path class="cls-1" d="m106.1,4.12h2.07v1.58h-1.66v1.05c.39,0,.76,0,1.1-.03s.71-.07,1.09-.13l.04.33c-.39.06-.76.1-1.11.12s-.74.03-1.15.03h-.37v-1.7h1.66v-.93h-1.67v-.32Zm3.42,4.04h-.39V3.71h.39v4.45Z"/>
      <path class="cls-1" d="m112.02,5.81c.11.24.26.46.44.65.18.19.38.33.6.42l-.22.31c-.26-.12-.5-.3-.71-.54-.21-.24-.37-.52-.47-.82-.1.32-.26.62-.47.88-.21.26-.44.46-.7.59l-.24-.31c.21-.1.41-.25.59-.46s.33-.44.44-.69c.11-.26.17-.51.17-.76v-.58h-1.05v-.32h2.5v.32h-1.06v.58c0,.24.05.49.16.73Zm1.51-2.1h.39v4.44h-.39V3.71Z"/>
    </g>
    <g class="cls-2">
      <path class="cls-1" d="m96.62,12.07h-.96v-.4h.96v-.96h.4v.96h.97v.4h-.97v.97h-.4v-.97Z"/>
    </g>
    <g class="cls-2">
      <path class="cls-1" d="m78.31,17.07h-1.83v.42h1.31v.96h-2.64v.43h2.77v.3h-3.16v-1.01h2.64v-.38h-2.65v-.29h1.34v-.42h-1.82v-.3h4.04v.3Zm-3.07-.94c.23-.07.42-.15.57-.27s.23-.24.25-.38h-1.38v-.31h1.41v-.41h.38v.41h1.42v.31h-1.39c.02.14.11.27.25.38s.33.2.57.27c.23.07.49.11.76.13l-.12.3c-.39-.03-.74-.11-1.04-.23-.3-.12-.52-.28-.65-.48-.13.2-.35.36-.65.48-.3.12-.65.2-1.04.23l-.12-.3c.28-.02.53-.06.76-.13Z"/>
      <path class="cls-1" d="m82.21,15.36c0,.24,0,.46-.02.65s-.05.41-.1.66h.65v.32h-4.07v-.32h3.02c.05-.22.08-.42.1-.61.02-.18.02-.37.02-.57v-.13h0s-2.63,0-2.63,0v-.32h3.02v.33Zm-3.03,2.24h3.05v1.57h-3.05v-1.57Zm2.66,1.25v-.94h-2.27v.94h2.27Z"/>
      <path class="cls-1" d="m87.17,18.66h-4.07v-.33h1.01v-1.2c-.19-.1-.34-.23-.45-.39s-.16-.34-.16-.53c0-.22.07-.42.21-.6.14-.17.33-.31.58-.4.25-.09.53-.14.84-.15.32,0,.59.05.84.15.25.09.44.23.58.4.14.17.21.37.21.6,0,.19-.05.37-.16.53s-.25.28-.43.38v1.21h1.01v.33Zm-3.13-2.01c.1.13.25.22.44.29.19.07.4.1.65.1s.45-.03.64-.1c.19-.07.33-.17.44-.29.11-.13.16-.27.16-.43s-.05-.31-.16-.43-.25-.22-.44-.29c-.19-.07-.4-.1-.64-.1-.24,0-.46.03-.65.1-.19.07-.34.16-.44.29-.11.12-.16.27-.16.43s.05.31.16.43Zm1.73,1.68v-1.06c-.2.05-.41.08-.64.08s-.44-.02-.63-.07v1.05h1.27Z"/>
      <path class="cls-1" d="m89.18,16.27c.1.17.23.31.4.44.17.13.37.22.58.28l-.19.3c-.26-.08-.49-.2-.68-.36s-.34-.35-.45-.57c-.09.24-.24.46-.44.64-.2.18-.43.32-.69.4l-.19-.3c.22-.07.41-.18.58-.32.17-.14.3-.3.4-.48.09-.18.14-.37.14-.57v-.09h-1v-.31h1v-.56h.39v.56h.99v.31h-1v.09c0,.18.05.36.15.52Zm-.76,1.71c.12-.12.29-.21.51-.28.22-.06.49-.09.8-.09s.57.03.79.09c.22.06.39.15.51.28.12.12.18.27.18.44s-.06.32-.18.44-.29.21-.51.28c-.22.06-.49.09-.79.09s-.57-.03-.8-.09c-.22-.06-.39-.16-.51-.28s-.18-.27-.18-.44.06-.32.18-.44Zm.34.71c.09.08.21.13.38.17s.36.06.59.06.42-.02.59-.06c.17-.04.29-.1.38-.17.09-.07.13-.16.13-.27s-.04-.19-.13-.27c-.09-.08-.21-.13-.38-.17-.17-.04-.36-.06-.59-.06-.23,0-.42.02-.59.06-.17.04-.29.1-.38.17-.09.07-.13.16-.13.27s.04.19.13.27Zm1.14-2.61h.91v-1.27h.39v2.69h-.39v-1.09h-.91v-.32Z"/>
      <path class="cls-1" d="m95.99,17.19h-1.83v.47c.42.02.75.09.98.23.23.13.35.32.35.55,0,.16-.06.3-.19.42-.12.12-.29.2-.53.26-.23.06-.5.09-.82.09s-.6-.03-.83-.09c-.23-.06-.4-.15-.53-.26s-.18-.26-.18-.42c0-.23.11-.42.35-.55.23-.13.56-.21.99-.23v-.47h-1.83v-.32h4.04v.32Zm-3.08-1.08c.23-.09.42-.21.57-.34.15-.14.22-.29.23-.45h-1.4v-.32h3.32v.32h-1.41c0,.16.09.31.23.45.15.14.34.25.57.34.23.09.48.15.74.18l-.14.31c-.25-.03-.48-.09-.7-.17-.22-.08-.42-.18-.58-.31s-.29-.27-.37-.43c-.08.16-.2.3-.37.43s-.36.23-.58.31c-.22.08-.46.14-.7.17l-.14-.31c.26-.03.51-.09.74-.18Zm.05,2.59c.09.07.22.12.39.16s.37.06.6.06.44-.02.61-.05.3-.09.4-.16.14-.16.14-.25c0-.15-.1-.27-.3-.35-.2-.08-.48-.13-.83-.13-.36,0-.64.05-.84.13-.2.08-.3.2-.3.35,0,.1.04.18.13.25Z"/>
      <path class="cls-1" d="m96.62,15.63c.1-.16.24-.29.42-.39.18-.09.38-.14.6-.14s.42.05.59.14c.18.09.32.22.42.39.1.17.15.35.15.56s-.05.4-.15.57-.24.3-.42.39c-.18.09-.38.14-.59.14s-.42-.05-.6-.14c-.18-.09-.32-.22-.42-.39s-.15-.36-.15-.57.05-.4.15-.56Zm.33.95c.07.11.16.2.28.27.12.06.25.09.4.09s.28-.03.4-.09c.12-.06.21-.15.28-.27.07-.11.1-.24.1-.39s-.03-.27-.1-.38-.16-.2-.28-.26-.25-.1-.4-.1-.28.03-.4.09c-.12.06-.21.15-.28.26-.07.11-.1.24-.1.38,0,.15.03.27.1.39Zm.21,1.13h.39v1.09h2.62v.33h-3.01v-1.42Zm2.87.33h-.39v-3.25h.39v3.25Z"/>
      <path class="cls-1" d="m104.3,18.1h-2.05v-2.86h2.05v2.86Zm-.39-.32v-2.23h-1.28v2.23h1.28Zm1.2-2.99h.39v1.77h.74v.34h-.74v2.33h-.39v-4.44Z"/>
      <path class="cls-1" d="m108.34,15.08c.17.08.31.2.41.35.1.15.15.32.15.51s-.05.36-.15.51c-.1.15-.24.26-.41.35s-.37.12-.59.12-.42-.04-.6-.12-.31-.2-.41-.35c-.1-.15-.15-.32-.15-.51s.05-.36.15-.51c.1-.15.24-.27.41-.35.18-.08.37-.13.6-.13s.42.04.59.13Zm-1.26,1.2c.07.1.16.18.27.23.12.06.25.08.4.08s.28-.03.39-.08c.12-.06.21-.13.28-.23.07-.1.1-.21.1-.34s-.03-.24-.1-.34c-.07-.1-.16-.18-.28-.23-.12-.05-.25-.08-.39-.08s-.28.03-.4.08c-.12.06-.21.13-.27.23-.07.1-.1.21-.1.34,0,.13.03.24.1.34Zm.19,1.01h2.89v1.07h-2.49v.5h2.65v.31h-3.04v-1.11h2.49v-.46h-2.5v-.31Zm2.5-2.5h.39v2.28h-.39v-2.28Z"/>
      <path class="cls-1" d="m111.16,15.21h2.07v1.58h-1.66v1.05c.39,0,.76,0,1.1-.03s.71-.07,1.09-.13l.04.33c-.39.06-.76.1-1.11.12s-.74.03-1.15.03h-.37v-1.7h1.66v-.93h-1.67v-.32Zm3.42,4.04h-.39v-4.45h.39v4.45Z"/>
      <path class="cls-1" d="m117.08,16.89c.11.24.26.46.44.65.18.19.38.33.6.42l-.22.31c-.26-.12-.5-.3-.71-.54-.21-.24-.37-.52-.47-.82-.1.32-.26.62-.47.88-.21.26-.44.46-.7.59l-.24-.31c.21-.1.41-.25.59-.46s.33-.44.44-.69c.11-.26.17-.51.17-.76v-.58h-1.05v-.32h2.5v.32h-1.06v.58c0,.24.05.49.16.73Zm1.51-2.1h.39v4.44h-.39v-4.44Z"/>
    </g>
    <g class="cls-2">
      <path class="cls-1" d="m96.62,23.15h-.96v-.4h.96v-.96h.4v.96h.97v.4h-.97v.97h-.4v-.97Z"/>
    </g>
    <g class="cls-2">
      <path class="cls-1" d="m78.32,26.68h-1.64v-.32h2.04c0,.67-.16,1.27-.48,1.79-.32.53-.83.97-1.54,1.32l-.21-.31c1.14-.55,1.75-1.38,1.84-2.48Zm1.83,3.64h-.39v-2.33h-1.06v-.32h1.06v-1.79h.39v4.44Z"/>
      <path class="cls-1" d="m82.71,27.91h-1.28v1.01c.29,0,.56-.01.8-.03.25-.02.5-.05.77-.09l.03.32c-.29.05-.57.09-.83.1s-.55.03-.86.03h-.29v-1.66h1.28v-.9h-1.29v-.33h1.67v1.55Zm.59-1.94h.36v1.66h.65v-1.76h.38v4.44h-.38v-2.36h-.65v2.13h-.36v-4.11Z"/>
      <path class="cls-1" d="m86.96,27.83c.1.25.24.48.42.68.18.2.37.35.58.45l-.24.32c-.25-.13-.46-.31-.66-.56s-.34-.53-.44-.84c-.1.33-.25.62-.44.89-.2.26-.42.46-.67.6l-.25-.31c.21-.1.41-.26.59-.47.18-.21.32-.45.42-.71.1-.27.16-.53.16-.8v-.81h.38v.81c0,.25.05.51.15.76Zm1.41-1.96h.39v1.8h.74v.34h-.74v2.3h-.39v-4.44Z"/>
      <path class="cls-1" d="m93.78,28.4h-4.05v-.32h1v-.63c-.18-.07-.32-.16-.41-.27-.09-.11-.14-.24-.14-.39,0-.17.06-.32.19-.44.13-.12.31-.22.54-.28.24-.06.52-.1.84-.1s.6.03.83.1c.24.07.42.16.54.28.13.12.19.27.19.44,0,.15-.05.28-.14.39-.09.11-.23.2-.41.27v.63h1v.32Zm-3.38.7c.12-.12.3-.21.53-.27.23-.06.51-.09.83-.09s.59.03.82.09c.23.06.4.15.53.27.12.12.18.26.19.43,0,.17-.06.31-.19.43-.12.12-.3.21-.52.27-.23.06-.5.09-.82.09s-.6-.03-.83-.09c-.23-.06-.4-.15-.53-.27-.12-.12-.18-.26-.18-.43s.06-.31.18-.43Zm.32-2.03c.09.08.23.14.4.18.18.04.38.06.63.06s.45-.02.62-.06c.17-.04.31-.1.4-.18.09-.08.14-.17.14-.28s-.05-.2-.14-.27c-.1-.08-.23-.14-.41-.18-.18-.04-.38-.06-.62-.06s-.45.02-.63.06c-.18.04-.31.1-.4.18-.09.08-.14.17-.14.27s.05.2.14.28Zm.03,2.72c.09.07.22.13.39.17s.37.06.6.06.44-.02.61-.06c.17-.04.3-.09.4-.17.09-.07.14-.16.14-.26s-.05-.19-.14-.26c-.09-.07-.22-.13-.39-.17-.17-.04-.37-.06-.61-.06-.24,0-.44.02-.61.06-.17.04-.3.09-.39.17-.09.07-.13.16-.13.26,0,.1.04.19.13.26Zm1.63-1.71v-.52c-.19.03-.4.05-.63.05s-.44-.02-.63-.05v.52h1.26Z"/>
      <path class="cls-1" d="m98.2,28.28h-1.83v.47c.42.02.75.09.99.23.23.13.35.32.35.55,0,.17-.06.31-.19.42-.12.12-.3.2-.53.26-.23.06-.5.09-.82.09s-.6-.03-.83-.09-.41-.15-.53-.26c-.12-.12-.18-.26-.18-.42,0-.23.12-.42.35-.55.23-.13.56-.21.99-.23v-.47h-1.83v-.33h4.05v.33Zm-3.08-1.08c.23-.09.42-.21.57-.34.15-.14.22-.29.23-.45h-1.4v-.32h3.32v.32h-1.41c0,.16.09.31.23.45.15.14.33.25.57.34.23.09.48.15.74.18l-.14.31c-.25-.03-.48-.08-.7-.17s-.42-.18-.58-.31c-.17-.13-.29-.27-.37-.43-.08.16-.2.3-.37.43-.17.13-.36.23-.58.31-.22.08-.46.14-.7.17l-.14-.31c.26-.03.51-.09.74-.18Zm.05,2.59c.09.07.22.12.39.16.17.04.37.06.6.06s.44-.02.61-.05c.17-.04.3-.09.4-.16.09-.07.14-.16.14-.25,0-.15-.1-.27-.3-.35-.2-.08-.48-.13-.83-.13-.36,0-.64.05-.84.13-.2.08-.3.2-.3.35,0,.1.04.18.13.25Z"/>
      <path class="cls-1" d="m102.09,29.19h-2.05v-2.86h2.05v2.86Zm-.39-.32v-2.23h-1.28v2.23h1.28Zm1.2-2.99h.39v1.77h.74v.34h-.74v2.33h-.39v-4.44Z"/>
      <path class="cls-1" d="m106.13,26.17c.17.08.31.2.41.35.1.15.15.32.15.51s-.05.36-.15.51c-.1.15-.24.26-.41.35-.17.08-.37.12-.59.12s-.42-.04-.6-.12c-.18-.08-.31-.2-.41-.35-.1-.15-.15-.32-.15-.51s.05-.36.15-.51c.1-.15.24-.27.41-.35.18-.08.37-.13.6-.13s.42.04.59.13Zm-1.26,1.2c.07.1.16.18.27.23.12.06.25.08.4.08s.28-.03.39-.08c.12-.06.21-.13.28-.23.07-.1.1-.21.1-.34s-.03-.24-.1-.34c-.07-.1-.16-.18-.28-.23-.12-.05-.25-.08-.39-.08s-.28.03-.4.08c-.12.06-.21.13-.27.23-.07.1-.1.21-.1.34,0,.13.03.24.1.34Zm.19,1.01h2.89v1.07h-2.49v.5h2.65v.31h-3.04v-1.11h2.49v-.46h-2.5v-.31Zm2.5-2.5h.39v2.28h-.39v-2.28Z"/>
      <path class="cls-1" d="m108.95,26.29h2.07v1.58h-1.66v1.05c.39,0,.76,0,1.1-.03s.71-.07,1.09-.13l.04.33c-.39.06-.76.1-1.11.12s-.74.04-1.15.04h-.37v-1.7h1.66v-.93h-1.67v-.33Zm3.42,4.04h-.39v-4.45h.39v4.45Z"/>
      <path class="cls-1" d="m114.87,27.97c.11.24.26.46.44.65.18.19.38.33.6.42l-.22.31c-.26-.12-.5-.3-.71-.54s-.37-.52-.47-.82c-.1.32-.26.62-.47.88-.21.26-.44.46-.7.59l-.24-.31c.21-.1.41-.25.59-.46.18-.2.33-.44.44-.69.11-.26.17-.51.17-.76v-.58h-1.05v-.33h2.5v.33h-1.06v.58c0,.24.05.49.16.73Zm1.51-2.09h.39v4.44h-.39v-4.44Z"/>
    </g>
  </g>
  <g id="_3" data-name=" 3">
    <polygon class="cls-1" points="70.65 31.69 67.29 31.69 67.29 0 70.78 0 70.78 1 68.29 1 68.29 30.69 70.65 30.69 70.65 31.69"/>
  </g>
  <g id="_4" data-name=" 4">
    <polygon class="cls-1" points="124.13 31.69 120.77 31.69 120.77 30.69 123.13 30.69 123.13 1 120.64 1 120.64 0 124.13 0 124.13 31.69"/>
  </g>
</svg>