<svg xmlns="http://www.w3.org/2000/svg" width="780.93" height="100.47" viewBox="0 0 780.93 100.47">
    <g data-name="그룹 3868">
        <g data-name="그룹 3853">
            <g data-name="그룹 3852">
                <path data-name="패스 5226" d="M931.1-184.47H235.4c-1.19 0-2.15-1.57-2.15-3.5s.96-3.5 2.15-3.5h695.7c1.19 0 2.15 1.57 2.15 3.5s-.96 3.5-2.15 3.5z" style="fill:#f0f0f0" transform="translate(-179.53 200.68)"/>
            </g>
        </g>
        <g data-name="그룹 3855">
            <g data-name="그룹 3854">
                <path data-name="패스 5227" d="M576.31-184.47H203.36a3.517 3.517 0 0 1-3.53-3.5 3.517 3.517 0 0 1 3.53-3.5H576.3a3.517 3.517 0 0 1 3.53 3.5 3.515 3.515 0 0 1-3.52 3.5z" style="fill:#3f52fc" transform="translate(-179.53 200.68)"/>
            </g>
        </g>
        <g data-name="그룹 3856">
            <path data-name="패스 5228" d="M570.65-166.38a3.431 3.431 0 0 1 1.38-1.26 4.134 4.134 0 0 1 1.93-.46 4.016 4.016 0 0 1 1.93.46 3.474 3.474 0 0 1 1.37 1.26 3.4 3.4 0 0 1 .5 1.81 3.442 3.442 0 0 1-.5 1.83 3.4 3.4 0 0 1-1.37 1.26 4.157 4.157 0 0 1-1.93.45 4.128 4.128 0 0 1-1.93-.45 3.5 3.5 0 0 1-1.38-1.26 3.355 3.355 0 0 1-.5-1.83 3.229 3.229 0 0 1 .5-1.81zm1.47 2.88a1.833 1.833 0 0 0 .75.71 2.276 2.276 0 0 0 1.09.25 2.223 2.223 0 0 0 1.07-.25 1.833 1.833 0 0 0 .75-.71 2.075 2.075 0 0 0 .27-1.07 2 2 0 0 0-.27-1.05 1.833 1.833 0 0 0-.75-.71 2.251 2.251 0 0 0-1.07-.25 2.332 2.332 0 0 0-1.09.25 1.833 1.833 0 0 0-.75.71 2.052 2.052 0 0 0-.27 1.05 2.049 2.049 0 0 0 .27 1.07zm.19 3.65h1.75v3.25h7.98v1.41h-9.73zm9.35 1.03h-1.75v-10.2h1.75z" style="fill:#3f52fc" transform="translate(-179.53 200.68)"/>
            <path data-name="패스 5229" d="M586.82-162.07a8.2 8.2 0 0 0 1.29-3.84h-3.78v-1.41h5.5a13.843 13.843 0 0 1-.15 2.08h1.65v-3.45h1.66v13.11h-1.66v-4.72h-2.2v-1.42h2.2v-2.09h-1.95a9.576 9.576 0 0 1-1.69 3.3 10.951 10.951 0 0 1-3.1 2.62l-1.02-1.23a9.784 9.784 0 0 0 3.25-2.95zm9.09 7.16h-1.66v-14.12h1.66z" style="fill:#3f52fc" transform="translate(-179.53 200.68)"/>
        </g>
        <g data-name="그룹 3857">
            <path data-name="패스 5230" d="M909.96-161.92a8.375 8.375 0 0 0 1.53-4.23h-4.86v-1.38h6.61a12.859 12.859 0 0 1-.61 4.03 9.323 9.323 0 0 1-2 3.36 12.705 12.705 0 0 1-3.75 2.7l-.91-1.36a10.816 10.816 0 0 0 3.99-3.12zm7.93 7.01h-1.73v-7.19h-2.98v-1.42h2.98v-5.52h1.73z" style="fill:#707070" transform="translate(-179.53 200.68)"/>
            <path data-name="패스 5231" d="M925.64-162.33h-3.66v2.75a48.7 48.7 0 0 0 2.26-.08 20.142 20.142 0 0 0 2.11-.25l.12 1.41a23.727 23.727 0 0 1-2.5.29c-.79.05-1.69.08-2.71.08h-.97v-5.61h3.66v-2.45h-3.67v-1.41h5.34v5.27zm1.57-6.44h1.59v5.16h1.59v-5.42h1.66v14.12h-1.66v-7.3h-1.59v6.58h-1.59z" style="fill:#707070" transform="translate(-179.53 200.68)"/>
            <path data-name="패스 5232" d="M941-162.19h5.59v1.41h-12.88v-1.41h5.56v-1.8H941zm-4.41-2.87a5.158 5.158 0 0 0 1.59-.86 2.159 2.159 0 0 0 .75-1.09h-4.03v-1.39h10.55v1.39h-4.07a2.159 2.159 0 0 0 .75 1.09 5.164 5.164 0 0 0 1.59.87 9.162 9.162 0 0 0 2.28.48l-.62 1.36a8.907 8.907 0 0 1-3.28-.91 4.4 4.4 0 0 1-1.94-1.78 4.473 4.473 0 0 1-1.94 1.79 9.108 9.108 0 0 1-3.27.9l-.61-1.36a9.575 9.575 0 0 0 2.25-.49zm-.78 6.31a3.774 3.774 0 0 1 1.69-.84 10.7 10.7 0 0 1 2.64-.29 10.418 10.418 0 0 1 2.62.29 3.787 3.787 0 0 1 1.68.84 1.775 1.775 0 0 1 .59 1.34 1.786 1.786 0 0 1-.58 1.35 3.786 3.786 0 0 1-1.68.84 10.558 10.558 0 0 1-2.63.29 10.587 10.587 0 0 1-2.64-.29 3.774 3.774 0 0 1-1.69-.84 1.8 1.8 0 0 1-.59-1.35 1.775 1.775 0 0 1 .59-1.34zm1.97 2.22a7.068 7.068 0 0 0 2.36.3 7.056 7.056 0 0 0 2.34-.3c.54-.2.81-.49.82-.88s-.28-.66-.81-.85a7.378 7.378 0 0 0-2.34-.29 7.689 7.689 0 0 0-2.36.29c-.53.19-.8.47-.79.85-.02.39.25.68.78.88z" style="fill:#707070" transform="translate(-179.53 200.68)"/>
            <path data-name="패스 5233" d="M960.46-156.55h-12.91v-1.44h3.42v-2.33h-1.89v-4.61h8.12v-1.73h-8.16v-1.41h9.88v4.53h-8.11v1.81h8.44v1.41h-2.06v2.33h3.27v1.44zm-4.97-1.44v-2.33h-2.83v2.33z" style="fill:#707070" transform="translate(-179.53 200.68)"/>
        </g>
        <g data-name="그룹 3863">
            <g data-name="그룹 3861" transform="translate(-179.53 200.68)">
                <circle data-name="타원 159" cx="12.2" cy="12.2" r="12.2" transform="translate(571.05 -200.17)" style="fill:#3f52fc"/>
                <path data-name="패스 5236" d="M583.25-175.28a12.718 12.718 0 0 1-12.7-12.7 12.718 12.718 0 0 1 12.7-12.7 12.718 12.718 0 0 1 12.7 12.7 12.718 12.718 0 0 1-12.7 12.7zm0-24.39a11.715 11.715 0 0 0-11.7 11.7 11.715 11.715 0 0 0 11.7 11.7 11.715 11.715 0 0 0 11.7-11.7 11.715 11.715 0 0 0-11.7-11.7z" style="fill:#3f52fc"/>
            </g>
            <g data-name="그룹 3862">
                <path data-name="패스 5237" d="m579.36-182.66 4.12-4.33c.54-.58.95-1.04 1.24-1.4a4.551 4.551 0 0 0 .65-1.02 2.446 2.446 0 0 0 .22-1.03 1.851 1.851 0 0 0-.32-1.07 2.1 2.1 0 0 0-.86-.72 2.835 2.835 0 0 0-1.22-.26 2.581 2.581 0 0 0-1.24.29 1.977 1.977 0 0 0-.82.8 2.371 2.371 0 0 0-.29 1.18h-1.42a3.4 3.4 0 0 1 .49-1.86 3.4 3.4 0 0 1 1.37-1.26 4.222 4.222 0 0 1 1.96-.45 4.188 4.188 0 0 1 1.93.44 3.346 3.346 0 0 1 1.34 1.21 3.142 3.142 0 0 1 .48 1.7 3.916 3.916 0 0 1-.25 1.32 5.731 5.731 0 0 1-.84 1.4 20.862 20.862 0 0 1-1.68 1.88l-2.77 2.85v.1h5.75v1.33h-7.84z" style="fill:#fff" transform="translate(-179.53 200.68)"/>
            </g>
        </g>
        <g data-name="그룹 3866">
            <g data-name="그룹 3864" transform="translate(-179.53 200.68)">
                <circle data-name="타원 160" cx="12.2" cy="12.2" r="12.2" transform="translate(921.05 -200.17)" style="fill:#fff"/>
                <path data-name="패스 5238" d="M933.25-175.28a12.718 12.718 0 0 1-12.7-12.7 12.718 12.718 0 0 1 12.7-12.7 12.718 12.718 0 0 1 12.7 12.7 12.718 12.718 0 0 1-12.7 12.7zm0-24.39a11.715 11.715 0 0 0-11.7 11.7 11.715 11.715 0 0 0 11.7 11.7 11.715 11.715 0 0 0 11.7-11.7 11.715 11.715 0 0 0-11.7-11.7z" style="fill:#707070"/>
            </g>
            <g data-name="그룹 3865">
                <path data-name="패스 5239" d="M931.15-181.79a3.566 3.566 0 0 1-1.49-1.13 2.837 2.837 0 0 1-.58-1.67h1.52a1.68 1.68 0 0 0 .4.99 2.334 2.334 0 0 0 .95.65 3.693 3.693 0 0 0 1.32.23 3.56 3.56 0 0 0 1.42-.27 2.34 2.34 0 0 0 .98-.75 1.783 1.783 0 0 0 .35-1.1 2.043 2.043 0 0 0-.35-1.17 2.314 2.314 0 0 0-1-.8 3.979 3.979 0 0 0-1.58-.29h-.98v-1.32h.98a3.094 3.094 0 0 0 1.29-.26 2.054 2.054 0 0 0 .88-.73 1.876 1.876 0 0 0 .31-1.08 2 2 0 0 0-.27-1.05 1.918 1.918 0 0 0-.78-.71 2.638 2.638 0 0 0-1.19-.25 3.314 3.314 0 0 0-1.22.24 2.256 2.256 0 0 0-.93.66 1.661 1.661 0 0 0-.39 1h-1.45a2.808 2.808 0 0 1 .58-1.66 3.725 3.725 0 0 1 1.45-1.13 4.753 4.753 0 0 1 1.97-.4 4.155 4.155 0 0 1 1.95.44 3.212 3.212 0 0 1 1.29 1.18 2.937 2.937 0 0 1 .44 1.61 2.756 2.756 0 0 1-.54 1.74 2.869 2.869 0 0 1-1.51 1v.08a3.223 3.223 0 0 1 1.35.51 2.572 2.572 0 0 1 .87 1.01 3.106 3.106 0 0 1 .3 1.38 2.965 2.965 0 0 1-.55 1.76 3.678 3.678 0 0 1-1.5 1.24 5.015 5.015 0 0 1-2.15.45 5.407 5.407 0 0 1-2.14-.4z" style="fill:#707070" transform="translate(-179.53 200.68)"/>
            </g>
        </g>
        <g data-name="그룹 3860">
            <g data-name="그룹 3858" transform="translate(-179.53 200.68)">
                <circle data-name="타원 158" cx="12.2" cy="12.2" r="12.2" transform="translate(187.63 -200.17)" style="fill:#3f52fc"/>
                <path data-name="패스 5234" d="M199.83-175.28a12.718 12.718 0 0 1-12.7-12.7 12.718 12.718 0 0 1 12.7-12.7 12.718 12.718 0 0 1 12.7 12.7 12.718 12.718 0 0 1-12.7 12.7zm0-24.39a11.715 11.715 0 0 0-11.7 11.7 11.715 11.715 0 0 0 11.7 11.7 11.715 11.715 0 0 0 11.7-11.7 11.715 11.715 0 0 0-11.7-11.7z" style="fill:#3f52fc"/>
            </g>
            <g data-name="그룹 3859">
                <path data-name="패스 5235" d="M201.18-181.56h-1.52v-10.5h-.07l-2.93 1.95v-1.52l3-2h1.52z" style="fill:#fff" transform="translate(-179.53 200.68)"/>
            </g>
        </g>
        <g data-name="그룹 3867">
            <path data-name="패스 5240" d="M187.51-164.98h-1.23v4.18q1.185-.105 1.8-.18l.12 1.28a35.3 35.3 0 0 1-4.03.43c-1.42.07-2.9.11-4.45.11l-.19-1.41c.32 0 .86 0 1.62-.02v-4.39h-1.25v-1.39h7.61zm-5.86 6.79h1.73v3.02h7.88v1.41h-9.61zm2.94-2.51v-4.28h-1.77v4.35c.6-.02 1.18-.04 1.77-.07zm4.38-6.89h1.73v4.08h1.97v1.45h-1.97v4.86h-1.73z" style="fill:#3f52fc" transform="translate(-179.53 200.68)"/>
            <path data-name="패스 5241" d="M193.83-166.08h5.55v8.95h-5.55zm3.92 7.58v-6.2h-2.3v6.2zm7.83 5.02h-1.67v-7.23h-1.5v6.55h-1.64v-13.19h1.64v5.2h1.5v-5.45h1.67z" style="fill:#3f52fc" transform="translate(-179.53 200.68)"/>
            <path data-name="패스 5242" d="M220.09-159.72h-5.59v1.19a6.485 6.485 0 0 1 2.97.77 1.971 1.971 0 0 1 1.06 1.73 1.839 1.839 0 0 1-.59 1.37 3.739 3.739 0 0 1-1.69.86 10.409 10.409 0 0 1-2.61.3 10.587 10.587 0 0 1-2.64-.29 3.739 3.739 0 0 1-1.69-.86 1.86 1.86 0 0 1-.59-1.38 1.952 1.952 0 0 1 1.06-1.73 6.623 6.623 0 0 1 3-.77v-1.18h-5.56v-1.41h12.88v1.4zm-10-3.9a4.972 4.972 0 0 0 1.59-.88 2.224 2.224 0 0 0 .75-1.1h-4.03v-1.39h10.55v1.39h-4.07a2.158 2.158 0 0 0 .74 1.11 4.972 4.972 0 0 0 1.59.88 9.261 9.261 0 0 0 2.29.47l-.61 1.38a9.018 9.018 0 0 1-3.29-.92 4.464 4.464 0 0 1-1.95-1.8 4.434 4.434 0 0 1-1.94 1.8 9.107 9.107 0 0 1-3.27.91l-.59-1.38a8.7 8.7 0 0 0 2.24-.47zm1.18 8.48a6.572 6.572 0 0 0 2.31.31 7.283 7.283 0 0 0 2.38-.3c.55-.2.83-.5.83-.9s-.28-.69-.82-.89a7.014 7.014 0 0 0-2.34-.31 7.105 7.105 0 0 0-2.36.31c-.54.2-.81.5-.8.89s.27.68.8.89z" style="fill:#3f52fc" transform="translate(-179.53 200.68)"/>
        </g>
    </g>
    <g data-name="그룹 3873">
        <g data-name="그룹 3869">
            <path data-name="패스 5243" d="M359.72-118.9c-.01.93-.03 1.73-.07 2.42a19.641 19.641 0 0 1-.3 2.35h1.95v1.41h-5.61v5.84h-1.75v-5.84h-5.52v-1.41h9.16a18.839 18.839 0 0 0 .33-2.33c.05-.7.07-1.46.07-2.3h-8.05v-1.41h9.78v1.27z" style="fill:#3f52fc" transform="translate(-179.53 200.68)"/>
            <path data-name="패스 5244" d="M362.69-119.49h5.55v8.95h-5.55zm3.92 7.57v-6.2h-2.3v6.2zm7.83 5.02h-1.67v-7.23h-1.5v6.55h-1.64v-13.19h1.64v5.2h1.5v-5.45h1.67z" style="fill:#3f52fc" transform="translate(-179.53 200.68)"/>
            <path data-name="패스 5245" d="M381.56-114.78a6.627 6.627 0 0 0 1.23 2.05 5.667 5.667 0 0 0 1.88 1.43l-.97 1.38a5.72 5.72 0 0 1-2.04-1.61 8.141 8.141 0 0 1-1.37-2.43 8.5 8.5 0 0 1-1.4 2.65 5.84 5.84 0 0 1-2.1 1.73l-1.02-1.36a5.481 5.481 0 0 0 1.91-1.49 7.1 7.1 0 0 0 1.26-2.18 7.262 7.262 0 0 0 .45-2.39v-1.19h-3.08v-1.44h7.77v1.44h-2.95v1.19a6.569 6.569 0 0 0 .43 2.22zm3.85-6.24h1.73v5.5h2.17v1.45h-2.17v7.17h-1.73z" style="fill:#3f52fc" transform="translate(-179.53 200.68)"/>
            <path data-name="패스 5246" d="M390.43-117.59a3.927 3.927 0 0 1 1.07-1.75 2.345 2.345 0 0 1 1.61-.61 2.4 2.4 0 0 1 1.51.51 3.57 3.57 0 0 1 1.06 1.46 7.038 7.038 0 0 1 .5 2.27h1.36v-5.06h1.66v13.19h-1.66v-6.72h-1.34a7.426 7.426 0 0 1-.48 2.37 3.749 3.749 0 0 1-1.07 1.54 2.439 2.439 0 0 1-1.54.53 2.363 2.363 0 0 1-1.61-.61 3.841 3.841 0 0 1-1.07-1.75 8.62 8.62 0 0 1-.38-2.68 8.6 8.6 0 0 1 .38-2.69zm1.61 5.21c.25.58.61.86 1.06.86.47.01.84-.28 1.1-.87a6.543 6.543 0 0 0 .4-2.52 6.616 6.616 0 0 0-.4-2.52c-.26-.59-.63-.88-1.1-.87s-.81.29-1.06.88a6.807 6.807 0 0 0-.38 2.55 6.5 6.5 0 0 0 .38 2.49zm10.06 5.48h-1.67v-14.12h1.67z" style="fill:#3f52fc" transform="translate(-179.53 200.68)"/>
            <path data-name="패스 5247" d="M406.87-114.06a8.2 8.2 0 0 0 1.29-3.84h-3.81v-1.41h5.53a12.81 12.81 0 0 1-.55 3.84h1.96v-5.22h1.64v13.11h-1.64v-6.5h-2.53a10.156 10.156 0 0 1-4.14 4.19l-.98-1.23a9.774 9.774 0 0 0 3.23-2.94zm9.06 7.16h-1.66v-14.12h1.66z" style="fill:#3f52fc" transform="translate(-179.53 200.68)"/>
            <path data-name="패스 5248" d="M434.24-113.92h-5.59v1.06h3.98v3.47h-8.03v1.03h8.42v1.33H422.9v-3.61h8.03v-.91h-8.05v-1.31h4.03v-1.06h-5.55v-1.38h12.88v1.38zm-11.25-6.67h9.59v4.41h-9.59zm7.86 3.05v-1.69h-6.16v1.69z" style="fill:#3f52fc" transform="translate(-179.53 200.68)"/>
            <path data-name="패스 5249" d="M448.07-112.95h-5.59v1.36h4.03v4.52h-9.8v-4.52h4.05v-1.36h-5.56v-1.39h12.88v1.39zm-11.72-7.65h10.53v1.39h-1.94v2.42h1.86v1.41h-10.38v-1.41h1.86v-2.42h-1.94v-1.39zm8.47 12.12v-1.77h-6.39v1.77zm-1.63-8.31v-2.42h-3.17v2.42z" style="fill:#3f52fc" transform="translate(-179.53 200.68)"/>
            <path data-name="패스 5250" d="M449.02-115.2h12.88v1.39h-12.88zm9.17-5.32a4.034 4.034 0 0 1 1.74.82 1.709 1.709 0 0 1 .6 1.32 1.744 1.744 0 0 1-.6 1.33 3.923 3.923 0 0 1-1.74.82 12.016 12.016 0 0 1-2.75.29 11.481 11.481 0 0 1-2.75-.29 3.923 3.923 0 0 1-1.74-.82 1.729 1.729 0 0 1-.6-1.33 1.724 1.724 0 0 1 .6-1.32 3.923 3.923 0 0 1 1.74-.82 12.6 12.6 0 0 1 2.75-.29 11.422 11.422 0 0 1 2.75.29zm-7.65 7.67h9.75v3.45h-8.03v1.05h8.42v1.33h-10.12v-3.61h8.03v-.94h-8.05v-1.28zm2.45-4.67a7.955 7.955 0 0 0 2.45.28 8.058 8.058 0 0 0 2.47-.28c.55-.19.82-.47.82-.86 0-.36-.28-.65-.84-.84a7.707 7.707 0 0 0-2.46-.3 7.61 7.61 0 0 0-2.44.3c-.56.2-.83.48-.83.84.01.38.28.67.83.86z" style="fill:#3f52fc" transform="translate(-179.53 200.68)"/>
            <path data-name="패스 5251" d="M469.51-114.76a6.923 6.923 0 0 0 1.85-1.7 4.585 4.585 0 0 0 .86-2.07h-4.65v-1.42h6.55a7.372 7.372 0 0 1-.78 3.38 7.794 7.794 0 0 1-2.25 2.66 11.525 11.525 0 0 1-3.52 1.78l-.73-1.39a11.349 11.349 0 0 0 2.67-1.24zm-.24 3.06h1.77v3.11h7.8v1.41h-9.56v-4.52zm9.2 1.05h-1.73v-4.75h-2.72v-1.44h2.72v-4.17h1.73z" style="fill:#3f52fc" transform="translate(-179.53 200.68)"/>
            <path data-name="패스 5252" d="M482.8-111.85c.74-.01 1.44-.05 2.09-.11a18.346 18.346 0 0 0 2-.31l.25 1.47a17.934 17.934 0 0 1-2.42.36q-1.185.09-2.7.09h-.95v-9.27h1.73v7.77zm2.24-4.61h2.95v-4.27h1.64v13.16h-1.64v-7.48h-2.95zm5.97-4.56h1.66v14.12h-1.66z" style="fill:#3f52fc" transform="translate(-179.53 200.68)"/>
            <path data-name="패스 5253" d="M507.18-111.74h-5.61v4.83h-1.72v-4.83h-5.55v-1.41h12.88v1.41zm-9.8-4.4a5.092 5.092 0 0 0 1.67-1.22 2.656 2.656 0 0 0 .68-1.49h-4.24v-1.38h10.5v1.38h-4.24a2.574 2.574 0 0 0 .67 1.49 4.856 4.856 0 0 0 1.67 1.22 7.762 7.762 0 0 0 2.42.68l-.62 1.36a8.553 8.553 0 0 1-3.14-1.04 5.242 5.242 0 0 1-2-1.93 5.283 5.283 0 0 1-1.99 1.93 8.512 8.512 0 0 1-3.12 1.04l-.66-1.36a7.83 7.83 0 0 0 2.4-.68z" style="fill:#3f52fc" transform="translate(-179.53 200.68)"/>
            <path data-name="패스 5254" d="M508.11-114.01h12.91v1.38h-12.91v-1.38zm1.55 2.63h1.73v2.75h8.27v1.41h-10v-4.16zm9.91-4.27h-9.78v-4.86h1.72v3.48h8.06z" style="fill:#3f52fc" transform="translate(-179.53 200.68)"/>
            <path data-name="패스 5255" d="M526.35-119.85h6.33v1.39h-4.61v3.84c1.38 0 2.48-.03 3.32-.09a18.886 18.886 0 0 0 2.49-.35l.19 1.41a20.755 20.755 0 0 1-2.77.36q-1.41.09-3.81.09h-1.14zm1.5 7.97h1.73v3.3h7.88v1.41h-9.61zm9.05-5.18h1.98v1.44h-1.98v4.81h-1.73v-10.22h1.73z" style="fill:#3f52fc" transform="translate(-179.53 200.68)"/>
            <path data-name="패스 5256" d="M542.68-114.06a8.2 8.2 0 0 0 1.29-3.84h-3.78v-1.41h5.5a13.843 13.843 0 0 1-.15 2.08h1.65v-3.45h1.66v13.11h-1.66v-4.72h-2.2v-1.42h2.2v-2.09h-1.95a9.576 9.576 0 0 1-1.69 3.3 10.951 10.951 0 0 1-3.1 2.62l-1.02-1.23a9.687 9.687 0 0 0 3.25-2.95zm9.09 7.16h-1.66v-14.12h1.66z" style="fill:#3f52fc" transform="translate(-179.53 200.68)"/>
            <path data-name="패스 5257" d="M554.16-118.81a3.4 3.4 0 0 1 1.36-1.18 4.428 4.428 0 0 1 1.95-.42 4.428 4.428 0 0 1 1.95.42 3.263 3.263 0 0 1 1.36 1.18 3.086 3.086 0 0 1 .49 1.72 3 3 0 0 1-.49 1.7 3.221 3.221 0 0 1-1.36 1.16 4.428 4.428 0 0 1-1.95.42 4.4 4.4 0 0 1-1.95-.42 3.366 3.366 0 0 1-1.36-1.16 3.005 3.005 0 0 1-.5-1.7 3.094 3.094 0 0 1 .5-1.72zm1.47 2.7a1.764 1.764 0 0 0 .75.65 2.575 2.575 0 0 0 1.1.23 2.516 2.516 0 0 0 1.08-.23 1.764 1.764 0 0 0 .75-.65 1.78 1.78 0 0 0 .27-.98 1.78 1.78 0 0 0-.27-.98 1.764 1.764 0 0 0-.75-.65 2.516 2.516 0 0 0-1.08-.23 2.575 2.575 0 0 0-1.1.23 1.764 1.764 0 0 0-.75.65 1.78 1.78 0 0 0-.27.98 1.78 1.78 0 0 0 .27.98zm.2 3.32h1.72v1.45h5.89v-1.45h1.73v5.72h-9.34v-5.72zm7.61 4.31v-1.5h-5.89v1.5zm1.74-4.97h-1.75v-7.58h1.75z" style="fill:#3f52fc" transform="translate(-179.53 200.68)"/>
            <path data-name="패스 5258" d="M568.05-119.65h1.72v7.72a35.394 35.394 0 0 0 6.27-.64l.22 1.45a33.407 33.407 0 0 1-6.98.67h-1.22v-9.2zm10.97 12.75h-1.72v-14.12h1.72z" style="fill:#3f52fc" transform="translate(-179.53 200.68)"/>
            <path data-name="패스 5259" d="M581.65-119.68h6.61v1.41h-4.88v6.48c1.15 0 2.18-.04 3.09-.11s1.84-.18 2.78-.34l.2 1.47a27.072 27.072 0 0 1-3.03.35c-1 .06-2.2.09-3.61.09h-1.17v-9.35zm10.48 4.01h2.17v1.42h-2.17v7.36h-1.73v-14.14h1.73z" style="fill:#3f52fc" transform="translate(-179.53 200.68)"/>
            <path data-name="패스 5260" d="M596-108.33a1.214 1.214 0 0 1-.45-.45 1.184 1.184 0 0 1-.16-.61 1.174 1.174 0 0 1 .16-.6 1.265 1.265 0 0 1 .45-.44 1.184 1.184 0 0 1 .61-.16 1.174 1.174 0 0 1 .6.16 1.237 1.237 0 0 1 .44.44 1.149 1.149 0 0 1 .16.6 1.184 1.184 0 0 1-.16.61 1.266 1.266 0 0 1-.44.45 1.124 1.124 0 0 1-.6.16 1.21 1.21 0 0 1-.61-.16z" style="fill:#3f52fc" transform="translate(-179.53 200.68)"/>
            <path data-name="패스 5261" d="M615.58-113.92h-5.59v1.06h3.98v3.47h-8.03v1.03h8.42v1.33h-10.12v-3.61h8.03v-.91h-8.05v-1.31h4.03v-1.06h-5.55v-1.38h12.88zm-11.25-6.67h9.59v4.41h-9.59zm7.85 3.05v-1.69h-6.16v1.69z" style="fill:#3f52fc" transform="translate(-179.53 200.68)"/>
            <path data-name="패스 5262" d="M629.4-112.95h-5.59v1.36h4.03v4.52h-9.8v-4.52h4.05v-1.36h-5.56v-1.39h12.88v1.39zm-11.72-7.65h10.53v1.39h-1.94v2.42h1.86v1.41h-10.38v-1.41h1.86v-2.42h-1.94v-1.39zm8.47 12.12v-1.77h-6.39v1.77zm-1.62-8.31v-2.42h-3.17v2.42z" style="fill:#3f52fc" transform="translate(-179.53 200.68)"/>
            <path data-name="패스 5263" d="M630.36-115.2h12.88v1.39h-12.88zm9.17-5.32a4.033 4.033 0 0 1 1.74.82 1.709 1.709 0 0 1 .6 1.32 1.744 1.744 0 0 1-.6 1.33 3.923 3.923 0 0 1-1.74.82 12.016 12.016 0 0 1-2.75.29 11.481 11.481 0 0 1-2.75-.29 3.923 3.923 0 0 1-1.74-.82 1.729 1.729 0 0 1-.6-1.33 1.724 1.724 0 0 1 .6-1.32 3.923 3.923 0 0 1 1.74-.82 12.6 12.6 0 0 1 2.75-.29 11.481 11.481 0 0 1 2.75.29zm-7.66 7.67h9.75v3.45h-8.03v1.05h8.42v1.33h-10.12v-3.61h8.03v-.94h-8.05zm2.46-4.67a7.955 7.955 0 0 0 2.45.28 8.058 8.058 0 0 0 2.47-.28c.55-.19.82-.47.82-.86 0-.36-.28-.65-.84-.84a7.707 7.707 0 0 0-2.46-.3 7.61 7.61 0 0 0-2.44.3c-.56.2-.83.48-.83.84.01.38.28.67.83.86z" style="fill:#3f52fc" transform="translate(-179.53 200.68)"/>
            <path data-name="패스 5264" d="M649.83-114.79a4.712 4.712 0 0 0 1.18-1.58 4.357 4.357 0 0 0 .4-1.84v-.38h-2.94V-120h7.62v1.41h-2.92v.39a4.039 4.039 0 0 0 .38 1.69 4.4 4.4 0 0 0 1.13 1.48 5.044 5.044 0 0 0 1.81 1l-.88 1.39a5.75 5.75 0 0 1-2-1.16 5.663 5.663 0 0 1-1.32-1.79 5.791 5.791 0 0 1-1.36 1.98 5.84 5.84 0 0 1-2.11 1.27l-.89-1.41a5.142 5.142 0 0 0 1.9-1.04zm.71 3.19h1.73v3.02h7.89v1.41h-9.62zm9.27.9h-1.73v-5.17h-2.5v-1.41h2.5v-3.73h1.73z" style="fill:#3f52fc" transform="translate(-179.53 200.68)"/>
            <path data-name="패스 5265" d="M668.68-118.87h-4.61v3.14c1.32-.01 2.42-.05 3.28-.11a19.056 19.056 0 0 0 2.58-.36l.19 1.34a19.08 19.08 0 0 1-2.64.39c-.9.07-2.08.1-3.54.1h-1.59v-5.89h6.33v1.39zm-4.96 5.52h9.23v3.75h-7.5v1.12h7.94v1.41h-9.66v-3.84h7.48v-1.05h-7.5v-1.39zm7.5-7.67h1.73v2.78h1.97v1.42h-1.97v2.86h-1.73z" style="fill:#3f52fc" transform="translate(-179.53 200.68)"/>
            <path data-name="패스 5266" d="M679.43-111.9h12.91v1.42h-5.62v3.59H685v-3.59h-5.56v-1.42zm12.18-6.2h-11.53v-1.41H685v-1.55h1.72v1.55h4.89zm-9.96 1.73a3.657 3.657 0 0 1 1.64-.81 10.625 10.625 0 0 1 2.57-.28 10.148 10.148 0 0 1 2.57.28 3.815 3.815 0 0 1 1.64.81 1.722 1.722 0 0 1 .57 1.3 1.722 1.722 0 0 1-.57 1.3 3.657 3.657 0 0 1-1.64.81 10.147 10.147 0 0 1-2.57.28 10.148 10.148 0 0 1-2.57-.28 3.706 3.706 0 0 1-1.64-.81 1.722 1.722 0 0 1-.57-1.3 1.706 1.706 0 0 1 .57-1.3zm1.97 2.11a6.385 6.385 0 0 0 2.18.28 7.237 7.237 0 0 0 2.27-.27c.51-.18.77-.46.78-.82s-.26-.63-.77-.82a6.921 6.921 0 0 0-2.22-.28 6.608 6.608 0 0 0-2.22.28c-.5.19-.75.46-.75.82s.24.63.73.81z" style="fill:#3f52fc" transform="translate(-179.53 200.68)"/>
            <path data-name="패스 5267" d="M698.39-119.62h1.48l-.81 4.38h-1.98zm3.29 0h1.48l-.81 4.38h-1.98z" style="fill:#3f52fc" transform="translate(-179.53 200.68)"/>
            <path data-name="패스 5268" d="M717.45-113.92h-5.59v1.06h3.98v3.47h-8.03v1.03h8.42v1.33h-10.12v-3.61h8.03v-.91h-8.05v-1.31h4.03v-1.06h-5.55v-1.38h12.88zm-11.25-6.67h9.59v4.41h-9.59zm7.86 3.05v-1.69h-6.16v1.69z" style="fill:#3f52fc" transform="translate(-179.53 200.68)"/>
            <path data-name="패스 5269" d="M731.28-112.95h-5.59v1.36h4.03v4.52h-9.8v-4.52h4.05v-1.36h-5.56v-1.39h12.88v1.39zm-11.72-7.65h10.53v1.39h-1.94v2.42h1.86v1.41h-10.38v-1.41h1.86v-2.42h-1.94v-1.39zm8.47 12.12v-1.77h-6.39v1.77zm-1.63-8.31v-2.42h-3.17v2.42z" style="fill:#3f52fc" transform="translate(-179.53 200.68)"/>
            <path data-name="패스 5270" d="M732.99-118.37a3.431 3.431 0 0 1 1.38-1.26 4.194 4.194 0 0 1 1.93-.46 4.044 4.044 0 0 1 1.93.46 3.549 3.549 0 0 1 1.37 1.26 3.4 3.4 0 0 1 .5 1.81 3.442 3.442 0 0 1-.5 1.83 3.4 3.4 0 0 1-1.37 1.26 4.157 4.157 0 0 1-1.93.45 4.157 4.157 0 0 1-1.93-.45 3.5 3.5 0 0 1-1.38-1.26 3.355 3.355 0 0 1-.5-1.83 3.229 3.229 0 0 1 .5-1.81zm1.46 2.88a1.833 1.833 0 0 0 .75.71 2.276 2.276 0 0 0 1.09.25 2.223 2.223 0 0 0 1.07-.25 1.833 1.833 0 0 0 .75-.71 2.075 2.075 0 0 0 .27-1.07 2 2 0 0 0-.27-1.05 1.833 1.833 0 0 0-.75-.71 2.251 2.251 0 0 0-1.07-.25 2.332 2.332 0 0 0-1.09.25 1.833 1.833 0 0 0-.75.71 2.052 2.052 0 0 0-.27 1.05 2.049 2.049 0 0 0 .27 1.07zm.2 3.65h1.75v3.25h7.98v1.41h-9.73zm9.35 1.03h-1.75v-10.2H744z" style="fill:#3f52fc" transform="translate(-179.53 200.68)"/>
            <path data-name="패스 5271" d="M749.16-114.06a8.2 8.2 0 0 0 1.29-3.84h-3.78v-1.41h5.5a13.843 13.843 0 0 1-.15 2.08h1.65v-3.45h1.66v13.11h-1.66v-4.72h-2.2v-1.42h2.2v-2.09h-1.95a9.576 9.576 0 0 1-1.69 3.3 10.951 10.951 0 0 1-3.1 2.62l-1.02-1.23a9.784 9.784 0 0 0 3.25-2.95zm9.09 7.16h-1.66v-14.12h1.66z" style="fill:#3f52fc" transform="translate(-179.53 200.68)"/>
            <path data-name="패스 5272" d="M761.84-115.21h-1.48l.81-4.38h1.98zm3.3 0h-1.48l.81-4.38h1.98z" style="fill:#3f52fc" transform="translate(-179.53 200.68)"/>
            <path data-name="패스 5273" d="M780.29-113.31h-12.91v-1.31h12.91zm-11.4.85h9.84v3.22h-8.09v.98h8.52v1.2H768.9v-3.31h8.11v-.88h-8.12zm.09-8.25h9.72v3.19h-7.95v.92h8.2v1.19h-9.92v-3.23h7.94v-.86h-7.98v-1.21z" style="fill:#3f52fc" transform="translate(-179.53 200.68)"/>
            <path data-name="패스 5274" d="M785.01-115.63h12.91v1.41h-5.62v1.23h4.05v3.52h-8.03v1.11h8.5v1.34h-10.25v-3.67h8.06v-.98h-8.08v-1.31h4.05v-1.23h-5.58v-1.42zm11.42-.96h-9.75v-4.25h1.7v2.86h8.05z" style="fill:#3f52fc" transform="translate(-179.53 200.68)"/>
            <path data-name="패스 5275" d="M799.33-119.79h6.39v5.17h-4.62v2.97c1.16 0 2.18-.04 3.05-.09a24.4 24.4 0 0 0 2.64-.33l.14 1.42a26.948 26.948 0 0 1-2.95.35c-.98.06-2.14.1-3.47.1h-1.12v-5.83h4.64v-2.36h-4.69v-1.4zm11.35 12.91h-1.73v-7.52h-2.42v-1.42h2.42v-5.2h1.73z" style="fill:#3f52fc" transform="translate(-179.53 200.68)"/>
            <path data-name="패스 5276" d="M825.56-111.74h-5.61v4.83h-1.72v-4.83h-5.55v-1.41h12.88v1.41zm-9.79-4.4a5.091 5.091 0 0 0 1.67-1.22 2.627 2.627 0 0 0 .68-1.49h-4.24v-1.38h10.5v1.38h-4.24a2.574 2.574 0 0 0 .67 1.49 4.955 4.955 0 0 0 1.67 1.22 7.762 7.762 0 0 0 2.42.68l-.62 1.36a8.553 8.553 0 0 1-3.14-1.04 5.241 5.241 0 0 1-2-1.93 5.283 5.283 0 0 1-1.99 1.93 8.512 8.512 0 0 1-3.12 1.04l-.66-1.36a8 8 0 0 0 2.4-.68z" style="fill:#3f52fc" transform="translate(-179.53 200.68)"/>
            <path data-name="패스 5277" d="M831.21-115.02a6.856 6.856 0 0 0 .89 2.05 4.975 4.975 0 0 0 1.52 1.51l-.95 1.33a5 5 0 0 1-1.56-1.48 7.765 7.765 0 0 1-1.01-2.13 8.385 8.385 0 0 1-1.08 2.34 5.41 5.41 0 0 1-1.66 1.61l-1.08-1.3a5.52 5.52 0 0 0 1.66-1.57 6.684 6.684 0 0 0 .98-2.15 9.741 9.741 0 0 0 .33-2.42v-2.53h1.67v2.45a9.214 9.214 0 0 0 .29 2.29zm.9-1.15h2.02v-4.61h1.64v13.19h-1.64v-7.14h-2.02zm4.92-4.85h1.67v14.12h-1.67z" style="fill:#3f52fc" transform="translate(-179.53 200.68)"/>
            <path data-name="패스 5278" d="M853.25-108.62h-12.91v-1.42h2.98v-3.57a3.707 3.707 0 0 1-1.33-1.24 3.025 3.025 0 0 1-.46-1.67 3.065 3.065 0 0 1 .67-1.96 4.378 4.378 0 0 1 1.86-1.31 7.424 7.424 0 0 1 2.7-.46 7.62 7.62 0 0 1 2.71.46 4.448 4.448 0 0 1 1.88 1.31 3.074 3.074 0 0 1 .68 1.96 3.087 3.087 0 0 1-.45 1.64 3.757 3.757 0 0 1-1.3 1.23v3.61h2.97v1.42zm-9.58-6.66a2.731 2.731 0 0 0 1.24.82 5.485 5.485 0 0 0 1.85.29 5.587 5.587 0 0 0 1.86-.29 2.884 2.884 0 0 0 1.26-.82 1.883 1.883 0 0 0 .45-1.25 1.909 1.909 0 0 0-.45-1.26 2.8 2.8 0 0 0-1.26-.82 5.6 5.6 0 0 0-1.86-.28 5.6 5.6 0 0 0-1.86.28 2.678 2.678 0 0 0-1.24.82 1.954 1.954 0 0 0-.44 1.26 1.992 1.992 0 0 0 .45 1.25zm4.84 5.24v-2.95a8.24 8.24 0 0 1-1.75.18 8.878 8.878 0 0 1-1.72-.17v2.94h3.47z" style="fill:#3f52fc" transform="translate(-179.53 200.68)"/>
            <path data-name="패스 5279" d="M855.28-108.33a1.214 1.214 0 0 1-.45-.45 1.184 1.184 0 0 1-.16-.61 1.174 1.174 0 0 1 .16-.6 1.265 1.265 0 0 1 .45-.44 1.184 1.184 0 0 1 .61-.16 1.174 1.174 0 0 1 .6.16 1.237 1.237 0 0 1 .44.44 1.149 1.149 0 0 1 .16.6 1.184 1.184 0 0 1-.16.61 1.266 1.266 0 0 1-.44.45 1.124 1.124 0 0 1-.6.16 1.184 1.184 0 0 1-.61-.16z" style="fill:#3f52fc" transform="translate(-179.53 200.68)"/>
        </g>
        <g data-name="그룹 3870">
            <path data-name="패스 5280" d="M330.12-100.71h-52.9a7.793 7.793 0 0 1-7.79-7.79v-11.19a7.793 7.793 0 0 1 7.79-7.79h52.9a7.793 7.793 0 0 1 7.79 7.79v11.19a7.793 7.793 0 0 1-7.79 7.79z" style="fill:#3f52fc" transform="translate(-179.53 200.68)"/>
        </g>
        <g data-name="그룹 3871">
            <path data-name="패스 5281" d="M862.78-100.21H277.22a8.3 8.3 0 0 1-8.29-8.29v-11.19a8.3 8.3 0 0 1 8.29-8.29h585.57a8.3 8.3 0 0 1 8.29 8.29v11.19a8.3 8.3 0 0 1-8.3 8.29zm-585.56-26.78a7.3 7.3 0 0 0-7.29 7.29v11.19a7.3 7.3 0 0 0 7.29 7.29h585.57a7.3 7.3 0 0 0 7.29-7.29v-11.19a7.3 7.3 0 0 0-7.29-7.29z" style="fill:#3f52fc" transform="translate(-179.53 200.68)"/>
        </g>
        <g data-name="그룹 3872">
            <path data-name="패스 5282" d="M291.06-118.37a3.431 3.431 0 0 1 1.38-1.26 4.164 4.164 0 0 1 1.93-.46 4.017 4.017 0 0 1 1.93.46 3.474 3.474 0 0 1 1.37 1.26 3.4 3.4 0 0 1 .5 1.81 3.443 3.443 0 0 1-.5 1.83 3.4 3.4 0 0 1-1.37 1.26 4.157 4.157 0 0 1-1.93.45 4.128 4.128 0 0 1-1.93-.45 3.5 3.5 0 0 1-1.38-1.26 3.355 3.355 0 0 1-.5-1.83 3.311 3.311 0 0 1 .5-1.81zm1.47 2.88a1.833 1.833 0 0 0 .75.71 2.276 2.276 0 0 0 1.09.25 2.223 2.223 0 0 0 1.07-.25 1.833 1.833 0 0 0 .75-.71 2.075 2.075 0 0 0 .27-1.07 2 2 0 0 0-.27-1.05 1.833 1.833 0 0 0-.75-.71 2.251 2.251 0 0 0-1.07-.25 2.332 2.332 0 0 0-1.09.25 1.833 1.833 0 0 0-.75.71 2.052 2.052 0 0 0-.27 1.05 2.049 2.049 0 0 0 .27 1.07zm.2 3.65h1.75v3.25h7.98v1.41h-9.73zm9.34 1.03h-1.75v-10.2h1.75z" style="fill:#fff" transform="translate(-179.53 200.68)"/>
            <path data-name="패스 5283" d="M307.23-114.06a8.2 8.2 0 0 0 1.29-3.84h-3.78v-1.41h5.5a13.847 13.847 0 0 1-.15 2.08h1.65v-3.45h1.66v13.11h-1.66v-4.72h-2.2v-1.42h2.2v-2.09h-1.95a9.577 9.577 0 0 1-1.69 3.3 10.95 10.95 0 0 1-3.1 2.62l-1.02-1.23a9.593 9.593 0 0 0 3.25-2.95zm9.09 7.16h-1.66v-14.12h1.66z" style="fill:#fff" transform="translate(-179.53 200.68)"/>
        </g>
    </g>
</svg>
