<svg xmlns="http://www.w3.org/2000/svg" width="280.69" height="101.11" viewBox="0 0 280.69 101.11">
    <g data-name="그룹 3949">
        <path data-name="패스 5232" d="M608.5 105.29H344.39a7.793 7.793 0 0 1-7.79-7.79V63.4a7.793 7.793 0 0 1 7.79-7.79H608.5a7.793 7.793 0 0 1 7.79 7.79v34.1a7.793 7.793 0 0 1-7.79 7.79z" style="fill:#fff" transform="translate(-336.1 -4.68)"/>
        <path data-name="패스 5233" d="M608.5 105.79H344.39a8.3 8.3 0 0 1-8.29-8.29V63.4a8.3 8.3 0 0 1 8.29-8.29H608.5a8.3 8.3 0 0 1 8.29 8.29v34.1a8.3 8.3 0 0 1-8.29 8.29zM344.39 56.1a7.3 7.3 0 0 0-7.29 7.29v34.1a7.3 7.3 0 0 0 7.29 7.29H608.5a7.3 7.3 0 0 0 7.29-7.29V63.4a7.3 7.3 0 0 0-7.29-7.29H344.39z" style="fill:#3f52fc" transform="translate(-336.1 -4.68)"/>
    </g>
    <g data-name="그룹 3950">
        <path data-name="패스 5234" d="M494.85 64.07h-37.12a7.793 7.793 0 0 1-7.79-7.79v-1.35a7.793 7.793 0 0 1 7.79-7.79h37.12a7.793 7.793 0 0 1 7.79 7.79v1.35a7.78 7.78 0 0 1-7.79 7.79z" style="fill:#3f52fc" transform="translate(-336.1 -4.68)"/>
    </g>
    <g data-name="그룹 3951">
        <path data-name="패스 5235" d="M392.28 71.03c0 .67-.02 1.27-.05 1.79a13.367 13.367 0 0 1-.25 1.77h1.55v.76h-4.3v4.52h-.93v-4.52h-4.27v-.76h7.01a12.138 12.138 0 0 0 .26-1.78c.03-.52.05-1.12.05-1.78v-.15h-6.13v-.76h7.04v.91z" style="fill:#3f52fc" transform="translate(-336.1 -4.68)"/>
        <path data-name="패스 5236" d="M394.8 70.66h3.98v6.4h-3.98zm3.12 5.66V71.4h-2.25v4.92zm5.42 3.53h-.89v-5.52H401v4.99h-.88v-9.67h.88v3.91h1.45v-4.14h.89v10.43z" style="fill:#3f52fc" transform="translate(-336.1 -4.68)"/>
        <path data-name="패스 5237" d="M408.67 74.3a5.62 5.62 0 0 0 .98 1.53 4.334 4.334 0 0 0 1.37 1.04l-.53.73a4.763 4.763 0 0 1-1.58-1.29 5.946 5.946 0 0 1-1.05-1.93 7.151 7.151 0 0 1-.65 1.44 5.972 5.972 0 0 1-.93 1.21 4.561 4.561 0 0 1-1.1.82l-.56-.73a4.519 4.519 0 0 0 1.39-1.09 6 6 0 0 0 1.03-1.63 4.429 4.429 0 0 0 .39-1.77v-1.36H405v-.76h5.67v.76h-2.34v1.36a3.873 3.873 0 0 0 .34 1.67zm3.26-4.86h.91v4.22h1.75v.79h-1.75v5.41h-.91z" style="fill:#3f52fc" transform="translate(-336.1 -4.68)"/>
        <path data-name="패스 5238" d="M415.56 72.02a2.954 2.954 0 0 1 .78-1.26 1.753 1.753 0 0 1 1.18-.45 1.709 1.709 0 0 1 1.11.39 2.763 2.763 0 0 1 .78 1.11 5.213 5.213 0 0 1 .35 1.69h1.35v-3.84h.88v9.67h-.88v-5.06h-1.34a5.619 5.619 0 0 1-.33 1.75 2.664 2.664 0 0 1-.78 1.15 1.736 1.736 0 0 1-1.13.4 1.763 1.763 0 0 1-1.18-.44 2.774 2.774 0 0 1-.78-1.26 6.121 6.121 0 0 1-.28-1.92 6.247 6.247 0 0 1 .27-1.93zm.75 3.38a2.277 2.277 0 0 0 .48.96.972.972 0 0 0 1.46 0 2.233 2.233 0 0 0 .48-.95 5.577 5.577 0 0 0 .17-1.44 5.848 5.848 0 0 0-.17-1.48 2.261 2.261 0 0 0-.48-.97.957.957 0 0 0-.74-.34.923.923 0 0 0-.73.34 2.333 2.333 0 0 0-.48.96 5.347 5.347 0 0 0-.16 1.46 6.229 6.229 0 0 0 .17 1.46zm7.77 4.45h-.89V69.44h.89z" style="fill:#3f52fc" transform="translate(-336.1 -4.68)"/>
        <path data-name="패스 5239" d="M428.09 74.58a6.513 6.513 0 0 0 1.02-3.04h-3.13v-.76h4.04a8.042 8.042 0 0 1-.52 2.94h1.87v-4h.88v9.61h-.88v-4.86h-2.21a7.886 7.886 0 0 1-3.09 3.14l-.54-.67a7.527 7.527 0 0 0 2.56-2.36zm6.35 5.27h-.88V69.44h.88z" style="fill:#3f52fc" transform="translate(-336.1 -4.68)"/>
        <path data-name="패스 5240" d="M448.4 74.59h-4.3v1.03h3.08v2.33H441V79h6.5v.73h-7.42v-2.47h6.2v-.93h-6.22v-.71h3.13v-1.03h-4.28v-.75h9.49zm-8.26-4.8h7.03v3.18h-7.03zm6.12 2.44v-1.7h-5.2v1.7z" style="fill:#3f52fc" transform="translate(-336.1 -4.68)"/>
        <path data-name="패스 5241" d="M458.77 75.24h-4.3v1.23h3.14v3.25h-7.17v-3.25h3.13v-1.23h-4.29v-.76h9.49zm-8.6-5.46h7.7v.76h-1.61v2.19h1.57v.76h-7.63v-.76h1.57v-2.19h-1.61v-.76zm6.54 9.18v-1.77h-5.36v1.77zm-1.36-6.23v-2.19h-2.66v2.19z" style="fill:#3f52fc" transform="translate(-336.1 -4.68)"/>
        <path data-name="패스 5242" d="M459.65 73.95h9.49v.75h-9.49zm6.73-4.12a2.855 2.855 0 0 1 1.26.61 1.285 1.285 0 0 1 .44.98 1.342 1.342 0 0 1-.44 1 2.757 2.757 0 0 1-1.26.62 8.119 8.119 0 0 1-1.98.21 8.672 8.672 0 0 1-1.99-.21 2.662 2.662 0 0 1-1.26-.62 1.342 1.342 0 0 1-.44-1 1.3 1.3 0 0 1 .44-.98 2.843 2.843 0 0 1 1.27-.61 8.263 8.263 0 0 1 1.99-.21 8.09 8.09 0 0 1 1.97.21zm-5.58 5.77h7.12v2.33h-6.19v1.08h6.5v.73h-7.42v-2.48h6.2v-.96h-6.22v-.7zm1.58-3.35a5.433 5.433 0 0 0 2.02.29 5.649 5.649 0 0 0 2.02-.29c.48-.19.72-.47.72-.83a.728.728 0 0 0-.33-.59 2.357 2.357 0 0 0-.94-.38 6.976 6.976 0 0 0-1.47-.13 7.077 7.077 0 0 0-1.48.13 2.513 2.513 0 0 0-.94.38.7.7 0 0 0-.32.59c0 .36.24.63.72.83z" style="fill:#3f52fc" transform="translate(-336.1 -4.68)"/>
        <path data-name="패스 5243" d="M475.33 74.17a5.443 5.443 0 0 0 1.48-1.42 3.717 3.717 0 0 0 .66-1.73h-3.75v-.77h4.76a5.143 5.143 0 0 1-.6 2.43 5.779 5.779 0 0 1-1.7 1.94 8.756 8.756 0 0 1-2.59 1.31l-.4-.74a8.316 8.316 0 0 0 2.14-1.02zm-.29 2.19h.94v2.5h5.96v.77h-6.9zm6.63.79h-.93v-3.71h-2.31v-.77h2.31v-3.21h.93z" style="fill:#3f52fc" transform="translate(-336.1 -4.68)"/>
        <path data-name="패스 5244" d="M484.83 76.41c.63-.01 1.21-.04 1.76-.08a13.025 13.025 0 0 0 1.69-.25l.13.8a14.324 14.324 0 0 1-1.85.28c-.59.05-1.25.07-1.98.08h-.66V70.6h.91zm2.01-3.46h2.38v-3.26h.88v9.63h-.88v-5.61h-2.38zm4.6-3.51h.88v10.42h-.88z" style="fill:#3f52fc" transform="translate(-336.1 -4.68)"/>
        <path data-name="패스 5245" d="M493.78 75.38h9.49v.76h-4.31v3.71h-.9v-3.71h-4.28zm5.78-3.19a4.27 4.27 0 0 0 1.37 1.02 6.168 6.168 0 0 0 1.77.55l-.34.73a6.763 6.763 0 0 1-1.59-.47 5.926 5.926 0 0 1-1.36-.82 3.312 3.312 0 0 1-.9-1.1 3.312 3.312 0 0 1-.9 1.1 5.529 5.529 0 0 1-1.35.82 6.749 6.749 0 0 1-1.57.47l-.36-.73a5.811 5.811 0 0 0 1.76-.55 4.421 4.421 0 0 0 1.37-1.02 1.924 1.924 0 0 0 .53-1.27v-.07h-3.34v-.75h7.7v.75h-3.33v.07a2.066 2.066 0 0 0 .54 1.27z" style="fill:#3f52fc" transform="translate(-336.1 -4.68)"/>
        <path data-name="패스 5246" d="M504.14 74.76h9.54v.75h-9.54v-.75zm1.24 1.81h.91v2.26h6.34v.76h-7.25zm7.19-3.23h-7.14v-3.52h.91v2.78h6.22v.74z" style="fill:#3f52fc" transform="translate(-336.1 -4.68)"/>
        <path data-name="패스 5247" d="M518.02 70.34h4.64v.77h-3.73v3.25h.25c1 0 1.83-.02 2.48-.07a16.319 16.319 0 0 0 1.95-.27l.12.76a17.257 17.257 0 0 1-2.13.28c-.71.05-1.63.07-2.77.07h-.81zm1.14 5.88h.9v2.64h6.09v.77h-7v-3.41zm6.51-3.68h1.58v.77h-1.58v3.67h-.91v-7.55h.91z" style="fill:#3f52fc" transform="translate(-336.1 -4.68)"/>
        <path data-name="패스 5248" d="M530.45 74.58a6.639 6.639 0 0 0 1.03-3.04h-3.12v-.76h4.03a8.985 8.985 0 0 1-.14 1.57h1.58v-2.62h.88v9.61h-.88v-3.61h-1.93v-.76h1.93V73.1h-1.76a7.329 7.329 0 0 1-1.28 2.5 8.528 8.528 0 0 1-2.33 2l-.56-.67a7.555 7.555 0 0 0 2.55-2.35zm6.37 5.27h-.88V69.44h.88z" style="fill:#3f52fc" transform="translate(-336.1 -4.68)"/>
        <path data-name="패스 5249" d="M538.87 71.1a2.364 2.364 0 0 1 .97-.85 3.207 3.207 0 0 1 1.41-.3 3.1 3.1 0 0 1 1.41.3 2.269 2.269 0 0 1 1.32 2.1 2.273 2.273 0 0 1-.35 1.24 2.364 2.364 0 0 1-.97.85 3.463 3.463 0 0 1-2.82 0 2.238 2.238 0 0 1-.97-.85 2.3 2.3 0 0 1-.35-1.24 2.18 2.18 0 0 1 .35-1.25zm.78 2.08a1.592 1.592 0 0 0 .65.58 2.076 2.076 0 0 0 .95.21 2.033 2.033 0 0 0 .94-.21 1.658 1.658 0 0 0 .65-.58 1.517 1.517 0 0 0 .23-.84 1.605 1.605 0 0 0-.23-.84 1.448 1.448 0 0 0-.65-.57 2.2 2.2 0 0 0-.94-.21 2.076 2.076 0 0 0-.95.21 1.643 1.643 0 0 0-.65.57 1.5 1.5 0 0 0-.23.84 1.472 1.472 0 0 0 .23.84zm.47 2.37h.91v1.27h4.92v-1.27h.91v4.16h-6.75v-4.16zm5.84 3.41v-1.41h-4.92v1.41zm.91-3.93h-.91v-5.59h.91z" style="fill:#3f52fc" transform="translate(-336.1 -4.68)"/>
        <path data-name="패스 5250" d="M549.32 70.47h.9v5.91c.86-.01 1.7-.05 2.51-.13a21.744 21.744 0 0 0 2.47-.38l.13.79a25.112 25.112 0 0 1-2.59.4q-1.26.12-2.58.12h-.84v-6.71zm7.91 9.38h-.91V69.44h.91z" style="fill:#3f52fc" transform="translate(-336.1 -4.68)"/>
        <path data-name="패스 5251" d="M559.47 70.46h4.86v.76h-3.95v5.27c.98 0 1.84-.03 2.56-.09a21.97 21.97 0 0 0 2.21-.29l.12.8a20.372 20.372 0 0 1-2.27.28c-.74.05-1.64.07-2.71.07h-.82v-6.8zm7.61 3.1h1.75v.77h-1.75v5.54h-.91V69.44h.91z" style="fill:#3f52fc" transform="translate(-336.1 -4.68)"/>
        <path data-name="패스 5252" d="M390.43 89.59h-4.3v1.03h3.08v2.33h-6.19V94h6.5v.73h-7.42v-2.47h6.2v-.93h-6.22v-.71h3.13v-1.03h-4.28v-.75h9.49v.75zm-8.27-4.8h7.03v3.18h-7.03zm6.12 2.44v-1.7h-5.2v1.7z" style="fill:#3f52fc" transform="translate(-336.1 -4.68)"/>
        <path data-name="패스 5253" d="M400.8 90.24h-4.3v1.23h3.14v3.25h-7.17v-3.25h3.13v-1.23h-4.29v-.76h9.49zm-8.6-5.46h7.7v.76h-1.61v2.19h1.57v.76h-7.63v-.76h1.57v-2.19h-1.61v-.76zm6.53 9.18v-1.77h-5.36v1.77zm-1.35-6.23v-2.19h-2.66v2.19z" style="fill:#3f52fc" transform="translate(-336.1 -4.68)"/>
        <path data-name="패스 5254" d="M401.68 88.95h9.49v.75h-9.49zm6.72-4.12a2.855 2.855 0 0 1 1.26.61 1.285 1.285 0 0 1 .44.98 1.342 1.342 0 0 1-.44 1 2.757 2.757 0 0 1-1.26.62 8.119 8.119 0 0 1-1.98.21 8.672 8.672 0 0 1-1.99-.21 2.662 2.662 0 0 1-1.26-.62 1.342 1.342 0 0 1-.44-1 1.3 1.3 0 0 1 .44-.98 2.843 2.843 0 0 1 1.27-.61 8.263 8.263 0 0 1 1.99-.21 8.09 8.09 0 0 1 1.97.21zm-5.58 5.77h7.12v2.33h-6.19v1.08h6.5v.73h-7.42v-2.48h6.2v-.96h-6.22v-.7zm1.58-3.35a5.433 5.433 0 0 0 2.02.29 5.649 5.649 0 0 0 2.02-.29c.48-.19.72-.47.72-.83a.728.728 0 0 0-.33-.59 2.357 2.357 0 0 0-.94-.38 6.976 6.976 0 0 0-1.47-.13 7.077 7.077 0 0 0-1.48.13 2.513 2.513 0 0 0-.94.38.7.7 0 0 0-.32.59c.01.36.24.63.72.83z" style="fill:#3f52fc" transform="translate(-336.1 -4.68)"/>
        <path data-name="패스 5255" d="M416.47 89.21a3.846 3.846 0 0 0 .94-1.2 3.225 3.225 0 0 0 .34-1.42v-.54h-2.36v-.76H421v.76h-2.33v.54a2.759 2.759 0 0 0 .33 1.3 3.6 3.6 0 0 0 .91 1.12 4.242 4.242 0 0 0 1.33.75l-.48.74a4.328 4.328 0 0 1-2.53-2.38 4.325 4.325 0 0 1-1.03 1.59 4.575 4.575 0 0 1-1.62 1.03l-.47-.74a4.218 4.218 0 0 0 1.36-.79zm.53 2.19h.93v2.46h6.06v.77H417zm6.7.69h-.93v-4h-2.14v-.76h2.14v-2.88h.93z" style="fill:#3f52fc" transform="translate(-336.1 -4.68)"/>
        <path data-name="패스 5256" d="M430.54 85.8h-3.73v2.74h.38c.93 0 1.72-.03 2.37-.08a14.539 14.539 0 0 0 1.95-.28l.12.74a15.253 15.253 0 0 1-1.98.29c-.65.05-1.48.08-2.45.08h-1.28v-4.24h4.63v.75zm-3.61 4.41h6.64v2.57h-5.72v1.18h6.11v.75h-7.01v-2.66h5.71v-1.09h-5.73v-.75zm5.73-5.77h.91v2.21h1.57v.76h-1.57v2.29h-.91z" style="fill:#3f52fc" transform="translate(-336.1 -4.68)"/>
        <path data-name="패스 5257" d="M438.81 91.19h9.54v.76H444v2.93h-.9v-2.93h-4.29zm8.94-4.8h-8.45v-.76h3.8v-1.25h.9v1.25h3.75v.76zm-7.19 1.4a2.576 2.576 0 0 1 1.17-.59 8.427 8.427 0 0 1 3.65 0 2.576 2.576 0 0 1 1.17.59 1.279 1.279 0 0 1 .41.95 1.252 1.252 0 0 1-.41.93 2.576 2.576 0 0 1-1.17.59 7.4 7.4 0 0 1-1.82.21 6.978 6.978 0 0 1-1.83-.21 2.678 2.678 0 0 1-1.17-.59 1.242 1.242 0 0 1-.4-.93 1.27 1.27 0 0 1 .4-.95zm.83 1.49a2.073 2.073 0 0 0 .83.35 6.156 6.156 0 0 0 1.31.12 4.974 4.974 0 0 0 1.83-.27q.66-.27.66-.75c0-.33-.22-.58-.65-.76a4.983 4.983 0 0 0-1.8-.28 4.8 4.8 0 0 0-1.81.28c-.43.18-.64.44-.64.76a.634.634 0 0 0 .27.55z" style="fill:#3f52fc" transform="translate(-336.1 -4.68)"/>
        <path data-name="패스 5258" d="M453.14 85.41h.87l-.64 3.19h-1.14zm2.23-.01h.87l-.64 3.19h-1.14z" style="fill:#3f52fc" transform="translate(-336.1 -4.68)"/>
        <path data-name="패스 5259" d="M466.96 89.59h-4.3v1.03h3.08v2.33h-6.19V94h6.5v.73h-7.42v-2.47h6.2v-.93h-6.22v-.71h3.13v-1.03h-4.28v-.75h9.49v.75zm-8.26-4.8h7.03v3.18h-7.03zm6.12 2.44v-1.7h-5.2v1.7z" style="fill:#3f52fc" transform="translate(-336.1 -4.68)"/>
        <path data-name="패스 5260" d="M477.33 90.24h-4.3v1.23h3.14v3.25H469v-3.25h3.13v-1.23h-4.29v-.76h9.49zm-8.6-5.46h7.7v.76h-1.61v2.19h1.57v.76h-7.63v-.76h1.57v-2.19h-1.61v-.76zm6.54 9.18v-1.77h-5.36v1.77zm-1.36-6.23v-2.19h-2.66v2.19z" style="fill:#3f52fc" transform="translate(-336.1 -4.68)"/>
        <path data-name="패스 5261" d="M478.81 86.41a2.459 2.459 0 0 1 .98-.91 2.952 2.952 0 0 1 1.4-.33 2.884 2.884 0 0 1 1.39.33 2.527 2.527 0 0 1 .98.91 2.519 2.519 0 0 1-.98 3.56 2.94 2.94 0 0 1-1.39.33 2.98 2.98 0 0 1-1.4-.33 2.432 2.432 0 0 1-1.33-2.24 2.552 2.552 0 0 1 .35-1.32zm.78 2.23a1.578 1.578 0 0 0 .66.62 2.067 2.067 0 0 0 .94.22 1.935 1.935 0 0 0 .93-.22 1.674 1.674 0 0 0 .9-1.53 1.682 1.682 0 0 0-.24-.9 1.714 1.714 0 0 0-.66-.62 2.055 2.055 0 0 0-1.87-.01 1.714 1.714 0 0 0-.66.62 1.614 1.614 0 0 0-.23.9 1.748 1.748 0 0 0 .23.92zm.5 2.65h.91v2.57h6.14v.77h-7.05v-3.34zm6.72.78h-.91v-7.62h.91z" style="fill:#3f52fc" transform="translate(-336.1 -4.68)"/>
        <path data-name="패스 5262" d="M491.13 89.58a6.639 6.639 0 0 0 1.03-3.04h-3.12v-.76h4.03a8.985 8.985 0 0 1-.14 1.57h1.58v-2.62h.88v9.61h-.88v-3.61h-1.93v-.76h1.93V88.1h-1.76a7.33 7.33 0 0 1-1.28 2.5 8.528 8.528 0 0 1-2.33 2l-.56-.67a7.554 7.554 0 0 0 2.55-2.35zm6.37 5.27h-.88V84.44h.88z" style="fill:#3f52fc" transform="translate(-336.1 -4.68)"/>
        <path data-name="패스 5263" d="M500.2 88.63h-.87l.64-3.19h1.14zm2.22-.01h-.87l.64-3.19h1.14z" style="fill:#3f52fc" transform="translate(-336.1 -4.68)"/>
        <path data-name="패스 5264" d="M513.75 90h-9.54v-.73h9.54zm-8.39.84h7.2v2.21h-6.26v1h6.6v.67h-7.52v-2.3h6.27v-.89h-6.28v-.69zm.06-6.09h7.1v2.16h-6.15v.91h6.34v.67h-7.25v-2.21h6.14v-.86h-6.18v-.67z" style="fill:#3f52fc" transform="translate(-336.1 -4.68)"/>
        <path data-name="패스 5265" d="M517.6 88.62h9.54v.75h-4.35v1.11h3.12v2.38h-6.16V94h6.54v.74h-7.46V92.2H525v-1h-6.21v-.71h3.11v-1.11h-4.3zm8.41-.91h-7.11v-3.09h.9v2.33h6.21v.76z" style="fill:#3f52fc" transform="translate(-336.1 -4.68)"/>
        <path data-name="패스 5266" d="M528.34 85.41h4.69v3.64h-3.74v2.53c.97 0 1.81-.02 2.5-.07a20.157 20.157 0 0 0 2.12-.27l.07.77a21.287 21.287 0 0 1-2.2.27c-.72.05-1.59.08-2.6.08h-.8v-4.08h3.76v-2.12h-3.8v-.75zm8.27 9.47h-.91v-5.66h-2.03v-.77h2.03v-4.01h.91z" style="fill:#3f52fc" transform="translate(-336.1 -4.68)"/>
        <path data-name="패스 5267" d="M538.35 90.38h9.49v.76h-4.31v3.71h-.9v-3.71h-4.28v-.76zm5.79-3.19a4.27 4.27 0 0 0 1.37 1.02 6.167 6.167 0 0 0 1.77.55l-.34.73a6.763 6.763 0 0 1-1.59-.47 5.925 5.925 0 0 1-1.36-.82 3.313 3.313 0 0 1-.9-1.1 3.312 3.312 0 0 1-.9 1.1 5.531 5.531 0 0 1-1.35.82 6.749 6.749 0 0 1-1.57.47l-.36-.73a5.811 5.811 0 0 0 1.76-.55 4.421 4.421 0 0 0 1.37-1.02 1.924 1.924 0 0 0 .53-1.27v-.07h-3.34v-.75h7.7v.75h-3.33v.07a2.01 2.01 0 0 0 .54 1.27z" style="fill:#3f52fc" transform="translate(-336.1 -4.68)"/>
        <path data-name="패스 5268" d="M552.08 89.07a5.356 5.356 0 0 0 .76 1.51 3.864 3.864 0 0 0 1.17 1.08l-.53.71a4.126 4.126 0 0 1-1.27-1.23 6.32 6.32 0 0 1-.82-1.76 6.459 6.459 0 0 1-.86 1.9 4.279 4.279 0 0 1-1.34 1.31l-.59-.69a4.075 4.075 0 0 0 1.23-1.12 5.493 5.493 0 0 0 .81-1.58 5.646 5.646 0 0 0 .28-1.77v-2.02h.89v1.98a5.678 5.678 0 0 0 .27 1.68zm.78-.89h1.77v-3.52h.87v9.67h-.87v-5.37h-1.77zm3.9-3.74h.89v10.42h-.89z" style="fill:#3f52fc" transform="translate(-336.1 -4.68)"/>
        <path data-name="패스 5269" d="M568.63 93.52h-9.54v-.77h2.37v-2.81a2.759 2.759 0 0 1-1.05-.91 2.194 2.194 0 0 1-.38-1.25 2.154 2.154 0 0 1 .49-1.4 3.07 3.07 0 0 1 1.35-.94 5.877 5.877 0 0 1 3.94 0 3.152 3.152 0 0 1 1.35.94 2.191 2.191 0 0 1 .49 1.4 2.167 2.167 0 0 1-.36 1.23 2.724 2.724 0 0 1-1.02.9v2.84h2.37v.77zm-7.34-4.73a2.525 2.525 0 0 0 1.03.69 4.2 4.2 0 0 0 1.51.24 4.471 4.471 0 0 0 1.51-.24 2.321 2.321 0 0 0 1.04-.69 1.536 1.536 0 0 0 .38-1.02 1.446 1.446 0 0 0-.38-1.01 2.516 2.516 0 0 0-1.04-.68 4.169 4.169 0 0 0-1.51-.23 4.4 4.4 0 0 0-1.51.23 2.273 2.273 0 0 0-1.03.68 1.572 1.572 0 0 0-.37 1.01 1.527 1.527 0 0 0 .37 1.02zm4.05 3.96v-2.48a5.931 5.931 0 0 1-1.5.18 5.716 5.716 0 0 1-1.48-.18v2.47h2.98z" style="fill:#3f52fc" transform="translate(-336.1 -4.68)"/>
        <path data-name="패스 5270" d="M570.19 93.87a.753.753 0 0 1-.28-.28.721.721 0 0 1-.1-.38.687.687 0 0 1 .1-.37.832.832 0 0 1 .28-.28.721.721 0 0 1 .38-.1.686.686 0 0 1 .37.1.9.9 0 0 1 .28.27.686.686 0 0 1 .1.37.732.732 0 0 1-.22.54.719.719 0 0 1-.53.23.621.621 0 0 1-.38-.1z" style="fill:#3f52fc" transform="translate(-336.1 -4.68)"/>
    </g>
    <g data-name="그룹 3952">
        <path data-name="패스 5271" d="M466.84 51.94a2.7 2.7 0 0 1 1.03-.95 3.262 3.262 0 0 1 2.9 0 2.641 2.641 0 0 1 1.03 3.68 2.626 2.626 0 0 1-1.03.95 3.262 3.262 0 0 1-2.9 0 2.617 2.617 0 0 1-1.03-3.68zm1.1 2.16a1.3 1.3 0 0 0 .56.53 1.8 1.8 0 0 0 .82.19 1.631 1.631 0 0 0 .8-.19 1.364 1.364 0 0 0 .56-.53 1.614 1.614 0 0 0 .21-.8 1.481 1.481 0 0 0-.21-.79 1.386 1.386 0 0 0-.57-.53 1.78 1.78 0 0 0-.8-.19 1.67 1.67 0 0 0-.81.19 1.455 1.455 0 0 0-.57.53 1.475 1.475 0 0 0-.2.79 1.586 1.586 0 0 0 .21.8zm.15 2.74h1.31v2.44h5.99v1.05h-7.3zm7.01.77h-1.31v-7.65h1.31z" style="fill:#fff" transform="translate(-336.1 -4.68)"/>
        <path data-name="패스 5272" d="M476.64 55.77h9.66v1.08h-4.21v3.69h-1.29v-3.69h-4.16zm5.99-3.64a3.843 3.843 0 0 0 1.33 1.08 5.634 5.634 0 0 0 1.95.59l-.52 1.05a6.409 6.409 0 0 1-2.37-.82 4.14 4.14 0 0 1-1.55-1.53 4.371 4.371 0 0 1-1.55 1.53 6.2 6.2 0 0 1-2.35.82l-.52-1.05a5.578 5.578 0 0 0 1.94-.59 3.8 3.8 0 0 0 1.32-1.08 2.164 2.164 0 0 0 .47-1.3v-.54h1.37v.54a2.2 2.2 0 0 0 .48 1.3z" style="fill:#fff" transform="translate(-336.1 -4.68)"/>
    </g>
    <g data-name="그룹 3953">
        <path data-name="패스 5273" d="M599.45 15.7H352.9a3.5 3.5 0 0 1-3.5-3.5 3.5 3.5 0 0 1 3.5-3.5h246.55a3.5 3.5 0 0 1 3.5 3.5 3.5 3.5 0 0 1-3.5 3.5z" style="fill:#fff" transform="translate(-336.1 -4.68)"/>
    </g>
    <g data-name="그룹 3954">
        <path data-name="패스 5274" d="M477.26 15.7H352.9a3.5 3.5 0 0 1-3.5-3.5 3.5 3.5 0 0 1 3.5-3.5h124.37a3.5 3.5 0 0 1 3.5 3.5 3.512 3.512 0 0 1-3.51 3.5z" style="fill:#3f52fc" transform="translate(-336.1 -4.68)"/>
    </g>
    <g data-name="그룹 3957">
        <g data-name="그룹 3955" transform="translate(-336.1 -4.68)">
            <circle data-name="타원 143" cx="7" cy="7" r="7" transform="translate(344.83 5.18)" style="fill:#3f52fc"/>
            <path data-name="패스 5275" d="M351.83 19.68a7.5 7.5 0 1 1 7.5-7.5 7.5 7.5 0 0 1-7.5 7.5zm0-14a6.5 6.5 0 1 0 6.5 6.5 6.513 6.513 0 0 0-6.5-6.5z" style="fill:#3f52fc"/>
        </g>
        <g data-name="그룹 3956">
            <path data-name="패스 5276" d="M352.6 15.86h-.87V9.83h-.04l-1.68 1.12v-.87l1.72-1.15h.87z" style="fill:#fff" transform="translate(-336.1 -4.68)"/>
        </g>
    </g>
    <g data-name="그룹 3958">
        <path data-name="패스 5277" d="M345.09 25.88c0 .7-.02 1.3-.05 1.81a14.983 14.983 0 0 1-.23 1.76h1.46v1.05h-4.21v4.38h-1.31V30.5h-4.14v-1.05h6.87a14.142 14.142 0 0 0 .25-1.75c.04-.53.06-1.1.06-1.72h-6.04v-1.05h7.34v.95z" style="fill:#3f52fc" transform="translate(-336.1 -4.68)"/>
        <path data-name="패스 5278" d="M347.32 25.43h4.16v6.71h-4.16zm2.94 5.69v-4.65h-1.72v4.65zm5.87 3.76h-1.25v-5.43h-1.12v4.91h-1.23v-9.89h1.23v3.9h1.12v-4.09h1.25z" style="fill:#3f52fc" transform="translate(-336.1 -4.68)"/>
        <path data-name="패스 5279" d="M367.02 30.2h-4.2v.89a4.8 4.8 0 0 1 2.23.58 1.494 1.494 0 0 1 .8 1.3 1.391 1.391 0 0 1-.44 1.03 2.918 2.918 0 0 1-1.27.65 7.51 7.51 0 0 1-1.96.22 7.619 7.619 0 0 1-1.98-.22 2.815 2.815 0 0 1-1.27-.65 1.407 1.407 0 0 1-.44-1.03 1.474 1.474 0 0 1 .8-1.3 4.979 4.979 0 0 1 2.25-.58v-.89h-4.17v-1.05h9.66v1.05zm-7.5-2.92a3.819 3.819 0 0 0 1.19-.66 1.6 1.6 0 0 0 .56-.83h-3.02v-1.04h7.91v1.04h-3.05a1.617 1.617 0 0 0 .55.83 3.766 3.766 0 0 0 1.2.66 6.548 6.548 0 0 0 1.71.35l-.46 1.03a6.714 6.714 0 0 1-2.46-.69 3.383 3.383 0 0 1-1.46-1.35 3.354 3.354 0 0 1-1.45 1.35 6.717 6.717 0 0 1-2.45.69l-.45-1.03a6.488 6.488 0 0 0 1.68-.35zm.89 6.36a4.9 4.9 0 0 0 1.73.23 5.4 5.4 0 0 0 1.78-.23c.41-.15.62-.38.62-.67s-.21-.52-.62-.67a5.278 5.278 0 0 0-1.75-.23 5.371 5.371 0 0 0-1.77.23c-.41.15-.6.38-.6.67s.21.51.61.67z" style="fill:#3f52fc" transform="translate(-336.1 -4.68)"/>
    </g>
    <g data-name="그룹 3959">
        <path data-name="패스 5280" d="M466.84 26.28a2.7 2.7 0 0 1 1.03-.95 3.262 3.262 0 0 1 2.9 0 2.641 2.641 0 0 1 1.03 3.68 2.626 2.626 0 0 1-1.03.95 3.262 3.262 0 0 1-2.9 0 2.575 2.575 0 0 1-1.41-2.32 2.508 2.508 0 0 1 .38-1.36zm1.1 2.16a1.3 1.3 0 0 0 .56.53 1.8 1.8 0 0 0 .82.19 1.631 1.631 0 0 0 .8-.19 1.365 1.365 0 0 0 .56-.53 1.614 1.614 0 0 0 .21-.8 1.481 1.481 0 0 0-.21-.79 1.386 1.386 0 0 0-.57-.53 1.78 1.78 0 0 0-.8-.19 1.67 1.67 0 0 0-.81.19 1.455 1.455 0 0 0-.57.53 1.475 1.475 0 0 0-.2.79 1.614 1.614 0 0 0 .21.8zm.15 2.74h1.31v2.44h5.99v1.05h-7.3zm7.01.77h-1.31V24.3h1.31z" style="fill:#3f52fc" transform="translate(-336.1 -4.68)"/>
        <path data-name="패스 5281" d="M476.64 30.11h9.66v1.08h-4.21v3.69h-1.29v-3.69h-4.16zm5.99-3.64a3.843 3.843 0 0 0 1.33 1.08 5.634 5.634 0 0 0 1.95.59l-.52 1.05a6.409 6.409 0 0 1-2.37-.82 4.14 4.14 0 0 1-1.55-1.53 4.371 4.371 0 0 1-1.55 1.53 6.2 6.2 0 0 1-2.35.82l-.52-1.05a5.578 5.578 0 0 0 1.94-.59 3.8 3.8 0 0 0 1.32-1.08 2.164 2.164 0 0 0 .47-1.3v-.54h1.37v.54a2.224 2.224 0 0 0 .48 1.3z" style="fill:#3f52fc" transform="translate(-336.1 -4.68)"/>
    </g>
    <g data-name="그룹 3962">
        <g data-name="그룹 3960" transform="translate(-336.1 -4.68)">
            <circle data-name="타원 144" cx="7" cy="7" r="7" transform="translate(469.29 5.2)" style="fill:#3f52fc"/>
            <path data-name="패스 5282" d="M476.29 19.7a7.5 7.5 0 1 1 7.5-7.5 7.5 7.5 0 0 1-7.5 7.5zm0-14a6.5 6.5 0 1 0 6.5 6.5 6.513 6.513 0 0 0-6.5-6.5z" style="fill:#3f52fc"/>
        </g>
        <g data-name="그룹 3961">
            <path data-name="패스 5283" d="m474.06 15.25 2.36-2.49c.31-.33.55-.6.71-.8a3.074 3.074 0 0 0 .38-.59 1.368 1.368 0 0 0 .13-.59 1.045 1.045 0 0 0-.18-.61 1.194 1.194 0 0 0-.5-.41 1.6 1.6 0 0 0-.7-.15 1.462 1.462 0 0 0-.71.17 1.157 1.157 0 0 0-.47.46 1.345 1.345 0 0 0-.17.68h-.81a2.011 2.011 0 0 1 .28-1.07 1.9 1.9 0 0 1 .79-.72 2.462 2.462 0 0 1 1.12-.26 2.385 2.385 0 0 1 1.11.25 1.983 1.983 0 0 1 .77.69 1.836 1.836 0 0 1 .28.98 1.944 1.944 0 0 1-.15.76 3.067 3.067 0 0 1-.48.8q-.345.435-.96 1.08l-1.59 1.64v.06h3.3v.77h-4.5z" style="fill:#fff" transform="translate(-336.1 -4.68)"/>
        </g>
    </g>
    <g data-name="그룹 3963">
        <path data-name="패스 5284" d="M578.03 29.62a6.293 6.293 0 0 0 1.15-3.18h-3.64v-1.03h4.96a9.916 9.916 0 0 1-.45 3.02 6.839 6.839 0 0 1-1.5 2.52 9.291 9.291 0 0 1-2.82 2.02l-.68-1.02a7.915 7.915 0 0 0 2.98-2.33zm5.95 5.26h-1.3v-5.39h-2.24v-1.07h2.24v-4.14h1.3z" style="fill:#707070" transform="translate(-336.1 -4.68)"/>
        <path data-name="패스 5285" d="M589.79 29.31h-2.74v2.06c.62-.01 1.18-.03 1.7-.06a14.707 14.707 0 0 0 1.58-.18l.09 1.05c-.66.11-1.28.18-1.87.22s-1.27.06-2.03.06h-.73v-4.21h2.74v-1.84h-2.75v-1.05h4.01v3.95zm1.17-4.83h1.2v3.87h1.2v-4.07h1.24v10.59h-1.24V29.4h-1.2v4.93h-1.2z" style="fill:#707070" transform="translate(-336.1 -4.68)"/>
        <path data-name="패스 5286" d="M601.31 29.42h4.2v1.05h-9.66v-1.05h4.17v-1.35h1.29zM598 27.27a3.811 3.811 0 0 0 1.19-.65 1.618 1.618 0 0 0 .56-.82h-3.02v-1.04h7.91v1.04h-3.05a1.618 1.618 0 0 0 .56.82 3.759 3.759 0 0 0 1.2.65 6.971 6.971 0 0 0 1.71.36l-.47 1.02a6.715 6.715 0 0 1-2.46-.68 3.365 3.365 0 0 1-1.46-1.34 3.279 3.279 0 0 1-1.45 1.34 6.919 6.919 0 0 1-2.45.68l-.46-1.02a7.713 7.713 0 0 0 1.69-.36zm-.58 4.73a2.8 2.8 0 0 1 1.27-.63 8.078 8.078 0 0 1 1.98-.22 7.538 7.538 0 0 1 1.97.22 2.865 2.865 0 0 1 1.26.63 1.368 1.368 0 0 1 0 2.01 2.864 2.864 0 0 1-1.26.63 8.051 8.051 0 0 1-1.97.22 7.619 7.619 0 0 1-1.98-.22 3.02 3.02 0 0 1-1.27-.63 1.348 1.348 0 0 1-.44-1.01 1.293 1.293 0 0 1 .44-1zm1.48 1.66a5.333 5.333 0 0 0 1.77.22 5.24 5.24 0 0 0 1.75-.22c.4-.15.61-.37.61-.66s-.21-.49-.61-.64a5.306 5.306 0 0 0-1.76-.22 5.613 5.613 0 0 0-1.77.22c-.4.14-.6.35-.59.64s.2.51.6.66z" style="fill:#707070" transform="translate(-336.1 -4.68)"/>
        <path data-name="패스 5287" d="M615.9 33.65h-9.68v-1.08h2.57v-1.75h-1.42v-3.46h6.09v-1.3h-6.12v-1.05h7.41v3.4h-6.08v1.36H615v1.05h-1.55v1.75h2.45zm-3.72-1.08v-1.75h-2.12v1.75z" style="fill:#707070" transform="translate(-336.1 -4.68)"/>
    </g>
    <g data-name="그룹 3966">
        <g data-name="그룹 3964" transform="translate(-336.1 -4.68)">
            <circle data-name="타원 145" cx="7" cy="7" r="7" transform="translate(588.5 5.2)" style="fill:#fff"/>
            <path data-name="패스 5288" d="M595.5 19.7a7.5 7.5 0 1 1 7.5-7.5 7.5 7.5 0 0 1-7.5 7.5zm0-14a6.5 6.5 0 1 0 6.5 6.5 6.513 6.513 0 0 0-6.5-6.5z" style="fill:#707070"/>
        </g>
        <g data-name="그룹 3965">
            <path data-name="패스 5289" d="M594.29 15.75a1.939 1.939 0 0 1-.85-.65 1.637 1.637 0 0 1-.33-.96h.87a.967.967 0 0 0 .23.57 1.3 1.3 0 0 0 .54.37 2.056 2.056 0 0 0 .76.13 2.088 2.088 0 0 0 .81-.15 1.3 1.3 0 0 0 .56-.43 1.008 1.008 0 0 0 .2-.63 1.176 1.176 0 0 0-.2-.67 1.3 1.3 0 0 0-.58-.46 2.273 2.273 0 0 0-.91-.17h-.56v-.76h.56a1.747 1.747 0 0 0 .74-.15 1.117 1.117 0 0 0 .68-1.04 1.135 1.135 0 0 0-.16-.61 1.054 1.054 0 0 0-.45-.41 1.48 1.48 0 0 0-.68-.15 1.822 1.822 0 0 0-.7.14 1.228 1.228 0 0 0-.53.38.924.924 0 0 0-.22.58h-.83a1.584 1.584 0 0 1 .33-.95 2.064 2.064 0 0 1 .83-.65 2.817 2.817 0 0 1 1.13-.23 2.343 2.343 0 0 1 1.12.25 1.878 1.878 0 0 1 .74.68 1.657 1.657 0 0 1 .25.92 1.609 1.609 0 0 1-.31 1 1.557 1.557 0 0 1-.87.57v.05a1.744 1.744 0 0 1 .77.29 1.479 1.479 0 0 1 .5.58 1.832 1.832 0 0 1 .17.79 1.723 1.723 0 0 1-.31 1.01 2.154 2.154 0 0 1-.86.71 2.927 2.927 0 0 1-1.24.26 2.788 2.788 0 0 1-1.2-.21z" style="fill:#707070" transform="translate(-336.1 -4.68)"/>
        </g>
    </g>
</svg>
