<svg xmlns="http://www.w3.org/2000/svg" width="130" height="130" viewBox="0 0 130 130">
    <g data-name="19">
        <g data-name="그룹 4154">
            <circle data-name="타원 193" cx="61.406" cy="61.406" r="61.406" transform="translate(3.594 3.594)" style="fill:#fff"/>
            <path data-name="패스 6187" d="M66.75 131.75a65 65 0 1 1 65-65 65.069 65.069 0 0 1-65 65zm0-122.427a57.427 57.427 0 1 0 57.427 57.427A57.49 57.49 0 0 0 66.75 9.323z" transform="translate(-1.75 -1.75)" style="fill:red"/>
        </g>
        <g data-name="그룹 4155">
            <path data-name="패스 6188" d="M50.685 93.329h-9.584V49.577h-.312l-12.419 7.94v-8.734l13.157-8.506h9.13v53.052z"/>
            <path data-name="패스 6189" d="M92.651 42.059a18.119 18.119 0 0 1 7.514 8.223q2.892 5.7 2.892 14.886a41.959 41.959 0 0 1-2.58 15.539 21.524 21.524 0 0 1-7.4 9.924 19.066 19.066 0 0 1-11.287 3.435 20.036 20.036 0 0 1-8.989-1.956 16.846 16.846 0 0 1-6.437-5.387 17.1 17.1 0 0 1-3.062-7.8h9.442a9.584 9.584 0 0 0 1.73 3.629 8.093 8.093 0 0 0 3.091 2.382 10.935 10.935 0 0 0 10.747-1.3 13.183 13.183 0 0 0 4.111-6.238 30.013 30.013 0 0 0 1.418-9.754h-.567a13.254 13.254 0 0 1-3.4 3.913 16.188 16.188 0 0 1-4.684 2.521 16.816 16.816 0 0 1-5.5.883 16.5 16.5 0 0 1-14.6-8.4 17.679 17.679 0 0 1-2.24-8.847 18.1 18.1 0 0 1 2.44-9.326 17.177 17.177 0 0 1 6.89-6.522 21.256 21.256 0 0 1 10.21-2.325 21.9 21.9 0 0 1 10.261 2.52zm-15.51 6.55a9.938 9.938 0 0 0-3.714 3.715 10.078 10.078 0 0 0-1.337 5.164 10.5 10.5 0 0 0 1.361 5.132 9.941 9.941 0 0 0 8.875 5.047 10.207 10.207 0 0 0 5.274-1.418 10.453 10.453 0 0 0 3.771-3.771 10.039 10.039 0 0 0 0-10.094 10.363 10.363 0 0 0-3.681-3.743 10.011 10.011 0 0 0-5.246-1.389 10.472 10.472 0 0 0-5.303 1.361z"/>
        </g>
    </g>
</svg>
