<svg xmlns="http://www.w3.org/2000/svg" width="59.903" height="66.902" viewBox="0 0 59.903 66.902">
    <defs>
        <clipPath id="gy2r1eykma">
            <path data-name="사각형 1835" style="fill:none" d="M0 0h39.156v35H0z"/>
        </clipPath>
    </defs>
    <g transform="translate(-100 -1450.098)">
        <circle cx="25" cy="25" r="25" transform="translate(100 1467)" style="fill:#2c347d"/>
        <g transform="translate(104.698 1474)" style="clip-path:url(#gy2r1eykma)">
            <path data-name="패스 6345" d="M0 38a5.31 5.31 0 0 0 5.267 5.31V32.694A5.31 5.31 0 0 0 0 38" transform="translate(0 -17.748)" style="fill:#ffd20c"/>
            <path data-name="패스 6346" d="M11.567 32.689h-.045v10.62H14.089v-10.62z" transform="translate(-6.255 -17.745)" style="fill:#de5b56"/>
            <path data-name="패스 6347" d="M79.4 38a5.31 5.31 0 0 0-5.267-5.31v10.62A5.31 5.31 0 0 0 79.4 38" transform="translate(-40.242 -17.748)" style="fill:#ffd20c"/>
            <path data-name="패스 6348" d="M71.038 43.314h.045V32.692H68.516v10.622z" transform="translate(-37.194 -17.746)" style="fill:#de5b56"/>
            <path data-name="패스 6349" d="M40.12 14.944h-1.664a13.3 13.3 0 0 0-13.28-13.28h-.433a13.294 13.294 0 0 0-13.279 13.28H9.8A14.961 14.961 0 0 1 24.743 0h.433A14.961 14.961 0 0 1 40.12 14.944" transform="translate(-5.319)" style="fill:#a3e2fb"/>
            <path data-name="패스 6350" d="m46.634 63.788-.473-1.6L56.6 59.1a2.136 2.136 0 0 0 1.52-2.036v-1.14h1.66v1.139a3.81 3.81 0 0 1-2.711 3.632z" transform="translate(-25.059 -30.359)" style="fill:#a3e2fb"/>
            <path data-name="패스 6351" d="M46.235 68.57a2.368 2.368 0 1 1-2.368-2.37 2.368 2.368 0 0 1 2.368 2.368" transform="translate(-22.528 -35.938)" style="fill:#de5b56"/>
        </g>
        <g data-name="24">
            <path data-name="패스 6352" d="M27.8 13.9A13.9 13.9 0 1 1 13.9 0a13.9 13.9 0 0 1 13.9 13.9" transform="translate(132.1 1450.098)" style="fill:#ffd20c"/>
            <g data-name="24시간">
                <path data-name="패스 6357" d="M11.758 25.125a11.855 11.855 0 0 1-1.751-.131 11.749 11.749 0 0 1 1.615-23.368l.012 1.189a10.558 10.558 0 1 0 6.446 2.106l.714-.952a11.751 11.751 0 0 1-7.036 21.156" transform="translate(134.251 1450.712)" style="fill:#d5152c"/>
                <path data-name="패스 6358" d="M18.888 1.748 14.919 0v3.5z" transform="translate(129.907 1451.186)" style="fill:#d5152c"/>
                <path data-name="패스 6359" d="M7.87 20.318v-1.147a5.647 5.647 0 0 1 .921-1.389 12.543 12.543 0 0 1 1.5-1.412 7.745 7.745 0 0 0 1.225-1.17 1.494 1.494 0 0 0 .35-.9.96.96 0 0 0-1.089-1.083 1.085 1.085 0 0 0-.809.286 1.5 1.5 0 0 0-.361.856l-1.666-.094a2.6 2.6 0 0 1 .859-1.756 2.955 2.955 0 0 1 1.963-.607 3.094 3.094 0 0 1 2.06.612 2.136 2.136 0 0 1 .717 1.719 2.373 2.373 0 0 1-.23 1.053 3.721 3.721 0 0 1-.588.868 6.662 6.662 0 0 1-.8.744q-.438.347-.851.677a9.538 9.538 0 0 0-.751.665 2.285 2.285 0 0 0-.5.718h3.849v1.359z" transform="translate(131.959 1447.72)" style="fill:#d5152c"/>
                <path data-name="패스 6360" d="M22.345 18.681v1.688h-1.577v-1.688H17v-1.242l3.5-5.362h1.848v5.373h1.106v1.23zm-1.577-3.944q0-.318.02-.688c.014-.247.026-.406.033-.477a8.794 8.794 0 0 1-.553.953l-1.925 2.925h2.425z" transform="translate(129.302 1447.669)" style="fill:#d5152c"/>
            </g>
        </g>
    </g>
</svg>
