<svg xmlns="http://www.w3.org/2000/svg" width="40" height="40" viewBox="0 0 40 40">
    <defs>
        <clipPath id="xzm86tmeqa">
            <path data-name="사각형 451" style="fill:none" d="M0 0h20v20H0z"/>
        </clipPath>
    </defs>
    <g data-name="글작성 아이콘형">
        <circle data-name="타원 10" cx="20" cy="20" r="20" style="fill:#3f52fc"/>
        <g data-name="그룹 82" style="clip-path:url(#xzm86tmeqa)" transform="translate(10 10)">
            <path data-name="패스 103" d="m6.166 19.489-3.86.5a2.046 2.046 0 0 1-2.289-2.295l.5-3.859a2.043 2.043 0 0 1 .582-1.188L13.143.6a2.046 2.046 0 0 1 2.893 0L19.4 3.965a2.046 2.046 0 0 1 0 2.893L7.352 18.905a2.04 2.04 0 0 1-1.186.583" transform="translate(0 .199)" style="fill:#fff"/>
            <path data-name="사각형 450" transform="rotate(-45 12.268 -11.248)" style="fill:#3f52fc" d="M0 0h3.442v4.868H0z"/>
        </g>
    </g>
</svg>
