<svg xmlns="http://www.w3.org/2000/svg" width="10.166" height="8.025" viewBox="0 0 10.166 8.025">
    <path d="M5.776 17.025a.747.747 0 0 1-.535-.214.77.77 0 0 1-.241-.562V9.776a.863.863 0 0 1 .214-.562A.863.863 0 0 1 5.776 9h8.614a.673.673 0 0 1 .535.241.744.744 0 0 1 .214.562v2.809h-9.55v3.638c0 .053.027.08.054.134a.2.2 0 0 0 .107.054h4.95v.589zm-.187-5.939h8.961v-1.31a.139.139 0 0 0-.054-.107.2.2 0 0 0-.134-.054H5.776a.139.139 0 0 0-.107.054.2.2 0 0 0-.054.107zm0 5.323zm5.083-1.418 2.06-2.06.428.428-1.311 1.311h3.317v.615h-3.318l1.311 1.284-.455.455z" transform="translate(-5 -9)" style="fill:#fff"/>
</svg>
