<svg xmlns="http://www.w3.org/2000/svg" width="10.215" height="9.639" viewBox="0 0 10.215 9.639">
    <path data-name="sms_FILL0_wght300_GRAD0_opsz48" d="M7.822 9.326a.452.452 0 0 0 .336-.136.439.439 0 0 0 .134-.318.462.462 0 0 0-.47-.468.475.475 0 0 0-.343.136.443.443 0 0 0-.141.331.429.429 0 0 0 .141.318.475.475 0 0 0 .343.137zm2.312 0a.475.475 0 0 0 .343-.136.429.429 0 0 0 .141-.318.443.443 0 0 0-.141-.331.475.475 0 0 0-.343-.136.459.459 0 0 0-.334.135.443.443 0 0 0-.141.331.429.429 0 0 0 .141.318.459.459 0 0 0 .334.137zm2.258 0a.459.459 0 0 0 .329-.136.429.429 0 0 0 .141-.318.443.443 0 0 0-.141-.331.459.459 0 0 0-.329-.136.475.475 0 0 0-.343.136.443.443 0 0 0-.141.331.429.429 0 0 0 .141.318.475.475 0 0 0 .343.136zM5 14.639V5.753a.72.72 0 0 1 .228-.526A.753.753 0 0 1 5.78 5h8.656a.76.76 0 0 1 .544.227.711.711 0 0 1 .235.526v6.287a.711.711 0 0 1-.235.526.76.76 0 0 1-.544.227H6.909zm.6-1.429 1.035-1h7.8a.176.176 0 0 0 .128-.045.164.164 0 0 0 .047-.123V5.753a.164.164 0 0 0-.047-.123.176.176 0 0 0-.128-.045H5.78a.176.176 0 0 0-.128.045.164.164 0 0 0-.047.123zm0-7.456z" transform="translate(-5 -5)" style="fill:#2a2af0"/>
</svg>
