<svg xmlns="http://www.w3.org/2000/svg" width="13" height="13" viewBox="0 0 13 13">
    <path data-name="확인아이콘" d="m9.541 13.457 4.6-4.6-.748-.731-3.852 3.853-1.95-1.95-.731.731zM10.5 17a6.289 6.289 0 0 1-2.519-.512 6.549 6.549 0 0 1-3.469-3.469 6.493 6.493 0 0 1 0-5.054A6.5 6.5 0 0 1 5.909 5.9a6.663 6.663 0 0 1 2.072-1.388 6.493 6.493 0 0 1 5.054 0 6.49 6.49 0 0 1 3.453 3.453 6.493 6.493 0 0 1 0 5.054 6.663 6.663 0 0 1-1.388 2.072 6.5 6.5 0 0 1-2.064 1.4A6.329 6.329 0 0 1 10.5 17z" transform="translate(-4 -4)" style="fill:#707070"/>
</svg>
