<svg xmlns="http://www.w3.org/2000/svg" width="18" height="18" viewBox="0 0 18 18">
    <path data-name="check_circle_FILL0_wght300_GRAD0_opsz48" d="m12.6 18 6.4-6.392-.829-.805-5.571 5.565-2.792-2.818-.808.829zm1.4 5a8.721 8.721 0 0 1-3.493-.711 9.024 9.024 0 0 1-4.8-4.8 9 9 0 0 1 0-7.011 8.977 8.977 0 0 1 1.93-2.854 9.222 9.222 0 0 1 2.866-1.918 9 9 0 0 1 7.011 0 8.938 8.938 0 0 1 4.772 4.772 9 9 0 0 1 0 7.011 9.222 9.222 0 0 1-1.918 2.866 8.978 8.978 0 0 1-2.854 1.93A8.779 8.779 0 0 1 14 23zm0-1.066a7.635 7.635 0 0 0 5.625-2.321A7.666 7.666 0 0 0 21.934 14 7.885 7.885 0 0 0 14 6.066a7.666 7.666 0 0 0-5.613 2.309A7.635 7.635 0 0 0 6.066 14a7.647 7.647 0 0 0 2.321 5.613A7.647 7.647 0 0 0 14 21.934zM14 14z" transform="translate(-5 -5)" style="fill:#3f52fc"/>
</svg>
