<svg xmlns="http://www.w3.org/2000/svg" width="16.5" height="17.977" viewBox="0 0 16.5 17.977">
    <path data-name="패스 1088" d="M395.9 311.446v4l-3.464-2-3.464-2 3.464-2 3.464-2z" transform="translate(-387.647 -304.967)" style="fill:#2a2af0"/>
    <path data-name="패스 1089" d="M463.969 311.446v4l3.464-2 3.464-2-3.464-2-3.464-2z" transform="translate(-455.719 -304.967)" style="fill:#1919b2"/>
    <path data-name="패스 1090" d="M388.969 350.747v6.953l6.928 4.546v-7.5z" transform="translate(-387.647 -344.268)" style="fill:#3f52fc"/>
    <path data-name="패스 1091" d="M463.969 354.747v7.5l6.931-4.547v-6.952z" transform="translate(-455.719 -344.268)" style="fill:#6a79ff"/>
    <path data-name="패스 1092" d="m381.65 357.378-6.988-3.884 1.322-2.747 6.928 4z" transform="translate(-374.662 -344.268)" style="fill:#6a79ff"/>
    <path data-name="패스 1093" d="m465.231 357.378 6.988-3.884-1.322-2.747-6.928 4z" transform="translate(-455.719 -344.268)" style="fill:#3f52fc"/>
    <path data-name="패스 1118" d="M4.077 0A4.077 4.077 0 1 1 0 4.077 4.077 4.077 0 0 1 4.077 0z" transform="translate(4.014)" style="fill:#e9e9fd"/>
    <path d="M339.825 256.079a.976.976 0 0 1 .2-.378 1.634 1.634 0 0 1 .342-.278 1.458 1.458 0 0 0 .25-.19.767.767 0 0 0 .16-.221.639.639 0 0 0 .057-.27.56.56 0 0 0-.079-.3.529.529 0 0 0-.219-.2.679.679 0 0 0-.308-.07.667.667 0 0 0-.3.068.564.564 0 0 0-.228.205.674.674 0 0 0-.1.334h-.773a1.274 1.274 0 0 1 .2-.684 1.177 1.177 0 0 1 .5-.424 1.681 1.681 0 0 1 .7-.143 1.758 1.758 0 0 1 .735.145 1.127 1.127 0 0 1 .5.418 1.15 1.15 0 0 1 .176.636 1.2 1.2 0 0 1-.077.442 1.074 1.074 0 0 1-.222.351 1.621 1.621 0 0 1-.352.277 1.428 1.428 0 0 0-.3.229.736.736 0 0 0-.162.274 1.3 1.3 0 0 0-.054.392v.057h-.723v-.049a2.238 2.238 0 0 1 .077-.621zm.066 1.968a.483.483 0 0 1-.176-.174.437.437 0 0 1-.062-.239.448.448 0 0 1 .062-.239.459.459 0 0 1 .176-.172.483.483 0 0 1 .24-.062.476.476 0 0 1 .238.062.456.456 0 0 1 .176.173.467.467 0 0 1 .065.238.46.46 0 0 1-.065.238.482.482 0 0 1-.176.174.459.459 0 0 1-.238.066.466.466 0 0 1-.239-.065z" transform="translate(-331.915 -251.634)" style="fill:#3f52fc"/>
</svg>
