<svg xmlns="http://www.w3.org/2000/svg" width="10" height="11.935" viewBox="0 0 10 11.935">
    <path d="M8.819 17.535a.883.883 0 0 1-.645-.274.9.9 0 0 1-.274-.661V7.906h.726V16.6a.176.176 0 0 0 .065.137.2.2 0 0 0 .129.056h6.661v.742zm1.79-1.79a.91.91 0 0 1-.653-.274.888.888 0 0 1-.282-.661V6.519a.871.871 0 0 1 .282-.645.91.91 0 0 1 .654-.274h6.355a.9.9 0 0 1 .661.274.883.883 0 0 1 .274.645v8.29a.936.936 0 0 1-.935.935zm0-.726h6.355a.176.176 0 0 0 .137-.065.215.215 0 0 0 .056-.145v-8.29a.2.2 0 0 0-.057-.129.176.176 0 0 0-.137-.065H10.61a.228.228 0 0 0-.194.194v8.29a.2.2 0 0 0 .065.145.186.186 0 0 0 .129.065zm-.194 0z" transform="translate(-7.9 -5.6)" style="fill:#707070"/>
</svg>
