<svg xmlns="http://www.w3.org/2000/svg" width="70" height="34" viewBox="0 0 70 34">
    <g data-name="문화상품권" transform="translate(25 5)">
        <path data-name="패스 1175" d="M332.582 647.911q.691.328 1.13.507a3.944 3.944 0 0 0 .811.245l.021-2.4a4.2 4.2 0 0 1-.96-.449 2.17 2.17 0 0 1-.576-.534 1.57 1.57 0 0 1-.269-.614 2.331 2.331 0 0 1-.03-.679 1.842 1.842 0 0 1 .539-1.217 2.233 2.233 0 0 1 1.331-.579l.007-.819 1.15.01-.007.839a4.075 4.075 0 0 1 .775.183 3.283 3.283 0 0 1 .7.337l-.307.774q-.341-.117-.62-.192a5.386 5.386 0 0 0-.558-.119l-.021 2.425a6.8 6.8 0 0 1 .655.327 3.326 3.326 0 0 1 .567.4 1.866 1.866 0 0 1 .4.511 1.436 1.436 0 0 1 .16.659 1.962 1.962 0 0 1-.484 1.436 2.343 2.343 0 0 1-1.337.672l-.009 1.077-1.15-.01.009-1.036a4.423 4.423 0 0 1-1.07-.253 9.554 9.554 0 0 1-1.212-.565zm1.308-3.853a1 1 0 0 0 .124.617 1.465 1.465 0 0 0 .54.435l.016-1.855a1.021 1.021 0 0 0-.505.337.772.772 0 0 0-.175.466zm2.4 3.585a.923.923 0 0 0-.156-.556 1.4 1.4 0 0 0-.447-.393l-.016 1.844a.944.944 0 0 0 .623-.895z" transform="translate(-327.805 -633.216)" style="fill:#161615"/>
        <circle data-name="타원 113" cx="5.627" cy="5.627" r="5.627" transform="translate(7.757 13.321)" style="fill:#3f52fc"/>
        <path data-name="패스 1174" d="M331.839 640.232h-3.389a.469.469 0 0 1-.47-.469 2.781 2.781 0 1 0-5.562 0 .47.47 0 0 1-.47.469h-3.389a.469.469 0 0 1-.47-.469V615.79a.47.47 0 0 1 .47-.47h3.389a.47.47 0 0 1 .47.47 2.781 2.781 0 1 0 5.562 0 .47.47 0 0 1 .47-.47h3.389a.469.469 0 0 1 .47.47v23.972a.469.469 0 0 1-.47.47zm-2.949-.939h2.479V616.26h-2.479a3.72 3.72 0 0 1-7.381 0h-2.479v23.033h2.479a3.72 3.72 0 0 1 7.381 0z" transform="translate(-318.091 -615.321)" style="fill:#161615"/>
    </g>
    <path style="fill:none" d="M0 0h70v34H0z"/>
</svg>
