<svg xmlns="http://www.w3.org/2000/svg" width="18" height="16.532" viewBox="0 0 18 16.532">
    <path d="M8.408 16.532v-1.066h7.271a.286.286 0 0 0 .308-.308V7.982a6.116 6.116 0 0 0-.58-2.617 7.62 7.62 0 0 0-3.778-3.73 6.364 6.364 0 0 0-5.258 0 7.62 7.62 0 0 0-3.778 3.73 6.116 6.116 0 0 0-.58 2.617v5.755h-.355A1.658 1.658 0 0 1 0 12.079v-1.895a1.525 1.525 0 0 1 .261-.864 2.173 2.173 0 0 1 .687-.651l.047-1.232a7.808 7.808 0 0 1 .817-3.008A8 8 0 0 1 6.075.545 7.922 7.922 0 0 1 9 0a8.014 8.014 0 0 1 2.937.545 7.888 7.888 0 0 1 2.475 1.528 8.215 8.215 0 0 1 1.776 2.345 7.713 7.713 0 0 1 .817 3l.047 1.232a1.828 1.828 0 0 1 .687.58 1.379 1.379 0 0 1 .261.817v2.179a1.344 1.344 0 0 1-.261.793 1.827 1.827 0 0 1-.687.58v1.563a1.375 1.375 0 0 1-1.374 1.374zM6.347 9.806a.623.623 0 0 1-.474-.2.683.683 0 0 1-.189-.486.615.615 0 0 1 .189-.45.663.663 0 0 1 1.137.474.689.689 0 0 1-.663.663zm5.305 0a.635.635 0 0 1-.462-.2.662.662 0 0 1-.2-.486.6.6 0 0 1 .2-.45.683.683 0 0 1 .486-.189.615.615 0 0 1 .45.189.643.643 0 0 1 .189.474.655.655 0 0 1-.189.462.623.623 0 0 1-.473.199zM3.671 8.432a5.032 5.032 0 0 1 .367-2.38A5.546 5.546 0 0 1 5.27 4.228a5.45 5.45 0 0 1 1.764-1.149 5.325 5.325 0 0 1 2.013-.4 4.9 4.9 0 0 1 3.434 1.279 5.359 5.359 0 0 1 1.705 3.2 6.582 6.582 0 0 1-3.707-1.125 7.2 7.2 0 0 1-2.475-2.854 7.341 7.341 0 0 1-1.528 3.2 6.9 6.9 0 0 1-2.805 2.053z"/>
</svg>
