<svg xmlns="http://www.w3.org/2000/svg" width="32.514" height="16.101" viewBox="0 0 32.514 16.101">
    <path data-name="패스 225" d="M258.966-35.32c-.214.961-.662 2.126-1.709 2.289-.245.04-1.037.243-1.037.476l.026.5c0 .258.068.391.349.391h30.049a.486.486 0 0 0 .505-.471v-3.042z" transform="translate(-255.398 47.002)" style="fill:#bebdbd"/>
    <path data-name="패스 224" d="M287.154-55.513c0-.2-.229-.357-.511-.357l-30.052.015c-.281 0-.4.04-.4.233 0 .173.156.2.4.233a2.876 2.876 0 0 1 1.615 1l28.948-.758z" transform="translate(-255.383 56.643)" style="fill:#f4f4f4"/>
    <path data-name="패스 223" d="M266.418-41.319h20.15a.513.513 0 0 0 .515-.515V-55.9a.513.513 0 0 0-.515-.515h-30.483a.513.513 0 0 0-.515.515h0a.514.514 0 0 0 .437.5 2.629 2.629 0 0 1 2.186 2.587 2.625 2.625 0 0 1-2.186 2.587.514.514 0 0 0-.437.5v.916a.514.514 0 0 0 .437.5 2.629 2.629 0 0 1 2.186 2.587 2.625 2.625 0 0 1-2.186 2.587.514.514 0 0 0-.437.5v.776a.513.513 0 0 0 .515.515h6.569" transform="translate(-255.07 56.92)" style="stroke:#000;stroke-linecap:round;stroke-miterlimit:10;fill:#f2f2f2"/>
    <path data-name="선 26" transform="translate(18.043 7.551)" style="fill:none;stroke:#000;stroke-linecap:round;stroke-miterlimit:10" d="M0 6.895V0"/>
    <path data-name="패스 226" d="m302.486-44.937-.442.421a.2.2 0 0 0-.055.173l.5 2.866a.2.2 0 0 1-.288.205l-2.638-1.355a.216.216 0 0 0-.182 0l-2.638 1.355a.2.2 0 0 1-.288-.205l.5-2.866a.2.2 0 0 0-.055-.173l-2.134-2.03a.193.193 0 0 1 .111-.329l2.947-.416a.2.2 0 0 0 .149-.1L299.3-50a.2.2 0 0 1 .354 0l1.316 2.607a.177.177 0 0 0 .149.1l2.947.416a.193.193 0 0 1 .111.329l-.752.718" transform="translate(-274.29 53.734)" style="fill:#fff;stroke:#000;stroke-linecap:round;stroke-miterlimit:10"/>
    <path data-name="선 25" transform="translate(18.043 2.786)" style="fill:none;stroke:#000;stroke-linecap:round;stroke-miterlimit:10" d="M0 1.893V0"/>
    <path data-name="선 27" transform="translate(6.36 5.591)" style="fill:none;stroke:#000;stroke-linecap:round;stroke-miterlimit:10" d="M8.397 0H0"/>
    <path data-name="선 28" transform="translate(6.361 10.083)" style="fill:none;stroke:#000;stroke-linecap:round;stroke-miterlimit:10" d="M8.397 0H0"/>
</svg>
