<svg xmlns="http://www.w3.org/2000/svg" width="20" height="18" viewBox="0 0 20 18">
    <path data-name="사각형 1219" style="fill:none" d="M0 0h20v18H0z"/>
    <path data-name="패스 1617" d="M10 2.354c4.829 0 7.91 4.089 8.83 5.5-.917 1.415-3.982 5.5-8.83 5.5-4.829 0-7.91-4.089-8.83-5.5.917-1.415 3.982-5.5 8.83-5.5m0-1c-6.5 0-10 6.5-10 6.5s3.5 6.5 10 6.5 10-6.5 10-6.5-3.5-6.5-10-6.5" transform="translate(0 1.146)" style="fill:#707070"/>
    <path data-name="패스 1618" d="M10 5.09a2.665 2.665 0 0 1 2.548 2.763A2.665 2.665 0 0 1 10 10.616a2.665 2.665 0 0 1-2.548-2.763A2.665 2.665 0 0 1 10 5.09m0-1a3.66 3.66 0 0 0-3.548 3.763A3.66 3.66 0 0 0 10 11.616a3.66 3.66 0 0 0 3.548-3.763A3.66 3.66 0 0 0 10 4.09" transform="translate(0 1.146)" style="fill:#707070"/>
</svg>
