<svg xmlns="http://www.w3.org/2000/svg" width="35" height="36" viewBox="0 0 35 36">
    <defs>
        <clipPath id="dhl5879dua">
            <path data-name="사각형 1841" transform="translate(.069 -.114)" style="fill:none" d="M0 0h35v36H0z"/>
        </clipPath>
    </defs>
    <g data-name="게임 아이콘">
        <path data-name="선 476" transform="translate(.795 1.447)" style="fill:#595757" d="M9.781 9.781 0 0"/>
        <g data-name="그룹 4115" transform="translate(-.069 .114)" style="clip-path:url(#dhl5879dua)">
            <path data-name="패스 6401" d="M8.343 9.38a.568.568 0 0 1-.4-.167L.259 1.533a.57.57 0 0 1 .805-.805l7.681 7.681a.569.569 0 0 1-.4.972"/>
            <path data-name="패스 6402" d="M20.624 7.946a3.405 3.405 0 0 1 0 4.816l-7.863 7.863a3.406 3.406 0 0 1-4.816-4.817l7.862-7.863a3.406 3.406 0 0 1 4.817 0" transform="translate(-3.691 -3.223)" style="fill:#e9e9fd"/>
            <path data-name="패스 6403" d="M6.662 18.969a3.975 3.975 0 0 1-2.81-6.786l7.862-7.862a3.975 3.975 0 1 1 5.622 5.621l-7.863 7.863a3.95 3.95 0 0 1-2.811 1.164m7.863-14.674a2.817 2.817 0 0 0-2.006.831l-7.863 7.862A2.837 2.837 0 1 0 8.668 17l7.862-7.863a2.836 2.836 0 0 0-2.006-4.842"/>
            <path data-name="사각형 1840" transform="rotate(-45 24.568 5.893)" style="fill:#e9e9fd" d="M0 0h22.062v15.126H0z"/>
            <path data-name="패스 6404" d="M13.724 30.362a.567.567 0 0 1-.4-.167l-10.7-10.7a.569.569 0 0 1 0-.805l15.6-15.6a.569.569 0 0 1 .8 0l10.7 10.7a.568.568 0 0 1 0 .8l-15.6 15.6a.568.568 0 0 1-.4.167m-9.89-11.259 9.891 9.891 14.8-14.8-9.891-9.89z"/>
            <path data-name="패스 6405" d="M3.8 40.3a8.714 8.714 0 1 0 12.324 0" transform="translate(-.589 -21.385)" style="fill:#e9e9fd"/>
            <path data-name="패스 6406" d="M9.377 34.355a9.281 9.281 0 0 1-6.565-15.844.57.57 0 1 1 .805.805 8.146 8.146 0 0 0 11.52 11.519 8.146 8.146 0 0 0 0-11.519.569.569 0 0 1 .8-.805 9.28 9.28 0 0 1-6.56 15.844"/>
            <path data-name="패스 6407" d="M17.009 40.677a6.912 6.912 0 1 0 0 9.775 6.911 6.911 0 0 0 0-9.775" transform="translate(-2.744 -20.489)" style="fill:#e9e9fd"/>
            <path data-name="패스 6408" d="M9.377 32.556a7.481 7.481 0 1 1 5.29-2.191 7.433 7.433 0 0 1-5.29 2.191m0-13.824a6.343 6.343 0 1 0 4.485 1.861 6.3 6.3 0 0 0-4.485-1.858"/>
            <path data-name="패스 6409" d="M12.245 51.793a1.7 1.7 0 1 0-1.7 1.7 1.7 1.7 0 0 0 1.7-1.7" transform="translate(-4.722 -26.718)" style="fill:#3f52fc"/>
            <path data-name="패스 6410" d="M5.821 27.347a2.272 2.272 0 1 1 2.272-2.272 2.275 2.275 0 0 1-2.272 2.272m0-3.406a1.134 1.134 0 1 0 1.138 1.134 1.134 1.134 0 0 0-1.133-1.134"/>
            <path data-name="패스 6411" d="M27.863 51.793a1.7 1.7 0 1 0-1.7 1.7 1.7 1.7 0 0 0 1.7-1.7" transform="translate(-13.227 -26.718)" style="fill:#3f52fc"/>
            <path data-name="패스 6412" d="M12.932 27.347a2.272 2.272 0 1 1 2.272-2.272 2.275 2.275 0 0 1-2.272 2.272m0-3.406a1.134 1.134 0 1 0 1.133 1.134 1.136 1.136 0 0 0-1.133-1.134"/>
            <path data-name="패스 6413" d="M18.351 45.687a1.7 1.7 0 1 0-1.7-1.7 1.7 1.7 0 0 0 1.7 1.7" transform="translate(-8.974 -22.465)" style="fill:#3f52fc"/>
            <path data-name="패스 6414" d="M9.377 23.791a2.272 2.272 0 1 1 2.272-2.275 2.275 2.275 0 0 1-2.272 2.272m0-3.406a1.134 1.134 0 1 0 1.13 1.134 1.135 1.135 0 0 0-1.13-1.13"/>
            <path data-name="패스 6415" d="M18.351 61.3a1.7 1.7 0 1 0-1.7-1.7 1.7 1.7 0 0 0 1.7 1.7" transform="translate(-8.974 -30.97)" style="fill:#3f52fc"/>
            <path data-name="패스 6416" d="M9.377 30.904a2.272 2.272 0 1 1 2.272-2.273 2.275 2.275 0 0 1-2.272 2.273m0-3.406a1.134 1.134 0 1 0 1.13 1.133 1.134 1.134 0 0 0-1.134-1.134"/>
            <path data-name="패스 6417" d="M40.3 16.128a8.715 8.715 0 1 0 0-12.328" transform="translate(-21.854 -.12)" style="fill:#e9e9fd"/>
            <path data-name="패스 6418" d="M24.606 19.13a9.222 9.222 0 0 1-6.565-2.72.569.569 0 0 1 .805-.8 8.148 8.148 0 1 0 11.52-11.525 8.145 8.145 0 0 0-11.519 0 .57.57 0 1 1-.805-.805 9.284 9.284 0 1 1 13.13 13.13 9.223 9.223 0 0 1-6.565 2.72"/>
            <path data-name="패스 6419" d="m49.533 12.124-.533.531-.531-.531a2.054 2.054 0 0 0-2.9 2.9l.531.531-.531.531a2.054 2.054 0 0 0 2.9 2.9l.531-.522.531.531a2.054 2.054 0 0 0 2.9-2.9l-.531-.531.531-.531a2.054 2.054 0 0 0-2.9-2.9" transform="translate(-24.396 -5.714)" style="fill:#3f52fc"/>
            <path data-name="패스 6420" d="M26.59 14.451a2.605 2.605 0 0 1-1.854-.768l-.129-.128-.128.128a2.623 2.623 0 1 1-3.709-3.709l.128-.129-.128-.129a2.623 2.623 0 1 1 3.709-3.709l.128.128.129-.128a2.623 2.623 0 1 1 3.708 3.71l-.129.129.129.129a2.623 2.623 0 0 1-1.855 4.477m-1.983-2.507.934.934a1.521 1.521 0 0 0 2.1 0 1.484 1.484 0 0 0 0-2.1l-.934-.934.934-.934a1.484 1.484 0 0 0 0-2.1 1.519 1.519 0 0 0-2.1 0l-.934.934-.934-.934a1.519 1.519 0 0 0-2.1 0 1.485 1.485 0 0 0 0 2.1l.934.934-.934.934a1.486 1.486 0 0 0 0 2.1 1.521 1.521 0 0 0 2.1 0z"/>
        </g>
    </g>
</svg>
