<svg data-name="블로그 바로가기" xmlns="http://www.w3.org/2000/svg" width="55" height="55" viewBox="0 0 55 55">
    <circle data-name="타원 184" cx="27.5" cy="27.5" r="27.5" style="fill:#2cb24a"/>
    <g data-name="그룹 4087">
        <path data-name="패스 6173" d="M18.27 79.62v3.24s1.55.35 1.55 1.6v9.2h3.22v-9.29s.37-4.54-4.77-4.75z" style="fill:#fff" transform="translate(0 -61.68)"/>
        <path data-name="패스 6174" d="M30.67 84.08a4.987 4.987 0 1 0 0 9.94 4.987 4.987 0 1 0 0-9.94zm0 7.01a2.04 2.04 0 1 1 2.04-2.04 2.036 2.036 0 0 1-2.04 2.04z" style="fill:#fff" transform="translate(0 -61.68)"/>
        <path data-name="패스 6175" d="M12.98 83.96s-2.24-.02-3.01 1.3v-5.19s-3.09.04-3.29.01v13.57h3.29v-.79a3.779 3.779 0 0 0 2.73 1.16s4.52-.13 4.54-4.5c.01 0 .61-5.11-4.26-5.56zM11.97 91a1.89 1.89 0 1 1 1.89-1.89A1.888 1.888 0 0 1 11.97 91z" style="fill:#fff" transform="translate(0 -61.68)"/>
        <path data-name="패스 6176" d="M45.05 85.21a3.263 3.263 0 0 0-2.8-1.25 4.587 4.587 0 0 0-4.5 4.38v1.48c0 3.91 4.01 4.2 4.01 4.2 2.83 0 3.22-1.26 3.22-1.26.02 3.11-1.99 2.92-1.99 2.92h-.88v3.06h1.46c4.8 0 4.75-4.72 4.75-4.72v-9.81h-3.27zm-1.85 5.83a1.99 1.99 0 1 1 1.99-1.99 1.989 1.989 0 0 1-1.99 1.99z" style="fill:#fff" transform="translate(0 -61.68)"/>
    </g>
</svg>
