<svg xmlns="http://www.w3.org/2000/svg" width="136.063" height="51.024" viewBox="0 0 136.063 51.024">
    <defs>
        <clipPath id="5wg2z77kxa">
            <path data-name="사각형 1895" style="fill:none" d="M0 0h136.063v51.024H0z"/>
        </clipPath>
        <clipPath id="3mik9u8g3b">
            <path data-name="패스 6454" d="M14.047 21.544a.782.782 0 0 0 .711.712h1.62s.01 4.461 0 5.5c0 .761 1.69.771 1.69.01l.01-5.449H19.7a.8.8 0 0 0 0-1.591c-1.14 0-4.94-.029-4.94-.029a.781.781 0 0 0-.711.847" style="fill:none"/>
        </clipPath>
        <clipPath id="lkuio7qisc">
            <path data-name="패스 6456" d="m22.53 22.546.9 2.831h-1.88zm-1.011-1.319c-.4.879-1.84 5.029-2.319 6.14-.35.8 1.149 1.449 1.489.649l.321-1.14h2.97s-.1.05.289 1.09c.32.841 1.861.26 1.54-.58-.46-1.2-2.03-5.54-2.32-6.149a1.237 1.237 0 0 0-1.07-.491.848.848 0 0 0-.1-.005.9.9 0 0 0-.8.486" style="fill:none"/>
        </clipPath>
        <clipPath id="m9kkaxe34d">
            <path data-name="패스 6458" d="M26.393 21.421v.065c0 1.41.01 5.961.01 5.961s-.13.9.641.9 2.5-.01 3.26-.01.759-1.62 0-1.62-2.16-.011-2.16-.011.009-4.209 0-5.23a.8.8 0 0 0-.84-.743h-.131a.78.78 0 0 0-.775.69" style="fill:none"/>
        </clipPath>
        <clipPath id="etssyg9q8e">
            <path data-name="패스 6460" d="M31.258 21.256c.021.621-.02 6.22-.02 6.631 0 .65 1.671.65 1.671 0v-2.2l.491-.387 2.14 2.919c.431.571 1.79-.46 1.36-1.029l-2.27-2.99s1.54-1.671 2.151-2.271c.35-.35-.74-1.46-1.1-1.11L32.92 23.58s.02-1.52 0-2.361c-.009-.32-.4-.47-.8-.47h-.033c-.42 0-.837.179-.827.51" style="fill:none"/>
        </clipPath>
    </defs>
    <g data-name="1:1문의하기">
        <g data-name="그룹 4312">
            <g data-name="그룹 4311" style="clip-path:url(#5wg2z77kxa)">
                <path data-name="패스 6444" d="M124.1 51.024H11.959A11.959 11.959 0 0 1 0 39.064V11.96A11.96 11.96 0 0 1 11.959 0H124.1a11.96 11.96 0 0 1 11.96 11.96v27.1a11.96 11.96 0 0 1-11.96 11.96" style="fill:#fbe100"/>
                <path data-name="패스 6445" d="M25.872 10.068c-9.05 0-16.385 6.2-16.385 13.865 0 4.981 3.106 9.351 7.771 11.8-.342 1.368-.73 3.621-.917 4.388-.218.957.322.945.686.69a64.039 64.039 0 0 0 5.8-3.243 19.647 19.647 0 0 0 3.044.244c9.05 0 16.385-6.2 16.385-13.865s-7.334-13.879-16.384-13.879" style="fill:#371d1e"/>
                <path data-name="패스 6446" d="M55.387 30.019h-1.422v-9.844H53.9L51.153 22v-1.419l2.812-1.875h1.422z" style="fill:#191919"/>
                <path data-name="패스 6447" d="M58.867 22.722a1.06 1.06 0 0 1-.367-.371.917.917 0 0 1-.129-.5.9.9 0 0 1 .129-.5 1.032 1.032 0 0 1 .367-.367.993.993 0 0 1 1 0 1.018 1.018 0 0 1 .367.359.942.942 0 0 1 .137.493 1.007 1.007 0 0 1-.289.722.977.977 0 0 1-.711.309.944.944 0 0 1-.5-.141m0 5.719a1.068 1.068 0 0 1-.367-.371.917.917 0 0 1-.129-.5.9.9 0 0 1 .129-.5 1.032 1.032 0 0 1 .367-.367.993.993 0 0 1 1 0 1.018 1.018 0 0 1 .367.359.942.942 0 0 1 .137.492 1.007 1.007 0 0 1-.289.723.977.977 0 0 1-.711.309.944.944 0 0 1-.5-.141" style="fill:#191919"/>
                <path data-name="패스 6448" d="M66.465 30.019h-1.422v-9.844h-.062L62.231 22v-1.419l2.812-1.875h1.422z" style="fill:#191919"/>
                <path data-name="패스 6449" d="M85.7 25.52h-5.657v2.844h-1.219V25.52h-5.843V24.5H85.7zm-11.094 1.469h1.234v2.968h8.437v1.032h-9.671zm.031-8.907h9.406v4.828h-9.406zm8.187.969H75.84v2.875h6.984z" style="fill:#191919"/>
                <path data-name="패스 6450" d="M87.551 27.207q2.367 0 4.5-.093a39.582 39.582 0 0 0 4.027-.375l.094.906a32.156 32.156 0 0 1-4.273.5q-2.173.109-4.821.109l-.178-1.047zm5.749-8.382a3.229 3.229 0 0 1 1.328 1.156 3.227 3.227 0 0 1 0 3.39 3.232 3.232 0 0 1-1.328 1.157 4.332 4.332 0 0 1-1.926.414 4.4 4.4 0 0 1-1.941-.414 3.187 3.187 0 0 1-1.333-1.157 3.25 3.25 0 0 1 0-3.39 3.185 3.185 0 0 1 1.332-1.156 4.385 4.385 0 0 1 1.941-.415 4.319 4.319 0 0 1 1.926.415m-4.148 3.988a2.151 2.151 0 0 0 .906.773 3.015 3.015 0 0 0 1.316.278 2.979 2.979 0 0 0 1.305-.278 2.163 2.163 0 0 0 .9-.773 2.15 2.15 0 0 0 0-2.27 2.165 2.165 0 0 0-.9-.777 2.978 2.978 0 0 0-1.305-.277 3.015 3.015 0 0 0-1.316.277 2.152 2.152 0 0 0-.906.777 2.144 2.144 0 0 0 0 2.27M97 17.4h1.219v13.917H97z" style="fill:#191919"/>
                <path data-name="패스 6451" d="M100.574 19.629h3.578v-2.062h1.219v2.062h3.468v1.016h-8.265zm1.234 3.711a3.026 3.026 0 0 1 1.215-1.133 3.739 3.739 0 0 1 1.754-.406 3.7 3.7 0 0 1 1.742.406 3.052 3.052 0 0 1 1.215 1.133 3.258 3.258 0 0 1 0 3.3 3.064 3.064 0 0 1-1.215 1.129 3.7 3.7 0 0 1-1.742.406 3.739 3.739 0 0 1-1.754-.406 3.038 3.038 0 0 1-1.215-1.129 3.335 3.335 0 0 1 0-3.3m1.02 2.762a1.981 1.981 0 0 0 .8.761 2.335 2.335 0 0 0 1.152.266 2.3 2.3 0 0 0 1.141-.266 2.027 2.027 0 0 0 .8-.761 2.207 2.207 0 0 0 .3-1.114 2.234 2.234 0 0 0-.3-1.113 2.005 2.005 0 0 0-.8-.769 2.362 2.362 0 0 0-1.141-.274 2.394 2.394 0 0 0-1.152.274 1.961 1.961 0 0 0-.8.769 2.185 2.185 0 0 0-.285 1.113 2.161 2.161 0 0 0 .285 1.114m8.574-2.973h2.328v1.016h-2.33v7.14h-1.219V17.4h1.219z" style="fill:#191919"/>
                <path data-name="패스 6452" d="M118.914 24.4a8.463 8.463 0 0 0 1.692-4.485h-5.313v-1h6.563a10.493 10.493 0 0 1-1.594 5.649 11.473 11.473 0 0 1-4.938 4.117l-.672-1a11.244 11.244 0 0 0 4.262-3.281m7.051 6.89h-1.234V17.394h1.234z" style="fill:#191919"/>
                <path data-name="패스 6453" d="M14.758 22.256h1.62s.01 4.46 0 5.5c0 .76 1.69.77 1.69.01l.01-5.45H19.7a.8.8 0 0 0 0-1.59c-1.14 0-4.94-.03-4.94-.03a.783.783 0 0 0 0 1.56" style="fill:#fae100"/>
            </g>
        </g>
        <g data-name="그룹 4314">
            <g data-name="그룹 4313" style="clip-path:url(#3mik9u8g3b)">
                <path data-name="사각형 1896" transform="translate(13.798 20.706)" style="fill:#fae100" d="M0 0h6.9v7.82H0z"/>
            </g>
        </g>
        <g data-name="그룹 4316">
            <g data-name="그룹 4315" style="clip-path:url(#5wg2z77kxa)">
                <path data-name="패스 6455" d="m22.529 22.546.9 2.83h-1.88zm-1.01-1.32c-.4.88-1.84 5.03-2.32 6.14-.35.8 1.15 1.45 1.49.65l.32-1.14h2.97s-.1.05.29 1.09c.32.84 1.86.26 1.54-.58-.46-1.2-2.03-5.54-2.32-6.15a1.238 1.238 0 0 0-1.07-.49.9.9 0 0 0-.9.48" style="fill:#fae100"/>
            </g>
        </g>
        <g data-name="그룹 4318">
            <g data-name="그룹 4317" style="clip-path:url(#lkuio7qisc)">
                <path data-name="사각형 1898" transform="translate(18.849 20.736)" style="fill:#fae100" d="M0 0h7.29v8.07H0z"/>
            </g>
        </g>
        <g data-name="그룹 4320">
            <g data-name="그룹 4319" style="clip-path:url(#5wg2z77kxa)">
                <path data-name="패스 6457" d="M26.388 21.486c0 1.41.01 5.96.01 5.96s-.13.9.64.9 2.5-.01 3.26-.01.76-1.62 0-1.62-2.16-.01-2.16-.01.01-4.21 0-5.23a.793.793 0 0 0-.84-.743.269.269 0 0 0-.04 0 .779.779 0 0 0-.865.684v.066" style="fill:#fae100"/>
            </g>
        </g>
        <g data-name="그룹 4322">
            <g data-name="그룹 4321" style="clip-path:url(#m9kkaxe34d)">
                <path data-name="사각형 1900" transform="translate(26.258 20.736)" style="fill:#fae100" d="M0 0h4.8v7.61H0z"/>
            </g>
        </g>
        <g data-name="그룹 4324">
            <g data-name="그룹 4323" style="clip-path:url(#5wg2z77kxa)">
                <path data-name="패스 6459" d="M31.258 21.256c.02.62-.02 6.22-.02 6.63 0 .65 1.67.65 1.67 0v-2.2l.49-.39 2.14 2.92c.43.57 1.79-.46 1.36-1.03l-2.27-2.99s1.54-1.67 2.15-2.27c.35-.35-.74-1.46-1.1-1.11l-2.76 2.76s.02-1.52 0-2.36c-.01-.32-.4-.47-.8-.47-.43-.01-.87.17-.86.51" style="fill:#fae100"/>
            </g>
        </g>
        <g data-name="그룹 4326">
            <g data-name="그룹 4325" style="clip-path:url(#etssyg9q8e)">
                <path data-name="사각형 1902" transform="translate(31.238 20.456)" style="fill:#fae100" d="M0 0h6.09v8.33H0z"/>
            </g>
        </g>
    </g>
</svg>
