<svg xmlns="http://www.w3.org/2000/svg" width="51.029" height="21.258" viewBox="0 0 51.029 21.258">
    <path data-name="패스 1122" d="M40.374 21.258H10.629a10.629 10.629 0 0 1 0-21.258H40.4a10.629 10.629 0 1 1-.026 21.258" style="fill-rule:evenodd;fill:#c7c7c7"/>
    <path data-name="패스 1123" d="M28.99 19.3c-3.2 0-5.79 2.036-5.79 4.574a4.487 4.487 0 0 0 2.7 3.86l-.558 2.066a.175.175 0 0 0 .053.185.2.2 0 0 0 .106.053c.026 0 .079-.026.106-.026l2.353-1.586a6.862 6.862 0 0 0 1.058.079c3.2 0 5.79-2.062 5.79-4.574-.001-2.595-2.592-4.631-5.818-4.631z" transform="translate(-17.066 -14.197)" style="fill:#fafafa;fill-rule:evenodd"/>
    <path data-name="패스 1124" d="M79.715 28.2v2.961H77.6V20.238h1.481l.264.687A3.007 3.007 0 0 1 81.566 20c2.062 0 3.041 1.534 3.041 4.045 0 2.618-1.507 4.283-3.675 4.283a3.3 3.3 0 0 1-1.217-.128zm0-6.187v4.706a3.762 3.762 0 0 0 .687.053c1.507 0 2.089-1.058 2.089-2.723 0-1.454-.4-2.327-1.586-2.327a2.554 2.554 0 0 0-1.19.287z" transform="translate(-57.081 -14.712)" style="fill:#fafafa"/>
    <path data-name="패스 1125" d="M112.279 23.479h1.19v-.264c0-.873-.5-1.269-1.348-1.269a5.121 5.121 0 0 0-2.168.529l-.582-1.4a5.4 5.4 0 0 1 2.929-.875 2.786 2.786 0 0 1 3.12 3.093v5h-1.481l-.212-.661a4.058 4.058 0 0 1-2.327.873 2.234 2.234 0 0 1-2.4-2.488c0-1.666 1.137-2.538 3.279-2.538zm1.216 2.776V24.8h-.978c-1.084 0-1.639.4-1.639 1.163 0 .582.291.873.925.873a2.781 2.781 0 0 0 1.692-.581z" transform="translate(-80.18 -14.859)" style="fill:#fafafa"/>
    <path data-name="패스 1126" d="M142.862 27.177a7.854 7.854 0 0 1-2.908 4.178l-1.3-1.19a7.494 7.494 0 0 0 1.745-2.142l-2.8-7.641 2.089-.555 1.8 6.187 1.771-6.213 2.062.582z" transform="translate(-101.218 -14.565)" style="fill:#fafafa"/>
</svg>
