<svg xmlns="http://www.w3.org/2000/svg" xmlns:xlink="http://www.w3.org/1999/xlink" width="143" height="52" viewBox="0 0 143 52">
  <defs>
    <style>
      .cls-1, .cls-12, .cls-14, .cls-6 {
        fill: none;
      }

      .cls-14, .cls-2, .cls-6 {
        stroke: #7f7874;
      }

      .cls-2 {
        fill: url(#linear-gradient);
      }

      .cls-3 {
        opacity: 0.35;
        mix-blend-mode: overlay;
        isolation: isolate;
      }

      .cls-4 {
        fill: #fff;
      }

      .cls-5 {
        opacity: 0.75;
      }

      .cls-16, .cls-7 {
        fill: #44403e;
      }

      .cls-7 {
        font-size: 20px;
        font-family: Pretendard-Bold, Pretendard;
        font-weight: 700;
      }

      .cls-8 {
        clip-path: url(#clip-path);
      }

      .cls-9 {
        fill: #cec8c4;
      }

      .cls-10 {
        clip-path: url(#clip-path-2);
      }

      .cls-11 {
        fill: #e8e4e2;
      }

      .cls-12 {
        stroke: #44403e;
      }

      .cls-12, .cls-14 {
        stroke-miterlimit: 10;
      }

      .cls-13 {
        fill: #bcb3b1;
      }

      .cls-14 {
        stroke-width: 0.75px;
      }

      .cls-15 {
        fill: #7f7874;
      }
    </style>
    <linearGradient id="linear-gradient" x1="1.158" x2="0.024" y2="0.898" gradientUnits="objectBoundingBox">
      <stop offset="0" stop-color="#e8e4e2"/>
      <stop offset="0.23" stop-color="#fef1ec"/>
      <stop offset="0.49" stop-color="#bcb3b1"/>
      <stop offset="0.778" stop-color="#f6eeeb"/>
      <stop offset="1" stop-color="#bcb3b1"/>
    </linearGradient>
    <clipPath id="clip-path">
      <rect id="사각형_1210" data-name="사각형 1210" class="cls-1" width="35" height="35.26"/>
    </clipPath>
    <clipPath id="clip-path-2">
      <path id="패스_1379" data-name="패스 1379" class="cls-1" d="M.5,1.36a.937.937,0,0,0,1,.859.937.937,0,0,0,1-.859A.937.937,0,0,0,1.5.5a.937.937,0,0,0-1,.859" transform="translate(-0.5 -0.501)"/>
    </clipPath>
  </defs>
  <g id="거래등급_루키띠포함" data-name="거래등급 루키띠포함" transform="translate(0.5 0.5)">
    <g id="그룹_1552" data-name="그룹 1552">
      <path id="패스_1195" data-name="패스 1195" class="cls-2" d="M20,0H122a20,20,0,0,1,20,20V31a20,20,0,0,1-20,20H20A20,20,0,0,1,0,31V20A20,20,0,0,1,20,0"/>
    </g>
    <g id="그룹_1553" data-name="그룹 1553" class="cls-3" transform="translate(-7.529)">
      <path id="패스_1195-2" data-name="패스 1195" class="cls-4" d="M18.592,0h94.817C123.677,0,132,7.374,132,16.471v9.059C132,34.626,123.677,42,113.408,42H18.592C8.323,42,0,34.626,0,25.529V16.471C0,7.374,8.323,0,18.592,0" transform="translate(12.529 4.5)"/>
    </g>
    <g id="그룹_1554" data-name="그룹 1554" class="cls-5" transform="translate(-7.529)">
      <path id="패스_1195-3" data-name="패스 1195" class="cls-6" d="M18.592,0h94.817C123.677,0,132,7.374,132,16.471v9.059C132,34.626,123.677,42,113.408,42H18.592C8.323,42,0,34.626,0,25.529V16.471C0,7.374,8.323,0,18.592,0" transform="translate(12.529 4.5)"/>
    </g>
    <text id="루키" class="cls-7" transform="translate(26.857 33.196)"><tspan x="0" y="0">루키</tspan></text>
    <g id="그룹_1556" data-name="그룹 1556" transform="translate(90.143 8.196)">
      <g id="그룹_1465" data-name="그룹 1465" transform="translate(0 0)">
        <g id="그룹_1464" data-name="그룹 1464" class="cls-8" transform="translate(0 0)">
          <path id="패스_1376" data-name="패스 1376" class="cls-9" d="M34.646,17.573A17.073,17.073,0,1,1,17.573.5,17.073,17.073,0,0,1,34.646,17.573" transform="translate(-0.073 -0.073)"/>
        </g>
      </g>
      <g id="그룹_1467" data-name="그룹 1467" transform="translate(16.5 12.885)">
        <g id="그룹_1466" data-name="그룹 1466" class="cls-10" transform="translate(0 0)">
          <path id="패스_1377" data-name="패스 1377" class="cls-11" d="M25.757,2.812l.171-.1a.982.982,0,0,0-.406-.293l-.167.133a.8.8,0,0,1,.4.258" transform="translate(-24.112 -2.339)"/>
          <path id="패스_1378" data-name="패스 1378" class="cls-11" d="M2.265,26.29l.265-.152a.708.708,0,0,0,.647.36.849.849,0,0,0,.647-.41l.265.253a1.163,1.163,0,0,1-.9.4,1.2,1.2,0,0,1-.923-.451" transform="translate(-2.177 -24.989)"/>
        </g>
      </g>
      <g id="그룹_1469" data-name="그룹 1469" transform="translate(0 0)">
        <g id="그룹_1468" data-name="그룹 1468" class="cls-8" transform="translate(0 0)">
          <circle id="타원_121" data-name="타원 121" class="cls-12" cx="17.073" cy="17.073" r="17.073" transform="translate(0.427 0.427)"/>
          <path id="패스_1380" data-name="패스 1380" class="cls-13" d="M31.733,18.176A13.558,13.558,0,1,1,18.176,4.618,13.558,13.558,0,0,1,31.733,18.176" transform="translate(-0.676 -0.676)"/>
          <path id="패스_1381" data-name="패스 1381" class="cls-14" d="M31.733,18.176A13.558,13.558,0,1,1,18.176,4.618,13.558,13.558,0,0,1,31.733,18.176Z" transform="translate(-0.676 -0.676)"/>
          <path id="패스_1382" data-name="패스 1382" class="cls-15" d="M30.312,11.914A13.559,13.559,0,0,1,10.723,30.18Z" transform="translate(-1.569 -1.743)"/>
          <path id="패스_1383" data-name="패스 1383" class="cls-15" d="M4.841,18.414A13.558,13.558,0,0,1,18.4,4.856Z" transform="translate(-0.708 -0.71)"/>
          <path id="패스_1384" data-name="패스 1384" class="cls-16" d="M9.1,25.073a.876.876,0,0,1-.781-.454l.13-.185-.184.108.125-.193-.181.114-.3-.444.131-.18-.184.108.125-.193-.184.108-.363-.52A.851.851,0,0,1,7.4,22.258l5.374-7.164a2.559,2.559,0,0,1,2.039-1.02H26.292a.986.986,0,0,1,.884.537l-.14.178.189-.1.041.076.05.073-.127.2.183-.11-.123.207.173-.124-.12.208.179-.116.219.349-.134.185.2-.084-.146.167.2-.085.055.087-.147.166.2-.084.107.164-.143.172.2-.084-.145.168.2-.084.178.275-.156.149.209-.068a.914.914,0,0,1,.038,1.03l-.785,1.234a1.307,1.307,0,0,1-.785.556s.049.114.062.154a.661.661,0,0,1,.048.113.872.872,0,0,1-.083.8l-.786,1.234a1.328,1.328,0,0,1-.816.569.278.278,0,0,1,.015.027.878.878,0,0,1,.044,1.024l-.786,1.235a1.35,1.35,0,0,1-1.14.606Z" transform="translate(-1.057 -2.059)"/>
          <path id="패스_1385" data-name="패스 1385" class="cls-16" d="M26.256,14.25a.777.777,0,0,1,.695.423l0,0a.353.353,0,0,1,.019.03.509.509,0,0,1,.028.046c.009.015.018.028.026.043l.005.009c.007.009.012.02.019.03h0l.006.009c.009.014.017.028.026.043s.017.027.026.042.017.028.026.042.018.028.026.042l.026.043c.009.014.018.028.026.042s.019.028.026.043.019.027.027.042l.026.043.026.043a.443.443,0,0,1,.026.043c.009.014.019.027.027.043s.019.027.026.043a.364.364,0,0,1,.027.043c.009.014.02.027.027.043s.019.027.026.043.02.026.027.041.009.015.014.022l.009.014c.01.013.017.027.026.041s.017.028.026.042.018.028.027.042.018.028.027.042.018.028.027.042.018.028.027.042.018.028.027.042.018.028.027.042.018.028.027.043.018.027.027.042.018.027.027.042.018.028.027.042.018.028.027.043a149.655,149.655,0,0,0,.055.084c.01.014.019.028.028.042l.027.043c.009.014.019.027.027.042s.019.027.027.042.02.028.028.043.019.027.027.042.019.028.027.043a.45.45,0,0,1,.028.042c.009.014.019.027.027.042a.682.682,0,0,1,.015.765l-.786,1.235a1.124,1.124,0,0,1-.9.5c.007.015.012.031.018.046a3.456,3.456,0,0,0,.038.1.48.48,0,0,1,.02.049c.009.015.012.032.02.048a.683.683,0,0,1,.027.069.618.618,0,0,1,.038.092.7.7,0,0,1,.042.1.673.673,0,0,1-.059.621l-.785,1.235a1.135,1.135,0,0,1-.96.507h-.054a.609.609,0,0,1,.055.085.622.622,0,0,1,.073.108.7.7,0,0,1,.073.108.684.684,0,0,1,.052.811l-.785,1.235a1.135,1.135,0,0,1-.96.507H9.066a.658.658,0,0,1-.592-.341c-.006-.01-.015-.018-.02-.028s-.015-.019-.02-.029-.015-.018-.021-.028-.014-.018-.02-.028-.014-.019-.02-.028-.014-.019-.02-.029-.014-.018-.02-.028-.014-.018-.02-.028-.014-.019-.02-.028-.015-.019-.02-.029a.333.333,0,0,1-.02-.028.339.339,0,0,1-.02-.028c-.006-.01-.015-.018-.02-.028s-.015-.019-.02-.029a.335.335,0,0,1-.02-.028.331.331,0,0,1-.02-.028c-.006-.01-.015-.019-.02-.029a.331.331,0,0,1-.02-.028.337.337,0,0,1-.02-.028c-.006-.01-.015-.018-.02-.028s-.015-.019-.02-.029a.334.334,0,0,1-.02-.028.328.328,0,0,1-.02-.028c-.006-.01-.015-.018-.021-.028s-.014-.019-.02-.029-.014-.018-.02-.028a.329.329,0,0,1-.02-.028c-.006-.01-.015-.018-.02-.028s-.015-.019-.02-.029h0L7.9,23.648c0-.006-.009-.011-.013-.018h0c-.008-.009-.012-.02-.02-.028s-.012-.02-.02-.028-.012-.02-.02-.028-.012-.02-.02-.028-.012-.02-.02-.028-.012-.02-.02-.028-.012-.02-.02-.029-.012-.019-.02-.028-.012-.019-.02-.028a.334.334,0,0,1-.02-.028,94.2,94.2,0,0,0-.039-.056.339.339,0,0,1-.02-.028c-.008-.009-.013-.02-.02-.028s-.013-.02-.02-.028-.013-.02-.02-.028a.65.65,0,0,1-.037-.828l5.374-7.165a2.335,2.335,0,0,1,1.869-.935Zm0-.427H14.774a2.773,2.773,0,0,0-2.21,1.105L7.191,22.093a1.069,1.069,0,0,0,.037,1.341l.007.011.008.01.012.018.009.011a.293.293,0,0,0,.019.026l.012.02.008.009.012.019.009.011c.005.009.012.017.018.026l.012.02.009.01.012.019.009.01.018.026.013.02.008.01.012.018.009.011.018.025.013.02.008.01.012.019.009.011a.25.25,0,0,0,.017.025l.013.02v0l0,.008.009.012,0,.006.006.007,0,.008,0,0v0l.016.022,0,.007.025.033L7.617,24l0,.007.016.022,0,.007.025.033.011.016,0,.007.016.022,0,.007.024.032.012.017,0,.007.017.022,0,.007.024.032.012.017,0,.007.017.023,0,.005.024.033.012.017,0,.007.017.023,0,.005L7.9,24.4l.012.017,0,.006.017.023,0,.007.024.032.012.018,0,.007.016.022,0,.006.024.033.012.018,0,.006.017.023,0,.005.023.032.013.019,0,.006.018.025a1.091,1.091,0,0,0,.954.54h14.3a1.567,1.567,0,0,0,1.319-.7l.786-1.235a1.1,1.1,0,0,0,.079-1.048,1.509,1.509,0,0,0,.679-.572l.786-1.234a1.1,1.1,0,0,0,.1-1.006A.255.255,0,0,0,27.1,19.4a1.5,1.5,0,0,0,.679-.569l.786-1.234a1.11,1.11,0,0,0-.021-1.234h0l-.023-.035-.034-.052h0s-.013-.02-.026-.04a.4.4,0,0,0-.03-.046,82.768,82.768,0,0,1-.056-.085.379.379,0,0,0-.028-.044.331.331,0,0,0-.029-.044.312.312,0,0,0-.028-.044.362.362,0,0,0-.028-.042.242.242,0,0,0-.028-.044.3.3,0,0,0-.028-.043.371.371,0,0,0-.028-.044.284.284,0,0,0-.028-.042.249.249,0,0,0-.029-.044.262.262,0,0,0-.027-.042.2.2,0,0,0-.028-.044.231.231,0,0,0-.028-.044A.22.22,0,0,0,28,15.546s-.011-.021-.027-.043a.185.185,0,0,0-.028-.043h0a.174.174,0,0,0-.029-.043h0s-.005-.012-.016-.026l-.007-.015-.018-.025,0-.009-.032-.049-.007-.011-.018-.028-.364.224.337-.266-.365.223.338-.265-.365.222.338-.265-.365.222.337-.265-.365.223.338-.266-.365.223L27.654,15l-.03-.048s-.016-.026-.031-.049a.43.43,0,0,0-.028-.044.311.311,0,0,0-.027-.044s-.013-.022-.027-.044a.388.388,0,0,0-.027-.044.349.349,0,0,0-.028-.044.211.211,0,0,0-.027-.044.1.1,0,0,0-.013-.024c-.009-.014-.015-.026-.021-.034l-.023-.04c0-.005-.015-.026-.029-.048l-.005-.009-.026-.039a1.193,1.193,0,0,0-1.055-.621" transform="translate(-1.02 -2.023)"/>
          <path id="패스_1386" data-name="패스 1386" class="cls-11" d="M8.09,23.644A.866.866,0,0,1,7.4,22.258l5.374-7.165a2.561,2.561,0,0,1,2.04-1.019H26.293a1,1,0,0,1,.863,1.509L26.381,16.9a1.318,1.318,0,0,1-1.13.645H15.274l-4.571,6.1Z" transform="translate(-1.057 -2.059)"/>
          <path id="패스_1387" data-name="패스 1387" class="cls-16" d="M26.256,14.25a.788.788,0,0,1,.68,1.187l-.776,1.319a1.1,1.1,0,0,1-.946.541H15.13l-4.571,6.1h-2.5a.652.652,0,0,1-.522-1.043l5.374-7.165a2.337,2.337,0,0,1,1.87-.935Zm0-.427H14.775a2.776,2.776,0,0,0-2.211,1.105L7.19,22.093a1.079,1.079,0,0,0,.864,1.726h2.718l.128-.171,4.443-5.924h9.871a1.529,1.529,0,0,0,1.314-.751l.776-1.319a1.216,1.216,0,0,0-1.047-1.831" transform="translate(-1.021 -2.023)"/>
          <path id="패스_1388" data-name="패스 1388" class="cls-13" d="M14.689,16.058c-.455,0-4.769,5.882-6.065,7.662H10.8l4.571-6.1H25.456a1.1,1.1,0,0,0,.947-.541l.6-1.026Z" transform="translate(-1.262 -2.35)"/>
          <path id="패스_1389" data-name="패스 1389" class="cls-9" d="M13.324,21.117l2.605-3.474h9.733a1,1,0,0,1,.863,1.509l-.775,1.319a1.318,1.318,0,0,1-1.131.646Z" transform="translate(-1.95 -2.582)"/>
          <path id="패스_1390" data-name="패스 1390" class="cls-16" d="M25.589,17.821a.788.788,0,0,1,.68,1.187l-.776,1.319a1.1,1.1,0,0,1-.946.541H13.678l2.285-3.048Zm0-.427H15.749l-.128.171-2.285,3.048-.512.683H24.546a1.528,1.528,0,0,0,1.314-.752l.776-1.318a1.215,1.215,0,0,0-1.047-1.831" transform="translate(-1.877 -2.545)"/>
          <path id="패스_1391" data-name="패스 1391" class="cls-15" d="M14.967,19.679,13.823,21.2h10.87a1.1,1.1,0,0,0,.946-.541l.578-.983Z" transform="translate(-2.023 -2.88)"/>
          <path id="패스_1392" data-name="패스 1392" class="cls-13" d="M10.673,24.688l2.605-3.474H23.749a1,1,0,0,1,.864,1.509l-.776,1.319a1.317,1.317,0,0,1-1.13.646Z" transform="translate(-1.562 -3.104)"/>
          <path id="패스_1393" data-name="패스 1393" class="cls-16" d="M23.677,21.391a.788.788,0,0,1,.68,1.187L23.581,23.9a1.1,1.1,0,0,1-.946.541H11.027l2.286-3.048Zm0-.427H13.1l-.128.171-2.286,3.048-.512.683H22.635a1.528,1.528,0,0,0,1.314-.752l.776-1.318a1.215,1.215,0,0,0-1.047-1.831" transform="translate(-1.489 -3.068)"/>
          <path id="패스_1394" data-name="패스 1394" class="cls-15" d="M12.206,23.395l-1.033,1.377H22.78a1.1,1.1,0,0,0,.947-.541l.578-.983Z" transform="translate(-1.635 -3.402)"/>
        </g>
      </g>
    </g>
  </g>
</svg>
