<svg xmlns="http://www.w3.org/2000/svg" width="143" height="52" viewBox="0 0 143 52">
    <defs>
        <clipPath id="exrsrl9wqb">
            <path data-name="사각형 1212" style="fill:none" d="M0 0h41.446v35.448H0z"/>
        </clipPath>
        <clipPath id="0oe09r148c">
            <path data-name="패스 1433" d="M16.458 11.777A1.726 1.726 0 0 0 15 12.6l-3.091 4.936a1.822 1.822 0 0 0 .131 2.11l8.5 10.4a1.706 1.706 0 0 0 2.625.04l8.995-10.369a1.819 1.819 0 0 0 .1-2.246L28.673 12.5a1.72 1.72 0 0 0-1.4-.721z" transform="translate(-11.632 -11.777)" style="fill:none"/>
        </clipPath>
        <clipPath id="e2h0c0h6qd">
            <path data-name="패스 1453" d="m22.151 1.814-.69 1.435a.818.818 0 0 1-.615.458l-1.541.23a.843.843 0 0 0-.451 1.429l1.115 1.117a.846.846 0 0 1 .235.741L19.94 8.8a.82.82 0 0 0 1.183.883L22.5 8.94a.8.8 0 0 1 .759 0l1.378.744a.821.821 0 0 0 1.188-.884l-.264-1.578a.852.852 0 0 1 .235-.741l1.116-1.117a.843.843 0 0 0-.452-1.429l-1.541-.23a.818.818 0 0 1-.614-.458l-.69-1.435a.807.807 0 0 0-1.463 0" transform="translate(-18.606 -1.348)" style="fill:none"/>
        </clipPath>
        <clipPath id="ckdzwx8ace">
            <path data-name="패스 1464" d="m31.759 6.2-.549 1.139a.649.649 0 0 1-.489.365l-1.227.183a.672.672 0 0 0-.361 1.138l.888.889a.68.68 0 0 1 .188.59L30 11.76a.653.653 0 0 0 .942.7l1.1-.593a.628.628 0 0 1 .6 0l1.1.593a.654.654 0 0 0 .943-.7l-.212-1.26a.68.68 0 0 1 .188-.59l.888-.889a.672.672 0 0 0-.361-1.138L33.962 7.7a.649.649 0 0 1-.489-.365L32.924 6.2a.642.642 0 0 0-1.165 0" transform="translate(-28.937 -5.826)" style="fill:none"/>
        </clipPath>
        <clipPath id="dfmi079c3f">
            <path data-name="패스 1475" d="m13.074 6.2-.549 1.141a.65.65 0 0 1-.489.365l-1.228.183a.672.672 0 0 0-.36 1.138l.888.889a.677.677 0 0 1 .187.59l-.21 1.256a.653.653 0 0 0 .942.7l1.1-.593a.63.63 0 0 1 .6 0l1.1.593a.653.653 0 0 0 .942-.7l-.21-1.256a.677.677 0 0 1 .187-.59l.888-.889a.672.672 0 0 0-.36-1.138L15.277 7.7a.652.652 0 0 1-.489-.365L14.239 6.2a.642.642 0 0 0-1.165 0" transform="translate(-10.253 -5.826)" style="fill:none"/>
        </clipPath>
        <linearGradient id="ge392ruw8a" x1=".958" y1=".144" x2=".08" y2="1" gradientUnits="objectBoundingBox">
            <stop offset="0" stop-color="#fff7c7"/>
            <stop offset=".197" stop-color="#cef4d8"/>
            <stop offset=".443" stop-color="#fceeff"/>
            <stop offset=".699" stop-color="#fafafa"/>
            <stop offset="1" stop-color="#c7e3f9"/>
        </linearGradient>
    </defs>
    <g data-name="거래등급 다이아띠포함">
        <path data-name="패스 1616" d="M20 0h102a20 20 0 0 1 20 20v11a20 20 0 0 1-20 20H20A20 20 0 0 1 0 31V20A20 20 0 0 1 20 0" style="stroke:#6590ce;fill:url(#ge392ruw8a)" transform="translate(.5 .5)"/>
        <g data-name="그룹 1585" style="opacity:.35;mix-blend-mode:overlay;isolation:isolate">
            <path data-name="패스 1195" d="M18.592 0h94.817C123.677 0 132 7.374 132 16.471v9.059c0 9.096-8.323 16.47-18.592 16.47H18.592C8.323 42 0 34.626 0 25.529v-9.058C0 7.374 8.323 0 18.592 0" transform="translate(5.5 5.5)" style="fill:#fff"/>
        </g>
        <g data-name="그룹 1586" style="opacity:.75">
            <path data-name="패스 1195" d="M18.592 0h94.817C123.677 0 132 7.374 132 16.471v9.059c0 9.096-8.323 16.47-18.592 16.47H18.592C8.323 42 0 34.626 0 25.529v-9.058C0 7.374 8.323 0 18.592 0" transform="translate(5.5 5.5)" style="stroke:#8bb0de;fill:none"/>
        </g>
        <text transform="translate(48.5 33.5)" style="font-size:20px;font-family:Pretendard-Bold,Pretendard;font-weight:700;fill:#6a56e2"><tspan x="-25.928" y="0">다이아</tspan></text>
        <g data-name="그룹 1587">
            <g data-name="그룹 1472">
                <g data-name="그룹 1471" style="clip-path:url(#exrsrl9wqb)" transform="translate(86.5 8.65)">
                    <path data-name="패스 1396" d="M27.772 16.075a.436.436 0 0 1-.236-.069.442.442 0 0 1-.2-.372v-4.712a.441.441 0 0 1 .253-.4L42.935 3.3a.9.9 0 0 1 .388-.087.913.913 0 0 1 .912.912v1.217a4.8 4.8 0 0 1-2.743 4.324L27.96 16.033a.439.439 0 0 1-.188.042" transform="translate(-3.23 -.38)" style="fill:#cef4d8"/>
                    <path data-name="패스 1397" d="M43.264 3.594a.471.471 0 0 1 .471.472v1.217a4.338 4.338 0 0 1-2.491 3.925l-13.531 6.367v-4.712l15.351-7.224a.468.468 0 0 1 .2-.045m0-.882a1.331 1.331 0 0 0-.576.13l-15.351 7.223a.883.883 0 0 0-.506.8v4.713a.882.882 0 0 0 1.257.8l13.531-6.368a5.241 5.241 0 0 0 3-4.723V4.066a1.354 1.354 0 0 0-1.353-1.354" transform="translate(-3.17 -.321)" style="fill:#0a0444"/>
                    <path data-name="패스 1398" d="M27.831 13.408v2.5l13.531-6.366a4.338 4.338 0 0 0 2.491-3.925v-.079z" transform="translate(-3.289 -.655)" style="fill:#064156"/>
                    <path data-name="패스 1399" d="M42.393 38.205a.825.825 0 0 1-.36-.081l-13.142-6.183a.444.444 0 0 1-.253-.4v-4.033a.442.442 0 0 1 .441-.441.436.436 0 0 1 .188.042l11.584 5.452a4.167 4.167 0 0 1 2.385 3.758v1.042a.843.843 0 0 1-.843.844" transform="translate(-3.384 -3.199)" style="fill:#c7e3f9"/>
                    <path data-name="패스 1400" d="M29.02 27.449 40.6 32.9a3.713 3.713 0 0 1 2.132 3.36v1.04a.4.4 0 0 1-.575.365L29.02 31.483zm0-.882a.882.882 0 0 0-.882.882v4.034a.883.883 0 0 0 .506.8l13.142 6.184a1.284 1.284 0 0 0 1.832-1.167v-1.04a4.613 4.613 0 0 0-2.639-4.16L29.4 26.651a.88.88 0 0 0-.376-.084" transform="translate(-3.325 -3.14)" style="fill:#0a0444"/>
                    <path data-name="패스 1401" d="M29.138 29.708v-2.141l11.584 5.452a3.713 3.713 0 0 1 2.132 3.36v.068z" transform="translate(-3.443 -3.258)" style="fill:#064156"/>
                    <path data-name="패스 1402" d="M42.393 33.212a.825.825 0 0 1-.36-.081l-13.142-6.183a.444.444 0 0 1-.253-.4v-4.034a.442.442 0 0 1 .441-.441.436.436 0 0 1 .188.042l11.584 5.452a4.17 4.17 0 0 1 2.385 3.758v1.043a.844.844 0 0 1-.843.844" transform="translate(-3.384 -2.609)" style="fill:#c7e3f9"/>
                    <path data-name="패스 1403" d="m29.02 22.455 11.58 5.451a3.713 3.713 0 0 1 2.132 3.36v1.042a.4.4 0 0 1-.575.365L29.02 26.489zm0-.882a.882.882 0 0 0-.882.882v4.034a.883.883 0 0 0 .506.8l13.142 6.184a1.284 1.284 0 0 0 1.832-1.163v-1.044a4.613 4.613 0 0 0-2.638-4.158L29.4 21.657a.88.88 0 0 0-.376-.084" transform="translate(-3.325 -2.549)" style="fill:#0a0444"/>
                    <path data-name="패스 1404" d="M29.138 24.714v-2.141l11.584 5.452a3.713 3.713 0 0 1 2.132 3.36v.068z" transform="translate(-3.443 -2.668)" style="fill:#6590ce"/>
                    <path data-name="패스 1405" d="M2.651 38.205a.846.846 0 0 1-.844-.844v-1.042a4.169 4.169 0 0 1 2.385-3.758l11.584-5.452a.436.436 0 0 1 .188-.042.442.442 0 0 1 .441.441v4.034a.444.444 0 0 1-.253.4L3.01 38.124a.821.821 0 0 1-.359.081" transform="translate(-.214 -3.199)" style="fill:#c7e3f9"/>
                    <path data-name="패스 1406" d="M15.9 27.449v4.034L2.764 37.668a.4.4 0 0 1-.575-.365V36.26a3.712 3.712 0 0 1 2.133-3.36zm0-.882a.88.88 0 0 0-.376.084L3.945 32.1a4.613 4.613 0 0 0-2.638 4.16v1.04a1.284 1.284 0 0 0 1.832 1.163l13.142-6.184a.883.883 0 0 0 .506-.8v-4.03a.882.882 0 0 0-.882-.882" transform="translate(-.154 -3.14)" style="fill:#0a0444"/>
                    <path data-name="패스 1407" d="M16.023 29.708v-2.141L4.44 33.019a3.712 3.712 0 0 0-2.133 3.36v.068z" transform="translate(-.273 -3.258)" style="fill:#064156"/>
                    <path data-name="패스 1408" d="M2.651 33.212a.846.846 0 0 1-.844-.844v-1.043a4.171 4.171 0 0 1 2.385-3.758l11.584-5.452a.436.436 0 0 1 .188-.042.442.442 0 0 1 .441.441v4.034a.444.444 0 0 1-.253.4L3.01 33.131a.821.821 0 0 1-.359.081" transform="translate(-.214 -2.609)" style="fill:#c7e3f9"/>
                    <path data-name="패스 1409" d="M15.9 22.455v4.034L2.764 32.674a.4.4 0 0 1-.575-.365v-1.043a3.712 3.712 0 0 1 2.133-3.36zm0-.882a.88.88 0 0 0-.376.084L3.945 27.108a4.613 4.613 0 0 0-2.638 4.158v1.042a1.284 1.284 0 0 0 1.832 1.163l13.142-6.184a.883.883 0 0 0 .506-.8v-4.032a.882.882 0 0 0-.882-.882" transform="translate(-.154 -2.549)" style="fill:#0a0444"/>
                    <path data-name="패스 1410" d="M16.023 24.714v-2.141L4.44 28.025a3.712 3.712 0 0 0-2.133 3.36v.068z" transform="translate(-.273 -2.668)" style="fill:#6590ce"/>
                    <path data-name="패스 1411" d="M27.772 21.908a.436.436 0 0 1-.236-.069.442.442 0 0 1-.2-.372v-4.713a.441.441 0 0 1 .253-.4l15.346-7.222a.887.887 0 0 1 .389-.088.914.914 0 0 1 .911.913v1.217a4.8 4.8 0 0 1-2.743 4.326L27.96 21.866a.439.439 0 0 1-.188.042" transform="translate(-3.23 -1.069)" style="fill:#c7e3f9"/>
                    <path data-name="패스 1412" d="M43.264 9.427a.471.471 0 0 1 .471.472v1.217a4.338 4.338 0 0 1-2.491 3.925l-13.531 6.367V16.7l15.351-7.228a.468.468 0 0 1 .2-.045m0-.882a1.331 1.331 0 0 0-.576.13L27.337 15.9a.883.883 0 0 0-.506.8v4.713a.882.882 0 0 0 1.257.8l13.531-6.368a5.241 5.241 0 0 0 3-4.723V9.9a1.354 1.354 0 0 0-1.353-1.354" transform="translate(-3.17 -1.01)" style="fill:#0a0444"/>
                    <path data-name="패스 1413" d="M27.831 19.241v2.5l13.531-6.368a4.338 4.338 0 0 0 2.491-3.925v-.078z" transform="translate(-3.289 -1.344)" style="fill:#6590ce"/>
                    <path data-name="패스 1414" d="M27.772 27.741a.436.436 0 0 1-.236-.069.442.442 0 0 1-.2-.372v-4.712a.441.441 0 0 1 .253-.4l15.351-7.223a.887.887 0 0 1 .389-.088.914.914 0 0 1 .911.913v1.217a4.8 4.8 0 0 1-2.743 4.324L27.96 27.7a.439.439 0 0 1-.188.042" transform="translate(-3.23 -1.758)" style="fill:#fceeff"/>
                    <path data-name="패스 1415" d="M43.264 15.26a.471.471 0 0 1 .471.472v1.217a4.338 4.338 0 0 1-2.491 3.925l-13.531 6.367v-4.712L43.064 15.3a.468.468 0 0 1 .2-.045m0-.882a1.333 1.333 0 0 0-.576.13l-15.351 7.229a.881.881 0 0 0-.506.8v4.713a.882.882 0 0 0 1.257.8l13.531-6.368a5.241 5.241 0 0 0 3-4.723v-1.222a1.354 1.354 0 0 0-1.353-1.354" transform="translate(-3.17 -1.699)" style="fill:#0a0444"/>
                    <path data-name="패스 1416" d="M27.831 25.074v2.5l13.531-6.368a4.338 4.338 0 0 0 2.491-3.925V17.2z" transform="translate(-3.289 -2.033)" style="fill:#d778ff"/>
                    <path data-name="패스 1417" d="M16.963 16.075a.439.439 0 0 1-.188-.042L3.244 9.665A4.8 4.8 0 0 1 .5 5.342V4.124a.913.913 0 0 1 .912-.912.9.9 0 0 1 .388.088l15.351 7.225a.441.441 0 0 1 .253.4v4.713a.442.442 0 0 1-.2.372.436.436 0 0 1-.236.069" transform="translate(-.059 -.38)" style="fill:#fceeff"/>
                    <path data-name="패스 1418" d="M1.353 3.594a.468.468 0 0 1 .2.045L16.9 10.863v4.713L3.373 9.208A4.338 4.338 0 0 1 .882 5.283V4.066a.471.471 0 0 1 .471-.472m0-.882A1.354 1.354 0 0 0 0 4.066v1.217a5.241 5.241 0 0 0 3 4.723l13.531 6.368a.882.882 0 0 0 1.257-.8v-4.711a.883.883 0 0 0-.506-.8L1.929 2.842a1.333 1.333 0 0 0-.576-.13" transform="translate(0 -.321)" style="fill:#0a0444"/>
                    <path data-name="패스 1419" d="M17.022 13.408v2.5L3.491 9.542A4.338 4.338 0 0 1 1 5.616v-.078z" transform="translate(-.118 -.655)" style="fill:#d778ff"/>
                    <path data-name="패스 1420" d="M16.963 21.908a.439.439 0 0 1-.188-.042L3.244 15.5A4.8 4.8 0 0 1 .5 11.174V9.957a.914.914 0 0 1 .912-.913.892.892 0 0 1 .389.088l15.35 7.223a.441.441 0 0 1 .253.4v4.713a.442.442 0 0 1-.2.372.436.436 0 0 1-.236.069" transform="translate(-.059 -1.069)" style="fill:#cef4d8"/>
                    <path data-name="패스 1421" d="M1.353 9.427a.468.468 0 0 1 .2.045L16.9 16.7v4.713L3.373 15.041a4.338 4.338 0 0 1-2.491-3.925V9.9a.471.471 0 0 1 .471-.472m0-.882A1.354 1.354 0 0 0 0 9.9v1.217a5.241 5.241 0 0 0 3 4.723l13.531 6.368a.882.882 0 0 0 1.257-.8V16.7a.883.883 0 0 0-.506-.8L1.929 8.675a1.333 1.333 0 0 0-.576-.13" transform="translate(0 -1.01)" style="fill:#0a0444"/>
                    <path data-name="패스 1422" d="M17.022 19.241v2.5L3.491 15.375A4.338 4.338 0 0 1 1 11.449v-.078z" transform="translate(-.118 -1.344)" style="fill:#064156"/>
                    <path data-name="패스 1423" d="M16.963 27.741a.439.439 0 0 1-.188-.042L3.244 21.331A4.8 4.8 0 0 1 .5 17.008v-1.217a.914.914 0 0 1 .912-.913.892.892 0 0 1 .389.088l15.35 7.223a.441.441 0 0 1 .253.4V27.3a.442.442 0 0 1-.2.372.436.436 0 0 1-.236.069" transform="translate(-.059 -1.758)" style="fill:#fceeff"/>
                    <path data-name="패스 1424" d="M1.353 15.26a.468.468 0 0 1 .2.045L16.9 22.529v4.713L3.373 20.874a4.338 4.338 0 0 1-2.491-3.925v-1.217a.471.471 0 0 1 .471-.472m0-.882A1.354 1.354 0 0 0 0 15.732v1.217a5.241 5.241 0 0 0 3 4.723l13.531 6.368a.882.882 0 0 0 1.257-.8v-4.711a.881.881 0 0 0-.506-.8L1.929 14.508a1.333 1.333 0 0 0-.576-.13" transform="translate(0 -1.699)" style="fill:#0a0444"/>
                    <path data-name="패스 1425" d="M17.022 25.074v2.5L3.491 21.208A4.338 4.338 0 0 1 1 17.282V17.2z" transform="translate(-.118 -2.033)" style="fill:#6a56e2"/>
                    <path data-name="패스 1426" d="M16.458 11.777h10.819a1.722 1.722 0 0 1 1.394.721l3.587 4.974a1.819 1.819 0 0 1-.1 2.246L23.166 30.08a1.707 1.707 0 0 1-2.625-.04l-8.5-10.4a1.822 1.822 0 0 1-.131-2.11L15 12.6a1.727 1.727 0 0 1 1.46-.818" transform="translate(-1.374 -1.392)" style="fill:#fceeff"/>
                </g>
            </g>
            <g data-name="그룹 1474">
                <g data-name="그룹 1473" style="clip-path:url(#0oe09r148c)" transform="translate(96.757 19.035)">
                    <path data-name="패스 1427" d="m22.642 12.088-3.9 6.49h8.011z" transform="translate(-12.472 -11.814)" style="fill:#cef4d8"/>
                    <path data-name="패스 1428" d="m10.09 18.273 7.422.22-4.006-7.124z" transform="translate(-11.449 -11.729)" style="fill:#c7e3f9"/>
                    <path data-name="패스 1429" d="m35.485 18.273-7.422.22 4.006-7.124z" transform="translate(-13.573 -11.729)" style="fill:#d778ff"/>
                    <path data-name="패스 1430" d="M18.746 19.872 21.7 32.42h2.1l2.95-12.548z" transform="translate(-12.472 -12.734)" style="fill:#d778ff"/>
                    <path data-name="패스 1431" d="m27.963 19.872-2.528 11.25 9.691-11.25z" transform="translate(-13.263 -12.734)" style="fill:#c7e3f9"/>
                    <path data-name="패스 1432" d="m17.308 19.872 2.528 11.25-9.691-11.25z" transform="translate(-11.456 -12.734)" style="fill:#6a56e2"/>
                </g>
            </g>
            <g data-name="그룹 1476">
                <g data-name="그룹 1475" style="clip-path:url(#exrsrl9wqb)" transform="translate(86.5 8.65)">
                    <path data-name="패스 1434" d="m30.884 12.26 3.587 4.973a1.823 1.823 0 0 1 .087 1.986h2.681a4.485 4.485 0 0 0-.736-3.531l-3.587-4.973a4.268 4.268 0 0 0-.955-.952l-1.651 1.99a1.751 1.751 0 0 1 .574.507" transform="translate(-3.582 -1.154)" style="fill:#c7e3f9"/>
                    <path data-name="패스 1435" d="m30.884 12.26 3.587 4.973a1.823 1.823 0 0 1 .087 1.986h2.681a4.485 4.485 0 0 0-.736-3.531l-3.587-4.973a4.268 4.268 0 0 0-.955-.952l-1.651 1.99a1.751 1.751 0 0 1 .574.507z" transform="translate(-3.582 -1.154)" style="stroke:#0a0444;stroke-miterlimit:10;stroke-width:.75px;fill:none"/>
                    <path data-name="패스 1436" d="M33.73 20.486a1.723 1.723 0 0 1-.187.261l-8.994 10.362a1.709 1.709 0 0 1-1.261.593v2.6a4.221 4.221 0 0 0 3.148-1.464l8.994-10.363a4.4 4.4 0 0 0 .981-1.989z" transform="translate(-2.752 -2.421)" style="fill:#6a56e2"/>
                    <path data-name="패스 1437" d="M33.73 20.486a1.723 1.723 0 0 1-.187.261l-8.994 10.362a1.709 1.709 0 0 1-1.261.593v2.6a4.221 4.221 0 0 0 3.148-1.464l8.994-10.363a4.4 4.4 0 0 0 .981-1.989z" transform="translate(-2.752 -2.421)" style="stroke:#0a0444;stroke-miterlimit:10;stroke-width:.75px;fill:none"/>
                    <path data-name="패스 1438" d="M21.551 31.706a1.711 1.711 0 0 1-1.33-.636l-8.5-10.4a1.611 1.611 0 0 1-.128-.185h-2.71a4.427 4.427 0 0 0 .9 1.855l8.5 10.4a4.211 4.211 0 0 0 3.268 1.56h.034v-2.6h-.034" transform="translate(-1.05 -2.421)" style="fill:#cef4d8"/>
                    <path data-name="패스 1439" d="M21.551 31.706a1.711 1.711 0 0 1-1.33-.636l-8.5-10.4a1.611 1.611 0 0 1-.128-.185h-2.71a4.427 4.427 0 0 0 .9 1.855l8.5 10.4a4.211 4.211 0 0 0 3.268 1.56h.034v-2.6c-.011 0-.023.006-.034.006z" transform="translate(-1.05 -2.421)" style="stroke:#0a0444;stroke-miterlimit:10;stroke-width:.75px;fill:none"/>
                    <path data-name="패스 1440" d="M16.751 11.429h10.82a1.7 1.7 0 0 1 .821.214l1.651-1.989a4.2 4.2 0 0 0-2.472-.821h-10.82a4.175 4.175 0 0 0-2.683.984l1.638 1.974a1.7 1.7 0 0 1 1.045-.362" transform="translate(-1.662 -1.044)" style="fill:#d778ff"/>
                    <path data-name="패스 1441" d="M16.751 11.429h10.82a1.7 1.7 0 0 1 .821.214l1.651-1.989a4.2 4.2 0 0 0-2.472-.821h-10.82a4.175 4.175 0 0 0-2.683.984l1.638 1.974a1.7 1.7 0 0 1 1.045-.362z" transform="translate(-1.662 -1.044)" style="stroke:#0a0444;stroke-miterlimit:10;stroke-width:.75px;fill:none"/>
                    <path data-name="패스 1442" d="m11.574 17.316 3.091-4.937a1.758 1.758 0 0 1 .415-.456l-1.639-1.974a4.341 4.341 0 0 0-.9 1.026l-3.094 4.937a4.461 4.461 0 0 0-.577 3.329h2.706a1.819 1.819 0 0 1 0-1.925" transform="translate(-1.036 -1.176)" style="fill:#ffd67b"/>
                    <path data-name="패스 1443" d="m11.574 17.316 3.091-4.937a1.758 1.758 0 0 1 .415-.456l-1.639-1.974a4.341 4.341 0 0 0-.9 1.026l-3.094 4.937a4.461 4.461 0 0 0-.577 3.329h2.706a1.819 1.819 0 0 1-.002-1.925z" transform="translate(-1.036 -1.176)" style="stroke:#0a0444;stroke-miterlimit:10;stroke-width:.75px;fill:none"/>
                    <path data-name="패스 1444" d="m23.614 1.814.69 1.435a.816.816 0 0 0 .614.458l1.542.23a.844.844 0 0 1 .452 1.429L25.8 6.483a.853.853 0 0 0-.235.742l.26 1.575a.82.82 0 0 1-1.183.883l-1.38-.743a.8.8 0 0 0-.759 0l-1.379.744A.82.82 0 0 1 19.94 8.8l.26-1.576a.853.853 0 0 0-.235-.742l-1.112-1.116a.844.844 0 0 1 .452-1.429l1.541-.23a.816.816 0 0 0 .615-.458l.69-1.435a.806.806 0 0 1 1.463 0" transform="translate(-2.199 -.159)" style="fill:#fff"/>
                </g>
            </g>
            <g data-name="그룹 1478">
                <g data-name="그룹 1477" style="clip-path:url(#e2h0c0h6qd)" transform="translate(102.907 9.839)">
                    <path data-name="패스 1445" d="M22.963.469V5.2l-3.338-3.85S20.42.212 21.055.049a4.14 4.14 0 0 1 1.907.42" transform="translate(-18.726 -1.191)" style="fill:#6590ce"/>
                    <path data-name="패스 1446" d="m19.416 2.124 3.261 3.348-5.011-.3a4.083 4.083 0 0 1 .112-1.961 4.213 4.213 0 0 1 1.638-1.088" transform="translate(-18.486 -1.44)" style="fill:#c7e3f9"/>
                    <path data-name="패스 1447" d="M18.047 5.975h4.612L18.91 9.4s-1.11-.814-1.272-1.466a4.442 4.442 0 0 1 .409-1.959" transform="translate(-18.488 -1.895)" style="fill:#d778ff"/>
                    <path data-name="패스 1448" d="m19.66 9.377 3.261-3.348-.291 5.146a3.777 3.777 0 0 1-1.911-.116 4.357 4.357 0 0 1-1.059-1.682" transform="translate(-18.731 -1.901)" style="fill:#fceeff"/>
                    <path data-name="패스 1449" d="M23.41 10.786V6.051L26.748 9.9s-.795 1.142-1.43 1.305a4.128 4.128 0 0 1-1.907-.42" transform="translate(-19.174 -1.904)" style="fill:#6a56e2"/>
                    <path data-name="패스 1450" d="m26.723 9.377-3.261-3.348 5.011.3a4.083 4.083 0 0 1-.112 1.961 4.213 4.213 0 0 1-1.638 1.088" transform="translate(-19.18 -1.901)" style="fill:#ffd67b"/>
                    <path data-name="패스 1451" d="M28.1 5.516h-4.616l3.75-3.428s1.113.817 1.272 1.469a4.442 4.442 0 0 1-.406 1.959" transform="translate(-19.182 -1.435)" style="fill:#fff7c7"/>
                    <path data-name="패스 1452" d="m26.723 1.873-3.261 3.348.291-5.145a3.777 3.777 0 0 1 1.911.116 4.357 4.357 0 0 1 1.059 1.682" transform="translate(-19.18 -1.189)" style="fill:#fceeff"/>
                </g>
            </g>
            <g data-name="그룹 1480">
                <g data-name="그룹 1479" style="clip-path:url(#exrsrl9wqb)" transform="translate(86.5 8.65)">
                    <path data-name="패스 1454" d="m23.614 1.814.69 1.435a.816.816 0 0 0 .614.458l1.542.23a.844.844 0 0 1 .452 1.429L25.8 6.483a.853.853 0 0 0-.235.742l.26 1.575a.82.82 0 0 1-1.183.883l-1.38-.743a.8.8 0 0 0-.759 0l-1.379.744A.82.82 0 0 1 19.94 8.8l.26-1.576a.853.853 0 0 0-.235-.742l-1.112-1.116a.844.844 0 0 1 .452-1.429l1.541-.23a.816.816 0 0 0 .615-.458l.69-1.435a.806.806 0 0 1 1.463 0z" transform="translate(-2.199 -.159)" style="stroke:#0a0444;stroke-miterlimit:10;stroke-width:.75px;fill:none"/>
                    <path data-name="패스 1455" d="m32.924 6.2.549 1.142a.654.654 0 0 0 .489.365l1.228.183a.672.672 0 0 1 .36 1.138l-.888.889a.677.677 0 0 0-.187.59l.21 1.256a.654.654 0 0 1-.943.7l-1.1-.593a.633.633 0 0 0-.6 0l-1.1.593a.653.653 0 0 1-.942-.7l.209-1.256a.679.679 0 0 0-.186-.59l-.888-.889a.672.672 0 0 1 .36-1.138l1.227-.183a.652.652 0 0 0 .489-.365l.548-1.142a.642.642 0 0 1 1.165 0" transform="translate(-3.419 -.689)" style="fill:#fff"/>
                </g>
            </g>
            <g data-name="그룹 1482">
                <g data-name="그룹 1481" style="clip-path:url(#ckdzwx8ace)" transform="translate(112.018 13.788)">
                    <path data-name="패스 1456" d="M32.406 5.127V8.9l-2.657-3.068s.632-.909 1.138-1.039a3.287 3.287 0 0 1 1.519.334" transform="translate(-29.033 -5.701)" style="fill:#6590ce"/>
                    <path data-name="패스 1457" d="m29.581 6.444 2.6 2.666-3.989-.238a3.253 3.253 0 0 1 .089-1.562 3.357 3.357 0 0 1 1.3-.866" transform="translate(-28.842 -5.899)" style="fill:#c7e3f9"/>
                    <path data-name="패스 1458" d="M28.493 9.51h3.671l-2.984 2.728s-.886-.65-1.012-1.169a3.528 3.528 0 0 1 .325-1.559" transform="translate(-28.844 -6.261)" style="fill:#d778ff"/>
                    <path data-name="패스 1459" d="m29.776 12.218 2.6-2.665-.232 4.1a3 3 0 0 1-1.521-.092 3.469 3.469 0 0 1-.843-1.339" transform="translate(-29.036 -6.266)" style="fill:#fceeff"/>
                    <path data-name="패스 1460" d="M32.762 13.34V9.571l2.657 3.064s-.632.909-1.138 1.039a3.287 3.287 0 0 1-1.519-.334" transform="translate(-29.389 -6.269)" style="fill:#6a56e2"/>
                    <path data-name="패스 1461" d="m35.4 12.218-2.6-2.665 3.989.237a3.253 3.253 0 0 1-.089 1.562 3.357 3.357 0 0 1-1.3.866" transform="translate(-29.394 -6.266)" style="fill:#ffd67b"/>
                    <path data-name="패스 1462" d="M36.492 9.144H32.82l2.98-2.728s.886.65 1.013 1.169a3.541 3.541 0 0 1-.325 1.559" transform="translate(-29.396 -5.896)" style="fill:#fff7c7"/>
                    <path data-name="패스 1463" d="M35.4 6.244 32.8 8.91l.232-4.1a3 3 0 0 1 1.521.092 3.469 3.469 0 0 1 .847 1.342" transform="translate(-29.394 -5.699)" style="fill:#fceeff"/>
                </g>
            </g>
            <g data-name="그룹 1484">
                <g data-name="그룹 1483" style="clip-path:url(#exrsrl9wqb)" transform="translate(86.5 8.65)">
                    <path data-name="패스 1465" d="m32.924 6.2.549 1.142a.654.654 0 0 0 .489.365l1.228.183a.672.672 0 0 1 .36 1.138l-.888.889a.677.677 0 0 0-.187.59l.21 1.256a.654.654 0 0 1-.943.7l-1.1-.593a.633.633 0 0 0-.6 0l-1.1.593a.653.653 0 0 1-.942-.7l.209-1.256a.679.679 0 0 0-.186-.59l-.888-.889a.672.672 0 0 1 .36-1.138l1.227-.183a.652.652 0 0 0 .489-.365l.548-1.142a.642.642 0 0 1 1.165 0z" transform="translate(-3.419 -.689)" style="stroke:#0a0444;stroke-miterlimit:10;stroke-width:.75px;fill:none"/>
                    <path data-name="패스 1466" d="m14.239 6.2.549 1.142a.654.654 0 0 0 .489.365l1.228.183a.672.672 0 0 1 .36 1.138l-.888.889a.677.677 0 0 0-.187.59L16 11.76a.654.654 0 0 1-.943.7l-1.1-.593a.633.633 0 0 0-.6 0l-1.1.593a.653.653 0 0 1-.942-.7l.209-1.256a.679.679 0 0 0-.186-.59l-.888-.889a.672.672 0 0 1 .36-1.138l1.227-.183a.652.652 0 0 0 .489-.365l.548-1.139a.642.642 0 0 1 1.165 0" transform="translate(-1.212 -.689)" style="fill:#fff"/>
                </g>
            </g>
            <g data-name="그룹 1486">
                <g data-name="그룹 1485" style="clip-path:url(#dfmi079c3f)" transform="translate(95.541 13.788)">
                    <path data-name="패스 1467" d="M13.721 5.127V8.9l-2.657-3.068s.636-.909 1.136-1.039a3.287 3.287 0 0 1 1.519.334" transform="translate(-10.349 -5.701)" style="fill:#6590ce"/>
                    <path data-name="패스 1468" d="m10.9 6.444 2.6 2.666-4-.238a3.253 3.253 0 0 1 .093-1.562 3.357 3.357 0 0 1 1.3-.866" transform="translate(-10.157 -5.899)" style="fill:#c7e3f9"/>
                    <path data-name="패스 1469" d="M9.808 9.51h3.671L10.5 12.238s-.886-.65-1.012-1.169a3.528 3.528 0 0 1 .32-1.559" transform="translate(-10.159 -6.261)" style="fill:#d778ff"/>
                    <path data-name="패스 1470" d="m11.092 12.218 2.6-2.665-.232 4.1a3 3 0 0 1-1.521-.092 3.469 3.469 0 0 1-.843-1.339" transform="translate(-10.352 -6.266)" style="fill:#fceeff"/>
                    <path data-name="패스 1471" d="M14.077 13.34V9.571l2.657 3.064s-.632.909-1.138 1.039a3.287 3.287 0 0 1-1.519-.334" transform="translate(-10.705 -6.269)" style="fill:#6a56e2"/>
                    <path data-name="패스 1472" d="m16.715 12.218-2.6-2.665 3.989.237a3.253 3.253 0 0 1-.089 1.562 3.356 3.356 0 0 1-1.3.866" transform="translate(-10.71 -6.266)" style="fill:#ffd67b"/>
                    <path data-name="패스 1473" d="M17.807 9.144h-3.671l2.984-2.728s.886.65 1.012 1.169a3.528 3.528 0 0 1-.325 1.559" transform="translate(-10.712 -5.896)" style="fill:#fff7c7"/>
                    <path data-name="패스 1474" d="m16.715 6.244-2.6 2.666.232-4.1a3 3 0 0 1 1.521.092 3.474 3.474 0 0 1 .844 1.339" transform="translate(-10.71 -5.699)" style="fill:#fceeff"/>
                </g>
            </g>
            <g data-name="그룹 1488">
                <g data-name="그룹 1487" style="clip-path:url(#exrsrl9wqb)" transform="translate(86.5 8.65)">
                    <path data-name="패스 1476" d="m14.239 6.2.549 1.142a.654.654 0 0 0 .489.365l1.228.183a.672.672 0 0 1 .36 1.138l-.888.889a.677.677 0 0 0-.187.59L16 11.76a.654.654 0 0 1-.943.7l-1.1-.593a.633.633 0 0 0-.6 0l-1.1.593a.653.653 0 0 1-.942-.7l.209-1.256a.679.679 0 0 0-.186-.59l-.888-.889a.672.672 0 0 1 .36-1.138l1.227-.183a.652.652 0 0 0 .489-.365l.548-1.139a.642.642 0 0 1 1.165 0z" transform="translate(-1.212 -.689)" style="stroke:#0a0444;stroke-miterlimit:10;stroke-width:.75px;fill:none"/>
                </g>
            </g>
        </g>
    </g>
</svg>
