<svg xmlns="http://www.w3.org/2000/svg" width="20" height="18.053" viewBox="0 0 20 18.053">
    <path d="m15 24.353-.842-.737q-2.711-2.5-4.474-4.289a33.126 33.126 0 0 1-2.816-3.184 10.051 10.051 0 0 1-1.461-2.513A6.526 6.526 0 0 1 5 11.379 4.989 4.989 0 0 1 10.079 6.3a5.268 5.268 0 0 1 2.724.737A6.848 6.848 0 0 1 15 9.195a7.491 7.491 0 0 1 2.276-2.184 5.177 5.177 0 0 1 2.645-.711A4.989 4.989 0 0 1 25 11.379a6.526 6.526 0 0 1-.408 2.25 10.051 10.051 0 0 1-1.461 2.513 33.126 33.126 0 0 1-2.816 3.184q-1.763 1.789-4.474 4.289zm0-1.579q2.632-2.395 4.329-4.105a32.292 32.292 0 0 0 2.684-3 10.386 10.386 0 0 0 1.395-2.289 5.26 5.26 0 0 0 .408-2 3.779 3.779 0 0 0-3.868-3.895 4.167 4.167 0 0 0-2.487.8 6.79 6.79 0 0 0-1.961 2.383h-1A6.908 6.908 0 0 0 12.526 8.3a4.14 4.14 0 0 0-2.474-.816 3.749 3.749 0 0 0-2.763 1.105 3.814 3.814 0 0 0-1.105 2.816 5.2 5.2 0 0 0 .408 1.974 10.636 10.636 0 0 0 1.395 2.3 29.436 29.436 0 0 0 2.7 3q1.708 1.7 4.313 4.095zm0-7.632z" transform="translate(-5 -6.3)" style="fill:#707070"/>
</svg>
