<svg xmlns="http://www.w3.org/2000/svg" width="58.964" height="16.467" viewBox="0 0 58.964 16.467">
    <path data-name="패스 1169" d="M213.108 496.434h-2.343a.382.382 0 0 0-.383.383v14.234a.383.383 0 0 0 .087.244l1.2 1.466a.384.384 0 0 0 .3.14h9.665a.384.384 0 0 0 .384-.384v-2.341a.385.385 0 0 0-.384-.384h-8.144v-12.975a.383.383 0 0 0-.382-.383z" transform="translate(-210.382 -496.434)" style="fill:#c7c7c7"/>
    <path data-name="패스 1170" d="M285.432 496.434h-3.108l-6.166 15.944a.384.384 0 0 0 .358.522h2.284a.384.384 0 0 0 .358-.245l1.19-3.079a.384.384 0 0 1 .359-.246h6.521a.384.384 0 0 1 .358.246l1.19 3.079a.385.385 0 0 0 .358.245h2.286a.384.384 0 0 0 .358-.522l-6.166-15.944zm-3.582 9.266 1.761-4.555a.384.384 0 0 1 .716 0l1.762 4.555a.384.384 0 0 1-.358.522h-3.523a.384.384 0 0 1-.358-.522z" transform="translate(-244.569 -496.434)" style="fill:#c7c7c7"/>
    <path data-name="패스 1171" d="m316.195 496.649-3.15 6.447a.384.384 0 0 1-.69 0l-3.15-6.447a.384.384 0 0 0-.345-.215h-2.254a.384.384 0 0 0-.345.553l4.882 9.99h.007v5.54a.384.384 0 0 0 .384.384h2.34a.384.384 0 0 0 .384-.384v-5.54l4.882-9.99a.384.384 0 0 0-.345-.553h-2.255a.386.386 0 0 0-.345.215z" transform="translate(-260.214 -496.434)" style="fill:#c7c7c7"/>
    <path data-name="패스 1172" d="M257.666 496.434H251a.384.384 0 0 0-.384.384v15.7a.384.384 0 0 0 .384.384h2.341a.384.384 0 0 0 .384-.384v-4.74h4.132a5.671 5.671 0 0 0 5.67-5.777 5.8 5.8 0 0 0-5.861-5.567zm-.09 8.233h-3.884v-5.507h4a2.754 2.754 0 0 1 2.752 2.84 2.83 2.83 0 0 1-2.868 2.667z" transform="translate(-231.301 -496.434)" style="fill:#c7c7c7"/>
    <path data-name="패스 1173" d="M242.085 525.811v-1.847l-1.689-.924-1.688.924v1.847l1.688.924z" transform="translate(-225.111 -510.268)" style="fill:#c7c7c7"/>
</svg>
