<svg xmlns="http://www.w3.org/2000/svg" width="68" height="15" viewBox="0 0 68 15">
    <g transform="translate(.726 .25)">
        <rect data-name="사각형 1161" width="68" height="15" rx="1" transform="translate(-.726 -.25)" style="fill:#c7c7c7"/>
        <path data-name="사각형 1162" transform="translate(1.106 1.104)" style="fill:#fff" d="M0 0h46.334v11.985H0z"/>
        <path d="m54.679 26.138-3.09 7.879h2.626l.373-1.042h2.962l.373 1.042h2.626l-3.09-7.879zm1.39 2.483.881 2.462h-1.761z" transform="translate(-39.126 -22.981)" style="fill-rule:evenodd;fill:#c7c7c7"/>
        <path d="M92.966 26.138v7.879h6.219v-1.93h-3.709v-1.063h3.592v-1.892h-3.592v-1.063h3.631v-1.931z" transform="translate(-63.121 -22.981)" style="fill-rule:evenodd;fill:#c7c7c7"/>
        <path d="m76.037 26.138-1.854 5.181-1.855-5.181H69.7l3.09 7.879h2.781l3.09-7.879z" transform="translate(-49.631 -22.981)" style="fill-rule:evenodd;fill:#c7c7c7"/>
        <path d="M36.177 26.138v4.217l-2.936-4.217h-2.433v7.879h2.549V29.8l2.936 4.217h2.433v-7.879z" transform="translate(-27.075 -22.981)" style="fill-rule:evenodd;fill:#c7c7c7"/>
        <path d="M114.5 29.807h-1.352v-1.661h1.352a.83.83 0 0 1 0 1.661zm1.955 1.407a2.287 2.287 0 0 0 1.382-2.265 2.415 2.415 0 0 0-1.079-2.189 4.92 4.92 0 0 0-2.716-.623h-3.327v7.879h2.472v-2.2h.888l1.506 2.2h2.626l-1.992-2.7z" transform="translate(-73.413 -22.981)" style="fill-rule:evenodd;fill:#c7c7c7"/>
        <path data-name="패스 1119" d="M141.847 26.722h2.312a2.927 2.927 0 0 1 .95.139 1.852 1.852 0 0 1 .668.386 1.546 1.546 0 0 1 .394.587 2.049 2.049 0 0 1 .13.735v.188a1.967 1.967 0 0 1-.139.74 1.734 1.734 0 0 1-.408.6 1.953 1.953 0 0 1-.667.412 2.589 2.589 0 0 1-.928.152h-1.425v2.518h-.887zm.887.771v2.4h1.273q1.4 0 1.4-1.156v-.161a.979.979 0 0 0-.336-.82 1.53 1.53 0 0 0-.963-.264z" transform="translate(-91.47 -23.32)" style="fill:#fff"/>
        <path data-name="패스 1120" d="M155.62 35.284a1.766 1.766 0 0 1-1.178-.368 1.253 1.253 0 0 1-.435-1.012v-.242a1.338 1.338 0 0 1 .421-1.022 1.956 1.956 0 0 1 1.362-.394h1.245v-.287a.994.994 0 0 0-.237-.73 1.065 1.065 0 0 0-.775-.238 1.917 1.917 0 0 0-.749.134 4.117 4.117 0 0 0-.658.359l-.431-.646a4.145 4.145 0 0 1 .807-.434 2.726 2.726 0 0 1 1.039-.184 2.6 2.6 0 0 1 .753.1 1.685 1.685 0 0 1 .587.3 1.417 1.417 0 0 1 .385.493 1.514 1.514 0 0 1 .139.659v3.432h-.834v-.592h-.009a.926.926 0 0 1-.193.247 1.4 1.4 0 0 1-.264.193 1.837 1.837 0 0 1-.426.166 2.27 2.27 0 0 1-.549.066zm1.416-2.3h-1.227a1.084 1.084 0 0 0-.73.2.7.7 0 0 0-.22.547v.126a.571.571 0 0 0 .251.52 1.085 1.085 0 0 0 .6.161 1.841 1.841 0 0 0 .56-.076 1.412 1.412 0 0 0 .434-.229.781.781 0 0 0 .255-.309 1.143 1.143 0 0 0 .076-.453z" transform="translate(-98.522 -25.349)" style="fill:#fff"/>
        <path data-name="패스 1121" d="m167.269 34.35 1.29-3.916h.914l-2.545 6.927-.788-.278.636-1.676-1.784-4.974h.941l1.3 3.916z" transform="translate(-104.893 -25.473)" style="fill:#fff"/>
    </g>
</svg>
