<svg xmlns="http://www.w3.org/2000/svg" width="70.414" height="15.935" viewBox="0 0 70.414 15.935">
    <path data-name="패스 1127" d="M471.8 495.9a1.681 1.681 0 0 1 1.694-1.695h4.6c3.676 0 5.9 2.179 5.9 5.326v.044c0 3.566-2.773 5.415-6.229 5.415h-2.575v3.191a1.695 1.695 0 1 1-3.39 0zm6.075 6.075a2.386 2.386 0 0 0 2.685-2.333v-.042c0-1.519-1.057-2.333-2.752-2.333h-2.619v4.711z" transform="translate(-471.799 -494.075)" style="fill:#c7c7c7"/>
    <path data-name="패스 1128" d="m508.509 507.326 5.37-12.128a2.1 2.1 0 0 1 1.981-1.342h.2a2.066 2.066 0 0 1 1.959 1.342l5.37 12.128a1.652 1.652 0 0 1 .176.682 1.607 1.607 0 0 1-1.607 1.629 1.727 1.727 0 0 1-1.629-1.166l-1.034-2.421h-6.779l-1.079 2.531a1.664 1.664 0 0 1-1.563 1.056 1.56 1.56 0 0 1-1.562-1.585 1.8 1.8 0 0 1 .197-.726zm9.53-4.27-2.135-5.085-2.135 5.085z" transform="translate(-496.855 -493.834)" style="fill:#c7c7c7"/>
    <path data-name="패스 1129" d="M556.558 503.755 551.584 497a2.008 2.008 0 0 1-.418-1.211 1.654 1.654 0 0 1 1.695-1.629 1.95 1.95 0 0 1 1.673 1.034l3.742 5.393 3.808-5.437a1.943 1.943 0 0 1 1.629-1.012 1.57 1.57 0 0 1 1.651 1.651 2.106 2.106 0 0 1-.44 1.188l-4.974 6.713v4.446a1.695 1.695 0 1 1-3.39 0z" transform="translate(-526.265 -494.027)" style="fill:#c7c7c7"/>
    <path data-name="패스 1130" d="M596.743 501.8v-.044a7.831 7.831 0 0 1 8.034-7.967 8.158 8.158 0 0 1 5.15 1.563 1.7 1.7 0 0 1 .66 1.342 1.654 1.654 0 0 1-1.673 1.651 1.779 1.779 0 0 1-1.012-.33 5.068 5.068 0 0 0-3.147-1.1 4.565 4.565 0 0 0-4.468 4.8v.044a4.576 4.576 0 0 0 4.468 4.842 4.946 4.946 0 0 0 3.346-1.21 1.57 1.57 0 1 1 2.025 2.4 8.118 8.118 0 0 1-13.382-5.987z" transform="translate(-557.543 -493.786)" style="fill:#c7c7c7"/>
    <path data-name="패스 1131" d="M644.038 501.8v-.044a8.191 8.191 0 0 1 16.375-.044v.044a8.191 8.191 0 0 1-16.375.044zm12.832 0v-.044a4.681 4.681 0 0 0-4.666-4.842 4.608 4.608 0 0 0-4.622 4.8v.044a4.681 4.681 0 0 0 4.666 4.842 4.608 4.608 0 0 0 4.622-4.8z" transform="translate(-589.999 -493.786)" style="fill:#c7c7c7"/>
</svg>
