<svg xmlns="http://www.w3.org/2000/svg" width="19.5" height="18.013" viewBox="0 0 19.5 18.013">
    <path data-name="수정아이콘" d="M8.519 23.821h1.06l11.707-11.709-1.086-1.086L8.519 22.735zm15.337-12.583-2.782-2.755 1.113-1.113a1.154 1.154 0 0 1 1.7 0l1.086 1.06a1.108 1.108 0 0 1 .331.848 1.3 1.3 0 0 1-.358.874zm-.848.848L10.055 25.013H7.3v-2.755L20.227 9.331zm-2.252-.53-.556-.53 1.086 1.086z" transform="translate(-7.3 -7)" style="fill:#707070"/>
    <path data-name="선 156" transform="translate(6.5 17.499)" style="fill:none;stroke:#707070" d="M0 0h13"/>
</svg>
