<svg xmlns="http://www.w3.org/2000/svg" width="22" height="22" viewBox="0 0 22 22">
    <g data-name="그룹 335">
        <g data-name="타원 56" style="fill:#707070;stroke:#707070">
            <circle cx="11" cy="11" r="11" style="stroke:none"/>
            <circle cx="11" cy="11" r="10.5" style="fill:none"/>
        </g>
        <g data-name="구성 요소 75 – 2">
            <path data-name="패스 845" d="M178.154 381.508c2.279 2.573 5.15 3.784 5.625 3.378l.775-.662 1.666-1.424a.162.162 0 0 0 .017-.014c.2-.243-.088-1.237-.97-1.946-.859-.691-1.936-.875-2.167-.67l-1.215 1.039s0 .007-.006.01c-.165.141-.95-.478-1.753-1.384s-1.319-1.755-1.154-1.9a.066.066 0 0 1 .011-.005l1.215-1.039c.239-.2.2-1.27-.376-2.2-.593-.956-1.556-1.375-1.829-1.212a.183.183 0 0 0-.017.015l-1.666 1.424-.775.662c-.486.396.339 3.355 2.619 5.928z" transform="translate(-169.395 -368.436)" style="fill:#fff"/>
        </g>
    </g>
</svg>
