<svg xmlns="http://www.w3.org/2000/svg" width="69.069" height="25.573" viewBox="0 0 69.069 25.573">
    <path data-name="패스 1142" d="M71.434 108.237c0 .065-.031.1-.092.1h-.263q-.092 0-.092-.1v-3.957q0-.1.092-.1h.263c.061 0 .092.032.092.1z" transform="translate(-70.987 -84.256)" style="fill:#707070"/>
    <path data-name="패스 1143" d="M76.241 106.712c0-.065-.037-.1-.109-.1l-1.524.011q-.109 0-.109.1v2.554q0 .1-.092.1h-.246q-.092 0-.092-.1v-3.007q0-.1.092-.1h.258c.061 0 .092.032.092.1v.046c0 .065.042.092.126.08l1.271-.206a1.616 1.616 0 0 1 .172-.011.526.526 0 0 1 .6.6v2.5q0 .1-.092.1h-.252c-.062 0-.092-.032-.092-.1z" transform="translate(-72.599 -85.297)" style="fill:#707070"/>
    <path data-name="패스 1144" d="M81.849 107.957a.632.632 0 0 1-.71-.722v-.275a.494.494 0 0 1 .246-.452l.39-.223a.617.617 0 0 1 .281-.063h1.317c.061 0 .092.032.092.1v.166c0 .065-.031.1-.092.1h-1.707a.081.081 0 0 0-.092.092v.825a.081.081 0 0 0 .092.092H82.9a.633.633 0 0 1 .711.722v.349a.494.494 0 0 1-.246.452l-.389.223a.621.621 0 0 1-.281.063H81.38q-.092 0-.092-.1v-.166q0-.1.092-.1h1.707a.081.081 0 0 0 .092-.092v-.9a.081.081 0 0 0-.092-.092z" transform="translate(-76.293 -85.322)" style="fill:#707070"/>
    <path data-name="패스 1145" d="M87.942 106.259q0-.1.092-.1h.258q.092 0 .092.1v.052q0 .1.126.08l1.168-.206a1.6 1.6 0 0 1 .172-.011.527.527 0 0 1 .6.6v1.861a.494.494 0 0 1-.247.452l-.389.223a.619.619 0 0 1-.281.063h-1.046c-.073 0-.109.032-.109.1v1.186q0 .1-.092.1h-.252q-.092 0-.092-.1zm.435 2.657a.081.081 0 0 0 .092.092h1.449a.081.081 0 0 0 .091-.092v-2.211q0-.1-.109-.1l-1.414.011c-.073 0-.109.032-.109.1z" transform="translate(-79.849 -85.291)" style="fill:#707070"/>
    <path data-name="패스 1146" d="M95.606 103.883q0 .1-.092.1h-.281c-.061 0-.091-.032-.091-.1v-.263c0-.065.031-.1.091-.1h.281q.092 0 .092.1zm-.017 4.009c0 .065-.031.1-.092.1h-.252c-.061 0-.091-.032-.091-.1v-2.984c0-.065.03-.1.091-.1h.255c.061 0 .092.032.092.1z" transform="translate(-83.614 -83.911)" style="fill:#707070"/>
    <path data-name="패스 1147" d="M99.987 106.488q0 .1-.1.1l-1.214.006q-.1 0-.1.1v2.571c0 .065-.031.1-.091.1h-.235c-.069 0-.1-.032-.1-.1v-3.012a.091.091 0 0 1 .1-.1h.235c.061 0 .091.034.091.1v.08q0 .092.1.092a.127.127 0 0 0 .057-.011l.344-.178a.723.723 0 0 1 .367-.086h.447q.1 0 .1.1z" transform="translate(-85.182 -85.284)" style="fill:#707070"/>
    <path data-name="패스 1148" d="M103.1 108.942a.081.081 0 0 0 .092.092h1.827q.08 0 .08.069a.11.11 0 0 1-.069.1l-.258.143a.509.509 0 0 1-.241.052h-1.157a.632.632 0 0 1-.71-.722v-1.718a.493.493 0 0 1 .246-.452l.389-.223a.619.619 0 0 1 .281-.063h.876a.633.633 0 0 1 .71.722v.292a.633.633 0 0 1-.71.722h-1.266a.081.081 0 0 0-.092.092zm1.632-2.268a.081.081 0 0 0-.092-.092h-1.449a.081.081 0 0 0-.092.092v.842a.081.081 0 0 0 .092.092h1.449a.081.081 0 0 0 .092-.092z" transform="translate(-87.547 -85.322)" style="fill:#707070"/>
    <path data-name="패스 1149" d="M111.519 104.742q.109 0 .109-.1v-1.157q0-.1.092-.1h.258q.092 0 .092.1v4.335a.086.086 0 0 1-.1.1h-.252q-.092 0-.092-.1v-.011q0-.1-.126-.08l-1.168.206a1.6 1.6 0 0 1-.172.011.526.526 0 0 1-.6-.6v-1.866a.493.493 0 0 1 .246-.452l.389-.223a.618.618 0 0 1 .281-.063zm-1.426.361a.081.081 0 0 0-.092.092v2.234q0 .1.109.1l1.415-.011q.109 0 .109-.1v-2.222a.081.081 0 0 0-.092-.092z" transform="translate(-91.153 -83.842)" style="fill:#707070"/>
    <path data-name="패스 1150" d="M121.094 104.862c0 .065.042.092.126.08l1.169-.206a1.6 1.6 0 0 1 .171-.011.526.526 0 0 1 .6.6v1.861a.492.492 0 0 1-.246.452l-.389.223a.617.617 0 0 1-.28.063h-.876a.633.633 0 0 1-.711-.722v-3.711c0-.065.031-.1.092-.1h.25c.061 0 .092.032.092.1zm-.006 2.606a.081.081 0 0 0 .092.092h1.449a.081.081 0 0 0 .092-.092v-2.211q0-.1-.109-.1l-1.415.011c-.072 0-.109.032-.109.1z" transform="translate(-96.949 -83.842)" style="fill:#707070"/>
    <path data-name="패스 1151" d="M129.9 109.279c0-.065-.042-.092-.126-.08l-1.277.206a1.6 1.6 0 0 1-.172.011.526.526 0 0 1-.6-.6V106.3q0-.1.092-.1h.252q.092 0 .092.1v2.6q0 .1.109.1l1.529-.011c.072 0 .109-.032.109-.1V106.3q0-.1.092-.1h.246q.092 0 .092.1v3.912a.509.509 0 0 1-.052.241l-.218.367a.111.111 0 0 1-.1.069q-.069 0-.069-.08z" transform="translate(-100.65 -85.309)" style="fill:#707070"/>
    <path data-name="패스 1152" d="M142.211 108.237a.086.086 0 0 1-.1.1h-.252q-.092 0-.092-.1V106.5q0-.1-.109-.1h-1.919q-.109 0-.109.1v1.741q0 .1-.092.1h-.258q-.092 0-.092-.1v-3.957q0-.1.092-.1h.258q.092 0 .092.1v1.672q0 .1.109.1h1.919q.109 0 .109-.1v-1.672q0-.1.092-.1h.252a.086.086 0 0 1 .1.1z" transform="translate(-106.64 -84.256)" style="fill:#707070"/>
    <path data-name="패스 1153" d="M149.824 109.279q0-.1-.126-.08l-1.277.206a1.6 1.6 0 0 1-.172.011.526.526 0 0 1-.6-.6V106.3q0-.1.092-.1H148q.092 0 .092.1v2.6q0 .1.109.1l1.529-.011q.109 0 .109-.1V106.3q0-.1.092-.1h.246q.092 0 .092.1v3.912a.51.51 0 0 1-.052.241l-.218.367a.11.11 0 0 1-.1.069q-.069 0-.069-.08z" transform="translate(-111.063 -85.309)" style="fill:#707070"/>
    <path data-name="패스 1154" d="M155.4 108.9q0 .1.109.1l1.523-.011q.109 0 .109-.1V106.3q0-.1.092-.1h.252q.092 0 .092.1v3q0 .1-.092.1h-.258q-.092 0-.092-.1v-.006q0-.1-.126-.08l-1.271.206a1.608 1.608 0 0 1-.172.011.526.526 0 0 1-.6-.6V106.3q0-.1.092-.1h.246q.092 0 .092.1z" transform="translate(-114.89 -85.309)" style="fill:#707070"/>
    <path data-name="패스 1155" d="M164.452 106.712q0-.1-.109-.1l-1.523.011q-.109 0-.109.1v2.554q0 .1-.092.1h-.246q-.092 0-.092-.1v-3.007q0-.1.092-.1h.258q.092 0 .092.1v.046q0 .1.126.08l1.271-.206a1.608 1.608 0 0 1 .172-.011.527.527 0 0 1 .6.6v2.5q0 .1-.092.1h-.252q-.092 0-.092-.1z" transform="translate(-118.709 -85.297)" style="fill:#707070"/>
    <path data-name="패스 1156" d="M171.6 104.742q.109 0 .109-.1v-1.157q0-.1.092-.1h.258q.092 0 .092.1v4.335a.086.086 0 0 1-.1.1h-.251q-.092 0-.092-.1v-.011q0-.1-.126-.08l-1.168.206a1.6 1.6 0 0 1-.172.011.526.526 0 0 1-.6-.6v-1.866a.493.493 0 0 1 .246-.452l.389-.223a.618.618 0 0 1 .281-.063zm-1.426.361a.081.081 0 0 0-.092.092v2.234q0 .1.109.1l1.415-.011q.109 0 .109-.1v-2.222a.081.081 0 0 0-.092-.092z" transform="translate(-122.56 -83.842)" style="fill:#707070"/>
    <path data-name="패스 1157" d="M179.267 106.222a.081.081 0 0 1 .092.092v2.99a.086.086 0 0 1-.1.1h-.252c-.062 0-.092-.032-.092-.1v-.011q0-.1-.126-.08l-1.14.206a1.607 1.607 0 0 1-.172.011.526.526 0 0 1-.6-.6v-1.873a.493.493 0 0 1 .246-.452l.389-.223a.619.619 0 0 1 .281-.063zm-1.855.361a.081.081 0 0 0-.092.092v2.234q0 .1.109.1l1.386-.011q.109 0 .109-.1v-2.222a.081.081 0 0 0-.092-.092z" transform="translate(-126.343 -85.322)" style="fill:#707070"/>
    <path data-name="패스 1158" d="M184.549 103.883q0 .1-.092.1h-.281q-.092 0-.092-.1v-.263q0-.1.092-.1h.281q.092 0 .092.1zm-.017 4.009q0 .1-.092.1h-.252q-.092 0-.092-.1v-2.984q0-.1.092-.1h.252q.092 0 .092.1z" transform="translate(-130.107 -83.911)" style="fill:#707070"/>
    <path data-name="패스 1159" d="M191.654 107.889a.081.081 0 0 0 .092.092h2.154q.08 0 .08.069a.111.111 0 0 1-.069.1l-.258.143a.511.511 0 0 1-.241.052h-1.489a.633.633 0 0 1-.711-.722v-2.68a.493.493 0 0 1 .247-.452l.389-.223a.621.621 0 0 1 .281-.063h1.724q.092 0 .092.1v.172q0 .1-.092.1h-2.108a.081.081 0 0 0-.092.092z" transform="translate(-133.833 -84.268)" style="fill:#707070"/>
    <path data-name="패스 1160" d="M201.07 106.222a.081.081 0 0 1 .092.092v2.99a.086.086 0 0 1-.1.1h-.252c-.062 0-.092-.032-.092-.1v-.011c0-.065-.042-.092-.126-.08l-1.14.206a1.607 1.607 0 0 1-.171.011.527.527 0 0 1-.6-.6v-1.873a.493.493 0 0 1 .247-.452l.389-.223a.617.617 0 0 1 .28-.063zm-1.856.361a.081.081 0 0 0-.091.092v2.234c0 .065.036.1.109.1l1.385-.011q.109 0 .109-.1v-2.222a.081.081 0 0 0-.091-.092z" transform="translate(-137.741 -85.322)" style="fill:#707070"/>
    <path data-name="패스 1161" d="M207.685 106.488c0 .069-.032.1-.1.1l-1.214.006c-.069 0-.1.032-.1.1v2.571c0 .065-.031.1-.092.1h-.235q-.1 0-.1-.1v-3.012a.091.091 0 0 1 .1-.1h.235c.061 0 .092.034.092.1v.08c0 .061.034.092.1.092a.13.13 0 0 0 .057-.011l.343-.178a.723.723 0 0 1 .367-.086h.447c.065 0 .1.034.1.1z" transform="translate(-141.48 -85.284)" style="fill:#707070"/>
    <path data-name="패스 1162" d="M212.413 104.742c.073 0 .108-.032.108-.1v-1.157c0-.065.031-.1.092-.1h.258c.061 0 .092.032.092.1v4.335a.086.086 0 0 1-.1.1h-.252c-.062 0-.092-.032-.092-.1v-.011c0-.065-.042-.092-.126-.08l-1.169.206a1.6 1.6 0 0 1-.172.011.526.526 0 0 1-.6-.6v-1.866a.493.493 0 0 1 .247-.452l.389-.223a.62.62 0 0 1 .281-.063zm-1.427.361a.081.081 0 0 0-.091.092v2.234c0 .065.036.1.109.1l1.414-.011q.109 0 .109-.1v-2.222a.081.081 0 0 0-.091-.092z" transform="translate(-143.895 -83.842)" style="fill:#707070"/>
    <path data-name="패스 1163" d="M99.7 90.926c0 .2-.094.3-.28.3h-.769q-.28 0-.28-.3V78.849a.263.263 0 0 1 .3-.3h.786c.186 0 .28.1.28.3v.051c0 .2.128.28.384.244l4.666-.628a4.728 4.728 0 0 1 .525-.035 1.607 1.607 0 0 1 1.818 1.817v3.566a1.5 1.5 0 0 1-.751 1.38l-1.171.682a1.888 1.888 0 0 1-.857.192h-4.317q-.332 0-.332.3zm6.1-10.714a.294.294 0 0 0-.332-.332l-5.436.017q-.332 0-.332.3v4.545q0 .3.28.3h5.54a.248.248 0 0 0 .28-.28z" transform="translate(-97.405 -78.482)" style="fill:#707070"/>
    <path data-name="패스 1164" d="M115.369 90.949c0 .2-.094.3-.28.3h-.8q-.278 0-.279-.3V78.873q0-.3.279-.3h.8c.186 0 .28.1.28.3z" transform="translate(-101.29 -78.505)" style="fill:#707070"/>
    <path data-name="패스 1165" d="M122.394 79.792c-.082-.164-.182-.244-.3-.244q-.28 0-.28.3v11.113c0 .2-.094.3-.28.3h-.786q-.28 0-.28-.3V78.919q0-.3.28-.3h2.2a.461.461 0 0 1 .437.28l5.435 11.186c.081.162.18.244.3.244.186 0 .28-.1.28-.3v-11.11q0-.3.28-.3h.786q.28 0 .28.3v12.042q0 .3-.28.3h-2.2a.509.509 0 0 1-.437-.28z" transform="translate(-102.898 -78.517)" style="fill:#707070"/>
    <path data-name="패스 1166" d="M147.5 90.926c0 .2-.094.3-.28.3h-.769q-.28 0-.28-.3V78.849a.262.262 0 0 1 .3-.3h.786c.186 0 .28.1.28.3v.051c0 .2.128.28.384.244l4.667-.628a4.726 4.726 0 0 1 .524-.035 1.607 1.607 0 0 1 1.818 1.817v3.566a1.5 1.5 0 0 1-.751 1.38l-1.171.682a1.886 1.886 0 0 1-.857.192h-4.316c-.222 0-.332.1-.332.3zm6.1-10.714a.294.294 0 0 0-.332-.332l-5.435.017c-.222 0-.332.1-.332.3v4.545q0 .3.28.3h5.539a.248.248 0 0 0 .28-.28z" transform="translate(-109.287 -78.482)" style="fill:#707070"/>
    <path data-name="패스 1167" d="M168.678 82.529a.248.248 0 0 1 .28.28v9.124a.263.263 0 0 1-.3.3h-.769q-.281 0-.28-.3V91.9c0-.2-.128-.28-.384-.245l-3.478.63a4.9 4.9 0 0 1-.524.035 1.607 1.607 0 0 1-1.818-1.818v-5.719a1.506 1.506 0 0 1 .752-1.38l1.188-.682a1.884 1.884 0 0 1 .857-.192zm-5.663 1.1a.247.247 0 0 0-.279.28v6.817c0 .2.11.3.332.3l4.23-.035c.221 0 .332-.1.332-.3v-6.782a.247.247 0 0 0-.28-.28z" transform="translate(-113.073 -79.488)" style="fill:#707070"/>
    <path data-name="패스 1168" d="M181.778 91.886c0-.2-.128-.28-.385-.245l-3.9.63a4.895 4.895 0 0 1-.524.035 1.606 1.606 0 0 1-1.818-1.818v-7.709q0-.3.28-.3h.769q.28 0 .28.3v7.936c0 .2.111.3.332.3l4.667-.035c.221 0 .332-.1.332-.3v-7.9q0-.3.279-.3h.751q.28 0 .28.3v11.937a1.553 1.553 0 0 1-.157.734l-.664 1.119a.337.337 0 0 1-.314.21c-.141 0-.21-.082-.21-.245z" transform="translate(-116.49 -79.477)" style="fill:#707070"/>
</svg>
