<svg xmlns="http://www.w3.org/2000/svg" width="20.897" height="15.6" viewBox="0 0 20.897 15.6">
    <path data-name="신고하기" d="M6.655 22.5v-1.093h1.434l1.968-6.536a1.276 1.276 0 0 1 .486-.729 1.4 1.4 0 0 1 .85-.267H14.5a1.4 1.4 0 0 1 .85.267 1.276 1.276 0 0 1 .486.729l1.968 6.536h1.434V22.5zm2.624-1.093h7.338l-1.847-6.221a.27.27 0 0 0-.109-.158.308.308 0 0 0-.182-.061h-3.061a.308.308 0 0 0-.182.061.27.27 0 0 0-.109.158zm3.11-10.5V6.9h1.118v4.009zm5.492 2.284-.8-.778 2.867-2.843.778.778zm1.507 4.69V16.79H23.4v1.093zM8.016 13.193 5.173 10.35l.778-.778 2.867 2.843zM2.5 17.883V16.79h4.009v1.093z" transform="translate(-2.5 -6.9)" style="fill:#707070"/>
</svg>
