<svg xmlns="http://www.w3.org/2000/svg" width="25" height="24.408" viewBox="0 0 25 24.408">
    <path d="M15.691 19.8h9.375v-1.48H17.2zm-5.493 0h2.039l7.993-7.928a.514.514 0 0 0 .2-.411.614.614 0 0 0-.2-.444L18.882 9.8a.52.52 0 0 0-.378-.164.467.467 0 0 0-.345.132L10.2 17.862zM5 29.408v-22.5a1.855 1.855 0 0 1 .559-1.332A1.812 1.812 0 0 1 6.908 5h21.184a1.829 1.829 0 0 1 1.332.576A1.829 1.829 0 0 1 30 6.908v15.921a1.969 1.969 0 0 1-1.908 1.908H9.671zm1.48-3.618 2.533-2.533h19.079a.4.4 0 0 0 .428-.428V6.908a.4.4 0 0 0-.428-.428H6.908a.4.4 0 0 0-.428.428zm0-18.882z" transform="translate(-5 -5)" style="fill:#707070"/>
</svg>
