<svg xmlns="http://www.w3.org/2000/svg" width="21.509" height="21" viewBox="0 0 21.509 21">
    <path d="M9.2 12.736h8.066v-1.274H10.5zm-4.726 0h1.755L13.1 5.915a.442.442 0 0 0 .17-.354.528.528 0 0 0-.17-.382l-1.16-1.047a.447.447 0 0 0-.325-.142.4.4 0 0 0-.3.113l-6.843 6.963zM0 21V1.642A1.6 1.6 0 0 1 .481.5 1.559 1.559 0 0 1 1.642 0h18.226a1.574 1.574 0 0 1 1.146.5 1.574 1.574 0 0 1 .5 1.146v13.7a1.694 1.694 0 0 1-1.642 1.642H4.019zm1.274-3.113 2.179-2.179h16.415a.342.342 0 0 0 .368-.368V1.642a.342.342 0 0 0-.368-.368H1.642a.342.342 0 0 0-.368.368zm0-16.245z"/>
</svg>
