<svg xmlns="http://www.w3.org/2000/svg" width="17" height="17" viewBox="0 0 17 17">
    <path d="M11.654 7.225a1.01 1.01 0 0 0 .738-.313 1.08 1.08 0 0 0 0-1.521 1.01 1.01 0 0 0-.738-.313 1.074 1.074 0 1 0 0 2.147zm-6.308 0a1.074 1.074 0 1 0 0-2.147 1.01 1.01 0 0 0-.738.313 1.08 1.08 0 0 0 0 1.521 1.01 1.01 0 0 0 .738.313zM8.5 13.13a4.627 4.627 0 0 0 2.528-.738 4.33 4.33 0 0 0 1.7-1.991H4.272a4.488 4.488 0 0 0 1.711 1.991 4.573 4.573 0 0 0 2.517.738zm0 3.87a8.291 8.291 0 0 1-3.322-.671 8.441 8.441 0 0 1-4.507-4.507 8.557 8.557 0 0 1 0-6.643A8.442 8.442 0 0 1 5.178.672a8.557 8.557 0 0 1 6.643 0 8.441 8.441 0 0 1 4.507 4.507 8.557 8.557 0 0 1 0 6.643 8.441 8.441 0 0 1-4.507 4.507A8.291 8.291 0 0 1 8.5 17zm0-8.5zm0 7.493A7.447 7.447 0 0 0 15.993 8.5 7.447 7.447 0 0 0 8.5 1.007 7.447 7.447 0 0 0 1.007 8.5 7.447 7.447 0 0 0 8.5 15.993z"/>
</svg>
