<svg xmlns="http://www.w3.org/2000/svg" width="19.722" height="17.6" viewBox="0 0 19.722 17.6">
    <path d="M23.049 14.244v8.4a1.459 1.459 0 0 1-1.458 1.456H6.883a1.459 1.459 0 0 1-1.458-1.458v-8.4a2.717 2.717 0 0 1-.93-1.408 3.033 3.033 0 0 1 .025-1.685l1.03-3.291a1.9 1.9 0 0 1 .679-1.006A1.855 1.855 0 0 1 7.36 6.5h13.678a1.951 1.951 0 0 1 1.169.352 1.868 1.868 0 0 1 .691.981l1.081 3.319a3 3 0 0 1 .013 1.7 2.659 2.659 0 0 1-.943 1.392zm-6.562-.528a1.886 1.886 0 0 0 1.4-.515 1.371 1.371 0 0 0 .44-1.169l-.679-4.4h-2.82v4.3a1.824 1.824 0 0 0 .478 1.245 1.515 1.515 0 0 0 1.181.539zm-4.651 0a1.776 1.776 0 0 0 1.307-.528 1.717 1.717 0 0 0 .528-1.257v-4.3h-2.816l-.679 4.45a1.353 1.353 0 0 0 .4 1.106 1.614 1.614 0 0 0 1.26.529zm-4.551 0a1.621 1.621 0 0 0 1.157-.453 1.757 1.757 0 0 0 .553-1.106l.679-4.526h-2.54a.465.465 0 0 0-.264.075.321.321 0 0 0-.138.226l-1.081 3.496a1.7 1.7 0 0 0 .214 1.559 1.606 1.606 0 0 0 1.42.729zm13.9 0a1.692 1.692 0 0 0 1.4-.691 1.661 1.661 0 0 0 .264-1.6l-1.106-3.52a.293.293 0 0 0-.126-.214.52.52 0 0 0-.277-.063h-2.515l.654 4.526a1.876 1.876 0 0 0 .578 1.106 1.59 1.59 0 0 0 1.132.456zM6.883 22.968h14.708a.335.335 0 0 0 .226-.088.3.3 0 0 0 .1-.239V14.8a.64.64 0 0 1-.289.063q-.214.013-.44.013a2.66 2.66 0 0 1-1.207-.277 3.49 3.49 0 0 1-1.056-.855 3.148 3.148 0 0 1-.993.817 2.931 2.931 0 0 1-1.4.314 2.836 2.836 0 0 1-1.232-.251 3.883 3.883 0 0 1-1.056-.779 2.819 2.819 0 0 1-1.031.767 3.1 3.1 0 0 1-1.257.264 3.289 3.289 0 0 1-1.333-.264 2.477 2.477 0 0 1-1.023-.871 4.586 4.586 0 0 1-1.27.88 2.721 2.721 0 0 1-1.043.251q-.2 0-.4-.013a1.076 1.076 0 0 1-.327-.063v7.844a.3.3 0 0 0 .1.239.335.335 0 0 0 .223.089zm14.708 0z" transform="translate(-4.387 -6.5)" style="fill:#3f52fc"/>
</svg>
