<svg xmlns="http://www.w3.org/2000/svg" width="15.81" height="15.799" viewBox="0 0 15.81 15.799">
    <path d="M9.3 15.508a.953.953 0 0 1-1.37 0L.29 7.847a.77.77 0 0 1-.228-.322A1.146 1.146 0 0 1 0 7.142V.934A.922.922 0 0 1 .934 0h6.207a1.272 1.272 0 0 1 .384.062.831.831 0 0 1 .343.208l7.619 7.619a1.024 1.024 0 0 1 .322.716.885.885 0 0 1-.3.7zm-.644-.644 6.207-6.207-7.7-7.723H.934v6.207zM3.093 4.007a.863.863 0 0 0 .644-.28.913.913 0 0 0 .27-.654.913.913 0 0 0-1.827 0 .913.913 0 0 0 .27.654.863.863 0 0 0 .643.28zM.934.934z"/>
</svg>
