<svg xmlns="http://www.w3.org/2000/svg" width="86.263" height="20.918" viewBox="0 0 86.263 20.918">
    <path data-name="패스 1132" d="M3.453 21.13A3.035 3.035 0 0 1 .421 18.1V3.452A3.035 3.035 0 0 1 3.453.421H18.1a3.035 3.035 0 0 1 3.03 3.031V18.1a3.035 3.035 0 0 1-3.03 3.03z" transform="translate(-.318 -.317)" style="fill:#fff"/>
    <path data-name="패스 1133" d="M17.781 0H3.138A3.138 3.138 0 0 0 0 3.138V17.78a3.138 3.138 0 0 0 3.138 3.138h14.643a3.138 3.138 0 0 0 3.138-3.138V3.138A3.138 3.138 0 0 0 17.781 0m0 .209a2.932 2.932 0 0 1 2.929 2.929V17.78a2.932 2.932 0 0 1-2.929 2.929H3.138A2.932 2.932 0 0 1 .21 17.78V3.138A2.932 2.932 0 0 1 3.138.209z" style="fill:#c7c7c7"/>
    <path data-name="패스 1134" d="M19.595 18.884v8.606a1.6 1.6 0 1 0 3.207 0v-8.678c0-2.85-1.51-4.357-4.368-4.357h-2.587a1.607 1.607 0 0 0 0 3.214h2.509a1.187 1.187 0 0 1 1.239 1.215" transform="translate(-10.741 -10.899)" style="fill:#c7c7c7"/>
    <path data-name="패스 1135" d="M49.558 14.455H46.98a5.513 5.513 0 0 0-2.215.407 4.343 4.343 0 0 1 1.561 3.023 1.308 1.308 0 0 1 .725-.216h2.507a1.607 1.607 0 1 0 0-3.214" transform="translate(-33.753 -10.899)" style="fill:#c7c7c7"/>
    <path data-name="패스 1136" d="M156.008 38.412a1.156 1.156 0 0 0 1.25 1.284 1.176 1.176 0 0 0 1.267-1.284v-4.391a2.615 2.615 0 0 0-2.855-2.855 3.018 3.018 0 0 0-2.82 1.487 2.042 2.042 0 0 0-2.061-1.487 2.318 2.318 0 0 0-2.263 1.3 1.228 1.228 0 0 0-1.233-1.165 1.161 1.161 0 0 0-1.25 1.3v5.81a1.176 1.176 0 0 0 1.267 1.289 1.163 1.163 0 0 0 1.25-1.284v-3.669a1.263 1.263 0 0 1 1.25-1.436 1.229 1.229 0 0 1 1.25 1.3v3.8a1.151 1.151 0 0 0 1.233 1.284 1.139 1.139 0 0 0 1.216-1.284v-3.664a1.263 1.263 0 0 1 1.25-1.436 1.229 1.229 0 0 1 1.25 1.3z" transform="translate(-110.12 -23.5)" style="fill:#c7c7c7"/>
    <path data-name="패스 1137" d="M201.97 35.509a4.307 4.307 0 1 0 8.615 0 4.307 4.307 0 1 0-8.615 0m2.517 0c0-1.2.642-2.246 1.79-2.246 1.132 0 1.791 1.047 1.791 2.246s-.659 2.246-1.791 2.246c-1.148 0-1.79-1.047-1.79-2.246" transform="translate(-152.29 -23.501)" style="fill:#c7c7c7"/>
    <path data-name="패스 1138" d="M242.175 38.412a1.189 1.189 0 0 0 1.284 1.284 1.176 1.176 0 0 0 1.267-1.284v-3.733a1.4 1.4 0 0 1 2.8.017v3.716A1.176 1.176 0 0 0 248.8 39.7a1.189 1.189 0 0 0 1.284-1.284v-4.02a2.972 2.972 0 0 0-3.125-3.226 2.478 2.478 0 0 0-2.3 1.284 1.244 1.244 0 0 0-2.483.152z" transform="translate(-182.605 -23.5)" style="fill:#c7c7c7"/>
    <path data-name="패스 1139" d="M287.1 38.818c.507-.473.743-1.132.321-1.6a1.086 1.086 0 0 0-1.571-.067 2.851 2.851 0 0 1-1.959.743 1.886 1.886 0 0 1-2.01-1.74h4.577c.929 0 1.25-.422 1.25-1.351a3.73 3.73 0 0 0-4.054-3.631 4.017 4.017 0 0 0-4.155 4.29 4.071 4.071 0 0 0 4.392 4.392 4.617 4.617 0 0 0 3.209-1.031m-5.22-4.341a1.823 1.823 0 0 1 3.547 0z" transform="translate(-210.744 -23.501)" style="fill:#c7c7c7"/>
    <path data-name="패스 1140" d="M318.115 32.481a1.22 1.22 0 0 0-1.689-.726 1.166 1.166 0 0 0-.625 1.689l2.888 6.317-.253.625c-.236.608-.523 1.233-1.132 1.233a3.692 3.692 0 0 1-.625-.085.991.991 0 0 0-1.183.727 1.084 1.084 0 0 0 .659 1.284 3.142 3.142 0 0 0 1.284.2c1.723 0 2.4-1.267 3.192-2.99l3.344-7.314a1.165 1.165 0 0 0-.625-1.689 1.221 1.221 0 0 0-1.689.726l-1.773 4.206z" transform="translate(-237.861 -23.852)" style="fill:#c7c7c7"/>
    <path data-name="패스 1141" d="M110.518 25.748a1.394 1.394 0 1 0 2.787 0v-8.682h2.736c.811 0 1.452-.422 1.452-1.267 0-.827-.642-1.25-1.452-1.25H107.8c-.827 0-1.453.423-1.453 1.25 0 .845.625 1.267 1.453 1.267h2.72z" transform="translate(-80.186 -10.97)" style="fill:#c7c7c7"/>
</svg>
