<svg xmlns="http://www.w3.org/2000/svg" width="31.419" height="24.769" viewBox="0 0 31.419 24.769">
    <g transform="translate(8141.491 1681)">
        <circle data-name="타원 111" cx="5.904" cy="5.904" r="5.904" transform="translate(-8121.88 -1668.284)" style="fill:#3f52fc"/>
        <path d="M466.466 629.483h-1.3l.357-1.448h-1.077c-.1.4-.194.8-.292 1.189a.34.34 0 0 1-.332.259h-.761a.343.343 0 0 1-.332-.258l-.3-1.19h-1.084c-.1.4-.193.794-.29 1.188a.341.341 0 0 1-.332.26h-.765a.342.342 0 0 1-.331-.258l-.3-1.19h-1.084l.37 1.448H457.5a.529.529 0 0 0 0 1.057h1.121a.342.342 0 0 1 .332.258l.767 3.007a.343.343 0 0 0 .332.258h.62a.344.344 0 0 0 .328-.263l.8-3.262h.181l.834 3.264a.343.343 0 0 0 .332.258h.62a.341.341 0 0 0 .332-.261l.741-3a.342.342 0 0 1 .332-.261h1.292a.529.529 0 0 0 0-1.057zm-5.849 1.541-.234.964h-.056l-.366-1.447h.774c-.035.159-.079.322-.117.482zm2.868.964h-.056l-.366-1.447h.772c-.117.481-.235.959-.35 1.446z" transform="translate(-8587.726 -2303.827)" style="fill:#161615"/>
        <path data-name="패스 1117" d="M468.86 648.423h-21.8a.908.908 0 0 1-.783-1.369l5.61-9.548a.907.907 0 0 1 .787-.448h21.8a.908.908 0 0 1 .783 1.369l-5.613 9.548a.908.908 0 0 1-.784.448zm-20.209-1.817h19.689l4.542-7.732h-19.689z" transform="translate(-8587.643 -2304.654)" style="fill:#040405"/>
        <path data-name="패스 1116" d="M475.037 637.1h-21.8a.909.909 0 0 1-.908-.908v-12.983a.908.908 0 0 1 .908-.908h21.8a.907.907 0 0 1 .908.908v12.979a.908.908 0 0 1-.908.912zm-20.891-1.817h19.983v-11.165h-19.983z" transform="translate(-8588.209 -2303.301)" style="fill:#040405"/>
    </g>
</svg>
