<svg xmlns="http://www.w3.org/2000/svg" width="27.074" height="21.374" viewBox="0 0 27.074 21.374">
    <g data-name="그룹 4346">
        <path d="M2.066 21.374a1.989 1.989 0 0 1-1.425-.57A2.051 2.051 0 0 1 0 19.308V2.066a2.3 2.3 0 0 1 .57-1.5A2.3 2.3 0 0 1 2.066 0h22.941a1.794 1.794 0 0 1 1.425.641 1.982 1.982 0 0 1 .57 1.5v7.481H1.567v9.689c0 .142.071.214.142.356a.54.54 0 0 0 .285.142h13.181v1.567zm-.5-15.817h23.869V2.066a.37.37 0 0 0-.142-.285.544.544 0 0 0-.356-.142H2.066a.37.37 0 0 0-.285.142.54.54 0 0 0-.142.285zm0 14.178zm20.091 1.639-1.211-1.14 3.42-3.42H15.1v-1.639h8.835l-3.491-3.491 1.14-1.14 5.486 5.486z"/>
        <path data-name="충전하기 포인트" transform="translate(1.506 5.281)" style="fill:#3f52fc" d="M0 0h23.927v4.461H0z"/>
    </g>
</svg>
