<svg xmlns="http://www.w3.org/2000/svg" width="31" height="31" viewBox="0 0 31 31">
    <defs>
        <clipPath id="q48chjkaba">
            <path data-name="사각형 1908" style="fill:none" d="M0 0h31v31H0z"/>
        </clipPath>
    </defs>
    <g data-name="그룹 4341" style="clip-path:url(#q48chjkaba)">
        <path data-name="패스 6486" d="M31 15.5A15.5 15.5 0 1 1 15.5 0 15.5 15.5 0 0 1 31 15.5"/>
        <path data-name="패스 6487" d="M33.864 38.109H16.582a1.384 1.384 0 0 1-1.382-1.384v-9.9a1.384 1.384 0 0 1 1.384-1.384h17.28a1.384 1.384 0 0 1 1.384 1.384v9.9a1.384 1.384 0 0 1-1.384 1.384" transform="translate(-9.723 -16.273)" style="fill:#fff"/>
        <path data-name="패스 6488" d="M11.107 12.238v1.286h-.993v5.144H8.443v-5.143h-.989v-1.287z"/>
        <path data-name="패스 6489" d="M15.113 13.398v5.269h-1.632l.028-.438a1.119 1.119 0 0 1-.411.4 1.153 1.153 0 0 1-.562.133 1.269 1.269 0 0 1-.6-.127.825.825 0 0 1-.351-.338 1.233 1.233 0 0 1-.141-.439q-.028-.228-.028-.907v-3.553h1.6v3.585a3.766 3.766 0 0 0 .037.73q.038.116.2.116c.119 0 .19-.04.213-.119a4.6 4.6 0 0 0 .034-.766v-3.546z"/>
        <path data-name="패스 6490" d="M17.293 12.238v1.522a1.3 1.3 0 0 1 .443-.344 1.246 1.246 0 0 1 .53-.113 1.458 1.458 0 0 1 .572.1.825.825 0 0 1 .369.29.878.878 0 0 1 .153.366 6.812 6.812 0 0 1 .026.762v2.374a3.547 3.547 0 0 1-.077.864.906.906 0 0 1-.363.492 1.12 1.12 0 0 1-.679.209 1.152 1.152 0 0 1-.526-.123 1.4 1.4 0 0 1-.446-.37l-.1.4h-1.5v-6.429zm.488 2.657a1.723 1.723 0 0 0-.052-.534.2.2 0 0 0-.2-.125.182.182 0 0 0-.191.11 2 2 0 0 0-.044.55v2.272a1.8 1.8 0 0 0 .049.544.192.192 0 0 0 .2.12.188.188 0 0 0 .2-.123 2.267 2.267 0 0 0 .045-.592z"/>
        <path data-name="패스 6491" d="M23.545 16.125h-2.076v1.14a1.257 1.257 0 0 0 .052.46.2.2 0 0 0 .2.1.241.241 0 0 0 .244-.137 1.5 1.5 0 0 0 .062-.53v-.695h1.521v.389a3.483 3.483 0 0 1-.062.75 1.525 1.525 0 0 1-.287.56 1.4 1.4 0 0 1-.574.447 2.218 2.218 0 0 1-.871.149 2.53 2.53 0 0 1-.9-.147 1.436 1.436 0 0 1-.606-.4 1.457 1.457 0 0 1-.3-.564 3.644 3.644 0 0 1-.083-.9v-1.531a2.612 2.612 0 0 1 .187-1.09 1.28 1.28 0 0 1 .611-.611 2.151 2.151 0 0 1 .977-.213 2.185 2.185 0 0 1 1.114.256 1.408 1.408 0 0 1 .615.679 3.18 3.18 0 0 1 .177 1.189zm-1.608-.858v-.389a1.934 1.934 0 0 0-.044-.528.172.172 0 0 0-.178-.119q-.167 0-.206.1a2.1 2.1 0 0 0-.04.546v.385z"/>
    </g>
</svg>
