<svg xmlns="http://www.w3.org/2000/svg" width="300.13" height="102.23" viewBox="0 0 300.13 102.23">
    <g data-name="입금완료(구매)">
        <g data-name="그룹 4022">
            <path data-name="패스 5475" d="M-64.4-45.5h-282.41a7.793 7.793 0 0 1-7.79-7.79v-34.1a7.793 7.793 0 0 1 7.79-7.79H-64.4a7.793 7.793 0 0 1 7.79 7.79v34.1a7.793 7.793 0 0 1-7.79 7.79z" style="fill:#fff" transform="translate(355.49 147.23)"/>
            <path data-name="패스 5476" d="M-64.4-45h-282.41a8.3 8.3 0 0 1-8.29-8.29v-34.1a8.3 8.3 0 0 1 8.29-8.29H-64.4a8.3 8.3 0 0 1 8.29 8.29v34.1A8.3 8.3 0 0 1-64.4-45zm-282.42-49.69a7.3 7.3 0 0 0-7.29 7.29v34.1a7.3 7.3 0 0 0 7.29 7.29H-64.4a7.3 7.3 0 0 0 7.29-7.29v-34.1a7.3 7.3 0 0 0-7.29-7.29z" style="fill:#3f52fc" transform="translate(355.49 147.23)"/>
        </g>
        <g data-name="그룹 4023">
            <path data-name="패스 5477" d="M-187.05-87.93h-37.12a7.793 7.793 0 0 1-7.79-7.79v-1.35a7.793 7.793 0 0 1 7.79-7.79h37.12a7.793 7.793 0 0 1 7.79 7.79v1.35a7.793 7.793 0 0 1-7.79 7.79z" style="fill:#3f52fc" transform="translate(355.49 147.23)"/>
        </g>
        <g data-name="그룹 4024">
            <path data-name="패스 5478" d="M-266.16-78.16a2.364 2.364 0 0 1 .97-.85 3.207 3.207 0 0 1 1.41-.3 3.1 3.1 0 0 1 1.41.3 2.3 2.3 0 0 1 .97.85 2.306 2.306 0 0 1 .35 1.25 2.272 2.272 0 0 1-.35 1.24 2.364 2.364 0 0 1-.97.85 3.177 3.177 0 0 1-1.41.3 3.207 3.207 0 0 1-1.41-.3 2.238 2.238 0 0 1-.97-.85 2.3 2.3 0 0 1-.35-1.24 2.306 2.306 0 0 1 .35-1.25zm.78 2.09a1.592 1.592 0 0 0 .65.58 2.076 2.076 0 0 0 .95.21 2.033 2.033 0 0 0 .94-.21 1.658 1.658 0 0 0 .65-.58 1.517 1.517 0 0 0 .23-.84 1.6 1.6 0 0 0-.23-.84 1.449 1.449 0 0 0-.65-.57 2.2 2.2 0 0 0-.94-.21 2.076 2.076 0 0 0-.95.21 1.643 1.643 0 0 0-.65.57 1.5 1.5 0 0 0-.23.84 1.605 1.605 0 0 0 .23.84zm.48 2.37h.91v1.27h4.92v-1.27h.91v4.16h-6.75v-4.16zm5.83 3.41v-1.41h-4.92v1.41zm.92-3.94h-.91v-5.59h.91z" style="fill:#3f52fc" transform="translate(355.49 147.23)"/>
            <path data-name="패스 5479" d="M-248.1-78.48c0 .56-.02 1.07-.05 1.52a11.536 11.536 0 0 1-.23 1.54h1.53v.76h-9.54v-.76h7.08a10.662 10.662 0 0 0 .23-1.42c.04-.43.06-.87.06-1.33v-.31h-6.16v-.76h7.08v.76zm-7.11 5.26h7.16v3.68h-7.16zm6.24 2.93v-2.2h-5.33v2.2z" style="fill:#3f52fc" transform="translate(355.49 147.23)"/>
            <path data-name="패스 5480" d="M-245.29-77.29a2.963 2.963 0 0 1 .94-1.27 2.238 2.238 0 0 1 1.38-.45 2.259 2.259 0 0 1 1.38.45 2.812 2.812 0 0 1 .94 1.27 5.126 5.126 0 0 1 .34 1.91 4.933 4.933 0 0 1-.34 1.91 2.963 2.963 0 0 1-.94 1.27 2.23 2.23 0 0 1-1.38.44 2.316 2.316 0 0 1-1.38-.44 2.759 2.759 0 0 1-.94-1.27 5.126 5.126 0 0 1-.34-1.91 5.126 5.126 0 0 1 .34-1.91zm.78 3.39a2.251 2.251 0 0 0 .63.98 1.391 1.391 0 0 0 .92.35 1.354 1.354 0 0 0 .92-.35 2.238 2.238 0 0 0 .62-.98 4.686 4.686 0 0 0 .22-1.47 4.413 4.413 0 0 0-.22-1.47 2.436 2.436 0 0 0-.62-.99 1.325 1.325 0 0 0-.92-.35 1.391 1.391 0 0 0-.92.35 2.23 2.23 0 0 0-.63.99 4.454 4.454 0 0 0-.22 1.47 4.171 4.171 0 0 0 .22 1.47zm7.09 4.53h-.93v-10.44h.93z" style="fill:#3f52fc" transform="translate(355.49 147.23)"/>
            <path data-name="패스 5481" d="M-228.11-79.07a2.154 2.154 0 0 1 .92.72 1.818 1.818 0 0 1 .33 1.08 1.816 1.816 0 0 1-.26.96 2 2 0 0 1-.74.7 2.906 2.906 0 0 1-1.1.35v1.02c1.07-.06 2.02-.15 2.87-.28l.07.69a24.4 24.4 0 0 1-2.95.33c-1.03.05-2.11.09-3.23.09h-.32l-.12-.76h.54c.85 0 1.59-.01 2.21-.04v-1.05a3.053 3.053 0 0 1-1.13-.34 1.884 1.884 0 0 1-.75-.7 1.877 1.877 0 0 1-.26-.97 1.818 1.818 0 0 1 .33-1.08 2.123 2.123 0 0 1 .91-.72 3.336 3.336 0 0 1 1.34-.26 3.336 3.336 0 0 1 1.34.26zm-2.84 2.5a1.393 1.393 0 0 0 .61.47 2.278 2.278 0 0 0 .89.17 2.278 2.278 0 0 0 .89-.17 1.452 1.452 0 0 0 .61-.47 1.115 1.115 0 0 0 .22-.69 1.174 1.174 0 0 0-.22-.71 1.377 1.377 0 0 0-.61-.47 2.278 2.278 0 0 0-.89-.17 2.278 2.278 0 0 0-.89.17 1.452 1.452 0 0 0-.61.47 1.136 1.136 0 0 0-.21.7 1.059 1.059 0 0 0 .21.7zm-.17 4.04h.93v2.12h6.07v.77h-7zm5.7-7.27h.93v3.53h1.56v.79h-1.56v3.66h-.93z" style="fill:#3f52fc" transform="translate(355.49 147.23)"/>
            <path data-name="패스 5482" d="M-212.72-70.69h-9.54v-.77h2.68v-1.98h-1.49v-3.21h6.23v-1.63h-6.26v-.76h7.16v3.15h-6.22v1.69h6.47v.76h-1.63v1.98h2.59v.77zm-3.49-.77v-1.98h-2.46v1.98z" style="fill:#3f52fc" transform="translate(355.49 147.23)"/>
            <path data-name="패스 5483" d="M-205.83-75.64h-2.11v1.45q1.515-.06 2.85-.21l.07.68a49.715 49.715 0 0 1-6.68.38l-.14-.75c1.17-.01 2.16-.03 2.99-.05v-1.49h-2.04v-3.49h4.98v.76h-4.05v1.98h4.14v.74zm-4.23 3.09h.91v2.16h6.19v.77h-7.1zm5.84-7.25h.93v7.79h-.93z" style="fill:#3f52fc" transform="translate(355.49 147.23)"/>
            <path data-name="패스 5484" d="M-194.69-76.78a3.7 3.7 0 0 0 .92 1.14 4.1 4.1 0 0 0 1.34.75l-.5.73a4.347 4.347 0 0 1-1.51-.93 4.243 4.243 0 0 1-1-1.44 4.394 4.394 0 0 1-1.01 1.62 4.5 4.5 0 0 1-1.59 1.05l-.49-.74a4.159 4.159 0 0 0 1.37-.83 3.86 3.86 0 0 0 .92-1.25 3.539 3.539 0 0 0 .33-1.51v-1.08h.9v1.15a2.785 2.785 0 0 0 .32 1.34zm-2.05 4.44a2.741 2.741 0 0 1 1.2-.65 6.7 6.7 0 0 1 1.85-.22 6.626 6.626 0 0 1 1.84.22 2.516 2.516 0 0 1 1.18.65 1.436 1.436 0 0 1 .41 1.02 1.443 1.443 0 0 1-.41 1.03 2.66 2.66 0 0 1-1.18.65 6.626 6.626 0 0 1-1.84.22 6.751 6.751 0 0 1-1.85-.22 2.645 2.645 0 0 1-1.19-.65 1.452 1.452 0 0 1-.42-1.03 1.372 1.372 0 0 1 .41-1.02zm.81 1.65a2 2 0 0 0 .88.4 5.925 5.925 0 0 0 1.36.14 5.925 5.925 0 0 0 1.36-.14 2.183 2.183 0 0 0 .88-.4.776.776 0 0 0 .31-.63.767.767 0 0 0-.31-.61 2.183 2.183 0 0 0-.88-.4 5.9 5.9 0 0 0-1.35-.14 5.9 5.9 0 0 0-1.35.14 2.121 2.121 0 0 0-.88.4.786.786 0 0 0-.3.61.7.7 0 0 0 .28.63zm4.66-9.13h.91v2.72h1.57v.77h-1.57v2.85h-.91z" style="fill:#3f52fc" transform="translate(355.49 147.23)"/>
            <path data-name="패스 5485" d="M-183.59-77.86h-3.25v2h3.09v.74h-3.09v2.36c.82 0 1.49-.02 2.03-.06a15.238 15.238 0 0 0 1.62-.2l.08.76a14.171 14.171 0 0 1-1.67.22c-.55.04-1.22.06-2.03.06h-.91v-6.63h4.12v.75zm1.18-1.73h.89v3.97h1.43v-4.2h.89v10.42h-.89v-5.46h-1.43v4.93h-.89z" style="fill:#3f52fc" transform="translate(355.49 147.23)"/>
            <path data-name="패스 5486" d="M-177.17-78.16a2.364 2.364 0 0 1 .97-.85 3.207 3.207 0 0 1 1.41-.3 3.1 3.1 0 0 1 1.41.3 2.3 2.3 0 0 1 .97.85 2.306 2.306 0 0 1 .35 1.25 2.272 2.272 0 0 1-.35 1.24 2.364 2.364 0 0 1-.97.85 3.177 3.177 0 0 1-1.41.3 3.207 3.207 0 0 1-1.41-.3 2.238 2.238 0 0 1-.97-.85 2.3 2.3 0 0 1-.35-1.24 2.307 2.307 0 0 1 .35-1.25zm.78 2.09a1.592 1.592 0 0 0 .65.58 2.075 2.075 0 0 0 .95.21 2.033 2.033 0 0 0 .94-.21 1.658 1.658 0 0 0 .65-.58 1.518 1.518 0 0 0 .23-.84 1.6 1.6 0 0 0-.23-.84 1.449 1.449 0 0 0-.65-.57 2.2 2.2 0 0 0-.94-.21 2.075 2.075 0 0 0-.95.21 1.643 1.643 0 0 0-.65.57 1.5 1.5 0 0 0-.23.84 1.6 1.6 0 0 0 .23.84zm.48 2.37h.91v1.27h4.92v-1.27h.91v4.16h-6.75v-4.16zm5.84 3.41v-1.41H-175v1.41zm.91-3.94h-.91v-5.59h.91z" style="fill:#3f52fc" transform="translate(355.49 147.23)"/>
            <path data-name="패스 5487" d="M-166.71-78.78h.9v5.91c.86-.01 1.7-.05 2.51-.13a21.746 21.746 0 0 0 2.47-.38l.13.79a25.113 25.113 0 0 1-2.59.4q-1.26.12-2.58.12h-.84zm7.91 9.38h-.91v-10.42h.91z" style="fill:#3f52fc" transform="translate(355.49 147.23)"/>
            <path data-name="패스 5488" d="M-156.56-78.8h4.86v.76h-3.95v5.27c.98 0 1.84-.03 2.56-.09a21.969 21.969 0 0 0 2.21-.29l.12.8a20.371 20.371 0 0 1-2.27.28c-.74.05-1.64.07-2.71.07h-.82v-6.8zm7.6 3.11h1.75v.77h-1.75v5.54h-.91v-10.44h.91z" style="fill:#3f52fc" transform="translate(355.49 147.23)"/>
            <path data-name="패스 5489" d="M-145.93-70.38a.752.752 0 0 1-.28-.28.721.721 0 0 1-.1-.38.686.686 0 0 1 .1-.37.833.833 0 0 1 .28-.28.721.721 0 0 1 .38-.1.686.686 0 0 1 .37.1.9.9 0 0 1 .28.27.686.686 0 0 1 .1.37.732.732 0 0 1-.22.54.719.719 0 0 1-.53.23.746.746 0 0 1-.38-.1z" style="fill:#3f52fc" transform="translate(355.49 147.23)"/>
            <path data-name="패스 5490" d="M-293.13-60.27a6.513 6.513 0 0 0 1.02-3.04h-3.13v-.76h4.04a8.042 8.042 0 0 1-.52 2.94h1.87v-4h.88v9.61h-.88v-4.86h-2.21a7.885 7.885 0 0 1-3.09 3.14l-.54-.67a7.527 7.527 0 0 0 2.56-2.36zm6.35 5.27h-.88v-10.42h.88z" style="fill:#3f52fc" transform="translate(355.49 147.23)"/>
            <path data-name="패스 5491" d="M-284.73-63.68a2.317 2.317 0 0 1 .97-.86 3.211 3.211 0 0 1 1.41-.31 3.107 3.107 0 0 1 1.41.31 2.324 2.324 0 0 1 .97.86 2.351 2.351 0 0 1 .35 1.27 2.341 2.341 0 0 1-.35 1.26 2.317 2.317 0 0 1-.97.86 3.179 3.179 0 0 1-1.41.31 3.077 3.077 0 0 1-1.41-.31 2.324 2.324 0 0 1-.97-.86 2.341 2.341 0 0 1-.35-1.26 2.351 2.351 0 0 1 .35-1.27zm.78 2.11a1.592 1.592 0 0 0 .65.58 2.075 2.075 0 0 0 .95.21 2.063 2.063 0 0 0 .94-.21 1.531 1.531 0 0 0 .65-.58 1.615 1.615 0 0 0 .23-.85 1.65 1.65 0 0 0-.23-.86 1.553 1.553 0 0 0-.65-.59 2.063 2.063 0 0 0-.94-.21 2.105 2.105 0 0 0-.95.21 1.49 1.49 0 0 0-.65.59 1.677 1.677 0 0 0-.23.86 1.615 1.615 0 0 0 .23.85zm.46 2.68h6.77v3.75h-6.77zm5.87 3v-2.25h-4.97v2.25zm.9-3.56h-.91v-5.95h.91z" style="fill:#3f52fc" transform="translate(355.49 147.23)"/>
            <path data-name="패스 5492" d="M-268.13-62.38a3.7 3.7 0 0 0 .92 1.14 4.1 4.1 0 0 0 1.34.75l-.5.73a4.347 4.347 0 0 1-1.51-.93 4.242 4.242 0 0 1-1-1.44 4.394 4.394 0 0 1-1.01 1.62 4.5 4.5 0 0 1-1.59 1.05l-.49-.74a4.159 4.159 0 0 0 1.37-.83 3.86 3.86 0 0 0 .92-1.25 3.539 3.539 0 0 0 .33-1.51v-1.08h.9v1.15a2.786 2.786 0 0 0 .32 1.34zm-2.05 4.44a2.741 2.741 0 0 1 1.2-.65 6.7 6.7 0 0 1 1.85-.22 6.626 6.626 0 0 1 1.84.22 2.516 2.516 0 0 1 1.18.65 1.436 1.436 0 0 1 .41 1.02 1.443 1.443 0 0 1-.41 1.03 2.66 2.66 0 0 1-1.18.65 6.626 6.626 0 0 1-1.84.22 6.751 6.751 0 0 1-1.85-.22 2.644 2.644 0 0 1-1.19-.65 1.452 1.452 0 0 1-.42-1.03 1.453 1.453 0 0 1 .41-1.02zm.81 1.65a2 2 0 0 0 .88.4 5.925 5.925 0 0 0 1.36.14 5.925 5.925 0 0 0 1.36-.14 2.183 2.183 0 0 0 .88-.4.776.776 0 0 0 .31-.63.767.767 0 0 0-.31-.61 2.183 2.183 0 0 0-.88-.4 5.9 5.9 0 0 0-1.35-.14 5.9 5.9 0 0 0-1.35.14 2.121 2.121 0 0 0-.88.4.786.786 0 0 0-.3.61.744.744 0 0 0 .28.63zm4.66-9.13h.91v2.72h1.57v.77h-1.57v2.85h-.91z" style="fill:#3f52fc" transform="translate(355.49 147.23)"/>
            <path data-name="패스 5493" d="M-261.16-62.83a2.954 2.954 0 0 1 .78-1.26 1.753 1.753 0 0 1 1.18-.45 1.709 1.709 0 0 1 1.11.39 2.763 2.763 0 0 1 .78 1.11 5.213 5.213 0 0 1 .35 1.69h1.35v-3.84h.88v9.67h-.88v-5.06h-1.34a5.619 5.619 0 0 1-.33 1.75 2.664 2.664 0 0 1-.78 1.15 1.737 1.737 0 0 1-1.13.4 1.763 1.763 0 0 1-1.18-.44 2.774 2.774 0 0 1-.78-1.26 6.121 6.121 0 0 1-.28-1.92 5.96 5.96 0 0 1 .27-1.93zm.75 3.37a2.277 2.277 0 0 0 .48.96.941.941 0 0 0 .73.33.941.941 0 0 0 .73-.33 2.233 2.233 0 0 0 .48-.95 5.577 5.577 0 0 0 .17-1.44 5.848 5.848 0 0 0-.17-1.48 2.261 2.261 0 0 0-.48-.97.957.957 0 0 0-.74-.34.923.923 0 0 0-.73.34 2.333 2.333 0 0 0-.48.96 5.347 5.347 0 0 0-.16 1.46 5.685 5.685 0 0 0 .17 1.46zm7.77 4.46h-.89v-10.42h.89z" style="fill:#3f52fc" transform="translate(355.49 147.23)"/>
            <path data-name="패스 5494" d="M-247.17-60.79a5.421 5.421 0 0 0 .98 1.6 4.226 4.226 0 0 0 1.37 1.05l-.55.75a4.739 4.739 0 0 1-1.58-1.34 6.147 6.147 0 0 1-1.04-2 6.574 6.574 0 0 1-1.05 2.12 4.854 4.854 0 0 1-1.58 1.41l-.6-.74a4.447 4.447 0 0 0 1.38-1.11 5.646 5.646 0 0 0 .99-1.68 5.239 5.239 0 0 0 .37-1.88v-1.9h.94v1.9a5.1 5.1 0 0 0 .37 1.82zm1.22-1.06h2.47v-3.56h.91v10.44h-.91v-6.13h-2.47z" style="fill:#3f52fc" transform="translate(355.49 147.23)"/>
            <path data-name="패스 5495" d="M-228.32-60.26h-4.3v1.03h3.08v2.33h-6.19v1.05h6.5v.73h-7.42v-2.47h6.2v-.93h-6.22v-.71h3.13v-1.03h-4.28v-.75h9.49v.75zm-8.26-4.8h7.03v3.18h-7.03zm6.11 2.43v-1.7h-5.2v1.7z" style="fill:#3f52fc" transform="translate(355.49 147.23)"/>
            <path data-name="패스 5496" d="M-217.95-59.61h-4.3v1.23h3.14v3.25h-7.17v-3.25h3.13v-1.23h-4.29v-.76h9.49v.76zm-8.6-5.47h7.7v.76h-1.61v2.19h1.57v.76h-7.63v-.76h1.57v-2.19h-1.61v-.76zm6.54 9.19v-1.77h-5.36v1.77zm-1.36-6.23v-2.19h-2.66v2.19z" style="fill:#3f52fc" transform="translate(355.49 147.23)"/>
            <path data-name="패스 5497" d="M-209.74-63.53h-3.86v-.75h4.78a8.054 8.054 0 0 1-1.12 4.21 8.341 8.341 0 0 1-3.61 3.09l-.5-.74c2.68-1.29 4.11-3.23 4.31-5.81zm4.3 8.53h-.91v-5.46h-2.48v-.76h2.48v-4.2h.91z" style="fill:#3f52fc" transform="translate(355.49 147.23)"/>
            <path data-name="패스 5498" d="M-199.44-60.63h-3.01v2.37c.68 0 1.31-.03 1.88-.06a15.2 15.2 0 0 0 1.8-.22l.08.75a18.472 18.472 0 0 1-1.95.24c-.61.04-1.29.06-2.02.06h-.68v-3.9h3.01v-2.11h-3.04v-.77h3.93v3.64zm1.4-4.55h.84v3.89h1.54v-4.12h.88V-55h-.88v-5.53h-1.54v4.99h-.84z" style="fill:#3f52fc" transform="translate(355.49 147.23)"/>
            <path data-name="패스 5499" d="M-183.79-59.85h-9.54v-.73h9.54zm-8.39.83h7.2v2.21h-6.26v1h6.6v.67h-7.52v-2.3h6.27v-.89h-6.28v-.69zm.06-6.08h7.1v2.16h-6.15v.91h6.34v.67h-7.25v-2.21h6.14v-.86h-6.18v-.67z" style="fill:#3f52fc" transform="translate(355.49 147.23)"/>
            <path data-name="패스 5500" d="M-175.84-61.85a3.563 3.563 0 0 0 .95 1.11 4.226 4.226 0 0 0 1.38.72l-.47.74a4.644 4.644 0 0 1-1.6-.93 4.117 4.117 0 0 1-1.05-1.44 4.277 4.277 0 0 1-1.04 1.56 4.682 4.682 0 0 1-1.63 1.02l-.48-.74a4.107 4.107 0 0 0 1.38-.79 3.994 3.994 0 0 0 .95-1.19 3.043 3.043 0 0 0 .34-1.4v-.61h-2.44v-.75h5.77v.75h-2.4v.61a2.647 2.647 0 0 0 .34 1.34zm-2.22 3.36h.91v2.5h6.14v.77h-7.05zm5.81-6.91h.91v7.64h-.91z" style="fill:#3f52fc" transform="translate(355.49 147.23)"/>
            <path data-name="패스 5501" d="M-169.62-64.16h2.23v-1.17h.91v1.17h2.2v.74h-5.34zm.73 2.14a1.76 1.76 0 0 1 .79-.62 3 3 0 0 1 1.16-.22 2.792 2.792 0 0 1 1.16.22 1.891 1.891 0 0 1 .79.62 1.581 1.581 0 0 1 .28.94 1.572 1.572 0 0 1-.28.93 1.831 1.831 0 0 1-.79.62 2.858 2.858 0 0 1-1.16.22 2.858 2.858 0 0 1-1.16-.22 1.831 1.831 0 0 1-.79-.62 1.572 1.572 0 0 1-.28-.93 1.654 1.654 0 0 1 .28-.94zm.72 1.5a1.212 1.212 0 0 0 .5.38 1.864 1.864 0 0 0 .73.13 1.864 1.864 0 0 0 .73-.13 1.212 1.212 0 0 0 .5-.38.914.914 0 0 0 .18-.56.974.974 0 0 0-.18-.58 1.232 1.232 0 0 0-.5-.39 1.7 1.7 0 0 0-.73-.14 1.863 1.863 0 0 0-.73.14 1.153 1.153 0 0 0-.5.39.974.974 0 0 0-.18.58.914.914 0 0 0 .18.56zm.92 2.72a2.718 2.718 0 0 1 1.2-.62 7.331 7.331 0 0 1 1.88-.21 7.331 7.331 0 0 1 1.88.21 2.718 2.718 0 0 1 1.2.62 1.323 1.323 0 0 1 .42.99 1.3 1.3 0 0 1-.42.97 2.7 2.7 0 0 1-1.21.61 7.385 7.385 0 0 1-1.88.21 7.331 7.331 0 0 1-1.88-.21 2.657 2.657 0 0 1-1.2-.61 1.323 1.323 0 0 1-.41-.97 1.4 1.4 0 0 1 .42-.99zm.81 1.56a2.063 2.063 0 0 0 .88.37 6.78 6.78 0 0 0 1.37.13 6.351 6.351 0 0 0 1.4-.13 2.368 2.368 0 0 0 .9-.37.712.712 0 0 0 .32-.58c0-.36-.23-.63-.69-.82a4.912 4.912 0 0 0-1.9-.28 4.668 4.668 0 0 0-1.9.28c-.45.2-.68.47-.67.82a.656.656 0 0 0 .29.58zm5.72-2.58h-.88v-2.99h-1.39v2.61h-.87v-6.01h.87v2.64h1.39v-2.85h.88z" style="fill:#3f52fc" transform="translate(355.49 147.23)"/>
            <path data-name="패스 5502" d="M-153.99-62.86h-5.23v-.75h2.17v-1.49h.91v1.49h2.14v.75zm-4.56 1.85a2.089 2.089 0 0 1 .8-.84 2.217 2.217 0 0 1 1.15-.3 2.253 2.253 0 0 1 1.16.3 2.089 2.089 0 0 1 .8.84 2.683 2.683 0 0 1 .3 1.22 2.49 2.49 0 0 1-.3 1.23 2.256 2.256 0 0 1-.8.85 2.167 2.167 0 0 1-1.16.31 2.132 2.132 0 0 1-1.15-.31 2.182 2.182 0 0 1-.8-.85 2.6 2.6 0 0 1-.29-1.23 2.473 2.473 0 0 1 .29-1.22zm.71 2.04a1.364 1.364 0 0 0 .5.56 1.378 1.378 0 0 0 .73.2 1.44 1.44 0 0 0 .74-.2 1.409 1.409 0 0 0 .52-.56 1.683 1.683 0 0 0 .19-.82 1.67 1.67 0 0 0-.19-.81 1.507 1.507 0 0 0-.52-.57 1.334 1.334 0 0 0-.74-.21 1.385 1.385 0 0 0-.73.21 1.392 1.392 0 0 0-.5.57 1.786 1.786 0 0 0-.18.81 1.829 1.829 0 0 0 .18.82zm4.39-6.19h.87v4.14h1.38v-4.39h.88V-55h-.88v-5.26h-1.38v4.75h-.87z" style="fill:#3f52fc" transform="translate(355.49 147.23)"/>
            <path data-name="패스 5503" d="M-148.82-59.47h9.49v.76h-4.31V-55h-.9v-3.71h-4.28v-.76zm5.78-3.19a4.27 4.27 0 0 0 1.37 1.02 6.168 6.168 0 0 0 1.77.55l-.34.73a6.763 6.763 0 0 1-1.59-.47 5.926 5.926 0 0 1-1.36-.82 3.312 3.312 0 0 1-.9-1.1 3.312 3.312 0 0 1-.9 1.1 5.53 5.53 0 0 1-1.35.82 6.749 6.749 0 0 1-1.57.47l-.36-.73a5.811 5.811 0 0 0 1.76-.55 4.421 4.421 0 0 0 1.37-1.02 1.924 1.924 0 0 0 .53-1.27V-64h-3.34v-.75h7.7v.75h-3.33v.07a2.066 2.066 0 0 0 .54 1.27z" style="fill:#3f52fc" transform="translate(355.49 147.23)"/>
            <path data-name="패스 5504" d="M-135.09-60.78a5.356 5.356 0 0 0 .76 1.51 3.864 3.864 0 0 0 1.17 1.08l-.53.71a4.125 4.125 0 0 1-1.27-1.23 6.321 6.321 0 0 1-.82-1.76 6.459 6.459 0 0 1-.86 1.9 4.28 4.28 0 0 1-1.34 1.31l-.59-.69a4.075 4.075 0 0 0 1.23-1.12 5.493 5.493 0 0 0 .81-1.58 5.646 5.646 0 0 0 .28-1.77v-2.02h.89v1.98a5.416 5.416 0 0 0 .27 1.68zm.77-.9h1.77v-3.52h.87v9.67h-.87v-5.37h-1.77zm3.91-3.74h.89V-55h-.89z" style="fill:#3f52fc" transform="translate(355.49 147.23)"/>
            <path data-name="패스 5505" d="M-118.54-56.33h-9.54v-.77h2.37v-2.81a2.76 2.76 0 0 1-1.05-.91 2.194 2.194 0 0 1-.38-1.25 2.155 2.155 0 0 1 .49-1.4 3.069 3.069 0 0 1 1.35-.94 5.494 5.494 0 0 1 1.97-.34 5.455 5.455 0 0 1 1.97.34 3.152 3.152 0 0 1 1.35.94 2.19 2.19 0 0 1 .49 1.4 2.166 2.166 0 0 1-.36 1.23 2.724 2.724 0 0 1-1.02.9v2.84h2.37v.77zm-7.34-4.73a2.525 2.525 0 0 0 1.03.69 4.2 4.2 0 0 0 1.51.24 4.471 4.471 0 0 0 1.51-.24 2.321 2.321 0 0 0 1.04-.69 1.536 1.536 0 0 0 .38-1.02 1.446 1.446 0 0 0-.38-1.01 2.516 2.516 0 0 0-1.04-.68 4.169 4.169 0 0 0-1.51-.23 4.4 4.4 0 0 0-1.51.23 2.273 2.273 0 0 0-1.03.68 1.573 1.573 0 0 0-.37 1.01 1.527 1.527 0 0 0 .37 1.02zm4.05 3.95v-2.48a5.931 5.931 0 0 1-1.5.18 5.716 5.716 0 0 1-1.48-.18v2.47h2.98z" style="fill:#3f52fc" transform="translate(355.49 147.23)"/>
            <path data-name="패스 5506" d="M-116.99-55.98a.752.752 0 0 1-.28-.28.721.721 0 0 1-.1-.38.686.686 0 0 1 .1-.37.833.833 0 0 1 .28-.28.721.721 0 0 1 .38-.1.686.686 0 0 1 .37.1.9.9 0 0 1 .28.27.686.686 0 0 1 .1.37.732.732 0 0 1-.22.54.719.719 0 0 1-.53.23.746.746 0 0 1-.38-.1z" style="fill:#3f52fc" transform="translate(355.49 147.23)"/>
        </g>
        <g data-name="그룹 4025">
            <path data-name="패스 5507" d="M-225.33-99.98a2.364 2.364 0 0 1 .97-.85 3.207 3.207 0 0 1 1.41-.3 3.1 3.1 0 0 1 1.41.3 2.3 2.3 0 0 1 .97.85 2.306 2.306 0 0 1 .35 1.25 2.272 2.272 0 0 1-.35 1.24 2.364 2.364 0 0 1-.97.85 3.177 3.177 0 0 1-1.41.3 3.207 3.207 0 0 1-1.41-.3 2.238 2.238 0 0 1-.97-.85 2.3 2.3 0 0 1-.35-1.24 2.2 2.2 0 0 1 .35-1.25zm.78 2.08a1.592 1.592 0 0 0 .65.58 2.075 2.075 0 0 0 .95.21 2.033 2.033 0 0 0 .94-.21 1.658 1.658 0 0 0 .65-.58 1.518 1.518 0 0 0 .23-.84 1.6 1.6 0 0 0-.23-.84 1.449 1.449 0 0 0-.65-.57 2.2 2.2 0 0 0-.94-.21 2.075 2.075 0 0 0-.95.21 1.643 1.643 0 0 0-.65.57 1.5 1.5 0 0 0-.23.84 1.473 1.473 0 0 0 .23.84zm.47 2.38h.91v1.27h4.92v-1.27h.91v4.16h-6.75v-4.16zm5.84 3.41v-1.41h-4.92v1.41zm.91-3.94h-.91v-5.59h.91z" style="fill:#fff" transform="translate(355.49 147.23)"/>
            <path data-name="패스 5508" d="M-207.27-100.31c0 .56-.02 1.07-.05 1.52a11.536 11.536 0 0 1-.23 1.54h1.53v.76h-9.54v-.76h7.08a10.662 10.662 0 0 0 .23-1.42c.04-.43.06-.87.06-1.33v-.31h-6.16v-.76h7.08zm-7.12 5.27h7.16v3.68h-7.16zm6.25 2.93v-2.2h-5.33v2.2z" style="fill:#fff" transform="translate(355.49 147.23)"/>
            <path data-name="패스 5509" d="M-200.67-100.89a2.154 2.154 0 0 1 .92.72 1.818 1.818 0 0 1 .33 1.08 1.816 1.816 0 0 1-.26.96 2 2 0 0 1-.74.7 2.906 2.906 0 0 1-1.1.35v1.02c1.07-.06 2.02-.15 2.87-.28l.07.69a24.4 24.4 0 0 1-2.95.33c-1.03.05-2.11.09-3.23.09h-.32l-.12-.76h.54c.85 0 1.59-.01 2.21-.04v-1.05a3.053 3.053 0 0 1-1.13-.34 1.884 1.884 0 0 1-.75-.7 1.877 1.877 0 0 1-.26-.97 1.818 1.818 0 0 1 .33-1.08 2.123 2.123 0 0 1 .91-.72 3.336 3.336 0 0 1 1.34-.26 3.336 3.336 0 0 1 1.34.26zm-2.84 2.5a1.393 1.393 0 0 0 .61.47 2.278 2.278 0 0 0 .89.17 2.278 2.278 0 0 0 .89-.17 1.452 1.452 0 0 0 .61-.47 1.115 1.115 0 0 0 .22-.69 1.174 1.174 0 0 0-.22-.71 1.377 1.377 0 0 0-.61-.47 2.278 2.278 0 0 0-.89-.17 2.278 2.278 0 0 0-.89.17 1.452 1.452 0 0 0-.61.47 1.136 1.136 0 0 0-.21.7 1.059 1.059 0 0 0 .21.7zm-.17 4.04h.93v2.12h6.07v.77h-7zm5.7-7.28h.93v3.53h1.56v.79h-1.56v3.66h-.93z" style="fill:#fff" transform="translate(355.49 147.23)"/>
            <path data-name="패스 5510" d="M-185.28-92.51h-9.54v-.77h2.68v-1.98h-1.49v-3.21h6.23v-1.63h-6.26v-.76h7.16v3.15h-6.22v1.69h6.47v.76h-1.63v1.98h2.59v.77zm-3.49-.78v-1.98h-2.46v1.98z" style="fill:#fff" transform="translate(355.49 147.23)"/>
        </g>
        <g data-name="그룹 4026">
            <path data-name="패스 5511" d="M-67.12-136.23h-276.04a3.5 3.5 0 0 1-3.5-3.5 3.5 3.5 0 0 1 3.5-3.5h276.04a3.5 3.5 0 0 1 3.5 3.5 3.491 3.491 0 0 1-3.5 3.5z" style="fill:#fff" transform="translate(355.49 147.23)"/>
        </g>
        <g data-name="그룹 4029">
            <g data-name="그룹 4027" transform="translate(355.49 147.23)">
                <circle data-name="타원 171" cx="7" cy="7" r="7" transform="translate(-354.99 -146.73)" style="fill:#3f52fc"/>
                <path data-name="패스 5512" d="M-347.99-132.23a7.5 7.5 0 0 1-7.5-7.5 7.5 7.5 0 0 1 7.5-7.5 7.5 7.5 0 0 1 7.5 7.5 7.5 7.5 0 0 1-7.5 7.5zm0-14a6.513 6.513 0 0 0-6.5 6.5 6.513 6.513 0 0 0 6.5 6.5 6.513 6.513 0 0 0 6.5-6.5 6.506 6.506 0 0 0-6.5-6.5z" style="fill:#3f52fc"/>
            </g>
            <g data-name="그룹 4028">
                <path data-name="패스 5513" d="M-347.21-136.04h-.87v-6.03h-.04l-1.68 1.12v-.87l1.72-1.15h.87z" style="fill:#fff" transform="translate(355.49 147.23)"/>
            </g>
        </g>
        <g data-name="그룹 4030">
            <path data-name="패스 5514" d="M-354.7-121.84a2.5 2.5 0 0 1 1.02-.88 3.293 3.293 0 0 1 1.46-.31 3.293 3.293 0 0 1 1.46.31 2.5 2.5 0 0 1 1.02.88 2.291 2.291 0 0 1 .37 1.29 2.2 2.2 0 0 1-.37 1.27 2.555 2.555 0 0 1-1.02.87 3.293 3.293 0 0 1-1.46.31 3.293 3.293 0 0 1-1.46-.31 2.555 2.555 0 0 1-1.02-.87 2.226 2.226 0 0 1-.37-1.27 2.246 2.246 0 0 1 .37-1.29zm1.11 2.02a1.342 1.342 0 0 0 .56.49 1.8 1.8 0 0 0 .82.17 1.924 1.924 0 0 0 .81-.17 1.334 1.334 0 0 0 .56-.49 1.294 1.294 0 0 0 .2-.73 1.439 1.439 0 0 0-.2-.74 1.218 1.218 0 0 0-.56-.49 1.924 1.924 0 0 0-.81-.17 1.937 1.937 0 0 0-.82.17 1.277 1.277 0 0 0-.56.49 1.388 1.388 0 0 0-.2.74 1.272 1.272 0 0 0 .2.73zm.15 2.49h1.29v1.09h4.42v-1.09h1.3v4.29h-7.01zm5.71 3.23v-1.12h-4.42v1.12zm1.3-3.72h-1.31v-5.68h1.31z" style="fill:#3f52fc" transform="translate(355.49 147.23)"/>
            <path data-name="패스 5515" d="M-336.39-122.17v.33c0 .45-.02.89-.05 1.31a9.349 9.349 0 0 1-.21 1.37h1.44v1.05h-9.68v-1.05h6.92a10.529 10.529 0 0 0 .22-1.42c.03-.43.05-.89.05-1.37h-6v-1.04h7.3v.82zm-7.34 5.29h7.32v3.83h-7.32zm6.04 2.78v-1.76h-4.76v1.76z" style="fill:#3f52fc" transform="translate(355.49 147.23)"/>
            <path data-name="패스 5516" d="M-329.94-122.78a2.214 2.214 0 0 1 .94.75 2 2 0 0 1 .35 1.11 1.924 1.924 0 0 1-.25.95 2.152 2.152 0 0 1-.69.72 2.613 2.613 0 0 1-1.03.4v.86c.99-.06 1.86-.14 2.59-.25l.11.95a25.108 25.108 0 0 1-2.98.34q-1.56.09-3.21.09h-.27l-.14-1.04c.98 0 1.84-.01 2.59-.04v-.91a2.914 2.914 0 0 1-1.06-.39 2.124 2.124 0 0 1-.71-.72 1.86 1.86 0 0 1-.25-.96 1.849 1.849 0 0 1 .34-1.11 2.276 2.276 0 0 1 .94-.75 3.317 3.317 0 0 1 1.37-.27 3.3 3.3 0 0 1 1.36.27zm-3.15 6.65h1.3v1.93h6.04v1.05h-7.34zm.52-4.19a1.219 1.219 0 0 0 .51.4 1.793 1.793 0 0 0 .75.14 1.641 1.641 0 0 0 1.03-.31 1.029 1.029 0 0 0 .4-.83 1 1 0 0 0-.4-.83 1.638 1.638 0 0 0-1.03-.3 1.967 1.967 0 0 0-.75.13 1.127 1.127 0 0 0-.51.39 1.045 1.045 0 0 0-.18.61 1.014 1.014 0 0 0 .18.6zm5.14-3.18h1.3v3.42h1.43v1.08h-1.43v3.59h-1.3z" style="fill:#3f52fc" transform="translate(355.49 147.23)"/>
            <path data-name="패스 5517" d="M-314.46-114.15h-9.68v-1.08h2.57v-1.75H-323v-3.46h6.09v-1.3h-6.12v-1.05h7.41v3.4h-6.08v1.36h6.33v1.05h-1.55v1.75h2.45v1.08zm-3.73-1.07v-1.75h-2.12v1.75z" style="fill:#3f52fc" transform="translate(355.49 147.23)"/>
        </g>
        <g data-name="그룹 4031">
            <path data-name="패스 5518" d="M-224.65-123.02a2.7 2.7 0 0 1 1.03-.95 3.041 3.041 0 0 1 1.45-.34 3.069 3.069 0 0 1 1.45.34 2.555 2.555 0 0 1 1.03.95 2.549 2.549 0 0 1 .37 1.36 2.535 2.535 0 0 1-.37 1.37 2.626 2.626 0 0 1-1.03.95 3.069 3.069 0 0 1-1.45.34 3.069 3.069 0 0 1-1.45-.34 2.555 2.555 0 0 1-1.03-.95 2.567 2.567 0 0 1-.38-1.37 2.558 2.558 0 0 1 .38-1.36zm1.1 2.17a1.3 1.3 0 0 0 .56.53 1.8 1.8 0 0 0 .82.19 1.631 1.631 0 0 0 .8-.19 1.364 1.364 0 0 0 .56-.53 1.614 1.614 0 0 0 .21-.8 1.481 1.481 0 0 0-.21-.79 1.386 1.386 0 0 0-.57-.53 1.78 1.78 0 0 0-.8-.19 1.67 1.67 0 0 0-.81.19 1.456 1.456 0 0 0-.57.53 1.475 1.475 0 0 0-.2.79 1.727 1.727 0 0 0 .21.8zm.15 2.73h1.31v2.44h5.99v1.05h-7.3zm7.01.78h-1.31V-125h1.31z" style="fill:#707070" transform="translate(355.49 147.23)"/>
            <path data-name="패스 5519" d="M-214.85-119.18h9.66v1.08h-4.21v3.69h-1.29v-3.69h-4.16zm5.99-3.65a3.843 3.843 0 0 0 1.33 1.08 5.634 5.634 0 0 0 1.95.59l-.52 1.05a6.409 6.409 0 0 1-2.37-.82 4.14 4.14 0 0 1-1.55-1.53 4.371 4.371 0 0 1-1.55 1.53 6.2 6.2 0 0 1-2.35.82l-.52-1.05a5.579 5.579 0 0 0 1.94-.59 3.8 3.8 0 0 0 1.32-1.08 2.164 2.164 0 0 0 .47-1.3v-.54h1.37v.54a2.245 2.245 0 0 0 .48 1.3z" style="fill:#707070" transform="translate(355.49 147.23)"/>
            <path data-name="패스 5520" d="M-204.15-123.75h3.96v1.05h-2.65v4.71c.61-.01 1.17-.03 1.66-.07s1-.11 1.51-.2l.09 1.07a11.871 11.871 0 0 1-1.74.23c-.57.03-1.28.06-2.13.07h-.71v-6.86zm8.79 9.33h-1.24v-5.4h-1.2v4.86h-1.2v-9.86h1.2v3.95h1.2v-4.15h1.24z" style="fill:#707070" transform="translate(355.49 147.23)"/>
            <path data-name="패스 5521" d="M-190.95-119.66a6.121 6.121 0 0 0 1.21-3.19h-3.75v-1.03h5.07a8.469 8.469 0 0 1-1.14 4.43 8.5 8.5 0 0 1-3.79 3.16l-.68-1.04a8.306 8.306 0 0 0 3.08-2.33zm5.69 5.24h-1.31v-10.59h1.31z" style="fill:#707070" transform="translate(355.49 147.23)"/>
        </g>
        <g data-name="그룹 4034">
            <g data-name="그룹 4032" transform="translate(355.49 147.23)">
                <circle data-name="타원 172" cx="7" cy="7" r="7" transform="translate(-211.83 -146.73)" style="fill:#fff"/>
                <path data-name="패스 5522" d="M-204.83-132.23a7.5 7.5 0 0 1-7.5-7.5 7.5 7.5 0 0 1 7.5-7.5 7.5 7.5 0 0 1 7.5 7.5 7.5 7.5 0 0 1-7.5 7.5zm0-14a6.513 6.513 0 0 0-6.5 6.5 6.513 6.513 0 0 0 6.5 6.5 6.513 6.513 0 0 0 6.5-6.5 6.506 6.506 0 0 0-6.5-6.5z" style="fill:#707070"/>
            </g>
            <g data-name="그룹 4033">
                <path data-name="패스 5523" d="m-207.06-136.68 2.36-2.49c.31-.33.55-.6.71-.8a3.075 3.075 0 0 0 .38-.59 1.368 1.368 0 0 0 .13-.59 1.045 1.045 0 0 0-.18-.61 1.194 1.194 0 0 0-.5-.41 1.6 1.6 0 0 0-.7-.15 1.462 1.462 0 0 0-.71.17 1.157 1.157 0 0 0-.47.46 1.345 1.345 0 0 0-.17.68h-.81a2.011 2.011 0 0 1 .28-1.07 1.9 1.9 0 0 1 .79-.72 2.462 2.462 0 0 1 1.12-.26 2.385 2.385 0 0 1 1.11.25 1.983 1.983 0 0 1 .77.69 1.836 1.836 0 0 1 .28.98 1.944 1.944 0 0 1-.15.76 3.068 3.068 0 0 1-.48.8q-.345.435-.96 1.08l-1.59 1.64v.06h3.3v.77h-4.5z" style="fill:#707070" transform="translate(355.49 147.23)"/>
            </g>
        </g>
        <g data-name="그룹 4035">
            <path data-name="패스 5524" d="M-94.07-119.68a6.293 6.293 0 0 0 1.15-3.18h-3.64v-1.03h4.96a9.917 9.917 0 0 1-.45 3.02 6.839 6.839 0 0 1-1.5 2.52 9.29 9.29 0 0 1-2.82 2.02l-.68-1.02a7.9 7.9 0 0 0 2.98-2.33zm5.95 5.27h-1.3v-5.39h-2.24v-1.07h2.24v-4.14h1.3z" style="fill:#707070" transform="translate(355.49 147.23)"/>
            <path data-name="패스 5525" d="M-82.31-119.98h-2.74v2.06c.62-.01 1.18-.03 1.7-.06a14.705 14.705 0 0 0 1.58-.18l.09 1.05c-.66.11-1.28.18-1.87.22s-1.27.06-2.03.06h-.73v-4.21h2.74v-1.84h-2.75v-1.05h4.01v3.95zm1.17-4.83h1.2v3.87h1.2v-4.07h1.24v10.59h-1.24v-5.47h-1.2v4.93h-1.2z" style="fill:#707070" transform="translate(355.49 147.23)"/>
            <path data-name="패스 5526" d="M-70.79-119.88h4.2v1.05h-9.66v-1.05h4.17v-1.35h1.29zm-3.31-2.15a3.811 3.811 0 0 0 1.19-.65 1.618 1.618 0 0 0 .56-.82h-3.02v-1.04h7.91v1.04h-3.05a1.618 1.618 0 0 0 .56.82 3.759 3.759 0 0 0 1.2.65 6.97 6.97 0 0 0 1.71.36l-.47 1.02a6.715 6.715 0 0 1-2.46-.68 3.365 3.365 0 0 1-1.46-1.34 3.279 3.279 0 0 1-1.45 1.34 6.919 6.919 0 0 1-2.45.68l-.46-1.02a6.706 6.706 0 0 0 1.69-.36zm-.58 4.74a2.8 2.8 0 0 1 1.27-.63 8.078 8.078 0 0 1 1.98-.22 7.538 7.538 0 0 1 1.97.22 2.864 2.864 0 0 1 1.26.63 1.342 1.342 0 0 1 .44 1 1.333 1.333 0 0 1-.44 1.01 2.864 2.864 0 0 1-1.26.63 8.051 8.051 0 0 1-1.97.22 7.619 7.619 0 0 1-1.98-.22 3.019 3.019 0 0 1-1.27-.63 1.348 1.348 0 0 1-.44-1.01 1.293 1.293 0 0 1 .44-1zm1.48 1.66a5.333 5.333 0 0 0 1.77.22 5.24 5.24 0 0 0 1.75-.22c.4-.15.61-.37.61-.66s-.21-.49-.61-.64a5.306 5.306 0 0 0-1.76-.22 5.613 5.613 0 0 0-1.77.22c-.4.14-.6.35-.59.64s.19.51.6.66z" style="fill:#707070" transform="translate(355.49 147.23)"/>
            <path data-name="패스 5527" d="M-56.2-115.65h-9.68v-1.08h2.57v-1.75h-1.42v-3.46h6.09v-1.3h-6.12v-1.05h7.41v3.4h-6.08v1.36h6.33v1.05h-1.55v1.75h2.45v1.08zm-3.72-1.07v-1.75h-2.12v1.75z" style="fill:#707070" transform="translate(355.49 147.23)"/>
        </g>
        <g data-name="그룹 4038">
            <g data-name="그룹 4036" transform="translate(355.49 147.23)">
                <circle data-name="타원 173" cx="7" cy="7" r="7" transform="translate(-69.86 -146.73)" style="fill:#fff"/>
                <path data-name="패스 5528" d="M-62.86-132.23a7.5 7.5 0 0 1-7.5-7.5 7.5 7.5 0 0 1 7.5-7.5 7.5 7.5 0 0 1 7.5 7.5 7.5 7.5 0 0 1-7.5 7.5zm0-14a6.513 6.513 0 0 0-6.5 6.5 6.513 6.513 0 0 0 6.5 6.5 6.513 6.513 0 0 0 6.5-6.5 6.506 6.506 0 0 0-6.5-6.5z" style="fill:#707070"/>
            </g>
            <g data-name="그룹 4037">
                <path data-name="패스 5529" d="M-64.06-136.18a1.939 1.939 0 0 1-.85-.65 1.637 1.637 0 0 1-.33-.96h.87a.967.967 0 0 0 .23.57 1.3 1.3 0 0 0 .54.37 2.056 2.056 0 0 0 .76.13 2.088 2.088 0 0 0 .81-.15 1.3 1.3 0 0 0 .56-.43 1.008 1.008 0 0 0 .2-.63 1.176 1.176 0 0 0-.2-.67 1.3 1.3 0 0 0-.58-.46 2.273 2.273 0 0 0-.91-.17h-.56v-.76h.56a1.747 1.747 0 0 0 .74-.15 1.1 1.1 0 0 0 .5-.42 1.1 1.1 0 0 0 .18-.62 1.135 1.135 0 0 0-.16-.61 1.059 1.059 0 0 0-.45-.41 1.48 1.48 0 0 0-.68-.15 1.822 1.822 0 0 0-.7.14 1.228 1.228 0 0 0-.53.38.925.925 0 0 0-.22.58h-.83a1.584 1.584 0 0 1 .33-.95 2.064 2.064 0 0 1 .83-.65 2.818 2.818 0 0 1 1.13-.23 2.343 2.343 0 0 1 1.12.25 1.878 1.878 0 0 1 .74.68 1.657 1.657 0 0 1 .25.92 1.609 1.609 0 0 1-.31 1 1.557 1.557 0 0 1-.87.57v.05a1.744 1.744 0 0 1 .77.29 1.478 1.478 0 0 1 .5.58 1.832 1.832 0 0 1 .17.79 1.723 1.723 0 0 1-.31 1.01 2.154 2.154 0 0 1-.86.71 2.926 2.926 0 0 1-1.24.26 2.623 2.623 0 0 1-1.2-.21z" style="fill:#707070" transform="translate(355.49 147.23)"/>
            </g>
        </g>
    </g>
</svg>
