<svg xmlns="http://www.w3.org/2000/svg" width="794.33" height="110.72" viewBox="0 0 794.33 110.72">
    <g data-name="입금완료(구매)">
        <g data-name="그룹 3881">
            <path data-name="패스 5284" d="M-307.03-405.69h-722.77c-1.23 0-2.23-1.57-2.23-3.5s1-3.5 2.23-3.5h722.77c1.23 0 2.23 1.57 2.23 3.5s-.99 3.5-2.23 3.5z" style="fill:#f0f0f0" transform="translate(1068.52 421.89)"/>
        </g>
        <g data-name="그룹 3882">
            <path data-name="패스 5285" d="M-684.53-378.85a3.939 3.939 0 0 1 1.55-1.42 4.669 4.669 0 0 1 2.18-.51 4.67 4.67 0 0 1 2.18.51 3.844 3.844 0 0 1 1.54 1.42 3.811 3.811 0 0 1 .56 2.04 3.88 3.88 0 0 1-.56 2.06 3.776 3.776 0 0 1-1.54 1.42 4.669 4.669 0 0 1-2.18.51 4.67 4.67 0 0 1-2.18-.51 3.867 3.867 0 0 1-1.55-1.42 3.8 3.8 0 0 1-.57-2.06 3.733 3.733 0 0 1 .57-2.04zm1.65 3.24a2.025 2.025 0 0 0 .84.8 2.593 2.593 0 0 0 1.23.28 2.473 2.473 0 0 0 1.2-.28 2.086 2.086 0 0 0 .84-.8 2.381 2.381 0 0 0 .31-1.2 2.248 2.248 0 0 0-.31-1.19 2.112 2.112 0 0 0-.85-.8 2.528 2.528 0 0 0-1.2-.28 2.58 2.58 0 0 0-1.22.28 2.05 2.05 0 0 0-.85.8 2.338 2.338 0 0 0-.3 1.19 2.428 2.428 0 0 0 .31 1.2zm.22 4.11h1.97v3.66h8.98v1.58h-10.95v-5.24zm10.52 1.16h-1.97v-11.48h1.97z" style="fill:#707070" transform="translate(1068.52 421.89)"/>
            <path data-name="패스 5286" d="M-669.82-373.1h14.48v1.62h-6.31v5.54h-1.93v-5.54h-6.24zm8.97-5.47a5.92 5.92 0 0 0 2 1.63 8.442 8.442 0 0 0 2.93.89l-.77 1.58a9.525 9.525 0 0 1-3.55-1.23 6.481 6.481 0 0 1-2.33-2.29 6.449 6.449 0 0 1-2.32 2.29 9.327 9.327 0 0 1-3.52 1.23l-.77-1.58a8.478 8.478 0 0 0 2.91-.89 5.8 5.8 0 0 0 1.98-1.62 3.224 3.224 0 0 0 .7-1.96v-.81h2.06v.81a3.072 3.072 0 0 0 .68 1.95z" style="fill:#707070" transform="translate(1068.52 421.89)"/>
            <path data-name="패스 5287" d="M-653.77-379.96h5.94v1.58h-3.97v7.07c.92-.01 1.75-.05 2.5-.11a22.805 22.805 0 0 0 2.27-.3l.14 1.6a19.9 19.9 0 0 1-2.61.35c-.86.06-1.92.09-3.19.11h-1.07v-10.3zm13.18 14.01h-1.86v-8.1h-1.79v7.29h-1.79v-14.78h1.79v5.92h1.79v-6.22h1.86z" style="fill:#707070" transform="translate(1068.52 421.89)"/>
            <path data-name="패스 5288" d="M-633.99-373.81a9.2 9.2 0 0 0 1.81-4.79h-5.62v-1.55h7.61a12.648 12.648 0 0 1-1.71 6.64 12.756 12.756 0 0 1-5.69 4.75l-1.02-1.56a12.219 12.219 0 0 0 4.62-3.49zm8.55 7.86h-1.97v-15.89h1.97z" style="fill:#707070" transform="translate(1068.52 421.89)"/>
        </g>
        <g data-name="그룹 3883">
            <path data-name="패스 5289" d="M-331-373.84a9.433 9.433 0 0 0 1.72-4.76h-5.47v-1.55h7.44a14.746 14.746 0 0 1-.68 4.53 10.264 10.264 0 0 1-2.25 3.77 14.27 14.27 0 0 1-4.22 3.03l-1.02-1.53a11.807 11.807 0 0 0 4.48-3.49zm8.93 7.89h-1.95v-8.09h-3.36v-1.6h3.36v-6.21h1.95z" style="fill:#707070" transform="translate(1068.52 421.89)"/>
            <path data-name="패스 5290" d="M-313.35-374.3h-4.11v3.09c.93-.01 1.77-.04 2.54-.09a22.922 22.922 0 0 0 2.38-.28l.14 1.58c-.98.16-1.92.27-2.81.33s-1.9.09-3.05.09h-1.09v-6.31h4.11v-2.76h-4.13v-1.58h6.01v5.93zm1.75-7.24h1.79v5.8h1.79v-6.1h1.86v15.89h-1.86v-8.21h-1.79v7.4h-1.79z" style="fill:#707070" transform="translate(1068.52 421.89)"/>
            <path data-name="패스 5291" d="M-296.08-374.14h6.29v1.58h-14.48v-1.58h6.26v-2.02h1.93zm-4.96-3.23a5.715 5.715 0 0 0 1.78-.97 2.46 2.46 0 0 0 .84-1.23h-4.54v-1.56h11.87v1.56h-4.58a2.48 2.48 0 0 0 .84 1.23 5.693 5.693 0 0 0 1.79.98 10.314 10.314 0 0 0 2.56.54l-.7 1.53a10.33 10.33 0 0 1-3.69-1.02 4.919 4.919 0 0 1-2.18-2 4.934 4.934 0 0 1-2.18 2.01 10.218 10.218 0 0 1-3.67 1.02l-.69-1.53a11.178 11.178 0 0 0 2.55-.56zm-.88 7.1a4.284 4.284 0 0 1 1.9-.94 12.2 12.2 0 0 1 2.98-.33 11.485 11.485 0 0 1 2.95.33 4.405 4.405 0 0 1 1.89.94 1.994 1.994 0 0 1 .66 1.51 2.042 2.042 0 0 1-.65 1.52 4.247 4.247 0 0 1-1.89.95 11.567 11.567 0 0 1-2.96.33 11.787 11.787 0 0 1-2.98-.33 4.289 4.289 0 0 1-1.9-.95 2.015 2.015 0 0 1-.66-1.52 2.009 2.009 0 0 1 .66-1.51zm2.22 2.49a8.169 8.169 0 0 0 2.66.33 8.047 8.047 0 0 0 2.63-.33c.6-.22.91-.55.92-.98-.01-.42-.31-.74-.91-.95a8.661 8.661 0 0 0-2.64-.33 8.763 8.763 0 0 0-2.66.33c-.6.21-.9.53-.89.95-.01.43.29.76.89.98z" style="fill:#707070" transform="translate(1068.52 421.89)"/>
            <path data-name="패스 5292" d="M-274.19-367.79h-14.52v-1.62h3.85v-2.62h-2.13v-5.19h9.14v-1.95h-9.18v-1.58h11.11v5.1h-9.12v2.04h9.49v1.58h-2.32v2.62h3.67v1.62zm-5.59-1.62v-2.62h-3.18v2.62z" style="fill:#707070" transform="translate(1068.52 421.89)"/>
        </g>
        <g data-name="그룹 3884" transform="translate(1068.52 421.89)">
            <circle data-name="타원 162" cx="12.2" cy="12.2" r="12.2" transform="translate(-1050.41 -421.39)" style="fill:#3f52fc"/>
            <path data-name="패스 5293" d="M-1038.21-396.49a12.718 12.718 0 0 1-12.7-12.7 12.718 12.718 0 0 1 12.7-12.7 12.718 12.718 0 0 1 12.7 12.7 12.718 12.718 0 0 1-12.7 12.7zm0-24.39a11.715 11.715 0 0 0-11.7 11.7 11.715 11.715 0 0 0 11.7 11.7 11.715 11.715 0 0 0 11.7-11.7 11.715 11.715 0 0 0-11.7-11.7z" style="fill:#3f52fc"/>
        </g>
        <g data-name="그룹 3885">
            <path data-name="패스 5294" d="M-1036.86-402.77h-1.52v-10.5h-.07l-2.93 1.95v-1.52l3-2h1.52z" style="fill:#fff" transform="translate(1068.52 421.89)"/>
        </g>
        <g data-name="그룹 3886" transform="translate(1068.52 421.89)">
            <circle data-name="타원 163" cx="12.2" cy="12.2" r="12.2" transform="translate(-666.99 -421.39)" style="fill:#fff"/>
            <path data-name="패스 5295" d="M-654.79-396.49a12.718 12.718 0 0 1-12.7-12.7 12.718 12.718 0 0 1 12.7-12.7 12.718 12.718 0 0 1 12.7 12.7 12.718 12.718 0 0 1-12.7 12.7zm0-24.39a11.715 11.715 0 0 0-11.7 11.7 11.715 11.715 0 0 0 11.7 11.7 11.715 11.715 0 0 0 11.7-11.7 11.721 11.721 0 0 0-11.7-11.7z" style="fill:#707070"/>
        </g>
        <g data-name="그룹 3887">
            <path data-name="패스 5296" d="m-658.69-403.87 4.12-4.33c.54-.58.95-1.04 1.24-1.4a4.552 4.552 0 0 0 .65-1.02 2.446 2.446 0 0 0 .22-1.03 1.851 1.851 0 0 0-.32-1.07 2.1 2.1 0 0 0-.86-.72 2.835 2.835 0 0 0-1.22-.26 2.581 2.581 0 0 0-1.24.29 1.977 1.977 0 0 0-.82.8 2.371 2.371 0 0 0-.29 1.18h-1.42a3.492 3.492 0 0 1 .49-1.86 3.4 3.4 0 0 1 1.37-1.26 4.222 4.222 0 0 1 1.96-.45 4.188 4.188 0 0 1 1.93.44 3.346 3.346 0 0 1 1.34 1.21 3.142 3.142 0 0 1 .48 1.7 3.916 3.916 0 0 1-.25 1.32 5.731 5.731 0 0 1-.84 1.4 20.858 20.858 0 0 1-1.68 1.88l-2.77 2.85v.1h5.75v1.33h-7.84z" style="fill:#707070" transform="translate(1068.52 421.89)"/>
        </g>
        <g data-name="그룹 3888" transform="translate(1068.52 421.89)">
            <circle data-name="타원 164" cx="12.2" cy="12.2" r="12.2" transform="translate(-316.99 -421.39)" style="fill:#fff"/>
            <path data-name="패스 5297" d="M-304.79-396.49a12.718 12.718 0 0 1-12.7-12.7 12.718 12.718 0 0 1 12.7-12.7 12.718 12.718 0 0 1 12.7 12.7 12.718 12.718 0 0 1-12.7 12.7zm0-24.39a11.715 11.715 0 0 0-11.7 11.7 11.715 11.715 0 0 0 11.7 11.7 11.715 11.715 0 0 0 11.7-11.7 11.721 11.721 0 0 0-11.7-11.7z" style="fill:#707070"/>
        </g>
        <g data-name="그룹 3889">
            <path data-name="패스 5298" d="M-306.89-403a3.566 3.566 0 0 1-1.49-1.13 2.837 2.837 0 0 1-.58-1.67h1.52a1.68 1.68 0 0 0 .4.99 2.334 2.334 0 0 0 .95.65 3.693 3.693 0 0 0 1.32.23 3.561 3.561 0 0 0 1.42-.27 2.34 2.34 0 0 0 .98-.75 1.783 1.783 0 0 0 .35-1.1 2.042 2.042 0 0 0-.35-1.17 2.314 2.314 0 0 0-1-.8 3.979 3.979 0 0 0-1.58-.29h-.98v-1.32h.98a3.094 3.094 0 0 0 1.29-.26 2.054 2.054 0 0 0 .88-.73 1.876 1.876 0 0 0 .31-1.08 2 2 0 0 0-.27-1.05 1.918 1.918 0 0 0-.78-.71 2.638 2.638 0 0 0-1.19-.25 3.315 3.315 0 0 0-1.22.24 2.256 2.256 0 0 0-.93.66 1.661 1.661 0 0 0-.39 1h-1.45a2.807 2.807 0 0 1 .58-1.66 3.725 3.725 0 0 1 1.45-1.13 4.754 4.754 0 0 1 1.97-.4 4.155 4.155 0 0 1 1.95.44 3.213 3.213 0 0 1 1.29 1.18 2.937 2.937 0 0 1 .44 1.61 2.756 2.756 0 0 1-.54 1.74 2.869 2.869 0 0 1-1.51 1v.08a3.223 3.223 0 0 1 1.35.51 2.572 2.572 0 0 1 .87 1.01 3.106 3.106 0 0 1 .3 1.38 2.965 2.965 0 0 1-.55 1.76 3.678 3.678 0 0 1-1.5 1.24 5.015 5.015 0 0 1-2.15.45 5.553 5.553 0 0 1-2.14-.4z" style="fill:#707070" transform="translate(1068.52 421.89)"/>
        </g>
        <g data-name="그룹 3890">
            <path data-name="패스 5299" d="M-1067.96-377.92a3.654 3.654 0 0 1 1.53-1.32 5.039 5.039 0 0 1 2.2-.47 5.025 5.025 0 0 1 2.19.47 3.655 3.655 0 0 1 1.53 1.32 3.456 3.456 0 0 1 .55 1.93 3.39 3.39 0 0 1-.55 1.91 3.7 3.7 0 0 1-1.53 1.31 5.026 5.026 0 0 1-2.19.47 5.07 5.07 0 0 1-2.2-.47 3.7 3.7 0 0 1-1.53-1.31 3.4 3.4 0 0 1-.56-1.91 3.487 3.487 0 0 1 .56-1.93zm1.66 3.04a1.933 1.933 0 0 0 .84.73 2.848 2.848 0 0 0 1.23.26 2.758 2.758 0 0 0 1.21-.26 2 2 0 0 0 .84-.73 2.016 2.016 0 0 0 .3-1.1 2.015 2.015 0 0 0-.3-1.1 1.933 1.933 0 0 0-.84-.73 2.787 2.787 0 0 0-1.21-.25 2.816 2.816 0 0 0-1.23.25 2 2 0 0 0-.84.73 2.04 2.04 0 0 0-.3 1.1 2.04 2.04 0 0 0 .3 1.1zm.23 3.73h1.93v1.63h6.63v-1.63h1.95v6.43h-10.51zm8.56 4.85v-1.69h-6.63v1.69zm1.95-5.59h-1.97v-8.53h1.97z" style="fill:#3f52fc" transform="translate(1068.52 421.89)"/>
            <path data-name="패스 5300" d="M-1040.5-378.41v.49c0 .68-.03 1.34-.08 1.97a17.491 17.491 0 0 1-.31 2.06h2.16v1.58h-14.52v-1.58h10.38a15.419 15.419 0 0 0 .33-2.13c.05-.65.08-1.33.08-2.06h-9v-1.56h10.95v1.23zm-11 7.95h10.99v5.75h-10.99zm9.05 4.16v-2.64h-7.14v2.64z" style="fill:#3f52fc" transform="translate(1068.52 421.89)"/>
            <path data-name="패스 5301" d="M-1030.83-379.32a3.424 3.424 0 0 1 1.42 1.13 2.9 2.9 0 0 1 .52 1.67 2.843 2.843 0 0 1-.38 1.42 3.341 3.341 0 0 1-1.04 1.08 4.071 4.071 0 0 1-1.55.59v1.28c1.49-.09 2.78-.21 3.88-.37l.16 1.42a38.685 38.685 0 0 1-4.46.51c-1.56.09-3.16.14-4.82.14h-.4l-.21-1.56c1.46 0 2.76-.02 3.88-.05v-1.36a4.255 4.255 0 0 1-1.59-.58 3.124 3.124 0 0 1-1.06-1.08 2.809 2.809 0 0 1-.37-1.44 2.845 2.845 0 0 1 .51-1.67 3.392 3.392 0 0 1 1.41-1.13 4.982 4.982 0 0 1 2.06-.4 4.887 4.887 0 0 1 2.04.4zm-4.71 9.98h1.95v2.9h9.05v1.58h-11zm.77-6.29a1.76 1.76 0 0 0 .76.6 2.831 2.831 0 0 0 1.12.21 2.488 2.488 0 0 0 1.55-.47 1.5 1.5 0 0 0 .59-1.24 1.537 1.537 0 0 0-.59-1.25 2.424 2.424 0 0 0-1.55-.46 3.021 3.021 0 0 0-1.12.2 1.672 1.672 0 0 0-.76.59 1.477 1.477 0 0 0-.26.91 1.478 1.478 0 0 0 .26.91zm7.72-4.76h1.95v5.13h2.14v1.62h-2.14v5.38h-1.95z" style="fill:#3f52fc" transform="translate(1068.52 421.89)"/>
            <path data-name="패스 5302" d="M-1007.61-366.37h-14.52v-1.62h3.85v-2.62h-2.13v-5.19h9.14v-1.95h-9.18v-1.58h11.11v5.1h-9.12v2.04h9.49v1.58h-2.32v2.62h3.67v1.62zm-5.59-1.61v-2.62h-3.18v2.62z" style="fill:#3f52fc" transform="translate(1068.52 421.89)"/>
        </g>
        <g data-name="그룹 3891">
            <path data-name="패스 5303" d="M-827.28-329.36a3.4 3.4 0 0 1 1.36-1.18 4.428 4.428 0 0 1 1.95-.42 4.428 4.428 0 0 1 1.95.42 3.264 3.264 0 0 1 1.36 1.18 3.086 3.086 0 0 1 .49 1.72 3 3 0 0 1-.49 1.7 3.221 3.221 0 0 1-1.36 1.16 4.428 4.428 0 0 1-1.95.42 4.4 4.4 0 0 1-1.95-.42 3.366 3.366 0 0 1-1.36-1.16 3.005 3.005 0 0 1-.5-1.7 3.094 3.094 0 0 1 .5-1.72zm1.47 2.7a1.764 1.764 0 0 0 .75.65 2.575 2.575 0 0 0 1.1.23 2.516 2.516 0 0 0 1.08-.23 1.764 1.764 0 0 0 .75-.65 1.78 1.78 0 0 0 .27-.98 1.78 1.78 0 0 0-.27-.98 1.764 1.764 0 0 0-.75-.65 2.516 2.516 0 0 0-1.08-.23 2.574 2.574 0 0 0-1.1.23 1.764 1.764 0 0 0-.75.65 1.78 1.78 0 0 0-.27.98 1.78 1.78 0 0 0 .27.98zm.2 3.32h1.72v1.45h5.89v-1.45h1.73v5.72h-9.34v-5.72zm7.61 4.31v-1.5h-5.89v1.5zm1.74-4.97h-1.75v-7.58h1.75z" style="fill:#3f52fc" transform="translate(1068.52 421.89)"/>
            <path data-name="패스 5304" d="M-802.87-329.8v.44c0 .6-.02 1.19-.07 1.75a17.642 17.642 0 0 1-.27 1.83h1.92v1.41h-12.91v-1.41h9.23a15.234 15.234 0 0 0 .3-1.89c.05-.57.07-1.18.07-1.83h-8v-1.39h9.73v1.09zm-9.78 7.07h9.77v5.11h-9.77zm8.04 3.7v-2.34h-6.34v2.34z" style="fill:#3f52fc" transform="translate(1068.52 421.89)"/>
            <path data-name="패스 5305" d="M-799.45-328.19a4.013 4.013 0 0 1 1.31-1.75 3.154 3.154 0 0 1 1.91-.61 3.116 3.116 0 0 1 1.89.61 4.048 4.048 0 0 1 1.32 1.75 6.691 6.691 0 0 1 .48 2.62 6.689 6.689 0 0 1-.48 2.64 4.048 4.048 0 0 1-1.32 1.75 3.116 3.116 0 0 1-1.89.61 3.154 3.154 0 0 1-1.91-.61 3.956 3.956 0 0 1-1.31-1.75 6.914 6.914 0 0 1-.47-2.64 6.88 6.88 0 0 1 .47-2.62zm1.46 4.47a2.572 2.572 0 0 0 .71 1.18 1.525 1.525 0 0 0 1.05.41 1.543 1.543 0 0 0 1.05-.41 2.562 2.562 0 0 0 .7-1.18 5.934 5.934 0 0 0 .25-1.84 5.824 5.824 0 0 0-.25-1.83 2.707 2.707 0 0 0-.7-1.18 1.525 1.525 0 0 0-1.05-.41 1.525 1.525 0 0 0-1.05.41 2.718 2.718 0 0 0-.71 1.18 5.824 5.824 0 0 0-.25 1.83 5.61 5.61 0 0 0 .25 1.84zm9.37 6.28h-1.75v-14.14h1.75z" style="fill:#3f52fc" transform="translate(1068.52 421.89)"/>
            <path data-name="패스 5306" d="M-776.65-330.61a2.947 2.947 0 0 1 1.26 1 2.523 2.523 0 0 1 .46 1.48 2.619 2.619 0 0 1-.34 1.27 2.837 2.837 0 0 1-.93.96 3.75 3.75 0 0 1-1.38.53v1.14q1.98-.12 3.45-.33l.14 1.27a34.576 34.576 0 0 1-3.97.46c-1.39.08-2.81.12-4.28.12h-.36l-.19-1.39c1.3 0 2.45-.02 3.45-.05v-1.21a3.655 3.655 0 0 1-1.41-.52 2.7 2.7 0 0 1-.94-.96 2.543 2.543 0 0 1-.33-1.28 2.516 2.516 0 0 1 .45-1.48 2.977 2.977 0 0 1 1.25-1 4.461 4.461 0 0 1 1.83-.36 4.317 4.317 0 0 1 1.84.35zm-4.19 8.88h1.73v2.58h8.05v1.41h-9.78v-3.99zm.69-5.6a1.516 1.516 0 0 0 .68.53 2.583 2.583 0 0 0 1 .19 2.2 2.2 0 0 0 1.38-.41 1.351 1.351 0 0 0 .53-1.1 1.356 1.356 0 0 0-.53-1.11 2.2 2.2 0 0 0-1.38-.41 2.586 2.586 0 0 0-1 .18 1.553 1.553 0 0 0-.68.52 1.309 1.309 0 0 0-.23.81 1.22 1.22 0 0 0 .23.8zm6.85-4.23h1.73v4.56h1.91v1.44h-1.91v4.78h-1.73z" style="fill:#3f52fc" transform="translate(1068.52 421.89)"/>
            <path data-name="패스 5307" d="M-756.01-319.09h-12.91v-1.44h3.42v-2.33h-1.89v-4.61h8.12v-1.73h-8.16v-1.41h9.88v4.53h-8.11v1.81h8.44v1.41h-2.06v2.33h3.27v1.44zm-4.97-1.44v-2.33h-2.83v2.33z" style="fill:#3f52fc" transform="translate(1068.52 421.89)"/>
            <path data-name="패스 5308" d="M-746.87-325.75h-2.62v1.6q1.875-.075 3.45-.24l.12 1.25c-1.36.19-2.78.32-4.25.39s-3.02.11-4.62.11l-.23-1.39c1.66-.01 2.92-.03 3.78-.05v-1.66h-2.56v-4.95h6.83v1.41h-5.08v2.16h5.19v1.37zm-5.91 4h1.75v2.61h8.12v1.41h-9.88v-4.02zm7.72-9.83h1.75v10.61h-1.75z" style="fill:#3f52fc" transform="translate(1068.52 421.89)"/>
            <path data-name="패스 5309" d="M-732.08-327.61a4.116 4.116 0 0 0 1.13 1.45 5.148 5.148 0 0 0 1.81.97l-.94 1.36a5.4 5.4 0 0 1-1.94-1.12 5.411 5.411 0 0 1-1.29-1.74 5.774 5.774 0 0 1-1.32 1.99 5.443 5.443 0 0 1-2.05 1.26l-.94-1.36a5.163 5.163 0 0 0 1.88-1.1 4.744 4.744 0 0 0 1.15-1.64 4.992 4.992 0 0 0 .39-1.95v-1.34h1.73v1.5a3.968 3.968 0 0 0 .39 1.72zm-3.04 6.02a3.619 3.619 0 0 1 1.66-.91 9.174 9.174 0 0 1 2.55-.31 8.951 8.951 0 0 1 2.52.31 3.634 3.634 0 0 1 1.64.91 2.01 2.01 0 0 1 .57 1.43 2.04 2.04 0 0 1-.57 1.45 3.643 3.643 0 0 1-1.64.92 8.926 8.926 0 0 1-2.52.32 9.148 9.148 0 0 1-2.55-.32 3.721 3.721 0 0 1-1.66-.92 2.008 2.008 0 0 1-.58-1.45 2 2 0 0 1 .58-1.43zm1.94 2.42a6.092 6.092 0 0 0 2.26.33 5.975 5.975 0 0 0 2.24-.33 1.066 1.066 0 0 0 .78-.98c0-.42-.26-.74-.79-.96a5.925 5.925 0 0 0-2.23-.34 5.842 5.842 0 0 0-2.25.34c-.53.23-.8.55-.8.96 0 .43.27.75.79.98zm5.12-12.41h1.73v3.44h1.97v1.44h-1.97v3.58h-1.73z" style="fill:#3f52fc" transform="translate(1068.52 421.89)"/>
            <path data-name="패스 5310" d="M-717.44-328.66h-4.03v2.31h3.78v1.36h-3.78v2.75c.92-.01 1.71-.04 2.37-.08s1.33-.11 2.02-.22l.14 1.42c-.75.12-1.48.21-2.2.26s-1.61.07-2.66.07h-1.33v-9.27h5.69zm1.22-2.67h1.64v5.3h1.45v-5.55h1.67v14.12h-1.67v-7.17h-1.45v6.48h-1.64z" style="fill:#3f52fc" transform="translate(1068.52 421.89)"/>
            <path data-name="패스 5311" d="M-709.06-329.36a3.4 3.4 0 0 1 1.36-1.18 4.428 4.428 0 0 1 1.95-.42 4.428 4.428 0 0 1 1.95.42 3.264 3.264 0 0 1 1.36 1.18 3.086 3.086 0 0 1 .49 1.72 3 3 0 0 1-.49 1.7 3.221 3.221 0 0 1-1.36 1.16 4.428 4.428 0 0 1-1.95.42 4.4 4.4 0 0 1-1.95-.42 3.366 3.366 0 0 1-1.36-1.16 3.005 3.005 0 0 1-.5-1.7 3.015 3.015 0 0 1 .5-1.72zm1.47 2.7a1.764 1.764 0 0 0 .75.65 2.575 2.575 0 0 0 1.1.23 2.516 2.516 0 0 0 1.08-.23 1.764 1.764 0 0 0 .75-.65 1.78 1.78 0 0 0 .27-.98 1.78 1.78 0 0 0-.27-.98 1.764 1.764 0 0 0-.75-.65 2.516 2.516 0 0 0-1.08-.23 2.574 2.574 0 0 0-1.1.23 1.764 1.764 0 0 0-.75.65 1.78 1.78 0 0 0-.27.98 1.781 1.781 0 0 0 .27.98zm.2 3.32h1.72v1.45h5.89v-1.45h1.73v5.72h-9.34v-5.72zm7.61 4.31v-1.5h-5.89v1.5zm1.73-4.97h-1.75v-7.58h1.75z" style="fill:#3f52fc" transform="translate(1068.52 421.89)"/>
            <path data-name="패스 5312" d="M-695.17-330.2h1.72v7.72a35.393 35.393 0 0 0 6.27-.64l.22 1.45a33.409 33.409 0 0 1-6.98.67h-1.22v-9.2zm10.97 12.75h-1.72v-14.12h1.72z" style="fill:#3f52fc" transform="translate(1068.52 421.89)"/>
            <path data-name="패스 5313" d="M-681.58-330.23h6.61v1.41h-4.88v6.48c1.15 0 2.18-.04 3.09-.11s1.84-.18 2.78-.34l.2 1.47a27.074 27.074 0 0 1-3.03.35c-1 .06-2.2.09-3.61.09h-1.17v-9.35zm10.49 4.01h2.17v1.42h-2.17v7.36h-1.73v-14.14h1.73z" style="fill:#3f52fc" transform="translate(1068.52 421.89)"/>
            <path data-name="패스 5314" d="M-667.22-318.88a1.214 1.214 0 0 1-.45-.45 1.184 1.184 0 0 1-.16-.61 1.174 1.174 0 0 1 .16-.6 1.266 1.266 0 0 1 .45-.44 1.184 1.184 0 0 1 .61-.16 1.174 1.174 0 0 1 .6.16 1.322 1.322 0 0 1 .44.44 1.149 1.149 0 0 1 .16.6 1.184 1.184 0 0 1-.16.61 1.266 1.266 0 0 1-.44.45 1.149 1.149 0 0 1-.6.16 1.184 1.184 0 0 1-.61-.16z" style="fill:#3f52fc" transform="translate(1068.52 421.89)"/>
            <path data-name="패스 5315" d="M-657.39-324.61a8.2 8.2 0 0 0 1.29-3.84h-3.81v-1.41h5.53a12.81 12.81 0 0 1-.55 3.84h1.96v-5.22h1.64v13.11h-1.64v-6.5h-2.53a10.156 10.156 0 0 1-4.14 4.19l-.98-1.23a9.774 9.774 0 0 0 3.23-2.94zm9.06 7.16h-1.66v-14.12h1.66z" style="fill:#3f52fc" transform="translate(1068.52 421.89)"/>
            <path data-name="패스 5316" d="M-645.95-329.26a3.447 3.447 0 0 1 1.36-1.2 4.3 4.3 0 0 1 1.95-.43 4.3 4.3 0 0 1 1.95.43 3.38 3.38 0 0 1 1.36 1.2 3.162 3.162 0 0 1 .49 1.75 3.086 3.086 0 0 1-.49 1.72 3.286 3.286 0 0 1-1.36 1.19 4.3 4.3 0 0 1-1.95.43 4.3 4.3 0 0 1-1.95-.43 3.387 3.387 0 0 1-1.37-1.19 3.094 3.094 0 0 1-.5-1.72 3.323 3.323 0 0 1 .51-1.75zm1.47 2.73a1.856 1.856 0 0 0 .75.66 2.575 2.575 0 0 0 1.1.23 2.516 2.516 0 0 0 1.08-.23 1.721 1.721 0 0 0 .75-.66 1.791 1.791 0 0 0 .27-.99 1.86 1.86 0 0 0-.27-1.01 1.721 1.721 0 0 0-.75-.66 2.378 2.378 0 0 0-1.08-.23 2.574 2.574 0 0 0-1.1.23 1.786 1.786 0 0 0-.75.66 1.86 1.86 0 0 0-.27 1.01 1.973 1.973 0 0 0 .27.99zm.18 3.66h9.38v5.25h-9.38zm7.67 3.84v-2.47h-5.95v2.47zm1.7-4.53h-1.75v-8h1.75z" style="fill:#3f52fc" transform="translate(1068.52 421.89)"/>
            <path data-name="패스 5317" d="M-623.69-327.61a4.116 4.116 0 0 0 1.13 1.45 5.148 5.148 0 0 0 1.81.97l-.94 1.36a5.4 5.4 0 0 1-1.94-1.12 5.411 5.411 0 0 1-1.29-1.74 5.774 5.774 0 0 1-1.32 1.99 5.443 5.443 0 0 1-2.05 1.26l-.94-1.36a5.163 5.163 0 0 0 1.88-1.1 4.744 4.744 0 0 0 1.15-1.64 4.992 4.992 0 0 0 .39-1.95v-1.34h1.73v1.5a4.275 4.275 0 0 0 .39 1.72zm-3.04 6.02a3.619 3.619 0 0 1 1.66-.91 9.174 9.174 0 0 1 2.55-.31 8.951 8.951 0 0 1 2.52.31 3.634 3.634 0 0 1 1.64.91 2.01 2.01 0 0 1 .57 1.43 2.04 2.04 0 0 1-.57 1.45 3.643 3.643 0 0 1-1.64.92 8.926 8.926 0 0 1-2.52.32 9.148 9.148 0 0 1-2.55-.32 3.721 3.721 0 0 1-1.66-.92 2.008 2.008 0 0 1-.58-1.45 2.081 2.081 0 0 1 .58-1.43zm1.95 2.42a6.092 6.092 0 0 0 2.26.33 5.975 5.975 0 0 0 2.24-.33 1.066 1.066 0 0 0 .78-.98c0-.42-.26-.74-.79-.96a5.925 5.925 0 0 0-2.23-.34 5.842 5.842 0 0 0-2.25.34c-.53.23-.8.55-.8.96 0 .43.26.75.79.98zm5.12-12.41h1.73v3.44h1.97v1.44h-1.97v3.58h-1.73z" style="fill:#3f52fc" transform="translate(1068.52 421.89)"/>
            <path data-name="패스 5318" d="M-614.73-328.14a3.927 3.927 0 0 1 1.07-1.75 2.345 2.345 0 0 1 1.61-.61 2.4 2.4 0 0 1 1.51.51 3.571 3.571 0 0 1 1.06 1.46 7.038 7.038 0 0 1 .5 2.27h1.36v-5.06h1.66v13.19h-1.66v-6.72h-1.34a7.428 7.428 0 0 1-.48 2.37 3.749 3.749 0 0 1-1.07 1.54 2.439 2.439 0 0 1-1.54.53 2.363 2.363 0 0 1-1.61-.61 3.841 3.841 0 0 1-1.07-1.75 8.62 8.62 0 0 1-.38-2.68 8.853 8.853 0 0 1 .38-2.69zm1.62 5.2c.25.58.61.86 1.06.86.47.01.84-.28 1.1-.87a6.543 6.543 0 0 0 .4-2.52 6.615 6.615 0 0 0-.4-2.52c-.26-.59-.63-.88-1.1-.87s-.81.29-1.06.88a6.807 6.807 0 0 0-.38 2.55 6.428 6.428 0 0 0 .38 2.49zm10.06 5.49h-1.67v-14.12h1.67z" style="fill:#3f52fc" transform="translate(1068.52 421.89)"/>
            <path data-name="패스 5319" d="M-595.79-325.62a6.879 6.879 0 0 0 1.21 2.19 4.949 4.949 0 0 0 1.89 1.43l-1.05 1.39a5.879 5.879 0 0 1-2.02-1.64 7.759 7.759 0 0 1-1.3-2.49 8.806 8.806 0 0 1-1.34 2.65 5.979 5.979 0 0 1-2.05 1.75l-1.09-1.41a5.461 5.461 0 0 0 1.93-1.53 7.12 7.12 0 0 0 1.23-2.29 8.661 8.661 0 0 0 .43-2.62v-2.25h1.77v2.25a7.671 7.671 0 0 0 .39 2.57zm1.53-1.39h2.97v-4.56h1.72v14.14h-1.72v-8.17h-2.97z" style="fill:#3f52fc" transform="translate(1068.52 421.89)"/>
            <path data-name="패스 5320" d="M-570.91-324.47h-5.59v1.06h3.98v3.47h-8.03v1.03h8.42v1.33h-10.12v-3.61h8.03v-.91h-8.05v-1.31h4.03v-1.06h-5.55v-1.38h12.88zm-11.25-6.67h9.59v4.41h-9.59zm7.86 3.05v-1.69h-6.16v1.69z" style="fill:#3f52fc" transform="translate(1068.52 421.89)"/>
            <path data-name="패스 5321" d="M-557.08-323.5h-5.59v1.36h4.03v4.52h-9.8v-4.52h4.05v-1.36h-5.56v-1.39h12.88v1.39zm-11.72-7.66h10.53v1.39h-1.94v2.42h1.86v1.41h-10.38v-1.41h1.86v-2.42h-1.94v-1.39zm8.47 12.13v-1.77h-6.39v1.77zm-1.63-8.31v-2.42h-3.17v2.42z" style="fill:#3f52fc" transform="translate(1068.52 421.89)"/>
            <path data-name="패스 5322" d="M-548.44-324.47a8.375 8.375 0 0 0 1.53-4.23h-4.86v-1.38h6.61a13.156 13.156 0 0 1-.61 4.03 9.323 9.323 0 0 1-2 3.36 12.839 12.839 0 0 1-3.75 2.7l-.91-1.36a10.536 10.536 0 0 0 3.99-3.12zm7.93 7.02h-1.73v-7.19h-2.98v-1.42h2.98v-5.52h1.73z" style="fill:#3f52fc" transform="translate(1068.52 421.89)"/>
            <path data-name="패스 5323" d="M-532.76-324.87h-3.66v2.75a48.7 48.7 0 0 0 2.26-.08 20.146 20.146 0 0 0 2.11-.25l.12 1.41a23.736 23.736 0 0 1-2.5.29c-.79.05-1.69.08-2.71.08h-.97v-5.61h3.66v-2.45h-3.67v-1.41h5.34v5.27zm1.57-6.44h1.59v5.16h1.59v-5.42h1.66v14.12h-1.66v-7.3h-1.59v6.58h-1.59z" style="fill:#3f52fc" transform="translate(1068.52 421.89)"/>
            <path data-name="패스 5324" d="M-511.79-323.86h-12.91v-1.31h12.91zm-11.4.85h9.84v3.22h-8.09v.98h8.52v1.2h-10.25v-3.31h8.11v-.88h-8.12v-1.21zm.09-8.25h9.72v3.19h-7.95v.92h8.2v1.19h-9.92v-3.23h7.94v-.86h-7.98v-1.21z" style="fill:#3f52fc" transform="translate(1068.52 421.89)"/>
            <path data-name="패스 5325" d="M-501.3-326.98a4.434 4.434 0 0 0 1.18 1.47 5.337 5.337 0 0 0 1.88.98l-.89 1.36a5.629 5.629 0 0 1-2.05-1.14 5.591 5.591 0 0 1-1.37-1.79 5.686 5.686 0 0 1-1.38 1.95 6.141 6.141 0 0 1-2.13 1.26l-.89-1.38a5.435 5.435 0 0 0 1.89-1.05 4.808 4.808 0 0 0 1.2-1.56 4.313 4.313 0 0 0 .41-1.82v-.41h-3.05v-1.39h7.77v1.39h-2.97v.41a4.2 4.2 0 0 0 .4 1.72zm-3.33 4.73h1.75v3.11h7.98v1.41h-9.73zm7.59-9.31h1.75v10.25h-1.75z" style="fill:#3f52fc" transform="translate(1068.52 421.89)"/>
            <path data-name="패스 5326" d="M-493.3-330.05h2.67v-1.41h1.72v1.41h2.64v1.36h-7.03v-1.36zm.88 3.1a2.513 2.513 0 0 1 1.08-.86 3.925 3.925 0 0 1 1.57-.3 4.025 4.025 0 0 1 1.59.3 2.543 2.543 0 0 1 1.09.86 2.186 2.186 0 0 1 .4 1.28 2.259 2.259 0 0 1-.4 1.28 2.62 2.62 0 0 1-1.09.86 3.956 3.956 0 0 1-1.59.3 3.925 3.925 0 0 1-1.57-.3 2.513 2.513 0 0 1-1.08-.86 2.139 2.139 0 0 1-.38-1.27 2.112 2.112 0 0 1 .38-1.29zm1.57 2.14a1.644 1.644 0 0 0 1.07.32 1.764 1.764 0 0 0 1.09-.32 1.025 1.025 0 0 0 .41-.86 1.039 1.039 0 0 0-.41-.86 1.7 1.7 0 0 0-1.09-.32 1.7 1.7 0 0 0-1.07.32 1.052 1.052 0 0 0-.41.86 1.039 1.039 0 0 0 .41.86zm.67 3.45a3.764 3.764 0 0 1 1.67-.87 9.885 9.885 0 0 1 2.6-.3 9.806 9.806 0 0 1 2.59.3 3.82 3.82 0 0 1 1.67.87 1.851 1.851 0 0 1 .58 1.38 1.823 1.823 0 0 1-.58 1.36 3.711 3.711 0 0 1-1.67.86 9.858 9.858 0 0 1-2.59.3 9.886 9.886 0 0 1-2.6-.3 3.862 3.862 0 0 1-1.67-.86 1.823 1.823 0 0 1-.58-1.36 1.889 1.889 0 0 1 .58-1.38zm1.94 2.26a6.676 6.676 0 0 0 2.27.3 6.975 6.975 0 0 0 2.34-.3c.53-.2.8-.5.81-.89-.01-.41-.27-.71-.8-.92a6.32 6.32 0 0 0-2.3-.3 6.406 6.406 0 0 0-2.32.3c-.53.21-.79.52-.79.92s.26.69.79.89zm7.09-3.6h-1.66v-3.84h-1.38v3.38h-1.62v-8.12h1.62v3.34h1.38v-3.62h1.66z" style="fill:#3f52fc" transform="translate(1068.52 421.89)"/>
            <path data-name="패스 5327" d="M-472.51-327.94h-6.92v-1.39h2.62v-1.84h1.72v1.84h2.58v1.39zm-6.13 2.34a2.887 2.887 0 0 1 1.1-1.17 3.047 3.047 0 0 1 1.59-.42 3.047 3.047 0 0 1 1.59.42 2.864 2.864 0 0 1 1.09 1.17 3.64 3.64 0 0 1 .39 1.7 3.735 3.735 0 0 1-.39 1.73 2.9 2.9 0 0 1-1.09 1.18 3.047 3.047 0 0 1-1.59.42 3.047 3.047 0 0 1-1.59-.42 2.852 2.852 0 0 1-1.1-1.18 3.706 3.706 0 0 1-.39-1.73 3.612 3.612 0 0 1 .39-1.7zm1.34 2.68a1.443 1.443 0 0 0 .55.64 1.493 1.493 0 0 0 .81.22 1.436 1.436 0 0 0 .8-.22 1.507 1.507 0 0 0 .55-.64 2.316 2.316 0 0 0 .2-.98 2.224 2.224 0 0 0-.2-.96 1.526 1.526 0 0 0-.55-.65 1.443 1.443 0 0 0-.8-.23 1.442 1.442 0 0 0-.8.23 1.536 1.536 0 0 0-.55.65 2.256 2.256 0 0 0-.2.96 2.317 2.317 0 0 0 .19.98zm5.39-8.36h1.62v5.52h1.38v-5.81h1.66v14.12h-1.66v-6.91h-1.38v6.27h-1.62z" style="fill:#3f52fc" transform="translate(1068.52 421.89)"/>
            <path data-name="패스 5328" d="M-452.69-322.3h-5.61v4.83h-1.72v-4.83h-5.55v-1.41h12.88v1.41zm-9.8-4.39a5.092 5.092 0 0 0 1.67-1.22 2.656 2.656 0 0 0 .68-1.49h-4.24v-1.38h10.5v1.38h-4.24a2.574 2.574 0 0 0 .67 1.49 4.856 4.856 0 0 0 1.67 1.22 7.761 7.761 0 0 0 2.42.68l-.62 1.36a8.553 8.553 0 0 1-3.14-1.04 5.242 5.242 0 0 1-2-1.93 5.283 5.283 0 0 1-1.99 1.93 8.513 8.513 0 0 1-3.12 1.04l-.66-1.36a8.207 8.207 0 0 0 2.4-.68z" style="fill:#3f52fc" transform="translate(1068.52 421.89)"/>
            <path data-name="패스 5329" d="M-447.04-325.57a6.856 6.856 0 0 0 .89 2.05 4.976 4.976 0 0 0 1.52 1.51l-.95 1.33a5 5 0 0 1-1.56-1.48 7.765 7.765 0 0 1-1.01-2.13 8.385 8.385 0 0 1-1.08 2.34 5.409 5.409 0 0 1-1.66 1.61l-1.08-1.3a5.52 5.52 0 0 0 1.66-1.57 7.01 7.01 0 0 0 .98-2.15 9.741 9.741 0 0 0 .33-2.42v-2.53h1.67v2.45a9.214 9.214 0 0 0 .29 2.29zm.89-1.15h2.02v-4.61h1.64v13.19h-1.64v-7.14h-2.02zm4.92-4.86h1.67v14.12h-1.67z" style="fill:#3f52fc" transform="translate(1068.52 421.89)"/>
            <path data-name="패스 5330" d="M-425.01-319.17h-12.91v-1.42h2.98v-3.57a3.707 3.707 0 0 1-1.33-1.24 2.944 2.944 0 0 1-.46-1.67 3.065 3.065 0 0 1 .67-1.96 4.378 4.378 0 0 1 1.86-1.31 7.424 7.424 0 0 1 2.7-.46 7.62 7.62 0 0 1 2.71.46 4.448 4.448 0 0 1 1.88 1.31 3.074 3.074 0 0 1 .68 1.96 3.087 3.087 0 0 1-.45 1.64 3.758 3.758 0 0 1-1.3 1.23v3.61h2.97v1.42zm-9.57-6.66a2.731 2.731 0 0 0 1.24.82 5.485 5.485 0 0 0 1.85.29 5.587 5.587 0 0 0 1.86-.29 2.884 2.884 0 0 0 1.26-.82 1.882 1.882 0 0 0 .45-1.25 1.908 1.908 0 0 0-.45-1.26 2.8 2.8 0 0 0-1.26-.82 5.6 5.6 0 0 0-1.86-.28 5.6 5.6 0 0 0-1.86.28 2.731 2.731 0 0 0-1.24.82 1.953 1.953 0 0 0-.44 1.26 1.935 1.935 0 0 0 .45 1.25zm4.84 5.24v-2.95a8.24 8.24 0 0 1-1.75.18 8.877 8.877 0 0 1-1.72-.17v2.94h3.47z" style="fill:#3f52fc" transform="translate(1068.52 421.89)"/>
            <path data-name="패스 5331" d="M-422.98-318.88a1.214 1.214 0 0 1-.45-.45 1.184 1.184 0 0 1-.16-.61 1.174 1.174 0 0 1 .16-.6 1.266 1.266 0 0 1 .45-.44 1.184 1.184 0 0 1 .61-.16 1.174 1.174 0 0 1 .6.16 1.322 1.322 0 0 1 .44.44 1.149 1.149 0 0 1 .16.6 1.184 1.184 0 0 1-.16.61 1.266 1.266 0 0 1-.44.45 1.149 1.149 0 0 1-.6.16 1.21 1.21 0 0 1-.61-.16z" style="fill:#3f52fc" transform="translate(1068.52 421.89)"/>
        </g>
        <g data-name="그룹 3892">
            <path data-name="패스 5332" d="M-846.41-311.67h-72.41a7.793 7.793 0 0 1-7.79-7.79v-10.41a7.793 7.793 0 0 1 7.79-7.79h72.41a7.793 7.793 0 0 1 7.79 7.79v10.41a7.793 7.793 0 0 1-7.79 7.79z" style="fill:#3f52fc" transform="translate(1068.52 421.89)"/>
        </g>
        <g data-name="그룹 3893">
            <path data-name="패스 5333" d="M-414.87-311.17h-503.95a8.3 8.3 0 0 1-8.29-8.29v-10.41a8.3 8.3 0 0 1 8.29-8.29h503.95a8.3 8.3 0 0 1 8.29 8.29v10.41a8.3 8.3 0 0 1-8.29 8.29zm-503.95-26a7.3 7.3 0 0 0-7.29 7.29v10.41a7.3 7.3 0 0 0 7.29 7.29h503.95a7.3 7.3 0 0 0 7.29-7.29v-10.41a7.3 7.3 0 0 0-7.29-7.29z" style="fill:#3f52fc" transform="translate(1068.52 421.89)"/>
        </g>
        <g data-name="그룹 3894">
            <path data-name="패스 5334" d="M-909.06-329.36a3.4 3.4 0 0 1 1.36-1.18 4.428 4.428 0 0 1 1.95-.42 4.428 4.428 0 0 1 1.95.42 3.264 3.264 0 0 1 1.36 1.18 3.086 3.086 0 0 1 .49 1.72 3 3 0 0 1-.49 1.7 3.221 3.221 0 0 1-1.36 1.16 4.428 4.428 0 0 1-1.95.42 4.4 4.4 0 0 1-1.95-.42 3.366 3.366 0 0 1-1.36-1.16 3.005 3.005 0 0 1-.5-1.7 3.176 3.176 0 0 1 .5-1.72zm1.48 2.7a1.764 1.764 0 0 0 .75.65 2.575 2.575 0 0 0 1.1.23 2.516 2.516 0 0 0 1.08-.23 1.764 1.764 0 0 0 .75-.65 1.78 1.78 0 0 0 .27-.98 1.78 1.78 0 0 0-.27-.98 1.764 1.764 0 0 0-.75-.65 2.516 2.516 0 0 0-1.08-.23 2.574 2.574 0 0 0-1.1.23 1.764 1.764 0 0 0-.75.65 1.78 1.78 0 0 0-.27.98 1.781 1.781 0 0 0 .27.98zm.2 3.32h1.72v1.45h5.89v-1.45h1.73v5.72h-9.34v-5.72zm7.61 4.31v-1.5h-5.89v1.5zm1.73-4.97h-1.75v-7.58h1.75z" style="fill:#fff" transform="translate(1068.52 421.89)"/>
            <path data-name="패스 5335" d="M-884.65-329.8v.44c0 .6-.02 1.19-.07 1.75a17.642 17.642 0 0 1-.27 1.83h1.92v1.41h-12.91v-1.41h9.23a15.234 15.234 0 0 0 .3-1.89c.05-.57.07-1.18.07-1.83h-8v-1.39h9.73v1.09zm-9.78 7.07h9.77v5.11h-9.77zm8.05 3.7v-2.34h-6.34v2.34z" style="fill:#fff" transform="translate(1068.52 421.89)"/>
            <path data-name="패스 5336" d="M-876.05-330.61a2.947 2.947 0 0 1 1.26 1 2.523 2.523 0 0 1 .46 1.48 2.514 2.514 0 0 1-.34 1.27 2.837 2.837 0 0 1-.93.96 3.75 3.75 0 0 1-1.38.53v1.14q1.98-.12 3.45-.33l.14 1.27a34.576 34.576 0 0 1-3.97.46c-1.39.08-2.81.12-4.28.12h-.36l-.19-1.39c1.3 0 2.45-.02 3.45-.05v-1.21a3.655 3.655 0 0 1-1.41-.52 2.7 2.7 0 0 1-.94-.96 2.543 2.543 0 0 1-.33-1.28 2.516 2.516 0 0 1 .45-1.48 2.977 2.977 0 0 1 1.25-1 4.461 4.461 0 0 1 1.83-.36 4.507 4.507 0 0 1 1.84.35zm-4.19 8.88h1.73v2.58h8.05v1.41h-9.78v-3.99zm.69-5.6a1.516 1.516 0 0 0 .68.53 2.583 2.583 0 0 0 1 .19 2.2 2.2 0 0 0 1.38-.41 1.351 1.351 0 0 0 .53-1.1 1.329 1.329 0 0 0-.53-1.11 2.2 2.2 0 0 0-1.38-.41 2.586 2.586 0 0 0-1 .18 1.553 1.553 0 0 0-.68.52 1.309 1.309 0 0 0-.23.81 1.279 1.279 0 0 0 .23.8zm6.86-4.23h1.73v4.56h1.91v1.44h-1.91v4.78h-1.73z" style="fill:#fff" transform="translate(1068.52 421.89)"/>
            <path data-name="패스 5337" d="M-855.41-319.09h-12.91v-1.44h3.42v-2.33h-1.89v-4.61h8.12v-1.73h-8.16v-1.41h9.88v4.53h-8.11v1.81h8.44v1.41h-2.06v2.33h3.27v1.44zm-4.97-1.44v-2.33h-2.83v2.33z" style="fill:#fff" transform="translate(1068.52 421.89)"/>
        </g>
    </g>
</svg>
