<svg xmlns="http://www.w3.org/2000/svg" width="93.204" height="60.105" viewBox="0 0 93.204 60.105">
    <g data-name="그룹 253">
        <path data-name="패스 353" d="M285.035-94.343h54.732a1.394 1.394 0 0 0 1.4-1.4v-38.217a1.394 1.394 0 0 0-1.4-1.4h-82.8a1.394 1.394 0 0 0-1.4 1.4h0a1.4 1.4 0 0 0 1.188 1.372 7.141 7.141 0 0 1 5.938 7.027 7.129 7.129 0 0 1-5.938 7.027 1.4 1.4 0 0 0-1.188 1.371v2.488a1.4 1.4 0 0 0 1.188 1.371 7.141 7.141 0 0 1 5.938 7.027 7.129 7.129 0 0 1-5.938 7.027 1.4 1.4 0 0 0-1.188 1.371v2.107a1.394 1.394 0 0 0 1.4 1.4h17.843" transform="translate(-251.788 147.965)" style="stroke:#000;stroke-linecap:round;stroke-miterlimit:10;fill:#f9e26a"/>
        <path data-name="선 77" transform="translate(51.43 18.755)" style="fill:none;stroke:#000;stroke-linecap:round;stroke-miterlimit:10" d="M0 5.401V0"/>
        <path data-name="선 78" transform="translate(51.43 27.748)" style="fill:none;stroke:#000;stroke-linecap:round;stroke-miterlimit:10" d="M0 19.71V0"/>
        <path data-name="선 79" transform="translate(19.42 26.419)" style="fill:none;stroke:#000;stroke-linecap:round;stroke-miterlimit:10" d="M23.23 0H0"/>
        <path data-name="선 80" transform="translate(19.42 38.62)" style="fill:none;stroke:#000;stroke-linecap:round;stroke-miterlimit:10" d="M23.23 0H0"/>
        <path data-name="패스 354" d="M340.217-133.8c0-.566-.622-1.018-1.386-1.018l-81.553.042c-.764 0-1.089.113-1.089.665 0 .495.424.58 1.089.665 1.909.24 3.323 1.725 4.383 2.856l78.556-2.163z" transform="translate(-251.531 148.188)" style="fill:#f8f7f7"/>
        <path data-name="패스 355" d="M263.671-114.27c-.58 2.743-1.8 6.066-4.638 6.532-.664.113-2.814.693-2.814 1.357l.071 1.428c0 .735.184 1.117.947 1.117h81.539a1.349 1.349 0 0 0 1.372-1.343v-8.681z" transform="translate(-251.519 156.694)" style="fill:#f9c022"/>
        <path data-name="패스 356" d="m314.588-115.517-1.131 1.1a.522.522 0 0 0-.141.452l1.287 7.508a.513.513 0 0 1-.735.537l-6.744-3.549a.54.54 0 0 0-.467 0l-6.744 3.549a.506.506 0 0 1-.735-.537l1.287-7.508a.535.535 0 0 0-.141-.452l-5.458-5.316a.508.508 0 0 1 .283-.862l7.536-1.089a.514.514 0 0 0 .382-.269l3.365-6.829a.509.509 0 0 1 .9 0l3.365 6.829a.453.453 0 0 0 .382.269l7.536 1.089a.508.508 0 0 1 .283.862l-1.923 1.88" transform="translate(-235.587 150.574)" style="fill:#fff;stroke:#000;stroke-linecap:round;stroke-miterlimit:10"/>
    </g>
    <g data-name="그룹 254">
        <path data-name="패스 357" d="m291.085-91.333 53.261-12.626a1.4 1.4 0 0 0 1.032-1.683l-8.809-37.185a1.4 1.4 0 0 0-1.683-1.032l-80.563 19.087a1.4 1.4 0 0 0-1.032 1.683h0a1.4 1.4 0 0 0 1.47 1.06 7.122 7.122 0 0 1 7.395 5.472 7.127 7.127 0 0 1-4.156 8.215 1.391 1.391 0 0 0-.834 1.612l.566 2.418a1.4 1.4 0 0 0 1.47 1.06 7.122 7.122 0 0 1 7.398 5.472 7.127 7.127 0 0 1-4.157 8.215 1.391 1.391 0 0 0-.834 1.612l.481 2.05a1.4 1.4 0 0 0 1.683 1.032l17.363-4.114" transform="translate(-252.748 144.431)" style="stroke:#000;stroke-linecap:round;stroke-miterlimit:10;fill:#f9e26a"/>
        <path data-name="선 81" transform="translate(47.994 14.995)" style="fill:none;stroke:#000;stroke-linecap:round;stroke-miterlimit:10" d="M1.244 5.26 0 0"/>
        <path data-name="선 82" transform="translate(50.058 23.732)" style="fill:none;stroke:#000;stroke-linecap:round;stroke-miterlimit:10" d="M4.553 19.186 0 0"/>
        <path data-name="선 83" transform="translate(18.614 24.468)" style="fill:none;stroke:#000;stroke-linecap:round;stroke-miterlimit:10" d="M22.608 0 0 5.359"/>
        <path data-name="선 84" transform="translate(21.427 36.344)" style="fill:none;stroke:#000;stroke-linecap:round;stroke-miterlimit:10" d="M22.608 0 0 5.359"/>
        <path data-name="패스 358" d="M335.72-142.55a1.22 1.22 0 0 0-1.569-.665L254.8-124.367c-.735.17-1.032.353-.9.9.113.495.551.467 1.216.4 1.909-.212 3.634.919 4.92 1.767l75.94-20.219z" transform="translate(-252.492 144.692)" style="fill:#f8f7f7"/>
        <path data-name="패스 359" d="M265.266-105.939c.071 2.8-.339 6.32-3.012 7.437-.622.269-2.587 1.329-2.432 1.979l.4 1.371c.17.721.438 1.046 1.174.862l17.094-4.058 9.8-2.319 52.455-12.428a1.366 1.366 0 0 0 1.032-1.626l-1.994-8.441z" transform="translate(-250.032 153.015)" style="fill:#f9c022"/>
        <path data-name="패스 360" d="m314.443-123.6-.848 1.329a.542.542 0 0 0-.042.467l2.983 7.013a.5.5 0 0 1-.594.679l-7.38-1.895a.489.489 0 0 0-.452.113l-5.74 5.005a.506.506 0 0 1-.834-.353l-.481-7.607a.5.5 0 0 0-.24-.4l-6.532-3.916a.511.511 0 0 1 .071-.9l7.084-2.8a.52.52 0 0 0 .311-.353l1.711-7.423a.5.5 0 0 1 .877-.212l4.85 5.868a.507.507 0 0 0 .438.184l7.593-.679a.506.506 0 0 1 .467.778l-1.442 2.276" transform="translate(-235.866 148.099)" style="fill:#fff;stroke:#000;stroke-linecap:round;stroke-miterlimit:10"/>
    </g>
</svg>
