<svg xmlns="http://www.w3.org/2000/svg" width="20" height="18" viewBox="0 0 20 18">
    <path data-name="사각형 1220" style="fill:none" d="M0 0h20v18H0z"/>
    <path data-name="패스 1619" d="m65.727 9.373-3.72-3.72-.71-.71a3.859 3.859 0 0 0-.845 2.41A3.661 3.661 0 0 0 64 11.117a3.424 3.424 0 0 0 2.434-1.037z" transform="translate(-54 2)" style="fill:#707070"/>
    <path data-name="패스 1620" d="M64 4.59a2.665 2.665 0 0 1 2.548 2.763 2.918 2.918 0 0 1-.248 1.176l.741.741a3.894 3.894 0 0 0 .51-1.917A3.66 3.66 0 0 0 64 3.59a3.388 3.388 0 0 0-1.992.65l.728.728A2.373 2.373 0 0 1 64 4.59" transform="translate(-54 2)" style="fill:#707070"/>
    <path data-name="사각형 1218" transform="rotate(-45 4.09 -.633)" style="fill:#707070" d="M0 0h1v20.506H0z"/>
    <path data-name="패스 1622" d="M64 1.854c4.829 0 7.91 4.089 8.83 5.5a13.979 13.979 0 0 1-3.8 3.9l.72.72A15.008 15.008 0 0 0 74 7.354s-3.5-6.5-10-6.5a9.689 9.689 0 0 0-4.342 1.036l.757.757A8.632 8.632 0 0 1 64 1.854" transform="translate(-54 2)" style="fill:#707070"/>
    <path data-name="패스 1623" d="M64 12.854c-4.829 0-7.91-4.089-8.83-5.5a13.687 13.687 0 0 1 4.311-4.224l-.732-.73A14.8 14.8 0 0 0 54 7.354s3.5 6.5 10 6.5a9.776 9.776 0 0 0 4.877-1.33l-.734-.734A8.75 8.75 0 0 1 64 12.854" transform="translate(-54 2)" style="fill:#707070"/>
</svg>
