<svg xmlns="http://www.w3.org/2000/svg" width="25.199" height="25.199" viewBox="0 0 25.199 25.199">
    <g transform="translate(.5 .5)">
        <circle data-name="타원 13" cx="12.099" cy="12.099" r="12.099" style="stroke:#000;stroke-miterlimit:10;fill:#f2f2f2"/>
        <circle data-name="타원 14" cx="9.459" cy="9.459" r="9.459" transform="translate(2.404 2.641)" style="fill:#bebdbd"/>
        <path data-name="패스 173" d="M33.8-31.78a9.087 9.087 0 0 1 5.079 4.794 9.129 9.129 0 0 1-4.591 12.063 9.121 9.121 0 0 1-12.068-4.592 9.125 9.125 0 0 1 2.77-10.977 9.15 9.15 0 0 1 1.81-1.076" transform="translate(-18.457 35.35)" style="fill:none;stroke-linecap:round;stroke:#000;stroke-miterlimit:10"/>
        <path data-name="패스 174" d="M32.83-26.761a2.439 2.439 0 0 0-2.181-.175 1.749 1.749 0 0 0-1.012 1.849 2.692 2.692 0 0 0 1.563 1.638 5.511 5.511 0 0 1 1.951 1.27 2.214 2.214 0 0 1 .166 2.392 2.384 2.384 0 0 1-2.117 1.169 2.51 2.51 0 0 1-2.052-1.3" transform="translate(-19.075 34.978)" style="fill:none;stroke-linecap:round;stroke:#000;stroke-miterlimit:10"/>
        <path data-name="선 3" transform="translate(12.311 6.165)" style="fill:none;stroke-linecap:round;stroke:#000;stroke-miterlimit:10" d="M0 1.693V0"/>
        <path data-name="선 4" transform="translate(12.311 16.341)" style="fill:none;stroke-linecap:round;stroke:#000;stroke-miterlimit:10" d="M0 1.693V0"/>
    </g>
</svg>
