<svg xmlns="http://www.w3.org/2000/svg" width="56.428" height="51.533" viewBox="0 0 56.428 51.533">
    <g data-name="그룹 248">
        <path data-name="패스 324" d="M105.795-52.94a16.371 16.371 0 0 0 6.994-5.419.419.419 0 0 1 .664 0c6.671 8.673 16.113 6.51 18.571 5.751a.475.475 0 0 1 .607.465c-.237 36.412-19.511 36.032-19.511 36.032s-19.359.38-19.511-36.269a.3.3 0 0 1 .391-.295 18.957 18.957 0 0 0 7.791.75" transform="translate(-93.11 67.051)" style="stroke-miterlimit:10;stroke-linecap:round;stroke:#000;fill:#fff"/>
        <path data-name="패스 325" d="M97.29-34.48h16.018v17.594c-.019.009-11.624.227-16.018-17.594z" transform="translate(-93.298 65.824)" style="fill:#bebdbd"/>
        <path data-name="패스 326" d="M114.17-56.43a.369.369 0 0 1 .3.152c6.045 7.857 14.595 5.893 16.825 5.21a.431.431 0 0 1 .55.418 64.473 64.473 0 0 1-1.661 15.05H114.17v-20.83z" transform="translate(-94.159 66.945)" style="fill:#717070"/>
        <path data-name="패스 327" d="M97.2-35.6a65.165 65.165 0 0 1-1.66-15.269.272.272 0 0 1 .351-.266c1.869.607 10.79 2.961 17.024-5.143a.4.4 0 0 1 .3-.152v20.83H97.2z" transform="translate(-93.209 66.945)" style="fill:#f4f4f4"/>
        <path data-name="패스 328" d="M130.178-34.48c-4.4 17.821-16.018 17.594-16.018 17.594V-34.48z" transform="translate(-94.159 65.824)" style="fill:#f4f4f4"/>
    </g>
    <g data-name="그룹 249">
        <path data-name="패스 329" d="m131.6-42.667 4.2 6.9a.473.473 0 0 0 .266.209l3.938 1.2a.4.4 0 0 0 .484-.209l1.784-3.7a.527.527 0 0 0 .028-.342L136.353-59.1l-.4-1.367-.427-1.471-.693-2.372a.5.5 0 0 0-.332-.342l-8.2-2.3a.4.4 0 0 0-.474.209l-1.12 2.192-.939 1.841-.6 1.177-1.215 2.372a.5.5 0 0 0 .019.474l8.37 13.893" transform="translate(-94.555 67.482)" style="fill:#e8e8e8;stroke-miterlimit:10;stroke-linecap:round;stroke:#000"/>
        <path data-name="선 66" transform="translate(37.718 14.804)" style="fill:none;stroke-miterlimit:10;stroke-linecap:round;stroke:#000" d="m0 0 7.316 16.721"/>
        <path data-name="패스 330" d="M143.785-32.013a1.337 1.337 0 0 0-1.756-.693l-1.433.626a1.337 1.337 0 0 0-.693 1.756l.759 1.737 3.881-1.7z" transform="translate(-95.468 65.739)" style="stroke:#010202;fill:#f4f4f4;stroke-miterlimit:10"/>
        <path data-name="사각형 583" transform="rotate(-23.635 129.166 -93.127)" style="stroke:#010202;fill:#bebdbd;stroke-miterlimit:10" d="M0 0h4.232v3.72H0z"/>
        <path data-name="패스 331" d="M146.378-15.478a1.337 1.337 0 0 0 1.756.693l1.433-.626a1.337 1.337 0 0 0 .693-1.756l-.96-2.183-3.881 1.7z" transform="translate(-95.755 65.052)" style="fill:#e2b014;stroke-miterlimit:10;stroke:#000"/>
        <path data-name="사각형 584" transform="rotate(-23.635 120.277 -91.272)" style="stroke:#010202;fill:#f4f4f4;stroke-miterlimit:10" d="M0 0h4.232v3.72H0z"/>
        <path data-name="사각형 585" transform="rotate(-23.635 111.394 -89.397)" style="stroke:#010202;fill:#717070;stroke-miterlimit:10" d="M0 0h4.232v3.72H0z"/>
        <path data-name="패스 332" d="m146.431-15.37-.664-1.528a.829.829 0 0 1 .418-1.082l2.382-1.044a.829.829 0 0 1 1.082.418l.664 1.528a2.12 2.12 0 0 1-1.091 2.79 2.111 2.111 0 0 1-2.791-1.082z" transform="translate(-95.769 65.039)" style="stroke:#010202;fill:#bebdbd;stroke-miterlimit:10"/>
        <path data-name="패스 333" d="m134.807-63.949-1.537-.361 8.208 26.381.854-.37c.047-.1.114.294.085.18l-7.241-25.09c-.056-.171-.217-.691-.369-.74z" transform="translate(-95.135 67.347)" style="fill:#fdfdfd"/>
        <path data-name="패스 334" d="m147.026-38.613 1.651-.721a1.214 1.214 0 0 1 1.5.8l.512 1.167a1.231 1.231 0 0 1-.427 1.651l-18.078 7.9a1.214 1.214 0 0 1-1.5-.8l-.512-1.167a1.231 1.231 0 0 1 .427-1.651l13.855-6.064" transform="translate(-94.97 66.076)" style="fill:#cdcccc;stroke-miterlimit:10;stroke-linecap:round;stroke:#000"/>
    </g>
</svg>
