<svg xmlns="http://www.w3.org/2000/svg" width="23.258" height="25.201" viewBox="0 0 23.258 25.201">
    <path data-name="패스 177" d="M102.42-139.85a.227.227 0 0 1 .187.1 9.037 9.037 0 0 0 10.571 3.561.272.272 0 0 1 .342.288 48 48 0 0 1-1.042 10.3H102.42z" transform="translate(-90.762 140.353)" style="fill:#6ebdd3"/>
    <path data-name="패스 178" d="M83.331-125.6a48.188 48.188 0 0 1-1.041-10.444.179.179 0 0 1 .22-.186 9.041 9.041 0 0 0 10.681-3.519.234.234 0 0 1 .187-.1v14.249H83.331z" transform="translate(-81.79 140.353)" style="fill:#f4f4f4"/>
    <path data-name="패스 176" d="M84.18-116.12h10.954v11.045c-.006 0-7.951.138-10.954-11.045z" transform="translate(-82.545 129.775)" style="fill:#9cd6ea"/>
    <path data-name="패스 179" d="M113.549-116.12c-3.057 11.087-11.129 10.945-11.129 10.945v-10.945z" transform="translate(-90.791 129.875)" style="fill:#f4f4f4"/>
    <path data-name="패스 175" d="M87.157-138.933a9.4 9.4 0 0 0 3.987-3.09.24.24 0 0 1 .381 0 9.567 9.567 0 0 0 10.6 3.281.271.271 0 0 1 .346.265c-.135 20.775-11.129 20.56-11.129 20.56s-11.044.22-11.129-20.7a.174.174 0 0 1 .22-.17 10.785 10.785 0 0 0 4.443.426" transform="translate(-79.71 142.617)" style="fill:none;stroke:#000;stroke-linecap:round;stroke-miterlimit:10"/>
</svg>
