<svg xmlns="http://www.w3.org/2000/svg" width="16.441" height="20.77" viewBox="0 0 16.441 20.77">
    <path d="m14.672 18.5 2.548-1.918 2.466 1.891-1.014-3.042 2.6-1.891h-3.12l-.932-3.04-.932 3.042h-3.123l2.548 1.891zm2.548 7.32a10.575 10.575 0 0 1-5.891-4.261A12.222 12.222 0 0 1 9 14.312V8.119l8.22-3.069 8.22 3.069v6.193a12.222 12.222 0 0 1-2.329 7.248 10.575 10.575 0 0 1-5.891 4.26zm0-1.315a9.548 9.548 0 0 0 5.028-3.836 10.968 10.968 0 0 0 1.959-6.357V9L17.22 6.365 10.233 9v5.316a10.968 10.968 0 0 0 1.959 6.357A9.548 9.548 0 0 0 17.22 24.5zm0-9.07z" transform="translate(-9 -5.05)" style="fill:#3f52fc"/>
</svg>
