<svg xmlns="http://www.w3.org/2000/svg" width="34" height="24.579" viewBox="0 0 34 24.579">
    <path d="M23 23.4a4.147 4.147 0 0 1-4.187-4.187 4.2 4.2 0 0 1 7.16-2.973 4.246 4.246 0 0 1 0 5.946A4.043 4.043 0 0 1 23 23.4zm-12.269 5.82a2.26 2.26 0 0 1-1.671-.73 2.361 2.361 0 0 1-.712-1.7V11.637a2.432 2.432 0 0 1 2.387-2.387h24.537a2.34 2.34 0 0 1 1.717.712 2.292 2.292 0 0 1 .712 1.675v15.157a2.361 2.361 0 0 1-.712 1.7 2.307 2.307 0 0 1-1.717.733zm3.14-1.926h18.3a3.646 3.646 0 0 1 3.643-3.643v-8.874a3.646 3.646 0 0 1-3.643-3.643h-18.3a3.645 3.645 0 0 1-3.643 3.643v8.877a3.646 3.646 0 0 1 3.647 3.646zm18.842 6.532H6.129a2.34 2.34 0 0 1-1.717-.712 2.292 2.292 0 0 1-.712-1.672V14.233h1.884v17.209a.483.483 0 0 0 .167.335.521.521 0 0 0 .377.167h26.589zM10.735 27.3h-.5V11.134h.5a.5.5 0 0 0-.5.5v15.16a.5.5 0 0 0 .5.5z" transform="translate(-3.7 -9.25)" style="fill:#707070"/>
</svg>
