<svg xmlns="http://www.w3.org/2000/svg" width="22" height="22" viewBox="0 0 22 22">
    <g data-name="그룹 334">
        <g data-name="타원 56" style="fill:#707070;stroke:#707070">
            <circle cx="11" cy="11" r="11" style="stroke:none"/>
            <circle cx="11" cy="11" r="10.5" style="fill:none"/>
        </g>
        <path data-name="패스 846" d="m76.5 351.229-1.181-2.41a1.11 1.11 0 0 0-.229-.31 3.169 3.169 0 0 0-.937-.792c-.453-.189-3.666.341-3.722-.525a3.525 3.525 0 0 0 2.6-3.509 3.288 3.288 0 1 0-6.549 0 3.531 3.531 0 0 0 2.529 3.489h-.022c0 .9-3.268.357-3.725.547a3.408 3.408 0 0 0-.983.846 1.11 1.11 0 0 0-.187.284L63 351.242a.509.509 0 0 0 .464.72h12.578a.509.509 0 0 0 .458-.733z" transform="translate(-58.957 -335.753)" style="fill:#fff"/>
    </g>
</svg>
