<svg xmlns="http://www.w3.org/2000/svg" width="13" height="13" viewBox="0 0 13 13">
    <path d="M14.5 21A6.484 6.484 0 0 1 8 14.5 6.484 6.484 0 0 1 14.5 8a6.282 6.282 0 0 1 3.027.7 7.167 7.167 0 0 1 2.255 1.92V8H21v5.159h-5.159v-1.218h3.412a6.222 6.222 0 0 0-1.97-1.97 5.127 5.127 0 0 0-2.783-.752A5.237 5.237 0 0 0 9.219 14.5a5.237 5.237 0 0 0 5.281 5.281 5.328 5.328 0 0 0 3.087-.965 5.018 5.018 0 0 0 1.95-2.549H20.8a6.224 6.224 0 0 1-2.339 3.433A6.465 6.465 0 0 1 14.5 21z" transform="translate(-8 -8)" style="fill:#fff"/>
</svg>
