<svg data-name="다이아(모바일+웹)" xmlns="http://www.w3.org/2000/svg" width="111.14" height="31.1" viewBox="0 0 111.14 31.1">
    <defs>
        <clipPath id="dzmihfb1ea">
            <path data-name="사각형 1753" transform="translate(-338.91 195.58)" d="M0 0h32.5v27.61H0z"/>
        </clipPath>
        <clipPath id="oexsp250jb">
            <path data-name="패스 3422" d="M-334.96 195.58a1.4 1.4 0 0 0-1.2.67l-2.53 4.04a1.491 1.491 0 0 0 .11 1.73l6.96 8.52a1.409 1.409 0 0 0 1.97.21.769.769 0 0 0 .18-.18l7.37-8.49a1.488 1.488 0 0 0 .08-1.84l-2.93-4.07a1.4 1.4 0 0 0-1.14-.59z"/>
        </clipPath>
        <clipPath id="dmp4037rhc">
            <path data-name="패스 3442" d="m-336.01 195.96-.56 1.18a.7.7 0 0 1-.5.38l-1.27.19a.684.684 0 0 0-.56.8.661.661 0 0 0 .19.37l.91.91a.691.691 0 0 1 .19.61l-.22 1.29a.679.679 0 0 0 .53.79.673.673 0 0 0 .44-.06l1.13-.61a.624.624 0 0 1 .62 0l1.13.61a.678.678 0 0 0 .91-.29.665.665 0 0 0 .06-.44l-.21-1.29a.691.691 0 0 1 .19-.61l.91-.91a.694.694 0 0 0 0-.98.662.662 0 0 0-.37-.19l-1.26-.19a.654.654 0 0 1-.5-.38l-.57-1.18a.659.659 0 0 0-.87-.33.783.783 0 0 0-.32.33"/>
        </clipPath>
        <clipPath id="8vw0s3y1rd">
            <path data-name="패스 3453" d="m-336.6 195.88-.45.94a.557.557 0 0 1-.4.3l-1.01.15a.555.555 0 0 0-.45.64.542.542 0 0 0 .15.29l.73.73a.543.543 0 0 1 .15.48l-.17 1.03a.542.542 0 0 0 .43.63.6.6 0 0 0 .35-.05l.9-.49a.53.53 0 0 1 .49 0l.9.49a.534.534 0 0 0 .72-.23.532.532 0 0 0 .05-.35l-.17-1.03a.553.553 0 0 1 .15-.48l.73-.73a.562.562 0 0 0 0-.78.542.542 0 0 0-.29-.15l-1-.15a.557.557 0 0 1-.4-.3l-.45-.94a.535.535 0 0 0-.7-.26.651.651 0 0 0-.26.26"/>
        </clipPath>
        <clipPath id="eytnnm6xee">
            <path data-name="패스 3464" d="m-336.6 195.88-.45.94a.557.557 0 0 1-.4.3l-1.01.15a.545.545 0 0 0-.45.63.572.572 0 0 0 .15.3l.73.73a.543.543 0 0 1 .15.48l-.17 1.02a.535.535 0 0 0 .42.63.532.532 0 0 0 .35-.05l.9-.49a.5.5 0 0 1 .5 0l.9.49a.532.532 0 0 0 .72-.23.532.532 0 0 0 .05-.35l-.17-1.03a.553.553 0 0 1 .15-.48l.73-.73a.552.552 0 0 0-.01-.78.571.571 0 0 0-.3-.15l-1-.15a.557.557 0 0 1-.4-.3l-.45-.94a.535.535 0 0 0-.7-.26.9.9 0 0 0-.24.27"/>
        </clipPath>
        <clipPath id="ne9ud4tq4f">
            <path data-name="패스 3467" d="M-322.15 257.38h48.13c5.21 0 9.44 4.57 9.44 10.2v5.6c0 5.63-4.23 10.2-9.44 10.2h-48.13c-5.21 0-9.44-4.57-9.44-10.2v-5.6c0-5.63 4.22-10.2 9.44-10.2"/>
        </clipPath>
    </defs>
    <g style="clip-path:url(#dzmihfb1ea)" transform="translate(339.23 -193.83)" data-name="그룹 2988">
        <path data-name="패스 3385" d="M-319.71 207.82a.52.52 0 0 1-.25-.07.473.473 0 0 1-.22-.4v-3.63a.473.473 0 0 1 .27-.43l11.84-5.57a.829.829 0 0 1 1.11.4.863.863 0 0 1 .08.36v.94a3.822 3.822 0 0 1-2.19 3.45l-10.44 4.91a.646.646 0 0 1-.2.04" style="fill:#cef4d8"/>
        <path data-name="패스 3386" d="M-307.71 198.1a.358.358 0 0 1 .36.36v.94a3.347 3.347 0 0 1-1.92 3.03l-10.44 4.91v-3.64l11.84-5.57a.758.758 0 0 1 .16-.03m-.01-.94a1.376 1.376 0 0 0-.56.12l-11.84 5.57a.938.938 0 0 0-.54.85v3.64a.939.939 0 0 0 .94.94.934.934 0 0 0 .4-.09l10.44-4.91a4.3 4.3 0 0 0 2.46-3.88v-.94a1.291 1.291 0 0 0-1.3-1.3" style="fill:#0a0444"/>
        <path data-name="패스 3387" d="M-319.71 205.42v1.93l10.44-4.91a3.347 3.347 0 0 0 1.92-3.03v-.06z" style="fill:#064156"/>
        <path data-name="패스 3388" d="M-308.55 222.72a.753.753 0 0 1-.33-.07l-10.14-4.77a.462.462 0 0 1-.27-.43v-3.11a.473.473 0 0 1 .22-.4.451.451 0 0 1 .25-.07.448.448 0 0 1 .2.04l8.94 4.21a3.361 3.361 0 0 1 1.92 3.02v.8a.81.81 0 0 1-.79.78" style="fill:#c7e3f9"/>
        <path data-name="패스 3389" d="m-318.82 214.33 8.94 4.21a2.87 2.87 0 0 1 1.65 2.59v.8a.312.312 0 0 1-.31.31.277.277 0 0 1-.13-.03l-10.14-4.77v-3.11zm0-.94a.939.939 0 0 0-.94.94v3.11a.927.927 0 0 0 .54.85l10.14 4.77a1.257 1.257 0 0 0 1.67-.6 1.242 1.242 0 0 0 .12-.53v-.8a3.805 3.805 0 0 0-2.19-3.45l-8.93-4.2a1.013 1.013 0 0 0-.41-.09" style="fill:#0a0444"/>
        <path data-name="패스 3390" d="M-318.82 215.98v-1.65l8.94 4.21a2.861 2.861 0 0 1 1.64 2.59v.05z" style="fill:#064156"/>
        <path data-name="패스 3391" d="M-308.55 219.32a.753.753 0 0 1-.33-.07l-10.14-4.77a.462.462 0 0 1-.27-.43v-3.11a.473.473 0 0 1 .22-.4.451.451 0 0 1 .25-.07.448.448 0 0 1 .2.04l8.94 4.21a3.361 3.361 0 0 1 1.92 3.02v.8a.81.81 0 0 1-.79.78" style="fill:#c7e3f9"/>
        <path data-name="패스 3392" d="m-318.82 210.93 8.94 4.21a2.87 2.87 0 0 1 1.65 2.59v.8a.312.312 0 0 1-.31.31.277.277 0 0 1-.13-.03l-10.14-4.77v-3.11zm0-.94a.939.939 0 0 0-.94.94v3.11a.927.927 0 0 0 .54.85l10.14 4.77a1.257 1.257 0 0 0 1.67-.6 1.242 1.242 0 0 0 .12-.53v-.8a3.816 3.816 0 0 0-2.19-3.45l-8.94-4.21a1.421 1.421 0 0 0-.4-.08" style="fill:#0a0444"/>
        <path data-name="패스 3393" d="M-318.82 212.59v-1.65l8.94 4.21a2.861 2.861 0 0 1 1.64 2.59v.05z" style="fill:#6590ce"/>
        <path data-name="패스 3394" d="M-336.77 222.72a.781.781 0 0 1-.78-.78v-.8a3.343 3.343 0 0 1 1.92-3.02l8.94-4.21a.448.448 0 0 1 .2-.04.52.52 0 0 1 .25.07.473.473 0 0 1 .22.4v3.11a.473.473 0 0 1-.27.43l-10.14 4.77a.983.983 0 0 1-.34.07" style="fill:#c7e3f9"/>
        <path data-name="패스 3395" d="M-326.5 214.33v3.11l-10.14 4.77a.308.308 0 0 1-.13.03.312.312 0 0 1-.31-.31v-.8a2.853 2.853 0 0 1 1.65-2.59zm0-.94a.934.934 0 0 0-.4.09l-8.94 4.2a3.84 3.84 0 0 0-2.19 3.45v.8a1.25 1.25 0 0 0 1.25 1.25 1.209 1.209 0 0 0 .53-.12l10.14-4.77a.949.949 0 0 0 .54-.85v-3.11a.918.918 0 0 0-.93-.94" style="fill:#0a0444"/>
        <path data-name="패스 3396" d="M-326.5 215.98v-1.65l-8.94 4.21a2.87 2.87 0 0 0-1.65 2.59v.05z" style="fill:#064156"/>
        <path data-name="패스 3397" d="M-336.77 219.32a.781.781 0 0 1-.78-.78v-.8a3.343 3.343 0 0 1 1.92-3.02l8.94-4.21a.448.448 0 0 1 .2-.04.52.52 0 0 1 .25.07.473.473 0 0 1 .22.4v3.11a.473.473 0 0 1-.27.43l-10.14 4.77a.983.983 0 0 1-.34.07" style="fill:#c7e3f9"/>
        <path data-name="패스 3398" d="M-326.5 210.93v3.11l-10.14 4.77a.308.308 0 0 1-.13.03.312.312 0 0 1-.31-.31v-.8a2.879 2.879 0 0 1 1.65-2.6zm0-.94a.934.934 0 0 0-.4.09l-8.94 4.21a3.836 3.836 0 0 0-2.19 3.44v.8a1.25 1.25 0 0 0 1.25 1.25 1.209 1.209 0 0 0 .53-.12l10.14-4.77a.949.949 0 0 0 .54-.85v-3.11a.918.918 0 0 0-.93-.94" style="fill:#0a0444"/>
        <path data-name="패스 3399" d="M-326.5 212.59v-1.65l-8.94 4.21a2.87 2.87 0 0 0-1.65 2.59v.05z" style="fill:#6590ce"/>
        <path data-name="패스 3400" d="M-319.71 211.79a.52.52 0 0 1-.25-.07.473.473 0 0 1-.22-.4v-3.63a.473.473 0 0 1 .27-.43l11.84-5.57a.829.829 0 0 1 1.11.4.9.9 0 0 1 .08.36v.94a3.822 3.822 0 0 1-2.19 3.45l-10.44 4.91a.646.646 0 0 1-.2.04" style="fill:#c7e3f9"/>
        <path data-name="패스 3401" d="M-307.71 202.07a.358.358 0 0 1 .36.36v.94a3.347 3.347 0 0 1-1.92 3.03l-10.44 4.91v-3.63l11.84-5.57a.294.294 0 0 1 .16-.04m-.01-.94a1.376 1.376 0 0 0-.56.12l-11.84 5.57a.949.949 0 0 0-.54.85v3.63a.939.939 0 0 0 .94.94.934.934 0 0 0 .4-.09l10.44-4.91a4.3 4.3 0 0 0 2.46-3.88v-.94a1.283 1.283 0 0 0-1.3-1.29" style="fill:#0a0444"/>
        <path data-name="패스 3402" d="M-319.71 209.38v1.93l10.44-4.91a3.347 3.347 0 0 0 1.92-3.03v-.06z" style="fill:#6590ce"/>
        <path data-name="패스 3403" d="M-319.71 215.75a.52.52 0 0 1-.25-.07.473.473 0 0 1-.22-.4v-3.63a.473.473 0 0 1 .27-.43l11.84-5.57a.829.829 0 0 1 1.11.4.9.9 0 0 1 .08.36v.94a3.822 3.822 0 0 1-2.19 3.45l-10.44 4.91a.447.447 0 0 1-.2.04" style="fill:#fceeff"/>
        <path data-name="패스 3404" d="M-307.71 206.04a.358.358 0 0 1 .36.36v.94a3.347 3.347 0 0 1-1.92 3.03l-10.44 4.91v-3.64l11.84-5.57a.415.415 0 0 1 .16-.03m-.01-.94a1.376 1.376 0 0 0-.56.12l-11.84 5.57a.938.938 0 0 0-.54.85v3.64a.939.939 0 0 0 .94.94.934.934 0 0 0 .4-.09l10.44-4.91a4.3 4.3 0 0 0 2.46-3.88v-.94a1.279 1.279 0 0 0-1.3-1.3" style="fill:#0a0444"/>
        <path data-name="패스 3405" d="M-319.71 213.36v1.93l10.44-4.91a3.347 3.347 0 0 0 1.92-3.03v-.06z" style="fill:#d778ff"/>
        <path data-name="패스 3406" d="M-325.61 207.82a.647.647 0 0 1-.2-.04l-10.44-4.91a3.816 3.816 0 0 1-2.19-3.45v-.94a.837.837 0 0 1 .83-.84.937.937 0 0 1 .36.08l11.84 5.57a.462.462 0 0 1 .27.43v3.64a.473.473 0 0 1-.22.4.513.513 0 0 1-.25.06" style="fill:#fceeff"/>
        <path data-name="패스 3407" d="M-337.6 198.1a.26.26 0 0 1 .15.04l11.84 5.57v3.64l-10.43-4.91a3.347 3.347 0 0 1-1.92-3.03v-.94a.361.361 0 0 1 .36-.37m0-.94a1.308 1.308 0 0 0-1.31 1.31v.94a4.3 4.3 0 0 0 2.46 3.88l10.44 4.91a.934.934 0 0 0 .4.09.939.939 0 0 0 .94-.94v-3.64a.938.938 0 0 0-.54-.85l-11.84-5.57a1.172 1.172 0 0 0-.55-.13" style="fill:#0a0444"/>
        <path data-name="패스 3408" d="M-325.61 205.42v1.93l-10.44-4.91a3.347 3.347 0 0 1-1.92-3.03v-.06z" style="fill:#d778ff"/>
        <path data-name="패스 3409" d="M-325.61 211.79a.455.455 0 0 1-.2-.05l-10.44-4.91a3.816 3.816 0 0 1-2.19-3.45v-.94a.843.843 0 0 1 .83-.84.9.9 0 0 1 .36.08l11.84 5.57a.462.462 0 0 1 .27.43v3.63a.473.473 0 0 1-.22.4.437.437 0 0 1-.25.08" style="fill:#cef4d8"/>
        <path data-name="패스 3410" d="M-337.6 202.07a.26.26 0 0 1 .15.04l11.84 5.57v3.63l-10.43-4.91a3.347 3.347 0 0 1-1.92-3.03v-.94a.347.347 0 0 1 .36-.36m0-.94a1.314 1.314 0 0 0-1.31 1.31v.94a4.3 4.3 0 0 0 2.46 3.88l10.44 4.91a.939.939 0 0 0 1.25-.45.934.934 0 0 0 .09-.4v-3.63a.927.927 0 0 0-.54-.85l-11.84-5.57a1.073 1.073 0 0 0-.55-.14" style="fill:#0a0444"/>
        <path data-name="패스 3411" d="M-325.61 209.38v1.93l-10.44-4.91a3.347 3.347 0 0 1-1.92-3.03v-.06z" style="fill:#064156"/>
        <path data-name="패스 3412" d="M-325.61 215.75a.647.647 0 0 1-.2-.04l-10.44-4.91a3.816 3.816 0 0 1-2.19-3.45v-.94a.843.843 0 0 1 .83-.84.9.9 0 0 1 .36.08l11.84 5.57a.462.462 0 0 1 .27.43v3.64a.473.473 0 0 1-.22.4.423.423 0 0 1-.25.06" style="fill:#fceeff"/>
        <path data-name="패스 3413" d="M-337.6 206.04a.26.26 0 0 1 .15.04l11.84 5.57v3.64l-10.43-4.91a3.347 3.347 0 0 1-1.92-3.03v-.94a.355.355 0 0 1 .36-.37m0-.94a1.308 1.308 0 0 0-1.31 1.31v.94a4.3 4.3 0 0 0 2.46 3.88l10.44 4.91a.939.939 0 0 0 1.25-.45.934.934 0 0 0 .09-.4v-3.64a.952.952 0 0 0-.54-.86l-11.84-5.57a1.3 1.3 0 0 0-.55-.12" style="fill:#0a0444"/>
        <path data-name="패스 3414" d="M-325.61 213.36v1.93l-10.44-4.92a3.347 3.347 0 0 1-1.92-3.03v-.06z" style="fill:#6a56e2"/>
        <path data-name="패스 3415" d="M-327.01 203.59h8.35a1.327 1.327 0 0 1 1.08.56l2.77 3.84a1.385 1.385 0 0 1-.08 1.73l-6.94 7.99a1.316 1.316 0 0 1-1.86.14 1.367 1.367 0 0 1-.17-.17l-6.56-8.02a1.4 1.4 0 0 1-.1-1.63l2.38-3.81a1.343 1.343 0 0 1 1.13-.63" style="fill:#fceeff"/>
    </g>
    <g style="clip-path:url(#oexsp250jb)" transform="translate(346.907 -186.369)" data-name="그룹 2989">
        <path data-name="패스 3416" d="m-330.58 195.8-3.19 5.31h6.56z" style="fill:#cef4d8"/>
        <path data-name="패스 3417" d="m-340.02 200.94 6.08.18-3.28-5.83z" style="fill:#c7e3f9"/>
        <path data-name="패스 3418" d="m-320.96 200.94-6.08.18 3.28-5.83z" style="fill:#d778ff"/>
        <path data-name="패스 3419" d="m-333.77 201.42 2.42 10.28h1.73l2.42-10.28z" style="fill:#d778ff"/>
        <path data-name="패스 3420" d="m-326.87 201.42-2.07 9.21 7.94-9.21z" style="fill:#c7e3f9"/>
        <path data-name="패스 3421" d="m-334.12 201.42 2.07 9.21-7.94-9.21z" style="fill:#6a56e2"/>
    </g>
    <g style="clip-path:url(#dzmihfb1ea)" transform="translate(339.23 -193.83)" data-name="그룹 2990">
        <path data-name="패스 3423" d="m-317.58 204.14 2.77 3.84a1.414 1.414 0 0 1 .07 1.53h2.07a3.452 3.452 0 0 0-.57-2.72l-2.77-3.84a3.462 3.462 0 0 0-.74-.74l-1.27 1.54a1.492 1.492 0 0 1 .44.39" style="fill:#c7e3f9"/>
        <path data-name="패스 3424" d="M-312.37 209.89h-3.03l.33-.56a1.015 1.015 0 0 0-.05-1.12l-2.77-3.84a.867.867 0 0 0-.32-.28l-.4-.22 1.79-2.16.28.21a3.546 3.546 0 0 1 .82.82l2.77 3.84a3.854 3.854 0 0 1 .63 3.02zm-1.84-.75h1.21a3.11 3.11 0 0 0-.55-2.13l-2.77-3.83a2.6 2.6 0 0 0-.38-.43l-.78.94a2.568 2.568 0 0 1 .21.24l2.77 3.84a1.807 1.807 0 0 1 .29 1.37z" style="fill:#0a0444"/>
        <path data-name="패스 3425" d="M-314.75 209.52a1.428 1.428 0 0 1-.14.2l-6.94 7.99a1.338 1.338 0 0 1-.97.46v2a3.255 3.255 0 0 0 2.43-1.13l6.94-7.99a3.436 3.436 0 0 0 .76-1.54z" style="fill:#6a56e2"/>
        <path data-name="패스 3426" d="M-323.18 220.55v-2.75l.37-.01a.882.882 0 0 0 .69-.33l6.94-8a.827.827 0 0 0 .11-.15l.11-.18 2.74-.01-.09.45a3.733 3.733 0 0 1-.84 1.7l-6.94 8a3.627 3.627 0 0 1-2.71 1.26zm.75-2.05v1.27a2.9 2.9 0 0 0 1.77-.97l6.94-7.99a3 3 0 0 0 .54-.91h-1.37c-.02.02-.04.05-.06.07l-6.94 7.99a1.66 1.66 0 0 1-.88.54z" style="fill:#0a0444"/>
        <path data-name="패스 3427" d="M-322.83 218.17a1.324 1.324 0 0 1-1.03-.49l-6.56-8.02a1.212 1.212 0 0 1-.1-.14h-2.09a3.523 3.523 0 0 0 .69 1.43l6.56 8.02a3.287 3.287 0 0 0 2.52 1.21h.03v-2l-.02-.01" style="fill:#cef4d8"/>
        <path data-name="패스 3428" d="M-322.43 220.55h-.38a3.609 3.609 0 0 1-2.84-1.35l-6.56-8.02a3.8 3.8 0 0 1-.77-1.59l-.1-.46h2.76l.11.18a.762.762 0 0 0 .08.11l6.56 8.02a.924.924 0 0 0 .74.35l.4.04v2.72zm-9.67-10.66a3.208 3.208 0 0 0 .48.82l6.56 8.02a2.849 2.849 0 0 0 1.88 1.05v-1.27a1.729 1.729 0 0 1-.97-.59l-6.56-8.02h-1.39z" style="fill:#0a0444"/>
        <path data-name="패스 3429" d="M-327.01 203.59h8.35a1.266 1.266 0 0 1 .63.17l1.27-1.54a3.194 3.194 0 0 0-1.91-.63h-8.35a3.2 3.2 0 0 0-2.07.76l1.26 1.52a1.4 1.4 0 0 1 .82-.28" style="fill:#d778ff"/>
        <path data-name="패스 3430" d="m-327.87 204.39-1.73-2.09.28-.24a3.636 3.636 0 0 1 2.31-.85h8.35a3.564 3.564 0 0 1 2.13.71l.32.24-1.73 2.08-.27-.15a.892.892 0 0 0-.45-.12h-8.35a.948.948 0 0 0-.58.2zm-.66-1.98.8.97a1.665 1.665 0 0 1 .73-.17h8.35a1.5 1.5 0 0 1 .52.09l.82-.99a2.847 2.847 0 0 0-1.35-.34h-8.35a2.724 2.724 0 0 0-1.52.44z" style="fill:#0a0444"/>
        <path data-name="패스 3431" d="m-330.52 208.03 2.39-3.81a1.516 1.516 0 0 1 .32-.35l-1.26-1.52a3.514 3.514 0 0 0-.7.79l-2.38 3.81a3.461 3.461 0 0 0-.45 2.57h2.09a1.405 1.405 0 0 1-.01-1.49" style="fill:#ffd67b"/>
        <path data-name="패스 3432" d="M-329.84 209.89h-3.07l-.06-.29a3.8 3.8 0 0 1 .49-2.85l2.38-3.81a3.652 3.652 0 0 1 .78-.88l.29-.24 1.75 2.11-.31.24a.957.957 0 0 0-.23.26l-2.38 3.81a1.022 1.022 0 0 0 0 1.09zm-2.45-.75h1.22a1.781 1.781 0 0 1 .23-1.31l2.38-3.81a2.026 2.026 0 0 1 .13-.18l-.79-.95a3.019 3.019 0 0 0-.35.45l-2.38 3.81a3.1 3.1 0 0 0-.44 1.99z" style="fill:#0a0444"/>
        <path data-name="패스 3433" d="m-322.13 196.85.53 1.11a.626.626 0 0 0 .47.35l1.19.18a.654.654 0 0 1 .53.75.694.694 0 0 1-.18.35l-.86.86a.635.635 0 0 0-.18.57l.2 1.22a.629.629 0 0 1-.5.74.581.581 0 0 1-.41-.06l-1.06-.57a.618.618 0 0 0-.59 0l-1.06.57a.63.63 0 0 1-.85-.27.589.589 0 0 1-.06-.41l.2-1.22a.635.635 0 0 0-.18-.57l-.86-.86a.658.658 0 0 1 0-.92.656.656 0 0 1 .35-.18l1.19-.18a.61.61 0 0 0 .47-.35l.53-1.11a.618.618 0 0 1 .83-.3.625.625 0 0 1 .3.3" style="fill:#fff"/>
    </g>
    <g style="clip-path:url(#dmp4037rhc)" transform="translate(351.948 -192.857)" data-name="그룹 2991">
        <path data-name="패스 3434" d="M-335.44 194.99v3.88l-2.73-3.15s.65-.93 1.17-1.07a3.26 3.26 0 0 1 1.56.34" style="fill:#6590ce"/>
        <path data-name="패스 3435" d="m-338.15 196.14 2.67 2.74-4.1-.24a3.373 3.373 0 0 1 .09-1.61 3.357 3.357 0 0 1 1.34-.89" style="fill:#c7e3f9"/>
        <path data-name="패스 3436" d="M-339.27 198.92h3.78l-3.07 2.81s-.91-.67-1.04-1.2a3.579 3.579 0 0 1 .33-1.61" style="fill:#d778ff"/>
        <path data-name="패스 3437" d="m-338.15 201.7 2.67-2.74-.24 4.21a3.217 3.217 0 0 1-1.57-.09 3.66 3.66 0 0 1-.86-1.38" style="fill:#fceeff"/>
        <path data-name="패스 3438" d="M-335.44 202.85v-3.88l2.73 3.15s-.65.93-1.17 1.07a3.26 3.26 0 0 1-1.56-.34" style="fill:#6a56e2"/>
        <path data-name="패스 3439" d="m-332.73 201.7-2.67-2.75 4.1.24a3.339 3.339 0 0 1-.09 1.6 3.4 3.4 0 0 1-1.34.91" style="fill:#ffd67b"/>
        <path data-name="패스 3440" d="M-331.61 198.92h-3.78l3.07-2.81s.91.67 1.04 1.2a3.608 3.608 0 0 1-.33 1.61" style="fill:#fff7c7"/>
        <path data-name="패스 3441" d="m-332.73 196.14-2.67 2.74.24-4.21a3.217 3.217 0 0 1 1.57.09 3.74 3.74 0 0 1 .86 1.38" style="fill:#fceeff"/>
    </g>
    <g style="clip-path:url(#dzmihfb1ea)" transform="translate(339.23 -193.83)" data-name="그룹 2992">
        <path data-name="패스 3443" d="M-324.34 203.37a1.047 1.047 0 0 1-.3-.05.978.978 0 0 1-.59-.5 1.066 1.066 0 0 1-.1-.66l.2-1.21a.267.267 0 0 0-.08-.25l-.86-.86a1.046 1.046 0 0 1-.3-.73 1.022 1.022 0 0 1 .3-.72.972.972 0 0 1 .55-.28l1.2-.18a.271.271 0 0 0 .19-.14l.53-1.11a1 1 0 0 1 .55-.52.956.956 0 0 1 .76.02 1.014 1.014 0 0 1 .5.5l.53 1.1a.285.285 0 0 0 .19.15l1.19.18a1.042 1.042 0 0 1 .67.42 1 1 0 0 1 .17.77 1.037 1.037 0 0 1-.28.55l-.86.86a.317.317 0 0 0-.08.25l.2 1.22a1.013 1.013 0 0 1-.8 1.17 1.019 1.019 0 0 1-.66-.1l-1.07-.58a.235.235 0 0 0-.23 0l-1.06.58a.93.93 0 0 1-.46.12zm1.65-1.47a1 1 0 0 1 .47.12l1.06.57a.3.3 0 0 0 .16.02.267.267 0 0 0 .21-.3l-.2-1.23a1.062 1.062 0 0 1 .28-.9l.86-.86a.275.275 0 0 0 .08-.15.267.267 0 0 0-.05-.21.265.265 0 0 0-.18-.11l-1.18-.18a1.022 1.022 0 0 1-.76-.56l-.54-1.11a.2.2 0 0 0-.12-.12.251.251 0 0 0-.19-.01.254.254 0 0 0-.14.13l-.54 1.12a.989.989 0 0 1-.76.56l-1.19.18a.267.267 0 0 0-.14.07.279.279 0 0 0-.08.2.318.318 0 0 0 .08.2l.86.86a1.069 1.069 0 0 1 .29.9l-.2 1.22a.346.346 0 0 0 .02.18.263.263 0 0 0 .35.11l1.06-.57a.974.974 0 0 1 .49-.13z" style="fill:#0a0444"/>
        <path data-name="패스 3444" d="m-315.88 199.83.42.88a.484.484 0 0 0 .38.28l.95.14a.52.52 0 0 1 .42.6.573.573 0 0 1-.14.28l-.68.69a.517.517 0 0 0-.14.46l.16.97a.5.5 0 0 1-.39.59.512.512 0 0 1-.34-.05l-.85-.46a.49.49 0 0 0-.47 0l-.85.46a.5.5 0 0 1-.68-.21.559.559 0 0 1-.05-.34l.16-.97a.547.547 0 0 0-.14-.46l-.69-.69a.519.519 0 0 1 0-.73.444.444 0 0 1 .28-.14l.95-.14a.523.523 0 0 0 .38-.28l.42-.88a.5.5 0 0 1 .67-.23.468.468 0 0 1 .23.23" style="fill:#fff"/>
    </g>
    <g style="clip-path:url(#8vw0s3y1rd)" transform="translate(358.942 -189.621)" data-name="그룹 2993">
        <path data-name="패스 3445" d="M-336.15 195.11v3.09l-2.18-2.51s.52-.74.93-.85a2.542 2.542 0 0 1 1.25.27" style="fill:#6590ce"/>
        <path data-name="패스 3446" d="m-338.3 196.02 2.13 2.18-3.27-.2a2.645 2.645 0 0 1 .07-1.28 2.767 2.767 0 0 1 1.07-.7" style="fill:#c7e3f9"/>
        <path data-name="패스 3447" d="M-339.2 198.24h3.01l-2.45 2.23s-.73-.53-.83-.96a3.049 3.049 0 0 1 .27-1.27" style="fill:#d778ff"/>
        <path data-name="패스 3448" d="m-338.3 200.45 2.13-2.18-.19 3.36a2.379 2.379 0 0 1-1.24-.08 2.8 2.8 0 0 1-.7-1.1" style="fill:#fceeff"/>
        <path data-name="패스 3449" d="M-336.15 201.37v-3.09l2.18 2.51s-.52.74-.93.85a2.711 2.711 0 0 1-1.25-.27" style="fill:#6a56e2"/>
        <path data-name="패스 3450" d="m-333.99 200.45-2.13-2.18 3.27.2a2.645 2.645 0 0 1-.07 1.28 2.844 2.844 0 0 1-1.07.7" style="fill:#ffd67b"/>
        <path data-name="패스 3451" d="M-333.1 198.24h-3.01l2.44-2.23s.73.53.83.96a2.685 2.685 0 0 1-.26 1.27" style="fill:#fff7c7"/>
        <path data-name="패스 3452" d="m-333.99 196.02-2.13 2.18.19-3.36a2.379 2.379 0 0 1 1.24.08 2.8 2.8 0 0 1 .7 1.1" style="fill:#fceeff"/>
    </g>
    <g style="clip-path:url(#dzmihfb1ea)" transform="translate(339.23 -193.83)" data-name="그룹 2994">
        <path data-name="패스 3454" d="M-315.02 205.1a.953.953 0 0 1-.41-.1l-.85-.46a.108.108 0 0 0-.11 0l-.85.46a.885.885 0 0 1-1.19-.36.809.809 0 0 1-.08-.59l.16-.95a.148.148 0 0 0-.04-.13l-.68-.69a.877.877 0 0 1-.26-.63.877.877 0 0 1 .26-.63.894.894 0 0 1 .48-.25l.96-.14a.111.111 0 0 0 .09-.07l.42-.88a.884.884 0 0 1 .51-.44.869.869 0 0 1 .67.05.821.821 0 0 1 .39.39l.43.89a.12.12 0 0 0 .1.07l.94.14a.906.906 0 0 1 .74 1.03.894.894 0 0 1-.25.48l-.68.69a.148.148 0 0 0-.04.13l.16.97a.865.865 0 0 1-.13.64.86.86 0 0 1-.55.38 1.2 1.2 0 0 0-.19 0zm-1.3-5.17a.139.139 0 0 0-.12.07l-.42.88a.9.9 0 0 1-.66.49l-.95.14c-.12.09-.12.19-.07.24l.69.69a.911.911 0 0 1 .25.78l-.16.97.01.1a.12.12 0 0 0 .17.05l.84-.46a.853.853 0 0 1 .82 0l.85.46c.14 0 .19-.08.18-.14l-.16-.98a.873.873 0 0 1 .25-.78l.69-.69c.05-.14-.01-.23-.08-.24l-.94-.14a.9.9 0 0 1-.66-.49l-.42-.88a.121.121 0 0 0-.05-.05.1.1 0 0 0-.06-.02z" style="fill:#0a0444"/>
        <path data-name="패스 3455" d="m-328.6 199.83.42.88a.484.484 0 0 0 .38.28l.95.14a.52.52 0 0 1 .42.6.573.573 0 0 1-.14.28l-.68.69a.517.517 0 0 0-.14.46l.16.97a.5.5 0 0 1-.39.59.512.512 0 0 1-.34-.05l-.85-.46a.49.49 0 0 0-.47 0l-.85.46a.506.506 0 0 1-.68-.2.458.458 0 0 1-.05-.34l.16-.97a.547.547 0 0 0-.14-.46l-.69-.69a.519.519 0 0 1 0-.73.573.573 0 0 1 .28-.14l.95-.14a.523.523 0 0 0 .38-.28l.42-.88a.5.5 0 0 1 .67-.23.414.414 0 0 1 .23.22" style="fill:#fff"/>
    </g>
    <g style="clip-path:url(#eytnnm6xee)" transform="translate(346.382 -189.621)" data-name="그룹 2995">
        <path data-name="패스 3456" d="M-336.15 195.11v3.09l-2.18-2.51s.52-.74.93-.85a2.542 2.542 0 0 1 1.25.27" style="fill:#6590ce"/>
        <path data-name="패스 3457" d="m-338.3 196.02 2.13 2.18-3.27-.2a2.645 2.645 0 0 1 .07-1.28 2.767 2.767 0 0 1 1.07-.7" style="fill:#c7e3f9"/>
        <path data-name="패스 3458" d="M-339.2 198.24h3.01l-2.44 2.23s-.72-.53-.83-.96a2.892 2.892 0 0 1 .26-1.27" style="fill:#d778ff"/>
        <path data-name="패스 3459" d="m-338.3 200.45 2.13-2.18-.19 3.36a2.423 2.423 0 0 1-1.25-.08 2.772 2.772 0 0 1-.69-1.1" style="fill:#fceeff"/>
        <path data-name="패스 3460" d="M-336.15 201.37v-3.09l2.18 2.51s-.52.74-.93.85a2.711 2.711 0 0 1-1.25-.27" style="fill:#6a56e2"/>
        <path data-name="패스 3461" d="m-333.99 200.45-2.12-2.18 3.27.2a2.645 2.645 0 0 1-.07 1.28 2.962 2.962 0 0 1-1.08.7" style="fill:#ffd67b"/>
        <path data-name="패스 3462" d="M-333.1 198.24h-3.01l2.44-2.23s.73.53.83.96a2.685 2.685 0 0 1-.26 1.27" style="fill:#fff7c7"/>
        <path data-name="패스 3463" d="m-333.99 196.02-2.12 2.18.19-3.36a2.379 2.379 0 0 1 1.24.08 2.888 2.888 0 0 1 .69 1.1" style="fill:#fceeff"/>
    </g>
    <g style="clip-path:url(#dzmihfb1ea)" transform="translate(339.23 -193.83)" data-name="그룹 2996">
        <path data-name="패스 3465" d="M-330.36 205.1a.874.874 0 0 1-.77-.45.894.894 0 0 1-.09-.6l.16-.95a.148.148 0 0 0-.04-.13l-.68-.69a.894.894 0 0 1-.26-.63.9.9 0 0 1 .27-.63.928.928 0 0 1 .48-.25l.96-.14a.111.111 0 0 0 .09-.07l.42-.88a.886.886 0 0 1 .5-.45.867.867 0 0 1 .67.04.862.862 0 0 1 .4.4l.43.89a.12.12 0 0 0 .1.07l.94.14a.906.906 0 0 1 .74 1.03.894.894 0 0 1-.25.48l-.68.69a.148.148 0 0 0-.04.13l.16.97a.865.865 0 0 1-.13.64.86.86 0 0 1-.55.38.923.923 0 0 1-.59-.08l-.85-.46a.108.108 0 0 0-.11 0l-.85.46a1.379 1.379 0 0 1-.43.09zm1.31-5.18c-.02 0-.03 0-.04.01a.126.126 0 0 0-.07.06l-.42.88a.9.9 0 0 1-.66.49l-.95.14c-.1.07-.11.12-.11.14a.185.185 0 0 0 .04.1l.68.69a.911.911 0 0 1 .25.78l-.16.97.01.1a.128.128 0 0 0 .17.05l.85-.46a.853.853 0 0 1 .82 0l.85.46c.14 0 .19-.08.18-.14l-.16-.98a.873.873 0 0 1 .25-.78l.69-.69c.05-.15 0-.23-.08-.24l-.94-.14a.885.885 0 0 1-.66-.49l-.42-.88a.17.17 0 0 0-.06-.06c-.02 0-.04-.01-.06-.01z" style="fill:#0a0444"/>
    </g>
    <g>
        <g data-name="그룹 3157">
            <g data-name="그룹 2997" style="clip-path:url(#ne9ud4tq4f)" transform="translate(375.23 -254.83)">
                <path data-name="패스 3466" d="m-264.59 262.25-12.22-4.87h12.22z" style="fill:#fff7c7"/>
            </g>
            <g data-name="그룹 2998" style="clip-path:url(#ne9ud4tq4f)" transform="translate(375.23 -254.83)">
                <path data-name="패스 3468" d="m-264.59 262.43-12.68-5.05h.46l12.22 4.87z" style="fill:#fff7c7"/>
            </g>
            <g data-name="그룹 2999" style="clip-path:url(#ne9ud4tq4f)" transform="translate(375.23 -254.83)">
                <path data-name="패스 3470" d="m-264.59 262.61-13.14-5.23h.46l12.68 5.05z" style="fill:#fef7c7"/>
            </g>
            <g data-name="그룹 3000" style="clip-path:url(#ne9ud4tq4f)" transform="translate(375.23 -254.83)">
                <path data-name="패스 3472" d="m-264.59 262.8-13.61-5.42h.47l13.14 5.23z" style="fill:#fdf7c8"/>
            </g>
            <g data-name="그룹 3001" style="clip-path:url(#ne9ud4tq4f)" transform="translate(375.23 -254.83)">
                <path data-name="패스 3474" d="m-264.59 262.98-14.07-5.6h.46l13.61 5.42z" style="fill:#fcf7c8"/>
            </g>
            <g data-name="그룹 3002" style="clip-path:url(#ne9ud4tq4f)" transform="translate(375.23 -254.83)">
                <path data-name="패스 3476" d="m-264.59 263.16-14.53-5.78h.46l14.07 5.6z" style="fill:#fbf7c8"/>
            </g>
            <g data-name="그룹 3003" style="clip-path:url(#ne9ud4tq4f)" transform="translate(375.23 -254.83)">
                <path data-name="패스 3478" d="m-264.59 263.35-14.99-5.97h.46l14.53 5.78z" style="fill:#faf7c9"/>
            </g>
            <g data-name="그룹 3004" style="clip-path:url(#ne9ud4tq4f)" transform="translate(375.23 -254.83)">
                <path data-name="패스 3480" d="m-264.59 263.53-15.45-6.15h.46l14.99 5.97z" style="fill:#f9f7c9"/>
            </g>
            <g data-name="그룹 3005" style="clip-path:url(#ne9ud4tq4f)" transform="translate(375.23 -254.83)">
                <path data-name="패스 3482" d="m-264.59 263.72-15.91-6.34h.46l15.45 6.15z" style="fill:#f8f7c9"/>
            </g>
            <g data-name="그룹 3006" style="clip-path:url(#ne9ud4tq4f)" transform="translate(375.23 -254.83)">
                <path data-name="패스 3484" d="m-264.59 263.9-16.37-6.52h.46l15.91 6.34z" style="fill:#f7f7ca"/>
            </g>
            <g data-name="그룹 3007" style="clip-path:url(#ne9ud4tq4f)" transform="translate(375.23 -254.83)">
                <path data-name="패스 3486" d="m-264.59 264.08-16.83-6.7h.46l16.37 6.52z" style="fill:#f6f6ca"/>
            </g>
            <g data-name="그룹 3008" style="clip-path:url(#ne9ud4tq4f)" transform="translate(375.23 -254.83)">
                <path data-name="패스 3488" d="m-264.59 264.27-17.3-6.89h.47l16.83 6.7z" style="fill:#f5f6cb"/>
            </g>
            <g data-name="그룹 3009" style="clip-path:url(#ne9ud4tq4f)" transform="translate(375.23 -254.83)">
                <path data-name="패스 3490" d="m-264.59 264.45-17.76-7.07h.46l17.3 6.89z" style="fill:#f4f6cb"/>
            </g>
            <g data-name="그룹 3010" style="clip-path:url(#ne9ud4tq4f)" transform="translate(375.23 -254.83)">
                <path data-name="패스 3492" d="m-264.59 264.63-18.22-7.25h.46l17.76 7.07z" style="fill:#f3f6cb"/>
            </g>
            <g data-name="그룹 3011" style="clip-path:url(#ne9ud4tq4f)" transform="translate(375.23 -254.83)">
                <path data-name="패스 3494" d="m-264.59 264.82-18.68-7.44h.46l18.22 7.25z" style="fill:#f2f6cc"/>
            </g>
            <g data-name="그룹 3012" style="clip-path:url(#ne9ud4tq4f)" transform="translate(375.23 -254.83)">
                <path data-name="패스 3496" d="m-264.59 265-19.14-7.62h.46l18.68 7.44z" style="fill:#f1f6cc"/>
            </g>
            <g data-name="그룹 3013" style="clip-path:url(#ne9ud4tq4f)" transform="translate(375.23 -254.83)">
                <path data-name="패스 3498" d="m-264.59 265.18-19.6-7.8h.46l19.14 7.62z" style="fill:#f0f6cc"/>
            </g>
            <g data-name="그룹 3014" style="clip-path:url(#ne9ud4tq4f)" transform="translate(375.23 -254.83)">
                <path data-name="패스 3500" d="m-264.59 265.37-20.06-7.99h.46l19.6 7.8z" style="fill:#eff6cd"/>
            </g>
            <g data-name="그룹 3015" style="clip-path:url(#ne9ud4tq4f)" transform="translate(375.23 -254.83)">
                <path data-name="패스 3502" d="m-264.59 265.55-20.52-8.17h.46l20.06 7.99z" style="fill:#eef6cd"/>
            </g>
            <g data-name="그룹 3016" style="clip-path:url(#ne9ud4tq4f)" transform="translate(375.23 -254.83)">
                <path data-name="패스 3504" d="m-264.59 265.73-20.99-8.35h.47l20.52 8.17z" style="fill:#edf6cd"/>
            </g>
            <g data-name="그룹 3017" style="clip-path:url(#ne9ud4tq4f)" transform="translate(375.23 -254.83)">
                <path data-name="패스 3506" d="m-264.59 265.92-21.45-8.54h.46l20.99 8.35z" style="fill:#ecf6ce"/>
            </g>
            <g data-name="그룹 3018" style="clip-path:url(#ne9ud4tq4f)" transform="translate(375.23 -254.83)">
                <path data-name="패스 3508" d="m-264.59 266.1-21.91-8.72h.46l21.45 8.54z" style="fill:#ebf6ce"/>
            </g>
            <g data-name="그룹 3019" style="clip-path:url(#ne9ud4tq4f)" transform="translate(375.23 -254.83)">
                <path data-name="패스 3510" d="m-264.59 266.29-22.37-8.91h.46l21.91 8.72z" style="fill:#eaf6ce"/>
            </g>
            <g data-name="그룹 3020" style="clip-path:url(#ne9ud4tq4f)" transform="translate(375.23 -254.83)">
                <path data-name="패스 3512" d="m-264.59 266.47-22.83-9.09h.46l22.37 8.91z" style="fill:#e9f6cf"/>
            </g>
            <g data-name="그룹 3021" style="clip-path:url(#ne9ud4tq4f)" transform="translate(375.23 -254.83)">
                <path data-name="패스 3514" d="m-264.59 266.65-23.29-9.27h.46l22.83 9.09z" style="fill:#e8f6cf"/>
            </g>
            <g data-name="그룹 3022" style="clip-path:url(#ne9ud4tq4f)" transform="translate(375.23 -254.83)">
                <path data-name="패스 3516" d="m-264.59 266.84-23.75-9.46h.46l23.29 9.27z" style="fill:#e7f6d0"/>
            </g>
            <g data-name="그룹 3023" style="clip-path:url(#ne9ud4tq4f)" transform="translate(375.23 -254.83)">
                <path data-name="패스 3518" d="m-264.59 267.02-24.22-9.64h.47l23.75 9.46z" style="fill:#e5f5d0"/>
            </g>
            <g data-name="그룹 3024" style="clip-path:url(#ne9ud4tq4f)" transform="translate(375.23 -254.83)">
                <path data-name="패스 3520" d="m-264.59 267.2-24.68-9.82h.46l24.22 9.64z" style="fill:#e4f5d0"/>
            </g>
            <g data-name="그룹 3025" style="clip-path:url(#ne9ud4tq4f)" transform="translate(375.23 -254.83)">
                <path data-name="패스 3522" d="m-264.59 267.39-25.14-10.01h.46l24.68 9.82z" style="fill:#e3f5d1"/>
            </g>
            <g data-name="그룹 3026" style="clip-path:url(#ne9ud4tq4f)" transform="translate(375.23 -254.83)">
                <path data-name="패스 3524" d="m-264.59 267.57-25.6-10.19h.46l25.14 10.01z" style="fill:#e2f5d1"/>
            </g>
            <g data-name="그룹 3027" style="clip-path:url(#ne9ud4tq4f)" transform="translate(375.23 -254.83)">
                <path data-name="패스 3526" d="m-264.59 267.75-26.06-10.37h.46l25.6 10.19z" style="fill:#e1f5d1"/>
            </g>
            <g data-name="그룹 3028" style="clip-path:url(#ne9ud4tq4f)" transform="translate(375.23 -254.83)">
                <path data-name="패스 3528" d="m-264.59 267.94-26.52-10.56h.46l26.06 10.37z" style="fill:#e0f5d2"/>
            </g>
            <g data-name="그룹 3029" style="clip-path:url(#ne9ud4tq4f)" transform="translate(375.23 -254.83)">
                <path data-name="패스 3530" d="m-264.59 268.12-26.98-10.74h.46l26.52 10.56z" style="fill:#dff5d2"/>
            </g>
            <g data-name="그룹 3030" style="clip-path:url(#ne9ud4tq4f)" transform="translate(375.23 -254.83)">
                <path data-name="패스 3532" d="m-264.59 268.31-27.44-10.93h.46l26.98 10.74z" style="fill:#def5d2"/>
            </g>
            <g data-name="그룹 3031" style="clip-path:url(#ne9ud4tq4f)" transform="translate(375.23 -254.83)">
                <path data-name="패스 3534" d="m-264.59 268.49-27.91-11.11h.47l27.44 10.93z" style="fill:#ddf5d3"/>
            </g>
            <g data-name="그룹 3032" style="clip-path:url(#ne9ud4tq4f)" transform="translate(375.23 -254.83)">
                <path data-name="패스 3536" d="m-264.59 268.67-28.37-11.29h.46l27.91 11.11z" style="fill:#dcf5d3"/>
            </g>
            <g data-name="그룹 3033" style="clip-path:url(#ne9ud4tq4f)" transform="translate(375.23 -254.83)">
                <path data-name="패스 3538" d="m-264.59 268.86-28.83-11.48h.46l28.37 11.29z" style="fill:#dbf5d3"/>
            </g>
            <g data-name="그룹 3034" style="clip-path:url(#ne9ud4tq4f)" transform="translate(375.23 -254.83)">
                <path data-name="패스 3540" d="m-264.59 269.04-29.29-11.66h.46l28.83 11.48z" style="fill:#daf5d4"/>
            </g>
            <g data-name="그룹 3035" style="clip-path:url(#ne9ud4tq4f)" transform="translate(375.23 -254.83)">
                <path data-name="패스 3542" d="m-264.59 269.22-29.75-11.84h.46l29.29 11.66z" style="fill:#d9f5d4"/>
            </g>
            <g data-name="그룹 3036" style="clip-path:url(#ne9ud4tq4f)" transform="translate(375.23 -254.83)">
                <path data-name="패스 3544" d="m-264.59 269.41-30.21-12.03h.46l29.75 11.84z" style="fill:#d8f5d4"/>
            </g>
            <g data-name="그룹 3037" style="clip-path:url(#ne9ud4tq4f)" transform="translate(375.23 -254.83)">
                <path data-name="패스 3546" d="m-264.59 269.59-30.67-12.21h.46l30.21 12.03z" style="fill:#d7f5d5"/>
            </g>
            <g data-name="그룹 3038" style="clip-path:url(#ne9ud4tq4f)" transform="translate(375.23 -254.83)">
                <path data-name="패스 3548" d="m-264.59 269.77-31.13-12.39h.46l30.67 12.21z" style="fill:#d6f5d5"/>
            </g>
            <g data-name="그룹 3039" style="clip-path:url(#ne9ud4tq4f)" transform="translate(375.23 -254.83)">
                <path data-name="패스 3550" d="m-264.59 269.96-31.6-12.58h.47l31.13 12.39z" style="fill:#d5f4d6"/>
            </g>
            <g data-name="그룹 3040" style="clip-path:url(#ne9ud4tq4f)" transform="translate(375.23 -254.83)">
                <path data-name="패스 3552" d="m-264.59 270.14-32.06-12.76h.46l31.6 12.58z" style="fill:#d4f4d6"/>
            </g>
            <g data-name="그룹 3041" style="clip-path:url(#ne9ud4tq4f)" transform="translate(375.23 -254.83)">
                <path data-name="패스 3554" d="m-264.59 270.33-32.52-12.95h.46l32.06 12.76z" style="fill:#d3f4d6"/>
            </g>
            <g data-name="그룹 3042" style="clip-path:url(#ne9ud4tq4f)" transform="translate(375.23 -254.83)">
                <path data-name="패스 3556" d="m-264.59 270.51-32.98-13.13h.46l32.52 12.95z" style="fill:#d2f4d7"/>
            </g>
            <g data-name="그룹 3043" style="clip-path:url(#ne9ud4tq4f)" transform="translate(375.23 -254.83)">
                <path data-name="패스 3558" d="m-264.59 270.69-33.44-13.31h.46l32.98 13.13z" style="fill:#d1f4d7"/>
            </g>
            <g data-name="그룹 3044" style="clip-path:url(#ne9ud4tq4f)" transform="translate(375.23 -254.83)">
                <path data-name="패스 3560" d="m-264.59 270.88-33.9-13.5h.46l33.44 13.31z" style="fill:#d0f4d7"/>
            </g>
            <g data-name="그룹 3045" style="clip-path:url(#ne9ud4tq4f)" transform="translate(375.23 -254.83)">
                <path data-name="패스 3562" d="m-264.59 271.06-34.36-13.68h.46l33.9 13.5z" style="fill:#cff4d8"/>
            </g>
            <g data-name="그룹 3046" style="clip-path:url(#ne9ud4tq4f)" transform="translate(375.23 -254.83)">
                <path data-name="패스 3564" d="m-264.59 271.24-34.83-13.86h.47l34.36 13.68z" style="fill:#cef4d8"/>
            </g>
            <g data-name="그룹 3047" style="clip-path:url(#ne9ud4tq4f)" transform="translate(375.23 -254.83)">
                <path data-name="패스 3566" d="m-264.59 271.49-35.44-14.11h.61l34.83 13.86z" style="fill:#cef4d8"/>
            </g>
            <g data-name="그룹 3048" style="clip-path:url(#ne9ud4tq4f)" transform="translate(375.23 -254.83)">
                <path data-name="패스 3568" d="m-264.59 271.73-36.05-14.35h.61l35.44 14.11z" style="fill:#cff4d9"/>
            </g>
            <g data-name="그룹 3049" style="clip-path:url(#ne9ud4tq4f)" transform="translate(375.23 -254.83)">
                <path data-name="패스 3570" d="m-264.59 271.98-36.67-14.6h.62l36.05 14.35z" style="fill:#d0f4da"/>
            </g>
            <g data-name="그룹 3050" style="clip-path:url(#ne9ud4tq4f)" transform="translate(375.23 -254.83)">
                <path data-name="패스 3572" d="m-264.59 272.22-37.28-14.84h.61l36.67 14.6z" style="fill:#d1f4db"/>
            </g>
            <g data-name="그룹 3051" style="clip-path:url(#ne9ud4tq4f)" transform="translate(375.23 -254.83)">
                <path data-name="패스 3574" d="m-264.59 272.46-37.89-15.08h.61l37.28 14.84z" style="fill:#d2f3db"/>
            </g>
            <g data-name="그룹 3052" style="clip-path:url(#ne9ud4tq4f)" transform="translate(375.23 -254.83)">
                <path data-name="패스 3576" d="m-264.59 272.71-38.51-15.33h.62l37.89 15.08z" style="fill:#d3f3dc"/>
            </g>
            <g data-name="그룹 3053" style="clip-path:url(#ne9ud4tq4f)" transform="translate(375.23 -254.83)">
                <path data-name="패스 3578" d="m-264.59 272.95-39.12-15.57h.61l38.51 15.33z" style="fill:#d4f3dd"/>
            </g>
            <g data-name="그룹 3054" style="clip-path:url(#ne9ud4tq4f)" transform="translate(375.23 -254.83)">
                <path data-name="패스 3580" d="m-264.59 273.2-39.73-15.82h.61l39.12 15.57z" style="fill:#d5f3de"/>
            </g>
            <g data-name="그룹 3055" style="clip-path:url(#ne9ud4tq4f)" transform="translate(375.23 -254.83)">
                <path data-name="패스 3582" d="m-264.59 273.44-40.35-16.06h.62l39.73 15.82z" style="fill:#d6f3df"/>
            </g>
            <g data-name="그룹 3056" style="clip-path:url(#ne9ud4tq4f)" transform="translate(375.23 -254.83)">
                <path data-name="패스 3584" d="m-264.59 273.69-40.96-16.31h.61l40.35 16.06z" style="fill:#d7f3e0"/>
            </g>
            <g data-name="그룹 3057" style="clip-path:url(#ne9ud4tq4f)" transform="translate(375.23 -254.83)">
                <path data-name="패스 3586" d="m-264.59 273.93-41.57-16.55h.61l40.96 16.31z" style="fill:#d8f3e1"/>
            </g>
            <g data-name="그룹 3058" style="clip-path:url(#ne9ud4tq4f)" transform="translate(375.23 -254.83)">
                <path data-name="패스 3588" d="m-264.59 274.17-42.19-16.79h.62l41.57 16.55z" style="fill:#d9f3e2"/>
            </g>
            <g data-name="그룹 3059" style="clip-path:url(#ne9ud4tq4f)" transform="translate(375.23 -254.83)">
                <path data-name="패스 3590" d="m-264.59 274.42-42.8-17.04h.61l42.19 16.79z" style="fill:#daf2e2"/>
            </g>
            <g data-name="그룹 3060" style="clip-path:url(#ne9ud4tq4f)" transform="translate(375.23 -254.83)">
                <path data-name="패스 3592" d="m-264.59 274.66-43.42-17.28h.62l42.8 17.04z" style="fill:#dbf2e3"/>
            </g>
            <g data-name="그룹 3061" style="clip-path:url(#ne9ud4tq4f)" transform="translate(375.23 -254.83)">
                <path data-name="패스 3594" d="m-264.59 274.91-44.03-17.53h.61l43.42 17.28z" style="fill:#dcf2e4"/>
            </g>
            <g data-name="그룹 3062" style="clip-path:url(#ne9ud4tq4f)" transform="translate(375.23 -254.83)">
                <path data-name="패스 3596" d="m-264.59 275.15-44.64-17.77h.61l44.03 17.53z" style="fill:#ddf2e5"/>
            </g>
            <g data-name="그룹 3063" style="clip-path:url(#ne9ud4tq4f)" transform="translate(375.23 -254.83)">
                <path data-name="패스 3598" d="m-264.59 275.4-45.26-18.02h.62l44.64 17.77z" style="fill:#def2e6"/>
            </g>
            <g data-name="그룹 3064" style="clip-path:url(#ne9ud4tq4f)" transform="translate(375.23 -254.83)">
                <path data-name="패스 3600" d="m-264.59 275.64-45.87-18.26h.61l45.26 18.02z" style="fill:#dff2e7"/>
            </g>
            <g data-name="그룹 3065" style="clip-path:url(#ne9ud4tq4f)" transform="translate(375.23 -254.83)">
                <path data-name="패스 3602" d="m-264.59 275.88-46.48-18.5h.61l45.87 18.26z" style="fill:#e0f2e8"/>
            </g>
            <g data-name="그룹 3066" style="clip-path:url(#ne9ud4tq4f)" transform="translate(375.23 -254.83)">
                <path data-name="패스 3604" d="m-264.59 276.13-47.1-18.75h.62l46.48 18.5z" style="fill:#e1f1e8"/>
            </g>
            <g data-name="그룹 3067" style="clip-path:url(#ne9ud4tq4f)" transform="translate(375.23 -254.83)">
                <path data-name="패스 3606" d="m-264.59 276.37-47.71-18.99h.61l47.1 18.75z" style="fill:#e2f1e9"/>
            </g>
            <g data-name="그룹 3068" style="clip-path:url(#ne9ud4tq4f)" transform="translate(375.23 -254.83)">
                <path data-name="패스 3608" d="m-264.59 276.62-48.32-19.24h.61l47.71 18.99z" style="fill:#e3f1ea"/>
            </g>
            <g data-name="그룹 3069" style="clip-path:url(#ne9ud4tq4f)" transform="translate(375.23 -254.83)">
                <path data-name="패스 3610" d="m-264.59 276.86-48.94-19.48h.62l48.32 19.24z" style="fill:#e4f1eb"/>
            </g>
            <g data-name="그룹 3070" style="clip-path:url(#ne9ud4tq4f)" transform="translate(375.23 -254.83)">
                <path data-name="패스 3612" d="m-264.59 277.11-49.55-19.73h.61l48.94 19.48z" style="fill:#e6f1ec"/>
            </g>
            <g data-name="그룹 3071" style="clip-path:url(#ne9ud4tq4f)" transform="translate(375.23 -254.83)">
                <path data-name="패스 3614" d="m-264.59 277.35-50.17-19.97h.62l49.55 19.73z" style="fill:#e7f1ed"/>
            </g>
            <g data-name="그룹 3072" style="clip-path:url(#ne9ud4tq4f)" transform="translate(375.23 -254.83)">
                <path data-name="패스 3616" d="m-264.59 277.59-50.78-20.21h.61l50.17 19.97z" style="fill:#e8f1ee"/>
            </g>
            <g data-name="그룹 3073" style="clip-path:url(#ne9ud4tq4f)" transform="translate(375.23 -254.83)">
                <path data-name="패스 3618" d="m-264.59 277.84-51.39-20.46h.61l50.78 20.21z" style="fill:#e9f1ef"/>
            </g>
            <g data-name="그룹 3074" style="clip-path:url(#ne9ud4tq4f)" transform="translate(375.23 -254.83)">
                <path data-name="패스 3620" d="m-264.59 278.08-52.01-20.7h.62l51.39 20.46z" style="fill:#eaf0ef"/>
            </g>
            <g data-name="그룹 3075" style="clip-path:url(#ne9ud4tq4f)" transform="translate(375.23 -254.83)">
                <path data-name="패스 3622" d="m-264.59 278.33-52.62-20.95h.61l52.01 20.7z" style="fill:#ebf0f0"/>
            </g>
            <g data-name="그룹 3076" style="clip-path:url(#ne9ud4tq4f)" transform="translate(375.23 -254.83)">
                <path data-name="패스 3624" d="m-264.59 278.57-53.23-21.19h.61l52.62 20.95z" style="fill:#ecf0f1"/>
            </g>
            <g data-name="그룹 3077" style="clip-path:url(#ne9ud4tq4f)" transform="translate(375.23 -254.83)">
                <path data-name="패스 3626" d="m-264.59 278.81-53.85-21.43h.62l53.23 21.19z" style="fill:#edf0f2"/>
            </g>
            <g data-name="그룹 3078" style="clip-path:url(#ne9ud4tq4f)" transform="translate(375.23 -254.83)">
                <path data-name="패스 3628" d="m-264.59 279.06-54.46-21.68h.61l53.85 21.43z" style="fill:#eef0f3"/>
            </g>
            <g data-name="그룹 3079" style="clip-path:url(#ne9ud4tq4f)" transform="translate(375.23 -254.83)">
                <path data-name="패스 3630" d="m-264.59 279.3-55.07-21.92h.61l54.46 21.68z" style="fill:#eff0f4"/>
            </g>
            <g data-name="그룹 3080" style="clip-path:url(#ne9ud4tq4f)" transform="translate(375.23 -254.83)">
                <path data-name="패스 3632" d="m-264.59 279.55-55.69-22.17h.62l55.07 21.92z" style="fill:#f0f0f5"/>
            </g>
            <g data-name="그룹 3081" style="clip-path:url(#ne9ud4tq4f)" transform="translate(375.23 -254.83)">
                <path data-name="패스 3634" d="m-264.59 279.79-56.3-22.41h.61l55.69 22.17z" style="fill:#f1eff5"/>
            </g>
            <g data-name="그룹 3082" style="clip-path:url(#ne9ud4tq4f)" transform="translate(375.23 -254.83)">
                <path data-name="패스 3636" d="m-264.59 280.04-56.92-22.66h.62l56.3 22.41z" style="fill:#f2eff6"/>
            </g>
            <g data-name="그룹 3083" style="clip-path:url(#ne9ud4tq4f)" transform="translate(375.23 -254.83)">
                <path data-name="패스 3638" d="m-264.59 280.28-57.53-22.9h.61l56.92 22.66z" style="fill:#f3eff7"/>
            </g>
            <g data-name="그룹 3084" style="clip-path:url(#ne9ud4tq4f)" transform="translate(375.23 -254.83)">
                <path data-name="패스 3640" d="m-264.59 280.52-58.14-23.14h.61l57.53 22.9z" style="fill:#f4eff8"/>
            </g>
            <g data-name="그룹 3085" style="clip-path:url(#ne9ud4tq4f)" transform="translate(375.23 -254.83)">
                <path data-name="패스 3642" d="m-264.59 280.77-58.76-23.39h.62l58.14 23.14z" style="fill:#f5eff9"/>
            </g>
            <g data-name="그룹 3086" style="clip-path:url(#ne9ud4tq4f)" transform="translate(375.23 -254.83)">
                <path data-name="패스 3644" d="m-264.59 281.01-59.37-23.63h.61l58.76 23.39z" style="fill:#f6effa"/>
            </g>
            <g data-name="그룹 3087" style="clip-path:url(#ne9ud4tq4f)" transform="translate(375.23 -254.83)">
                <path data-name="패스 3646" d="m-264.59 281.26-59.98-23.88h.61l59.37 23.63z" style="fill:#f7effb"/>
            </g>
            <g data-name="그룹 3088" style="clip-path:url(#ne9ud4tq4f)" transform="translate(375.23 -254.83)">
                <path data-name="패스 3648" d="m-264.59 281.5-60.6-24.12h.62l59.98 23.88z" style="fill:#f8effc"/>
            </g>
            <g data-name="그룹 3089" style="clip-path:url(#ne9ud4tq4f)" transform="translate(375.23 -254.83)">
                <path data-name="패스 3650" d="m-264.59 281.75-61.21-24.37h.61l60.6 24.12z" style="fill:#f9eefc"/>
            </g>
            <g data-name="그룹 3090" style="clip-path:url(#ne9ud4tq4f)" transform="translate(375.23 -254.83)">
                <path data-name="패스 3652" d="m-264.59 281.99-61.82-24.61h.61l61.21 24.37z" style="fill:#faeefd"/>
            </g>
            <g data-name="그룹 3091" style="clip-path:url(#ne9ud4tq4f)" transform="translate(375.23 -254.83)">
                <path data-name="패스 3654" d="m-264.59 282.23-62.44-24.85h.62l61.82 24.61z" style="fill:#fbeefe"/>
            </g>
            <g data-name="그룹 3092" style="clip-path:url(#ne9ud4tq4f)" transform="translate(375.23 -254.83)">
                <path data-name="패스 3656" d="m-264.59 282.48-63.05-25.1h.61l62.44 24.85z" style="fill:#fceeff"/>
            </g>
            <g data-name="그룹 3093" style="clip-path:url(#ne9ud4tq4f)" transform="translate(375.23 -254.83)">
                <path data-name="패스 3658" d="m-264.77 283.38-65.32-26h2.45l63.05 25.1v.9z" style="fill:#fceeff"/>
            </g>
            <g data-name="그룹 3094" style="clip-path:url(#ne9ud4tq4f)" transform="translate(375.23 -254.83)">
                <path data-name="패스 3660" d="m-267.22 283.38-64.37-25.62v-.38h1.5l65.32 26z" style="fill:#fcefff"/>
            </g>
            <g data-name="그룹 3095" style="clip-path:url(#ne9ud4tq4f)" transform="translate(375.23 -254.83)">
                <path data-name="패스 3662" d="m-269.66 283.38-61.93-24.65v-.97l64.37 25.62z" style="fill:#fcf0fe"/>
            </g>
            <g data-name="그룹 3096" style="clip-path:url(#ne9ud4tq4f)" transform="translate(375.23 -254.83)">
                <path data-name="패스 3664" d="m-272.11 283.38-59.48-23.67v-.98l61.93 24.65z" style="fill:#fbf1fe"/>
            </g>
            <g data-name="그룹 3097" style="clip-path:url(#ne9ud4tq4f)" transform="translate(375.23 -254.83)">
                <path data-name="패스 3666" d="m-274.56 283.38-57.03-22.7v-.97l59.48 23.67z" style="fill:#fbf2fd"/>
            </g>
            <g data-name="그룹 3098" style="clip-path:url(#ne9ud4tq4f)" transform="translate(375.23 -254.83)">
                <path data-name="패스 3668" d="m-277.01 283.38-54.58-21.72v-.98l57.03 22.7z" style="fill:#fbf3fd"/>
            </g>
            <g data-name="그룹 3099" style="clip-path:url(#ne9ud4tq4f)" transform="translate(375.23 -254.83)">
                <path data-name="패스 3670" d="m-279.45 283.38-52.14-20.75v-.97l54.58 21.72z" style="fill:#fbf5fc"/>
            </g>
            <g data-name="그룹 3100" style="clip-path:url(#ne9ud4tq4f)" transform="translate(375.23 -254.83)">
                <path data-name="패스 3672" d="m-281.9 283.38-49.69-19.78v-.97l52.14 20.75z" style="fill:#fbf6fc"/>
            </g>
            <g data-name="그룹 3101" style="clip-path:url(#ne9ud4tq4f)" transform="translate(375.23 -254.83)">
                <path data-name="패스 3674" d="m-284.35 283.38-47.24-18.8v-.98l49.69 19.78z" style="fill:#fbf7fb"/>
            </g>
            <g data-name="그룹 3102" style="clip-path:url(#ne9ud4tq4f)" transform="translate(375.23 -254.83)">
                <path data-name="패스 3676" d="m-286.8 283.38-44.79-17.83v-.97l47.24 18.8z" style="fill:#faf8fb"/>
            </g>
            <g data-name="그룹 3103" style="clip-path:url(#ne9ud4tq4f)" transform="translate(375.23 -254.83)">
                <path data-name="패스 3678" d="m-289.25 283.38-42.34-16.85v-.98l44.79 17.83z" style="fill:#faf9fa"/>
            </g>
            <g data-name="그룹 3104" style="clip-path:url(#ne9ud4tq4f)" transform="translate(375.23 -254.83)">
                <path data-name="패스 3680" d="m-291.69 283.38-39.9-15.88v-.97l42.34 16.85z" style="fill:#fafafa"/>
            </g>
            <g data-name="그룹 3105" style="clip-path:url(#ne9ud4tq4f)" transform="translate(375.23 -254.83)">
                <path data-name="패스 3682" d="m-292.37 283.38-39.22-15.61v-.27l39.9 15.88z" style="fill:#fafafa"/>
            </g>
            <g data-name="그룹 3106" style="clip-path:url(#ne9ud4tq4f)" transform="translate(375.23 -254.83)">
                <path data-name="패스 3684" d="m-293.05 283.38-38.54-15.34v-.27l39.22 15.61z" style="fill:#f9fafa"/>
            </g>
            <g data-name="그룹 3107" style="clip-path:url(#ne9ud4tq4f)" transform="translate(375.23 -254.83)">
                <path data-name="패스 3686" d="m-293.73 283.38-37.86-15.07v-.27l38.54 15.34z" style="fill:#f8f9fa"/>
            </g>
            <g data-name="그룹 3108" style="clip-path:url(#ne9ud4tq4f)" transform="translate(375.23 -254.83)">
                <path data-name="패스 3688" d="m-294.4 283.38-37.19-14.8v-.27l37.86 15.07z" style="fill:#f7f9fa"/>
            </g>
            <g data-name="그룹 3109" style="clip-path:url(#ne9ud4tq4f)" transform="translate(375.23 -254.83)">
                <path data-name="패스 3690" d="m-295.08 283.38-36.51-14.53v-.27l37.19 14.8z" style="fill:#f6f8fa"/>
            </g>
            <g data-name="그룹 3110" style="clip-path:url(#ne9ud4tq4f)" transform="translate(375.23 -254.83)">
                <path data-name="패스 3692" d="m-295.76 283.38-35.83-14.26v-.27l36.51 14.53z" style="fill:#f5f8fa"/>
            </g>
            <g data-name="그룹 3111" style="clip-path:url(#ne9ud4tq4f)" transform="translate(375.23 -254.83)">
                <path data-name="패스 3694" d="m-296.43 283.38-35.16-13.99v-.27l35.83 14.26z" style="fill:#f4f7fa"/>
            </g>
            <g data-name="그룹 3112" style="clip-path:url(#ne9ud4tq4f)" transform="translate(375.23 -254.83)">
                <path data-name="패스 3696" d="m-297.11 283.38-34.48-13.72v-.27l35.16 13.99z" style="fill:#f3f7fa"/>
            </g>
            <g data-name="그룹 3113" style="clip-path:url(#ne9ud4tq4f)" transform="translate(375.23 -254.83)">
                <path data-name="패스 3698" d="m-297.79 283.38-33.8-13.45v-.27l34.48 13.72z" style="fill:#f2f6fa"/>
            </g>
            <g data-name="그룹 3114" style="clip-path:url(#ne9ud4tq4f)" transform="translate(375.23 -254.83)">
                <path data-name="패스 3700" d="m-298.47 283.38-33.12-13.18v-.27l33.8 13.45z" style="fill:#f1f6fa"/>
            </g>
            <g data-name="그룹 3115" style="clip-path:url(#ne9ud4tq4f)" transform="translate(375.23 -254.83)">
                <path data-name="패스 3702" d="m-299.14 283.38-32.45-12.91v-.27l33.12 13.18z" style="fill:#f0f5fa"/>
            </g>
            <g data-name="그룹 3116" style="clip-path:url(#ne9ud4tq4f)" transform="translate(375.23 -254.83)">
                <path data-name="패스 3704" d="m-299.82 283.38-31.77-12.64v-.27l32.45 12.91z" style="fill:#eff5fa"/>
            </g>
            <g data-name="그룹 3117" style="clip-path:url(#ne9ud4tq4f)" transform="translate(375.23 -254.83)">
                <path data-name="패스 3706" d="m-300.5 283.38-31.09-12.37v-.27l31.77 12.64z" style="fill:#eef4fa"/>
            </g>
            <g data-name="그룹 3118" style="clip-path:url(#ne9ud4tq4f)" transform="translate(375.23 -254.83)">
                <path data-name="패스 3708" d="m-301.17 283.38-30.42-12.1v-.27l31.09 12.37z" style="fill:#edf4fa"/>
            </g>
            <g data-name="그룹 3119" style="clip-path:url(#ne9ud4tq4f)" transform="translate(375.23 -254.83)">
                <path data-name="패스 3710" d="m-301.85 283.38-29.74-11.83v-.27l30.42 12.1z" style="fill:#ecf4fa"/>
            </g>
            <g data-name="그룹 3120" style="clip-path:url(#ne9ud4tq4f)" transform="translate(375.23 -254.83)">
                <path data-name="패스 3712" d="m-302.53 283.38-29.06-11.57v-.26l29.74 11.83z" style="fill:#ebf3fa"/>
            </g>
            <g data-name="그룹 3121" style="clip-path:url(#ne9ud4tq4f)" transform="translate(375.23 -254.83)">
                <path data-name="패스 3714" d="m-303.21 283.38-28.38-11.3v-.27l29.06 11.57z" style="fill:#eaf3fa"/>
            </g>
            <g data-name="그룹 3122" style="clip-path:url(#ne9ud4tq4f)" transform="translate(375.23 -254.83)">
                <path data-name="패스 3716" d="m-303.88 283.38-27.71-11.03v-.27l28.38 11.3z" style="fill:#e9f2fa"/>
            </g>
            <g data-name="그룹 3123" style="clip-path:url(#ne9ud4tq4f)" transform="translate(375.23 -254.83)">
                <path data-name="패스 3718" d="m-304.56 283.38-27.03-10.76v-.27l27.71 11.03z" style="fill:#e8f2fa"/>
            </g>
            <g data-name="그룹 3124" style="clip-path:url(#ne9ud4tq4f)" transform="translate(375.23 -254.83)">
                <path data-name="패스 3720" d="m-305.24 283.38-26.35-10.49v-.27l27.03 10.76z" style="fill:#e7f1fa"/>
            </g>
            <g data-name="그룹 3125" style="clip-path:url(#ne9ud4tq4f)" transform="translate(375.23 -254.83)">
                <path data-name="패스 3722" d="m-305.92 283.38-25.67-10.22v-.27l26.35 10.49z" style="fill:#e6f1fa"/>
            </g>
            <g data-name="그룹 3126" style="clip-path:url(#ne9ud4tq4f)" transform="translate(375.23 -254.83)">
                <path data-name="패스 3724" d="m-306.59 283.38-25-9.95v-.27l25.67 10.22z" style="fill:#e5f0fa"/>
            </g>
            <g data-name="그룹 3127" style="clip-path:url(#ne9ud4tq4f)" transform="translate(375.23 -254.83)">
                <path data-name="패스 3726" d="m-307.27 283.38-24.32-9.68v-.27l25 9.95z" style="fill:#e4f0fa"/>
            </g>
            <g data-name="그룹 3128" style="clip-path:url(#ne9ud4tq4f)" transform="translate(375.23 -254.83)">
                <path data-name="패스 3728" d="m-307.95 283.38-23.64-9.41v-.27l24.32 9.68z" style="fill:#e3effa"/>
            </g>
            <g data-name="그룹 3129" style="clip-path:url(#ne9ud4tq4f)" transform="translate(375.23 -254.83)">
                <path data-name="패스 3730" d="m-308.62 283.38-22.97-9.14v-.27l23.64 9.41z" style="fill:#e2effa"/>
            </g>
            <g data-name="그룹 3130" style="clip-path:url(#ne9ud4tq4f)" transform="translate(375.23 -254.83)">
                <path data-name="패스 3732" d="m-309.3 283.38-22.29-8.87v-.27l22.97 9.14z" style="fill:#e1effa"/>
            </g>
            <g data-name="그룹 3131" style="clip-path:url(#ne9ud4tq4f)" transform="translate(375.23 -254.83)">
                <path data-name="패스 3734" d="m-309.98 283.38-21.61-8.6v-.27l22.29 8.87z" style="fill:#dfeef9"/>
            </g>
            <g data-name="그룹 3132" style="clip-path:url(#ne9ud4tq4f)" transform="translate(375.23 -254.83)">
                <path data-name="패스 3736" d="m-310.66 283.38-20.93-8.33v-.27l21.61 8.6z" style="fill:#deeef9"/>
            </g>
            <g data-name="그룹 3133" style="clip-path:url(#ne9ud4tq4f)" transform="translate(375.23 -254.83)">
                <path data-name="패스 3738" d="m-311.33 283.38-20.26-8.06v-.27l20.93 8.33z" style="fill:#ddedf9"/>
            </g>
            <g data-name="그룹 3134" style="clip-path:url(#ne9ud4tq4f)" transform="translate(375.23 -254.83)">
                <path data-name="패스 3740" d="m-312.01 283.38-19.58-7.79v-.27l20.26 8.06z" style="fill:#dcedf9"/>
            </g>
            <g data-name="그룹 3135" style="clip-path:url(#ne9ud4tq4f)" transform="translate(375.23 -254.83)">
                <path data-name="패스 3742" d="m-312.69 283.38-18.9-7.52v-.27l19.58 7.79z" style="fill:#dbecf9"/>
            </g>
            <g data-name="그룹 3136" style="clip-path:url(#ne9ud4tq4f)" transform="translate(375.23 -254.83)">
                <path data-name="패스 3744" d="m-313.36 283.38-18.23-7.25v-.27l18.9 7.52z" style="fill:#daecf9"/>
            </g>
            <g data-name="그룹 3137" style="clip-path:url(#ne9ud4tq4f)" transform="translate(375.23 -254.83)">
                <path data-name="패스 3746" d="m-314.04 283.38-17.55-6.98v-.27l18.23 7.25z" style="fill:#d9ebf9"/>
            </g>
            <g data-name="그룹 3138" style="clip-path:url(#ne9ud4tq4f)" transform="translate(375.23 -254.83)">
                <path data-name="패스 3748" d="m-314.72 283.38-16.87-6.71v-.27l17.55 6.98z" style="fill:#d8ebf9"/>
            </g>
            <g data-name="그룹 3139" style="clip-path:url(#ne9ud4tq4f)" transform="translate(375.23 -254.83)">
                <path data-name="패스 3750" d="m-315.4 283.38-16.19-6.44v-.27l16.87 6.71z" style="fill:#d7eaf9"/>
            </g>
            <g data-name="그룹 3140" style="clip-path:url(#ne9ud4tq4f)" transform="translate(375.23 -254.83)">
                <path data-name="패스 3752" d="m-316.07 283.38-15.52-6.17v-.27l16.19 6.44z" style="fill:#d6eaf9"/>
            </g>
            <g data-name="그룹 3141" style="clip-path:url(#ne9ud4tq4f)" transform="translate(375.23 -254.83)">
                <path data-name="패스 3754" d="m-316.75 283.38-14.84-5.9v-.27l15.52 6.17z" style="fill:#d5e9f9"/>
            </g>
            <g data-name="그룹 3142" style="clip-path:url(#ne9ud4tq4f)" transform="translate(375.23 -254.83)">
                <path data-name="패스 3756" d="m-317.43 283.38-14.16-5.64v-.26l14.84 5.9z" style="fill:#d4e9f9"/>
            </g>
            <g data-name="그룹 3143" style="clip-path:url(#ne9ud4tq4f)" transform="translate(375.23 -254.83)">
                <path data-name="패스 3758" d="m-318.1 283.38-13.49-5.37v-.27l14.16 5.64z" style="fill:#d3e9f9"/>
            </g>
            <g data-name="그룹 3144" style="clip-path:url(#ne9ud4tq4f)" transform="translate(375.23 -254.83)">
                <path data-name="패스 3760" d="m-318.78 283.38-12.81-5.1v-.27l13.49 5.37z" style="fill:#d2e8f9"/>
            </g>
            <g data-name="그룹 3145" style="clip-path:url(#ne9ud4tq4f)" transform="translate(375.23 -254.83)">
                <path data-name="패스 3762" d="m-319.46 283.38-12.13-4.83v-.27l12.81 5.1z" style="fill:#d1e8f9"/>
            </g>
            <g data-name="그룹 3146" style="clip-path:url(#ne9ud4tq4f)" transform="translate(375.23 -254.83)">
                <path data-name="패스 3764" d="m-320.14 283.38-11.45-4.56v-.27l12.13 4.83z" style="fill:#d0e7f9"/>
            </g>
            <g data-name="그룹 3147" style="clip-path:url(#ne9ud4tq4f)" transform="translate(375.23 -254.83)">
                <path data-name="패스 3766" d="m-320.81 283.38-10.78-4.29v-.27l11.45 4.56z" style="fill:#cfe7f9"/>
            </g>
            <g data-name="그룹 3148" style="clip-path:url(#ne9ud4tq4f)" transform="translate(375.23 -254.83)">
                <path data-name="패스 3768" d="m-321.49 283.38-10.1-4.02v-.27l10.78 4.29z" style="fill:#cee6f9"/>
            </g>
            <g data-name="그룹 3149" style="clip-path:url(#ne9ud4tq4f)" transform="translate(375.23 -254.83)">
                <path data-name="패스 3770" d="m-322.17 283.38-9.42-3.75v-.27l10.1 4.02z" style="fill:#cde6f9"/>
            </g>
            <g data-name="그룹 3150" style="clip-path:url(#ne9ud4tq4f)" transform="translate(375.23 -254.83)">
                <path data-name="패스 3772" d="m-322.85 283.38-8.74-3.48v-.27l9.42 3.75z" style="fill:#cce5f9"/>
            </g>
            <g data-name="그룹 3151" style="clip-path:url(#ne9ud4tq4f)" transform="translate(375.23 -254.83)">
                <path data-name="패스 3774" d="m-323.52 283.38-8.07-3.21v-.27l8.74 3.48z" style="fill:#cbe5f9"/>
            </g>
            <g data-name="그룹 3152" style="clip-path:url(#ne9ud4tq4f)" transform="translate(375.23 -254.83)">
                <path data-name="패스 3776" d="m-324.2 283.38-7.39-2.94v-.27l8.07 3.21z" style="fill:#cae4f9"/>
            </g>
            <g data-name="그룹 3153" style="clip-path:url(#ne9ud4tq4f)" transform="translate(375.23 -254.83)">
                <path data-name="패스 3778" d="m-324.88 283.38-6.71-2.67v-.27l7.39 2.94z" style="fill:#c9e4f9"/>
            </g>
            <g data-name="그룹 3154" style="clip-path:url(#ne9ud4tq4f)" transform="translate(375.23 -254.83)">
                <path data-name="패스 3780" d="m-325.55 283.38-6.04-2.4v-.27l6.71 2.67z" style="fill:#c8e3f9"/>
            </g>
            <g data-name="그룹 3155" style="clip-path:url(#ne9ud4tq4f)" transform="translate(375.23 -254.83)">
                <path data-name="패스 3782" d="m-326.23 283.38-5.36-2.13v-.27l6.04 2.4z" style="fill:#c7e3f9"/>
            </g>
            <g data-name="그룹 3156" style="clip-path:url(#ne9ud4tq4f)" transform="translate(375.23 -254.83)">
                <path data-name="패스 3784" d="m-331.59 281.25 5.36 2.13h-5.36z" style="fill:#c7e3f9"/>
            </g>
        </g>
        <path data-name="패스 3786" d="M-274.03 283.88h-48.13c-5.48 0-9.94-4.8-9.94-10.7v-5.6c0-5.9 4.46-10.7 9.94-10.7h48.13c5.48 0 9.94 4.8 9.94 10.7v5.6c0 5.9-4.46 10.7-9.94 10.7zm-48.12-26c-4.93 0-8.94 4.35-8.94 9.7v5.6c0 5.35 4.01 9.7 8.94 9.7h48.13c4.93 0 8.94-4.35 8.94-9.7v-5.6c0-5.35-4.01-9.7-8.94-9.7z" style="fill:#6590ce" transform="translate(375.23 -254.83)"/>
        <g data-name="그룹 3158">
            <path data-name="패스 3787" d="M-315.38 265.85h5.84v1.41h-4.1v5.46a28.358 28.358 0 0 0 4.95-.4l.19 1.46a31.9 31.9 0 0 1-5.82.37h-1.05v-8.3zm9.33 3.47h1.83v1.42h-1.83v6.43h-1.75V264.7h1.75z" style="fill:#6a56e2" transform="translate(375.23 -254.83)"/>
            <path data-name="패스 3788" d="M-300.11 265.57c1.87 0 3.27 1.72 3.27 4.43 0 2.73-1.39 4.44-3.27 4.44-1.91 0-3.3-1.71-3.29-4.44-.01-2.71 1.38-4.43 3.29-4.43zm0 7.29c.94.01 1.58-1 1.59-2.86-.01-1.85-.64-2.86-1.59-2.86-.97 0-1.62 1.01-1.61 2.86-.01 1.86.64 2.87 1.61 2.86zm6.76 4.31h-1.76V264.7h1.76z" style="fill:#6a56e2" transform="translate(375.23 -254.83)"/>
            <path data-name="패스 3789" d="M-285.04 270c-.01 2.73-1.38 4.44-3.28 4.44s-3.29-1.71-3.28-4.44c-.01-2.71 1.37-4.43 3.28-4.43s3.27 1.72 3.28 4.43zm-3.28 2.86c.97.01 1.61-1 1.61-2.86s-.64-2.86-1.61-2.86c-.95 0-1.6 1.01-1.6 2.86s.65 2.87 1.6 2.86zm4.71-8.16h1.75v4.69h1.83v1.45h-1.83v6.3h-1.75z" style="fill:#6a56e2" transform="translate(375.23 -254.83)"/>
        </g>
    </g>
</svg>
