<svg data-name="플래티넘(모바일+웹)" xmlns="http://www.w3.org/2000/svg" width="111.14" height="31.1" viewBox="0 0 111.14 31.1">
    <defs>
        <clipPath id="risdg225wa">
            <path data-name="사각형 1749" transform="translate(-295.93 142.75)" d="M0 0h32.53v27.08H0z"/>
        </clipPath>
        <clipPath id="p2x07a5wcb">
            <path data-name="패스 3222" d="M-284.03 150.96a1.313 1.313 0 0 0-1.12.63l-2.38 3.8a1.383 1.383 0 0 0 .1 1.62l6.54 8a1.326 1.326 0 0 0 1.85.2 1.367 1.367 0 0 0 .17-.17l6.92-7.97a1.412 1.412 0 0 0 .08-1.73l-2.76-3.83a1.35 1.35 0 0 0-1.07-.56h-8.33z"/>
        </clipPath>
        <clipPath id="vfi5os4f9c">
            <path data-name="패스 3242" d="m-280.24 144.02-.53 1.1a.626.626 0 0 1-.47.35l-1.19.18a.654.654 0 0 0-.53.75.694.694 0 0 0 .18.35l.86.86a.635.635 0 0 1 .18.57l-.2 1.21a.634.634 0 0 0 .5.74.589.589 0 0 0 .41-.06l1.06-.57a.6.6 0 0 1 .58 0l1.06.57a.63.63 0 0 0 .85-.27.589.589 0 0 0 .06-.41l-.2-1.21a.635.635 0 0 1 .18-.57l.86-.86a.658.658 0 0 0 0-.92.656.656 0 0 0-.35-.18l-1.19-.18a.61.61 0 0 1-.47-.35l-.53-1.1a.618.618 0 0 0-.83-.3.834.834 0 0 0-.29.3"/>
        </clipPath>
        <clipPath id="7hg4xgr6yd">
            <path data-name="패스 3245" d="M-245.15 204.29h48.13c5.21 0 9.44 4.57 9.44 10.2v5.6c0 5.63-4.23 10.2-9.44 10.2h-48.13c-5.21 0-9.44-4.57-9.44-10.2v-5.6c0-5.63 4.22-10.2 9.44-10.2"/>
        </clipPath>
    </defs>
    <g style="clip-path:url(#risdg225wa)" transform="translate(296.23 -140.74)" data-name="그룹 2912">
        <path data-name="패스 3191" d="M-265.59 169.34a.853.853 0 0 1-.35-.08l-10.11-4.76a.493.493 0 0 1-.29-.45v-3.1a.5.5 0 0 1 .5-.5.5.5 0 0 1 .21.05l8.91 4.19a3.382 3.382 0 0 1 1.93 3.04v.8a.8.8 0 0 1-.8.81" style="fill:#b28846"/>
        <path data-name="패스 3192" d="m-275.83 160.94 8.91 4.19a2.861 2.861 0 0 1 1.64 2.59v.8a.312.312 0 0 1-.31.31.353.353 0 0 1-.14-.03l-10.11-4.75v-3.11zm0-1a1 1 0 0 0-1 1v3.1a.982.982 0 0 0 .57.9l10.11 4.76a1.3 1.3 0 0 0 1.74-.63 1.342 1.342 0 0 0 .12-.56v-.8a3.882 3.882 0 0 0-2.21-3.49l-8.91-4.19a1.216 1.216 0 0 0-.42-.09" style="fill:#490a0a"/>
        <path data-name="패스 3193" d="M-275.83 162.59v-1.65l8.91 4.19a2.861 2.861 0 0 1 1.64 2.59v.05z" style="fill:#ddc37a"/>
        <path data-name="패스 3194" d="M-265.59 165.95a.853.853 0 0 1-.35-.08l-10.11-4.76a.493.493 0 0 1-.29-.45v-3.11a.5.5 0 0 1 .5-.5.5.5 0 0 1 .21.05l8.91 4.19a3.382 3.382 0 0 1 1.93 3.04v.8a.807.807 0 0 1-.8.82" style="fill:#b28846"/>
        <path data-name="패스 3195" d="m-275.83 157.55 8.91 4.2a2.861 2.861 0 0 1 1.64 2.59v.8a.312.312 0 0 1-.31.31.353.353 0 0 1-.14-.03l-10.11-4.76v-3.11zm0-1a1 1 0 0 0-1 1v3.1a1 1 0 0 0 .57.9l10.11 4.76a1.3 1.3 0 0 0 1.74-.63 1.342 1.342 0 0 0 .12-.56v-.8a3.882 3.882 0 0 0-2.21-3.49l-8.91-4.18a1.035 1.035 0 0 0-.42-.1" style="fill:#490a0a"/>
        <path data-name="패스 3196" d="M-275.83 159.2v-1.65l8.91 4.2a2.861 2.861 0 0 1 1.64 2.59v.05z" style="fill:#ddc37a"/>
        <path data-name="패스 3197" d="M-293.73 169.34a.807.807 0 0 1-.81-.81v-.8a3.364 3.364 0 0 1 1.93-3.04l8.91-4.2a.538.538 0 0 1 .21-.05.5.5 0 0 1 .5.5v3.1a.492.492 0 0 1-.29.45l-10.11 4.76a.665.665 0 0 1-.34.09" style="fill:#b28846"/>
        <path data-name="패스 3198" d="M-283.49 160.94v3.1l-10.11 4.76a.307.307 0 0 1-.41-.15.32.32 0 0 1-.03-.14v-.8a2.847 2.847 0 0 1 1.64-2.58zm0-1a1.081 1.081 0 0 0-.43.1l-8.92 4.19a3.865 3.865 0 0 0-2.21 3.49v.8a1.308 1.308 0 0 0 1.31 1.31 1.212 1.212 0 0 0 .56-.13l10.11-4.76a1 1 0 0 0 .57-.9v-3.1a.988.988 0 0 0-.99-1" style="fill:#490a0a"/>
        <path data-name="패스 3199" d="M-283.49 162.59v-1.65l-8.91 4.19a2.861 2.861 0 0 0-1.64 2.59v.05z" style="fill:#ddc37a"/>
        <path data-name="패스 3200" d="M-293.73 165.95a.807.807 0 0 1-.81-.81v-.8a3.364 3.364 0 0 1 1.93-3.04l8.91-4.2a.538.538 0 0 1 .21-.05.5.5 0 0 1 .5.5v3.1a.492.492 0 0 1-.29.45l-10.11 4.76a.665.665 0 0 1-.34.09" style="fill:#b28846"/>
        <path data-name="패스 3201" d="M-283.49 157.55v3.1l-10.11 4.77a.307.307 0 0 1-.41-.15.32.32 0 0 1-.03-.14v-.8a2.872 2.872 0 0 1 1.64-2.59zm0-1a1.081 1.081 0 0 0-.43.1l-8.92 4.19a3.865 3.865 0 0 0-2.21 3.49v.8a1.314 1.314 0 0 0 1.31 1.31 1.376 1.376 0 0 0 .56-.12l10.11-4.76a.982.982 0 0 0 .57-.9v-3.11a.988.988 0 0 0-.99-1" style="fill:#490a0a"/>
        <path data-name="패스 3202" d="M-283.49 159.2v-1.65l-8.91 4.2a2.861 2.861 0 0 0-1.64 2.59v.05z" style="fill:#ddc37a"/>
        <path data-name="패스 3203" d="M-276.72 157.64a.53.53 0 0 1-.27-.08.5.5 0 0 1-.23-.42v-3.63a.492.492 0 0 1 .29-.45l11.81-5.56a.87.87 0 0 1 1.15.41.8.8 0 0 1 .08.37v.94a3.844 3.844 0 0 1-2.2 3.47l-10.41 4.9a.342.342 0 0 1-.22.05" style="fill:#ffefae"/>
        <path data-name="패스 3204" d="M-264.75 147.93a.358.358 0 0 1 .36.36v.94a3.343 3.343 0 0 1-1.92 3.02l-10.41 4.9v-3.63l11.81-5.56a.415.415 0 0 1 .16-.03m0-1a1.294 1.294 0 0 0-.58.13l-11.81 5.56a.982.982 0 0 0-.57.9v3.63a1 1 0 0 0 1 1 .868.868 0 0 0 .42-.1l10.41-4.9a4.35 4.35 0 0 0 2.49-3.93v-.93a1.361 1.361 0 0 0-1.36-1.36" style="fill:#490a0a"/>
        <path data-name="패스 3205" d="M-276.72 155.22v1.92l10.41-4.9a3.343 3.343 0 0 0 1.92-3.02v-.06z" style="fill:#ddc37a"/>
        <path data-name="패스 3206" d="M-276.72 161.6a.53.53 0 0 1-.27-.08.5.5 0 0 1-.23-.42v-3.63a.492.492 0 0 1 .29-.45l11.81-5.56a.87.87 0 0 1 1.15.41.8.8 0 0 1 .08.37v.94a3.844 3.844 0 0 1-2.2 3.47l-10.42 4.9a.5.5 0 0 1-.21.05" style="fill:#ffefae"/>
        <path data-name="패스 3207" d="M-264.75 151.88a.358.358 0 0 1 .36.36v.94a3.343 3.343 0 0 1-1.92 3.02l-10.41 4.9v-3.63l11.81-5.56a.758.758 0 0 1 .16-.03m0-1a1.294 1.294 0 0 0-.58.13l-11.81 5.56a.982.982 0 0 0-.57.9v3.63a1 1 0 0 0 1 1 .935.935 0 0 0 .43-.1l10.41-4.9a4.35 4.35 0 0 0 2.49-3.93v-.93a1.39 1.39 0 0 0-1.37-1.36" style="fill:#490a0a"/>
        <path data-name="패스 3208" d="M-276.72 159.18v1.92l10.41-4.9a3.343 3.343 0 0 0 1.92-3.02v-.06z" style="fill:#ddc37a"/>
        <path data-name="패스 3209" d="M-282.6 157.64a.5.5 0 0 1-.21-.05l-10.42-4.9a3.855 3.855 0 0 1-2.2-3.47v-.94a.86.86 0 0 1 .86-.86.909.909 0 0 1 .37.08l11.81 5.56a.493.493 0 0 1 .29.45v3.63a.5.5 0 0 1-.23.42.43.43 0 0 1-.27.08" style="fill:#ffefae"/>
        <path data-name="패스 3210" d="M-294.56 147.93a.26.26 0 0 1 .15.04l11.81 5.56v3.63l-10.41-4.9a3.343 3.343 0 0 1-1.92-3.02v-.94a.369.369 0 0 1 .37-.37m0-1a1.361 1.361 0 0 0-1.36 1.36v.94a4.35 4.35 0 0 0 2.49 3.93l10.41 4.9a.994.994 0 0 0 1.33-.48 1.229 1.229 0 0 0 .1-.42v-3.63a1 1 0 0 0-.57-.9l-11.81-5.57a1.152 1.152 0 0 0-.59-.13" style="fill:#490a0a"/>
        <path data-name="패스 3211" d="M-282.6 155.22v1.92l-10.41-4.9a3.343 3.343 0 0 1-1.92-3.02v-.06z" style="fill:#ddc37a"/>
        <path data-name="패스 3212" d="M-282.6 161.6a.5.5 0 0 1-.21-.05l-10.42-4.9a3.844 3.844 0 0 1-2.2-3.47v-.93a.873.873 0 0 1 .85-.87 1 1 0 0 1 .38.08l11.81 5.56a.493.493 0 0 1 .29.45v3.63a.5.5 0 0 1-.23.42.43.43 0 0 1-.27.08" style="fill:#ffefae"/>
        <path data-name="패스 3213" d="M-294.56 151.88a.26.26 0 0 1 .15.04l11.81 5.56v3.63l-10.41-4.9a3.343 3.343 0 0 1-1.92-3.02v-.93a.378.378 0 0 1 .37-.38m0-.99a1.361 1.361 0 0 0-1.36 1.36v.94a4.35 4.35 0 0 0 2.49 3.93l10.41 4.9a.994.994 0 0 0 1.33-.48 1.043 1.043 0 0 0 .1-.43v-3.63a1 1 0 0 0-.57-.9l-11.81-5.56a1.263 1.263 0 0 0-.59-.13" style="fill:#490a0a"/>
        <path data-name="패스 3214" d="M-282.6 159.18v1.92l-10.41-4.9a3.343 3.343 0 0 1-1.92-3.02v-.06z" style="fill:#ddc37a"/>
        <path data-name="패스 3215" d="M-284.03 150.96h8.32a1.312 1.312 0 0 1 1.07.55l2.76 3.83a1.4 1.4 0 0 1-.08 1.73l-6.92 7.97a1.313 1.313 0 0 1-1.85.14 1.367 1.367 0 0 1-.17-.17l-6.54-8a1.384 1.384 0 0 1-.1-1.62l2.38-3.8a1.356 1.356 0 0 1 1.13-.63" style="fill:#cfe"/>
    </g>
    <g style="clip-path:url(#p2x07a5wcb)" transform="translate(296.23 -140.74)" data-name="그룹 2913">
        <path data-name="패스 3216" d="m-279.91 151.17-3 4.99h6.16z" style="fill:#83ffd2"/>
        <path data-name="패스 3217" d="m-288.79 155.99 5.71.17-3.08-5.48z" style="fill:#03d8be"/>
        <path data-name="패스 3218" d="m-270.88 155.99-5.71.17 3.08-5.48z" style="fill:#03d8be"/>
        <path data-name="패스 3219" d="m-282.91 156.45 2.27 9.65h1.62l2.27-9.65z" style="fill:#00797f"/>
        <path data-name="패스 3220" d="m-276.43 156.45-1.95 8.66 7.46-8.66z" style="fill:#83ffd2"/>
        <path data-name="패스 3221" d="m-283.24 156.45 1.95 8.66-7.46-8.66z" style="fill:#02394f"/>
    </g>
    <g style="clip-path:url(#risdg225wa)" transform="translate(296.23 -140.74)" data-name="그룹 2914">
        <path data-name="패스 3223" d="m-274.65 151.52 2.76 3.83a1.414 1.414 0 0 1 .07 1.53h2.06a3.469 3.469 0 0 0-.57-2.72l-2.76-3.83a3.162 3.162 0 0 0-.73-.73l-1.27 1.53a1.491 1.491 0 0 1 .44.39" style="fill:#ffefae"/>
        <path data-name="패스 3224" d="M-269.46 157.25h-3.02l.33-.57a1.015 1.015 0 0 0-.05-1.12l-2.76-3.83a.867.867 0 0 0-.32-.28l-.4-.22 1.78-2.15.28.21a3.936 3.936 0 0 1 .82.81l2.76 3.83a3.839 3.839 0 0 1 .63 3.01zm-1.82-.75h1.21a3.07 3.07 0 0 0-.55-2.12l-2.76-3.83a3.077 3.077 0 0 0-.38-.43l-.78.94a1.435 1.435 0 0 1 .2.23l2.76 3.83a1.856 1.856 0 0 1 .3 1.38z" style="fill:#490a0a"/>
        <path data-name="패스 3225" d="M-271.83 156.88a1.428 1.428 0 0 1-.14.2l-6.92 7.97a1.338 1.338 0 0 1-.97.46v2a3.234 3.234 0 0 0 2.42-1.13l6.92-7.97a3.286 3.286 0 0 0 .75-1.53z" style="fill:#b28846"/>
        <path data-name="패스 3226" d="M-280.23 167.89v-2.75l.37-.01a.882.882 0 0 0 .69-.33l6.92-7.97a.56.56 0 0 0 .1-.15l.11-.18h2.74l-.09.45a3.733 3.733 0 0 1-.84 1.7l-6.92 7.97a3.641 3.641 0 0 1-2.7 1.26zm.75-2.06v1.27a2.852 2.852 0 0 0 1.76-.97l6.92-7.97a3 3 0 0 0 .54-.91h-1.37c-.02.02-.04.05-.06.07l-6.92 7.97a1.6 1.6 0 0 1-.87.54z" style="fill:#490a0a"/>
        <path data-name="패스 3227" d="M-279.88 165.51a1.3 1.3 0 0 1-1.02-.49l-6.54-8a1.212 1.212 0 0 1-.1-.14h-2.08a3.523 3.523 0 0 0 .69 1.43l6.54 8a3.226 3.226 0 0 0 2.51 1.2h.03v-2h-.03" style="fill:#ffefae"/>
        <path data-name="패스 3228" d="M-279.48 167.88h-.38a3.61 3.61 0 0 1-2.83-1.34l-6.54-8a3.951 3.951 0 0 1-.77-1.58l-.1-.46h2.75l.11.18a.862.862 0 0 0 .07.1l6.54 8a.942.942 0 0 0 .71.35l.43-.07v2.82zm-9.64-10.62a3.15 3.15 0 0 0 .48.81l6.54 8a2.855 2.855 0 0 0 1.88 1.04v-1.26a1.729 1.729 0 0 1-.97-.59l-6.54-8h-1.39z" style="fill:#490a0a"/>
        <path data-name="패스 3229" d="M-284.05 150.97h8.32a1.266 1.266 0 0 1 .63.17l1.27-1.53a3.186 3.186 0 0 0-1.9-.63h-8.32a3.2 3.2 0 0 0-2.07.76l1.26 1.52a1.3 1.3 0 0 1 .81-.29" style="fill:#ddc37a"/>
        <path data-name="패스 3230" d="m-284.91 151.77-1.73-2.09.28-.24a3.6 3.6 0 0 1 2.31-.85h8.32a3.534 3.534 0 0 1 2.12.71l.32.24-1.72 2.08-.27-.15a.892.892 0 0 0-.45-.12h-8.32a.9.9 0 0 0-.57.2zm-.66-1.97.8.97a1.622 1.622 0 0 1 .72-.17h8.32a1.821 1.821 0 0 1 .52.08l.82-.99a2.837 2.837 0 0 0-1.34-.34h-8.32a2.816 2.816 0 0 0-1.52.45z" style="fill:#490a0a"/>
        <path data-name="패스 3231" d="m-287.55 155.4 2.38-3.8a1.185 1.185 0 0 1 .32-.35l-1.26-1.52a3.514 3.514 0 0 0-.7.79l-2.38 3.8a3.387 3.387 0 0 0-.44 2.56h2.08a1.409 1.409 0 0 1 0-1.48" style="fill:#b28846"/>
        <path data-name="패스 3232" d="M-286.87 157.25h-3.06l-.06-.29a3.78 3.78 0 0 1 .49-2.84l2.38-3.8a3.808 3.808 0 0 1 .77-.88l.29-.24 1.75 2.1-.31.24a1.087 1.087 0 0 0-.23.25l-2.38 3.8a1 1 0 0 0 0 1.08zm-2.44-.75h1.21a1.764 1.764 0 0 1 .23-1.3l2.38-3.8a2.026 2.026 0 0 1 .13-.18l-.79-.95a3.457 3.457 0 0 0-.34.44l-2.38 3.8a3.056 3.056 0 0 0-.44 1.99z" style="fill:#490a0a"/>
        <path data-name="패스 3233" d="m-279.11 144.02.53 1.1a.626.626 0 0 0 .47.35l1.19.18a.654.654 0 0 1 .53.75.656.656 0 0 1-.18.35l-.86.86a.635.635 0 0 0-.18.57l.2 1.21a.634.634 0 0 1-.5.74.589.589 0 0 1-.41-.06l-1.06-.57a.6.6 0 0 0-.58 0l-1.06.57a.63.63 0 0 1-.85-.27.589.589 0 0 1-.06-.41l.2-1.21a.635.635 0 0 0-.18-.57l-.86-.86a.649.649 0 0 1 0-.92.624.624 0 0 1 .35-.18l1.19-.18a.61.61 0 0 0 .47-.35l.53-1.1a.618.618 0 0 1 .83-.3.762.762 0 0 1 .29.3" style="fill:#fff"/>
    </g>
    <g style="clip-path:url(#vfi5os4f9c)" transform="translate(296.23 -140.74)" data-name="그룹 2915">
        <path data-name="패스 3234" d="M-279.7 143.11v3.64l-2.57-2.96s.61-.88 1.1-1a3.249 3.249 0 0 1 1.47.32" style="fill:#00797f"/>
        <path data-name="패스 3235" d="m-282.25 144.19 2.51 2.58-3.86-.23a3.221 3.221 0 0 1 .09-1.51 3.249 3.249 0 0 1 1.26-.84" style="fill:#83ffd2"/>
        <path data-name="패스 3236" d="M-283.3 146.8h3.55l-2.88 2.64s-.86-.63-.98-1.13a3.3 3.3 0 0 1 .31-1.51" style="fill:#02394f"/>
        <path data-name="패스 3237" d="m-282.25 149.42 2.51-2.58-.22 3.96a2.822 2.822 0 0 1-1.47-.09 3.31 3.31 0 0 1-.82-1.29" style="fill:#03d8be"/>
        <path data-name="패스 3238" d="M-279.7 150.5v-3.64l2.57 2.96s-.61.88-1.1 1a3.221 3.221 0 0 1-1.47-.32" style="fill:#00797f"/>
        <path data-name="패스 3239" d="m-277.16 149.42-2.51-2.58 3.86.23a3.221 3.221 0 0 1-.09 1.51 3.249 3.249 0 0 1-1.26.84" style="fill:#83ffd2"/>
        <path data-name="패스 3240" d="M-276.1 146.8h-3.55l2.88-2.64s.86.63.98 1.13a3.523 3.523 0 0 1-.31 1.51" style="fill:#cfe"/>
        <path data-name="패스 3241" d="m-277.16 144.19-2.51 2.58.22-3.96a2.822 2.822 0 0 1 1.47.09 3.309 3.309 0 0 1 .82 1.29" style="fill:#03d8be"/>
    </g>
    <g style="clip-path:url(#risdg225wa)" transform="translate(296.23 -140.74)" data-name="그룹 2916">
        <path data-name="패스 3243" d="M-281.32 150.53a1.047 1.047 0 0 1-.3-.05 1 1 0 0 1-.59-.49 1.046 1.046 0 0 1-.1-.65l.2-1.2a.267.267 0 0 0-.08-.25l-.86-.86a1.026 1.026 0 0 1 0-1.45 1.052 1.052 0 0 1 .55-.29l1.19-.18a.271.271 0 0 0 .19-.14l.53-1.1a1 1 0 0 1 1.31-.49.975.975 0 0 1 .49.49l.53 1.1a.247.247 0 0 0 .19.14l1.19.18a1.025 1.025 0 0 1 .84 1.18 1.052 1.052 0 0 1-.29.55l-.86.86a.3.3 0 0 0-.08.24l.2 1.21a1.013 1.013 0 0 1-.8 1.17 1.01 1.01 0 0 1-.66-.1l-1.06-.57a.235.235 0 0 0-.23 0l-1.06.57a.737.737 0 0 1-.44.13zm1.65-6.49a.24.24 0 0 0-.22.14l-.53 1.11a.989.989 0 0 1-.75.56l-1.19.18a.285.285 0 0 0-.14.08.272.272 0 0 0 0 .39l.86.86a1.069 1.069 0 0 1 .29.9l-.2 1.21a.346.346 0 0 0 .02.18.243.243 0 0 0 .15.13.215.215 0 0 0 .19-.02l1.05-.57a.98.98 0 0 1 .94 0l1.06.57a.3.3 0 0 0 .16.02.252.252 0 0 0 .2-.3l-.2-1.22a1.062 1.062 0 0 1 .28-.9l.86-.86a.275.275 0 0 0 .08-.15.273.273 0 0 0-.22-.32l-1.18-.18a1.022 1.022 0 0 1-.76-.56l-.53-1.1a.234.234 0 0 0-.12-.12.143.143 0 0 0-.1-.03z" style="fill:#490a0a"/>
    </g>
    <g>
        <g data-name="그룹 2985">
            <g data-name="그룹 2917" style="clip-path:url(#7hg4xgr6yd)" transform="translate(298.23 -201.74)">
                <path data-name="패스 3244" d="m-187.59 209.16-12.22-4.87h12.22z" style="fill:#cfe"/>
            </g>
            <g data-name="그룹 2918" style="clip-path:url(#7hg4xgr6yd)" transform="translate(298.23 -201.74)">
                <path data-name="패스 3246" d="m-187.59 209.67-13.51-5.38h1.29l12.22 4.87z" style="fill:#cfe"/>
            </g>
            <g data-name="그룹 2919" style="clip-path:url(#7hg4xgr6yd)" transform="translate(298.23 -201.74)">
                <path data-name="패스 3248" d="m-187.59 210.18-14.8-5.89h1.29l13.51 5.38z" style="fill:#cdffed"/>
            </g>
            <g data-name="그룹 2920" style="clip-path:url(#7hg4xgr6yd)" transform="translate(298.23 -201.74)">
                <path data-name="패스 3250" d="m-187.59 210.7-16.09-6.41h1.29l14.8 5.89z" style="fill:#ceffec"/>
            </g>
            <g data-name="그룹 2921" style="clip-path:url(#7hg4xgr6yd)" transform="translate(298.23 -201.74)">
                <path data-name="패스 3252" d="m-187.59 211.21-17.38-6.92h1.29l16.09 6.41z" style="fill:#cfffeb"/>
            </g>
            <g data-name="그룹 2922" style="clip-path:url(#7hg4xgr6yd)" transform="translate(298.23 -201.74)">
                <path data-name="패스 3254" d="m-187.59 211.72-18.67-7.43h1.29l17.38 6.92z" style="fill:#d0ffea"/>
            </g>
            <g data-name="그룹 2923" style="clip-path:url(#7hg4xgr6yd)" transform="translate(298.23 -201.74)">
                <path data-name="패스 3256" d="m-187.59 212.24-19.96-7.95h1.29l18.67 7.43z" style="fill:#d0ffe9"/>
            </g>
            <g data-name="그룹 2924" style="clip-path:url(#7hg4xgr6yd)" transform="translate(298.23 -201.74)">
                <path data-name="패스 3258" d="m-187.59 212.75-21.25-8.46h1.29l19.96 7.95z" style="fill:#d1ffe8"/>
            </g>
            <g data-name="그룹 2925" style="clip-path:url(#7hg4xgr6yd)" transform="translate(298.23 -201.74)">
                <path data-name="패스 3260" d="m-187.59 213.27-22.54-8.98h1.29l21.25 8.46z" style="fill:#d2ffe7"/>
            </g>
            <g data-name="그룹 2926" style="clip-path:url(#7hg4xgr6yd)" transform="translate(298.23 -201.74)">
                <path data-name="패스 3262" d="m-187.59 213.78-23.83-9.49h1.29l22.54 8.98z" style="fill:#d3ffe6"/>
            </g>
            <g data-name="그룹 2927" style="clip-path:url(#7hg4xgr6yd)" transform="translate(298.23 -201.74)">
                <path data-name="패스 3264" d="m-187.59 214.29-25.12-10h1.29l23.83 9.49z" style="fill:#d4ffe5"/>
            </g>
            <g data-name="그룹 2928" style="clip-path:url(#7hg4xgr6yd)" transform="translate(298.23 -201.74)">
                <path data-name="패스 3266" d="M-187.59 214.81-214 204.29h1.29l25.12 10z" style="fill:#d5ffe4"/>
            </g>
            <g data-name="그룹 2929" style="clip-path:url(#7hg4xgr6yd)" transform="translate(298.23 -201.74)">
                <path data-name="패스 3268" d="m-187.59 215.32-27.7-11.03h1.29l26.41 10.52z" style="fill:#d6ffe3"/>
            </g>
            <g data-name="그룹 2930" style="clip-path:url(#7hg4xgr6yd)" transform="translate(298.23 -201.74)">
                <path data-name="패스 3270" d="m-187.59 215.83-28.99-11.54h1.29l27.7 11.03z" style="fill:#d7ffe2"/>
            </g>
            <g data-name="그룹 2931" style="clip-path:url(#7hg4xgr6yd)" transform="translate(298.23 -201.74)">
                <path data-name="패스 3272" d="m-187.59 216.35-30.28-12.06h1.29l28.99 11.54z" style="fill:#d8ffe1"/>
            </g>
            <g data-name="그룹 2932" style="clip-path:url(#7hg4xgr6yd)" transform="translate(298.23 -201.74)">
                <path data-name="패스 3274" d="m-187.59 216.86-31.57-12.57h1.29l30.28 12.06z" style="fill:#d8ffe0"/>
            </g>
            <g data-name="그룹 2933" style="clip-path:url(#7hg4xgr6yd)" transform="translate(298.23 -201.74)">
                <path data-name="패스 3276" d="m-187.59 217.37-32.86-13.08h1.29l31.57 12.57z" style="fill:#d9ffdf"/>
            </g>
            <g data-name="그룹 2934" style="clip-path:url(#7hg4xgr6yd)" transform="translate(298.23 -201.74)">
                <path data-name="패스 3278" d="m-187.59 217.89-34.15-13.6h1.29l32.86 13.08z" style="fill:#daffde"/>
            </g>
            <g data-name="그룹 2935" style="clip-path:url(#7hg4xgr6yd)" transform="translate(298.23 -201.74)">
                <path data-name="패스 3280" d="m-187.59 218.4-35.44-14.11h1.29l34.15 13.6z" style="fill:#dbffdd"/>
            </g>
            <g data-name="그룹 2936" style="clip-path:url(#7hg4xgr6yd)" transform="translate(298.23 -201.74)">
                <path data-name="패스 3282" d="m-187.59 218.91-36.73-14.62h1.29l35.44 14.11z" style="fill:#dcffdc"/>
            </g>
            <g data-name="그룹 2937" style="clip-path:url(#7hg4xgr6yd)" transform="translate(298.23 -201.74)">
                <path data-name="패스 3284" d="m-187.59 219.43-38.03-15.14h1.3l36.73 14.62z" style="fill:#ddffdb"/>
            </g>
            <g data-name="그룹 2938" style="clip-path:url(#7hg4xgr6yd)" transform="translate(298.23 -201.74)">
                <path data-name="패스 3286" d="m-187.59 219.94-39.32-15.65h1.29l38.03 15.14z" style="fill:#deffda"/>
            </g>
            <g data-name="그룹 2939" style="clip-path:url(#7hg4xgr6yd)" transform="translate(298.23 -201.74)">
                <path data-name="패스 3288" d="m-187.59 220.45-40.61-16.16h1.29l39.32 15.65z" style="fill:#dfffd9"/>
            </g>
            <g data-name="그룹 2940" style="clip-path:url(#7hg4xgr6yd)" transform="translate(298.23 -201.74)">
                <path data-name="패스 3290" d="m-187.59 220.97-41.9-16.68h1.29l40.61 16.16z" style="fill:#e0ffd8"/>
            </g>
            <g data-name="그룹 2941" style="clip-path:url(#7hg4xgr6yd)" transform="translate(298.23 -201.74)">
                <path data-name="패스 3292" d="m-187.59 221.48-43.19-17.19h1.29l41.9 16.68z" style="fill:#e0ffd6"/>
            </g>
            <g data-name="그룹 2942" style="clip-path:url(#7hg4xgr6yd)" transform="translate(298.23 -201.74)">
                <path data-name="패스 3294" d="m-187.59 222-44.48-17.71h1.29l43.19 17.19z" style="fill:#e1ffd5"/>
            </g>
            <g data-name="그룹 2943" style="clip-path:url(#7hg4xgr6yd)" transform="translate(298.23 -201.74)">
                <path data-name="패스 3296" d="m-187.59 222.51-45.77-18.22h1.29l44.48 17.71z" style="fill:#e2ffd4"/>
            </g>
            <g data-name="그룹 2944" style="clip-path:url(#7hg4xgr6yd)" transform="translate(298.23 -201.74)">
                <path data-name="패스 3298" d="m-187.59 223.02-47.06-18.73h1.29l45.77 18.22z" style="fill:#e3ffd3"/>
            </g>
            <g data-name="그룹 2945" style="clip-path:url(#7hg4xgr6yd)" transform="translate(298.23 -201.74)">
                <path data-name="패스 3300" d="m-187.59 223.54-48.35-19.25h1.29l47.06 18.73z" style="fill:#e4ffd2"/>
            </g>
            <g data-name="그룹 2946" style="clip-path:url(#7hg4xgr6yd)" transform="translate(298.23 -201.74)">
                <path data-name="패스 3302" d="m-187.59 224.05-49.64-19.76h1.29l48.35 19.25z" style="fill:#e5ffd1"/>
            </g>
            <g data-name="그룹 2947" style="clip-path:url(#7hg4xgr6yd)" transform="translate(298.23 -201.74)">
                <path data-name="패스 3304" d="m-187.59 224.56-50.93-20.27h1.29l49.64 19.76z" style="fill:#e6ffd0"/>
            </g>
            <g data-name="그룹 2948" style="clip-path:url(#7hg4xgr6yd)" transform="translate(298.23 -201.74)">
                <path data-name="패스 3306" d="m-187.59 225.08-52.22-20.79h1.29l50.93 20.27z" style="fill:#e7ffcf"/>
            </g>
            <g data-name="그룹 2949" style="clip-path:url(#7hg4xgr6yd)" transform="translate(298.23 -201.74)">
                <path data-name="패스 3308" d="m-187.59 225.59-53.51-21.3h1.29l52.22 20.79z" style="fill:#e7ffce"/>
            </g>
            <g data-name="그룹 2950" style="clip-path:url(#7hg4xgr6yd)" transform="translate(298.23 -201.74)">
                <path data-name="패스 3310" d="m-187.59 226.1-54.8-21.81h1.29l53.51 21.3z" style="fill:#e8ffcd"/>
            </g>
            <g data-name="그룹 2951" style="clip-path:url(#7hg4xgr6yd)" transform="translate(298.23 -201.74)">
                <path data-name="패스 3312" d="m-187.59 226.62-56.09-22.33h1.29l54.8 21.81z" style="fill:#e9ffcc"/>
            </g>
            <g data-name="그룹 2952" style="clip-path:url(#7hg4xgr6yd)" transform="translate(298.23 -201.74)">
                <path data-name="패스 3314" d="m-187.59 227.13-57.38-22.84h1.29l56.09 22.33z" style="fill:#eaffcb"/>
            </g>
            <g data-name="그룹 2953" style="clip-path:url(#7hg4xgr6yd)" transform="translate(298.23 -201.74)">
                <path data-name="패스 3316" d="m-187.59 227.64-58.67-23.35h1.29l57.38 22.84z" style="fill:#ebffca"/>
            </g>
            <g data-name="그룹 2954" style="clip-path:url(#7hg4xgr6yd)" transform="translate(298.23 -201.74)">
                <path data-name="패스 3318" d="m-187.59 228.16-59.96-23.87h1.29l58.67 23.35z" style="fill:#ecffc9"/>
            </g>
            <g data-name="그룹 2955" style="clip-path:url(#7hg4xgr6yd)" transform="translate(298.23 -201.74)">
                <path data-name="패스 3320" d="m-187.59 228.67-61.25-24.38h1.29l59.96 23.87z" style="fill:#edffc8"/>
            </g>
            <g data-name="그룹 2956" style="clip-path:url(#7hg4xgr6yd)" transform="translate(298.23 -201.74)">
                <path data-name="패스 3322" d="m-187.59 229.19-62.54-24.9h1.29l61.25 24.38z" style="fill:#eeffc7"/>
            </g>
            <g data-name="그룹 2957" style="clip-path:url(#7hg4xgr6yd)" transform="translate(298.23 -201.74)">
                <path data-name="패스 3324" d="m-187.59 229.7-63.83-25.41h1.29l62.54 24.9z" style="fill:#efffc6"/>
            </g>
            <g data-name="그룹 2958" style="clip-path:url(#7hg4xgr6yd)" transform="translate(298.23 -201.74)">
                <path data-name="패스 3326" d="m-187.59 230.21-65.12-25.92h1.29l63.83 25.41z" style="fill:#efffc5"/>
            </g>
            <g data-name="그룹 2959" style="clip-path:url(#7hg4xgr6yd)" transform="translate(298.23 -201.74)">
                <path data-name="패스 3328" d="m-188.68 230.29-65.32-26h1.29l65.12 25.92v.08z" style="fill:#f0ffc4"/>
            </g>
            <g data-name="그룹 2960" style="clip-path:url(#7hg4xgr6yd)" transform="translate(298.23 -201.74)">
                <path data-name="패스 3330" d="m-189.97 230.29-64.62-25.72v-.28h.59l65.32 26z" style="fill:#f1ffc3"/>
            </g>
            <g data-name="그룹 2961" style="clip-path:url(#7hg4xgr6yd)" transform="translate(298.23 -201.74)">
                <path data-name="패스 3332" d="m-191.26 230.29-63.33-25.21v-.51l64.62 25.72z" style="fill:#f2ffc2"/>
            </g>
            <g data-name="그룹 2962" style="clip-path:url(#7hg4xgr6yd)" transform="translate(298.23 -201.74)">
                <path data-name="패스 3334" d="m-192.55 230.29-62.04-24.69v-.52l63.33 25.21z" style="fill:#f3ffc1"/>
            </g>
            <g data-name="그룹 2963" style="clip-path:url(#7hg4xgr6yd)" transform="translate(298.23 -201.74)">
                <path data-name="패스 3336" d="m-195.25 230.29-59.34-23.62v-1.07l62.04 24.69z" style="fill:#f3ffc1"/>
            </g>
            <g data-name="그룹 2964" style="clip-path:url(#7hg4xgr6yd)" transform="translate(298.23 -201.74)">
                <path data-name="패스 3338" d="m-197.95 230.29-56.64-22.54v-1.08l59.34 23.62z" style="fill:#f3fec2"/>
            </g>
            <g data-name="그룹 2965" style="clip-path:url(#7hg4xgr6yd)" transform="translate(298.23 -201.74)">
                <path data-name="패스 3340" d="m-200.65 230.29-53.94-21.47v-1.07l56.64 22.54z" style="fill:#f4fec3"/>
            </g>
            <g data-name="그룹 2966" style="clip-path:url(#7hg4xgr6yd)" transform="translate(298.23 -201.74)">
                <path data-name="패스 3342" d="m-203.35 230.29-51.24-20.39v-1.08l53.94 21.47z" style="fill:#f4fdc4"/>
            </g>
            <g data-name="그룹 2967" style="clip-path:url(#7hg4xgr6yd)" transform="translate(298.23 -201.74)">
                <path data-name="패스 3344" d="m-206.04 230.29-48.55-19.32v-1.07l51.24 20.39z" style="fill:#f5fcc5"/>
            </g>
            <g data-name="그룹 2968" style="clip-path:url(#7hg4xgr6yd)" transform="translate(298.23 -201.74)">
                <path data-name="패스 3346" d="m-208.74 230.29-45.85-18.25v-1.07l48.55 19.32z" style="fill:#f5fcc6"/>
            </g>
            <g data-name="그룹 2969" style="clip-path:url(#7hg4xgr6yd)" transform="translate(298.23 -201.74)">
                <path data-name="패스 3348" d="m-211.44 230.29-43.15-17.17v-1.08l45.85 18.25z" style="fill:#f5fbc7"/>
            </g>
            <g data-name="그룹 2970" style="clip-path:url(#7hg4xgr6yd)" transform="translate(298.23 -201.74)">
                <path data-name="패스 3350" d="m-214.14 230.29-40.45-16.1v-1.07l43.15 17.17z" style="fill:#f6fac8"/>
            </g>
            <g data-name="그룹 2971" style="clip-path:url(#7hg4xgr6yd)" transform="translate(298.23 -201.74)">
                <path data-name="패스 3352" d="m-216.84 230.29-37.75-15.02v-1.08l40.45 16.1z" style="fill:#f6fac9"/>
            </g>
            <g data-name="그룹 2972" style="clip-path:url(#7hg4xgr6yd)" transform="translate(298.23 -201.74)">
                <path data-name="패스 3354" d="m-219.54 230.29-35.05-13.95v-1.07l37.75 15.02z" style="fill:#f7f9ca"/>
            </g>
            <g data-name="그룹 2973" style="clip-path:url(#7hg4xgr6yd)" transform="translate(298.23 -201.74)">
                <path data-name="패스 3356" d="m-222.24 230.29-32.35-12.87v-1.08l35.05 13.95z" style="fill:#f7f9cc"/>
            </g>
            <g data-name="그룹 2974" style="clip-path:url(#7hg4xgr6yd)" transform="translate(298.23 -201.74)">
                <path data-name="패스 3358" d="m-224.94 230.29-29.65-11.8v-1.07l32.35 12.87z" style="fill:#f7f8cd"/>
            </g>
            <g data-name="그룹 2975" style="clip-path:url(#7hg4xgr6yd)" transform="translate(298.23 -201.74)">
                <path data-name="패스 3360" d="m-227.64 230.29-26.95-10.73v-1.07l29.65 11.8z" style="fill:#f8f7ce"/>
            </g>
            <g data-name="그룹 2976" style="clip-path:url(#7hg4xgr6yd)" transform="translate(298.23 -201.74)">
                <path data-name="패스 3362" d="m-230.34 230.29-24.25-9.65v-1.08l26.95 10.73z" style="fill:#f8f7cf"/>
            </g>
            <g data-name="그룹 2977" style="clip-path:url(#7hg4xgr6yd)" transform="translate(298.23 -201.74)">
                <path data-name="패스 3364" d="m-233.04 230.29-21.55-8.58v-1.07l24.25 9.65z" style="fill:#f9f6d0"/>
            </g>
            <g data-name="그룹 2978" style="clip-path:url(#7hg4xgr6yd)" transform="translate(298.23 -201.74)">
                <path data-name="패스 3366" d="m-235.74 230.29-18.85-7.5v-1.08l21.55 8.58z" style="fill:#f9f5d1"/>
            </g>
            <g data-name="그룹 2979" style="clip-path:url(#7hg4xgr6yd)" transform="translate(298.23 -201.74)">
                <path data-name="패스 3368" d="m-238.43 230.29-16.16-6.43v-1.07l18.85 7.5z" style="fill:#f9f5d2"/>
            </g>
            <g data-name="그룹 2980" style="clip-path:url(#7hg4xgr6yd)" transform="translate(298.23 -201.74)">
                <path data-name="패스 3370" d="m-241.13 230.29-13.46-5.35v-1.08l16.16 6.43z" style="fill:#faf4d3"/>
            </g>
            <g data-name="그룹 2981" style="clip-path:url(#7hg4xgr6yd)" transform="translate(298.23 -201.74)">
                <path data-name="패스 3372" d="m-243.83 230.29-10.76-4.28v-1.07l13.46 5.35z" style="fill:#faf3d4"/>
            </g>
            <g data-name="그룹 2982" style="clip-path:url(#7hg4xgr6yd)" transform="translate(298.23 -201.74)">
                <path data-name="패스 3374" d="m-246.53 230.29-8.06-3.2v-1.08l10.76 4.28z" style="fill:#fbf3d5"/>
            </g>
            <g data-name="그룹 2983" style="clip-path:url(#7hg4xgr6yd)" transform="translate(298.23 -201.74)">
                <path data-name="패스 3376" d="m-249.23 230.29-5.36-2.13v-1.07l8.06 3.2z" style="fill:#fbf2d6"/>
            </g>
            <g data-name="그룹 2984" style="clip-path:url(#7hg4xgr6yd)" transform="translate(298.23 -201.74)">
                <path data-name="패스 3378" d="m-254.59 228.16 5.36 2.13h-5.36z" style="fill:#fbf2d6"/>
            </g>
        </g>
        <path data-name="패스 3380" d="M-197.03 230.79h-48.13c-5.48 0-9.94-4.8-9.94-10.7v-5.6c0-5.9 4.46-10.7 9.94-10.7h48.13c5.48 0 9.94 4.8 9.94 10.7v5.6c0 5.9-4.46 10.7-9.94 10.7zm-48.12-26c-4.93 0-8.94 4.35-8.94 9.7v5.6c0 5.35 4.01 9.7 8.94 9.7h48.13c4.93 0 8.94-4.35 8.94-9.7v-5.6c0-5.35-4.01-9.7-8.94-9.7z" style="fill:#96d4cb" transform="translate(298.23 -201.74)"/>
        <g data-name="그룹 2986">
            <path data-name="패스 3381" d="M-244.92 216.85h11.35v1.37h-11.35zm10.33-3.6h-1.63v1.64h1.54v1.3h-9.17v-1.3h1.53v-1.64h-1.61v-1.3h9.34v1.3zm-9.02 5.67h8.65V222h-6.93v.68h7.26v1.29h-8.97v-3.16h6.92v-.63h-6.93zm5.65-4.03v-1.64h-2.6v1.64z" style="fill:#05354a" transform="translate(298.23 -201.74)"/>
            <path data-name="패스 3382" d="M-227.75 217.61h-3.05v2.23a23.584 23.584 0 0 0 3.58-.26l.12 1.39a25.923 25.923 0 0 1-4.51.31h-.86v-5.07h3.04v-2h-3.05v-1.41h4.73v4.81zm1.23-5.8h1.6v4.5h1.2v-4.7h1.65v12.44h-1.65v-6.33h-1.2v5.73h-1.6z" style="fill:#05354a" transform="translate(298.23 -201.74)"/>
            <path data-name="패스 3383" d="M-213.71 214.06h-4.61v2.05h4.09v1.37h-4.09v2.35a33.135 33.135 0 0 0 5.17-.36l.16 1.41a39.228 39.228 0 0 1-5.99.34h-1.07v-8.59h6.33v1.43zm1.68-2.45h1.76v12.44h-1.76z" style="fill:#05354a" transform="translate(298.23 -201.74)"/>
            <path data-name="패스 3384" d="M-207.92 212.27h1.72v4.51a25.58 25.58 0 0 0 4.83-.48l.18 1.46a27.946 27.946 0 0 1-5.69.49h-1.04zm9.78 11.64h-8.31v-4.68h8.31zm-1.7-1.39v-1.9h-4.88v1.9zm-3.12-8.82h3.09v-2.09h1.74v7.11h-1.74v-3.61h-3.09z" style="fill:#05354a" transform="translate(298.23 -201.74)"/>
        </g>
    </g>
</svg>
