<svg data-name="실버(모바일+웹)" xmlns="http://www.w3.org/2000/svg" width="111.14" height="31.1" viewBox="0 0 111.14 31.1">
    <defs>
        <clipPath id="i3ki2sjgka">
            <path data-name="사각형 1759" transform="translate(-165.23 36.42)" d="M0 0h33.14v27.2H0z"/>
        </clipPath>
        <clipPath id="o9p9rbw66b">
            <path data-name="패스 3823" d="m-160.14 37.07-.99 2a1.169 1.169 0 0 1-.88.64l-2.21.32a1.164 1.164 0 0 0-.99 1.32 1.179 1.179 0 0 0 .35.68l1.6 1.56a1.184 1.184 0 0 1 .34 1.04l-.38 2.2a1.169 1.169 0 0 0 .95 1.35 1.212 1.212 0 0 0 .75-.12l1.98-1.04a1.168 1.168 0 0 1 1.09 0l1.98 1.04a1.172 1.172 0 0 0 1.58-.49 1.212 1.212 0 0 0 .12-.75l-.38-2.2a1.157 1.157 0 0 1 .34-1.04l1.6-1.56a1.168 1.168 0 0 0 .03-1.65 1.179 1.179 0 0 0-.68-.35l-2.22-.32a1.147 1.147 0 0 1-.88-.64l-.99-2a1.17 1.17 0 0 0-1.57-.53 1.177 1.177 0 0 0-.54.54"/>
        </clipPath>
        <clipPath id="jqvu1masyc">
            <path data-name="패스 3826" d="M-91.15 98.02h48.13c5.21 0 9.44 4.57 9.44 10.2v5.6c0 5.63-4.22 10.2-9.44 10.2h-48.13c-5.21 0-9.44-4.57-9.44-10.2v-5.6c0-5.64 4.22-10.2 9.44-10.2"/>
        </clipPath>
    </defs>
    <g style="clip-path:url(#i3ki2sjgka)" transform="translate(165.23 -34.471)" data-name="그룹 3160">
        <path data-name="패스 3790" d="M-144.17 50.81a.611.611 0 0 1-.3-.08.541.541 0 0 1-.26-.46v-3.15a.539.539 0 0 1 .32-.49l10.5-4.83a.877.877 0 0 1 1.17.43.852.852 0 0 1 .08.35v.81a3.461 3.461 0 0 1-2.03 3.12l-9.26 4.26a.719.719 0 0 1-.22.04" style="fill:#fafcfc"/>
        <path data-name="패스 3791" d="M-133.53 42.26a.314.314 0 0 1 .32.31v.81a2.886 2.886 0 0 1-1.71 2.62l-9.26 4.26v-3.15l10.51-4.83a.364.364 0 0 1 .14-.02m.01-1.09a1.589 1.589 0 0 0-.61.13l-10.51 4.83a1.083 1.083 0 0 0-.64.98v3.15a1.083 1.083 0 0 0 .52.92 1.129 1.129 0 0 0 1.07.06l9.26-4.26a3.98 3.98 0 0 0 2.34-3.61v-.81a1.415 1.415 0 0 0-1.43-1.39" style="fill:#7e8c8e"/>
        <path data-name="패스 3792" d="M-144.17 48.59v1.67l9.26-4.26a2.914 2.914 0 0 0 1.71-2.62v-.05z" style="fill:#ced6d8"/>
        <path data-name="패스 3793" d="M-144.17 54.25a.611.611 0 0 1-.3-.08.541.541 0 0 1-.26-.46v-3.15a.539.539 0 0 1 .32-.49l10.5-4.83a.869.869 0 0 1 1.17.43.852.852 0 0 1 .08.35v.81a3.461 3.461 0 0 1-2.03 3.12l-9.26 4.26a.969.969 0 0 1-.22.04" style="fill:#fafcfc"/>
        <path data-name="패스 3794" d="M-133.53 45.69a.314.314 0 0 1 .32.31v.81a2.886 2.886 0 0 1-1.71 2.62l-9.26 4.26v-3.15l10.5-4.83a1.04 1.04 0 0 1 .15-.02m0-1.08a1.589 1.589 0 0 0-.61.13l-10.51 4.83a1.083 1.083 0 0 0-.64.98v3.15a1.1 1.1 0 0 0 .52.92 1.129 1.129 0 0 0 1.07.06l9.26-4.26a3.98 3.98 0 0 0 2.34-3.61v-.82a1.4 1.4 0 0 0-1.43-1.38" style="fill:#7e8c8e"/>
        <path data-name="패스 3795" d="M-144.17 52.03v1.67l9.26-4.26a2.914 2.914 0 0 0 1.71-2.62v-.05z" style="fill:#ced6d8"/>
        <path data-name="패스 3796" d="M-144.17 57.69a.611.611 0 0 1-.3-.08.541.541 0 0 1-.26-.46V54a.539.539 0 0 1 .32-.49l10.5-4.83a.877.877 0 0 1 1.17.43.852.852 0 0 1 .08.35v.81a3.461 3.461 0 0 1-2.03 3.12l-9.26 4.26a.719.719 0 0 1-.22.04" style="fill:#fafcfc"/>
        <path data-name="패스 3797" d="M-133.53 49.13a.314.314 0 0 1 .32.31v.82a2.886 2.886 0 0 1-1.71 2.62l-9.26 4.26v-3.15l10.51-4.83a.393.393 0 0 1 .14-.03m.01-1.08a1.589 1.589 0 0 0-.61.13l-10.51 4.83a1.083 1.083 0 0 0-.64.98v3.15a1.1 1.1 0 0 0 .52.92 1.129 1.129 0 0 0 1.07.06l9.26-4.26a3.98 3.98 0 0 0 2.34-3.61v-.81a1.415 1.415 0 0 0-1.43-1.39" style="fill:#7e8c8e"/>
        <path data-name="패스 3798" d="M-144.17 55.47v1.67l9.26-4.26a2.914 2.914 0 0 0 1.71-2.62v-.05z" style="fill:#ced6d8"/>
        <path data-name="패스 3799" d="M-153.15 50.81a.687.687 0 0 1-.24-.05l-9.26-4.26a3.458 3.458 0 0 1-2.02-3.12v-.81a.877.877 0 0 1 .88-.86 1 1 0 0 1 .38.08l10.5 4.83a.55.55 0 0 1 .32.49v3.15a.541.541 0 0 1-.26.46.579.579 0 0 1-.3.09" style="fill:#fafcfc"/>
        <path data-name="패스 3800" d="M-163.79 42.26a.353.353 0 0 1 .14.03l10.51 4.83v3.15l-9.26-4.26a2.9 2.9 0 0 1-1.7-2.62v-.81a.292.292 0 0 1 .31-.32m0-1.09a1.426 1.426 0 0 0-1.44 1.4v.81a4.008 4.008 0 0 0 2.34 3.61l9.26 4.26a1.156 1.156 0 0 0 1.07-.06 1.106 1.106 0 0 0 .52-.92v-3.15a1.073 1.073 0 0 0-.64-.98l-10.51-4.83a1.132 1.132 0 0 0-.6-.14" style="fill:#7e8c8e"/>
        <path data-name="패스 3801" d="M-153.15 48.59v1.67l-9.26-4.26a2.914 2.914 0 0 1-1.71-2.62v-.05z" style="fill:#ced6d8"/>
        <path data-name="패스 3802" d="M-153.15 54.25a.687.687 0 0 1-.24-.05l-9.26-4.26a3.424 3.424 0 0 1-2.02-3.12v-.81a.877.877 0 0 1 .88-.86.909.909 0 0 1 .37.08l10.51 4.83a.55.55 0 0 1 .32.49v3.15a.541.541 0 0 1-.26.46.553.553 0 0 1-.3.09" style="fill:#fafcfc"/>
        <path data-name="패스 3803" d="M-163.79 45.69a.353.353 0 0 1 .14.03l10.51 4.83v3.15l-9.26-4.26a2.9 2.9 0 0 1-1.7-2.62v-.81a.3.3 0 0 1 .31-.32m0-1.08a1.426 1.426 0 0 0-1.44 1.4v.81a4.008 4.008 0 0 0 2.34 3.61l9.26 4.26a1.1 1.1 0 0 0 1.07-.07 1.106 1.106 0 0 0 .52-.92v-3.15a1.073 1.073 0 0 0-.64-.98l-10.51-4.83a1.35 1.35 0 0 0-.6-.13" style="fill:#7e8c8e"/>
        <path data-name="패스 3804" d="M-153.15 52.03v1.67l-9.26-4.26a2.917 2.917 0 0 1-1.71-2.63v-.05z" style="fill:#ced6d8"/>
        <path data-name="패스 3805" d="M-153.15 57.69a.687.687 0 0 1-.24-.05l-9.26-4.26a3.443 3.443 0 0 1-2.02-3.11v-.81a.877.877 0 0 1 .88-.86 1 1 0 0 1 .38.08l10.5 4.83a.55.55 0 0 1 .32.49v3.15a.541.541 0 0 1-.26.46.674.674 0 0 1-.3.08" style="fill:#fafcfc"/>
        <path data-name="패스 3806" d="M-163.79 49.13a.353.353 0 0 1 .14.03l10.51 4.83v3.15l-9.26-4.26a2.9 2.9 0 0 1-1.7-2.62v-.81a.307.307 0 0 1 .31-.32m0-1.08a1.426 1.426 0 0 0-1.44 1.4v.81a4.008 4.008 0 0 0 2.34 3.61l9.26 4.26a1.128 1.128 0 0 0 1.07-.06 1.106 1.106 0 0 0 .52-.92V54a1.073 1.073 0 0 0-.64-.98l-10.51-4.83a1.132 1.132 0 0 0-.6-.14" style="fill:#7e8c8e"/>
        <path data-name="패스 3807" d="M-153.15 55.47v1.67l-9.26-4.26a2.914 2.914 0 0 1-1.71-2.62v-.05z" style="fill:#ced6d8"/>
        <path data-name="패스 3808" d="M-148.65 63.08a3.339 3.339 0 0 1-1.58-.4l-7.14-3.83a3.194 3.194 0 0 1-1.71-2.83l.06-12.08a3.2 3.2 0 0 1 1.74-2.82l7.2-3.77a3.327 3.327 0 0 1 3.14.02l7.14 3.83a3.217 3.217 0 0 1 1.71 2.83l-.06 12.08a3.2 3.2 0 0 1-1.74 2.82l-7.2 3.77a3.421 3.421 0 0 1-1.56.38m.11-23.43a.514.514 0 0 0-.25.06l-7.2 3.77a.516.516 0 0 0-.28.46l-.05 12.08a.527.527 0 0 0 .28.46l7.14 3.83a.594.594 0 0 0 .26.07.514.514 0 0 0 .25-.06l7.2-3.77a.516.516 0 0 0 .28-.46l.06-12.08a.527.527 0 0 0-.28-.46l-7.15-3.83a.594.594 0 0 0-.26-.07" style="fill:#ebf1f2"/>
        <path data-name="패스 3809" d="M-148.53 37.5a2.778 2.778 0 0 1 1.32.33l7.14 3.83a2.669 2.669 0 0 1 1.42 2.35l-.06 12.08a2.65 2.65 0 0 1-1.44 2.34l-7.2 3.77a2.8 2.8 0 0 1-2.61-.01l-7.14-3.83a2.669 2.669 0 0 1-1.42-2.35l.05-12.08a2.65 2.65 0 0 1 1.44-2.34l7.2-3.77a2.808 2.808 0 0 1 1.3-.32m-.11 23.43a.993.993 0 0 0 .51-.13l7.2-3.77a1.048 1.048 0 0 0 .57-.93l.05-12.08a1.063 1.063 0 0 0-.57-.94l-7.14-3.83a1.056 1.056 0 0 0-.52-.13 1.056 1.056 0 0 0-.52.13l-7.2 3.77a1.048 1.048 0 0 0-.57.93l-.06 12.08a1.063 1.063 0 0 0 .57.94l7.14 3.83a1.263 1.263 0 0 0 .54.13m.11-24.51a3.832 3.832 0 0 0-1.82.45l-7.19 3.77a3.743 3.743 0 0 0-2.03 3.3l-.06 12.07a3.752 3.752 0 0 0 1.99 3.31l7.14 3.83a3.937 3.937 0 0 0 3.67.02l7.2-3.77a3.743 3.743 0 0 0 2.03-3.3l.06-12.08a3.731 3.731 0 0 0-2-3.31l-7.14-3.83a3.99 3.99 0 0 0-1.85-.46m-.11 23.42-7.13-3.83.07-12.06 7.18-3.75 7.12 3.83-.07 12.06z" style="fill:#7e8c8e"/>
        <path data-name="패스 3810" d="M-156.88 56.02a1.063 1.063 0 0 0 .57.94l7.14 3.83a1.124 1.124 0 0 0 1.04.01l7.2-3.77a1.08 1.08 0 0 0 .58-.94l.06-12.08a1.063 1.063 0 0 0-.57-.94l-7.15-3.83a1.124 1.124 0 0 0-1.04 0l-7.2 3.77a1.052 1.052 0 0 0-.57.94z" style="fill:#fafcfc"/>
        <path data-name="패스 3811" d="M-156.25 43.01a1.08 1.08 0 0 0-.58.94l-.05 12.08a1.063 1.063 0 0 0 .57.94l7.14 3.83a1.514 1.514 0 0 0 .63.13V50.61z" style="fill:#a7b5b7"/>
        <path data-name="패스 3812" d="M-148.54 50.61v10.32a1.69 1.69 0 0 0 .63-.13l7.14-3.83a1.063 1.063 0 0 0 .57-.94l-.06-12.08a1.075 1.075 0 0 0-.57-.94z" style="fill:#ced6d8"/>
        <path data-name="패스 3813" d="M-148.54 39.11a1.254 1.254 0 0 1 .53.13l7.14 3.83a1.063 1.063 0 0 1 .57.94l-.06 12.07a1.085 1.085 0 0 1-.58.94l-7.2 3.77a1.124 1.124 0 0 1-1.04 0l-7.14-3.83a1.063 1.063 0 0 1-.57-.94l.06-12.08a1.058 1.058 0 0 1 .58-.93l7.2-3.77a1.019 1.019 0 0 1 .51-.13m0-.55a1.76 1.76 0 0 0-.78.19l-7.2 3.77a1.613 1.613 0 0 0-.87 1.41l-.05 12.08a1.61 1.61 0 0 0 .85 1.42l7.15 3.83a1.678 1.678 0 0 0 1.57.01l7.2-3.77a1.613 1.613 0 0 0 .87-1.41l.06-12.08a1.622 1.622 0 0 0-.85-1.42l-7.15-3.83a1.724 1.724 0 0 0-.8-.2" style="fill:#a7b5b7"/>
        <path data-name="패스 3814" d="m-147.52 43.93 1.02 2.01a1.2 1.2 0 0 0 .91.64l2.28.32a1.169 1.169 0 0 1 1.02 1.3 1.2 1.2 0 0 1-.35.71l-1.65 1.57a1.19 1.19 0 0 0-.35 1.04l.39 2.22a1.2 1.2 0 0 1-1.01 1.37 1.2 1.2 0 0 1-.74-.13l-2.04-1.04a1.229 1.229 0 0 0-1.12 0l-2.04 1.04a1.193 1.193 0 0 1-1.62-.5 1.273 1.273 0 0 1-.13-.74l.39-2.22a1.137 1.137 0 0 0-.35-1.04l-1.65-1.57a1.168 1.168 0 0 1-.04-1.65 1.147 1.147 0 0 1 .71-.35l2.28-.32a1.2 1.2 0 0 0 .91-.64l1.02-2.01a1.215 1.215 0 0 1 1.64-.52 1.116 1.116 0 0 1 .52.51" style="fill:#fafcfc"/>
    </g>
    <g style="clip-path:url(#o9p9rbw66b)" transform="translate(175.734 -27.752)" data-name="그룹 3161">
        <path data-name="패스 3815" d="M-159.15 35.41v6.61l-4.79-5.38s1.14-1.6 2.05-1.82a6.043 6.043 0 0 1 2.74.59" style="fill:#7e8c8e"/>
        <path data-name="패스 3816" d="m-163.89 37.37 4.68 4.68-7.19-.42a5.541 5.541 0 0 1 .16-2.74 6.116 6.116 0 0 1 2.35-1.52" style="fill:#ebf1f2"/>
        <path data-name="패스 3817" d="M-165.86 42.11h6.61l-5.38 4.79s-1.6-1.14-1.82-2.05a6.043 6.043 0 0 1 .59-2.74" style="fill:#7e8c8e"/>
        <path data-name="패스 3818" d="m-163.89 46.86 4.68-4.68-.42 7.19a5.541 5.541 0 0 1-2.74-.16 5.964 5.964 0 0 1-1.52-2.35" style="fill:#a7b5b7"/>
        <path data-name="패스 3819" d="M-159.15 48.82v-6.61l4.79 5.38s-1.14 1.6-2.05 1.82a6.015 6.015 0 0 1-2.74-.59" style="fill:#7e8c8e"/>
        <path data-name="패스 3820" d="m-154.41 46.86-4.68-4.68 7.19.42a5.541 5.541 0 0 1-.16 2.74 6.116 6.116 0 0 1-2.35 1.52" style="fill:#a7b5b7"/>
        <path data-name="패스 3821" d="M-152.44 42.12h-6.61l5.38-4.79s1.6 1.14 1.82 2.05a6.348 6.348 0 0 1-.59 2.74" style="fill:#ebf1f2"/>
        <path data-name="패스 3822" d="m-154.41 37.37-4.68 4.68.42-7.19a5.541 5.541 0 0 1 2.74.16 6.192 6.192 0 0 1 1.52 2.35" style="fill:#a7b5b7"/>
    </g>
    <g style="clip-path:url(#i3ki2sjgka)" transform="translate(165.23 -34.471)" data-name="그룹 3162">
        <path data-name="패스 3824" d="M-151.76 55.49a1.588 1.588 0 0 1-1.4-.84 1.564 1.564 0 0 1-.17-.97l.39-2.22a.789.789 0 0 0-.23-.7l-1.65-1.57a1.543 1.543 0 0 1-.48-1.08 1.515 1.515 0 0 1 .43-1.1 1.6 1.6 0 0 1 .93-.47l2.27-.32a.852.852 0 0 0 .63-.44l1.02-2.01a1.6 1.6 0 0 1 .94-.79 1.547 1.547 0 0 1 1.21.11 1.549 1.549 0 0 1 .67.67l1.02 2.02a.818.818 0 0 0 .62.44l2.28.32a1.5 1.5 0 0 1 1.02.58 1.551 1.551 0 0 1 .32 1.14 1.518 1.518 0 0 1-.47.93l-1.65 1.57a.781.781 0 0 0-.23.71l.39 2.21a1.575 1.575 0 0 1-1.32 1.8 1.552 1.552 0 0 1-.97-.17l-2.03-1.04a.89.89 0 0 0-.78 0l-2.04 1.04a1.4 1.4 0 0 1-.72.18zm3.16-2.07a1.576 1.576 0 0 1 .73.18l2.04 1.05a.833.833 0 0 0 .51.09.8.8 0 0 0 .54-.33.84.84 0 0 0 .15-.61l-.39-2.21a1.522 1.522 0 0 1 .46-1.38l1.65-1.57a.818.818 0 0 0 .24-.48.786.786 0 0 0-.16-.59.8.8 0 0 0-.53-.3l-2.28-.32a1.592 1.592 0 0 1-1.19-.85l-1.02-2.01a.79.79 0 0 0-.35-.35.841.841 0 0 0-.64-.06.831.831 0 0 0-.49.41l-1.01 2.01a1.575 1.575 0 0 1-1.19.85l-2.27.32a.816.816 0 0 0-.49.24.746.746 0 0 0-.22.57.767.767 0 0 0 .25.56l1.64 1.57a1.54 1.54 0 0 1 .46 1.38l-.39 2.22a.877.877 0 0 0 .09.5.823.823 0 0 0 1.12.34l2.04-1.05a1.377 1.377 0 0 1 .7-.18z" style="fill:#7e8c8e"/>
    </g>
    <g>
        <g data-name="그룹 3306">
            <g data-name="그룹 3163" style="clip-path:url(#jqvu1masyc)" transform="translate(144.23 -95.471)">
                <path data-name="패스 3825" d="m-33.59 98.4-.79-.38h.79z" style="fill:#f0f5f6"/>
            </g>
            <g data-name="그룹 3164" style="clip-path:url(#jqvu1masyc)" transform="translate(144.23 -95.471)">
                <path data-name="패스 3827" d="m-33.59 99.33-2.68-1.31h1.89l.79.38z" style="fill:#f1f6f6"/>
            </g>
            <g data-name="그룹 3165" style="clip-path:url(#jqvu1masyc)" transform="translate(144.23 -95.471)">
                <path data-name="패스 3829" d="m-33.59 100.26-4.58-2.24h1.9l2.68 1.31z" style="fill:#f3f7f7"/>
            </g>
            <g data-name="그룹 3166" style="clip-path:url(#jqvu1masyc)" transform="translate(144.23 -95.471)">
                <path data-name="패스 3831" d="m-33.59 101.19-6.47-3.17h1.89l4.58 2.24z" style="fill:#f4f7f8"/>
            </g>
            <g data-name="그룹 3167" style="clip-path:url(#jqvu1masyc)" transform="translate(144.23 -95.471)">
                <path data-name="패스 3833" d="m-33.59 102.12-8.37-4.1h1.9l6.47 3.17z" style="fill:#f5f8f8"/>
            </g>
            <g data-name="그룹 3168" style="clip-path:url(#jqvu1masyc)" transform="translate(144.23 -95.471)">
                <path data-name="패스 3835" d="m-33.59 103.05-10.27-5.03h1.9l8.37 4.1z" style="fill:#f6f9f9"/>
            </g>
            <g data-name="그룹 3169" style="clip-path:url(#jqvu1masyc)" transform="translate(144.23 -95.471)">
                <path data-name="패스 3837" d="m-33.59 103.98-12.16-5.96h1.89l10.27 5.03z" style="fill:#f7fafa"/>
            </g>
            <g data-name="그룹 3170" style="clip-path:url(#jqvu1masyc)" transform="translate(144.23 -95.471)">
                <path data-name="패스 3839" d="m-33.59 104.9-14.06-6.88h1.9l12.16 5.96z" style="fill:#f8fafb"/>
            </g>
            <g data-name="그룹 3171" style="clip-path:url(#jqvu1masyc)" transform="translate(144.23 -95.471)">
                <path data-name="패스 3841" d="m-33.59 105.83-15.95-7.81h1.89l14.06 6.88z" style="fill:#f9fbfb"/>
            </g>
            <g data-name="그룹 3172" style="clip-path:url(#jqvu1masyc)" transform="translate(144.23 -95.471)">
                <path data-name="패스 3843" d="m-33.59 106.76-17.85-8.74h1.9l15.95 7.81z" style="fill:#fafcfc"/>
            </g>
            <g data-name="그룹 3173" style="clip-path:url(#jqvu1masyc)" transform="translate(144.23 -95.471)">
                <path data-name="패스 3845" d="m-33.59 107.12-18.58-9.1h.73l17.85 8.74z" style="fill:#fafcfc"/>
            </g>
            <g data-name="그룹 3174" style="clip-path:url(#jqvu1masyc)" transform="translate(144.23 -95.471)">
                <path data-name="패스 3847" d="m-33.59 107.48-19.31-9.46h.73l18.58 9.1z" style="fill:#f9fbfb"/>
            </g>
            <g data-name="그룹 3175" style="clip-path:url(#jqvu1masyc)" transform="translate(144.23 -95.471)">
                <path data-name="패스 3849" d="m-33.59 107.84-20.04-9.82h.73l19.31 9.46z" style="fill:#f8fafa"/>
            </g>
            <g data-name="그룹 3176" style="clip-path:url(#jqvu1masyc)" transform="translate(144.23 -95.471)">
                <path data-name="패스 3851" d="m-33.59 108.19-20.77-10.17h.73l20.04 9.82z" style="fill:#f7f9f9"/>
            </g>
            <g data-name="그룹 3177" style="clip-path:url(#jqvu1masyc)" transform="translate(144.23 -95.471)">
                <path data-name="패스 3853" d="m-33.59 108.55-21.5-10.53h.73l20.77 10.17z" style="fill:#f6f8f9"/>
            </g>
            <g data-name="그룹 3178" style="clip-path:url(#jqvu1masyc)" transform="translate(144.23 -95.471)">
                <path data-name="패스 3855" d="m-33.59 108.91-22.23-10.89h.73l21.5 10.53z" style="fill:#f5f8f8"/>
            </g>
            <g data-name="그룹 3179" style="clip-path:url(#jqvu1masyc)" transform="translate(144.23 -95.471)">
                <path data-name="패스 3857" d="m-33.59 109.27-22.96-11.25h.73l22.23 10.89z" style="fill:#f4f7f7"/>
            </g>
            <g data-name="그룹 3180" style="clip-path:url(#jqvu1masyc)" transform="translate(144.23 -95.471)">
                <path data-name="패스 3859" d="m-33.59 109.63-23.69-11.61h.73l22.96 11.25z" style="fill:#f3f6f6"/>
            </g>
            <g data-name="그룹 3181" style="clip-path:url(#jqvu1masyc)" transform="translate(144.23 -95.471)">
                <path data-name="패스 3861" d="m-33.59 109.98-24.42-11.96h.73l23.69 11.61z" style="fill:#f2f5f5"/>
            </g>
            <g data-name="그룹 3182" style="clip-path:url(#jqvu1masyc)" transform="translate(144.23 -95.471)">
                <path data-name="패스 3863" d="m-33.59 110.34-25.15-12.32h.73l24.42 11.96z" style="fill:#f1f4f4"/>
            </g>
            <g data-name="그룹 3183" style="clip-path:url(#jqvu1masyc)" transform="translate(144.23 -95.471)">
                <path data-name="패스 3865" d="m-33.59 110.7-25.88-12.68h.73l25.15 12.32z" style="fill:#f0f3f4"/>
            </g>
            <g data-name="그룹 3184" style="clip-path:url(#jqvu1masyc)" transform="translate(144.23 -95.471)">
                <path data-name="패스 3867" d="M-33.59 111.06-60.2 98.02h.73l25.88 12.68z" style="fill:#eff2f3"/>
            </g>
            <g data-name="그룹 3185" style="clip-path:url(#jqvu1masyc)" transform="translate(144.23 -95.471)">
                <path data-name="패스 3869" d="m-33.59 111.42-27.34-13.4h.73l26.61 13.04z" style="fill:#eef1f2"/>
            </g>
            <g data-name="그룹 3186" style="clip-path:url(#jqvu1masyc)" transform="translate(144.23 -95.471)">
                <path data-name="패스 3871" d="m-33.59 111.77-28.08-13.75h.74l27.34 13.4z" style="fill:#edf1f1"/>
            </g>
            <g data-name="그룹 3187" style="clip-path:url(#jqvu1masyc)" transform="translate(144.23 -95.471)">
                <path data-name="패스 3873" d="M-33.59 112.13-62.4 98.02h.73l28.08 13.75z" style="fill:#ecf0f0"/>
            </g>
            <g data-name="그룹 3188" style="clip-path:url(#jqvu1masyc)" transform="translate(144.23 -95.471)">
                <path data-name="패스 3875" d="m-33.59 112.49-29.54-14.47h.73l28.81 14.11z" style="fill:#ebefef"/>
            </g>
            <g data-name="그룹 3189" style="clip-path:url(#jqvu1masyc)" transform="translate(144.23 -95.471)">
                <path data-name="패스 3877" d="m-33.59 112.85-30.27-14.83h.73l29.54 14.47z" style="fill:#eaeeef"/>
            </g>
            <g data-name="그룹 3190" style="clip-path:url(#jqvu1masyc)" transform="translate(144.23 -95.471)">
                <path data-name="패스 3879" d="m-33.59 113.21-31-15.19h.73l30.27 14.83z" style="fill:#e9edee"/>
            </g>
            <g data-name="그룹 3191" style="clip-path:url(#jqvu1masyc)" transform="translate(144.23 -95.471)">
                <path data-name="패스 3881" d="m-33.59 113.56-31.73-15.54h.73l31 15.19z" style="fill:#e8eced"/>
            </g>
            <g data-name="그룹 3192" style="clip-path:url(#jqvu1masyc)" transform="translate(144.23 -95.471)">
                <path data-name="패스 3883" d="m-33.59 113.92-32.46-15.9h.73l31.73 15.54z" style="fill:#e7ebec"/>
            </g>
            <g data-name="그룹 3193" style="clip-path:url(#jqvu1masyc)" transform="translate(144.23 -95.471)">
                <path data-name="패스 3885" d="m-33.59 114.28-33.19-16.26h.73l32.46 15.9z" style="fill:#e6eaeb"/>
            </g>
            <g data-name="그룹 3194" style="clip-path:url(#jqvu1masyc)" transform="translate(144.23 -95.471)">
                <path data-name="패스 3887" d="m-33.59 114.64-33.92-16.62h.73l33.19 16.26z" style="fill:#e5e9ea"/>
            </g>
            <g data-name="그룹 3195" style="clip-path:url(#jqvu1masyc)" transform="translate(144.23 -95.471)">
                <path data-name="패스 3889" d="m-33.59 115-34.65-16.98h.73l33.92 16.62z" style="fill:#e3e9ea"/>
            </g>
            <g data-name="그룹 3196" style="clip-path:url(#jqvu1masyc)" transform="translate(144.23 -95.471)">
                <path data-name="패스 3891" d="m-33.59 115.35-35.38-17.33h.73L-33.59 115z" style="fill:#e2e8e9"/>
            </g>
            <g data-name="그룹 3197" style="clip-path:url(#jqvu1masyc)" transform="translate(144.23 -95.471)">
                <path data-name="패스 3893" d="M-33.59 115.71-69.7 98.02h.73l35.38 17.33z" style="fill:#e1e7e8"/>
            </g>
            <g data-name="그룹 3198" style="clip-path:url(#jqvu1masyc)" transform="translate(144.23 -95.471)">
                <path data-name="패스 3895" d="m-33.59 116.07-36.84-18.05h.73l36.11 17.69z" style="fill:#e0e6e7"/>
            </g>
            <g data-name="그룹 3199" style="clip-path:url(#jqvu1masyc)" transform="translate(144.23 -95.471)">
                <path data-name="패스 3897" d="m-33.59 116.43-37.57-18.41h.73l36.84 18.05z" style="fill:#dfe5e6"/>
            </g>
            <g data-name="그룹 3200" style="clip-path:url(#jqvu1masyc)" transform="translate(144.23 -95.471)">
                <path data-name="패스 3899" d="m-33.59 116.79-38.3-18.77h.73l37.57 18.41z" style="fill:#dee4e5"/>
            </g>
            <g data-name="그룹 3201" style="clip-path:url(#jqvu1masyc)" transform="translate(144.23 -95.471)">
                <path data-name="패스 3901" d="m-33.59 117.14-39.03-19.12h.73l38.3 18.77z" style="fill:#dde3e5"/>
            </g>
            <g data-name="그룹 3202" style="clip-path:url(#jqvu1masyc)" transform="translate(144.23 -95.471)">
                <path data-name="패스 3903" d="m-33.59 117.5-39.76-19.48h.73l39.03 19.12z" style="fill:#dce2e4"/>
            </g>
            <g data-name="그룹 3203" style="clip-path:url(#jqvu1masyc)" transform="translate(144.23 -95.471)">
                <path data-name="패스 3905" d="m-33.59 117.86-40.49-19.84h.73l39.76 19.48z" style="fill:#dbe1e3"/>
            </g>
            <g data-name="그룹 3204" style="clip-path:url(#jqvu1masyc)" transform="translate(144.23 -95.471)">
                <path data-name="패스 3907" d="m-33.59 118.22-41.22-20.2h.73l40.49 19.84z" style="fill:#dae1e2"/>
            </g>
            <g data-name="그룹 3205" style="clip-path:url(#jqvu1masyc)" transform="translate(144.23 -95.471)">
                <path data-name="패스 3909" d="m-33.59 118.58-41.95-20.56h.73l41.22 20.2z" style="fill:#d9e0e1"/>
            </g>
            <g data-name="그룹 3206" style="clip-path:url(#jqvu1masyc)" transform="translate(144.23 -95.471)">
                <path data-name="패스 3911" d="m-33.59 118.93-42.69-20.91h.74l41.95 20.56z" style="fill:#d8dfe0"/>
            </g>
            <g data-name="그룹 3207" style="clip-path:url(#jqvu1masyc)" transform="translate(144.23 -95.471)">
                <path data-name="패스 3913" d="m-33.59 119.29-43.42-21.27h.73l42.69 20.91z" style="fill:#d7dee0"/>
            </g>
            <g data-name="그룹 3208" style="clip-path:url(#jqvu1masyc)" transform="translate(144.23 -95.471)">
                <path data-name="패스 3915" d="m-33.59 119.65-44.15-21.63h.73l43.42 21.27z" style="fill:#d6dddf"/>
            </g>
            <g data-name="그룹 3209" style="clip-path:url(#jqvu1masyc)" transform="translate(144.23 -95.471)">
                <path data-name="패스 3917" d="m-33.59 120.01-44.88-21.99h.73l44.15 21.63z" style="fill:#d5dcde"/>
            </g>
            <g data-name="그룹 3210" style="clip-path:url(#jqvu1masyc)" transform="translate(144.23 -95.471)">
                <path data-name="패스 3919" d="M-33.59 120.37-79.2 98.02h.73l44.88 21.99z" style="fill:#d4dbdd"/>
            </g>
            <g data-name="그룹 3211" style="clip-path:url(#jqvu1masyc)" transform="translate(144.23 -95.471)">
                <path data-name="패스 3921" d="m-33.59 120.72-46.34-22.7h.73l45.61 22.35z" style="fill:#d3dadc"/>
            </g>
            <g data-name="그룹 3212" style="clip-path:url(#jqvu1masyc)" transform="translate(144.23 -95.471)">
                <path data-name="패스 3923" d="m-33.59 121.08-47.07-23.06h.73l46.34 22.7z" style="fill:#d2dadb"/>
            </g>
            <g data-name="그룹 3213" style="clip-path:url(#jqvu1masyc)" transform="translate(144.23 -95.471)">
                <path data-name="패스 3925" d="m-33.59 121.44-47.8-23.42h.73l47.07 23.06z" style="fill:#d1d9db"/>
            </g>
            <g data-name="그룹 3214" style="clip-path:url(#jqvu1masyc)" transform="translate(144.23 -95.471)">
                <path data-name="패스 3927" d="m-33.59 121.8-48.53-23.78h.73l47.8 23.42z" style="fill:#d0d8da"/>
            </g>
            <g data-name="그룹 3215" style="clip-path:url(#jqvu1masyc)" transform="translate(144.23 -95.471)">
                <path data-name="패스 3929" d="m-33.59 122.16-49.26-24.14h.73l48.53 23.78z" style="fill:#cfd7d9"/>
            </g>
            <g data-name="그룹 3216" style="clip-path:url(#jqvu1masyc)" transform="translate(144.23 -95.471)">
                <path data-name="패스 3931" d="m-33.59 122.51-49.99-24.49h.73l49.26 24.14z" style="fill:#ced6d8"/>
            </g>
            <g data-name="그룹 3217" style="clip-path:url(#jqvu1masyc)" transform="translate(144.23 -95.471)">
                <path data-name="패스 3933" d="m-33.59 122.91-50.8-24.89h.81l49.99 24.49z" style="fill:#ced6d8"/>
            </g>
            <g data-name="그룹 3218" style="clip-path:url(#jqvu1masyc)" transform="translate(144.23 -95.471)">
                <path data-name="패스 3935" d="M-33.59 123.31-85.2 98.02h.81l50.8 24.89z" style="fill:#cfd7d9"/>
            </g>
            <g data-name="그룹 3219" style="clip-path:url(#jqvu1masyc)" transform="translate(144.23 -95.471)">
                <path data-name="패스 3937" d="m-33.59 123.7-52.42-25.68h.81l51.61 25.29z" style="fill:#d0d8da"/>
            </g>
            <g data-name="그룹 3220" style="clip-path:url(#jqvu1masyc)" transform="translate(144.23 -95.471)">
                <path data-name="패스 3939" d="m-33.76 124.02-53.06-26h.81l52.42 25.68v.32z" style="fill:#d1d9db"/>
            </g>
            <g data-name="그룹 3221" style="clip-path:url(#jqvu1masyc)" transform="translate(144.23 -95.471)">
                <path data-name="패스 3941" d="m-34.57 124.02-53.06-26h.81l53.06 26z" style="fill:#d2dadb"/>
            </g>
            <g data-name="그룹 3222" style="clip-path:url(#jqvu1masyc)" transform="translate(144.23 -95.471)">
                <path data-name="패스 3943" d="m-35.38 124.02-53.06-26h.81l53.06 26z" style="fill:#d3dadc"/>
            </g>
            <g data-name="그룹 3223" style="clip-path:url(#jqvu1masyc)" transform="translate(144.23 -95.471)">
                <path data-name="패스 3945" d="m-36.19 124.02-53.05-26h.8l53.06 26z" style="fill:#d4dbdd"/>
            </g>
            <g data-name="그룹 3224" style="clip-path:url(#jqvu1masyc)" transform="translate(144.23 -95.471)">
                <path data-name="패스 3947" d="m-37 124.02-53.05-26h.81l53.05 26z" style="fill:#d5dcde"/>
            </g>
            <g data-name="그룹 3225" style="clip-path:url(#jqvu1masyc)" transform="translate(144.23 -95.471)">
                <path data-name="패스 3949" d="m-37.81 124.02-53.05-26h.81l53.05 26z" style="fill:#d6dddf"/>
            </g>
            <g data-name="그룹 3226" style="clip-path:url(#jqvu1masyc)" transform="translate(144.23 -95.471)">
                <path data-name="패스 3951" d="m-38.62 124.02-53.05-26h.81l53.05 26z" style="fill:#d7dee0"/>
            </g>
            <g data-name="그룹 3227" style="clip-path:url(#jqvu1masyc)" transform="translate(144.23 -95.471)">
                <path data-name="패스 3953" d="m-39.42 124.02-53.06-26h.81l53.05 26z" style="fill:#d8dfe0"/>
            </g>
            <g data-name="그룹 3228" style="clip-path:url(#jqvu1masyc)" transform="translate(144.23 -95.471)">
                <path data-name="패스 3955" d="m-40.23 124.02-53.06-26h.81l53.06 26z" style="fill:#d9e0e1"/>
            </g>
            <g data-name="그룹 3229" style="clip-path:url(#jqvu1masyc)" transform="translate(144.23 -95.471)">
                <path data-name="패스 3957" d="m-41.04 124.02-53.06-26h.81l53.06 26z" style="fill:#dae1e2"/>
            </g>
            <g data-name="그룹 3230" style="clip-path:url(#jqvu1masyc)" transform="translate(144.23 -95.471)">
                <path data-name="패스 3959" d="m-41.85 124.02-53.06-26h.81l53.06 26z" style="fill:#dbe1e3"/>
            </g>
            <g data-name="그룹 3231" style="clip-path:url(#jqvu1masyc)" transform="translate(144.23 -95.471)">
                <path data-name="패스 3961" d="m-42.66 124.02-53.06-26h.81l53.06 26z" style="fill:#dce2e4"/>
            </g>
            <g data-name="그룹 3232" style="clip-path:url(#jqvu1masyc)" transform="translate(144.23 -95.471)">
                <path data-name="패스 3963" d="m-43.47 124.02-53.06-26h.81l53.06 26z" style="fill:#dde3e5"/>
            </g>
            <g data-name="그룹 3233" style="clip-path:url(#jqvu1masyc)" transform="translate(144.23 -95.471)">
                <path data-name="패스 3965" d="m-44.28 124.02-53.06-26h.81l53.06 26z" style="fill:#dee4e5"/>
            </g>
            <g data-name="그룹 3234" style="clip-path:url(#jqvu1masyc)" transform="translate(144.23 -95.471)">
                <path data-name="패스 3967" d="m-45.09 124.02-53.06-26h.81l53.06 26z" style="fill:#dfe5e6"/>
            </g>
            <g data-name="그룹 3235" style="clip-path:url(#jqvu1masyc)" transform="translate(144.23 -95.471)">
                <path data-name="패스 3969" d="m-45.9 124.02-53.05-26h.8l53.06 26z" style="fill:#e0e6e7"/>
            </g>
            <g data-name="그룹 3236" style="clip-path:url(#jqvu1masyc)" transform="translate(144.23 -95.471)">
                <path data-name="패스 3971" d="m-46.71 124.02-53.05-26h.81l53.05 26z" style="fill:#e1e7e8"/>
            </g>
            <g data-name="그룹 3237" style="clip-path:url(#jqvu1masyc)" transform="translate(144.23 -95.471)">
                <path data-name="패스 3973" d="m-47.52 124.02-53.05-26h.81l53.05 26z" style="fill:#e2e8e9"/>
            </g>
            <g data-name="그룹 3238" style="clip-path:url(#jqvu1masyc)" transform="translate(144.23 -95.471)">
                <path data-name="패스 3975" d="m-48.33 124.02-52.26-25.62v-.38h.02l53.05 26z" style="fill:#e3e9ea"/>
            </g>
            <g data-name="그룹 3239" style="clip-path:url(#jqvu1masyc)" transform="translate(144.23 -95.471)">
                <path data-name="패스 3977" d="m-49.13 124.02-51.46-25.22v-.4l52.26 25.62z" style="fill:#e5e9ea"/>
            </g>
            <g data-name="그룹 3240" style="clip-path:url(#jqvu1masyc)" transform="translate(144.23 -95.471)">
                <path data-name="패스 3979" d="m-49.94 124.02-50.65-24.82v-.4l51.46 25.22z" style="fill:#e6eaeb"/>
            </g>
            <g data-name="그룹 3241" style="clip-path:url(#jqvu1masyc)" transform="translate(144.23 -95.471)">
                <path data-name="패스 3981" d="m-50.75 124.02-49.84-24.43v-.39l50.65 24.82z" style="fill:#e7ebec"/>
            </g>
            <g data-name="그룹 3242" style="clip-path:url(#jqvu1masyc)" transform="translate(144.23 -95.471)">
                <path data-name="패스 3983" d="m-51.56 124.02-49.03-24.03v-.4l49.84 24.43z" style="fill:#e8eced"/>
            </g>
            <g data-name="그룹 3243" style="clip-path:url(#jqvu1masyc)" transform="translate(144.23 -95.471)">
                <path data-name="패스 3985" d="m-52.37 124.02-48.22-23.63v-.4l49.03 24.03z" style="fill:#e9edee"/>
            </g>
            <g data-name="그룹 3244" style="clip-path:url(#jqvu1masyc)" transform="translate(144.23 -95.471)">
                <path data-name="패스 3987" d="m-53.18 124.02-47.41-23.24v-.39l48.22 23.63z" style="fill:#eaeeef"/>
            </g>
            <g data-name="그룹 3245" style="clip-path:url(#jqvu1masyc)" transform="translate(144.23 -95.471)">
                <path data-name="패스 3989" d="m-53.99 124.02-46.6-22.84v-.4l47.41 23.24z" style="fill:#ebefef"/>
            </g>
            <g data-name="그룹 3246" style="clip-path:url(#jqvu1masyc)" transform="translate(144.23 -95.471)">
                <path data-name="패스 3991" d="m-54.8 124.02-45.79-22.44v-.4l46.6 22.84z" style="fill:#ecf0f0"/>
            </g>
            <g data-name="그룹 3247" style="clip-path:url(#jqvu1masyc)" transform="translate(144.23 -95.471)">
                <path data-name="패스 3993" d="m-55.61 124.02-44.98-22.05v-.39l45.79 22.44z" style="fill:#edf1f1"/>
            </g>
            <g data-name="그룹 3248" style="clip-path:url(#jqvu1masyc)" transform="translate(144.23 -95.471)">
                <path data-name="패스 3995" d="m-56.42 124.02-44.17-21.65v-.4l44.98 22.05z" style="fill:#eef1f2"/>
            </g>
            <g data-name="그룹 3249" style="clip-path:url(#jqvu1masyc)" transform="translate(144.23 -95.471)">
                <path data-name="패스 3997" d="m-57.23 124.02-43.36-21.25v-.4l44.17 21.65z" style="fill:#eff2f3"/>
            </g>
            <g data-name="그룹 3250" style="clip-path:url(#jqvu1masyc)" transform="translate(144.23 -95.471)">
                <path data-name="패스 3999" d="m-58.04 124.02-42.55-20.86v-.39l43.36 21.25z" style="fill:#f0f3f4"/>
            </g>
            <g data-name="그룹 3251" style="clip-path:url(#jqvu1masyc)" transform="translate(144.23 -95.471)">
                <path data-name="패스 4001" d="m-58.84 124.02-41.75-20.46v-.4l42.55 20.86z" style="fill:#f1f4f4"/>
            </g>
            <g data-name="그룹 3252" style="clip-path:url(#jqvu1masyc)" transform="translate(144.23 -95.471)">
                <path data-name="패스 4003" d="m-59.65 124.02-40.94-20.06v-.4l41.75 20.46z" style="fill:#f2f5f5"/>
            </g>
            <g data-name="그룹 3253" style="clip-path:url(#jqvu1masyc)" transform="translate(144.23 -95.471)">
                <path data-name="패스 4005" d="m-60.46 124.02-40.13-19.67v-.39l40.94 20.06z" style="fill:#f3f6f6"/>
            </g>
            <g data-name="그룹 3254" style="clip-path:url(#jqvu1masyc)" transform="translate(144.23 -95.471)">
                <path data-name="패스 4007" d="m-61.27 124.02-39.32-19.27v-.4l40.13 19.67z" style="fill:#f4f7f7"/>
            </g>
            <g data-name="그룹 3255" style="clip-path:url(#jqvu1masyc)" transform="translate(144.23 -95.471)">
                <path data-name="패스 4009" d="m-62.08 124.02-38.51-18.87v-.4l39.32 19.27z" style="fill:#f5f8f8"/>
            </g>
            <g data-name="그룹 3256" style="clip-path:url(#jqvu1masyc)" transform="translate(144.23 -95.471)">
                <path data-name="패스 4011" d="m-62.89 124.02-37.7-18.48v-.39l38.51 18.87z" style="fill:#f6f8f9"/>
            </g>
            <g data-name="그룹 3257" style="clip-path:url(#jqvu1masyc)" transform="translate(144.23 -95.471)">
                <path data-name="패스 4013" d="m-63.7 124.02-36.89-18.08v-.4l37.7 18.48z" style="fill:#f7f9f9"/>
            </g>
            <g data-name="그룹 3258" style="clip-path:url(#jqvu1masyc)" transform="translate(144.23 -95.471)">
                <path data-name="패스 4015" d="m-64.51 124.02-36.08-17.69v-.39l36.89 18.08z" style="fill:#f8fafa"/>
            </g>
            <g data-name="그룹 3259" style="clip-path:url(#jqvu1masyc)" transform="translate(144.23 -95.471)">
                <path data-name="패스 4017" d="m-65.32 124.02-35.27-17.29v-.4l36.08 17.69z" style="fill:#f9fbfb"/>
            </g>
            <g data-name="그룹 3260" style="clip-path:url(#jqvu1masyc)" transform="translate(144.23 -95.471)">
                <path data-name="패스 4019" d="m-66.13 124.02-34.46-16.89v-.4l35.27 17.29z" style="fill:#fafcfc"/>
            </g>
            <g data-name="그룹 3261" style="clip-path:url(#jqvu1masyc)" transform="translate(144.23 -95.471)">
                <path data-name="패스 4021" d="m-66.75 124.02-33.84-16.59v-.3l34.46 16.89z" style="fill:#fafcfc"/>
            </g>
            <g data-name="그룹 3262" style="clip-path:url(#jqvu1masyc)" transform="translate(144.23 -95.471)">
                <path data-name="패스 4023" d="m-67.37 124.02-33.22-16.28v-.31l33.84 16.59z" style="fill:#f9fbfb"/>
            </g>
            <g data-name="그룹 3263" style="clip-path:url(#jqvu1masyc)" transform="translate(144.23 -95.471)">
                <path data-name="패스 4025" d="m-68 124.02-32.59-15.98v-.3l33.22 16.28z" style="fill:#f8fafa"/>
            </g>
            <g data-name="그룹 3264" style="clip-path:url(#jqvu1masyc)" transform="translate(144.23 -95.471)">
                <path data-name="패스 4027" d="m-68.62 124.02-31.97-15.67v-.31L-68 124.02z" style="fill:#f7f9f9"/>
            </g>
            <g data-name="그룹 3265" style="clip-path:url(#jqvu1masyc)" transform="translate(144.23 -95.471)">
                <path data-name="패스 4029" d="m-69.25 124.02-31.34-15.36v-.31l31.97 15.67z" style="fill:#f6f8f9"/>
            </g>
            <g data-name="그룹 3266" style="clip-path:url(#jqvu1masyc)" transform="translate(144.23 -95.471)">
                <path data-name="패스 4031" d="m-69.87 124.02-30.72-15.06v-.3l31.34 15.36z" style="fill:#f5f8f8"/>
            </g>
            <g data-name="그룹 3267" style="clip-path:url(#jqvu1masyc)" transform="translate(144.23 -95.471)">
                <path data-name="패스 4033" d="m-70.49 124.02-30.1-14.75v-.31l30.72 15.06z" style="fill:#f4f7f7"/>
            </g>
            <g data-name="그룹 3268" style="clip-path:url(#jqvu1masyc)" transform="translate(144.23 -95.471)">
                <path data-name="패스 4035" d="m-71.12 124.02-29.47-14.45v-.3l30.1 14.75z" style="fill:#f3f6f6"/>
            </g>
            <g data-name="그룹 3269" style="clip-path:url(#jqvu1masyc)" transform="translate(144.23 -95.471)">
                <path data-name="패스 4037" d="m-71.74 124.02-28.85-14.14v-.31l29.47 14.45z" style="fill:#f2f5f5"/>
            </g>
            <g data-name="그룹 3270" style="clip-path:url(#jqvu1masyc)" transform="translate(144.23 -95.471)">
                <path data-name="패스 4039" d="m-72.36 124.02-28.23-13.84v-.3l28.85 14.14z" style="fill:#f1f4f4"/>
            </g>
            <g data-name="그룹 3271" style="clip-path:url(#jqvu1masyc)" transform="translate(144.23 -95.471)">
                <path data-name="패스 4041" d="m-72.99 124.02-27.6-13.53v-.31l28.23 13.84z" style="fill:#f0f3f4"/>
            </g>
            <g data-name="그룹 3272" style="clip-path:url(#jqvu1masyc)" transform="translate(144.23 -95.471)">
                <path data-name="패스 4043" d="m-73.61 124.02-26.98-13.22v-.31l27.6 13.53z" style="fill:#eff2f3"/>
            </g>
            <g data-name="그룹 3273" style="clip-path:url(#jqvu1masyc)" transform="translate(144.23 -95.471)">
                <path data-name="패스 4045" d="m-74.24 124.02-26.35-12.92v-.3l26.98 13.22z" style="fill:#eef1f2"/>
            </g>
            <g data-name="그룹 3274" style="clip-path:url(#jqvu1masyc)" transform="translate(144.23 -95.471)">
                <path data-name="패스 4047" d="m-74.86 124.02-25.73-12.61v-.31l26.35 12.92z" style="fill:#edf1f1"/>
            </g>
            <g data-name="그룹 3275" style="clip-path:url(#jqvu1masyc)" transform="translate(144.23 -95.471)">
                <path data-name="패스 4049" d="m-75.48 124.02-25.11-12.31v-.3l25.73 12.61z" style="fill:#ecf0f0"/>
            </g>
            <g data-name="그룹 3276" style="clip-path:url(#jqvu1masyc)" transform="translate(144.23 -95.471)">
                <path data-name="패스 4051" d="m-76.11 124.02-24.48-12v-.31l25.11 12.31z" style="fill:#ebefef"/>
            </g>
            <g data-name="그룹 3277" style="clip-path:url(#jqvu1masyc)" transform="translate(144.23 -95.471)">
                <path data-name="패스 4053" d="m-76.73 124.02-23.86-11.7v-.3l24.48 12z" style="fill:#eaeeef"/>
            </g>
            <g data-name="그룹 3278" style="clip-path:url(#jqvu1masyc)" transform="translate(144.23 -95.471)">
                <path data-name="패스 4055" d="m-77.35 124.02-23.24-11.39v-.31l23.86 11.7z" style="fill:#e9edee"/>
            </g>
            <g data-name="그룹 3279" style="clip-path:url(#jqvu1masyc)" transform="translate(144.23 -95.471)">
                <path data-name="패스 4057" d="m-77.98 124.02-22.61-11.08v-.31l23.24 11.39z" style="fill:#e8eced"/>
            </g>
            <g data-name="그룹 3280" style="clip-path:url(#jqvu1masyc)" transform="translate(144.23 -95.471)">
                <path data-name="패스 4059" d="m-78.6 124.02-21.99-10.78v-.3l22.61 11.08z" style="fill:#e7ebec"/>
            </g>
            <g data-name="그룹 3281" style="clip-path:url(#jqvu1masyc)" transform="translate(144.23 -95.471)">
                <path data-name="패스 4061" d="m-79.23 124.02-21.36-10.47v-.31l21.99 10.78z" style="fill:#e6eaeb"/>
            </g>
            <g data-name="그룹 3282" style="clip-path:url(#jqvu1masyc)" transform="translate(144.23 -95.471)">
                <path data-name="패스 4063" d="m-79.85 124.02-20.74-10.17v-.3l21.36 10.47z" style="fill:#e5e9ea"/>
            </g>
            <g data-name="그룹 3283" style="clip-path:url(#jqvu1masyc)" transform="translate(144.23 -95.471)">
                <path data-name="패스 4065" d="m-80.47 124.02-20.12-9.86v-.31l20.74 10.17z" style="fill:#e3e9ea"/>
            </g>
            <g data-name="그룹 3284" style="clip-path:url(#jqvu1masyc)" transform="translate(144.23 -95.471)">
                <path data-name="패스 4067" d="m-81.1 124.02-19.49-9.56v-.3l20.12 9.86z" style="fill:#e2e8e9"/>
            </g>
            <g data-name="그룹 3285" style="clip-path:url(#jqvu1masyc)" transform="translate(144.23 -95.471)">
                <path data-name="패스 4069" d="m-81.72 124.02-18.87-9.25v-.31l19.49 9.56z" style="fill:#e1e7e8"/>
            </g>
            <g data-name="그룹 3286" style="clip-path:url(#jqvu1masyc)" transform="translate(144.23 -95.471)">
                <path data-name="패스 4071" d="m-82.34 124.02-18.25-8.94v-.31l18.87 9.25z" style="fill:#e0e6e7"/>
            </g>
            <g data-name="그룹 3287" style="clip-path:url(#jqvu1masyc)" transform="translate(144.23 -95.471)">
                <path data-name="패스 4073" d="m-82.97 124.02-17.62-8.64v-.3l18.25 8.94z" style="fill:#dfe5e6"/>
            </g>
            <g data-name="그룹 3288" style="clip-path:url(#jqvu1masyc)" transform="translate(144.23 -95.471)">
                <path data-name="패스 4075" d="m-83.59 124.02-17-8.33v-.31l17.62 8.64z" style="fill:#dee4e5"/>
            </g>
            <g data-name="그룹 3289" style="clip-path:url(#jqvu1masyc)" transform="translate(144.23 -95.471)">
                <path data-name="패스 4077" d="m-84.22 124.02-16.37-8.03v-.3l17 8.33z" style="fill:#dde3e5"/>
            </g>
            <g data-name="그룹 3290" style="clip-path:url(#jqvu1masyc)" transform="translate(144.23 -95.471)">
                <path data-name="패스 4079" d="m-84.84 124.02-15.75-7.72v-.31l16.37 8.03z" style="fill:#dce2e4"/>
            </g>
            <g data-name="그룹 3291" style="clip-path:url(#jqvu1masyc)" transform="translate(144.23 -95.471)">
                <path data-name="패스 4081" d="m-85.46 124.02-15.13-7.42v-.3l15.75 7.72z" style="fill:#dbe1e3"/>
            </g>
            <g data-name="그룹 3292" style="clip-path:url(#jqvu1masyc)" transform="translate(144.23 -95.471)">
                <path data-name="패스 4083" d="m-86.09 124.02-14.5-7.11v-.31l15.13 7.42z" style="fill:#dae1e2"/>
            </g>
            <g data-name="그룹 3293" style="clip-path:url(#jqvu1masyc)" transform="translate(144.23 -95.471)">
                <path data-name="패스 4085" d="m-86.71 124.02-13.88-6.81v-.3l14.5 7.11z" style="fill:#d9e0e1"/>
            </g>
            <g data-name="그룹 3294" style="clip-path:url(#jqvu1masyc)" transform="translate(144.23 -95.471)">
                <path data-name="패스 4087" d="m-87.33 124.02-13.26-6.5v-.31l13.88 6.81z" style="fill:#d8dfe0"/>
            </g>
            <g data-name="그룹 3295" style="clip-path:url(#jqvu1masyc)" transform="translate(144.23 -95.471)">
                <path data-name="패스 4089" d="m-87.96 124.02-12.63-6.19v-.31l13.26 6.5z" style="fill:#d7dee0"/>
            </g>
            <g data-name="그룹 3296" style="clip-path:url(#jqvu1masyc)" transform="translate(144.23 -95.471)">
                <path data-name="패스 4091" d="m-88.58 124.02-12.01-5.89v-.3l12.63 6.19z" style="fill:#d6dddf"/>
            </g>
            <g data-name="그룹 3297" style="clip-path:url(#jqvu1masyc)" transform="translate(144.23 -95.471)">
                <path data-name="패스 4093" d="m-89.21 124.02-11.38-5.58v-.31l12.01 5.89z" style="fill:#d5dcde"/>
            </g>
            <g data-name="그룹 3298" style="clip-path:url(#jqvu1masyc)" transform="translate(144.23 -95.471)">
                <path data-name="패스 4095" d="m-89.83 124.02-10.76-5.28v-.3l11.38 5.58z" style="fill:#d4dbdd"/>
            </g>
            <g data-name="그룹 3299" style="clip-path:url(#jqvu1masyc)" transform="translate(144.23 -95.471)">
                <path data-name="패스 4097" d="m-90.45 124.02-10.14-4.97v-.31l10.76 5.28z" style="fill:#d3dadc"/>
            </g>
            <g data-name="그룹 3300" style="clip-path:url(#jqvu1masyc)" transform="translate(144.23 -95.471)">
                <path data-name="패스 4099" d="m-91.08 124.02-9.51-4.67v-.3l10.14 4.97z" style="fill:#d2dadb"/>
            </g>
            <g data-name="그룹 3301" style="clip-path:url(#jqvu1masyc)" transform="translate(144.23 -95.471)">
                <path data-name="패스 4101" d="m-91.7 124.02-8.89-4.36v-.31l9.51 4.67z" style="fill:#d1d9db"/>
            </g>
            <g data-name="그룹 3302" style="clip-path:url(#jqvu1masyc)" transform="translate(144.23 -95.471)">
                <path data-name="패스 4103" d="m-92.32 124.02-8.27-4.05v-.31l8.89 4.36z" style="fill:#d0d8da"/>
            </g>
            <g data-name="그룹 3303" style="clip-path:url(#jqvu1masyc)" transform="translate(144.23 -95.471)">
                <path data-name="패스 4105" d="m-92.95 124.02-7.64-3.75v-.3l8.27 4.05z" style="fill:#cfd7d9"/>
            </g>
            <g data-name="그룹 3304" style="clip-path:url(#jqvu1masyc)" transform="translate(144.23 -95.471)">
                <path data-name="패스 4107" d="m-93.57 124.02-7.02-3.44v-.31l7.64 3.75z" style="fill:#ced6d8"/>
            </g>
            <g data-name="그룹 3305" style="clip-path:url(#jqvu1masyc)" transform="translate(144.23 -95.471)">
                <path data-name="패스 4109" d="m-100.59 120.58 7.02 3.44h-7.02z" style="fill:#ced6d8"/>
            </g>
        </g>
        <path data-name="패스 4111" d="M-43.03 124.52h-48.13c-5.48 0-9.94-4.8-9.94-10.7v-5.6c0-5.9 4.46-10.7 9.94-10.7h48.13c5.48 0 9.94 4.8 9.94 10.7v5.6c0 5.9-4.46 10.7-9.94 10.7zm-48.12-26c-4.93 0-8.94 4.35-8.94 9.7v5.6c0 5.35 4.01 9.7 8.94 9.7h48.13c4.93 0 8.94-4.35 8.94-9.7v-5.6c0-5.35-4.01-9.7-8.94-9.7z" style="fill:#7e8c8e" transform="translate(144.23 -95.471)"/>
        <g data-name="그룹 3307">
            <path data-name="패스 4112" d="M-75.37 107.06v-.96h1.82v.96a3.632 3.632 0 0 0 2.93 3.54l-.85 1.34a4.681 4.681 0 0 1-2.98-2.39 4.761 4.761 0 0 1-3.06 2.6l-.86-1.37a3.849 3.849 0 0 0 3-3.72zm-.89 5.61h8.35v3.38h-6.62v.77h6.96v1.38h-8.67v-3.45h6.59v-.72h-6.62v-1.36zm8.34-.53h-1.74v-6.3h1.74z" style="fill:#7e8c8e" transform="translate(144.23 -95.471)"/>
            <path data-name="패스 4113" d="M-55.72 118.3h-1.72v-6.67h-2.31v3.72h-6v-8.56h1.74v3.02h2.56v-3.02h1.71v3.43h2.31v-4.39h1.72v12.47zm-5.74-4.35v-2.78h-2.56v2.78z" style="fill:#7e8c8e" transform="translate(144.23 -95.471)"/>
        </g>
    </g>
</svg>
