<svg xmlns="http://www.w3.org/2000/svg" width="300.13" height="102.22" viewBox="0 0 300.13 102.22">
    <g data-name="거래종료(판매)">
        <g data-name="그룹 4004">
            <path data-name="패스 5426" d="M291.21 247.84H8.79A7.793 7.793 0 0 1 1 240.05v-34.1a7.793 7.793 0 0 1 7.79-7.79H291.2a7.793 7.793 0 0 1 7.79 7.79v34.1a7.772 7.772 0 0 1-7.78 7.79z" style="fill:#fff" transform="translate(-.12 -146.12)"/>
            <path data-name="패스 5427" d="M291.21 248.34H8.79a8.3 8.3 0 0 1-8.29-8.29v-34.1a8.3 8.3 0 0 1 8.29-8.29H291.2a8.3 8.3 0 0 1 8.29 8.29v34.1a8.286 8.286 0 0 1-8.28 8.29zM8.79 198.65a7.3 7.3 0 0 0-7.29 7.29v34.1a7.3 7.3 0 0 0 7.29 7.29H291.2a7.3 7.3 0 0 0 7.29-7.29v-34.1a7.3 7.3 0 0 0-7.29-7.29H8.79z" style="fill:#3f52fc" transform="translate(-.12 -146.12)"/>
        </g>
        <g data-name="그룹 4005">
            <path data-name="패스 5428" d="M168.56 205.41h-37.12a7.793 7.793 0 0 1-7.79-7.79v-1.35a7.793 7.793 0 0 1 7.79-7.79h37.12a7.793 7.793 0 0 1 7.79 7.79v1.35a7.793 7.793 0 0 1-7.79 7.79z" style="fill:#3f52fc" transform="translate(-.12 -146.12)"/>
        </g>
        <g data-name="그룹 4006">
            <path data-name="패스 5429" d="M35.28 227.17h-4.3v1.03h3.08v2.33h-6.19v1.05h6.5v.73h-7.42v-2.47h6.2v-.93h-6.22v-.71h3.13v-1.03h-4.28v-.75h9.49v.75zm-8.26-4.81h7.03v3.18h-7.03v-3.18zm6.12 2.44v-1.7h-5.2v1.7z" style="fill:#3f52fc" transform="translate(-.12 -148.12)"/>
            <path data-name="패스 5430" d="M45.65 227.81h-4.3v1.23h3.14v3.25h-7.17v-3.25h3.13v-1.23h-4.29v-.76h9.49zm-8.6-5.46h7.7v.76h-1.61v2.19h1.57v.76h-7.63v-.76h1.57v-2.19h-1.61v-.76zm6.54 9.19v-1.77h-5.36v1.77zm-1.36-6.24v-2.19h-2.66v2.19z" style="fill:#3f52fc" transform="translate(-.12 -148.12)"/>
            <path data-name="패스 5431" d="M50.14 223.98a2.459 2.459 0 0 1 .98-.91 2.952 2.952 0 0 1 1.4-.33 2.884 2.884 0 0 1 1.39.33 2.526 2.526 0 0 1 .98.91 2.519 2.519 0 0 1-.98 3.56 2.94 2.94 0 0 1-1.39.33 2.98 2.98 0 0 1-1.4-.33 2.432 2.432 0 0 1-1.33-2.24 2.553 2.553 0 0 1 .35-1.32zm.78 2.23a1.578 1.578 0 0 0 .66.62 2.067 2.067 0 0 0 .94.22 1.935 1.935 0 0 0 .93-.22 1.674 1.674 0 0 0 .9-1.53 1.682 1.682 0 0 0-.24-.9 1.714 1.714 0 0 0-.66-.62 2.055 2.055 0 0 0-1.87-.01 1.714 1.714 0 0 0-.66.62 1.614 1.614 0 0 0-.23.9 1.82 1.82 0 0 0 .23.92zm.5 2.66h.91v2.57h6.14v.77h-7.05zm6.73.77h-.91v-7.62h.91z" style="fill:#3f52fc" transform="translate(-.12 -148.12)"/>
            <path data-name="패스 5432" d="M59.92 227.88h9.49v.77H65.1v3.77h-.9v-3.77h-4.28zm5.77-3.55a4.487 4.487 0 0 0 1.42 1.08 5.9 5.9 0 0 0 1.83.57l-.38.75a6.763 6.763 0 0 1-1.59-.47 5.717 5.717 0 0 1-1.37-.84 3.674 3.674 0 0 1-.93-1.13 3.513 3.513 0 0 1-.93 1.13 5.6 5.6 0 0 1-1.37.84 6.763 6.763 0 0 1-1.59.47l-.38-.75a5.9 5.9 0 0 0 1.83-.57 4.614 4.614 0 0 0 1.42-1.07 2.016 2.016 0 0 0 .54-1.36v-.6h.95v.6a2 2 0 0 0 .55 1.35z" style="fill:#3f52fc" transform="translate(-.12 -148.12)"/>
            <path data-name="패스 5433" d="M78.74 226.93h-4.89v-4.24h4.89zm-2.44 4.31a4.26 4.26 0 0 0 1.31-.82 1.4 1.4 0 0 0 .5-.99h-3.08v-.71h3.09v-1.02h.91v1.02h3.12v.71h-3.09a1.361 1.361 0 0 0 .49.97 4.148 4.148 0 0 0 1.29.82 6.051 6.051 0 0 0 1.68.45l-.32.71a6.648 6.648 0 0 1-1.49-.38 5.464 5.464 0 0 1-1.27-.67 3.218 3.218 0 0 1-.86-.87 3.15 3.15 0 0 1-.87.88 5.515 5.515 0 0 1-1.28.66 7.421 7.421 0 0 1-1.51.38l-.33-.71a5.807 5.807 0 0 0 1.71-.43zm1.53-5.03v-2.77h-3.08v2.77zm3.16-4.2h.9V228h-.9z" style="fill:#3f52fc" transform="translate(-.12 -148.12)"/>
            <path data-name="패스 5434" d="M87.28 223.98a2.459 2.459 0 0 1 .98-.91 2.952 2.952 0 0 1 1.4-.33 2.884 2.884 0 0 1 1.39.33 2.527 2.527 0 0 1 .98.91 2.519 2.519 0 0 1-.98 3.56 2.94 2.94 0 0 1-1.39.33 2.98 2.98 0 0 1-1.4-.33 2.432 2.432 0 0 1-1.33-2.24 2.553 2.553 0 0 1 .35-1.32zm.78 2.23a1.578 1.578 0 0 0 .66.62 2.067 2.067 0 0 0 .94.22 1.935 1.935 0 0 0 .93-.22 1.674 1.674 0 0 0 .9-1.53 1.682 1.682 0 0 0-.24-.9 1.714 1.714 0 0 0-.66-.62 2.055 2.055 0 0 0-1.87-.01 1.714 1.714 0 0 0-.66.62 1.614 1.614 0 0 0-.23.9 1.724 1.724 0 0 0 .23.92zm.5 2.66h.91v2.57h6.14v.77h-7.05zm6.72.77h-.91v-7.62h.91z" style="fill:#3f52fc" transform="translate(-.12 -148.12)"/>
            <path data-name="패스 5435" d="M99.6 227.15a6.639 6.639 0 0 0 1.03-3.04h-3.12v-.76h4.03a8.989 8.989 0 0 1-.14 1.57h1.58v-2.62h.88v9.61h-.88v-3.61h-1.93v-.76h1.93v-1.85h-1.76a7.33 7.33 0 0 1-1.28 2.5 8.528 8.528 0 0 1-2.33 2l-.56-.67a7.7 7.7 0 0 0 2.55-2.37zm6.37 5.28h-.88v-10.42h.88z" style="fill:#3f52fc" transform="translate(-.12 -148.12)"/>
            <path data-name="패스 5436" d="M110.6 227.25a6.448 6.448 0 0 0 1.26-3.34h-3.88v-.77h4.82a7.83 7.83 0 0 1-1.17 4.21 8.574 8.574 0 0 1-3.61 3.1l-.52-.73a8.571 8.571 0 0 0 3.1-2.47zm4.89-1h1.69v.77h-1.69v5.4h-.91V222h.91z" style="fill:#3f52fc" transform="translate(-.12 -148.12)"/>
            <path data-name="패스 5437" d="M125.32 222.76a2.154 2.154 0 0 1 .92.72 1.918 1.918 0 0 1 .07 2.04 2 2 0 0 1-.74.7 2.906 2.906 0 0 1-1.1.35v1.02c1.07-.06 2.02-.15 2.87-.28l.07.69a24.4 24.4 0 0 1-2.95.33c-1.03.05-2.11.09-3.23.09h-.32l-.12-.76h.54c.85 0 1.59-.01 2.21-.04v-1.05a3.053 3.053 0 0 1-1.13-.34 1.843 1.843 0 0 1-1.01-1.67 1.818 1.818 0 0 1 .33-1.08 2.123 2.123 0 0 1 .91-.72 3.583 3.583 0 0 1 2.68 0zm-2.84 2.5a1.393 1.393 0 0 0 .61.47 2.415 2.415 0 0 0 1.78 0 1.453 1.453 0 0 0 .61-.47 1.115 1.115 0 0 0 .22-.69 1.174 1.174 0 0 0-.22-.71 1.377 1.377 0 0 0-.61-.47 2.415 2.415 0 0 0-1.78 0 1.453 1.453 0 0 0-.61.47 1.136 1.136 0 0 0-.21.7 1.182 1.182 0 0 0 .21.7zm-.16 4.04h.93v2.12h6.07v.77h-7v-2.89zm5.69-7.28h.93v3.53h1.56v.79h-1.56V230h-.93z" style="fill:#3f52fc" transform="translate(-.12 -148.12)"/>
            <path data-name="패스 5438" d="M140.72 231.14h-9.54v-.77h2.68v-1.98h-1.49v-3.21h6.23v-1.63h-6.26v-.76h7.16v3.15h-6.22v1.69h6.47v.76h-1.63v1.98h2.59v.77zm-3.5-.77v-1.98h-2.46v1.98z" style="fill:#3f52fc" transform="translate(-.12 -148.12)"/>
            <path data-name="패스 5439" d="M147.76 227.27h-2.29v2.05c1.11-.04 2.11-.12 3.01-.22l.07.69c-1 .14-2.04.24-3.13.3s-2.22.08-3.39.08h-.3l-.13-.77c1.14 0 2.12-.01 2.95-.04v-2.09h-2.16V223h5.31v.75h-4.41v2.75h4.45v.77zm1.42-5.26h.91v10.44h-.91z" style="fill:#3f52fc" transform="translate(-.12 -148.12)"/>
            <path data-name="패스 5440" d="M155.99 223.21a2.732 2.732 0 0 1 .91 1.11 4.511 4.511 0 0 1 .41 1.68h2.34v-3.98h.91v10.44h-.91v-5.7h-2.33a4.7 4.7 0 0 1-.39 1.76 2.733 2.733 0 0 1-.91 1.15 2.3 2.3 0 0 1-2.65-.04 2.9 2.9 0 0 1-.92-1.26 5.721 5.721 0 0 1 0-3.83 2.93 2.93 0 0 1 .92-1.27 2.256 2.256 0 0 1 2.62-.06zm-2.78 4.72a2.318 2.318 0 0 0 .61.98 1.332 1.332 0 0 0 1.8 0 2.331 2.331 0 0 0 .62-.98 5.021 5.021 0 0 0 0-2.94 2.218 2.218 0 0 0-.62-.99 1.341 1.341 0 0 0-.9-.35 1.323 1.323 0 0 0-.9.35 2.205 2.205 0 0 0-.61.99 4.732 4.732 0 0 0-.22 1.47 4.454 4.454 0 0 0 .22 1.47z" style="fill:#3f52fc" transform="translate(-.12 -148.12)"/>
            <path data-name="패스 5441" d="M169.63 223.9h-3.86v-.75h4.78a8.054 8.054 0 0 1-1.12 4.21 8.341 8.341 0 0 1-3.61 3.09l-.5-.74c2.67-1.3 4.11-3.23 4.31-5.81zm4.3 8.53h-.91v-5.46h-2.48v-.76h2.48v-4.2h.91z" style="fill:#3f52fc" transform="translate(-.12 -148.12)"/>
            <path data-name="패스 5442" d="M179.93 226.79h-3.01v2.37c.68 0 1.31-.03 1.88-.06a15.2 15.2 0 0 0 1.8-.22l.08.75a18.475 18.475 0 0 1-1.95.24c-.61.04-1.29.06-2.02.06h-.68v-3.9h3.01v-2.11H176v-.77h3.93zm1.39-4.55h.84v3.89h1.54v-4.12h.88v10.42h-.88v-5.53h-1.54v4.99h-.84z" style="fill:#3f52fc" transform="translate(-.12 -148.12)"/>
            <path data-name="패스 5443" d="M189.22 227.25a6.448 6.448 0 0 0 1.26-3.34h-3.88v-.77h4.82a7.83 7.83 0 0 1-1.17 4.21 8.574 8.574 0 0 1-3.61 3.1l-.52-.73a8.486 8.486 0 0 0 3.1-2.47zm4.89-1h1.69v.77h-1.69v5.4h-.91V222h.91z" style="fill:#3f52fc" transform="translate(-.12 -148.12)"/>
            <path data-name="패스 5444" d="M204.62 227.2h4.3v.76h-9.49v-.76h4.29v-1.49h.9v1.49zm-2.93-2.11a4.317 4.317 0 0 0 1.34-.79 1.446 1.446 0 0 0 .54-1.04h-3.28v-.75h7.78v.75h-3.3a1.542 1.542 0 0 0 .54 1.04 4.041 4.041 0 0 0 1.34.8 7.139 7.139 0 0 0 1.74.42l-.34.73a7.361 7.361 0 0 1-1.65-.39 5.381 5.381 0 0 1-1.37-.72 2.778 2.778 0 0 1-.86-1 2.9 2.9 0 0 1-.86 1 5.151 5.151 0 0 1-1.36.72 7.361 7.361 0 0 1-1.65.39l-.34-.73a7.43 7.43 0 0 0 1.73-.43zm-.69 4.55a2.728 2.728 0 0 1 1.23-.61 7.832 7.832 0 0 1 1.94-.21 7.608 7.608 0 0 1 1.92.21 2.782 2.782 0 0 1 1.23.61 1.31 1.31 0 0 1 .43.98 1.326 1.326 0 0 1-.43.98 2.782 2.782 0 0 1-1.23.61 7.663 7.663 0 0 1-1.92.21 7.832 7.832 0 0 1-1.94-.21 2.728 2.728 0 0 1-1.23-.61 1.3 1.3 0 0 1-.42-.98 1.286 1.286 0 0 1 .42-.98zm.82 1.55a2.368 2.368 0 0 0 .9.37 6.483 6.483 0 0 0 1.42.13 5.475 5.475 0 0 0 1.98-.28c.47-.19.71-.45.71-.8s-.24-.6-.7-.79a5.215 5.215 0 0 0-1.93-.28 5.5 5.5 0 0 0-1.99.28c-.47.19-.71.45-.7.79a.7.7 0 0 0 .31.58z" style="fill:#3f52fc" transform="translate(-.12 -148.12)"/>
            <path data-name="패스 5445" d="M219.34 231.14h-9.54v-.77h2.68v-1.98h-1.49v-3.21h6.23v-1.63h-6.26v-.76h7.16v3.15h-6.22v1.69h6.47v.76h-1.63v1.98h2.59v.77zm-3.49-.77v-1.98h-2.46v1.98z" style="fill:#3f52fc" transform="translate(-.12 -148.12)"/>
            <path data-name="패스 5446" d="M226.38 227.27h-2.29v2.05c1.11-.04 2.11-.12 3.01-.22l.07.69c-1 .14-2.04.24-3.13.3s-2.22.08-3.39.08h-.3l-.13-.77c1.14 0 2.12-.01 2.95-.04v-2.09h-2.16V223h5.31v.75h-4.41v2.75h4.45v.77zm1.42-5.26h.91v10.44h-.91z" style="fill:#3f52fc" transform="translate(-.12 -148.12)"/>
            <path data-name="패스 5447" d="M231.06 223.79a2.381 2.381 0 0 1 .96-.87 2.993 2.993 0 0 1 1.39-.31 3.035 3.035 0 0 1 1.25.25 2.458 2.458 0 0 1 .93.71 2.324 2.324 0 0 1 .47 1.06h2.19v-2.62h.93v5.95h-.93v-2.57h-2.19a2.347 2.347 0 0 1-.45 1.09 2.463 2.463 0 0 1-.94.74 2.9 2.9 0 0 1-1.26.26 2.993 2.993 0 0 1-1.39-.31 2.431 2.431 0 0 1-.96-.86 2.316 2.316 0 0 1-.35-1.26 2.432 2.432 0 0 1 .35-1.26zm3.44 6.61a2.951 2.951 0 0 0 1.1 1.09 3.186 3.186 0 0 0 .82-.73 3.388 3.388 0 0 0 .52-.89 2.657 2.657 0 0 0 .18-.88v-.63h.9v.63a2.356 2.356 0 0 0 .25 1.06 2.919 2.919 0 0 0 .74.92 3.446 3.446 0 0 0 1.15.63l-.48.69a3.653 3.653 0 0 1-1.3-.8 3.406 3.406 0 0 1-.81-1.19 4.322 4.322 0 0 1-.75 1.23 3.072 3.072 0 0 1-1.19.84 3.345 3.345 0 0 1-1.22-.81 3.391 3.391 0 0 1-.74-1.22 3.75 3.75 0 0 1-.83 1.16 3.9 3.9 0 0 1-1.26.79l-.46-.69a3.364 3.364 0 0 0 1.12-.65 2.989 2.989 0 0 0 .74-.94 2.344 2.344 0 0 0 .26-1.03v-.63h.88v.63a2.878 2.878 0 0 0 .38 1.42zm-2.67-4.5a1.643 1.643 0 0 0 .65.6 1.934 1.934 0 0 0 .93.22 1.869 1.869 0 0 0 .92-.22 1.683 1.683 0 0 0 .64-.6 1.65 1.65 0 0 0 .23-.86 1.677 1.677 0 0 0-.23-.86 1.521 1.521 0 0 0-.64-.59 1.967 1.967 0 0 0-.91-.21 1.928 1.928 0 0 0-.93.21 1.689 1.689 0 0 0-.65.59 1.756 1.756 0 0 0-.01 1.72z" style="fill:#3f52fc" transform="translate(-.12 -148.12)"/>
            <path data-name="패스 5448" d="M240.91 226.77h9.49v.76h-9.49zm2.35-1.99a4.6 4.6 0 0 0 1.4-.95 1.715 1.715 0 0 0 .54-1.2v-.49h.95v.49a1.729 1.729 0 0 0 .54 1.19 4.35 4.35 0 0 0 1.4.97 6.308 6.308 0 0 0 1.79.51l-.34.74a6.73 6.73 0 0 1-1.58-.43 5.789 5.789 0 0 1-1.36-.77 3.406 3.406 0 0 1-.92-1.03 3.406 3.406 0 0 1-.92 1.03 5.789 5.789 0 0 1-1.36.77 6.6 6.6 0 0 1-1.58.43l-.35-.74a7.178 7.178 0 0 0 1.79-.52zm-.23 4.71h5.2v-1.22h.93v4.02h-7.04v-4.02h.91zm5.21 2.06v-1.34h-5.2v1.34z" style="fill:#3f52fc" transform="translate(-.12 -148.12)"/>
            <path data-name="패스 5449" d="M251.96 223.04h.9v5.91c.86-.01 1.7-.05 2.51-.13a21.745 21.745 0 0 0 2.47-.38l.13.79a25.111 25.111 0 0 1-2.59.4q-1.26.12-2.58.12h-.84zm7.91 9.39h-.91v-10.42h.91z" style="fill:#3f52fc" transform="translate(-.12 -148.12)"/>
            <path data-name="패스 5450" d="M262.11 223.03h4.86v.76h-3.95v5.27c.98 0 1.84-.03 2.56-.09a21.968 21.968 0 0 0 2.21-.29l.12.8a20.372 20.372 0 0 1-2.27.28c-.74.05-1.64.07-2.71.07h-.82v-6.8zm7.61 3.11h1.75v.77h-1.75v5.54h-.91v-10.44h.91z" style="fill:#3f52fc" transform="translate(-.12 -148.12)"/>
            <path data-name="패스 5451" d="M272.75 231.44a.753.753 0 0 1-.28-.28.721.721 0 0 1-.1-.38.686.686 0 0 1 .1-.37.833.833 0 0 1 .28-.28.721.721 0 0 1 .38-.1.686.686 0 0 1 .37.1.9.9 0 0 1 .28.27.686.686 0 0 1 .1.37.732.732 0 0 1-.22.54.719.719 0 0 1-.53.23.621.621 0 0 1-.38-.1z" style="fill:#3f52fc" transform="translate(-.12 -148.12)"/>
        </g>
        <g data-name="그룹 4007">
            <path data-name="패스 5452" d="M134 193.59h-3.86v-.75h4.78a8.054 8.054 0 0 1-1.12 4.21 8.341 8.341 0 0 1-3.61 3.09l-.5-.74q4.02-1.935 4.31-5.81zm4.31 8.53h-.91v-5.46h-2.48v-.76h2.48v-4.2h.91z" style="fill:#fff" transform="translate(-.12 -147.12)"/>
            <path data-name="패스 5453" d="M144.31 196.49h-3.01v2.37c.68 0 1.31-.03 1.88-.06a15.2 15.2 0 0 0 1.8-.22l.08.75a18.475 18.475 0 0 1-1.95.24c-.61.04-1.29.06-2.02.06h-.68v-3.9h3.01v-2.11h-3.04v-.77h3.93v3.64zm1.39-4.55h.84v3.89h1.54v-4.12h.88v10.42h-.88v-5.53h-1.54v4.99h-.84z" style="fill:#fff" transform="translate(-.12 -147.12)"/>
            <path data-name="패스 5454" d="M155.61 196.9h4.3v.76h-9.49v-.76h4.29v-1.49h.9v1.49zm-2.92-2.12a4.317 4.317 0 0 0 1.34-.79 1.446 1.446 0 0 0 .54-1.04h-3.28v-.75h7.78v.75h-3.3a1.542 1.542 0 0 0 .54 1.04 4.041 4.041 0 0 0 1.34.8 7.139 7.139 0 0 0 1.74.42l-.34.73a7.361 7.361 0 0 1-1.65-.39 5.381 5.381 0 0 1-1.37-.72 2.778 2.778 0 0 1-.86-1 2.9 2.9 0 0 1-.86 1 5.151 5.151 0 0 1-1.36.72 7.361 7.361 0 0 1-1.65.39l-.34-.73a7.689 7.689 0 0 0 1.73-.43zm-.69 4.55a2.728 2.728 0 0 1 1.23-.61 7.832 7.832 0 0 1 1.94-.21 7.608 7.608 0 0 1 1.92.21 2.782 2.782 0 0 1 1.23.61 1.31 1.31 0 0 1 .43.98 1.326 1.326 0 0 1-.43.98 2.782 2.782 0 0 1-1.23.61 7.663 7.663 0 0 1-1.92.21 7.832 7.832 0 0 1-1.94-.21 2.728 2.728 0 0 1-1.23-.61 1.3 1.3 0 0 1-.42-.98 1.266 1.266 0 0 1 .42-.98zm.81 1.56a2.368 2.368 0 0 0 .9.37 6.483 6.483 0 0 0 1.42.13 5.475 5.475 0 0 0 1.98-.28c.47-.19.71-.45.71-.8s-.24-.6-.7-.79a5.215 5.215 0 0 0-1.93-.28 5.5 5.5 0 0 0-1.99.28c-.47.19-.71.45-.7.79a.741.741 0 0 0 .31.58z" style="fill:#fff" transform="translate(-.12 -147.12)"/>
            <path data-name="패스 5455" d="M170.33 200.83h-9.54v-.77h2.68v-1.98h-1.49v-3.21h6.23v-1.63h-6.26v-.76h7.16v3.15h-6.22v1.69h6.47v.76h-1.63v1.98h2.59v.77zm-3.49-.77v-1.98h-2.46v1.98z" style="fill:#fff" transform="translate(-.12 -147.12)"/>
        </g>
        <g data-name="그룹 4008">
            <path data-name="패스 5456" d="M291.01 158.12H12.45a3.5 3.5 0 0 1-3.5-3.5 3.5 3.5 0 0 1 3.5-3.5h278.56a3.5 3.5 0 0 1 3.5 3.5 3.5 3.5 0 0 1-3.5 3.5z" style="fill:#3f52fc" transform="translate(-.12 -147.12)"/>
        </g>
        <g data-name="그룹 4011">
            <g data-name="그룹 4009" transform="translate(-.12 -147.12)">
                <circle data-name="타원 168" cx="7" cy="7" r="7" transform="translate(.62 147.62)" style="fill:#3f52fc"/>
                <path data-name="패스 5457" d="M7.62 162.12a7.5 7.5 0 1 1 7.5-7.5 7.5 7.5 0 0 1-7.5 7.5zm0-14a6.5 6.5 0 1 0 6.5 6.5 6.513 6.513 0 0 0-6.5-6.5z" style="fill:#3f52fc"/>
            </g>
            <g data-name="그룹 4010">
                <path data-name="패스 5458" d="M8.4 158.3h-.88v-6.03h-.03l-1.68 1.12v-.87l1.72-1.15h.87z" style="fill:#fff" transform="translate(-.12 -147.12)"/>
            </g>
        </g>
        <g data-name="그룹 4012">
            <path data-name="패스 5459" d="M.91 172.5a2.5 2.5 0 0 1 1.02-.88 3.292 3.292 0 0 1 1.46-.31 3.293 3.293 0 0 1 1.46.31 2.5 2.5 0 0 1 1.02.88 2.291 2.291 0 0 1 .37 1.29 2.2 2.2 0 0 1-.37 1.27 2.555 2.555 0 0 1-1.02.87 3.293 3.293 0 0 1-1.46.31 3.293 3.293 0 0 1-1.46-.31 2.555 2.555 0 0 1-1.02-.87 2.226 2.226 0 0 1-.37-1.27 2.291 2.291 0 0 1 .37-1.29zm1.11 2.02a1.342 1.342 0 0 0 .56.49 1.8 1.8 0 0 0 .82.17 1.924 1.924 0 0 0 .81-.17 1.406 1.406 0 0 0 .56-.49 1.293 1.293 0 0 0 .2-.73 1.44 1.44 0 0 0-.2-.74 1.218 1.218 0 0 0-.56-.49 1.924 1.924 0 0 0-.81-.17 1.937 1.937 0 0 0-.82.17 1.277 1.277 0 0 0-.56.49 1.388 1.388 0 0 0-.2.74 1.272 1.272 0 0 0 .2.73zm.15 2.49h1.29v1.09h4.42v-1.09h1.3v4.29H2.17zm5.71 3.24v-1.12H3.46v1.12zm1.3-3.73H7.86v-5.68h1.31v5.68z" style="fill:#3f52fc" transform="translate(-.12 -147.12)"/>
            <path data-name="패스 5460" d="M19.22 172.17v.33c0 .45-.02.89-.05 1.31a9.347 9.347 0 0 1-.21 1.37h1.44v1.05h-9.68v-1.05h6.92a10.527 10.527 0 0 0 .22-1.42c.03-.43.05-.89.05-1.37h-6v-1.04h7.3v.82zm-7.34 5.3h7.32v3.83h-7.32v-3.83zm6.04 2.78v-1.76h-4.76v1.76z" style="fill:#3f52fc" transform="translate(-.12 -147.12)"/>
            <path data-name="패스 5461" d="M25.66 171.56a2.213 2.213 0 0 1 .94.75 2 2 0 0 1 .35 1.11 1.924 1.924 0 0 1-.25.95 2.152 2.152 0 0 1-.69.72 2.613 2.613 0 0 1-1.03.4v.86c.99-.06 1.86-.14 2.59-.25l.11.95a25.108 25.108 0 0 1-2.98.34q-1.56.09-3.21.09h-.27l-.14-1.04c.98 0 1.84-.01 2.59-.04v-.91a2.914 2.914 0 0 1-1.06-.39 2.124 2.124 0 0 1-.71-.72 1.976 1.976 0 0 1 .09-2.07 2.276 2.276 0 0 1 .94-.75 3.317 3.317 0 0 1 1.37-.27 3.269 3.269 0 0 1 1.36.27zm-3.14 6.66h1.3v1.93h6.04v1.05h-7.34zm.52-4.2a1.219 1.219 0 0 0 .51.4 1.793 1.793 0 0 0 .75.14 1.641 1.641 0 0 0 1.03-.31 1.029 1.029 0 0 0 .4-.83 1 1 0 0 0-.4-.83 1.638 1.638 0 0 0-1.03-.3 1.967 1.967 0 0 0-.75.13 1.127 1.127 0 0 0-.51.39 1.045 1.045 0 0 0-.18.61 1.014 1.014 0 0 0 .18.6zm5.14-3.17h1.3v3.42h1.43v1.08h-1.43v3.59h-1.3z" style="fill:#3f52fc" transform="translate(-.12 -147.12)"/>
            <path data-name="패스 5462" d="M41.14 180.2h-9.68v-1.08h2.57v-1.75h-1.42v-3.46h6.09v-1.3h-6.12v-1.05H40v3.4h-6.08v1.36h6.33v1.05H38.7v1.75h2.45v1.08zm-3.72-1.08v-1.75H35.3v1.75z" style="fill:#3f52fc" transform="translate(-.12 -147.12)"/>
        </g>
        <g data-name="그룹 4013">
            <path data-name="패스 5463" d="M130.96 171.33a2.7 2.7 0 0 1 1.03-.95 3.262 3.262 0 0 1 2.9 0 2.641 2.641 0 0 1 1.03 3.68 2.626 2.626 0 0 1-1.03.95 3.262 3.262 0 0 1-2.9 0 2.575 2.575 0 0 1-1.41-2.32 2.508 2.508 0 0 1 .38-1.36zm1.1 2.16a1.3 1.3 0 0 0 .56.53 1.8 1.8 0 0 0 .82.19 1.631 1.631 0 0 0 .8-.19 1.364 1.364 0 0 0 .56-.53 1.614 1.614 0 0 0 .21-.8 1.481 1.481 0 0 0-.21-.79 1.386 1.386 0 0 0-.57-.53 1.78 1.78 0 0 0-.8-.19 1.67 1.67 0 0 0-.81.19 1.456 1.456 0 0 0-.57.53 1.475 1.475 0 0 0-.2.79 1.614 1.614 0 0 0 .21.8zm.15 2.74h1.31v2.44h5.99v1.05h-7.3zm7.01.77h-1.31v-7.65h1.31z" style="fill:#3f52fc" transform="translate(-.12 -147.12)"/>
            <path data-name="패스 5464" d="M143.09 174.56a6.247 6.247 0 0 0 .97-2.88h-2.84v-1.05h4.12a11.015 11.015 0 0 1-.11 1.56h1.24v-2.59h1.24v9.83h-1.24v-3.54h-1.65v-1.07h1.65v-1.57h-1.46a7.04 7.04 0 0 1-1.27 2.48 8.421 8.421 0 0 1-2.32 1.97l-.76-.93a7.294 7.294 0 0 0 2.43-2.21zm6.81 5.37h-1.24v-10.59h1.24z" style="fill:#3f52fc" transform="translate(-.12 -147.12)"/>
            <path data-name="패스 5465" d="M155.7 170.06a2.213 2.213 0 0 1 .94.75 2 2 0 0 1 .35 1.11 1.924 1.924 0 0 1-.25.95 2.152 2.152 0 0 1-.69.72 2.613 2.613 0 0 1-1.03.4v.86c.99-.06 1.86-.14 2.59-.25l.11.95a25.108 25.108 0 0 1-2.98.34q-1.56.09-3.21.09h-.27l-.14-1.04c.98 0 1.84-.01 2.59-.04v-.9a2.914 2.914 0 0 1-1.06-.39 2.124 2.124 0 0 1-.71-.72 1.976 1.976 0 0 1 .09-2.07 2.276 2.276 0 0 1 .94-.75 3.317 3.317 0 0 1 1.37-.27 3.269 3.269 0 0 1 1.36.26zm-3.14 6.66h1.3v1.93h6.04v1.05h-7.34zm.52-4.2a1.219 1.219 0 0 0 .51.4 1.793 1.793 0 0 0 .75.14 1.641 1.641 0 0 0 1.03-.31 1.029 1.029 0 0 0 .4-.83 1 1 0 0 0-.4-.83 1.638 1.638 0 0 0-1.03-.3 1.967 1.967 0 0 0-.75.13 1.127 1.127 0 0 0-.51.39 1.045 1.045 0 0 0-.18.61 1.014 1.014 0 0 0 .18.6zm5.14-3.17h1.3v3.42h1.43v1.08h-1.43v3.59h-1.3z" style="fill:#3f52fc" transform="translate(-.12 -147.12)"/>
            <path data-name="패스 5466" d="M171.18 178.7h-9.68v-1.08h2.57v-1.75h-1.42v-3.46h6.09v-1.3h-6.12v-1.05h7.41v3.4h-6.08v1.36h6.33v1.05h-1.55v1.75h2.45v1.08zm-3.72-1.08v-1.75h-2.12v1.75z" style="fill:#3f52fc" transform="translate(-.12 -147.12)"/>
        </g>
        <g data-name="그룹 4016">
            <g data-name="그룹 4014" transform="translate(-.12 -147.12)">
                <circle data-name="타원 169" cx="7" cy="7" r="7" transform="translate(143.78 147.62)" style="fill:#3f52fc"/>
                <path data-name="패스 5467" d="M150.78 162.12a7.5 7.5 0 1 1 7.5-7.5 7.5 7.5 0 0 1-7.5 7.5zm0-14a6.5 6.5 0 1 0 6.5 6.5 6.513 6.513 0 0 0-6.5-6.5z" style="fill:#3f52fc"/>
            </g>
            <g data-name="그룹 4015">
                <path data-name="패스 5468" d="m148.55 157.67 2.36-2.49c.31-.33.55-.6.71-.8a3.075 3.075 0 0 0 .38-.59 1.368 1.368 0 0 0 .13-.59 1.045 1.045 0 0 0-.18-.61 1.194 1.194 0 0 0-.5-.41 1.6 1.6 0 0 0-.7-.15 1.462 1.462 0 0 0-.71.17 1.157 1.157 0 0 0-.47.46 1.345 1.345 0 0 0-.17.68h-.81a2.011 2.011 0 0 1 .28-1.07 1.9 1.9 0 0 1 .79-.72 2.462 2.462 0 0 1 1.12-.26 2.385 2.385 0 0 1 1.11.25 1.983 1.983 0 0 1 .77.69 1.836 1.836 0 0 1 .28.98 1.944 1.944 0 0 1-.15.76 3.068 3.068 0 0 1-.48.8q-.345.435-.96 1.08l-1.59 1.64v.06h3.3v.77h-4.5z" style="fill:#fff" transform="translate(-.12 -147.12)"/>
            </g>
        </g>
        <g data-name="그룹 4017">
            <path data-name="패스 5469" d="M261.54 174.67a6.293 6.293 0 0 0 1.15-3.18h-3.64v-1.03H264a9.917 9.917 0 0 1-.45 3.02 6.839 6.839 0 0 1-1.5 2.52 9.291 9.291 0 0 1-2.82 2.02l-.68-1.02a7.858 7.858 0 0 0 2.99-2.33zm5.95 5.26h-1.3v-5.39h-2.24v-1.07h2.24v-4.14h1.3z" style="fill:#3f52fc" transform="translate(-.12 -147.12)"/>
            <path data-name="패스 5470" d="M273.3 174.36h-2.74v2.06c.62-.01 1.18-.03 1.7-.06a14.705 14.705 0 0 0 1.58-.18l.09 1.05c-.66.11-1.28.18-1.87.22s-1.27.06-2.03.06h-.73v-4.21h2.74v-1.84h-2.75v-1.05h4.01zm1.17-4.82h1.2v3.87h1.2v-4.07h1.24v10.59h-1.24v-5.47h-1.2v4.93h-1.2z" style="fill:#3f52fc" transform="translate(-.12 -147.12)"/>
            <path data-name="패스 5471" d="M284.82 174.47h4.2v1.05h-9.66v-1.05h4.17v-1.35h1.29v1.35zm-3.31-2.15a3.811 3.811 0 0 0 1.19-.65 1.618 1.618 0 0 0 .56-.82h-3.02v-1.04h7.91v1.04h-3.05a1.618 1.618 0 0 0 .56.82 3.759 3.759 0 0 0 1.2.65 6.971 6.971 0 0 0 1.71.36l-.47 1.02a6.715 6.715 0 0 1-2.46-.68 3.365 3.365 0 0 1-1.46-1.34 3.279 3.279 0 0 1-1.45 1.34 6.919 6.919 0 0 1-2.45.68l-.46-1.02a7.843 7.843 0 0 0 1.69-.36zm-.58 4.73a2.8 2.8 0 0 1 1.27-.63 8.078 8.078 0 0 1 1.98-.22 7.539 7.539 0 0 1 1.97.22 2.864 2.864 0 0 1 1.26.63 1.368 1.368 0 0 1 0 2.01 2.864 2.864 0 0 1-1.26.63 8.051 8.051 0 0 1-1.97.22 7.62 7.62 0 0 1-1.98-.22 3.019 3.019 0 0 1-1.27-.63 1.348 1.348 0 0 1-.44-1.01 1.307 1.307 0 0 1 .44-1zm1.47 1.66a5.333 5.333 0 0 0 1.77.22 5.24 5.24 0 0 0 1.75-.22c.4-.15.61-.37.61-.66s-.21-.49-.61-.64a5.306 5.306 0 0 0-1.76-.22 5.613 5.613 0 0 0-1.77.22c-.4.14-.6.35-.59.64s.2.51.6.66z" style="fill:#3f52fc" transform="translate(-.12 -147.12)"/>
            <path data-name="패스 5472" d="M299.41 178.7h-9.68v-1.08h2.57v-1.75h-1.42v-3.46h6.09v-1.3h-6.12v-1.05h7.41v3.4h-6.08v1.36h6.33v1.05h-1.55v1.75h2.45v1.08zm-3.73-1.08v-1.75h-2.12v1.75z" style="fill:#3f52fc" transform="translate(-.12 -147.12)"/>
        </g>
        <g data-name="그룹 4020">
            <g data-name="그룹 4018" transform="translate(-.12 -147.12)">
                <circle data-name="타원 170" cx="7" cy="7" r="7" transform="translate(285.75 147.62)" style="fill:#3f52fc"/>
                <path data-name="패스 5473" d="M292.75 162.12a7.5 7.5 0 1 1 7.5-7.5 7.5 7.5 0 0 1-7.5 7.5zm0-14a6.5 6.5 0 1 0 6.5 6.5 6.513 6.513 0 0 0-6.5-6.5z" style="fill:#3f52fc"/>
            </g>
            <g data-name="그룹 4019">
                <path data-name="패스 5474" d="M291.55 158.17a1.94 1.94 0 0 1-.85-.65 1.708 1.708 0 0 1-.33-.96h.87a.966.966 0 0 0 .23.57 1.3 1.3 0 0 0 .54.37 2.056 2.056 0 0 0 .76.13 2.088 2.088 0 0 0 .81-.15 1.3 1.3 0 0 0 .56-.43 1.008 1.008 0 0 0 .2-.63 1.176 1.176 0 0 0-.2-.67 1.233 1.233 0 0 0-.58-.46 2.273 2.273 0 0 0-.91-.17h-.56v-.76h.56a1.747 1.747 0 0 0 .74-.15 1.117 1.117 0 0 0 .68-1.04 1.135 1.135 0 0 0-.16-.61 1.059 1.059 0 0 0-.45-.41 1.48 1.48 0 0 0-.68-.15 1.822 1.822 0 0 0-.7.14 1.228 1.228 0 0 0-.53.38 1.012 1.012 0 0 0-.22.58h-.83a1.637 1.637 0 0 1 .33-.96 2.063 2.063 0 0 1 .83-.65 2.658 2.658 0 0 1 1.13-.23 2.343 2.343 0 0 1 1.12.25 1.878 1.878 0 0 1 .74.68 1.657 1.657 0 0 1 .25.92 1.609 1.609 0 0 1-.31 1 1.557 1.557 0 0 1-.87.57v.05a1.744 1.744 0 0 1 .77.29 1.478 1.478 0 0 1 .5.58 1.832 1.832 0 0 1 .17.79 1.723 1.723 0 0 1-.31 1.01 2.154 2.154 0 0 1-.86.71 2.926 2.926 0 0 1-1.24.26 2.621 2.621 0 0 1-1.2-.2z" style="fill:#fff" transform="translate(-.12 -147.12)"/>
            </g>
        </g>
    </g>
</svg>
