<svg xmlns="http://www.w3.org/2000/svg" width="794.33" height="110.81" viewBox="0 0 794.33 110.81">
    <g data-name="그룹 3932">
        <g data-name="그룹 3931">
            <path data-name="패스 5477" d="M931.1-182.66H235.4c-1.19 0-2.15-1.57-2.15-3.5s.96-3.5 2.15-3.5h695.7c1.19 0 2.15 1.57 2.15 3.5s-.96 3.5-2.15 3.5z" style="fill:#f0f0f0" transform="translate(-169.53 198.87)"/>
        </g>
    </g>
    <g data-name="그룹 3934">
        <g data-name="그룹 3933">
            <path data-name="패스 5478" d="M576.31-182.66H203.36a3.517 3.517 0 0 1-3.53-3.5 3.517 3.517 0 0 1 3.53-3.5H576.3a3.517 3.517 0 0 1 3.53 3.5 3.515 3.515 0 0 1-3.52 3.5z" style="fill:#3f52fc" transform="translate(-169.53 198.87)"/>
        </g>
    </g>
    <g data-name="그룹 3935">
        <path data-name="패스 5479" d="M553.51-155.83a3.939 3.939 0 0 1 1.55-1.42 4.67 4.67 0 0 1 2.18-.51 4.67 4.67 0 0 1 2.18.51 3.845 3.845 0 0 1 1.54 1.42 3.811 3.811 0 0 1 .56 2.04 3.855 3.855 0 0 1-.56 2.06 3.845 3.845 0 0 1-1.54 1.42 4.67 4.67 0 0 1-2.18.51 4.67 4.67 0 0 1-2.18-.51 3.867 3.867 0 0 1-1.55-1.42 3.8 3.8 0 0 1-.57-2.06 3.962 3.962 0 0 1 .57-2.04zm1.66 3.25a2.025 2.025 0 0 0 .84.8 2.593 2.593 0 0 0 1.23.28 2.473 2.473 0 0 0 1.2-.28 2.086 2.086 0 0 0 .84-.8 2.381 2.381 0 0 0 .31-1.2 2.248 2.248 0 0 0-.31-1.19 2.112 2.112 0 0 0-.85-.8 2.528 2.528 0 0 0-1.2-.28 2.58 2.58 0 0 0-1.22.28 2.05 2.05 0 0 0-.85.8 2.338 2.338 0 0 0-.3 1.19 2.283 2.283 0 0 0 .31 1.2zm.22 4.1h1.97v3.66h8.98v1.58h-10.95v-5.24zm10.51 1.16h-1.97v-11.48h1.97z" style="fill:#3f52fc" transform="translate(-169.53 198.87)"/>
        <path data-name="패스 5480" d="M571.71-150.98a9.415 9.415 0 0 0 1.46-4.32h-4.25v-1.58h6.19a15.9 15.9 0 0 1-.17 2.34h1.85v-3.88h1.86v14.75h-1.86v-5.31h-2.48v-1.6h2.48v-2.36h-2.19a10.715 10.715 0 0 1-1.9 3.71 12.485 12.485 0 0 1-3.48 2.95l-1.14-1.39a10.976 10.976 0 0 0 3.63-3.31zm10.22 8.06h-1.86v-15.89h1.86z" style="fill:#3f52fc" transform="translate(-169.53 198.87)"/>
        <path data-name="패스 5481" d="M590.63-157.73a3.423 3.423 0 0 1 1.42 1.13 2.9 2.9 0 0 1 .52 1.67 2.843 2.843 0 0 1-.38 1.42 3.342 3.342 0 0 1-1.04 1.08 4.009 4.009 0 0 1-1.55.59v1.28c1.49-.09 2.78-.21 3.88-.37l.16 1.42a38.681 38.681 0 0 1-4.46.51c-1.55.09-3.16.14-4.82.14h-.4l-.21-1.56c1.46 0 2.76-.02 3.88-.05v-1.36a4.255 4.255 0 0 1-1.59-.58 3.123 3.123 0 0 1-1.06-1.08 2.809 2.809 0 0 1-.37-1.44 2.909 2.909 0 0 1 .5-1.67 3.257 3.257 0 0 1 1.41-1.13 4.982 4.982 0 0 1 2.06-.4 4.935 4.935 0 0 1 2.05.4zm-4.71 9.99h1.95v2.9h9.05v1.58h-11zm.78-6.29a1.7 1.7 0 0 0 .76.6 2.832 2.832 0 0 0 1.12.21 2.487 2.487 0 0 0 1.55-.47 1.5 1.5 0 0 0 .59-1.24 1.537 1.537 0 0 0-.59-1.25 2.424 2.424 0 0 0-1.55-.46 2.985 2.985 0 0 0-1.12.2 1.671 1.671 0 0 0-.76.59 1.477 1.477 0 0 0-.26.91 1.477 1.477 0 0 0 .26.91zm7.71-4.77h1.95v5.13h2.14v1.62h-2.14v5.38h-1.95z" style="fill:#3f52fc" transform="translate(-169.53 198.87)"/>
        <path data-name="패스 5482" d="M613.86-144.77h-14.52v-1.62h3.85v-2.62h-2.13v-5.19h9.14v-1.95h-9.18v-1.58h11.11v5.1h-9.12v2.04h9.49v1.58h-2.32v2.62h3.67v1.62zm-5.59-1.62v-2.62h-3.18v2.62z" style="fill:#3f52fc" transform="translate(-169.53 198.87)"/>
    </g>
    <g data-name="그룹 3936">
        <path data-name="패스 5483" d="M907.04-150.82a9.433 9.433 0 0 0 1.72-4.76h-5.47v-1.55h7.44a14.745 14.745 0 0 1-.68 4.53 10.384 10.384 0 0 1-2.25 3.78 14.1 14.1 0 0 1-4.22 3.03l-1.02-1.53a11.745 11.745 0 0 0 4.48-3.5zm8.93 7.9h-1.95v-8.09h-3.36v-1.6h3.36v-6.21h1.95z" style="fill:#707070" transform="translate(-169.53 198.87)"/>
        <path data-name="패스 5484" d="M924.69-151.27h-4.11v3.09c.93-.01 1.77-.04 2.54-.09a22.924 22.924 0 0 0 2.38-.28l.14 1.58c-.98.16-1.92.27-2.81.33s-1.9.09-3.05.09h-1.09v-6.31h4.11v-2.76h-4.13v-1.58h6.01v5.93zm1.76-7.25h1.79v5.8h1.79v-6.1h1.86v15.89h-1.86v-8.21h-1.79v7.4h-1.79z" style="fill:#707070" transform="translate(-169.53 198.87)"/>
        <path data-name="패스 5485" d="M941.97-151.12h6.29v1.58h-14.48v-1.58h6.26v-2.02h1.93zm-4.96-3.23a5.715 5.715 0 0 0 1.78-.97 2.461 2.461 0 0 0 .84-1.23h-4.54v-1.56h11.87v1.56h-4.58a2.48 2.48 0 0 0 .84 1.23 5.694 5.694 0 0 0 1.79.98 10.315 10.315 0 0 0 2.56.54l-.7 1.53a10.33 10.33 0 0 1-3.69-1.02 4.919 4.919 0 0 1-2.18-2 4.934 4.934 0 0 1-2.18 2.01 10.219 10.219 0 0 1-3.67 1.02l-.69-1.53a11.174 11.174 0 0 0 2.55-.56zm-.88 7.11a4.284 4.284 0 0 1 1.9-.94 12.176 12.176 0 0 1 2.97-.33 11.484 11.484 0 0 1 2.95.33 4.405 4.405 0 0 1 1.89.94 1.994 1.994 0 0 1 .66 1.51 2.041 2.041 0 0 1-.65 1.52 4.248 4.248 0 0 1-1.89.95 11.567 11.567 0 0 1-2.96.33 11.648 11.648 0 0 1-2.97-.33 4.345 4.345 0 0 1-1.9-.95 2.015 2.015 0 0 1-.66-1.52 1.979 1.979 0 0 1 .66-1.51zm2.22 2.49a8.169 8.169 0 0 0 2.66.33 8.047 8.047 0 0 0 2.63-.33c.6-.22.91-.55.92-.98-.01-.42-.31-.74-.91-.95a8.662 8.662 0 0 0-2.64-.33 8.762 8.762 0 0 0-2.66.33c-.6.21-.9.53-.89.95-.01.43.29.76.89.98z" style="fill:#707070" transform="translate(-169.53 198.87)"/>
        <path data-name="패스 5486" d="M963.86-144.77h-14.52v-1.62h3.85v-2.62h-2.13v-5.19h9.14v-1.95h-9.18v-1.58h11.11v5.1h-9.12v2.04h9.49v1.58h-2.32v2.62h3.67v1.62zm-5.59-1.62v-2.62h-3.18v2.62z" style="fill:#707070" transform="translate(-169.53 198.87)"/>
    </g>
    <g data-name="그룹 3939">
        <g data-name="그룹 3937" transform="translate(-169.53 198.87)">
            <circle data-name="타원 171" cx="12.2" cy="12.2" r="12.2" transform="translate(187.63 -198.36)" style="fill:#3f52fc"/>
            <path data-name="패스 5487" d="M199.83-173.47a12.718 12.718 0 0 1-12.7-12.7 12.718 12.718 0 0 1 12.7-12.7 12.718 12.718 0 0 1 12.7 12.7 12.718 12.718 0 0 1-12.7 12.7zm0-24.39a11.715 11.715 0 0 0-11.7 11.7 11.715 11.715 0 0 0 11.7 11.7 11.715 11.715 0 0 0 11.7-11.7 11.715 11.715 0 0 0-11.7-11.7z" style="fill:#3f52fc"/>
        </g>
        <g data-name="그룹 3938">
            <path data-name="패스 5488" d="M201.18-179.74h-1.52v-10.5h-.07l-2.93 1.95v-1.52l3-2h1.52z" style="fill:#fff" transform="translate(-169.53 198.87)"/>
        </g>
    </g>
    <g data-name="그룹 3942">
        <g data-name="그룹 3940" transform="translate(-169.53 198.87)">
            <circle data-name="타원 172" cx="12.2" cy="12.2" r="12.2" transform="translate(571.05 -198.36)" style="fill:#3f52fc"/>
            <path data-name="패스 5489" d="M583.25-173.47a12.718 12.718 0 0 1-12.7-12.7 12.718 12.718 0 0 1 12.7-12.7 12.718 12.718 0 0 1 12.7 12.7 12.718 12.718 0 0 1-12.7 12.7zm0-24.39a11.715 11.715 0 0 0-11.7 11.7 11.715 11.715 0 0 0 11.7 11.7 11.715 11.715 0 0 0 11.7-11.7 11.715 11.715 0 0 0-11.7-11.7z" style="fill:#3f52fc"/>
        </g>
        <g data-name="그룹 3941">
            <path data-name="패스 5490" d="m579.36-180.84 4.12-4.33c.54-.58.95-1.04 1.24-1.4a4.551 4.551 0 0 0 .65-1.02 2.446 2.446 0 0 0 .22-1.03 1.851 1.851 0 0 0-.32-1.07 2.1 2.1 0 0 0-.86-.72 2.835 2.835 0 0 0-1.22-.26 2.581 2.581 0 0 0-1.24.29 1.977 1.977 0 0 0-.82.8 2.371 2.371 0 0 0-.29 1.18h-1.42a3.4 3.4 0 0 1 .49-1.86 3.4 3.4 0 0 1 1.37-1.26 4.222 4.222 0 0 1 1.96-.45 4.188 4.188 0 0 1 1.93.44 3.346 3.346 0 0 1 1.34 1.21 3.142 3.142 0 0 1 .48 1.7 3.916 3.916 0 0 1-.25 1.32 5.731 5.731 0 0 1-.84 1.4 20.862 20.862 0 0 1-1.68 1.88l-2.77 2.85v.1h5.75v1.33h-7.84z" style="fill:#fff" transform="translate(-169.53 198.87)"/>
        </g>
    </g>
    <g data-name="그룹 3945">
        <g data-name="그룹 3943" transform="translate(-169.53 198.87)">
            <circle data-name="타원 173" cx="12.2" cy="12.2" r="12.2" transform="translate(921.05 -198.36)" style="fill:#fff"/>
            <path data-name="패스 5491" d="M933.25-173.47a12.718 12.718 0 0 1-12.7-12.7 12.718 12.718 0 0 1 12.7-12.7 12.718 12.718 0 0 1 12.7 12.7 12.718 12.718 0 0 1-12.7 12.7zm0-24.39a11.715 11.715 0 0 0-11.7 11.7 11.715 11.715 0 0 0 11.7 11.7 11.715 11.715 0 0 0 11.7-11.7 11.715 11.715 0 0 0-11.7-11.7z" style="fill:#707070"/>
        </g>
        <g data-name="그룹 3944">
            <path data-name="패스 5492" d="M931.15-179.98a3.566 3.566 0 0 1-1.49-1.13 2.837 2.837 0 0 1-.58-1.67h1.52a1.68 1.68 0 0 0 .4.99 2.334 2.334 0 0 0 .95.65 3.693 3.693 0 0 0 1.32.23 3.56 3.56 0 0 0 1.42-.27 2.34 2.34 0 0 0 .98-.75 1.783 1.783 0 0 0 .35-1.1 2.043 2.043 0 0 0-.35-1.17 2.314 2.314 0 0 0-1-.8 3.979 3.979 0 0 0-1.58-.29h-.98v-1.32h.98a3.094 3.094 0 0 0 1.29-.26 2.054 2.054 0 0 0 .88-.73 1.876 1.876 0 0 0 .31-1.08 2 2 0 0 0-.27-1.05 1.918 1.918 0 0 0-.78-.71 2.638 2.638 0 0 0-1.19-.25 3.314 3.314 0 0 0-1.22.24 2.256 2.256 0 0 0-.93.66 1.661 1.661 0 0 0-.39 1h-1.45a2.808 2.808 0 0 1 .58-1.66 3.725 3.725 0 0 1 1.45-1.13 4.753 4.753 0 0 1 1.97-.4 4.155 4.155 0 0 1 1.95.44 3.212 3.212 0 0 1 1.29 1.18 2.937 2.937 0 0 1 .44 1.61 2.756 2.756 0 0 1-.54 1.74 2.869 2.869 0 0 1-1.51 1v.08a3.223 3.223 0 0 1 1.35.51 2.572 2.572 0 0 1 .87 1.01 3.106 3.106 0 0 1 .3 1.38 2.965 2.965 0 0 1-.55 1.76 3.678 3.678 0 0 1-1.5 1.24 5.015 5.015 0 0 1-2.15.45 5.407 5.407 0 0 1-2.14-.4z" style="fill:#707070" transform="translate(-169.53 198.87)"/>
        </g>
    </g>
    <g data-name="그룹 3946">
        <path data-name="패스 5493" d="M170.09-154.89a3.654 3.654 0 0 1 1.53-1.32 5.039 5.039 0 0 1 2.2-.47 5.026 5.026 0 0 1 2.19.47 3.654 3.654 0 0 1 1.53 1.32 3.456 3.456 0 0 1 .55 1.93 3.39 3.39 0 0 1-.55 1.91 3.7 3.7 0 0 1-1.53 1.31 5.026 5.026 0 0 1-2.19.47 5.071 5.071 0 0 1-2.2-.47 3.7 3.7 0 0 1-1.53-1.31 3.4 3.4 0 0 1-.56-1.91 3.385 3.385 0 0 1 .56-1.93zm1.65 3.03a1.933 1.933 0 0 0 .84.73 2.848 2.848 0 0 0 1.23.26 2.759 2.759 0 0 0 1.21-.26 2 2 0 0 0 .84-.73 2.016 2.016 0 0 0 .3-1.1 2.016 2.016 0 0 0-.3-1.1 1.933 1.933 0 0 0-.84-.73 2.787 2.787 0 0 0-1.21-.25 2.816 2.816 0 0 0-1.23.25 2 2 0 0 0-.84.73 2.04 2.04 0 0 0-.3 1.1 2.04 2.04 0 0 0 .3 1.1zm.23 3.74h1.93v1.63h6.63v-1.63h1.95v6.43h-10.51zm8.56 4.85v-1.69h-6.63v1.69zm1.95-5.59h-1.97v-8.53h1.97z" style="fill:#3f52fc" transform="translate(-169.53 198.87)"/>
        <path data-name="패스 5494" d="M197.55-155.38v.49c0 .68-.03 1.34-.08 1.97a17.513 17.513 0 0 1-.31 2.06h2.16v1.58H184.8v-1.58h10.38a15.438 15.438 0 0 0 .33-2.13c.05-.65.08-1.33.08-2.06h-9v-1.56h10.95v1.23zm-11.01 7.94h10.99v5.75h-10.99zm9.06 4.17v-2.64h-7.14v2.64z" style="fill:#3f52fc" transform="translate(-169.53 198.87)"/>
        <path data-name="패스 5495" d="M207.22-156.3a3.423 3.423 0 0 1 1.42 1.13 2.9 2.9 0 0 1 .52 1.67 2.842 2.842 0 0 1-.38 1.42 3.342 3.342 0 0 1-1.04 1.08 4.072 4.072 0 0 1-1.55.59v1.28c1.49-.09 2.78-.21 3.88-.37l.16 1.42a38.683 38.683 0 0 1-4.46.51c-1.56.09-3.16.14-4.82.14h-.4l-.21-1.56c1.46 0 2.76-.02 3.88-.05v-1.36a4.255 4.255 0 0 1-1.59-.58 3.124 3.124 0 0 1-1.06-1.08 2.809 2.809 0 0 1-.37-1.44 2.844 2.844 0 0 1 .51-1.67 3.392 3.392 0 0 1 1.41-1.13 4.982 4.982 0 0 1 2.06-.4 4.919 4.919 0 0 1 2.04.4zm-4.71 9.99h1.95v2.9h9.05v1.58h-11zm.77-6.3a1.76 1.76 0 0 0 .76.6 2.831 2.831 0 0 0 1.12.21 2.488 2.488 0 0 0 1.55-.47 1.5 1.5 0 0 0 .59-1.24 1.537 1.537 0 0 0-.59-1.25 2.424 2.424 0 0 0-1.55-.46 3.022 3.022 0 0 0-1.12.2 1.671 1.671 0 0 0-.76.59 1.477 1.477 0 0 0-.26.91 1.44 1.44 0 0 0 .26.91zm7.72-4.76h1.95v5.13h2.14v1.62h-2.14v5.38H211z" style="fill:#3f52fc" transform="translate(-169.53 198.87)"/>
        <path data-name="패스 5496" d="M230.44-143.34h-14.52v-1.62h3.85v-2.62h-2.13v-5.19h9.14v-1.95h-9.18v-1.58h11.11v5.1h-9.12v2.04h9.49v1.58h-2.32v2.62h3.67v1.62zm-5.59-1.62v-2.62h-3.18v2.62z" style="fill:#3f52fc" transform="translate(-169.53 198.87)"/>
    </g>
    <g data-name="그룹 3947">
        <path data-name="패스 5497" d="M307.63-102.1h-5.59v1.06h3.98v3.47h-8.03v1.03h8.42v1.33h-10.12v-3.61h8.03v-.91h-8.05v-1.31h4.03v-1.06h-5.55v-1.38h12.88v1.38zm-11.25-6.68h9.59v4.41h-9.59zm7.86 3.05v-1.69h-6.16v1.69z" style="fill:#3f52fc" transform="translate(-169.53 198.87)"/>
        <path data-name="패스 5498" d="M321.46-101.14h-5.59v1.36h4.03v4.52h-9.8v-4.52h4.05v-1.36h-5.56v-1.39h12.88v1.39zm-11.72-7.65h10.53v1.39h-1.94v2.42h1.86v1.41h-10.38v-1.41h1.86v-2.42h-1.94v-1.39zm8.47 12.12v-1.77h-6.39v1.77zm-1.62-8.31v-2.42h-3.17v2.42z" style="fill:#3f52fc" transform="translate(-169.53 198.87)"/>
        <path data-name="패스 5499" d="M326.96-106.56a3.431 3.431 0 0 1 1.38-1.26 4.164 4.164 0 0 1 1.93-.46 4.017 4.017 0 0 1 1.93.46 3.474 3.474 0 0 1 1.37 1.26 3.4 3.4 0 0 1 .5 1.81 3.443 3.443 0 0 1-.5 1.83 3.4 3.4 0 0 1-1.37 1.26 4.157 4.157 0 0 1-1.93.45 4.128 4.128 0 0 1-1.93-.45 3.5 3.5 0 0 1-1.38-1.26 3.355 3.355 0 0 1-.5-1.83 3.4 3.4 0 0 1 .5-1.81zm1.47 2.89a1.833 1.833 0 0 0 .75.71 2.276 2.276 0 0 0 1.09.25 2.223 2.223 0 0 0 1.07-.25 1.833 1.833 0 0 0 .75-.71 2.075 2.075 0 0 0 .27-1.07 2 2 0 0 0-.27-1.05 1.833 1.833 0 0 0-.75-.71 2.251 2.251 0 0 0-1.07-.25 2.332 2.332 0 0 0-1.09.25 1.833 1.833 0 0 0-.75.71 2.052 2.052 0 0 0-.27 1.05 2.1 2.1 0 0 0 .27 1.07zm.2 3.64h1.75v3.25h7.98v1.41h-9.73zm9.35 1.03h-1.75v-10.2h1.75z" style="fill:#3f52fc" transform="translate(-169.53 198.87)"/>
        <path data-name="패스 5500" d="M343.14-102.25a8.2 8.2 0 0 0 1.29-3.84h-3.78v-1.41h5.5a13.847 13.847 0 0 1-.15 2.08h1.65v-3.45h1.66v13.11h-1.66v-4.72h-2.2v-1.42h2.2v-2.1h-1.95a9.577 9.577 0 0 1-1.69 3.3 10.95 10.95 0 0 1-3.1 2.62l-1.02-1.23a9.66 9.66 0 0 0 3.25-2.94zm9.09 7.16h-1.66v-14.12h1.66z" style="fill:#3f52fc" transform="translate(-169.53 198.87)"/>
        <path data-name="패스 5501" d="M357.66-100.09h12.91v1.42h-5.62v3.59h-1.72v-3.59h-5.56v-1.42zm12.18-6.2H358.3v-1.41h4.92v-1.55h1.72v1.55h4.89v1.41zm-9.96 1.73a3.657 3.657 0 0 1 1.64-.81 10.625 10.625 0 0 1 2.57-.28 10.2 10.2 0 0 1 2.57.28 3.814 3.814 0 0 1 1.64.81 1.722 1.722 0 0 1 .57 1.3 1.722 1.722 0 0 1-.57 1.3 3.657 3.657 0 0 1-1.64.81 10.147 10.147 0 0 1-2.57.28 10.147 10.147 0 0 1-2.57-.28 3.706 3.706 0 0 1-1.64-.81 1.722 1.722 0 0 1-.57-1.3 1.654 1.654 0 0 1 .57-1.3zm1.97 2.12a6.386 6.386 0 0 0 2.18.28 7.237 7.237 0 0 0 2.27-.27c.51-.18.77-.46.78-.82-.01-.36-.26-.63-.77-.82a6.964 6.964 0 0 0-2.22-.28 6.608 6.608 0 0 0-2.22.28c-.5.19-.75.46-.75.82s.24.62.73.81z" style="fill:#3f52fc" transform="translate(-169.53 198.87)"/>
        <path data-name="패스 5502" d="M386.59-107.09c-.01.93-.03 1.73-.07 2.42a19.641 19.641 0 0 1-.3 2.35h1.95v1.41h-5.61v5.84h-1.75v-5.84h-5.52v-1.41h9.16a18.839 18.839 0 0 0 .33-2.33c.05-.7.07-1.46.07-2.3h-8.05v-1.41h9.78v1.27z" style="fill:#3f52fc" transform="translate(-169.53 198.87)"/>
        <path data-name="패스 5503" d="M389.55-107.68h5.55v8.95h-5.55zm3.93 7.58v-6.2h-2.3v6.2zm7.82 5.01h-1.67v-7.23h-1.5v6.55h-1.64v-13.19h1.64v5.2h1.5v-5.45h1.67z" style="fill:#3f52fc" transform="translate(-169.53 198.87)"/>
        <path data-name="패스 5504" d="M408.43-102.97a6.627 6.627 0 0 0 1.23 2.05 5.667 5.667 0 0 0 1.88 1.43l-.97 1.38a5.72 5.72 0 0 1-2.04-1.61 8.141 8.141 0 0 1-1.37-2.43 8.5 8.5 0 0 1-1.4 2.65 5.84 5.84 0 0 1-2.1 1.73l-1.02-1.36a5.481 5.481 0 0 0 1.91-1.49 7.1 7.1 0 0 0 1.26-2.18 7.262 7.262 0 0 0 .45-2.39v-1.19h-3.08v-1.44h7.77v1.44H408v1.19a6.116 6.116 0 0 0 .43 2.22zm3.84-6.24H414v5.5h2.17v1.45H414v7.17h-1.73z" style="fill:#3f52fc" transform="translate(-169.53 198.87)"/>
        <path data-name="패스 5505" d="M421.68-99.54c1.5-.06 2.93-.19 4.28-.38l.14 1.27a30.179 30.179 0 0 1-4.27.51c-1.45.08-3.04.11-4.78.11l-.22-1.42c1.73 0 3.35-.03 4.85-.09zm1.66-8.26a3.416 3.416 0 0 1 1.39 1.21 3.153 3.153 0 0 1 .51 1.76 3.33 3.33 0 0 1-.51 1.77 3.415 3.415 0 0 1-1.39 1.21 4.443 4.443 0 0 1-1.99.44 4.474 4.474 0 0 1-1.99-.44 3.438 3.438 0 0 1-1.39-1.22 3.237 3.237 0 0 1-.5-1.77 3.2 3.2 0 0 1 .5-1.76 3.415 3.415 0 0 1 1.39-1.21 4.426 4.426 0 0 1 1.98-.43 4.593 4.593 0 0 1 2 .44zm-3.87 3.99a1.719 1.719 0 0 0 .77.66 2.654 2.654 0 0 0 1.11.23 2.667 2.667 0 0 0 1.12-.23 1.87 1.87 0 0 0 .78-.66 1.812 1.812 0 0 0 .29-1.01 1.789 1.789 0 0 0-.29-1.01 1.8 1.8 0 0 0-.78-.66 2.522 2.522 0 0 0-1.12-.23 2.654 2.654 0 0 0-1.11.23 1.8 1.8 0 0 0-.77.67 1.772 1.772 0 0 0-.28 1 1.983 1.983 0 0 0 .28 1.01zm7.33-5.4h1.73v14.14h-1.73z" style="fill:#3f52fc" transform="translate(-169.53 198.87)"/>
        <path data-name="패스 5506" d="M435.15-106.56a3.431 3.431 0 0 1 1.38-1.26 4.164 4.164 0 0 1 1.93-.46 4.017 4.017 0 0 1 1.93.46 3.474 3.474 0 0 1 1.37 1.26 3.4 3.4 0 0 1 .5 1.81 3.443 3.443 0 0 1-.5 1.83 3.4 3.4 0 0 1-1.37 1.26 4.157 4.157 0 0 1-1.93.45 4.128 4.128 0 0 1-1.93-.45 3.5 3.5 0 0 1-1.38-1.26 3.355 3.355 0 0 1-.5-1.83 3.4 3.4 0 0 1 .5-1.81zm1.47 2.89a1.833 1.833 0 0 0 .75.71 2.276 2.276 0 0 0 1.09.25 2.223 2.223 0 0 0 1.07-.25 1.833 1.833 0 0 0 .75-.71 2.075 2.075 0 0 0 .27-1.07 2 2 0 0 0-.27-1.05 1.833 1.833 0 0 0-.75-.71 2.251 2.251 0 0 0-1.07-.25 2.332 2.332 0 0 0-1.09.25 1.833 1.833 0 0 0-.75.71 2.052 2.052 0 0 0-.27 1.05 2.1 2.1 0 0 0 .27 1.07zm.2 3.64h1.75v3.25h7.98v1.41h-9.73zm9.34 1.03h-1.75v-10.2h1.75z" style="fill:#3f52fc" transform="translate(-169.53 198.87)"/>
        <path data-name="패스 5507" d="M448.23-101.45h12.88v1.44h-5.61v4.92h-1.72v-4.92h-5.55v-1.44zm7.98-4.86a5.311 5.311 0 0 0 1.77 1.45 7.745 7.745 0 0 0 2.61.79l-.69 1.41a8.414 8.414 0 0 1-3.16-1.1 5.629 5.629 0 0 1-2.07-2.04 5.834 5.834 0 0 1-2.06 2.04 8.5 8.5 0 0 1-3.13 1.1l-.69-1.41a7.481 7.481 0 0 0 2.59-.79 5.229 5.229 0 0 0 1.76-1.44 2.852 2.852 0 0 0 .62-1.74v-.72h1.83v.72a2.786 2.786 0 0 0 .62 1.73z" style="fill:#3f52fc" transform="translate(-169.53 198.87)"/>
        <path data-name="패스 5508" d="M471.95-108.25a2.947 2.947 0 0 1 1.26 1 2.523 2.523 0 0 1 .46 1.48 2.619 2.619 0 0 1-.34 1.27 2.837 2.837 0 0 1-.93.96 3.75 3.75 0 0 1-1.38.53v1.14q1.98-.12 3.45-.33l.14 1.27a34.579 34.579 0 0 1-3.97.46c-1.39.08-2.81.12-4.28.12H466l-.19-1.39c1.3 0 2.45-.02 3.45-.05V-103a3.655 3.655 0 0 1-1.41-.52 2.7 2.7 0 0 1-.94-.96 2.543 2.543 0 0 1-.33-1.28 2.515 2.515 0 0 1 .45-1.48 2.977 2.977 0 0 1 1.25-1 4.46 4.46 0 0 1 1.83-.36 4.644 4.644 0 0 1 1.84.35zm-4.19 8.88h1.73v2.58h8.05v1.41h-9.78zm.69-5.59a1.517 1.517 0 0 0 .68.53 2.583 2.583 0 0 0 1 .19 2.2 2.2 0 0 0 1.38-.41 1.351 1.351 0 0 0 .53-1.1 1.357 1.357 0 0 0-.53-1.11 2.2 2.2 0 0 0-1.38-.41 2.586 2.586 0 0 0-1 .18 1.553 1.553 0 0 0-.68.52 1.309 1.309 0 0 0-.23.81 1.237 1.237 0 0 0 .23.8zm6.85-4.24h1.73v4.56h1.91v1.44h-1.91v4.78h-1.73z" style="fill:#3f52fc" transform="translate(-169.53 198.87)"/>
        <path data-name="패스 5509" d="M492.59-96.73h-12.91v-1.44h3.42v-2.33h-1.89v-4.61h8.12v-1.73h-8.16v-1.41h9.88v4.53h-8.11v1.81h8.44v1.41h-2.06v2.33h3.27zm-4.97-1.44v-2.33h-2.83v2.33z" style="fill:#3f52fc" transform="translate(-169.53 198.87)"/>
        <path data-name="패스 5510" d="M506.4-101.5h-12.91v-1.31h12.91zm-11.41.85h9.84v3.22h-8.09v.98h8.52v1.2h-10.25v-3.31h8.11v-.88H495v-1.21zm.1-8.25h9.72v3.19h-7.95v.92h8.2v1.19h-9.92v-3.23h7.94v-.86h-7.98v-1.21z" style="fill:#3f52fc" transform="translate(-169.53 198.87)"/>
        <path data-name="패스 5511" d="M515.33-102.08a8.222 8.222 0 0 0 1.61-4.26h-5v-1.38h6.77a11.327 11.327 0 0 1-1.52 5.91 11.372 11.372 0 0 1-5.05 4.22l-.91-1.39a10.833 10.833 0 0 0 4.1-3.1zm7.6 6.99h-1.75v-14.12h1.75z" style="fill:#3f52fc" transform="translate(-169.53 198.87)"/>
        <path data-name="패스 5512" d="M525.54-107.87h6.61v1.41h-4.88v6.48c1.15 0 2.18-.04 3.09-.11s1.84-.18 2.78-.34l.2 1.47a27.072 27.072 0 0 1-3.03.35c-1 .06-2.2.09-3.61.09h-1.17v-9.35zm10.48 4.02h2.17v1.42h-2.17v7.36h-1.73v-14.14h1.73z" style="fill:#3f52fc" transform="translate(-169.53 198.87)"/>
        <path data-name="패스 5513" d="M539.55-107.98h6.66v5.3h-4.86v2.84q1.77-.015 3.27-.12c1-.07 2.03-.2 3.08-.38l.16 1.42a30.556 30.556 0 0 1-3.23.39c-1.06.07-2.24.11-3.54.11h-1.51v-5.64h4.88v-2.52h-4.89v-1.4zm11 12.91h-1.72v-14.14h1.72z" style="fill:#3f52fc" transform="translate(-169.53 198.87)"/>
        <path data-name="패스 5514" d="M552.6-102.2h12.91v1.38H552.6zm1.55 2.63h1.73v2.75h8.27v1.41h-10zm9.9-4.27h-9.78v-4.86h1.72v3.48h8.06v1.38z" style="fill:#3f52fc" transform="translate(-169.53 198.87)"/>
        <path data-name="패스 5515" d="M575.62-105.25a4.115 4.115 0 0 0 1.13 1.45 5.149 5.149 0 0 0 1.81.97l-.94 1.36a5.4 5.4 0 0 1-1.94-1.12 5.411 5.411 0 0 1-1.29-1.74 5.774 5.774 0 0 1-1.32 1.99 5.443 5.443 0 0 1-2.05 1.26l-.94-1.36a5.163 5.163 0 0 0 1.88-1.1 4.744 4.744 0 0 0 1.15-1.64 4.992 4.992 0 0 0 .39-1.95v-1.34h1.73v1.5a4.2 4.2 0 0 0 .39 1.72zm-3.03 6.03a3.568 3.568 0 0 1 1.66-.91 9.174 9.174 0 0 1 2.55-.31 8.951 8.951 0 0 1 2.52.31 3.634 3.634 0 0 1 1.64.91 2.01 2.01 0 0 1 .57 1.43 2.04 2.04 0 0 1-.57 1.45 3.643 3.643 0 0 1-1.64.92 8.926 8.926 0 0 1-2.52.32 9.149 9.149 0 0 1-2.55-.32 3.721 3.721 0 0 1-1.66-.92 2.008 2.008 0 0 1-.58-1.45 1.978 1.978 0 0 1 .58-1.43zm1.94 2.41a6.092 6.092 0 0 0 2.26.33 5.975 5.975 0 0 0 2.24-.33 1.066 1.066 0 0 0 .78-.98c0-.42-.26-.74-.79-.96a5.925 5.925 0 0 0-2.23-.34 5.842 5.842 0 0 0-2.25.34c-.53.23-.8.55-.8.96a1.064 1.064 0 0 0 .79.98zm5.12-12.4h1.73v3.44h1.97v1.44h-1.97v3.58h-1.73z" style="fill:#3f52fc" transform="translate(-169.53 198.87)"/>
        <path data-name="패스 5516" d="M590.27-106.29h-4.03v2.31h3.78v1.36h-3.78v2.75c.92-.01 1.71-.04 2.37-.08s1.33-.11 2.02-.22l.14 1.42c-.75.12-1.48.21-2.2.26s-1.61.07-2.66.07h-1.33v-9.27h5.69zm1.22-2.67h1.64v5.3h1.45v-5.55h1.67v14.12h-1.67v-7.17h-1.45v6.48h-1.64z" style="fill:#3f52fc" transform="translate(-169.53 198.87)"/>
        <path data-name="패스 5517" d="M598.64-107a3.4 3.4 0 0 1 1.36-1.18 4.428 4.428 0 0 1 1.95-.42 4.428 4.428 0 0 1 1.95.42 3.263 3.263 0 0 1 1.36 1.18 3.086 3.086 0 0 1 .49 1.72 3 3 0 0 1-.49 1.7 3.221 3.221 0 0 1-1.36 1.16 4.428 4.428 0 0 1-1.95.42 4.4 4.4 0 0 1-1.95-.42 3.366 3.366 0 0 1-1.36-1.16 3.005 3.005 0 0 1-.5-1.7 3.177 3.177 0 0 1 .5-1.72zm1.48 2.7a1.764 1.764 0 0 0 .75.65 2.575 2.575 0 0 0 1.1.23 2.516 2.516 0 0 0 1.08-.23 1.764 1.764 0 0 0 .75-.65 1.78 1.78 0 0 0 .27-.98 1.78 1.78 0 0 0-.27-.98 1.764 1.764 0 0 0-.75-.65 2.516 2.516 0 0 0-1.08-.23 2.575 2.575 0 0 0-1.1.23 1.764 1.764 0 0 0-.75.65 1.78 1.78 0 0 0-.27.98 1.78 1.78 0 0 0 .27.98zm.2 3.32h1.72v1.45h5.89v-1.45h1.73v5.72h-9.34v-5.72zm7.61 4.31v-1.5h-5.89v1.5zm1.73-4.97h-1.75v-7.58h1.75z" style="fill:#3f52fc" transform="translate(-169.53 198.87)"/>
        <path data-name="패스 5518" d="M612.54-107.84h1.72v7.72a35.394 35.394 0 0 0 6.27-.64l.22 1.45a33.407 33.407 0 0 1-6.98.67h-1.22v-9.2zm10.97 12.75h-1.72v-14.12h1.72z" style="fill:#3f52fc" transform="translate(-169.53 198.87)"/>
        <path data-name="패스 5519" d="M626.13-107.87h6.61v1.41h-4.88v6.48c1.15 0 2.18-.04 3.09-.11s1.84-.18 2.78-.34l.2 1.47a27.072 27.072 0 0 1-3.03.35c-1 .06-2.2.09-3.61.09h-1.17v-9.35zm10.49 4.02h2.17v1.42h-2.17v7.36h-1.73v-14.14h1.73z" style="fill:#3f52fc" transform="translate(-169.53 198.87)"/>
        <path data-name="패스 5520" d="M640.49-96.52a1.214 1.214 0 0 1-.45-.45 1.184 1.184 0 0 1-.16-.61 1.174 1.174 0 0 1 .16-.6 1.265 1.265 0 0 1 .45-.44 1.184 1.184 0 0 1 .61-.16 1.174 1.174 0 0 1 .6.16 1.322 1.322 0 0 1 .44.44 1.149 1.149 0 0 1 .16.6 1.184 1.184 0 0 1-.16.61 1.266 1.266 0 0 1-.44.45 1.149 1.149 0 0 1-.6.16 1.1 1.1 0 0 1-.61-.16z" style="fill:#3f52fc" transform="translate(-169.53 198.87)"/>
        <path data-name="패스 5521" d="M658.48-107.09c-.01.93-.03 1.73-.07 2.42a19.635 19.635 0 0 1-.3 2.35h1.95v1.41h-5.61v5.84h-1.75v-5.84h-5.52v-1.41h9.16a18.846 18.846 0 0 0 .33-2.33c.05-.7.07-1.46.07-2.3h-8.05v-1.41h9.78v1.27z" style="fill:#3f52fc" transform="translate(-169.53 198.87)"/>
        <path data-name="패스 5522" d="M661.45-107.68H667v8.95h-5.55zm3.93 7.58v-6.2h-2.3v6.2zm7.82 5.01h-1.67v-7.23h-1.5v6.55h-1.64v-13.19h1.64v5.2h1.5v-5.45h1.67z" style="fill:#3f52fc" transform="translate(-169.53 198.87)"/>
        <path data-name="패스 5523" d="M680.32-102.97a6.628 6.628 0 0 0 1.23 2.05 5.666 5.666 0 0 0 1.88 1.43l-.97 1.38a5.72 5.72 0 0 1-2.04-1.61 8.141 8.141 0 0 1-1.37-2.43 8.5 8.5 0 0 1-1.4 2.65 5.84 5.84 0 0 1-2.1 1.73l-1.02-1.36a5.481 5.481 0 0 0 1.91-1.49 7.1 7.1 0 0 0 1.26-2.18 7.263 7.263 0 0 0 .45-2.39v-1.19h-3.08v-1.44h7.77v1.44h-2.95v1.19a6.569 6.569 0 0 0 .43 2.22zm3.85-6.24h1.73v5.5h2.17v1.45h-2.17v7.17h-1.73z" style="fill:#3f52fc" transform="translate(-169.53 198.87)"/>
        <path data-name="패스 5524" d="M692.58-102.09a8.309 8.309 0 0 0 1.66-4.22h-4.88v-1.44H696a10.572 10.572 0 0 1-6.42 10.11l-.98-1.34a11.15 11.15 0 0 0 3.98-3.11zm7.15-1.61h2.09v1.45h-2.09v7.12H698v-14.09h1.73z" style="fill:#3f52fc" transform="translate(-169.53 198.87)"/>
        <path data-name="패스 5525" d="M719.17-102.1h-5.59v1.06h3.98v3.47h-8.03v1.03h8.42v1.33h-10.12v-3.61h8.03v-.91h-8.05v-1.31h4.03v-1.06h-5.55v-1.38h12.88zm-11.25-6.68h9.59v4.41h-9.59zm7.86 3.05v-1.69h-6.16v1.69z" style="fill:#3f52fc" transform="translate(-169.53 198.87)"/>
        <path data-name="패스 5526" d="M733-101.14h-5.59v1.36h4.03v4.52h-9.8v-4.52h4.05v-1.36h-5.56v-1.39H733zm-11.72-7.65h10.53v1.39h-1.94v2.42h1.86v1.41h-10.38v-1.41h1.86v-2.42h-1.94v-1.39zm8.47 12.12v-1.77h-6.39v1.77zm-1.63-8.31v-2.42h-3.17v2.42z" style="fill:#3f52fc" transform="translate(-169.53 198.87)"/>
        <path data-name="패스 5527" d="M738.5-106.56a3.431 3.431 0 0 1 1.38-1.26 4.134 4.134 0 0 1 1.93-.46 4.017 4.017 0 0 1 1.93.46 3.474 3.474 0 0 1 1.37 1.26 3.4 3.4 0 0 1 .5 1.81 3.442 3.442 0 0 1-.5 1.83 3.4 3.4 0 0 1-1.37 1.26 4.157 4.157 0 0 1-1.93.45 4.128 4.128 0 0 1-1.93-.45 3.5 3.5 0 0 1-1.38-1.26 3.355 3.355 0 0 1-.5-1.83 3.4 3.4 0 0 1 .5-1.81zm1.47 2.89a1.833 1.833 0 0 0 .75.71 2.276 2.276 0 0 0 1.09.25 2.223 2.223 0 0 0 1.07-.25 1.833 1.833 0 0 0 .75-.71 2.075 2.075 0 0 0 .27-1.07 2 2 0 0 0-.27-1.05 1.833 1.833 0 0 0-.75-.71 2.251 2.251 0 0 0-1.07-.25 2.332 2.332 0 0 0-1.09.25 1.833 1.833 0 0 0-.75.71 2.052 2.052 0 0 0-.27 1.05 2.1 2.1 0 0 0 .27 1.07zm.2 3.64h1.75v3.25h7.98v1.41h-9.73zm9.35 1.03h-1.75v-10.2h1.75z" style="fill:#3f52fc" transform="translate(-169.53 198.87)"/>
        <path data-name="패스 5528" d="M751.58-101.45h12.88v1.44h-5.61v4.92h-1.72v-4.92h-5.55v-1.44zm7.98-4.86a5.311 5.311 0 0 0 1.77 1.45 7.745 7.745 0 0 0 2.61.79l-.69 1.41a8.414 8.414 0 0 1-3.16-1.1 5.63 5.63 0 0 1-2.07-2.04 5.834 5.834 0 0 1-2.06 2.04 8.5 8.5 0 0 1-3.13 1.1l-.69-1.41a7.481 7.481 0 0 0 2.59-.79 5.229 5.229 0 0 0 1.76-1.44 2.853 2.853 0 0 0 .62-1.74v-.72h1.83v.72a2.785 2.785 0 0 0 .62 1.73z" style="fill:#3f52fc" transform="translate(-169.53 198.87)"/>
        <path data-name="패스 5529" d="M778.3-101.5h-12.91v-1.31h12.91zm-11.41.85h9.84v3.22h-8.09v.98h8.52v1.2h-10.25v-3.31h8.11v-.88h-8.12v-1.21zm.09-8.25h9.72v3.19h-7.95v.92h8.2v1.19h-9.92v-3.23h7.94v-.86h-7.98v-1.21z" style="fill:#3f52fc" transform="translate(-169.53 198.87)"/>
        <path data-name="패스 5530" d="M782.95-107.04h3.34v-1.97h1.73v1.97h3.25v1.39h-8.33v-1.39zm1.11 3.92a3.143 3.143 0 0 1 1.27-1.18 3.929 3.929 0 0 1 1.84-.42 3.835 3.835 0 0 1 1.81.42 3.212 3.212 0 0 1 1.27 1.18 3.234 3.234 0 0 1 .46 1.72 3.264 3.264 0 0 1-.46 1.71 3.285 3.285 0 0 1-1.27 1.18 3.863 3.863 0 0 1-1.81.42 3.987 3.987 0 0 1-1.84-.42 3.081 3.081 0 0 1-1.27-1.18 3.083 3.083 0 0 1-.45-1.71 3.117 3.117 0 0 1 .45-1.72zm1.45 2.71a1.728 1.728 0 0 0 .68.66 2.125 2.125 0 0 0 .99.23 2.073 2.073 0 0 0 .97-.23 1.58 1.58 0 0 0 .67-.66 2.136 2.136 0 0 0 .25-.99 2.145 2.145 0 0 0-.25-1 1.726 1.726 0 0 0-.67-.67 1.927 1.927 0 0 0-.96-.24 2.015 2.015 0 0 0-.99.24 1.751 1.751 0 0 0-.68.67 2.027 2.027 0 0 0-.24 1 1.984 1.984 0 0 0 .23.99zm8.58-3.18h2.17v1.44h-2.17v7.06h-1.72v-14.12h1.72z" style="fill:#3f52fc" transform="translate(-169.53 198.87)"/>
        <path data-name="패스 5531" d="M804.11-106.9h2.84v-2.3h1.73v10.28h-1.73v-3.56h-2.84v1.22h-6.64v-6.77h6.64zm-1.72 4.28v-4.03h-3.19v4.03zm-3.01 2.75h1.77v3.09H809v1.41h-9.62zm7.57-4v-1.61h-2.84v1.61z" style="fill:#3f52fc" transform="translate(-169.53 198.87)"/>
        <path data-name="패스 5532" d="M818.38-102.1a8.375 8.375 0 0 0 1.53-4.23h-4.86v-1.38h6.61a13.156 13.156 0 0 1-.61 4.03 9.323 9.323 0 0 1-2 3.36 12.838 12.838 0 0 1-3.75 2.7l-.91-1.38a10.584 10.584 0 0 0 3.99-3.1zm7.93 7.01h-1.73v-7.19h-2.98v-1.42h2.98v-5.52h1.73z" style="fill:#3f52fc" transform="translate(-169.53 198.87)"/>
        <path data-name="패스 5533" d="M834.06-102.51h-3.66v2.75a48.7 48.7 0 0 0 2.26-.08 20.142 20.142 0 0 0 2.11-.25l.12 1.41a23.729 23.729 0 0 1-2.5.29c-.79.05-1.69.08-2.71.08h-.97v-5.61h3.66v-2.45h-3.67v-1.41h5.34v5.27zm1.56-6.44h1.59v5.16h1.59v-5.42h1.66v14.12h-1.66v-7.3h-1.59v6.58h-1.59z" style="fill:#3f52fc" transform="translate(-169.53 198.87)"/>
        <path data-name="패스 5534" d="M846.05-102.09a8.309 8.309 0 0 0 1.66-4.22h-4.88v-1.44h6.64a10.572 10.572 0 0 1-6.42 10.11l-.98-1.34a11.239 11.239 0 0 0 3.98-3.11zm7.15-1.61h2.09v1.45h-2.09v7.12h-1.73v-14.09h1.73z" style="fill:#3f52fc" transform="translate(-169.53 198.87)"/>
        <path data-name="패스 5535" d="M867.05-102.37h5.59v1.41h-12.88v-1.41h5.56v-1.8h1.72v1.8zm-4.41-2.87a5.158 5.158 0 0 0 1.59-.86 2.159 2.159 0 0 0 .75-1.09h-4.03v-1.39h10.55v1.39h-4.07a2.159 2.159 0 0 0 .75 1.09 5.164 5.164 0 0 0 1.59.87 9.162 9.162 0 0 0 2.28.48l-.62 1.36a8.907 8.907 0 0 1-3.28-.91 4.4 4.4 0 0 1-1.94-1.78 4.474 4.474 0 0 1-1.94 1.79 9.108 9.108 0 0 1-3.27.9l-.61-1.36a9.69 9.69 0 0 0 2.25-.49zm-.79 6.31a3.774 3.774 0 0 1 1.69-.84 10.7 10.7 0 0 1 2.64-.29 10.417 10.417 0 0 1 2.62.29 3.787 3.787 0 0 1 1.68.84 1.775 1.775 0 0 1 .59 1.34 1.786 1.786 0 0 1-.58 1.35 3.786 3.786 0 0 1-1.68.84 10.558 10.558 0 0 1-2.63.29 10.586 10.586 0 0 1-2.64-.29 3.774 3.774 0 0 1-1.69-.84 1.8 1.8 0 0 1-.59-1.35 1.827 1.827 0 0 1 .59-1.34zm1.97 2.22a7.068 7.068 0 0 0 2.36.3 7.055 7.055 0 0 0 2.34-.3c.54-.2.81-.49.82-.88s-.28-.66-.81-.85a7.378 7.378 0 0 0-2.34-.29 7.689 7.689 0 0 0-2.36.29c-.53.19-.8.47-.79.85-.01.39.25.68.78.88z" style="fill:#3f52fc" transform="translate(-169.53 198.87)"/>
        <path data-name="패스 5536" d="M886.5-96.73h-12.91v-1.44h3.42v-2.33h-1.89v-4.61h8.12v-1.73h-8.16v-1.41h9.88v4.53h-8.11v1.81h8.44v1.41h-2.06v2.33h3.27v1.44zm-4.97-1.44v-2.33h-2.83v2.33z" style="fill:#3f52fc" transform="translate(-169.53 198.87)"/>
        <path data-name="패스 5537" d="M891.25-102.7v-1.25h-2.58v-4.59h6.8v1.39h-5.05v1.84h5.16v1.36h-2.59v1.19c1.31-.07 2.47-.17 3.5-.3l.09 1.2a33.774 33.774 0 0 1-4.07.45c-1.39.07-2.99.12-4.82.14l-.23-1.39c1.44.01 2.7-.01 3.79-.04zm-1.55 2.24h1.73v1.23h6.06v-1.23h1.72v5.2h-9.52v-5.2zm7.8 3.79v-1.27h-6.06v1.27zm1.72-4.39h-1.75v-8.14h1.75z" style="fill:#3f52fc" transform="translate(-169.53 198.87)"/>
        <path data-name="패스 5538" d="M902.06-107.84h1.72v7.72a35.394 35.394 0 0 0 6.27-.64l.22 1.45a33.407 33.407 0 0 1-6.98.67h-1.22v-9.2zm10.97 12.75h-1.72v-14.12h1.72z" style="fill:#3f52fc" transform="translate(-169.53 198.87)"/>
        <path data-name="패스 5539" d="M915.66-107.87h6.61v1.41h-4.88v6.48c1.15 0 2.18-.04 3.09-.11s1.84-.18 2.78-.34l.2 1.47a27.072 27.072 0 0 1-3.03.35c-1 .06-2.2.09-3.61.09h-1.17v-9.35zm10.48 4.02h2.17v1.42h-2.17v7.36h-1.73v-14.14h1.73z" style="fill:#3f52fc" transform="translate(-169.53 198.87)"/>
        <path data-name="패스 5540" d="M930.02-96.52a1.214 1.214 0 0 1-.45-.45 1.184 1.184 0 0 1-.16-.61 1.174 1.174 0 0 1 .16-.6 1.265 1.265 0 0 1 .45-.44 1.184 1.184 0 0 1 .61-.16 1.174 1.174 0 0 1 .6.16 1.237 1.237 0 0 1 .44.44 1.149 1.149 0 0 1 .16.6 1.184 1.184 0 0 1-.16.61 1.266 1.266 0 0 1-.44.45 1.124 1.124 0 0 1-.6.16 1.074 1.074 0 0 1-.61-.16z" style="fill:#3f52fc" transform="translate(-169.53 198.87)"/>
    </g>
    <g data-name="그룹 3948">
        <path data-name="패스 5541" d="M276.01-88.56H203.6a7.793 7.793 0 0 1-7.79-7.79v-10.41a7.793 7.793 0 0 1 7.79-7.79h72.41a7.793 7.793 0 0 1 7.79 7.79v10.41a7.793 7.793 0 0 1-7.79 7.79z" style="fill:#3f52fc" transform="translate(-169.53 198.87)"/>
    </g>
    <g data-name="그룹 3949">
        <path data-name="패스 5542" d="M936.4-88.06H203.6a8.3 8.3 0 0 1-8.29-8.29v-10.41a8.3 8.3 0 0 1 8.29-8.29h732.8a8.3 8.3 0 0 1 8.29 8.29v10.41a8.288 8.288 0 0 1-8.29 8.29zm-732.8-26a7.3 7.3 0 0 0-7.29 7.29v10.41a7.3 7.3 0 0 0 7.29 7.29h732.8a7.3 7.3 0 0 0 7.29-7.29v-10.41a7.3 7.3 0 0 0-7.29-7.29H203.6z" style="fill:#3f52fc" transform="translate(-169.53 198.87)"/>
    </g>
    <g data-name="그룹 3950">
        <path data-name="패스 5543" d="M213.37-106.56a3.431 3.431 0 0 1 1.38-1.26 4.164 4.164 0 0 1 1.93-.46 4.016 4.016 0 0 1 1.93.46 3.474 3.474 0 0 1 1.37 1.26 3.4 3.4 0 0 1 .5 1.81 3.442 3.442 0 0 1-.5 1.83 3.4 3.4 0 0 1-1.37 1.26 4.157 4.157 0 0 1-1.93.45 4.128 4.128 0 0 1-1.93-.45 3.5 3.5 0 0 1-1.38-1.26 3.355 3.355 0 0 1-.5-1.83 3.229 3.229 0 0 1 .5-1.81zm1.47 2.89a1.833 1.833 0 0 0 .75.71 2.276 2.276 0 0 0 1.09.25 2.223 2.223 0 0 0 1.07-.25 1.833 1.833 0 0 0 .75-.71 2.075 2.075 0 0 0 .27-1.07 2 2 0 0 0-.27-1.05 1.833 1.833 0 0 0-.75-.71 2.251 2.251 0 0 0-1.07-.25 2.332 2.332 0 0 0-1.09.25 1.833 1.833 0 0 0-.75.71 2.052 2.052 0 0 0-.27 1.05 2.1 2.1 0 0 0 .27 1.07zm.2 3.64h1.75v3.25h7.98v1.41h-9.73zm9.34 1.03h-1.75v-10.2h1.75z" style="fill:#fff" transform="translate(-169.53 198.87)"/>
        <path data-name="패스 5544" d="M229.54-102.25a8.2 8.2 0 0 0 1.29-3.84h-3.78v-1.41h5.5a13.849 13.849 0 0 1-.15 2.08h1.65v-3.45h1.66v13.11h-1.66v-4.72h-2.2v-1.42h2.2v-2.1h-1.95a9.577 9.577 0 0 1-1.69 3.3 10.95 10.95 0 0 1-3.1 2.62l-1.02-1.23a9.659 9.659 0 0 0 3.25-2.94zm9.09 7.16h-1.66v-14.12h1.66z" style="fill:#fff" transform="translate(-169.53 198.87)"/>
        <path data-name="패스 5545" d="M246.36-108.25a2.947 2.947 0 0 1 1.26 1 2.523 2.523 0 0 1 .46 1.48 2.619 2.619 0 0 1-.34 1.27 2.837 2.837 0 0 1-.93.96 3.75 3.75 0 0 1-1.38.53v1.14q1.98-.12 3.45-.33l.14 1.27a34.579 34.579 0 0 1-3.97.46c-1.39.08-2.81.12-4.28.12h-.36l-.19-1.39c1.3 0 2.45-.02 3.45-.05V-103a3.655 3.655 0 0 1-1.41-.52 2.7 2.7 0 0 1-.94-.96 2.543 2.543 0 0 1-.33-1.28 2.516 2.516 0 0 1 .45-1.48 2.977 2.977 0 0 1 1.25-1 4.46 4.46 0 0 1 1.83-.36 4.575 4.575 0 0 1 1.84.35zm-4.18 8.88h1.73v2.58h8.05v1.41h-9.78zm.68-5.59a1.516 1.516 0 0 0 .68.53 2.584 2.584 0 0 0 1 .19 2.2 2.2 0 0 0 1.38-.41 1.351 1.351 0 0 0 .53-1.1 1.356 1.356 0 0 0-.53-1.11 2.2 2.2 0 0 0-1.38-.41 2.586 2.586 0 0 0-1 .18 1.553 1.553 0 0 0-.68.52 1.309 1.309 0 0 0-.23.81 1.3 1.3 0 0 0 .23.8zm6.86-4.24h1.73v4.56h1.91v1.44h-1.91v4.78h-1.73z" style="fill:#fff" transform="translate(-169.53 198.87)"/>
        <path data-name="패스 5546" d="M267-96.73h-12.9v-1.44h3.42v-2.33h-1.89v-4.61h8.12v-1.73h-8.16v-1.41h9.88v4.53h-8.11v1.81h8.44v1.41h-2.06v2.33H267zm-4.96-1.44v-2.33h-2.83v2.33z" style="fill:#fff" transform="translate(-169.53 198.87)"/>
    </g>
</svg>
