<svg xmlns="http://www.w3.org/2000/svg" width="815.58" height="110.78" viewBox="0 0 815.58 110.78">
    <g data-name="그룹 3896">
        <path data-name="패스 5338" d="M-306.94-182.66h-695.7c-1.19 0-2.15-1.57-2.15-3.5s.96-3.5 2.15-3.5h695.7c1.19 0 2.15 1.57 2.15 3.5s-.97 3.5-2.15 3.5z" style="fill:#f0f0f0" transform="translate(1068.52 198.87)"/>
    </g>
    <g data-name="그룹 3897">
        <path data-name="패스 5339" d="M-661.74-182.66h-372.94a3.517 3.517 0 0 1-3.53-3.5 3.517 3.517 0 0 1 3.53-3.5h372.94a3.517 3.517 0 0 1 3.53 3.5 3.517 3.517 0 0 1-3.53 3.5z" style="fill:#3f52fc" transform="translate(1068.52 198.87)"/>
    </g>
    <g data-name="그룹 3898">
        <path data-name="패스 5340" d="M-684.53-155.83a3.939 3.939 0 0 1 1.55-1.42 4.67 4.67 0 0 1 2.18-.51 4.67 4.67 0 0 1 2.18.51 3.845 3.845 0 0 1 1.54 1.42 3.811 3.811 0 0 1 .56 2.04 3.88 3.88 0 0 1-.56 2.06 3.776 3.776 0 0 1-1.54 1.42 4.67 4.67 0 0 1-2.18.51 4.67 4.67 0 0 1-2.18-.51 3.867 3.867 0 0 1-1.55-1.42 3.8 3.8 0 0 1-.57-2.06 3.781 3.781 0 0 1 .57-2.04zm1.65 3.25a2.025 2.025 0 0 0 .84.8 2.593 2.593 0 0 0 1.23.28 2.473 2.473 0 0 0 1.2-.28 2.086 2.086 0 0 0 .84-.8 2.381 2.381 0 0 0 .31-1.2 2.248 2.248 0 0 0-.31-1.19 2.112 2.112 0 0 0-.85-.8 2.528 2.528 0 0 0-1.2-.28 2.58 2.58 0 0 0-1.22.28 2.05 2.05 0 0 0-.85.8 2.338 2.338 0 0 0-.3 1.19 2.486 2.486 0 0 0 .31 1.2zm.22 4.1h1.97v3.66h8.98v1.58h-10.95v-5.24zm10.52 1.16h-1.97v-11.48h1.97z" style="fill:#3f52fc" transform="translate(1068.52 198.87)"/>
        <path data-name="패스 5341" d="M-669.82-150.08h14.48v1.62h-6.31v5.54h-1.93v-5.54h-6.24zm8.97-5.47a5.92 5.92 0 0 0 2 1.63 8.441 8.441 0 0 0 2.93.89l-.77 1.58a9.526 9.526 0 0 1-3.55-1.23 6.481 6.481 0 0 1-2.33-2.29 6.449 6.449 0 0 1-2.32 2.29 9.327 9.327 0 0 1-3.52 1.23l-.77-1.58a8.478 8.478 0 0 0 2.91-.89 5.8 5.8 0 0 0 1.98-1.62 3.224 3.224 0 0 0 .7-1.96v-.81h2.06v.81a3.072 3.072 0 0 0 .68 1.95z" style="fill:#3f52fc" transform="translate(1068.52 198.87)"/>
        <path data-name="패스 5342" d="M-653.77-156.93h5.94v1.58h-3.97v7.07c.92-.01 1.75-.05 2.5-.11a22.8 22.8 0 0 0 2.27-.3l.14 1.6a19.9 19.9 0 0 1-2.61.35c-.86.06-1.92.09-3.19.11h-1.07v-10.3zm13.18 14.01h-1.86v-8.1h-1.79v7.29h-1.79v-14.78h1.79v5.92h1.79v-6.22h1.86z" style="fill:#3f52fc" transform="translate(1068.52 198.87)"/>
        <path data-name="패스 5343" d="M-633.99-150.79a9.2 9.2 0 0 0 1.81-4.79h-5.62v-1.55h7.61a12.648 12.648 0 0 1-1.71 6.64 12.756 12.756 0 0 1-5.69 4.75l-1.02-1.56a12.119 12.119 0 0 0 4.62-3.49zm8.55 7.87h-1.97v-15.89h1.97z" style="fill:#3f52fc" transform="translate(1068.52 198.87)"/>
    </g>
    <g data-name="그룹 3899">
        <path data-name="패스 5344" d="M-331-150.82a9.433 9.433 0 0 0 1.72-4.76h-5.47v-1.55h7.44a14.746 14.746 0 0 1-.68 4.53 10.264 10.264 0 0 1-2.25 3.77 14.27 14.27 0 0 1-4.22 3.03l-1.02-1.53a11.711 11.711 0 0 0 4.48-3.49zm8.93 7.9h-1.95v-8.09h-3.36v-1.6h3.36v-6.21h1.95z" style="fill:#707070" transform="translate(1068.52 198.87)"/>
        <path data-name="패스 5345" d="M-313.35-151.27h-4.11v3.09c.93-.01 1.77-.04 2.54-.09a22.922 22.922 0 0 0 2.38-.28l.14 1.58c-.98.16-1.92.27-2.81.33s-1.9.09-3.05.09h-1.09v-6.31h4.11v-2.76h-4.13v-1.58h6.01v5.93zm1.75-7.25h1.79v5.8h1.79v-6.1h1.86v15.89h-1.86v-8.21h-1.79v7.4h-1.79z" style="fill:#707070" transform="translate(1068.52 198.87)"/>
        <path data-name="패스 5346" d="M-296.08-151.12h6.29v1.58h-14.48v-1.58h6.26v-2.02h1.93zm-4.96-3.23a5.715 5.715 0 0 0 1.78-.97 2.46 2.46 0 0 0 .84-1.23h-4.54v-1.56h11.87v1.56h-4.58a2.48 2.48 0 0 0 .84 1.23 5.693 5.693 0 0 0 1.79.98 10.315 10.315 0 0 0 2.56.54l-.7 1.53a10.33 10.33 0 0 1-3.69-1.02 4.919 4.919 0 0 1-2.18-2 4.934 4.934 0 0 1-2.18 2.01 10.218 10.218 0 0 1-3.67 1.02l-.69-1.53a11.173 11.173 0 0 0 2.55-.56zm-.88 7.11a4.284 4.284 0 0 1 1.9-.94 12.2 12.2 0 0 1 2.98-.33 11.485 11.485 0 0 1 2.95.33 4.405 4.405 0 0 1 1.89.94 1.994 1.994 0 0 1 .66 1.51 2.042 2.042 0 0 1-.65 1.52 4.247 4.247 0 0 1-1.89.95 11.567 11.567 0 0 1-2.96.33 11.787 11.787 0 0 1-2.98-.33 4.289 4.289 0 0 1-1.9-.95 2.015 2.015 0 0 1-.66-1.52 1.979 1.979 0 0 1 .66-1.51zm2.22 2.49a8.169 8.169 0 0 0 2.66.33 8.047 8.047 0 0 0 2.63-.33c.6-.22.91-.55.92-.98-.01-.42-.31-.74-.91-.95a8.662 8.662 0 0 0-2.64-.33 8.762 8.762 0 0 0-2.66.33c-.6.21-.9.53-.89.95-.01.43.29.76.89.98z" style="fill:#707070" transform="translate(1068.52 198.87)"/>
        <path data-name="패스 5347" d="M-274.19-144.77h-14.52v-1.62h3.85v-2.62h-2.13v-5.19h9.14v-1.95h-9.18v-1.58h11.11v5.1h-9.12v2.04h9.49v1.58h-2.32v2.62h3.67v1.62zm-5.59-1.62v-2.62h-3.18v2.62z" style="fill:#707070" transform="translate(1068.52 198.87)"/>
    </g>
    <g data-name="그룹 3900" transform="translate(1068.52 198.87)">
        <circle data-name="타원 165" cx="12.2" cy="12.2" r="12.2" transform="translate(-1050.41 -198.36)" style="fill:#3f52fc"/>
        <path data-name="패스 5348" d="M-1038.21-173.47a12.718 12.718 0 0 1-12.7-12.7 12.718 12.718 0 0 1 12.7-12.7 12.718 12.718 0 0 1 12.7 12.7 12.718 12.718 0 0 1-12.7 12.7zm0-24.39a11.715 11.715 0 0 0-11.7 11.7 11.715 11.715 0 0 0 11.7 11.7 11.715 11.715 0 0 0 11.7-11.7 11.715 11.715 0 0 0-11.7-11.7z" style="fill:#3f52fc"/>
    </g>
    <g data-name="그룹 3901">
        <path data-name="패스 5349" d="M-1036.86-179.74h-1.52v-10.5h-.07l-2.93 1.95v-1.52l3-2h1.52z" style="fill:#fff" transform="translate(1068.52 198.87)"/>
    </g>
    <g data-name="그룹 3902" transform="translate(1068.52 198.87)">
        <circle data-name="타원 166" cx="12.2" cy="12.2" r="12.2" transform="translate(-666.99 -198.36)" style="fill:#3f52fc"/>
        <path data-name="패스 5350" d="M-654.79-173.47a12.718 12.718 0 0 1-12.7-12.7 12.718 12.718 0 0 1 12.7-12.7 12.718 12.718 0 0 1 12.7 12.7 12.718 12.718 0 0 1-12.7 12.7zm0-24.39a11.715 11.715 0 0 0-11.7 11.7 11.715 11.715 0 0 0 11.7 11.7 11.715 11.715 0 0 0 11.7-11.7 11.721 11.721 0 0 0-11.7-11.7z" style="fill:#3f52fc"/>
    </g>
    <g data-name="그룹 3903">
        <path data-name="패스 5351" d="m-658.69-180.84 4.12-4.33c.54-.58.95-1.04 1.24-1.4a4.551 4.551 0 0 0 .65-1.02 2.446 2.446 0 0 0 .22-1.03 1.851 1.851 0 0 0-.32-1.07 2.1 2.1 0 0 0-.86-.72 2.835 2.835 0 0 0-1.22-.26 2.581 2.581 0 0 0-1.24.29 1.977 1.977 0 0 0-.82.8 2.371 2.371 0 0 0-.29 1.18h-1.42a3.492 3.492 0 0 1 .49-1.86 3.4 3.4 0 0 1 1.37-1.26 4.222 4.222 0 0 1 1.96-.45 4.188 4.188 0 0 1 1.93.44 3.346 3.346 0 0 1 1.34 1.21 3.142 3.142 0 0 1 .48 1.7 3.916 3.916 0 0 1-.25 1.32 5.731 5.731 0 0 1-.84 1.4 20.862 20.862 0 0 1-1.68 1.88l-2.77 2.85v.1h5.75v1.33h-7.84z" style="fill:#fff" transform="translate(1068.52 198.87)"/>
    </g>
    <g data-name="그룹 3904" transform="translate(1068.52 198.87)">
        <circle data-name="타원 167" cx="12.2" cy="12.2" r="12.2" transform="translate(-316.99 -198.36)" style="fill:#fff"/>
        <path data-name="패스 5352" d="M-304.79-173.47a12.718 12.718 0 0 1-12.7-12.7 12.718 12.718 0 0 1 12.7-12.7 12.718 12.718 0 0 1 12.7 12.7 12.718 12.718 0 0 1-12.7 12.7zm0-24.39a11.715 11.715 0 0 0-11.7 11.7 11.715 11.715 0 0 0 11.7 11.7 11.715 11.715 0 0 0 11.7-11.7 11.721 11.721 0 0 0-11.7-11.7z" style="fill:#707070"/>
    </g>
    <g data-name="그룹 3905">
        <path data-name="패스 5353" d="M-306.89-179.98a3.566 3.566 0 0 1-1.49-1.13 2.837 2.837 0 0 1-.58-1.67h1.52a1.68 1.68 0 0 0 .4.99 2.334 2.334 0 0 0 .95.65 3.693 3.693 0 0 0 1.32.23 3.56 3.56 0 0 0 1.42-.27 2.34 2.34 0 0 0 .98-.75 1.783 1.783 0 0 0 .35-1.1 2.042 2.042 0 0 0-.35-1.17 2.314 2.314 0 0 0-1-.8 3.979 3.979 0 0 0-1.58-.29h-.98v-1.32h.98a3.094 3.094 0 0 0 1.29-.26 2.054 2.054 0 0 0 .88-.73 1.876 1.876 0 0 0 .31-1.08 2 2 0 0 0-.27-1.05 1.918 1.918 0 0 0-.78-.71 2.638 2.638 0 0 0-1.19-.25 3.315 3.315 0 0 0-1.22.24 2.256 2.256 0 0 0-.93.66 1.661 1.661 0 0 0-.39 1h-1.45a2.807 2.807 0 0 1 .58-1.66 3.725 3.725 0 0 1 1.45-1.13 4.753 4.753 0 0 1 1.97-.4 4.155 4.155 0 0 1 1.95.44 3.213 3.213 0 0 1 1.29 1.18 2.937 2.937 0 0 1 .44 1.61 2.756 2.756 0 0 1-.54 1.74 2.869 2.869 0 0 1-1.51 1v.08a3.224 3.224 0 0 1 1.35.51 2.572 2.572 0 0 1 .87 1.01 3.106 3.106 0 0 1 .3 1.38 2.965 2.965 0 0 1-.55 1.76 3.678 3.678 0 0 1-1.5 1.24 5.015 5.015 0 0 1-2.15.45 5.374 5.374 0 0 1-2.14-.4z" style="fill:#707070" transform="translate(1068.52 198.87)"/>
    </g>
    <g data-name="그룹 3906">
        <path data-name="패스 5354" d="M-1067.96-154.89a3.654 3.654 0 0 1 1.53-1.32 5.039 5.039 0 0 1 2.2-.47 5.025 5.025 0 0 1 2.19.47 3.655 3.655 0 0 1 1.53 1.32 3.456 3.456 0 0 1 .55 1.93 3.39 3.39 0 0 1-.55 1.91 3.7 3.7 0 0 1-1.53 1.31 5.026 5.026 0 0 1-2.19.47 5.07 5.07 0 0 1-2.2-.47 3.7 3.7 0 0 1-1.53-1.31 3.4 3.4 0 0 1-.56-1.91 3.463 3.463 0 0 1 .56-1.93zm1.66 3.03a1.932 1.932 0 0 0 .84.73 2.848 2.848 0 0 0 1.23.26 2.758 2.758 0 0 0 1.21-.26 2 2 0 0 0 .84-.73 2.016 2.016 0 0 0 .3-1.1 2.015 2.015 0 0 0-.3-1.1 1.932 1.932 0 0 0-.84-.73 2.787 2.787 0 0 0-1.21-.25 2.816 2.816 0 0 0-1.23.25 2 2 0 0 0-.84.73 2.04 2.04 0 0 0-.3 1.1 2.04 2.04 0 0 0 .3 1.1zm.23 3.74h1.93v1.63h6.63v-1.63h1.95v6.43h-10.51zm8.56 4.85v-1.69h-6.63v1.69zm1.95-5.59h-1.97v-8.53h1.97z" style="fill:#3f52fc" transform="translate(1068.52 198.87)"/>
        <path data-name="패스 5355" d="M-1040.5-155.38v.49c0 .68-.03 1.34-.08 1.97a17.491 17.491 0 0 1-.31 2.06h2.16v1.58h-14.52v-1.58h10.38a15.419 15.419 0 0 0 .33-2.13c.05-.65.08-1.33.08-2.06h-9v-1.56h10.95v1.23zm-11 7.94h10.99v5.75h-10.99zm9.05 4.17v-2.64h-7.14v2.64z" style="fill:#3f52fc" transform="translate(1068.52 198.87)"/>
        <path data-name="패스 5356" d="M-1030.83-156.3a3.424 3.424 0 0 1 1.42 1.13 2.9 2.9 0 0 1 .52 1.67 2.843 2.843 0 0 1-.38 1.42 3.342 3.342 0 0 1-1.04 1.08 4.071 4.071 0 0 1-1.55.59v1.28c1.49-.09 2.78-.21 3.88-.37l.16 1.42a38.685 38.685 0 0 1-4.46.51c-1.56.09-3.16.14-4.82.14h-.4l-.21-1.56c1.46 0 2.76-.02 3.88-.05v-1.36a4.255 4.255 0 0 1-1.59-.58 3.124 3.124 0 0 1-1.06-1.08 2.809 2.809 0 0 1-.37-1.44 2.845 2.845 0 0 1 .51-1.67 3.392 3.392 0 0 1 1.41-1.13 4.982 4.982 0 0 1 2.06-.4 4.886 4.886 0 0 1 2.04.4zm-4.71 9.99h1.95v2.9h9.05v1.58h-11zm.77-6.3a1.76 1.76 0 0 0 .76.6 2.831 2.831 0 0 0 1.12.21 2.488 2.488 0 0 0 1.55-.47 1.5 1.5 0 0 0 .59-1.24 1.537 1.537 0 0 0-.59-1.25 2.424 2.424 0 0 0-1.55-.46 3.022 3.022 0 0 0-1.12.2 1.672 1.672 0 0 0-.76.59 1.477 1.477 0 0 0-.26.91 1.44 1.44 0 0 0 .26.91zm7.72-4.76h1.95v5.13h2.14v1.62h-2.14v5.38h-1.95z" style="fill:#3f52fc" transform="translate(1068.52 198.87)"/>
        <path data-name="패스 5357" d="M-1007.61-143.34h-14.52v-1.62h3.85v-2.62h-2.13v-5.19h9.14v-1.95h-9.18v-1.58h11.11v5.1h-9.12v2.04h9.49v1.58h-2.32v2.62h3.67v1.62zm-5.59-1.62v-2.62h-3.18v2.62z" style="fill:#3f52fc" transform="translate(1068.52 198.87)"/>
    </g>
    <g data-name="그룹 3907">
        <path data-name="패스 5358" d="M-961.54-106.59h-1.23v4.18q1.185-.1 1.8-.18l.12 1.28a35.3 35.3 0 0 1-4.03.43c-1.42.07-2.9.11-4.45.11l-.19-1.41c.32 0 .86 0 1.62-.02v-4.39h-1.25v-1.39h7.61v1.39zm-5.86 6.8h1.73v3.02h7.88v1.41h-9.61zm2.94-2.52v-4.28h-1.77v4.35c.59-.01 1.18-.04 1.77-.07zm4.38-6.89h1.73v4.08h1.97v1.45h-1.97v4.86h-1.73z" style="fill:#3f52fc" transform="translate(1068.52 198.87)"/>
        <path data-name="패스 5359" d="M-955.23-107.68h5.55v8.95h-5.55zm3.93 7.58v-6.2h-2.3v6.2zm7.82 5.01h-1.67v-7.23h-1.5v6.55h-1.64v-13.19h1.64v5.2h1.5v-5.45h1.67z" style="fill:#3f52fc" transform="translate(1068.52 198.87)"/>
        <path data-name="패스 5360" d="M-936.35-102.97a6.628 6.628 0 0 0 1.23 2.05 5.666 5.666 0 0 0 1.88 1.43l-.97 1.38a5.72 5.72 0 0 1-2.04-1.61 8.141 8.141 0 0 1-1.37-2.43 8.5 8.5 0 0 1-1.4 2.65 5.84 5.84 0 0 1-2.1 1.73l-1.02-1.36a5.481 5.481 0 0 0 1.91-1.49 7.1 7.1 0 0 0 1.26-2.18 7.263 7.263 0 0 0 .45-2.39v-1.19h-3.08v-1.44h7.77v1.44h-2.95v1.19a6.115 6.115 0 0 0 .43 2.22zm3.84-6.24h1.73v5.5h2.17v1.45h-2.17v7.17h-1.73z" style="fill:#3f52fc" transform="translate(1068.52 198.87)"/>
        <path data-name="패스 5361" d="M-924.1-102.09a8.309 8.309 0 0 0 1.66-4.22h-4.88v-1.44h6.64a10.572 10.572 0 0 1-6.42 10.11l-.98-1.34a11.15 11.15 0 0 0 3.98-3.11zm7.16-1.61h2.09v1.45h-2.09v7.12h-1.73v-14.09h1.73z" style="fill:#3f52fc" transform="translate(1068.52 198.87)"/>
        <path data-name="패스 5362" d="M-897.51-102.1h-5.59v1.06h3.98v3.47h-8.03v1.03h8.42v1.33h-10.12v-3.61h8.03v-.91h-8.05v-1.31h4.03v-1.06h-5.55v-1.38h12.88zm-11.25-6.68h9.59v4.41h-9.59zm7.86 3.05v-1.69h-6.16v1.69z" style="fill:#3f52fc" transform="translate(1068.52 198.87)"/>
        <path data-name="패스 5363" d="M-883.68-101.14h-5.59v1.36h4.03v4.52h-9.8v-4.52h4.05v-1.36h-5.56v-1.39h12.88v1.39zm-11.72-7.65h10.53v1.39h-1.94v2.42h1.86v1.41h-10.38v-1.41h1.86v-2.42h-1.94v-1.39zm8.47 12.12v-1.77h-6.39v1.77zm-1.62-8.31v-2.42h-3.17v2.42z" style="fill:#3f52fc" transform="translate(1068.52 198.87)"/>
        <path data-name="패스 5364" d="M-878.17-106.56a3.431 3.431 0 0 1 1.38-1.26 4.164 4.164 0 0 1 1.93-.46 4.017 4.017 0 0 1 1.93.46 3.474 3.474 0 0 1 1.37 1.26 3.4 3.4 0 0 1 .5 1.81 3.442 3.442 0 0 1-.5 1.83 3.4 3.4 0 0 1-1.37 1.26 4.157 4.157 0 0 1-1.93.45 4.128 4.128 0 0 1-1.93-.45 3.5 3.5 0 0 1-1.38-1.26 3.355 3.355 0 0 1-.5-1.83 3.229 3.229 0 0 1 .5-1.81zm1.46 2.89a1.833 1.833 0 0 0 .75.71 2.276 2.276 0 0 0 1.09.25 2.223 2.223 0 0 0 1.07-.25 1.833 1.833 0 0 0 .75-.71 2.075 2.075 0 0 0 .27-1.07 2 2 0 0 0-.27-1.05 1.833 1.833 0 0 0-.75-.71 2.251 2.251 0 0 0-1.07-.25 2.332 2.332 0 0 0-1.09.25 1.833 1.833 0 0 0-.75.71 2.052 2.052 0 0 0-.27 1.05 2.1 2.1 0 0 0 .27 1.07zm.2 3.64h1.75v3.25h7.98v1.41h-9.73zm9.35 1.03h-1.75v-10.2h1.75z" style="fill:#3f52fc" transform="translate(1068.52 198.87)"/>
        <path data-name="패스 5365" d="M-862-102.25a8.2 8.2 0 0 0 1.29-3.84h-3.78v-1.41h5.5a13.843 13.843 0 0 1-.15 2.08h1.65v-3.45h1.66v13.11h-1.66v-4.72h-2.2v-1.42h2.2v-2.1h-1.95a9.576 9.576 0 0 1-1.69 3.3 10.951 10.951 0 0 1-3.1 2.62l-1.02-1.23a9.659 9.659 0 0 0 3.25-2.94zm9.09 7.16h-1.66v-14.12h1.66z" style="fill:#3f52fc" transform="translate(1068.52 198.87)"/>
        <path data-name="패스 5366" d="M-838.38-101.5h-12.91v-1.31h12.91zm-11.41.85h9.84v3.22h-8.09v.98h8.52v1.2h-10.25v-3.31h8.11v-.88h-8.12v-1.21zm.1-8.25h9.72v3.19h-7.95v.92h8.2v1.19h-9.92v-3.23h7.94v-.86h-7.98v-1.21z" style="fill:#3f52fc" transform="translate(1068.52 198.87)"/>
        <path data-name="패스 5367" d="M-827.55-108.25a2.947 2.947 0 0 1 1.26 1 2.523 2.523 0 0 1 .46 1.48 2.619 2.619 0 0 1-.34 1.27 2.837 2.837 0 0 1-.93.96 3.75 3.75 0 0 1-1.38.53v1.14q1.98-.12 3.45-.33l.14 1.27a34.58 34.58 0 0 1-3.97.46c-1.39.08-2.81.12-4.28.12h-.36l-.19-1.39c1.3 0 2.45-.02 3.45-.05V-103a3.655 3.655 0 0 1-1.41-.52 2.7 2.7 0 0 1-.94-.96 2.543 2.543 0 0 1-.33-1.28 2.516 2.516 0 0 1 .45-1.48 2.977 2.977 0 0 1 1.25-1 4.46 4.46 0 0 1 1.83-.36 4.644 4.644 0 0 1 1.84.35zm-4.19 8.88h1.73v2.58h8.05v1.41h-9.78v-3.99zm.69-5.59a1.516 1.516 0 0 0 .68.53 2.583 2.583 0 0 0 1 .19 2.2 2.2 0 0 0 1.38-.41 1.351 1.351 0 0 0 .53-1.1 1.356 1.356 0 0 0-.53-1.11 2.2 2.2 0 0 0-1.38-.41 2.586 2.586 0 0 0-1 .18 1.553 1.553 0 0 0-.68.52 1.309 1.309 0 0 0-.23.81 1.237 1.237 0 0 0 .23.8zm6.86-4.24h1.73v4.56h1.91v1.44h-1.91v4.78h-1.73z" style="fill:#3f52fc" transform="translate(1068.52 198.87)"/>
        <path data-name="패스 5368" d="M-806.91-96.73h-12.91v-1.44h3.42v-2.33h-1.89v-4.61h8.12v-1.73h-8.16v-1.41h9.88v4.53h-8.11v1.81h8.44v1.41h-2.06v2.33h3.27v1.44zm-4.97-1.44v-2.33h-2.83v2.33z" style="fill:#3f52fc" transform="translate(1068.52 198.87)"/>
        <path data-name="패스 5369" d="M-806.07-107.04h3.34v-1.97h1.73v1.97h3.25v1.39h-8.33v-1.39zm1.11 3.92a3.143 3.143 0 0 1 1.27-1.18 3.929 3.929 0 0 1 1.84-.42 3.835 3.835 0 0 1 1.81.42 3.212 3.212 0 0 1 1.27 1.18 3.234 3.234 0 0 1 .46 1.72 3.264 3.264 0 0 1-.46 1.71 3.285 3.285 0 0 1-1.27 1.18 3.863 3.863 0 0 1-1.81.42 3.987 3.987 0 0 1-1.84-.42 3.081 3.081 0 0 1-1.27-1.18 3.083 3.083 0 0 1-.45-1.71 3.117 3.117 0 0 1 .45-1.72zm1.45 2.71a1.728 1.728 0 0 0 .68.66 2.125 2.125 0 0 0 .99.23 2.073 2.073 0 0 0 .97-.23 1.58 1.58 0 0 0 .67-.66 2.136 2.136 0 0 0 .25-.99 2.145 2.145 0 0 0-.25-1 1.726 1.726 0 0 0-.67-.67 1.927 1.927 0 0 0-.96-.24 2.015 2.015 0 0 0-.99.24 1.751 1.751 0 0 0-.68.67 2.027 2.027 0 0 0-.24 1 1.884 1.884 0 0 0 .23.99zm8.58-3.18h2.17v1.44h-2.17v7.06h-1.72v-14.12h1.72z" style="fill:#3f52fc" transform="translate(1068.52 198.87)"/>
        <path data-name="패스 5370" d="M-786.58-107.67a3.7 3.7 0 0 1 1.24 1.45h3.3v-2.98h1.72v14.14h-1.72v-5.34h-3.18a3.8 3.8 0 0 1-1.27 1.64 3.015 3.015 0 0 1-1.82.58 3.075 3.075 0 0 1-1.89-.61 3.906 3.906 0 0 1-1.28-1.75 7.115 7.115 0 0 1-.46-2.64 6.865 6.865 0 0 1 .46-2.63 3.873 3.873 0 0 1 1.29-1.74 3.066 3.066 0 0 1 1.88-.61 2.914 2.914 0 0 1 1.73.49zm-3.43 6.32a2.631 2.631 0 0 0 .68 1.18 1.477 1.477 0 0 0 1.03.41 1.5 1.5 0 0 0 1.03-.41 2.552 2.552 0 0 0 .69-1.18 6.25 6.25 0 0 0 .25-1.84 5.934 5.934 0 0 0-.25-1.84 2.64 2.64 0 0 0-.69-1.18 1.5 1.5 0 0 0-1.03-.41 1.5 1.5 0 0 0-1.03.41 2.687 2.687 0 0 0-.68 1.18 6.153 6.153 0 0 0-.24 1.83 5.691 5.691 0 0 0 .24 1.85zm5.32-1.85a7.7 7.7 0 0 1-.12 1.38h2.77v-2.98h-2.81a8.111 8.111 0 0 1 .16 1.6z" style="fill:#3f52fc" transform="translate(1068.52 198.87)"/>
        <path data-name="패스 5371" d="M-773.78-106.56a3.431 3.431 0 0 1 1.38-1.26 4.164 4.164 0 0 1 1.93-.46 4.017 4.017 0 0 1 1.93.46 3.474 3.474 0 0 1 1.37 1.26 3.4 3.4 0 0 1 .5 1.81 3.442 3.442 0 0 1-.5 1.83 3.4 3.4 0 0 1-1.37 1.26 4.157 4.157 0 0 1-1.93.45 4.128 4.128 0 0 1-1.93-.45 3.5 3.5 0 0 1-1.38-1.26 3.355 3.355 0 0 1-.5-1.83 3.23 3.23 0 0 1 .5-1.81zm1.46 2.89a1.833 1.833 0 0 0 .75.71 2.276 2.276 0 0 0 1.09.25 2.223 2.223 0 0 0 1.07-.25 1.833 1.833 0 0 0 .75-.71 2.075 2.075 0 0 0 .27-1.07 2 2 0 0 0-.27-1.05 1.833 1.833 0 0 0-.75-.71 2.251 2.251 0 0 0-1.07-.25 2.332 2.332 0 0 0-1.09.25 1.833 1.833 0 0 0-.75.71 2.052 2.052 0 0 0-.27 1.05 2.206 2.206 0 0 0 .27 1.07zm.2 3.64h1.75v3.25h7.98v1.41h-9.73zm9.35 1.03h-1.75v-10.2h1.75z" style="fill:#3f52fc" transform="translate(1068.52 198.87)"/>
        <path data-name="패스 5372" d="M-760.71-101.45h12.88v1.44h-5.61v4.92h-1.72v-4.92h-5.55v-1.44zm7.98-4.86a5.311 5.311 0 0 0 1.77 1.45 7.745 7.745 0 0 0 2.61.79l-.69 1.41a8.414 8.414 0 0 1-3.16-1.1 5.63 5.63 0 0 1-2.07-2.04 5.834 5.834 0 0 1-2.06 2.04 8.5 8.5 0 0 1-3.13 1.1l-.69-1.41a7.481 7.481 0 0 0 2.59-.79 5.229 5.229 0 0 0 1.76-1.44 2.853 2.853 0 0 0 .62-1.74v-.72h1.83v.72a2.784 2.784 0 0 0 .62 1.73z" style="fill:#3f52fc" transform="translate(1068.52 198.87)"/>
        <path data-name="패스 5373" d="M-739.65-101.38v-.87a3.69 3.69 0 0 1-1.88-.7 1.637 1.637 0 0 1-.68-1.37 1.642 1.642 0 0 1 .42-1.12 2.655 2.655 0 0 1 1.19-.73 5.69 5.69 0 0 1 1.79-.25 5.69 5.69 0 0 1 1.79.25 2.655 2.655 0 0 1 1.19.73 1.642 1.642 0 0 1 .42 1.12 1.662 1.662 0 0 1-.67 1.36 3.722 3.722 0 0 1-1.84.7v.81c1.35-.07 2.53-.17 3.55-.3l.14 1.2a34.09 34.09 0 0 1-4.13.46c-1.42.07-2.98.11-4.66.11l-.19-1.36c1.31 0 2.5-.01 3.56-.04zm-3.2-6.71h3.2v-1.23h1.73v1.23h3.17v1.28h-8.11v-1.28zm1.42 9.05h9.53v3.95h-1.73v-2.59h-7.8v-1.36zm1.35-4.57a2.588 2.588 0 0 0 1.28.24 2.706 2.706 0 0 0 1.28-.24.778.778 0 0 0 .47-.7.751.751 0 0 0-.45-.69 2.726 2.726 0 0 0-1.26-.23 3.1 3.1 0 0 0-1.32.23.7.7 0 0 0-.45.69.712.712 0 0 0 .45.7zm8.18-1.48h1.91v1.44h-1.91v4h-1.73v-9.55h1.73z" style="fill:#3f52fc" transform="translate(1068.52 198.87)"/>
        <path data-name="패스 5374" d="M-727.42-103.32a4.687 4.687 0 0 0 1.18-1.61 4.469 4.469 0 0 0 .4-1.85v-.11h-2.94v-1.41h7.62v1.41h-2.92v.09a4.084 4.084 0 0 0 .38 1.7 4.4 4.4 0 0 0 1.13 1.48 5.217 5.217 0 0 0 1.81 1.01l-.88 1.38a5.408 5.408 0 0 1-1.98-1.15 5.553 5.553 0 0 1-1.32-1.79 6.051 6.051 0 0 1-1.36 2.02 5.728 5.728 0 0 1-2.12 1.3l-.91-1.38a5.113 5.113 0 0 0 1.91-1.09zm.98 4.1a3.828 3.828 0 0 1 1.66-.93 9.249 9.249 0 0 1 2.57-.32 9.375 9.375 0 0 1 2.58.32 3.76 3.76 0 0 1 1.67.92 1.991 1.991 0 0 1 .58 1.45 2.008 2.008 0 0 1-.58 1.45 3.705 3.705 0 0 1-1.67.92 9.273 9.273 0 0 1-2.58.32 9.249 9.249 0 0 1-2.57-.32 3.637 3.637 0 0 1-1.66-.93 1.936 1.936 0 0 1-.57-1.44 2.051 2.051 0 0 1 .57-1.44zm1.94 2.44a5.817 5.817 0 0 0 2.25.35 6.2 6.2 0 0 0 2.33-.34c.54-.23.81-.56.81-1a1.118 1.118 0 0 0-.8-1.01 5.972 5.972 0 0 0-2.29-.35 5.951 5.951 0 0 0-2.28.35 1.1 1.1 0 0 0-.8 1.01q-.015.645.78.99zm7.07-4.04h-1.73v-3.45h-2.41v-1.42h2.41v-3.52h1.73z" style="fill:#3f52fc" transform="translate(1068.52 198.87)"/>
        <path data-name="패스 5375" d="M-714.51-105.82a4.013 4.013 0 0 1 1.31-1.75 3.154 3.154 0 0 1 1.91-.61 3.116 3.116 0 0 1 1.89.61 4.048 4.048 0 0 1 1.32 1.75 6.691 6.691 0 0 1 .48 2.62 6.689 6.689 0 0 1-.48 2.64 4.048 4.048 0 0 1-1.32 1.75 3.116 3.116 0 0 1-1.89.61 3.154 3.154 0 0 1-1.91-.61 3.956 3.956 0 0 1-1.31-1.75 6.913 6.913 0 0 1-.47-2.64 6.844 6.844 0 0 1 .47-2.62zm1.46 4.47a2.572 2.572 0 0 0 .71 1.18 1.525 1.525 0 0 0 1.05.41 1.543 1.543 0 0 0 1.05-.41 2.562 2.562 0 0 0 .7-1.18 5.934 5.934 0 0 0 .25-1.84 5.824 5.824 0 0 0-.25-1.83 2.707 2.707 0 0 0-.7-1.18 1.525 1.525 0 0 0-1.05-.41 1.525 1.525 0 0 0-1.05.41 2.718 2.718 0 0 0-.71 1.18 5.824 5.824 0 0 0-.25 1.83 5.934 5.934 0 0 0 .25 1.84zm9.37 6.28h-1.75v-14.14h1.75z" style="fill:#3f52fc" transform="translate(1068.52 198.87)"/>
        <path data-name="패스 5376" d="M-695.96-103.68v-3.28h-1.23v-1.34h7.67v1.34h-1.27v3.07q.9-.06 1.86-.18l.08 1.25a56.741 56.741 0 0 1-8.53.53l-.19-1.38c.32 0 .86 0 1.61-.01zm.47 2.34h9.47v3.64h-7.72v1.11h8.17v1.38h-9.89v-3.75h7.72v-1.02h-7.75v-1.36zm3.05-2.45v-3.17h-1.84v3.24c.61-.02 1.22-.04 1.84-.07zm6.42 1.86h-1.73v-7.28h1.73z" style="fill:#3f52fc" transform="translate(1068.52 198.87)"/>
        <path data-name="패스 5377" d="M-671.07-96.81h-12.91v-1.42h2.98v-3.57a3.707 3.707 0 0 1-1.33-1.24 2.945 2.945 0 0 1-.46-1.67 3.065 3.065 0 0 1 .67-1.96 4.378 4.378 0 0 1 1.86-1.31 7.424 7.424 0 0 1 2.7-.46 7.62 7.62 0 0 1 2.71.46 4.448 4.448 0 0 1 1.88 1.31 3.074 3.074 0 0 1 .68 1.96 3.087 3.087 0 0 1-.45 1.64 3.757 3.757 0 0 1-1.3 1.23v3.61h2.97v1.42zm-9.57-6.66a2.731 2.731 0 0 0 1.24.82 5.485 5.485 0 0 0 1.85.29 5.587 5.587 0 0 0 1.86-.29 2.884 2.884 0 0 0 1.26-.82 1.883 1.883 0 0 0 .45-1.25 1.909 1.909 0 0 0-.45-1.26 2.8 2.8 0 0 0-1.26-.82 5.6 5.6 0 0 0-1.86-.28 5.6 5.6 0 0 0-1.86.28 2.73 2.73 0 0 0-1.24.82 1.954 1.954 0 0 0-.44 1.26 1.916 1.916 0 0 0 .45 1.25zm4.84 5.24v-2.95a8.24 8.24 0 0 1-1.75.18 8.878 8.878 0 0 1-1.72-.17v2.94h3.47z" style="fill:#3f52fc" transform="translate(1068.52 198.87)"/>
        <path data-name="패스 5378" d="M-670.13-107.64h3.33v-1.58h1.73v1.58h3.31v1.39h-8.38v-1.39zm1.15 3.26a2.763 2.763 0 0 1 1.23-.95 4.657 4.657 0 0 1 1.8-.34 4.4 4.4 0 0 1 1.79.34 2.788 2.788 0 0 1 1.22.95 2.394 2.394 0 0 1 .44 1.42 2.333 2.333 0 0 1-.44 1.4 2.844 2.844 0 0 1-1.22.94 4.587 4.587 0 0 1-1.8.33 4.639 4.639 0 0 1-1.81-.33 2.77 2.77 0 0 1-1.22-.94 2.333 2.333 0 0 1-.44-1.4 2.548 2.548 0 0 1 .45-1.42zm.93 4.9h1.73v2.7h7.88v1.41h-9.61zm.8-2.51a2.168 2.168 0 0 0 1.29.35 2.268 2.268 0 0 0 1.32-.35 1.132 1.132 0 0 0 .5-.98 1.183 1.183 0 0 0-.49-1 2.087 2.087 0 0 0-1.3-.36 2.132 2.132 0 0 0-1.3.36 1.128 1.128 0 0 0-.48 1 1.078 1.078 0 0 0 .46.98zm8.24-2.77h1.97v1.44h-1.97v4.67h-1.73v-10.55h1.73z" style="fill:#3f52fc" transform="translate(1068.52 198.87)"/>
        <path data-name="패스 5379" d="M-647.14-105.25a4.115 4.115 0 0 0 1.13 1.45 5.149 5.149 0 0 0 1.81.97l-.94 1.36a5.4 5.4 0 0 1-1.94-1.12 5.411 5.411 0 0 1-1.29-1.74 5.774 5.774 0 0 1-1.32 1.99 5.443 5.443 0 0 1-2.05 1.26l-.94-1.36a5.163 5.163 0 0 0 1.88-1.1 4.744 4.744 0 0 0 1.15-1.64 4.992 4.992 0 0 0 .39-1.95v-1.34h1.73v1.5a4.046 4.046 0 0 0 .39 1.72zm-3.04 6.03a3.619 3.619 0 0 1 1.66-.91 9.174 9.174 0 0 1 2.55-.31 8.951 8.951 0 0 1 2.52.31 3.634 3.634 0 0 1 1.64.91 2.01 2.01 0 0 1 .57 1.43 2.04 2.04 0 0 1-.57 1.45 3.643 3.643 0 0 1-1.64.92 8.926 8.926 0 0 1-2.52.32 9.149 9.149 0 0 1-2.55-.32 3.721 3.721 0 0 1-1.66-.92 2.008 2.008 0 0 1-.58-1.45 2.02 2.02 0 0 1 .58-1.43zm1.95 2.41a6.092 6.092 0 0 0 2.26.33 5.975 5.975 0 0 0 2.24-.33 1.066 1.066 0 0 0 .78-.98c0-.42-.26-.74-.79-.96a5.925 5.925 0 0 0-2.23-.34 5.842 5.842 0 0 0-2.25.34c-.53.23-.8.55-.8.96a1.064 1.064 0 0 0 .79.98zm5.11-12.4h1.73v3.44h1.97v1.44h-1.97v3.58h-1.73z" style="fill:#3f52fc" transform="translate(1068.52 198.87)"/>
        <path data-name="패스 5380" d="M-632.49-106.29h-4.03v2.31h3.78v1.36h-3.78v2.75c.92-.01 1.71-.04 2.37-.08s1.33-.11 2.02-.22l.14 1.42c-.75.12-1.48.21-2.2.26s-1.61.07-2.66.07h-1.33v-9.27h5.69zm1.22-2.67h1.64v5.3h1.45v-5.55h1.67v14.12h-1.67v-7.17h-1.45v6.48h-1.64z" style="fill:#3f52fc" transform="translate(1068.52 198.87)"/>
        <path data-name="패스 5381" d="M-624.12-107a3.4 3.4 0 0 1 1.36-1.18 4.428 4.428 0 0 1 1.95-.42 4.428 4.428 0 0 1 1.95.42 3.263 3.263 0 0 1 1.36 1.18 3.086 3.086 0 0 1 .49 1.72 3 3 0 0 1-.49 1.7 3.221 3.221 0 0 1-1.36 1.16 4.428 4.428 0 0 1-1.95.42 4.4 4.4 0 0 1-1.95-.42 3.366 3.366 0 0 1-1.36-1.16 3.005 3.005 0 0 1-.5-1.7 3.094 3.094 0 0 1 .5-1.72zm1.47 2.7a1.764 1.764 0 0 0 .75.65 2.575 2.575 0 0 0 1.1.23 2.516 2.516 0 0 0 1.08-.23 1.764 1.764 0 0 0 .75-.65 1.78 1.78 0 0 0 .27-.98 1.78 1.78 0 0 0-.27-.98 1.764 1.764 0 0 0-.75-.65 2.516 2.516 0 0 0-1.08-.23 2.575 2.575 0 0 0-1.1.23 1.764 1.764 0 0 0-.75.65 1.78 1.78 0 0 0-.27.98 1.966 1.966 0 0 0 .27.98zm.21 3.32h1.72v1.45h5.89v-1.45h1.73v5.72h-9.34v-5.72zm7.61 4.31v-1.5h-5.89v1.5zm1.73-4.97h-1.75v-7.58h1.75z" style="fill:#3f52fc" transform="translate(1068.52 198.87)"/>
        <path data-name="패스 5382" d="M-610.23-107.84h1.72v7.72a35.394 35.394 0 0 0 6.27-.64l.22 1.45a33.407 33.407 0 0 1-6.98.67h-1.22v-9.2zm10.97 12.75h-1.72v-14.12h1.72z" style="fill:#3f52fc" transform="translate(1068.52 198.87)"/>
        <path data-name="패스 5383" d="M-596.63-107.87h6.61v1.41h-4.88v6.48c1.15 0 2.18-.04 3.09-.11s1.84-.18 2.78-.34l.2 1.47a27.072 27.072 0 0 1-3.03.35c-1 .06-2.2.09-3.61.09h-1.17v-9.35zm10.48 4.02h2.17v1.42h-2.17v7.36h-1.73v-14.14h1.73z" style="fill:#3f52fc" transform="translate(1068.52 198.87)"/>
        <path data-name="패스 5384" d="M-582.27-96.52a1.214 1.214 0 0 1-.45-.45 1.184 1.184 0 0 1-.16-.61 1.174 1.174 0 0 1 .16-.6 1.265 1.265 0 0 1 .45-.44 1.184 1.184 0 0 1 .61-.16 1.174 1.174 0 0 1 .6.16 1.322 1.322 0 0 1 .44.44 1.149 1.149 0 0 1 .16.6 1.184 1.184 0 0 1-.16.61 1.266 1.266 0 0 1-.44.45 1.149 1.149 0 0 1-.6.16 1.1 1.1 0 0 1-.61-.16z" style="fill:#3f52fc" transform="translate(1068.52 198.87)"/>
        <path data-name="패스 5385" d="M-562.7-102.1h-5.59v1.06h3.98v3.47h-8.03v1.03h8.42v1.33h-10.12v-3.61h8.03v-.91h-8.05v-1.31h4.03v-1.06h-5.55v-1.38h12.88zm-11.25-6.68h9.59v4.41h-9.59zm7.86 3.05v-1.69h-6.16v1.69z" style="fill:#3f52fc" transform="translate(1068.52 198.87)"/>
        <path data-name="패스 5386" d="M-548.87-101.14h-5.59v1.36h4.03v4.52h-9.8v-4.52h4.05v-1.36h-5.56v-1.39h12.88v1.39zm-11.72-7.65h10.53v1.39H-552v2.42h1.86v1.41h-10.38v-1.41h1.86v-2.42h-1.94v-1.39zm8.47 12.12v-1.77h-6.39v1.77zm-1.63-8.31v-2.42h-3.17v2.42z" style="fill:#3f52fc" transform="translate(1068.52 198.87)"/>
        <path data-name="패스 5387" d="M-547.92-103.39h12.88v1.39h-12.88zm9.17-5.32a4.033 4.033 0 0 1 1.74.82 1.709 1.709 0 0 1 .6 1.32 1.744 1.744 0 0 1-.6 1.33 3.923 3.923 0 0 1-1.74.82 12.016 12.016 0 0 1-2.75.29 11.481 11.481 0 0 1-2.75-.29 3.923 3.923 0 0 1-1.74-.82 1.729 1.729 0 0 1-.6-1.33 1.724 1.724 0 0 1 .6-1.32 3.923 3.923 0 0 1 1.74-.82 12.6 12.6 0 0 1 2.75-.29 11.481 11.481 0 0 1 2.75.29zm-7.66 7.67h9.75v3.45h-8.03v1.05h8.42v1.33h-10.12v-3.61h8.03v-.94h-8.05zm2.46-4.67a7.955 7.955 0 0 0 2.45.28 8.058 8.058 0 0 0 2.47-.28c.55-.19.82-.47.82-.86 0-.36-.28-.65-.84-.84a7.707 7.707 0 0 0-2.46-.3 7.61 7.61 0 0 0-2.44.3c-.56.2-.83.48-.83.84.01.38.28.67.83.86z" style="fill:#3f52fc" transform="translate(1068.52 198.87)"/>
        <path data-name="패스 5388" d="M-528.45-102.98a4.712 4.712 0 0 0 1.18-1.58 4.357 4.357 0 0 0 .4-1.84v-.38h-2.94v-1.41h7.62v1.41h-2.92v.39a4.039 4.039 0 0 0 .38 1.69 4.4 4.4 0 0 0 1.13 1.48 5.044 5.044 0 0 0 1.81 1l-.88 1.39a5.75 5.75 0 0 1-2-1.16 5.663 5.663 0 0 1-1.32-1.79 5.791 5.791 0 0 1-1.36 1.98 5.841 5.841 0 0 1-2.11 1.27l-.89-1.41a5.062 5.062 0 0 0 1.9-1.04zm.72 3.19h1.73v3.02h7.89v1.41h-9.62zm9.26.9h-1.73v-5.17h-2.5v-1.41h2.5v-3.73h1.73z" style="fill:#3f52fc" transform="translate(1068.52 198.87)"/>
        <path data-name="패스 5389" d="M-509.59-107.06h-4.61v3.14c1.32-.01 2.42-.05 3.28-.11a19.054 19.054 0 0 0 2.58-.36l.19 1.34a19.08 19.08 0 0 1-2.64.39c-.9.07-2.08.1-3.54.1h-1.59v-5.89h6.33v1.39zm-4.97 5.52h9.23v3.75h-7.5v1.12h7.94v1.41h-9.66v-3.84h7.48v-1.05h-7.5v-1.39zm7.5-7.67h1.73v2.78h1.97v1.42h-1.97v2.86h-1.73z" style="fill:#3f52fc" transform="translate(1068.52 198.87)"/>
        <path data-name="패스 5390" d="M-502.16-108.39h1.72v1.92h3.3v-1.92h1.72v6.66h-6.73v-6.66zm1.55 8.1h9.2v1.39h-7.47v2.23h7.73v1.38h-9.47v-5zm3.47-2.81v-2.02h-3.3v2.02zm5.64-2.83h1.97v1.44h-1.97v3.52h-1.73v-8.23h1.73z" style="fill:#3f52fc" transform="translate(1068.52 198.87)"/>
        <path data-name="패스 5391" d="M-482.9-108a3.38 3.38 0 0 1 1.36 1.2 3.169 3.169 0 0 1 .5 1.75 3.279 3.279 0 0 1-.5 1.75 3.4 3.4 0 0 1-1.36 1.21 4.268 4.268 0 0 1-1.95.43 4.3 4.3 0 0 1-1.95-.43 3.359 3.359 0 0 1-1.37-1.21 3.193 3.193 0 0 1-.5-1.75 3.193 3.193 0 0 1 .5-1.75 3.409 3.409 0 0 1 1.37-1.2 4.3 4.3 0 0 1 1.95-.43 4.3 4.3 0 0 1 1.95.43zm-3.96 10.58a3.615 3.615 0 0 0 .92-1.24 3.484 3.484 0 0 0 .32-1.4v-.61h1.67v.61a3.769 3.769 0 0 0 .42 1.79 3.726 3.726 0 0 0 1.31 1.43 4 4 0 0 0 1.33-1.48 3.992 3.992 0 0 0 .47-1.75v-.61h1.69v.61a3.5 3.5 0 0 0 .7 2.12 3.99 3.99 0 0 0 2.04 1.39l-.86 1.28a4.863 4.863 0 0 1-1.68-1.01 4.454 4.454 0 0 1-1.07-1.53 5.04 5.04 0 0 1-1 1.59 4.341 4.341 0 0 1-1.57 1.07 4.478 4.478 0 0 1-1.61-1.04 4.705 4.705 0 0 1-1.01-1.57 4.917 4.917 0 0 1-1.07 1.49 4.859 4.859 0 0 1-1.62 1l-.86-1.28a4.336 4.336 0 0 0 1.48-.86zm.18-6.62a1.742 1.742 0 0 0 .75.67 2.529 2.529 0 0 0 1.09.23 2.516 2.516 0 0 0 1.08-.23 1.808 1.808 0 0 0 .75-.67 1.9 1.9 0 0 0 .28-1.02 1.772 1.772 0 0 0-.28-1 1.964 1.964 0 0 0-.75-.68 2.381 2.381 0 0 0-1.08-.24 2.4 2.4 0 0 0-1.09.24 1.83 1.83 0 0 0-.75.68 1.849 1.849 0 0 0-.27 1 1.894 1.894 0 0 0 .27 1.02zm7.27-5.17h1.73v3.17h1.97v1.41h-1.97v3.36h-1.73z" style="fill:#3f52fc" transform="translate(1068.52 198.87)"/>
        <path data-name="패스 5392" d="M-474.41-107.87h6.61v1.41h-4.88v6.48c1.15 0 2.18-.04 3.09-.11s1.84-.18 2.78-.34l.2 1.47a27.073 27.073 0 0 1-3.03.35c-1 .06-2.2.09-3.61.09h-1.17v-9.35zm10.49 4.02h2.17v1.42h-2.17v7.36h-1.73v-14.14h1.73z" style="fill:#3f52fc" transform="translate(1068.52 198.87)"/>
        <path data-name="패스 5393" d="M-453.91-106.9h2.84v-2.3h1.73v10.28h-1.73v-3.56h-2.84v1.22h-6.64v-6.77h6.64zm-1.71 4.28v-4.03h-3.19v4.03zm-3.02 2.75h1.77v3.09h7.86v1.41h-9.62v-4.5zm7.58-4v-1.61h-2.84v1.61z" style="fill:#3f52fc" transform="translate(1068.52 198.87)"/>
        <path data-name="패스 5394" d="M-430.66-102.1h-5.59v1.06h3.98v3.47h-8.03v1.03h8.42v1.33H-442v-3.61h8.03v-.91h-8.05v-1.31h4.03v-1.06h-5.55v-1.38h12.88v1.38zm-11.25-6.68h9.59v4.41h-9.59zm7.86 3.05v-1.69h-6.16v1.69z" style="fill:#3f52fc" transform="translate(1068.52 198.87)"/>
        <path data-name="패스 5395" d="M-416.83-101.14h-5.59v1.36h4.03v4.52h-9.8v-4.52h4.05v-1.36h-5.56v-1.39h12.88v1.39zm-11.72-7.65h10.53v1.39h-1.94v2.42h1.86v1.41h-10.38v-1.41h1.86v-2.42h-1.94v-1.39zm8.47 12.12v-1.77h-6.39v1.77zm-1.62-8.31v-2.42h-3.17v2.42z" style="fill:#3f52fc" transform="translate(1068.52 198.87)"/>
        <path data-name="패스 5396" d="M-415.12-106.56a3.431 3.431 0 0 1 1.38-1.26 4.164 4.164 0 0 1 1.93-.46 4.017 4.017 0 0 1 1.93.46 3.474 3.474 0 0 1 1.37 1.26 3.4 3.4 0 0 1 .5 1.81 3.443 3.443 0 0 1-.5 1.83 3.4 3.4 0 0 1-1.37 1.26 4.157 4.157 0 0 1-1.93.45 4.128 4.128 0 0 1-1.93-.45 3.5 3.5 0 0 1-1.38-1.26 3.355 3.355 0 0 1-.5-1.83 3.311 3.311 0 0 1 .5-1.81zm1.47 2.89a1.833 1.833 0 0 0 .75.71 2.276 2.276 0 0 0 1.09.25 2.223 2.223 0 0 0 1.07-.25 1.833 1.833 0 0 0 .75-.71 2.075 2.075 0 0 0 .27-1.07 2 2 0 0 0-.27-1.05 1.833 1.833 0 0 0-.75-.71 2.251 2.251 0 0 0-1.07-.25 2.332 2.332 0 0 0-1.09.25 1.833 1.833 0 0 0-.75.71 2.052 2.052 0 0 0-.27 1.05 2.1 2.1 0 0 0 .27 1.07zm.2 3.64h1.75v3.25h7.98v1.41h-9.73zm9.34 1.03h-1.75v-10.2h1.75z" style="fill:#3f52fc" transform="translate(1068.52 198.87)"/>
        <path data-name="패스 5397" d="M-402.05-101.45h12.88v1.44h-5.61v4.92h-1.72v-4.92h-5.55v-1.44zm7.99-4.86a5.311 5.311 0 0 0 1.77 1.45 7.745 7.745 0 0 0 2.61.79l-.69 1.41a8.414 8.414 0 0 1-3.16-1.1 5.629 5.629 0 0 1-2.07-2.04 5.834 5.834 0 0 1-2.06 2.04 8.5 8.5 0 0 1-3.13 1.1l-.69-1.41a7.481 7.481 0 0 0 2.59-.79 5.229 5.229 0 0 0 1.76-1.44 2.852 2.852 0 0 0 .62-1.74v-.72h1.83v.72a2.786 2.786 0 0 0 .62 1.73z" style="fill:#3f52fc" transform="translate(1068.52 198.87)"/>
        <path data-name="패스 5398" d="M-372.58-95.07h-1.72v-7.66h-2.88v4.23h-6.72v-9.62h1.75v3.52h3.27v-3.52h1.7v3.97h2.88v-5.06h1.72zm-6.29-4.82v-3.36h-3.27v3.36z" style="fill:#3f52fc" transform="translate(1068.52 198.87)"/>
        <path data-name="패스 5399" d="M-357.72-100.14h-12.91v-1.38h12.91zm-11.28.82h1.7v2.55h8.25v1.41H-369zm.03-9.41h9.7v1.34h-7.97v1.09h7.62v1.3h-7.62v1.12h8.08v1.33h-9.81z" style="fill:#3f52fc" transform="translate(1068.52 198.87)"/>
        <path data-name="패스 5400" d="M-356.76-103.39h12.88v1.39h-12.88zm9.17-5.32a4.034 4.034 0 0 1 1.74.82 1.709 1.709 0 0 1 .6 1.32 1.744 1.744 0 0 1-.6 1.33 3.923 3.923 0 0 1-1.74.82 12.016 12.016 0 0 1-2.75.29 11.481 11.481 0 0 1-2.75-.29 3.923 3.923 0 0 1-1.74-.82 1.729 1.729 0 0 1-.6-1.33 1.724 1.724 0 0 1 .6-1.32 3.923 3.923 0 0 1 1.74-.82 12.6 12.6 0 0 1 2.75-.29 11.481 11.481 0 0 1 2.75.29zm-7.66 7.67h9.75v3.45h-8.03v1.05h8.42v1.33h-10.12v-3.61h8.03v-.94h-8.05v-1.28zm2.45-4.67a7.955 7.955 0 0 0 2.45.28 8.058 8.058 0 0 0 2.47-.28c.55-.19.82-.47.82-.86 0-.36-.28-.65-.84-.84a7.707 7.707 0 0 0-2.46-.3 7.61 7.61 0 0 0-2.44.3c-.56.2-.83.48-.83.84.02.38.29.67.83.86z" style="fill:#3f52fc" transform="translate(1068.52 198.87)"/>
        <path data-name="패스 5401" d="M-339.15-103.82h12.91v1.41h-5.62v1.23h4.05v3.52h-8.03v1.11h8.5v1.34h-10.25v-3.67h8.06v-.98h-8.08v-1.31h4.05v-1.23h-5.58v-1.42zm11.42-.96h-9.75v-4.25h1.7v2.86h8.05z" style="fill:#3f52fc" transform="translate(1068.52 198.87)"/>
        <path data-name="패스 5402" d="M-324.84-107.98h6.39v5.17h-4.62v2.97c1.16 0 2.18-.04 3.05-.09a24.4 24.4 0 0 0 2.64-.33l.14 1.42a26.95 26.95 0 0 1-2.95.35c-.98.06-2.14.1-3.47.1h-1.12v-5.83h4.64v-2.36h-4.69v-1.4zm11.36 12.91h-1.73v-7.52h-2.42v-1.42h2.42v-5.2h1.73z" style="fill:#3f52fc" transform="translate(1068.52 198.87)"/>
        <path data-name="패스 5403" d="M-298.61-99.93h-5.61v4.83h-1.72v-4.83h-5.55v-1.41h12.88v1.41zm-9.79-4.4a5.092 5.092 0 0 0 1.67-1.22 2.627 2.627 0 0 0 .68-1.49h-4.24v-1.38h10.5v1.38h-4.24a2.574 2.574 0 0 0 .67 1.49 4.954 4.954 0 0 0 1.67 1.22 7.762 7.762 0 0 0 2.42.68l-.62 1.36a8.553 8.553 0 0 1-3.14-1.04 5.242 5.242 0 0 1-2-1.93 5.283 5.283 0 0 1-1.99 1.93 8.512 8.512 0 0 1-3.12 1.04l-.66-1.36a8 8 0 0 0 2.4-.68z" style="fill:#3f52fc" transform="translate(1068.52 198.87)"/>
        <path data-name="패스 5404" d="M-292.96-103.21a6.856 6.856 0 0 0 .89 2.05 4.976 4.976 0 0 0 1.52 1.51l-.95 1.33a5 5 0 0 1-1.56-1.48 7.765 7.765 0 0 1-1.01-2.13 8.386 8.386 0 0 1-1.08 2.34 5.409 5.409 0 0 1-1.66 1.61l-1.08-1.3a5.521 5.521 0 0 0 1.66-1.57 6.684 6.684 0 0 0 .98-2.15 9.741 9.741 0 0 0 .33-2.42v-2.53h1.67v2.45a9.707 9.707 0 0 0 .29 2.29zm.9-1.14h2.02v-4.61h1.64v13.19h-1.64v-7.14h-2.02zm4.92-4.86h1.67v14.12h-1.67z" style="fill:#3f52fc" transform="translate(1068.52 198.87)"/>
        <path data-name="패스 5405" d="M-270.92-96.81h-12.91v-1.42h2.98v-3.57a3.707 3.707 0 0 1-1.33-1.24 3.025 3.025 0 0 1-.46-1.67 3.065 3.065 0 0 1 .67-1.96 4.378 4.378 0 0 1 1.86-1.31 7.424 7.424 0 0 1 2.7-.46 7.62 7.62 0 0 1 2.71.46 4.448 4.448 0 0 1 1.88 1.31 3.074 3.074 0 0 1 .68 1.96 3.087 3.087 0 0 1-.45 1.64 3.757 3.757 0 0 1-1.3 1.23v3.61h2.97v1.42zm-9.57-6.66a2.731 2.731 0 0 0 1.24.82 5.485 5.485 0 0 0 1.85.29 5.587 5.587 0 0 0 1.86-.29 2.884 2.884 0 0 0 1.26-.82 1.883 1.883 0 0 0 .45-1.25 1.908 1.908 0 0 0-.45-1.26 2.8 2.8 0 0 0-1.26-.82 5.6 5.6 0 0 0-1.86-.28 5.6 5.6 0 0 0-1.86.28 2.678 2.678 0 0 0-1.24.82 1.953 1.953 0 0 0-.44 1.26 1.864 1.864 0 0 0 .45 1.25zm4.84 5.24v-2.95a8.24 8.24 0 0 1-1.75.18 8.878 8.878 0 0 1-1.72-.17v2.94h3.47z" style="fill:#3f52fc" transform="translate(1068.52 198.87)"/>
        <path data-name="패스 5406" d="M-268.89-96.52a1.215 1.215 0 0 1-.45-.45 1.184 1.184 0 0 1-.16-.61 1.174 1.174 0 0 1 .16-.6 1.265 1.265 0 0 1 .45-.44 1.184 1.184 0 0 1 .61-.16 1.174 1.174 0 0 1 .6.16 1.237 1.237 0 0 1 .44.44 1.149 1.149 0 0 1 .16.6 1.184 1.184 0 0 1-.16.61 1.266 1.266 0 0 1-.44.45 1.124 1.124 0 0 1-.6.16 1.1 1.1 0 0 1-.61-.16z" style="fill:#3f52fc" transform="translate(1068.52 198.87)"/>
    </g>
    <g data-name="그룹 3908">
        <path data-name="패스 5407" d="M-986.17-88.59h-72.41a7.793 7.793 0 0 1-7.79-7.79v-10.41a7.793 7.793 0 0 1 7.79-7.79h72.41a7.793 7.793 0 0 1 7.79 7.79v10.41a7.793 7.793 0 0 1-7.79 7.79z" style="fill:#3f52fc" transform="translate(1068.52 198.87)"/>
    </g>
    <g data-name="그룹 3909">
        <path data-name="패스 5408" d="M-261.23-88.09h-797.35a8.3 8.3 0 0 1-8.29-8.29v-10.41a8.3 8.3 0 0 1 8.29-8.29h797.35a8.3 8.3 0 0 1 8.29 8.29v10.41a8.3 8.3 0 0 1-8.29 8.29zm-797.36-26a7.3 7.3 0 0 0-7.29 7.29v10.41a7.3 7.3 0 0 0 7.29 7.29h797.35a7.3 7.3 0 0 0 7.29-7.29v-10.41a7.3 7.3 0 0 0-7.29-7.29h-797.35z" style="fill:#3f52fc" transform="translate(1068.52 198.87)"/>
    </g>
    <g data-name="그룹 3910">
        <path data-name="패스 5409" d="M-1048.81-106.56a3.431 3.431 0 0 1 1.38-1.26 4.164 4.164 0 0 1 1.93-.46 4.017 4.017 0 0 1 1.93.46 3.474 3.474 0 0 1 1.37 1.26 3.4 3.4 0 0 1 .5 1.81 3.443 3.443 0 0 1-.5 1.83 3.4 3.4 0 0 1-1.37 1.26 4.157 4.157 0 0 1-1.93.45 4.129 4.129 0 0 1-1.93-.45 3.5 3.5 0 0 1-1.38-1.26 3.355 3.355 0 0 1-.5-1.83 3.23 3.23 0 0 1 .5-1.81zm1.46 2.89a1.834 1.834 0 0 0 .75.71 2.276 2.276 0 0 0 1.09.25 2.223 2.223 0 0 0 1.07-.25 1.834 1.834 0 0 0 .75-.71 2.074 2.074 0 0 0 .27-1.07 2 2 0 0 0-.27-1.05 1.834 1.834 0 0 0-.75-.71 2.251 2.251 0 0 0-1.07-.25 2.332 2.332 0 0 0-1.09.25 1.834 1.834 0 0 0-.75.71 2.052 2.052 0 0 0-.27 1.05 2.322 2.322 0 0 0 .27 1.07zm.2 3.64h1.75v3.25h7.98v1.41h-9.73zm9.35 1.04h-1.75v-10.2h1.75z" style="fill:#fff" transform="translate(1068.52 198.87)"/>
        <path data-name="패스 5410" d="M-1035.74-101.45h12.88v1.44h-5.61v4.92h-1.72v-4.92h-5.55zm7.98-4.86a5.311 5.311 0 0 0 1.77 1.45 7.745 7.745 0 0 0 2.61.79l-.69 1.41a8.415 8.415 0 0 1-3.16-1.1 5.629 5.629 0 0 1-2.07-2.04 5.833 5.833 0 0 1-2.06 2.04 8.5 8.5 0 0 1-3.13 1.1l-.69-1.41a7.481 7.481 0 0 0 2.59-.79 5.229 5.229 0 0 0 1.76-1.44 2.852 2.852 0 0 0 .62-1.74v-.72h1.83v.72a2.785 2.785 0 0 0 .62 1.73z" style="fill:#fff" transform="translate(1068.52 198.87)"/>
        <path data-name="패스 5411" d="M-1021.47-107.54h5.28v1.41h-3.53v6.28q1.23-.015 2.22-.09a18.393 18.393 0 0 0 2.02-.27l.12 1.42a17.4 17.4 0 0 1-2.32.31c-.76.05-1.7.08-2.84.09h-.95v-9.15zm11.71 12.45h-1.66v-7.2h-1.59v6.48h-1.59v-13.14h1.59v5.27h1.59v-5.53h1.66z" style="fill:#fff" transform="translate(1068.52 198.87)"/>
        <path data-name="패스 5412" d="M-1003.88-102.08a8.222 8.222 0 0 0 1.61-4.26h-5v-1.38h6.77a11.327 11.327 0 0 1-1.52 5.91 11.372 11.372 0 0 1-5.05 4.22l-.91-1.39a10.993 10.993 0 0 0 4.1-3.1zm7.59 6.99h-1.75v-14.12h1.75z" style="fill:#fff" transform="translate(1068.52 198.87)"/>
    </g>
</svg>
