<svg xmlns="http://www.w3.org/2000/svg" width="76.617" height="88.235" viewBox="0 0 76.617 88.235">
  <defs>
    <style>
      .cls-1 {
        fill: #e83e3e;
      }

      .cls-1, .cls-2, .cls-3, .cls-4 {
        stroke: #000;
        stroke-linecap: round;
        stroke-miterlimit: 10;
      }

      .cls-2 {
        fill: #247daf;
      }

      .cls-3 {
        fill: #0e526d;
      }

      .cls-4 {
        fill: none;
      }
    </style>
  </defs>
  <g id="ch_icon" transform="translate(0.5 0.51)">
    <path id="패스_335" data-name="패스 335" class="cls-1" d="M201.38-147.935a19.342,19.342,0,0,1,14.937,2.228s14.022,9.536,15.105,1.266c0,0,2.334.519.9,6.454-1.434,5.951-17.1,10.6-17.1,10.6H196.391s-8.865-10.1-2.029-16.738a11.668,11.668,0,0,1,2.029-1.572" transform="translate(-167.981 148.588)"/>
    <path id="패스_336" data-name="패스 336" class="cls-2" d="M201.557-143.765l-2.243,8.285a.269.269,0,0,0,.092.29l2.243,2a.285.285,0,0,0,.4,0l2.243-2a.3.3,0,0,0,.092-.29l-2.243-8.285A.3.3,0,0,0,201.557-143.765Z" transform="translate(-164.023 151.01)"/>
    <path id="패스_337" data-name="패스 337" class="cls-3" d="M185.9-104.95l5.539,20.644h17.455V-104.95Z" transform="translate(-171.07 171.532)"/>
    <path id="패스_338" data-name="패스 338" class="cls-2" d="M189.164-104.95A12.984,12.984,0,0,0,176.18-91.966v7.659h20.369L191.01-104.95Z" transform="translate(-176.18 171.532)"/>
    <path id="패스_339" data-name="패스 339" class="cls-3" d="M200.97-104.95v20.644h17.836l5.538-20.644Z" transform="translate(-163.146 171.532)"/>
    <path id="패스_340" data-name="패스 340" class="cls-2" d="M211.787-100.614l-8.041,2.655-8.056-2.655v-12.5h16.1Z" transform="translate(-165.922 167.241)"/>
    <path id="패스_341" data-name="패스 341" class="cls-2" d="M224.292-103.775a10.1,10.1,0,0,0-4.638-1.175h-1.465L212.65-84.306h19.972v-7.659a12.963,12.963,0,0,0-3.814-9.185" transform="translate(-157.005 171.532)"/>
    <path id="패스_342" data-name="패스 342" class="cls-3" d="M192.043-106.789a24.326,24.326,0,0,1-1.983-9.734c0-11.336,7.446-20.537,16.631-20.537s16.631,9.2,16.631,20.537a24.344,24.344,0,0,1-1.709,9.078c-.2.488-.412.961-.626,1.434-.259.534-.534,1.053-.839,1.556-3.021,5.127-7.934,8.468-13.457,8.468a13.889,13.889,0,0,1-12.42-6.866" transform="translate(-168.882 154.649)"/>
    <path id="패스_343" data-name="패스 343" class="cls-2" d="M225.763-115.113l-17.882,4.15a1,1,0,0,1-.519,0l-17.882-4.15a1.765,1.765,0,0,1-1.19-1.8v-9.17a1.749,1.749,0,0,1,1.236-1.816l17.882-3.174a.87.87,0,0,1,.4,0l17.882,3.174a1.733,1.733,0,0,1,1.236,1.816v9.17A1.733,1.733,0,0,1,225.763-115.113Z" transform="translate(-169.813 157.785)"/>
    <line id="선_67" data-name="선 67" class="cls-4" y2="4.059" transform="translate(23.07 34.739)"/>
    <line id="선_68" data-name="선 68" class="cls-4" y2="6.21" transform="translate(30.363 33.671)"/>
    <line id="선_69" data-name="선 69" class="cls-4" y1="10.482" transform="translate(37.641 31.535)"/>
    <line id="선_70" data-name="선 70" class="cls-4" y2="6.21" transform="translate(44.934 33.671)"/>
    <line id="선_71" data-name="선 71" class="cls-4" y2="4.059" transform="translate(52.212 34.739)"/>
  </g>
</svg>
