<svg xmlns="http://www.w3.org/2000/svg" width="24.92" height="27.52" viewBox="0 0 24.92 27.52">
    <path data-name="패스 197" d="M190.836-153.6a6.254 6.254 0 0 1 4.845.724s4.554 3.1 4.906.407c0 0 .759.166.292 2.1s-5.554 3.438-5.554 3.438h-6.107s-2.875-3.277-.658-5.433a3.934 3.934 0 0 1 .658-.513" transform="translate(-180.123 154.354)" style="stroke:#000;stroke-linecap:round;stroke-miterlimit:10;fill:#e83e3e"/>
    <path data-name="패스 198" d="m195.87-149.2-.724 2.689a.089.089 0 0 0 .03.1l.724.648a.1.1 0 0 0 .126 0l.724-.648a.1.1 0 0 0 .03-.1l-.724-2.689a.1.1 0 0 0-.186 0z" transform="translate(-183.503 152.096)" style="fill:#247daf;stroke:#000;stroke-linecap:round;stroke-miterlimit:10"/>
    <path data-name="패스 199" d="m181.93-110.81 1.8 5.886h5.665v-5.886z" transform="translate(-176.795 131.945)" style="fill:#0e526d;stroke:#000;stroke-linecap:round;stroke-miterlimit:10"/>
    <path data-name="패스 200" d="M176.572-110.816a3.98 3.98 0 0 0-4.212 3.7v2.181h6.61l-1.8-5.886h-.6z" transform="translate(-171.86 131.95)" style="fill:#247daf;stroke:#000;stroke-linecap:round;stroke-miterlimit:10"/>
    <path data-name="패스 201" d="M196.78-110.81v5.886h5.79l1.794-5.886z" transform="translate(-184.457 131.945)" style="fill:#0e526d;stroke:#000;stroke-linecap:round;stroke-miterlimit:10"/>
    <path data-name="패스 202" d="m196.8-114.794-2.614.865-2.619-.865v-4.056h5.233z" transform="translate(-181.726 136.42)" style="fill:#247daf;stroke:#000;stroke-linecap:round;stroke-miterlimit:10"/>
    <path data-name="패스 203" d="M212.07-110.474a3.671 3.671 0 0 0-1.508-.336h-.472l-1.8 5.886h6.484v-2.181a3.471 3.471 0 0 0-1.236-2.618" transform="translate(-190.354 131.945)" style="fill:#247daf;stroke:#000;stroke-linecap:round;stroke-miterlimit:10"/>
    <path data-name="패스 204" d="M186.673-132.619a7.868 7.868 0 0 1-.643-3.157c0-3.679 2.418-6.665 5.4-6.665s5.4 2.986 5.4 6.665a7.88 7.88 0 0 1-.558 2.945 7.507 7.507 0 0 1-.477.975 5.158 5.158 0 0 1-4.368 2.744 4.51 4.51 0 0 1-4.031-2.227" transform="translate(-178.971 148.413)" style="fill:#0e526d;stroke:#000;stroke-linecap:round;stroke-miterlimit:10"/>
    <path data-name="패스 205" d="m195.859-131.39-5.512 1.347a.3.3 0 0 1-.162 0l-5.512-1.347a.571.571 0 0 1-.363-.583v-2.976a.563.563 0 0 1 .382-.588l5.512-1.03a.259.259 0 0 1 .124 0l5.512 1.03a.563.563 0 0 1 .382.588v2.976a.571.571 0 0 1-.363.583z" transform="translate(-177.804 145.491)" style="fill:#247daf;stroke:#000;stroke-linecap:round;stroke-miterlimit:10"/>
    <path data-name="선 7" transform="translate(7.799 11.521)" style="fill:none;stroke:#000;stroke-linecap:round;stroke-miterlimit:10" d="M0 0v1.317"/>
    <path data-name="선 8" transform="translate(10.101 11.171)" style="fill:none;stroke:#000;stroke-linecap:round;stroke-miterlimit:10" d="M0 0v2.016"/>
    <path data-name="선 9" transform="translate(12.409 10.48)" style="fill:none;stroke:#000;stroke-linecap:round;stroke-miterlimit:10" d="M0 3.408V0"/>
    <path data-name="선 10" transform="translate(14.711 11.171)" style="fill:none;stroke:#000;stroke-linecap:round;stroke-miterlimit:10" d="M0 0v2.016"/>
    <path data-name="선 11" transform="translate(17.013 11.521)" style="fill:none;stroke:#000;stroke-linecap:round;stroke-miterlimit:10" d="M0 0v1.317"/>
</svg>
