<svg xmlns="http://www.w3.org/2000/svg" width="25.075" height="25.075" viewBox="0 0 25.075 25.075">
    <g transform="translate(.5 .5)">
        <circle data-name="타원 11" cx="12.038" cy="12.038" r="12.038" style="stroke:#000;stroke-miterlimit:10;fill:#f9e26a"/>
        <path data-name="패스 844" d="M9.248 0A9.248 9.248 0 1 1 0 9.248 9.248 9.248 0 0 1 9.248 0z" transform="translate(3.387 2.627)" style="fill:#fcbf36"/>
        <path data-name="패스 156" d="M33.733 33.47a9.13 9.13 0 1 1-6.948.211" transform="translate(-18.473 -29.918)" style="fill:none;stroke-linecap:round;stroke:#000;stroke-miterlimit:10"/>
        <g data-name="그룹 101">
            <path data-name="패스 157" d="M32.812 38.487a2.426 2.426 0 0 0-2.17-.174 1.74 1.74 0 0 0-1.007 1.84 2.678 2.678 0 0 0 1.556 1.629 5.284 5.284 0 0 1 1.941 1.263 2.2 2.2 0 0 1 .165 2.38 2.372 2.372 0 0 1-2.105 1.163A2.5 2.5 0 0 1 29.15 45.3" transform="translate(-19.126 -30.313)" style="fill:none;stroke-linecap:round;stroke:#000;stroke-miterlimit:10"/>
            <path data-name="선 1" transform="translate(12.248 6.133)" style="fill:none;stroke-linecap:round;stroke:#000;stroke-miterlimit:10" d="M0 1.684V0"/>
            <path data-name="선 2" transform="translate(12.248 16.257)" style="fill:none;stroke-linecap:round;stroke:#000;stroke-miterlimit:10" d="M0 1.684V0"/>
        </g>
    </g>
</svg>
