<svg xmlns="http://www.w3.org/2000/svg" width="23.262" height="25.2" viewBox="0 0 23.262 25.2">
    <path data-name="패스 187" d="M84.18-35.25h10.084v11.079c-.006 0-7.32.138-10.084-11.079z" transform="translate(-82.635 48.867)" style="fill:#bebdbd"/>
    <path data-name="패스 188" d="M102.42-58.98a.233.233 0 0 1 .188.094 9.555 9.555 0 0 0 10.6 3.278.267.267 0 0 1 .343.265 40.711 40.711 0 0 1-1.045 9.481H102.42z" transform="translate(-90.792 59.478)" style="fill:#717070"/>
    <path data-name="패스 189" d="M83.335-45.861a40.832 40.832 0 0 1-1.045-9.614.175.175 0 0 1 .221-.171 9.582 9.582 0 0 0 10.719-3.24.241.241 0 0 1 .188-.094v13.119z" transform="translate(-81.79 59.478)" style="fill:#f4f4f4"/>
    <path data-name="패스 190" d="M112.5-35.25c-2.77 11.222-10.084 11.079-10.084 11.079V-35.25z" transform="translate(-90.792 48.867)" style="fill:#f4f4f4"/>
    <path data-name="패스 186" d="M87.152-58.063a9.4 9.4 0 0 0 3.987-3.09.24.24 0 0 1 .381 0 9.566 9.566 0 0 0 10.6 3.28.271.271 0 0 1 .346.265c-.135 20.775-11.128 20.559-11.128 20.559s-11.053.216-11.138-20.694a.174.174 0 0 1 .22-.17 10.784 10.784 0 0 0 4.442.426" transform="translate(-79.7 61.748)" style="fill:none;stroke:#000;stroke-linecap:round;stroke-miterlimit:10"/>
</svg>
