<svg xmlns="http://www.w3.org/2000/svg" width="89.103" height="81.157" viewBox="0 0 89.103 81.157">
    <g data-name="그룹 244">
        <path data-name="패스 313" d="M116.487-130.25a26.02 26.02 0 0 0 11.116-8.612.666.666 0 0 1 1.056 0c10.6 13.786 25.611 10.347 29.517 9.14a.754.754 0 0 1 .965.739c-.377 57.874-31.011 57.27-31.011 57.27s-30.769.6-31.011-57.647a.472.472 0 0 1 .618-.468 30.131 30.131 0 0 0 12.383 1.192" transform="translate(-96.62 152.363)" style="stroke-linecap:round;stroke:#000;stroke-miterlimit:10;fill:#fff"/>
        <path data-name="패스 314" d="M100.8-115.07h25.46v27.964c-.015 0-18.477.347-25.46-27.964z" transform="translate(-94.749 164.589)" style="fill:#9cd6ea"/>
        <path data-name="패스 315" d="M117.68-137.02a.586.586 0 0 1 .483.241c9.608 12.489 23.2 9.367 26.742 8.281a.686.686 0 0 1 .875.664 102.474 102.474 0 0 1-2.64 23.922h-25.46z" transform="translate(-86.169 153.432)" style="fill:#6ebdd3"/>
        <path data-name="패스 316" d="M101.69-103.913a103.574 103.574 0 0 1-2.64-24.269.432.432 0 0 1 .558-.422c2.971.965 17.149 4.706 27.059-8.175a.63.63 0 0 1 .483-.241v33.107h-25.46z" transform="translate(-95.639 153.432)" style="fill:#f4f4f4"/>
        <path data-name="패스 317" d="M143.13-115.07c-7 28.326-25.46 27.964-25.46 27.964v-27.964z" transform="translate(-86.174 164.589)" style="fill:#f4f4f4"/>
    </g>
    <g data-name="그룹 246">
        <path data-name="패스 318" d="m140.822-108.933 6.678 10.965a.752.752 0 0 0 .422.332l6.259 1.9a.638.638 0 0 0 .769-.332l2.836-5.882a.837.837 0 0 0 .045-.543l-9.457-32.564-.634-2.172-.679-2.338-1.1-3.771a.8.8 0 0 0-.528-.543l-13.032-3.65a.634.634 0 0 0-.754.332l-1.78 3.484-1.493 2.926-.95 1.87-1.931 3.771a.79.79 0 0 0 .03.754l13.3 22.082" transform="translate(-82.238 148.075)" style="fill:#e8e8e8;stroke-linecap:round;stroke:#000;stroke-miterlimit:10"/>
        <path data-name="선 65" transform="translate(59.67 23.215)" style="fill:none;stroke-linecap:round;stroke:#000;stroke-miterlimit:10" d="m0 0 11.629 26.576"/>
        <g data-name="그룹 245">
            <path data-name="패스 319" d="M149.648-112.14a2.125 2.125 0 0 0-2.79-1.1l-2.278 1a2.125 2.125 0 0 0-1.1 2.79l1.207 2.76 6.169-2.7z" transform="translate(-73.145 165.43)" style="fill:#f9e26a;stroke-linecap:round;stroke:#000;stroke-miterlimit:10"/>
            <path data-name="사각형 580" transform="rotate(-23.635 204.447 -147.466)" style="fill:#f9c022;stroke-linecap:round;stroke:#000;stroke-miterlimit:10" d="M0 0h6.727v5.913H0z"/>
            <path data-name="패스 320" d="M150.453-93.786a2.125 2.125 0 0 0 2.79 1.1l2.278-1a2.125 2.125 0 0 0 1.1-2.79L155.1-99.94l-6.169 2.7z" transform="translate(-70.285 172.28)" style="fill:#e2b014;stroke:#000;stroke-miterlimit:10"/>
            <path data-name="사각형 581" transform="rotate(-23.635 190.285 -144.513)" style="fill:#c1920c;stroke:#000;stroke-miterlimit:10" d="M0 0h6.727v5.913H0z"/>
            <path data-name="사각형 582" transform="rotate(-23.635 176.157 -141.565)" style="fill:#f9c022;stroke-linecap:round;stroke:#000;stroke-miterlimit:10" d="M0 0h6.727v5.913H0z"/>
            <path data-name="패스 321" d="m150.382-93.776-1.055-2.424a1.317 1.317 0 0 1 .664-1.719l3.786-1.659a1.317 1.317 0 0 1 1.719.664l1.056 2.428a3.369 3.369 0 0 1-1.735 4.434 3.338 3.338 0 0 1-4.435-1.724z" transform="translate(-70.139 172.406)" style="fill:#844313;stroke:#000;stroke-miterlimit:10"/>
        </g>
        <path data-name="패스 322" d="m139.223-144.327-2.443-.573 13.047 41.931 1.357-.588c.075-.166.181.468.136.287l-11.508-39.88c-.076-.272-.332-1.116-.589-1.177z" transform="translate(-76.461 149.427)" style="fill:#fdfdfd"/>
        <path data-name="패스 323" d="m160.562-118.745 2.624-1.146a1.93 1.93 0 0 1 2.383 1.267l.814 1.855a1.956 1.956 0 0 1-.679 2.624l-28.732 12.565a1.93 1.93 0 0 1-2.383-1.267l-.814-1.855a1.956 1.956 0 0 1 .679-2.624l22.021-9.638" transform="translate(-78.101 162.08)" style="fill:#e6be19;stroke-linecap:round;stroke:#000;stroke-miterlimit:10"/>
    </g>
</svg>
