<svg xmlns="http://www.w3.org/2000/svg" width="22" height="17" viewBox="0 0 22 17">
    <path data-name="마이페이지 아이콘" d="M21 1.011a6.491 6.491 0 0 1-2.918 4.777C15.565 7.329 8.717 10.66 5.893 12.18 9.929 11.073 19.775 8.5 19.775 8.5a5.221 5.221 0 0 1-3.275 3.125c-1.823.536-6.03 1.377-8.947 2a58.242 58.242 0 0 1 2.379-.043c3.416 0 7.03.215 7.03.215a3.8 3.8 0 0 1-2.99 1.91 3.082 3.082 0 0 1-.454-.034 36.788 36.788 0 0 0-5.69-.427c-.811 0-1.516.019-2.156.019h-.359A18.937 18.937 0 0 0 1 15.989s.591-3.659 3.157-5.238S21 1.011 21 1.011M21 0a1 1 0 0 0-.492.13c-.583.334-14.32 8.186-16.87 9.756C.712 11.687.04 15.658.013 15.826a1.019 1.019 0 0 0 .324.92A.993.993 0 0 0 1 17a1.016 1.016 0 0 0 .279-.039 18.013 18.013 0 0 1 4.034-.691h.357c.3 0 .625 0 .964-.009.372-.005.767-.01 1.192-.01a35.817 35.817 0 0 1 5.543.416 4.018 4.018 0 0 0 .6.046 4.8 4.8 0 0 0 3.862-2.427 1.021 1.021 0 0 0 0-.98 1 1 0 0 0-.818-.524c-.01 0-.292-.017-.765-.041.19-.05.365-.1.523-.145a6.231 6.231 0 0 0 3.946-3.773 1.018 1.018 0 0 0-.216-1.01 1 1 0 0 0-.732-.323.964.964 0 0 0-.25.032c-.045.011-2.16.563-4.816 1.262 1.584-.824 3-1.584 3.891-2.131A7.492 7.492 0 0 0 22 1.074a1.015 1.015 0 0 0-.467-.92A1 1 0 0 0 21 0" style="fill:#707070"/>
</svg>

