<svg xmlns="http://www.w3.org/2000/svg" width="52.402" height="57.902" viewBox="0 0 52.402 57.902">
    <g transform="translate(3 18.902)">
        <rect width="42" height="42" rx="5" transform="translate(-3 -3)" style="fill:#fddb00"/>
        <path data-name="패스 6355" d="M16.327 2.183c-7.878 0-14.263 5.906-14.263 13.192 0 5.381 2.254 7.95 5.341 10.291l.014.007v6.314a.363.363 0 0 0 .581.292l5.408-4.017.117.05a15.462 15.462 0 0 0 2.8.255c7.877 0 14.263-5.907 14.263-13.192S24.2 2.183 16.327 2.183" transform="translate(1.699 1.796)" style="fill:#fddb00"/>
        <path data-name="패스 6356" d="M14.975 0C6.7 0 0 6.2 0 13.851 0 19.5 2.366 22.2 5.607 24.657l.015.007v6.63a.381.381 0 0 0 .608.305l5.678-4.218.123.053a16.206 16.206 0 0 0 2.943.269c8.27 0 14.975-6.2 14.975-13.852S23.246 0 14.975 0M9.956 17.361a3.129 3.129 0 0 0 3.1-2.236h2.17a5.2 5.2 0 0 1-5.272 4.325 5.506 5.506 0 0 1-5.643-5.614 5.506 5.506 0 0 1 5.645-5.615 5.2 5.2 0 0 1 5.288 4.405h-2.166a3.088 3.088 0 0 0-3.122-2.346 3.39 3.39 0 0 0-3.524 3.555 3.476 3.476 0 0 0 3.524 3.526m14.306 1.874h-1.99v-4.489a1.429 1.429 0 0 0-1.527-1.589c-1.034 0-1.7.632-1.7 1.912v4.165h-1.987V8.256h1.991v4.129a2.551 2.551 0 0 1 2.3-1.079 2.731 2.731 0 0 1 2.082.848 3.2 3.2 0 0 1 .833 2.344z" transform="translate(3.05 3.226)" style="fill:#020303"/>
        <path transform="translate(3.05 3.226)" style="fill:none" d="M0 0h29.95v31.675H0z"/>
    </g>
    <g data-name="24">
        <path data-name="패스 6352" d="M27.8 13.9A13.9 13.9 0 1 1 13.9 0a13.9 13.9 0 0 1 13.9 13.9" transform="translate(24.598)" style="fill:#009f00"/>
        <g data-name="24시간">
            <path data-name="패스 6357" d="M11.758 25.125a11.855 11.855 0 0 1-1.751-.131 11.749 11.749 0 0 1 1.615-23.368l.012 1.189a10.558 10.558 0 1 0 6.446 2.106l.714-.952a11.751 11.751 0 0 1-7.036 21.156" transform="translate(26.749 .614)" style="fill:#fff"/>
            <path data-name="패스 6358" d="M18.888 1.748 14.919 0v3.5z" transform="translate(22.405 1.088)" style="fill:#fff"/>
            <path data-name="패스 6359" d="M7.87 20.318v-1.147a5.647 5.647 0 0 1 .921-1.389 12.543 12.543 0 0 1 1.5-1.412 7.745 7.745 0 0 0 1.225-1.17 1.494 1.494 0 0 0 .35-.9.96.96 0 0 0-1.089-1.083 1.085 1.085 0 0 0-.809.286 1.5 1.5 0 0 0-.361.856l-1.666-.094a2.6 2.6 0 0 1 .859-1.756 2.955 2.955 0 0 1 1.963-.607 3.094 3.094 0 0 1 2.06.612 2.136 2.136 0 0 1 .717 1.719 2.373 2.373 0 0 1-.23 1.053 3.721 3.721 0 0 1-.588.868 6.662 6.662 0 0 1-.8.744q-.438.347-.851.677a9.538 9.538 0 0 0-.751.665 2.285 2.285 0 0 0-.5.718h3.849v1.359z" transform="translate(24.457 -2.378)" style="fill:#fff"/>
            <path data-name="패스 6360" d="M22.345 18.681v1.688h-1.577v-1.688H17v-1.242l3.5-5.362h1.848v5.373h1.106v1.23zm-1.577-3.944q0-.318.02-.688c.014-.247.026-.406.033-.477a8.794 8.794 0 0 1-.553.953l-1.925 2.925h2.425z" transform="translate(21.8 -2.429)" style="fill:#fff"/>
        </g>
    </g>
</svg>
