<svg xmlns="http://www.w3.org/2000/svg" width="31" height="31" viewBox="0 0 31 31">
    <defs>
        <clipPath id="b2w7w2x6fa">
            <path data-name="사각형 1909" style="fill:none" d="M0 0h31v31H0z"/>
        </clipPath>
    </defs>
    <g data-name="그룹 4343" style="clip-path:url(#b2w7w2x6fa)">
        <path data-name="패스 6492" d="M31 15.5A15.5 15.5 0 1 1 15.5 0 15.5 15.5 0 0 1 31 15.5"/>
        <path data-name="패스 6493" d="M30.491 30.051v1.586s.759.17.759.782v4.5h1.575v-4.545a2.178 2.178 0 0 0-2.334-2.323" transform="translate(-19.506 -19.225)" style="fill:#fff"/>
        <path data-name="패스 6494" d="M42.645 36.1a2.439 2.439 0 1 0 2.64 2.431 2.542 2.542 0 0 0-2.64-2.431m0 3.428a1 1 0 1 1 1-1 1 1 0 0 1-1 1" transform="translate(-25.593 -23.093)" style="fill:#fff"/>
        <path data-name="패스 6495" d="M17.848 32.553s-1.094-.011-1.473.634v-2.538s-1.509.02-1.609 0v6.636h1.609V36.9a1.846 1.846 0 0 0 1.337.566 2.227 2.227 0 0 0 2.221-2.2 2.356 2.356 0 0 0-2.085-2.719m-.5 3.441a.926.926 0 1 1 .926-.926.926.926 0 0 1-.926.926" transform="translate(-9.446 -19.607)" style="fill:#fff"/>
        <path data-name="패스 6496" d="M60.51 36.537a1.6 1.6 0 0 0-1.371-.612 2.24 2.24 0 0 0-2.2 2.141v.725a2.077 2.077 0 0 0 1.96 2.054c1.382 0 1.575-.615 1.575-.615.011 1.518-.975 1.428-.975 1.428h-.431v1.5h.714a2.246 2.246 0 0 0 2.323-2.308v-4.8h-1.6zm-.91 2.852a.974.974 0 1 1 .975-.974.974.974 0 0 1-.975.974" transform="translate(-36.427 -22.98)" style="fill:#fff"/>
    </g>
</svg>
