<svg xmlns="http://www.w3.org/2000/svg" width="14.439" height="14.51" viewBox="0 0 14.439 14.51">
    <path data-name="패스 1688" d="M39.023 9.338H31A1.739 1.739 0 0 1 29.258 7.6V2.161A1.739 1.739 0 0 1 31 .422h8.027a1.739 1.739 0 0 1 1.739 1.739V7.6a1.739 1.739 0 0 1-1.739 1.739" transform="rotate(45 18.29 -27.497)" style="fill:#a6e069"/>
    <path data-name="패스 1689" d="M65.458 1.124a8.28 8.28 0 0 1-.616 4.081 20.706 20.706 0 0 1-2.814 4.569c-.057.075-.114.15-.173.225h3.231a1.739 1.739 0 0 0 1.74-1.739V2.822a1.739 1.739 0 0 0-1.368-1.7" transform="rotate(45 32 -58.678)" style="fill:#8fd142"/>
    <path data-name="패스 1690" d="M42.791 8.052h-7.042a1.128 1.128 0 0 1-1.22 1V12.9a1.128 1.128 0 0 1 1.22 1h7.042a1.128 1.128 0 0 1 1.22-1V9.057a1.128 1.128 0 0 1-1.22-1m-3.521 5.089a2.166 2.166 0 1 1 2.166-2.166 2.166 2.166 0 0 1-2.166 2.166" transform="rotate(45 27.762 -29.535)" style="fill:#69af81"/>
</svg>
