<svg xmlns="http://www.w3.org/2000/svg" width="14" height="21.463" viewBox="0 0 14 21.463">
    <g data-name="캐릭터 아이콘">
        <path data-name="패스 851" d="M11.05 16.564H9.912c.488-.326.488-.65.488-.65S7.879 10.819 8.249 8.19h2.411a1.04 1.04 0 0 0 0-2.079H8.013a3.25 3.25 0 1 0-3.027 0H2.339a1.04 1.04 0 1 0 0 2.079h2.412c.371 2.629-2.151 7.724-2.151 7.724s0 .324.488.65H1.95a1.95 1.95 0 0 0 0 3.9h9.1a1.95 1.95 0 0 0 0-3.9" style="fill:#ce0000;stroke:#000;stroke-linejoin:round" transform="translate(.5 .5)"/>
    </g>
</svg>
