<svg xmlns="http://www.w3.org/2000/svg" width="48.584" height="55.958" viewBox="0 0 48.584 55.958">
    <path data-name="패스 344" d="M26.848 1.833a12.169 12.169 0 0 1 9.4 1.4s8.822 6 9.5.8c0 0 1.469.326.566 4.061s-10.761 6.672-10.761 6.672H23.709s-5.578-6.357-1.277-10.533a7.343 7.343 0 0 1 1.277-.989" transform="translate(-5.335 -.843)" style="stroke-miterlimit:10;fill:#717070;stroke:#010202"/>
    <path data-name="패스 345" d="m29.751 6.154-1.411 5.213a.169.169 0 0 0 .058.182l1.411 1.258a.18.18 0 0 0 .25 0l1.411-1.258a.188.188 0 0 0 .058-.182l-1.412-5.213a.19.19 0 0 0-.365 0z" transform="translate(-5.636 -1.027)" style="stroke:#000;fill:#bebdbd;stroke-miterlimit:10"/>
    <path data-name="패스 346" d="m14.93 45.06 3.485 12.979H29.4V45.06z" transform="translate(-5.099 -2.591)" style="stroke-linecap:round;fill:#f2f2f2;stroke:#000;stroke-miterlimit:10"/>
    <path data-name="패스 347" d="M13.379 45.06a8.169 8.169 0 0 0-8.169 8.169v4.819h12.815L14.541 45.06z" transform="translate(-4.71 -2.591)" style="stroke:#000;fill:#bebdbd;stroke-miterlimit:10"/>
    <path data-name="패스 348" d="M30 45.06v12.979h11.222l3.484-12.979z" transform="translate(-5.703 -2.591)" style="stroke-linecap:round;fill:#f2f2f2;stroke:#000;stroke-miterlimit:10"/>
    <path data-name="패스 349" d="m34.857 44.752-5.069 1.68-5.069-1.68V36.9h10.138z" transform="translate(-5.491 -2.264)" style="stroke:#000;fill:#bebdbd;stroke-miterlimit:10"/>
    <path data-name="패스 350" d="M49.014 45.8a6.354 6.354 0 0 0-2.914-.74h-.922L41.69 58.048h12.566v-4.819a8.116 8.116 0 0 0-2.4-5.779" transform="translate(-6.171 -2.591)" style="stroke:#000;fill:#bebdbd;stroke-miterlimit:10"/>
    <path data-name="패스 351" d="M20.338 31.985a15.3 15.3 0 0 1-1.248-6.124c0-7.132 4.685-12.921 10.463-12.921s10.463 5.788 10.463 12.921a15.317 15.317 0 0 1-1.075 5.712c-.125.307-.259.6-.394.9-.163.336-.336.662-.528.979a10.01 10.01 0 0 1-8.467 5.328 8.738 8.738 0 0 1-7.814-4.32" transform="translate(-5.266 -1.304)" style="stroke-linecap:round;fill:#f2f2f2;stroke:#000;stroke-miterlimit:10"/>
    <path data-name="패스 352" d="m40.906 28.96-11.25 2.612a.627.627 0 0 1-.326 0L18.079 28.96a1.11 1.11 0 0 1-.749-1.133v-5.769a1.1 1.1 0 0 1 .778-1.142l11.251-2a.548.548 0 0 1 .25 0l11.26 2a1.09 1.09 0 0 1 .778 1.142v5.769a1.123 1.123 0 0 1-.741 1.133z" transform="translate(-5.195 -1.543)" style="stroke-miterlimit:10;fill:#717070;stroke:#010202"/>
    <path data-name="선 72" transform="translate(15.024 22.435)" style="fill:none;stroke-linecap:round;stroke:#000;stroke-miterlimit:10" d="M0 0v2.553"/>
    <path data-name="선 73" transform="translate(19.603 21.754)" style="fill:none;stroke-linecap:round;stroke:#000;stroke-miterlimit:10" d="M0 0v3.907"/>
    <path data-name="선 74" transform="translate(24.191 20.41)" style="fill:none;stroke-linecap:round;stroke:#000;stroke-miterlimit:10" d="M0 6.595V0"/>
    <path data-name="선 75" transform="translate(28.77 21.754)" style="fill:none;stroke-linecap:round;stroke:#000;stroke-miterlimit:10" d="M0 0v3.907"/>
    <path data-name="선 76" transform="translate(33.349 22.435)" style="fill:none;stroke-linecap:round;stroke:#000;stroke-miterlimit:10" d="M0 0v2.553"/>
</svg>
