<svg data-name="충전하기 아이콘" xmlns="http://www.w3.org/2000/svg" width="28.54" height="22.531" viewBox="0 0 28.54 22.531">
    <path data-name="add_card_FILL0_wght300_GRAD0_opsz48 copy" d="M2.178 22.531a2.1 2.1 0 0 1-1.5-.6A2.162 2.162 0 0 1 0 20.353V2.178A2.424 2.424 0 0 1 .6.6 2.424 2.424 0 0 1 2.178 0h24.184a1.891 1.891 0 0 1 1.5.676 2.09 2.09 0 0 1 .6 1.577v7.886H1.652v10.214c0 .15.075.225.15.376a.569.569 0 0 0 .3.15H16v1.652zM1.652 5.858h25.16v-3.68a.39.39 0 0 0-.15-.3.574.574 0 0 0-.376-.15H2.178a.39.39 0 0 0-.3.15.569.569 0 0 0-.15.3zm0 14.946zm14.27-3.981 5.783-5.783 1.2 1.2-3.68 3.68h9.315v1.73h-9.313l3.68 3.605-1.277 1.276z"/>
    <path data-name="충전하기 포인트" transform="translate(1.563 5.859)" style="fill:#3f52fc" d="M0 0h25.279v4.461H0z"/>
</svg>
