<svg data-name="채팅 문의" xmlns="http://www.w3.org/2000/svg" width="20" height="20" viewBox="0 0 20 20">
    <path d="M4 19.019V5.051a1.042 1.042 0 0 1 .325-.7A.93.93 0 0 1 5 4h12.975a.964.964 0 0 1 .7.338 1.022 1.022 0 0 1 .325.713v8.911a1.042 1.042 0 0 1-.325.7.95.95 0 0 1-.7.35H8zm5.025 1a.968.968 0 0 1-.688-.35 1.025 1.025 0 0 1-.337-.7v-2.453h12.5V8.005H23a.93.93 0 0 1 .675.35 1.065 1.065 0 0 1 .325.726V24l-3.975-3.98zM17.5 5.5h-12v9.887l1.875-1.877H17.5zm-12 0z" transform="translate(-4 -4)" style="fill:#3f52fc"/>
</svg>
