<svg data-name="인증 완료" xmlns="http://www.w3.org/2000/svg" width="20" height="20" viewBox="0 0 20 20">
    <path d="m12.525 18.55 7.075-7.075-1.15-1.125-5.925 5.925-3-3L8.4 14.4zM14 24a9.676 9.676 0 0 1-3.875-.788 10.075 10.075 0 0 1-5.338-5.337 9.989 9.989 0 0 1 0-7.775 9.994 9.994 0 0 1 2.15-3.175 10.251 10.251 0 0 1 3.188-2.137 9.989 9.989 0 0 1 7.775 0 9.984 9.984 0 0 1 5.312 5.312 9.989 9.989 0 0 1 0 7.775 10.251 10.251 0 0 1-2.138 3.188 9.994 9.994 0 0 1-3.175 2.15A9.738 9.738 0 0 1 14 24z" transform="translate(-4 -4)" style="fill:#3f52fc"/>
</svg>
