<svg data-name="그룹 3874" xmlns="http://www.w3.org/2000/svg" width="15.726" height="15.726" viewBox="0 0 15.726 15.726">
    <defs>
        <clipPath id="tde1nbdy0a">
            <path data-name="사각형 1778" style="fill:none" d="M0 0h15.726v15.726H0z"/>
        </clipPath>
    </defs>
    <g data-name="그룹 3767" style="clip-path:url(#tde1nbdy0a)">
        <path data-name="패스 5061" d="M52.043 15.726v-.878a6.985 6.985 0 1 0 0-13.971V0a7.863 7.863 0 0 1 0 15.726" transform="translate(-44.18)" style="fill:#3f52fc"/>
        <path data-name="패스 5062" d="m45.087.942-.118-.87A7.953 7.953 0 0 1 46.038 0v.878a7.092 7.092 0 0 0-.951.064" transform="translate(-38.175)" style="fill:#3f52fc"/>
        <path data-name="패스 5063" d="M4.816 18.545a7.861 7.861 0 0 1-1.765-1.031l.538-.694a6.983 6.983 0 0 0 1.568.916zm-3.205-2.482a7.862 7.862 0 0 1-1.02-1.773l.811-.335a6.983 6.983 0 0 0 .906 1.574zM.066 12.314a7.958 7.958 0 0 1 0-2.044l.87.113a7.083 7.083 0 0 0 0 1.818zM1.4 8.63l-.807-.336a7.858 7.858 0 0 1 1.02-1.772l.7.533A6.974 6.974 0 0 0 1.4 8.63m2.191-2.863-.537-.694A7.859 7.859 0 0 1 4.82 4.042l.34.809a6.979 6.979 0 0 0-1.569.916" transform="translate(0 -3.431)" style="fill:#3f52fc"/>
        <path data-name="패스 5064" d="M46.037 98.8a7.972 7.972 0 0 1-1.069-.072l.118-.869a7.086 7.086 0 0 0 .951.064z" transform="translate(-38.174 -83.071)" style="fill:#3f52fc"/>
        <path data-name="패스 5065" d="M9.123 0 3.494 4.116 1.311 1.13 0 2.089l2.183 2.986.959 1.311 6.943-5.077z" transform="rotate(-3 99.302 -54.053)" style="fill:#3f52fc"/>
    </g>
</svg>
