<svg xmlns="http://www.w3.org/2000/svg" width="45" height="45" viewBox="0 0 45 45">
    <path data-name="확인아이콘" d="M23.181 36.737 39.1 20.819l-2.587-2.531-13.332 13.331-6.75-6.75L13.9 27.4zM26.5 49a21.771 21.771 0 0 1-8.719-1.772A22.669 22.669 0 0 1 5.772 35.219a22.475 22.475 0 0 1 0-17.494 22.486 22.486 0 0 1 4.837-7.144 23.065 23.065 0 0 1 7.172-4.809 22.475 22.475 0 0 1 17.494 0 22.465 22.465 0 0 1 11.953 11.953 22.475 22.475 0 0 1 0 17.494 23.064 23.064 0 0 1-4.809 7.172 22.486 22.486 0 0 1-7.144 4.837A21.909 21.909 0 0 1 26.5 49z" transform="translate(-4 -4)" style="fill:#46a500"/>
</svg>
