<svg data-name="거래등급 보통" xmlns="http://www.w3.org/2000/svg" width="30" height="30" viewBox="0 0 30 30">
    <defs>
        <clipPath id="j8t8govala">
            <path data-name="사각형 744" style="fill:none" d="M0 0h30v30H0z"/>
        </clipPath>
        <clipPath id="gdpe70fjyb">
            <path data-name="패스 972" d="M.5 15A14.5 14.5 0 1 0 15 .5 14.5 14.5 0 0 0 .5 15" transform="translate(-.5 -.5)" style="fill:none"/>
        </clipPath>
    </defs>
    <g data-name="그룹 598">
        <g data-name="그룹 597" style="clip-path:url(#j8t8govala)">
            <path data-name="패스 969" d="M29.25 14.875A14.375 14.375 0 1 1 14.875.5 14.375 14.375 0 0 1 29.25 14.875" transform="translate(.125 .125)" style="fill:#c69c6d"/>
        </g>
    </g>
    <g data-name="그룹 600">
        <g data-name="그룹 599" style="clip-path:url(#gdpe70fjyb)" transform="translate(.5 .5)">
            <path data-name="패스 970" d="m20.62 8.2 2.48-1.655A14.563 14.563 0 0 0 17.219 1.6l-2.427 2.252A11.54 11.54 0 0 1 20.62 8.2" transform="translate(3.228 -.212)" style="fill:#efcd89"/>
            <path data-name="패스 971" d="m1.515 18.625 3.838-2.558s2.986 6.6 9.382 6.074 9.382-6.927 9.382-6.927l3.839 4.264A16.25 16.25 0 0 1 14.9 26.244c-8.691 0-13.383-7.619-13.383-7.619" transform="translate(-.235 3.338)" style="fill:#efcd89"/>
        </g>
    </g>
    <g data-name="그룹 602">
        <g data-name="그룹 601" style="clip-path:url(#j8t8govala)">
            <circle data-name="타원 72" cx="14.375" cy="14.375" r="14.375" transform="translate(.625 .625)" style="stroke-miterlimit:10;stroke:#754c24;fill:none"/>
            <path data-name="패스 973" d="M25.7 14.283A11.416 11.416 0 1 1 14.283 2.868 11.415 11.415 0 0 1 25.7 14.283" transform="translate(.717 .717)" style="fill:#b38d63"/>
            <path data-name="패스 974" d="M25.7 14.283A11.416 11.416 0 1 1 14.283 2.868 11.415 11.415 0 0 1 25.7 14.283z" transform="translate(.717 .717)" style="stroke:#8c6239;stroke-width:.75px;stroke-miterlimit:10;fill:none"/>
            <path data-name="패스 975" d="M22.872 7.063A11.416 11.416 0 0 1 6.379 22.442z" transform="translate(1.595 1.766)" style="fill:#8c6239"/>
            <path data-name="패스 976" d="M3 14.42A11.415 11.415 0 0 1 14.411 3z" transform="translate(.749 .751)" style="fill:#8c6239"/>
            <path data-name="패스 977" d="M5.976 17.725a.874.874 0 0 1-.774-.451l-.079-.112.205-.251-.287.131-.1-.145-.154-.214-.045-.045-.048-.1-.076-.1.181-.285-.27.155-.075-.105a.837.837 0 0 1-.025-1.064l4.529-6.03a2.288 2.288 0 0 1 1.824-.909h9.668a.975.975 0 0 1 .861.523l.141.229-.2.273.269-.161.066.108-.2.269.267-.161.313.487-.217.233.293-.125.284.436a.889.889 0 0 1 .025 1l-.663 1.04a1.221 1.221 0 0 1-.741.526l-.11.148.291-.113a.885.885 0 0 1-.077.8l-.662 1.04a1.231 1.231 0 0 1-.6.485.883.883 0 0 1-.039.88l-.663 1.039a1.273 1.273 0 0 1-1.071.573z" transform="translate(1.064 2.05)" style="fill:#754c24"/>
            <path data-name="패스 978" d="M20.512 8.573a.654.654 0 0 1 .585.358l.016.026.025.043c.008.011.015.024.021.035v.009a.113.113 0 0 1 .016.024v.006a.271.271 0 0 1 .022.037l.021.035.023.034a.432.432 0 0 1 .021.038.188.188 0 0 1 .022.035l.022.034c.008.014.015.024.021.038a.275.275 0 0 1 .023.035.286.286 0 0 1 .023.036l.023.035c.007.011.016.024.022.036a.334.334 0 0 1 .022.035l.024.038.022.035c.007.013.016.024.023.036l.023.035c.007.011.016.024.022.036a.084.084 0 0 1 .011.017l.009.011c.009.013.014.024.021.036s.015.024.024.035.015.024.022.035a.353.353 0 0 1 .023.036c.009.011.015.022.024.035l.023.035.022.035.024.036.022.035c.009.011.015.024.024.035l.022.035.024.036.023.035c.009.011.015.024.023.035l.024.036a.208.208 0 0 1 .023.035c.009.011.016.024.024.035l.024.036.022.035.024.035.023.036a.344.344 0 0 1 .024.035l.022.035.024.035a.572.572 0 0 1 .012.644l-.661 1.04a.948.948 0 0 1-.761.421l.015.039.016.041.016.041.017.041c.006.012.01.026.016.041a6.7 6.7 0 0 0 .055.135.689.689 0 0 1 .036.083.569.569 0 0 1-.05.523l-.663 1.04a.955.955 0 0 1-.808.427h-.045a.416.416 0 0 1 .048.071.506.506 0 0 1 .061.091.592.592 0 0 1 .061.089.577.577 0 0 1 .045.684l-.663 1.041a.956.956 0 0 1-.807.425H6.038a.554.554 0 0 1-.5-.286.288.288 0 0 1-.018-.024l-.016-.024a563.094 563.094 0 0 1-.032-.047c-.005-.009-.013-.015-.018-.024l-.016-.024a.267.267 0 0 1-.016-.024c-.005-.009-.013-.016-.018-.024l-.016-.025-.016-.024a.268.268 0 0 1-.016-.024L5.34 16.9l-.016-.024-.016-.024a.268.268 0 0 1-.016-.024c-.005-.009-.012-.015-.018-.024a.267.267 0 0 0-.016-.024l-.016-.024c0-.009-.012-.017-.016-.025l-.018-.025-.016-.024a.148.148 0 0 1-.016-.023.267.267 0 0 1-.016-.024c0-.009-.012-.015-.017-.024a.267.267 0 0 0-.016-.024c-.005-.009-.013-.017-.016-.024a.3.3 0 0 1-.016-.026.2.2 0 0 1-.017-.024c0-.006-.011-.015-.016-.024l-.006-.009-.01-.015c-.006-.007-.01-.016-.016-.024l-.016-.025a.2.2 0 0 1-.016-.024.117.117 0 0 1-.018-.024 563.1 563.1 0 0 0-.032-.047.2.2 0 0 1-.016-.024.117.117 0 0 1-.017-.024 470.39 470.39 0 0 0-.032-.048.13.13 0 0 1-.016-.024l-.016-.022c-.007-.009-.011-.017-.018-.024l-.016-.024-.016-.024-.016-.024a.545.545 0 0 1-.031-.7L9.27 9.36a1.969 1.969 0 0 1 1.574-.787zm0-.625h-9.668A2.608 2.608 0 0 0 8.77 8.986l-4.523 6.032a1.161 1.161 0 0 0 .027 1.444l.009.015.006.006.01.017.006.009.01.015.007.009.01.015.01.014.005.006.019.03.006.006.009.015.007.007.01.017.006.006.01.017.011.012v.005l.019.032.006.006.01.015.006.009.01.015.006.009.011.017.011.012.006.011.005.006.009.014.012.024.017.017.009.013v.012l.023.03v.006l.014.02.006.013.024.032v.006l.024.031v.006l.017.024.011.015v.017l.015.019v.007l.012.016v.008l.026.034.006.011.014.02.015.02v.006l.014.017.027.04.005.01.014.018v.006l.015.02.014.019.026.036.006.011.014.018v.006l.014.017v.006l.02.026a1.182 1.182 0 0 0 1.024.57h12.117a1.585 1.585 0 0 0 1.335-.715l.663-1.04a1.2 1.2 0 0 0 .163-.9 1.5 1.5 0 0 0 .475-.466l.663-1.04a1.2 1.2 0 0 0 .161-.9 1.483 1.483 0 0 0 .476-.469l.662-1.04a1.2 1.2 0 0 0-.023-1.33l-.047-.071-.051-.079a.86.86 0 0 0-.049-.074l-.049-.074-.046-.074-.049-.071a.673.673 0 0 0-.05-.076.622.622 0 0 0-.047-.074.565.565 0 0 0-.05-.076.445.445 0 0 0-.046-.071.478.478 0 0 0-.037-.059l-.011-.024-.011-.015-.011.042-.008-.011-.006-.009v-.005l-.035-.054.005.006s-.013-.021-.028-.041-.027-.047-.045-.074l-.044-.069-.05-.079a.903.903 0 0 0-.048-.076l-.049-.078c-.019-.033-.034-.055-.05-.079l-.015-.026-.012-.024-.015-.024c0-.01-.015-.025-.024-.04a1.098 1.098 0 0 0-.058-.091 1.254 1.254 0 0 0-1.106-.638" transform="translate(1.002 1.987)" style="fill:#754c24"/>
            <path data-name="패스 979" d="M5.121 16.521a.861.861 0 0 1-.687-1.379l4.522-6.033A2.29 2.29 0 0 1 10.78 8.2h9.669a.978.978 0 0 1 .841 1.47l-.654 1.109a1.244 1.244 0 0 1-1.066.61h-8.333l-3.851 5.132z" transform="translate(1.065 2.05)" style="fill:#efcd89"/>
            <path data-name="패스 980" d="M20.511 8.573a.664.664 0 0 1 .573 1l-.654 1.111a.924.924 0 0 1-.8.456h-8.49l-3.845 5.13h-2.11a.548.548 0 0 1-.439-.876L9.27 9.36a1.969 1.969 0 0 1 1.574-.787zm0-.625h-9.667A2.608 2.608 0 0 0 8.77 8.986l-4.524 6.032a1.173 1.173 0 0 0 .939 1.882h2.422l.188-.25 3.661-4.88h8.178a1.558 1.558 0 0 0 1.335-.77l.654-1.11a1.29 1.29 0 0 0-1.111-1.944" transform="translate(1.003 1.987)" style="fill:#754c24"/>
            <path data-name="패스 981" d="M10.278 9.446c-.384 0-4.017 4.952-5.106 6.451H7l3.847-5.131h8.49a.926.926 0 0 0 .8-.456l.507-.864z" transform="translate(1.293 2.362)" style="fill:#c69c6d"/>
            <path data-name="패스 982" d="m7.661 13.442 2.394-3.191h8.26a.978.978 0 0 1 .841 1.472l-.653 1.11a1.246 1.246 0 0 1-1.067.609z" transform="translate(1.915 2.563)" style="fill:#efcd89"/>
            <path data-name="패스 983" d="M18.44 10.626a.664.664 0 0 1 .572 1l-.654 1.11a.924.924 0 0 1-.8.456H8.411l1.924-2.566zm0-.625h-8.418l-.187.25-1.924 2.566-.75 1h10.4a1.554 1.554 0 0 0 1.335-.764l.654-1.11A1.289 1.289 0 0 0 18.44 10" transform="translate(1.79 2.5)" style="fill:#754c24"/>
            <path data-name="패스 984" d="m9.123 11.528-.962 1.282h9.151a.925.925 0 0 0 .8-.455l.486-.827z" transform="translate(2.04 2.882)" style="fill:#c69c6d"/>
            <path data-name="패스 985" d="M6.137 15.494 8.531 12.3h8.882a.978.978 0 0 1 .841 1.472l-.653 1.11a1.246 1.246 0 0 1-1.067.609z" transform="translate(1.534 3.076)" style="fill:#efcd89"/>
            <path data-name="패스 986" d="M17.538 12.679a.664.664 0 0 1 .573 1l-.654 1.11a.924.924 0 0 1-.8.456h-9.77l1.925-2.566zm0-.625H8.5l-.187.25-1.926 2.566-.75 1h11.024A1.555 1.555 0 0 0 18 15.106L18.649 14a1.289 1.289 0 0 0-1.111-1.942" transform="translate(1.409 3.013)" style="fill:#754c24"/>
            <path data-name="패스 987" d="m7.507 13.7-.87 1.16h9.774a.924.924 0 0 0 .8-.456l.486-.828z" transform="translate(1.659 3.395)" style="fill:#c69c6d"/>
        </g>
    </g>
</svg>
