<svg xmlns="http://www.w3.org/2000/svg" width="70" height="34" viewBox="0 0 70 34">
    <g data-name="신용카드" transform="translate(8531 1685)">
        <circle data-name="타원 109" cx="5.765" cy="5.765" r="5.765" transform="translate(-8491.888 -1670.019)" style="fill:#3f52fc"/>
        <path d="M-8483.418-1676.97v16.94a1.921 1.921 0 0 1-.617 1.435 2.066 2.066 0 0 1-1.488.595h-23.377a2.066 2.066 0 0 1-1.483-.6 1.921 1.921 0 0 1-.617-1.43v-16.94a1.921 1.921 0 0 1 .617-1.43 2.066 2.066 0 0 1 1.483-.6h23.377a2.066 2.066 0 0 1 1.488.6 1.921 1.921 0 0 1 .617 1.435zm-25.949 3.67h24.316v-3.67a.428.428 0 0 0-.145-.315.459.459 0 0 0-.327-.14h-23.377a.459.459 0 0 0-.327.14.428.428 0 0 0-.145.315zm0 3.675v9.59a.428.428 0 0 0 .145.315.459.459 0 0 0 .327.14h23.372a.459.459 0 0 0 .327-.14.428.428 0 0 0 .145-.315v-9.585zm0 10.045z"/>
    </g>
    <path style="fill:none" d="M0 0h70v34H0z"/>
</svg>
