<svg xmlns="http://www.w3.org/2000/svg" width="16" height="12.632" viewBox="0 0 16 12.632">
    <path data-name="add_card_FILL0_wght300_GRAD0_opsz48 copy" d="M6.221 21.632a1.176 1.176 0 0 1-.842-.337A1.212 1.212 0 0 1 5 20.411v-10.19a1.359 1.359 0 0 1 .337-.884A1.359 1.359 0 0 1 6.221 9h13.558a1.06 1.06 0 0 1 .842.379 1.171 1.171 0 0 1 .337.884v4.421H5.926v5.726c0 .084.042.126.084.211a.319.319 0 0 0 .168.084h7.789v.926zm-.295-9.347h14.106v-2.064a.219.219 0 0 0-.084-.168.322.322 0 0 0-.211-.084H6.221a.219.219 0 0 0-.168.084.319.319 0 0 0-.084.168zm0 8.379zm8-2.232 3.242-3.242.674.674-2.063 2.063H21v.968h-5.221l2.063 2.021-.716.716z" transform="translate(-5 -9)" style="fill:#fff"/>
</svg>
