<svg xmlns="http://www.w3.org/2000/svg" width="59.015" height="38.19" viewBox="0 0 59.015 38.19">
    <path data-name="패스 361" d="M274.108-30.614h34.435a.877.877 0 0 0 .881-.881v-24.044a.877.877 0 0 0-.881-.881h-52.092a.877.877 0 0 0-.881.881h0a.879.879 0 0 0 .747.863 4.493 4.493 0 0 1 3.736 4.421 4.486 4.486 0 0 1-3.736 4.421.879.879 0 0 0-.747.863v1.566a.879.879 0 0 0 .747.863 4.493 4.493 0 0 1 3.736 4.421 4.485 4.485 0 0 1-3.736 4.421.879.879 0 0 0-.747.863v1.325a.877.877 0 0 0 .881.881h11.226" transform="translate(-252.984 64.509)" style="stroke:#000;stroke-linecap:round;stroke-miterlimit:10;fill:#f2f2f2"/>
    <path data-name="선 85" transform="translate(32.564 11.968)" style="fill:none;stroke:#000;stroke-linecap:round;stroke-miterlimit:10" d="M0 3.398V0"/>
    <path data-name="선 86" transform="translate(32.564 17.625)" style="fill:none;stroke:#000;stroke-linecap:round;stroke-miterlimit:10" d="M0 12.4V0"/>
    <path data-name="선 87" transform="translate(12.425 16.789)" style="fill:none;stroke:#000;stroke-linecap:round;stroke-miterlimit:10" d="M14.615 0H0"/>
    <path data-name="선 88" transform="translate(12.425 24.466)" style="fill:none;stroke:#000;stroke-linecap:round;stroke-miterlimit:10" d="M14.615 0H0"/>
    <path data-name="패스 362" d="M309.056-55.23c0-.356-.391-.64-.872-.64l-51.31.027c-.48 0-.685.071-.685.418 0 .311.267.365.685.418a4.884 4.884 0 0 1 2.758 1.8l49.424-1.361z" transform="translate(-253.052 64.449)" style="fill:#f4f4f4"/>
    <path data-name="패스 363" d="M260.908-35.32c-.365 1.726-1.13 3.816-2.918 4.11-.418.071-1.77.436-1.77.854l.044.9c0 .463.116.7.6.7h51.3a.849.849 0 0 0 .863-.845v-5.462z" transform="translate(-253.055 62.179)" style="fill:#bebdbd"/>
    <path data-name="패스 364" d="m307.218-41.588-.712.694a.328.328 0 0 0-.089.285l.81 4.724a.323.323 0 0 1-.463.338l-4.243-2.233a.34.34 0 0 0-.294 0l-4.243 2.233a.318.318 0 0 1-.463-.338l.809-4.724a.337.337 0 0 0-.089-.285l-3.434-3.345a.319.319 0 0 1 .178-.543l4.741-.685a.323.323 0 0 0 .24-.169l2.117-4.3a.32.32 0 0 1 .569 0l2.117 4.3a.285.285 0 0 0 .24.169l4.741.685a.319.319 0 0 1 .178.543l-1.21 1.183" transform="translate(-257.307 63.812)" style="fill:#fff;stroke:#000;stroke-linecap:round;stroke-miterlimit:10"/>
    <path data-name="패스 365" d="m277.055-31.876 33.51-7.944a.878.878 0 0 0 .649-1.059l-5.542-23.4a.878.878 0 0 0-1.059-.649l-50.687 12.014a.878.878 0 0 0-.649 1.059h0a.879.879 0 0 0 .925.667 4.481 4.481 0 0 1 4.652 3.443 4.484 4.484 0 0 1-2.615 5.168.875.875 0 0 0-.525 1.014l.356 1.521a.879.879 0 0 0 .925.667 4.481 4.481 0 0 1 4.652 3.443 4.484 4.484 0 0 1-2.615 5.168.875.875 0 0 0-.525 1.014l.3 1.29a.878.878 0 0 0 1.059.649l10.926-2.589" transform="translate(-252.728 65.451)" style="stroke:#000;stroke-linecap:round;stroke-miterlimit:10;fill:#f2f2f2"/>
    <path data-name="선 89" transform="translate(30.403 9.593)" style="fill:none;stroke:#000;stroke-linecap:round;stroke-miterlimit:10" d="M.783 3.318 0 0"/>
    <path data-name="선 90" transform="translate(31.702 15.099)" style="fill:none;stroke:#000;stroke-linecap:round;stroke-miterlimit:10" d="M2.864 12.071 0 0"/>
    <path data-name="선 91" transform="translate(11.918 15.562)" style="fill:none;stroke:#000;stroke-linecap:round;stroke-miterlimit:10" d="M14.224 0 0 3.371"/>
    <path data-name="선 92" transform="translate(13.688 23.034)" style="fill:none;stroke:#000;stroke-linecap:round;stroke-miterlimit:10" d="M14.224 0 0 3.371"/>
    <path data-name="패스 366" d="M305.366-63.866a.767.767 0 0 0-.987-.418l-49.922 11.858c-.463.107-.649.222-.569.569.071.311.347.294.765.249a4.882 4.882 0 0 1 3.1 1.112l47.778-12.721z" transform="translate(-252.796 65.382)" style="fill:#f4f4f4"/>
    <path data-name="패스 367" d="M263.244-33.375c.044 1.761-.214 3.976-1.895 4.679-.391.169-1.628.836-1.53 1.245l.249.863c.107.454.276.658.738.543l10.755-2.555 6.165-1.459 33-7.819a.859.859 0 0 0 .649-1.023l-1.254-5.311z" transform="translate(-253.452 63.161)" style="fill:#bebdbd"/>
    <path data-name="패스 368" d="m306.876-48.893-.534.836a.341.341 0 0 0-.027.294l1.877 4.412a.314.314 0 0 1-.374.427l-4.643-1.192a.308.308 0 0 0-.285.071l-3.611 3.145a.318.318 0 0 1-.525-.222l-.3-4.786a.312.312 0 0 0-.151-.249l-4.11-2.464a.321.321 0 0 1 .044-.569l4.457-1.761a.327.327 0 0 0 .2-.222l1.076-4.67a.318.318 0 0 1 .552-.133l3.051 3.692a.319.319 0 0 0 .276.116l4.777-.427a.319.319 0 0 1 .294.489l-.907 1.432" transform="translate(-257.232 64.473)" style="fill:#fff;stroke:#000;stroke-linecap:round;stroke-miterlimit:10"/>
</svg>
