<svg data-name="카카오톡 문의하기" xmlns="http://www.w3.org/2000/svg" width="55" height="55" viewBox="0 0 55 55">
    <defs>
        <clipPath id="hf89o1wfza">
            <path data-name="패스 6179" d="M16.5 23.18h1.62s.01 4.46 0 5.5c0 .76 1.69.77 1.69.01l.01-5.45h1.62a.8.8 0 0 0 0-1.59c-1.14 0-4.94-.03-4.94-.03a.783.783 0 0 0 0 1.56" transform="translate(-15.54 -21.63)"/>
        </clipPath>
        <clipPath id="oz5uobuijb">
            <path data-name="패스 6181" d="m24.27 23.47.9 2.83h-1.88zm-1.01-1.32c-.4.88-1.84 5.03-2.32 6.14-.35.8 1.15 1.45 1.49.65l.32-1.14h2.97s-.1.05.29 1.09c.32.84 1.86.26 1.54-.58-.46-1.2-2.03-5.54-2.32-6.15a1.237 1.237 0 0 0-1.07-.49.9.9 0 0 0-.9.48" transform="translate(-20.59 -21.66)"/>
        </clipPath>
        <clipPath id="2ndzeg0xtc">
            <path data-name="패스 6183" d="M28.13 22.41c0 1.41.01 5.96.01 5.96s-.13.9.64.9 2.5-.01 3.26-.01.76-1.62 0-1.62-2.16-.01-2.16-.01.01-4.21 0-5.23a.793.793 0 0 0-.88-.74.78.78 0 0 0-.87.75" transform="translate(-28 -21.66)"/>
        </clipPath>
        <clipPath id="yqszeikr0d">
            <path data-name="패스 6185" d="M33 22.18c.02.62-.02 6.22-.02 6.63 0 .65 1.67.65 1.67 0v-2.2l.49-.39 2.14 2.92c.43.57 1.79-.46 1.36-1.03l-2.27-2.99s1.54-1.67 2.15-2.27c.35-.35-.74-1.46-1.1-1.11l-2.76 2.76s.02-1.52 0-2.36c-.01-.32-.4-.47-.8-.47-.43-.01-.87.17-.86.51" transform="translate(-32.98 -21.38)"/>
        </clipPath>
    </defs>
    <circle data-name="타원 185" cx="27.5" cy="27.5" r="27.5" style="fill:#ffdc19"/>
    <g data-name="그룹 4110">
        <path data-name="패스 6177" d="M27.5 13.01c-8.71 0-15.77 5.58-15.77 12.47 0 4.48 2.99 8.41 7.48 10.61-.33 1.23-1.19 4.46-1.37 5.15-.21.86.31.85.66.62.27-.18 4.32-2.94 6.07-4.12a20.1 20.1 0 0 0 2.93.22c8.71 0 15.77-5.58 15.77-12.47S36.21 13.01 27.5 13.01" style="fill:#371d1e"/>
        <g data-name="그룹 4109">
            <g data-name="그룹 4093">
                <g data-name="그룹 4091">
                    <path data-name="패스 6178" d="M16.5 23.18h1.62s.01 4.46 0 5.5c0 .76 1.69.77 1.69.01l.01-5.45h1.62a.8.8 0 0 0 0-1.59c-1.14 0-4.94-.03-4.94-.03a.783.783 0 0 0 0 1.56" style="fill:#fae100"/>
                    <g data-name="그룹 4090" transform="translate(15.54 21.63)" style="clip-path:url(#hf89o1wfza)">
                        <path data-name="사각형 1831" style="fill:#fae100" d="M0 0h6.9v7.82H0z"/>
                    </g>
                </g>
            </g>
            <g data-name="그룹 4098">
                <g data-name="그룹 4096">
                    <path data-name="패스 6180" d="m24.27 23.47.9 2.83h-1.88zm-1.01-1.32c-.4.88-1.84 5.03-2.32 6.14-.35.8 1.15 1.45 1.49.65l.32-1.14h2.97s-.1.05.29 1.09c.32.84 1.86.26 1.54-.58-.46-1.2-2.03-5.54-2.32-6.15a1.237 1.237 0 0 0-1.07-.49.9.9 0 0 0-.9.48" style="fill:#fae100"/>
                    <g data-name="그룹 4095" transform="translate(20.59 21.66)" style="clip-path:url(#oz5uobuijb)">
                        <path data-name="사각형 1832" style="fill:#fae100" d="M0 0h7.29v8.07H0z"/>
                    </g>
                </g>
            </g>
            <g data-name="그룹 4103">
                <g data-name="그룹 4101">
                    <path data-name="패스 6182" d="M28.13 22.41c0 1.41.01 5.96.01 5.96s-.13.9.64.9 2.5-.01 3.26-.01.76-1.62 0-1.62-2.16-.01-2.16-.01.01-4.21 0-5.23a.793.793 0 0 0-.88-.74.78.78 0 0 0-.87.75" style="fill:#fae100"/>
                    <g data-name="그룹 4100" transform="translate(28 21.66)" style="clip-path:url(#2ndzeg0xtc)">
                        <path data-name="사각형 1833" style="fill:#fae100" d="M0 0h4.8v7.61H0z"/>
                    </g>
                </g>
            </g>
            <g data-name="그룹 4108">
                <g data-name="그룹 4106">
                    <path data-name="패스 6184" d="M33 22.18c.02.62-.02 6.22-.02 6.63 0 .65 1.67.65 1.67 0v-2.2l.49-.39 2.14 2.92c.43.57 1.79-.46 1.36-1.03l-2.27-2.99s1.54-1.67 2.15-2.27c.35-.35-.74-1.46-1.1-1.11l-2.76 2.76s.02-1.52 0-2.36c-.01-.32-.4-.47-.8-.47-.43-.01-.87.17-.86.51" style="fill:#fae100"/>
                    <g data-name="그룹 4105" transform="translate(32.98 21.38)" style="clip-path:url(#yqszeikr0d)">
                        <path data-name="사각형 1834" style="fill:#fae100" d="M0 0h6.09v8.33H0z"/>
                    </g>
                </g>
            </g>
        </g>
    </g>
</svg>
