<svg xmlns="http://www.w3.org/2000/svg" width="136.063" height="51.024" viewBox="0 0 136.063 51.024">
    <defs>
        <clipPath id="441dducnha">
            <path data-name="사각형 1894" style="fill:none" d="M0 0h136.063v51.024H0z"/>
        </clipPath>
    </defs>
    <g data-name="그룹 4309" style="clip-path:url(#441dducnha)">
        <path data-name="패스 6435" d="M124.1 51.024H11.959A11.959 11.959 0 0 1 0 39.064V11.96A11.96 11.96 0 0 1 11.959 0H124.1a11.96 11.96 0 0 1 11.96 11.96v27.1a11.96 11.96 0 0 1-11.96 11.96" style="fill:#fbe100"/>
        <path data-name="패스 6436" d="M25.872 10.068c-9.05 0-16.385 6.2-16.385 13.865 0 4.981 3.106 9.351 7.771 11.8-.342 1.368-.73 3.621-.917 4.388-.218.957.322.945.686.69a64.039 64.039 0 0 0 5.8-3.243 19.647 19.647 0 0 0 3.044.244c9.05 0 16.385-6.2 16.385-13.865s-7.334-13.879-16.384-13.879" style="fill:#371d1e"/>
        <path data-name="패스 6437" d="M15.514 24.285a6.182 6.182 0 0 1 .436-2.349 5.334 5.334 0 0 1 3.075-3.029 6.378 6.378 0 0 1 2.349-.424 5.948 5.948 0 0 1 1.912.3 5.388 5.388 0 0 1 1.554.811 5.457 5.457 0 0 1 1.17 1.206 5.916 5.916 0 0 1 .765 1.5H24.6a2.918 2.918 0 0 0-1.116-1.443 3.9 3.9 0 0 0-3.6-.331 3.451 3.451 0 0 0-1.178.833 3.832 3.832 0 0 0-.773 1.285 5.013 5.013 0 0 0 0 3.275 3.812 3.812 0 0 0 .773 1.285 3.438 3.438 0 0 0 1.178.833 3.723 3.723 0 0 0 1.492.294 4.346 4.346 0 0 0 2.012-.452 2.707 2.707 0 0 0 1.277-1.358h2.173a4.59 4.59 0 0 1-.818 1.544 4.956 4.956 0 0 1-1.27 1.113 5.986 5.986 0 0 1-1.591.675 6.882 6.882 0 0 1-1.783.23 6.378 6.378 0 0 1-2.349-.424 5.478 5.478 0 0 1-1.859-1.191 5.418 5.418 0 0 1-1.216-1.838 6.177 6.177 0 0 1-.436-2.348" style="fill:#fbe100"/>
        <path data-name="패스 6438" d="M30.156 18.2v4.1c.062-.056.15-.138.268-.244a2.339 2.339 0 0 1 .459-.308 3.319 3.319 0 0 1 .658-.258 3.069 3.069 0 0 1 .849-.108 3.956 3.956 0 0 1 1.262.208 3.277 3.277 0 0 1 1.109.632 3.121 3.121 0 0 1 .789 1.07 3.573 3.573 0 0 1 .3 1.507v5.113h-2.02V25.2a2.322 2.322 0 0 0-.466-1.544 1.675 1.675 0 0 0-1.354-.553 1.751 1.751 0 0 0-1.339.546 2.177 2.177 0 0 0-.513 1.551v4.71h-2.02V18.2z" style="fill:#fbe100"/>
        <path data-name="패스 6439" d="M70.031 23.855a6.541 6.541 0 0 0 1.055 1.953 5.048 5.048 0 0 0 1.614 1.367l-.719.922a5.36 5.36 0 0 1-1.758-1.566 7.57 7.57 0 0 1-1.132-2.293 8.171 8.171 0 0 1-1.118 2.457 5.5 5.5 0 0 1-1.757 1.684l-.735-.907a5.364 5.364 0 0 0 1.6-1.465 7.112 7.112 0 0 0 1.047-2.058 7.659 7.659 0 0 0 .372-2.289v-.641h-2.688V20H68.5v-2.09h1.172V20h2.656v1.015h-2.672v.641a6.905 6.905 0 0 0 .375 2.195m3.25-6.164h1.172v5.328h1.891v-5.621h1.187v13.891h-1.187v-7.219h-1.891v6.516h-1.172z" style="fill:#191919"/>
        <path data-name="패스 6440" d="M81.484 22.957q1.741-.008 3.168-.121a25.365 25.365 0 0 0 2.863-.4l.188 1.016a27.861 27.861 0 0 1-3.07.422q-1.493.117-3.321.109H80.25v-5.901h1.234zm.453 2.281h9v3.328h-7.75V30.1h8.25v1h-9.468v-3.487H89.7v-1.375h-7.763zm3.766-5.5h4v-2.344h1.234v7.2H89.7v-3.856h-4z" style="fill:#191919"/>
        <path data-name="패스 6441" d="M109.922 26.832h-5.735v4.484h-1.2v-4.484h-5.722V25.8h12.657zm-9.477-3.793a5.786 5.786 0 0 0 1.836-1.289 2.345 2.345 0 0 0 .7-1.606v-.015H98.5v-1h4.484v-1.735h1.2v1.735h4.516v1h-4.5v.015a2.363 2.363 0 0 0 .695 1.6 5.653 5.653 0 0 0 1.828 1.293 8.259 8.259 0 0 0 2.383.7l-.453.985a9.211 9.211 0 0 1-2.074-.567 7.322 7.322 0 0 1-1.774-1.008 4.748 4.748 0 0 1-1.207-1.339 4.6 4.6 0 0 1-1.215 1.343 7.493 7.493 0 0 1-1.785 1 9.282 9.282 0 0 1-2.086.567l-.453-.985a8.259 8.259 0 0 0 2.383-.7" style="fill:#191919"/>
        <path data-name="패스 6442" d="M115.328 24.379a8.508 8.508 0 0 0 1.68-4.453h-5.18V18.9h6.422a10.553 10.553 0 0 1-1.562 5.617 11.352 11.352 0 0 1-4.813 4.133l-.687-.969a11.328 11.328 0 0 0 4.14-3.3m6.516-1.328h2.25v1.031h-2.25v7.2h-1.219V17.4h1.219z" style="fill:#191919"/>
        <path data-name="패스 6443" d="M57.973 24.088h-4.8v-4.8h-2.847v4.8h-4.8v2.847h4.8v4.8h2.847v-4.8h4.8z" style="fill:#371d1e"/>
    </g>
</svg>
