<svg data-name="거래등급 루키" xmlns="http://www.w3.org/2000/svg" width="31" height="31.103" viewBox="0 0 31 31.103">
    <defs>
        <clipPath id="gl4yuhm8na">
            <path data-name="사각형 763" style="fill:none" d="M0 0h31v31.103H0z"/>
        </clipPath>
        <clipPath id="kl8ewn23rb">
            <path data-name="패스 1301" d="M.5 15.5a15 15 0 1 0 15-15 15 15 0 0 0-15 15" style="fill:none"/>
        </clipPath>
    </defs>
    <g data-name="그룹 664">
        <g data-name="그룹 663" style="clip-path:url(#gl4yuhm8na)">
            <path data-name="패스 1298" d="M30.5 15.5a15 15 0 1 1-15-15 15 15 0 0 1 15 15" style="fill:#cec8c4"/>
        </g>
    </g>
    <g data-name="그룹 666">
        <g data-name="그룹 665" style="clip-path:url(#kl8ewn23rb)">
            <path data-name="패스 1299" d="m25.171 8.765 2.57-1.713a15.06 15.06 0 0 0-6.088-5.111l-2.511 2.324a11.939 11.939 0 0 1 6.029 4.5" style="fill:#e8e4e2"/>
            <path data-name="패스 1300" d="m1.824 23.221 3.97-2.647s3.088 6.832 9.7 6.283 9.706-7.165 9.706-7.165l3.977 4.408a16.813 16.813 0 0 1-13.51 7c-8.991 0-13.843-7.882-13.843-7.882" style="fill:#e8e4e2"/>
        </g>
    </g>
    <g data-name="그룹 668">
        <g data-name="그룹 667" style="clip-path:url(#gl4yuhm8na)">
            <circle data-name="타원 73" cx="15" cy="15" r="15" transform="translate(.5 .5)" style="stroke-miterlimit:10;stroke:#44403e;fill:none"/>
            <path data-name="패스 1302" d="M27.412 15.5A11.912 11.912 0 1 1 15.5 3.588 11.912 11.912 0 0 1 27.412 15.5" style="fill:#bcb3b1"/>
            <circle data-name="타원 74" cx="11.912" cy="11.912" r="11.912" transform="translate(3.588 3.588)" style="stroke:#7f7874;stroke-width:.75px;stroke-miterlimit:10;fill:none"/>
            <path data-name="패스 1303" d="M25.377 9.061a11.913 11.913 0 0 1-17.21 16.048z" style="fill:#7f7874"/>
            <path data-name="패스 1304" d="M3.756 15.678A11.912 11.912 0 0 1 15.667 3.766z" style="fill:#7f7874"/>
            <path data-name="패스 1305" d="M7.194 20.407a.834.834 0 0 1-.741-.432l-.086-.13-.152-.21-.546-.789a.8.8 0 0 1-.024-1.011l4.722-6.3a2.315 2.315 0 0 1 1.842-.921H22.3a.939.939 0 0 1 .832.505l.081.143-.166.2.232-.1-.163.212.227-.108.062.1-.16.211.224-.112.149.236-.162.209.219-.123.07.109-.147.233.212-.133.151.232-.16.212.238-.093-.165.2.237-.094-.164.2.237-.094a.865.865 0 0 1 .035.974l-.69 1.085a1.21 1.21 0 0 1-.721.514l-.147.128.239-.06a.722.722 0 0 1 .045.109.83.83 0 0 1-.082.749l-.69 1.084a1.216 1.216 0 0 1-.668.5.837.837 0 0 1 0 .921l-.691 1.084a1.254 1.254 0 0 1-1.054.562z" style="fill:#44403e"/>
            <path data-name="패스 1306" d="M22.3 10.868a.685.685 0 0 1 .611.371c0 .009.012.016.017.025s.017.027.024.042.016.024.023.037v.007a.24.24 0 0 1 .016.027v.009l.023.037a.45.45 0 0 1 .022.037.285.285 0 0 1 .023.037 893.867 893.867 0 0 1 .046.074c.009.012.016.024.024.037l.023.037a.46.46 0 0 1 .023.037l.023.037a.4.4 0 0 1 .024.038l.023.037c.007.013.017.024.024.037s.017.025.024.038a.373.373 0 0 1 .023.037c.008.013.017.025.024.038s.017.024.024.038.017.023.023.036l.013.019.008.013c.009.011.015.024.023.036s.015.025.024.037l.024.036c.009.012.015.025.023.037l.024.037.024.037.024.037.024.037.024.036.024.037.024.037.024.037.025.037.024.037.024.037.024.037c.009.012.016.024.024.037a3747.764 3747.764 0 0 1 .048.074.479.479 0 0 1 .025.037l.024.037c.008.012.017.024.024.037s.017.024.025.037l.024.037a.6.6 0 0 1 .015.675l-.691 1.085a.989.989 0 0 1-.793.44c.006.013.01.027.015.04a.383.383 0 0 1 .017.043c.007.014.012.028.018.043l.017.042c.006.014.01.029.017.043a.625.625 0 0 1 .024.06.632.632 0 0 1 .034.081.719.719 0 0 1 .037.086.593.593 0 0 1-.052.545l-.686 1.082a1 1 0 0 1-.842.446h-.048a.5.5 0 0 1 .049.074.675.675 0 0 1 .065.1.65.65 0 0 1 .064.094.6.6 0 0 1 .046.713l-.69 1.085a1 1 0 0 1-.843.446H7.194a.58.58 0 0 1-.521-.3l-.017-.024c-.005-.009-.013-.017-.017-.025s-.013-.016-.018-.025l-.017-.025-.017-.025c-.005-.009-.013-.016-.018-.025l-.017-.025-.017-.025c-.005-.009-.013-.016-.017-.025s-.013-.016-.018-.025l-.017-.025c-.005-.009-.013-.016-.017-.025s-.013-.016-.017-.025-.013-.016-.018-.025l-.017-.025a.22.22 0 0 1-.017-.025.227.227 0 0 1-.018-.025l-.017-.024c-.005-.009-.013-.017-.017-.025s-.013-.016-.018-.025l-.017-.025-.017-.025c-.005-.009-.013-.016-.017-.025s-.013-.016-.018-.025l-.017-.025c-.005-.009-.013-.016-.017-.025s-.013-.016-.018-.025l-.017-.025-.017-.025-.005-.008-.011-.016a.22.22 0 0 1-.017-.025c-.007-.007-.011-.016-.018-.024s-.01-.017-.017-.025-.011-.017-.017-.025l-.017-.025c-.006-.008-.011-.017-.018-.025a.207.207 0 0 1-.017-.024c-.007-.008-.011-.017-.017-.025s-.011-.017-.018-.025-.01-.017-.017-.025a.219.219 0 0 1-.017-.025c-.007-.007-.011-.017-.017-.024s-.011-.017-.018-.025l-.017-.025c-.007-.008-.011-.017-.017-.025a.22.22 0 0 1-.017-.025.57.57 0 0 1-.033-.727l4.721-6.295a2.053 2.053 0 0 1 1.642-.821zm0-.5H12.208a2.567 2.567 0 0 0-2.042 1.021l-4.721 6.3a1.065 1.065 0 0 0 .031 1.327l.007.012.009.01.012.018.015.022.008.011.011.015.014.023.01.011.011.016.014.023.009.011.012.016.014.023.009.011.011.016.015.023.009.011.01.014.015.025.01.012.01.014.015.024.011.014v.006l.01.017.006.007v.011l.016.021v.007l.013.018.005.007.005.007v.007l.014.019v.005l.016.022v.006l.013.018.016.02v.007l.013.018v.005l.015.02v.006l.014.019v.006l.014.019.015.02v.006l.015.02.015.019v.006l.014.019.015.021v.006l.014.018v.006l.014.019v.006l.014.019.015.02.015.019v.006l.015.02v.007l.093.054v.005l.014.019v.006l.016.021v.005l.014.019v.006l.014.02.017.023a1.085 1.085 0 0 0 .943.53h12.579a1.506 1.506 0 0 0 1.265-.677l.69-1.085a1.093 1.093 0 0 0 .121-.928 1.415 1.415 0 0 0 .545-.495l.691-1.085a1.094 1.094 0 0 0 .12-.926 1.428 1.428 0 0 0 .546-.5l.69-1.085a1.1 1.1 0 0 0-.02-1.221l-.048-.074-.052-.078c-.021-.034-.035-.056-.051-.078s-.035-.055-.05-.076l-.05-.076-.055-.07a.224.224 0 0 0-.027-.04l-.049-.075a.224.224 0 0 0-.024-.04l-.014-.022-.035-.053a.513.513 0 0 0-.051-.077l-.016-.027-.029-.043-.017-.029-.008-.012-.01-.015-.018-.029-.007-.012-.028-.042-.447.229.4-.3-.02-.043-.449.227.4-.3-.026-.041-.445.232.394-.312-.026-.04c-.022-.037-.035-.059-.05-.08l-.048-.076a.184.184 0 0 0-.023-.038l-.013-.023-.007-.01a.415.415 0 0 0-.028-.048l-.455.213.426-.261-.012-.021-.005-.006a1.187 1.187 0 0 0-1.039-.613" style="fill:#44403e"/>
            <path data-name="패스 1307" d="M6.3 19.15a.822.822 0 0 1-.659-1.316l4.721-6.3a2.315 2.315 0 0 1 1.842-.921H22.3a.942.942 0 0 1 .813 1.421l-.685 1.166a1.225 1.225 0 0 1-1.048.6h-8.734L8.63 19.15z" style="fill:#e8e4e2"/>
            <path data-name="패스 1308" d="M22.3 10.868a.693.693 0 0 1 .6 1.044l-.681 1.158a.966.966 0 0 1-.832.476h-8.866L8.505 18.9H6.3a.573.573 0 0 1-.459-.917l4.721-6.295a2.053 2.053 0 0 1 1.642-.821zm0-.5H12.208a2.567 2.567 0 0 0-2.042 1.021l-4.721 6.3A1.073 1.073 0 0 0 6.3 19.4h2.455l.15-.2 3.866-5.155h8.609a1.47 1.47 0 0 0 1.262-.722l.682-1.159a1.192 1.192 0 0 0-1.028-1.8" style="fill:#44403e"/>
            <path data-name="패스 1309" d="M11.922 12.168c-.4 0-4.19 5.167-5.329 6.732H8.5l4.017-5.355h8.863a.966.966 0 0 0 .832-.476l.531-.9z" style="fill:#bcb3b1"/>
            <path data-name="패스 1310" d="m9.993 16.473 2.384-3.173h8.581a.941.941 0 0 1 .811 1.42l-.679 1.159a1.223 1.223 0 0 1-1.048.6z" style="fill:#cec8c4"/>
            <path data-name="패스 1311" d="M20.958 13.545a.693.693 0 0 1 .6 1.044l-.682 1.158a.963.963 0 0 1-.831.476h-9.552l2.007-2.678zm0-.5h-8.707l-.15.2-2.008 2.678-.6.8h10.549A1.47 1.47 0 0 0 21.3 16l.682-1.159a1.192 1.192 0 0 0-1.028-1.8" style="fill:#44403e"/>
            <path data-name="패스 1312" d="m11.5 14.884-1 1.339h9.549a.963.963 0 0 0 .831-.476l.508-.863z" style="fill:#7f7874"/>
            <path data-name="패스 1313" d="m8.005 19.15 2.383-3.177h9.23a.942.942 0 0 1 .814 1.42l-.682 1.158a1.22 1.22 0 0 1-1.048.6z" style="fill:#bcb3b1"/>
            <path data-name="패스 1314" d="M19.619 16.223a.693.693 0 0 1 .6 1.044l-.682 1.158a.963.963 0 0 1-.831.476H8.505l2.008-2.678zm0-.5h-9.356l-.15.2L8.1 18.6l-.6.8h11.2a1.47 1.47 0 0 0 1.262-.722l.682-1.159a1.192 1.192 0 0 0-1.028-1.8" style="fill:#44403e"/>
            <path data-name="패스 1315" d="m9.413 17.69-.908 1.21H18.7a.967.967 0 0 0 .832-.475l.508-.864z" style="fill:#7f7874"/>
        </g>
    </g>
</svg>
