<svg xmlns="http://www.w3.org/2000/svg" width="15.992" height="14.3" viewBox="0 0 15.992 14.3">
  <path id="관심아이콘" d="M13,20.6l-.673-.584q-2.167-1.98-3.577-3.4A26.319,26.319,0,0,1,6.494,14.1a7.943,7.943,0,0,1-1.168-1.991A5.126,5.126,0,0,1,5,10.323,3.874,3.874,0,0,1,6.168,7.457,3.949,3.949,0,0,1,9.061,6.3a4.243,4.243,0,0,1,2.178.584A5.452,5.452,0,0,1,13,8.593a5.966,5.966,0,0,1,1.82-1.73A4.17,4.17,0,0,1,16.931,6.3a3.949,3.949,0,0,1,2.893,1.157,3.874,3.874,0,0,1,1.168,2.866,5.126,5.126,0,0,1-.326,1.782A7.943,7.943,0,0,1,19.5,14.1a26.319,26.319,0,0,1-2.252,2.522q-1.41,1.417-3.577,3.4Zm0-1.251q2.1-1.9,3.461-3.252A25.66,25.66,0,0,0,18.6,13.721a8.212,8.212,0,0,0,1.115-1.814,4.133,4.133,0,0,0,.326-1.584,2.981,2.981,0,0,0-.884-2.21,3.013,3.013,0,0,0-2.209-.876,3.353,3.353,0,0,0-1.989.636A5.39,5.39,0,0,0,13.4,9.76h-.8a5.485,5.485,0,0,0-1.578-1.876A3.331,3.331,0,0,0,9.04,7.238a3.008,3.008,0,0,0-3.093,3.106,4.085,4.085,0,0,0,.326,1.563,8.41,8.41,0,0,0,1.115,1.824,23.392,23.392,0,0,0,2.157,2.376Q10.913,17.452,13,19.349ZM13,13.3Z" transform="translate(-5 -6.3)"/>
</svg>
