<svg data-name="엘페이 비활성화" xmlns="http://www.w3.org/2000/svg" width="70" height="34" viewBox="0 0 70 34">
    <path data-name="패스 1169" d="M212.607 496.434h-1.912a.312.312 0 0 0-.312.313v11.617a.313.313 0 0 0 .071.2l.983 1.2a.313.313 0 0 0 .242.114h7.888a.314.314 0 0 0 .313-.313v-1.91a.314.314 0 0 0-.313-.313h-6.648v-10.595a.312.312 0 0 0-.312-.313z" transform="translate(-197.771 -482.834)" style="fill:#c7c7c7"/>
    <path data-name="패스 1170" d="M283.722 496.434h-2.537l-5.033 13.013a.313.313 0 0 0 .292.426h1.865a.313.313 0 0 0 .292-.2l.972-2.513a.314.314 0 0 1 .293-.2h5.322a.313.313 0 0 1 .292.2l.972 2.513a.314.314 0 0 0 .292.2h1.865a.313.313 0 0 0 .292-.426l-5.032-13.013zM280.8 504l1.438-3.718a.313.313 0 0 1 .585 0l1.435 3.718a.313.313 0 0 1-.292.426h-2.875a.313.313 0 0 1-.291-.426z" transform="translate(-237.761 -482.834)" style="fill:#c7c7c7"/>
    <path data-name="패스 1171" d="m314.361 496.61-2.571 5.262a.314.314 0 0 1-.563 0l-2.571-5.262a.314.314 0 0 0-.281-.176h-1.839a.314.314 0 0 0-.282.451l3.984 8.153h.006v4.521a.313.313 0 0 0 .313.313h1.91a.313.313 0 0 0 .313-.313v-4.521l3.984-8.153a.313.313 0 0 0-.282-.451h-1.839a.315.315 0 0 0-.282.176z" transform="translate(-256.061 -482.834)" style="fill:#c7c7c7"/>
    <path data-name="패스 1172" d="M256.369 496.434h-5.443a.314.314 0 0 0-.313.313v12.813a.313.313 0 0 0 .313.313h1.91a.314.314 0 0 0 .313-.313v-3.869h3.372a4.628 4.628 0 0 0 4.627-4.715 4.729 4.729 0 0 0-4.779-4.542zm-.073 6.72h-3.17v-4.495h3.264a2.248 2.248 0 0 1 2.247 2.317 2.31 2.31 0 0 1-2.337 2.178z" transform="translate(-222.24 -482.834)" style="fill:#c7c7c7"/>
    <path data-name="패스 1173" d="M241.464 525.3v-1.507l-1.378-.754-1.378.754v1.507l1.378.754z" transform="translate(-214.999 -499.017)" style="fill:#c7c7c7"/>
    <path style="fill:none" d="M0 0h70v34H0z"/>
</svg>
