<svg data-name="내 거래 아이콘" xmlns="http://www.w3.org/2000/svg" width="36.022" height="33.606" viewBox="0 0 36.022 33.606">
    <defs>
        <clipPath id="5j8k190u9a">
            <path data-name="사각형 1850" style="fill:none" d="M0 0h36.022v33.606H0z"/>
        </clipPath>
    </defs>
    <path data-name="패스 6425" d="m30.979 24.307-3.86-3.86v2.064h-7V26.1h7v2.064z" transform="translate(1.726 1.754)" style="fill:#3f52fc"/>
    <g data-name="그룹 4119">
        <g data-name="그룹 4118" style="clip-path:url(#5j8k190u9a)">
            <path data-name="패스 6426" d="M28.845 30.619a.7.7 0 0 1-.7-.7v-1.364h-6.3a.7.7 0 0 1-.7-.7v-3.589a.7.7 0 0 1 .7-.7h6.3v-1.367a.7.7 0 0 1 1.191-.494l3.861 3.86a.7.7 0 0 1 0 .987l-3.861 3.859a.7.7 0 0 1-.493.205m-6.3-3.46h6.3a.7.7 0 0 1 .7.7v.379l2.175-2.175-2.175-2.175v.38a.7.7 0 0 1-.7.7h-6.3z"/>
            <path data-name="사각형 1844" d="M1.868 0h13.811a1.869 1.869 0 0 1 1.869 1.869v12.507a1.869 1.869 0 0 1-1.869 1.869H1.868A1.868 1.868 0 0 1 0 14.377V1.868A1.868 1.868 0 0 1 1.868 0z" transform="translate(17.776 3.445)" style="fill:#fff"/>
            <path data-name="패스 6427" d="M33.295 20.388H19.804a2.73 2.73 0 0 1-2.726-2.726V5.473a2.73 2.73 0 0 1 2.726-2.726h13.49a2.73 2.73 0 0 1 2.726 2.726v12.189a2.73 2.73 0 0 1-2.726 2.726M19.804 4.143a1.332 1.332 0 0 0-1.33 1.33v12.189a1.331 1.331 0 0 0 1.33 1.33h13.49a1.332 1.332 0 0 0 1.331-1.33V5.473a1.332 1.332 0 0 0-1.331-1.33z"/>
            <path data-name="사각형 1845" d="M17.931 6.92h17.237v3.719H17.931z"/>
            <path data-name="패스 6428" d="M28.286 14.122a2.336 2.336 0 1 0-2.337 2.335 2.337 2.337 0 0 0 2.337-2.335" transform="translate(2.025 1.011)" style="fill:#e9e9fd"/>
            <path data-name="패스 6429" d="M30.691 14.122a2.337 2.337 0 1 0-2.337 2.335 2.337 2.337 0 0 0 2.337-2.335" transform="translate(2.231 1.011)" style="fill:#3f52fc"/>
            <rect data-name="사각형 1846" width="18.724" height="32.21" rx="1.895" transform="translate(.698 .698)" style="fill:#fff"/>
            <path data-name="패스 6430" d="M17.365 33.606H2.756A2.759 2.759 0 0 1 0 30.851V2.756A2.759 2.759 0 0 1 2.756 0h14.61a2.759 2.759 0 0 1 2.756 2.756v28.095a2.759 2.759 0 0 1-2.756 2.756M2.756 1.4A1.361 1.361 0 0 0 1.4 2.756v28.095a1.361 1.361 0 0 0 1.356 1.359h14.61a1.361 1.361 0 0 0 1.359-1.359V2.756a1.361 1.361 0 0 0-1.36-1.356z"/>
            <path data-name="사각형 1847" transform="translate(2.287 4.819)" style="fill:#3f52fc" d="M0 0h15.547v25.483H0z"/>
            <path data-name="패스 6431" d="M11.928 3.956H8.192a.7.7 0 0 1 0-1.4h3.735a.7.7 0 0 1 0 1.4"/>
            <path data-name="사각형 1848" transform="translate(7.619 12.636)" style="fill:#e9e9fd" d="M0 0h14.988v15.819H0z"/>
            <path data-name="패스 6432" d="M22.607 29.154H7.62a.7.7 0 0 1-.7-.7V12.636a.7.7 0 0 1 .7-.7h14.987a.7.7 0 0 1 .7.7v15.82a.7.7 0 0 1-.7.7m-14.288-1.4H21.91V13.333H8.318z"/>
            <path data-name="패스 6433" d="M18.444 15.332a.7.7 0 0 1-.7-.7v-2.165a2.632 2.632 0 1 0-5.264 0v2.164a.7.7 0 1 1-1.4 0v-2.164a4.028 4.028 0 1 1 8.056 0v2.164a.7.7 0 0 1-.7.7"/>
            <path data-name="사각형 1849" d="M22.985 24.398h1.786v3.246h-1.786z"/>
            <path data-name="패스 6434" d="M13.961 24.487a.7.7 0 0 1-.494-.2l-2.617-2.622a.7.7 0 0 1 .991-.987l2.124 2.124 4.3-4.305a.7.7 0 0 1 .987.987l-4.8 4.8a.7.7 0 0 1-.494.2"/>
        </g>
    </g>
</svg>
