<svg xmlns="http://www.w3.org/2000/svg" width="12.902" height="10.899" viewBox="0 0 12.902 10.899">
    <path data-name="공지사항" d="M8.635 25.9v-3.964H7.154a1.4 1.4 0 0 1-1.018-.43 1.367 1.367 0 0 1-.436-1v-1.621a1.367 1.367 0 0 1 .436-1 1.4 1.4 0 0 1 1.018-.43h4.2L15.535 15v9.387l-4.177-2.451h-1.93V25.9zm1.982-6.207zm6.794 3.025v-6.049a3.663 3.663 0 0 1 .859 1.291 4.714 4.714 0 0 1 0 3.468 3.663 3.663 0 0 1-.859 1.291zM7.154 18.259a.61.61 0 0 0-.436.2.594.594 0 0 0-.2.43V20.5a.594.594 0 0 0 .2.43.61.61 0 0 0 .436.2h4.415l3.146 1.851v-6.573l-3.146 1.851z" transform="translate(-5.7 -15)" style="fill:#3f52fc"/>
</svg>
