<svg xmlns="http://www.w3.org/2000/svg" width="27.901" height="23.899" viewBox="0 0 27.901 23.899">
    <path data-name="공지사항" d="M12.046 38.9v-8.691h-3.2a3.017 3.017 0 0 1-2.2-.943 3.017 3.017 0 0 1-.943-2.2v-3.547a3.017 3.017 0 0 1 .943-2.2 3.017 3.017 0 0 1 2.2-.943h9.091L26.969 15v20.583l-9.034-5.374h-4.173V38.9zm4.289-13.609zm14.694 6.632V18.659a8.041 8.041 0 0 1 1.858 2.83 10.471 10.471 0 0 1 0 7.6 8.041 8.041 0 0 1-1.858 2.83zM8.845 22.147a1.476 1.476 0 0 0-1.372 1.372v3.545a1.476 1.476 0 0 0 1.372 1.372h9.548L25.2 32.5V18.087l-6.8 4.059z" transform="translate(-5.7 -15)" style="fill:#707070"/>
</svg>
