<svg data-name="페이코페이 비활성화" xmlns="http://www.w3.org/2000/svg" width="70" height="34" viewBox="0 0 70 34">
    <path data-name="패스 1127" d="M471.8 495.388a1.172 1.172 0 0 1 1.181-1.181h3.206c2.562 0 4.111 1.518 4.111 3.712v.031c0 2.485-1.933 3.774-4.341 3.774h-1.795v2.224a1.181 1.181 0 1 1-2.362 0zm4.234 4.234A1.663 1.663 0 0 0 477.9 498v-.031c0-1.058-.737-1.626-1.918-1.626h-1.825v3.283z" transform="translate(-461.336 -481.721)" style="fill:#c7c7c7"/>
    <path data-name="패스 1128" d="m508.449 503.244 3.743-8.452a1.46 1.46 0 0 1 1.381-.936h.138a1.44 1.44 0 0 1 1.365.936l3.743 8.452a1.151 1.151 0 0 1 .123.476 1.12 1.12 0 0 1-1.12 1.135 1.2 1.2 0 0 1-1.136-.813l-.721-1.687h-4.725l-.752 1.764a1.16 1.16 0 0 1-1.089.736 1.087 1.087 0 0 1-1.089-1.1 1.252 1.252 0 0 1 .139-.511zm6.642-2.976-1.488-3.544-1.488 3.544z" transform="translate(-489.864 -481.447)" style="fill:#c7c7c7"/>
    <path data-name="패스 1129" d="m554.924 500.84-3.466-4.709a1.4 1.4 0 0 1-.292-.844 1.153 1.153 0 0 1 1.181-1.135 1.359 1.359 0 0 1 1.166.721l2.608 3.758 2.654-3.789a1.354 1.354 0 0 1 1.135-.706 1.094 1.094 0 0 1 1.15 1.15 1.468 1.468 0 0 1-.307.828l-3.467 4.679v3.1a1.181 1.181 0 1 1-2.362 0z" transform="translate(-523.349 -481.666)" style="fill:#c7c7c7"/>
    <path data-name="패스 1130" d="M596.743 499.37v-.031a5.457 5.457 0 0 1 5.6-5.553 5.686 5.686 0 0 1 3.589 1.089 1.181 1.181 0 0 1 .46.936 1.152 1.152 0 0 1-1.166 1.151 1.24 1.24 0 0 1-.706-.23 3.532 3.532 0 0 0-2.193-.767 3.182 3.182 0 0 0-3.114 3.344v.031a3.189 3.189 0 0 0 3.114 3.375 3.447 3.447 0 0 0 2.332-.844 1.094 1.094 0 1 1 1.411 1.672 5.658 5.658 0 0 1-9.327-4.172z" transform="translate(-558.961 -481.392)" style="fill:#c7c7c7"/>
    <path data-name="패스 1131" d="M644.038 499.37v-.031a5.709 5.709 0 0 1 11.412-.031v.031a5.709 5.709 0 0 1-11.412.031zm8.943 0v-.031a3.262 3.262 0 0 0-3.252-3.375 3.211 3.211 0 0 0-3.221 3.344v.031a3.262 3.262 0 0 0 3.252 3.375 3.211 3.211 0 0 0 3.221-3.344z" transform="translate(-595.914 -481.392)" style="fill:#c7c7c7"/>
    <path style="fill:none" d="M0 0h70v34H0z"/>
</svg>
