<?xml version="1.0" encoding="utf-8"?>
<!-- Generator: Adobe Illustrator 27.2.0, SVG Export Plug-In . SVG Version: 6.00 Build 0)  -->
<svg version="1.1" id="레이어_1" xmlns="http://www.w3.org/2000/svg" xmlns:xlink="http://www.w3.org/1999/xlink" x="0px"
	 y="0px" viewBox="0 0 70 50" style="enable-background:new 0 0 70 50;" xml:space="preserve">
<style type="text/css">
	.st0{enable-background:new    ;}
	.st1{fill:#3F52FC;}
</style>
<g class="st0">
	<path class="st1" d="M10.8,14.9h15.5v1.9h-3.6v4.2h-2.4v-4.2h-3.5v4.2h-2.4v-4.2h-3.6V14.9z M25.5,7.7H11.6V5.8h5.8V4.1h2.4v1.7
		h5.7V7.7z M18.5,8.4c3.6,0,5.8,1,5.8,2.9c0,1.9-2.2,2.9-5.8,2.9c-3.7,0-5.8-1-5.8-2.9C12.7,9.4,14.9,8.4,18.5,8.4z M18.5,12.4
		c2.2,0,3.4-0.4,3.4-1.1c0-0.8-1.1-1.1-3.4-1.1c-2.3,0-3.4,0.3-3.4,1.1C15.2,12,16.3,12.3,18.5,12.4z"/>
	<path class="st1" d="M27.8,6.1h6.3V8h-3.9v7.2c1.6,0,3.1-0.1,4.7-0.4l0.2,1.9c-2.1,0.4-3.9,0.5-6.1,0.5h-1.2V6.1z M41.9,21h-2.2
		v-8.5H38v7.7h-2.2V4.4H38v6.2h1.6V4.1h2.2V21z"/>
	<path class="st1" d="M57.8,6.6h-2.2v2.9h2.1v1.8h-5.1V13h6.5v1.9H43.7V13h6.5v-1.6h-5V9.6h2.1V6.6h-2.2V4.7h12.7V6.6z M45.6,15.9
		H48v2.9h9.4v1.9H45.6V15.9z M53.2,9.6V6.6h-3.5v2.9H53.2z"/>
</g>
<g class="st0">
	<path class="st1" d="M7.5,30c2.6,0,4.6,1.8,4.6,4.3c0,2.5-2,4.3-4.6,4.3c-2.6,0-4.6-1.8-4.6-4.3C2.9,31.7,4.9,29.9,7.5,30z
		 M7.5,36.4c1.3,0,2.3-0.8,2.3-2.2c0-1.4-1-2.2-2.3-2.2c-1.3,0-2.3,0.8-2.3,2.2C5.2,35.6,6.2,36.4,7.5,36.4z M5.4,39.8h2.4v3.8h9.4
		v1.9H5.4V39.8z M16.8,41h-2.4V28.9h2.4V41z"/>
	<path class="st1" d="M34.5,38.6H19.1v-1.9h15.4V38.6z M25.1,31.5h-4.6v-1.9h12.6v1.9h-4.6c0.4,1.2,2.1,2.4,5.4,2.6L33,36
		c-3.2-0.3-5.3-1.5-6.2-3.1c-0.9,1.6-3,2.8-6.2,3.1l-0.8-1.9C22.9,33.9,24.7,32.7,25.1,31.5z M26.8,39.5c3.7,0,5.9,1.2,5.9,3.1
		c0,2-2.2,3.1-5.9,3.1c-3.7,0-5.9-1.1-5.9-3.1C20.8,40.7,23.1,39.5,26.8,39.5z M26.8,43.9c2.3,0,3.5-0.4,3.5-1.3
		c0-0.9-1.2-1.3-3.5-1.3c-2.3,0-3.5,0.4-3.5,1.3C23.2,43.5,24.4,43.9,26.8,43.9z"/>
	<path class="st1" d="M35.4,31.4h3.8v-2.3h2.4v2.3h3.7v1.9h-9.9V31.4z M40.4,34.2c2.5,0,4.3,1.7,4.3,4s-1.8,4-4.3,4
		c-2.5,0-4.3-1.7-4.3-4C36.1,35.9,37.9,34.2,40.4,34.2z M40.4,40.3c1.2,0,2-0.8,2-2.1c0-1.3-0.9-2.1-2-2.1c-1.2,0-2.1,0.8-2.1,2.1
		C38.4,39.6,39.2,40.4,40.4,40.3z M48.8,35.5h2.5v2h-2.5v8.3h-2.3V28.9h2.3V35.5z"/>
	<path class="st1" d="M58.7,32.5h-5.8v-1.9h8.2c0,5.1-1.8,9.4-7.8,12.2L52,41C56.4,38.9,58.3,36.2,58.7,32.5z M66.2,45.8h-2.4V28.9
		h2.4V45.8z"/>
</g>
</svg>
