<svg xmlns="http://www.w3.org/2000/svg" width="22" height="22" viewBox="0 0 22 22">
    <g>
        <circle data-name="아이콘 원배경" cx="11" cy="11" r="11" style="fill:#707070"/>
        <path d="M9.063 16.883A1.059 1.059 0 0 1 8 15.82V8.13a1.059 1.059 0 0 1 1.063-1.063H10.3v-1.7a3.245 3.245 0 0 1 .983-2.383 3.379 3.379 0 0 1 4.766 0 3.245 3.245 0 0 1 .983 2.383v1.7h1.24a1.059 1.059 0 0 1 1.067 1.063v7.69a1.059 1.059 0 0 1-1.063 1.063zm0-1.063h9.213V8.13H9.063zm4.607-2.481a1.33 1.33 0 0 0 .966-.39 1.266 1.266 0 0 0 .4-.939 1.4 1.4 0 0 0-.4-.966 1.291 1.291 0 0 0-1.931 0 1.4 1.4 0 0 0-.4.966 1.266 1.266 0 0 0 .4.939 1.33 1.33 0 0 0 .965.39zm-2.3-6.272h4.607v-1.7a2.305 2.305 0 0 0-3.933-1.63 2.22 2.22 0 0 0-.673 1.63zm-2.3 8.753z" transform="translate(-2.33 .835)" style="fill:#fff"/>
    </g>
</svg>
