<svg data-name="검색 아이콘 그레이" xmlns="http://www.w3.org/2000/svg" width="15" height="14.954" viewBox="0 0 15 14.954">
    <path d="m21.081 21.7-5.669-5.638a4.833 4.833 0 0 1-1.515.882 5.186 5.186 0 0 1-1.8.316A5.244 5.244 0 0 1 6.8 12a5.051 5.051 0 0 1 1.537-3.715 5.094 5.094 0 0 1 3.739-1.535 5.094 5.094 0 0 1 3.739 1.535A5.051 5.051 0 0 1 17.352 12a5.192 5.192 0 0 1-.316 1.785 5.108 5.108 0 0 1-.9 1.567l5.664 5.633zM12.1 16.284a4.083 4.083 0 0 0 3.009-1.252A4.149 4.149 0 0 0 16.349 12 4.24 4.24 0 0 0 12.1 7.729 4.24 4.24 0 0 0 7.8 12a4.258 4.258 0 0 0 4.3 4.288z" transform="translate(-6.8 -6.75)" style="fill:#707070"/>
</svg>
