<svg xmlns="http://www.w3.org/2000/svg" width="12" height="10.563" viewBox="0 0 12 10.563">
    <g data-name="그룹 5">
        <path data-name="패스 3" d="M139.313 6.149h.07a1.937 1.937 0 0 0 1.533-.721 4.627 4.627 0 0 0 .683-2.952 2.456 2.456 0 0 0-1.056-2.143A2.269 2.269 0 0 0 139.374 0h-.037a2.266 2.266 0 0 0-1.17.324 2.456 2.456 0 0 0-1.067 2.153 4.627 4.627 0 0 0 .683 2.952 1.929 1.929 0 0 0 1.53.72zm-1.633-3.613v-.019C137.754.822 138.861.64 139.334.64h.026c.587.014 1.585.274 1.652 1.876a.05.05 0 0 0 0 .019 4.012 4.012 0 0 1-.537 2.47 1.373 1.373 0 0 1-1.12.506h-.022a1.369 1.369 0 0 1-1.118-.506 4.034 4.034 0 0 1-.535-2.469z" transform="translate(-134.508)" style="fill:#3f52fc"/>
        <path data-name="패스 4" d="M45.758 262.183v-.066a1.855 1.855 0 0 0-1.068-1.912l-.024-.007a6.8 6.8 0 0 1-1.957-.893.319.319 0 0 0-.365.522 7.337 7.337 0 0 0 2.153.985c.549.2.611.785.627 1.323a.474.474 0 0 0 0 .059 4.3 4.3 0 0 1-.05.73 9.4 9.4 0 0 1-8.317 0 4.07 4.07 0 0 1-.05-.73v-.059c.017-.539.078-1.127.627-1.323a7.4 7.4 0 0 0 2.153-.985.319.319 0 0 0-.366-.522 6.722 6.722 0 0 1-1.957.893l-.024.007a1.858 1.858 0 0 0-1.068 1.912.475.475 0 0 1 0 .059v.007a3.631 3.631 0 0 0 .12 1.071.3.3 0 0 0 .123.149 8.9 8.9 0 0 0 4.6 1.13 8.932 8.932 0 0 0 4.6-1.13.316.316 0 0 0 .123-.149 3.81 3.81 0 0 0 .12-1.071z" transform="translate(-36.073 -253.967)" style="fill:#3f52fc"/>
    </g>
    <path data-name="선 561" transform="translate(8.5 3.5)" style="fill:none;stroke:#3f52fc;stroke-linecap:round" d="M0 0h3"/>
    <path data-name="선 562" transform="translate(10 2)" style="fill:none;stroke:#3f52fc;stroke-linecap:round" d="M0 0v3"/>
</svg>
