<svg xmlns="http://www.w3.org/2000/svg" width="16" height="15.274" viewBox="0 0 16 15.274">
    <path data-name="좋아요 아이콘" d="M16.112 17.274H7.635V7.5L12.943 2l.745.592a.574.574 0 0 1 .172.267 1.34 1.34 0 0 1 .057.42v.191l-.86 4.03h5.709a1.175 1.175 0 0 1 1.146 1.146v1.564a1.411 1.411 0 0 0 .029.277.459.459 0 0 1-.029.277L17.506 16.3a1.658 1.658 0 0 1-.563.687 1.383 1.383 0 0 1-.831.287zm-7.331-1.145h7.58l2.406-5.709V8.644h-7.122l1.011-4.754-3.875 4.086zm0-8.153zM7.635 7.5v9.776H3.95V7.5z" transform="translate(-3.95 -2)" style="fill:#3f52fc"/>
</svg>
