<svg id="티머니_비활성화" data-name="티머니 비활성화" xmlns="http://www.w3.org/2000/svg" width="70" height="34" viewBox="0 0 70 34">
  <defs>
    <style>
      .cls-1 {
        fill: #fff;
      }

      .cls-2 {
        fill: #c7c7c7;
      }

      .cls-3 {
        fill: none;
      }
    </style>
  </defs>
  <path id="패스_1132" data-name="패스 1132" class="cls-1" d="M2.684,15.873A2.265,2.265,0,0,1,.421,13.611V2.683A2.265,2.265,0,0,1,2.684.421H13.61a2.265,2.265,0,0,1,2.263,2.262V13.611a2.265,2.265,0,0,1-2.263,2.262Z" transform="translate(2.475 11.056)"/>
  <path id="패스_1133" data-name="패스 1133" class="cls-2" d="M13.267,0H2.341A2.341,2.341,0,0,0,0,2.341V13.266a2.341,2.341,0,0,0,2.341,2.341H13.267a2.341,2.341,0,0,0,2.341-2.341V2.341A2.341,2.341,0,0,0,13.267,0m0,.156a2.188,2.188,0,0,1,2.185,2.185V13.266a2.188,2.188,0,0,1-2.185,2.185H2.341A2.188,2.188,0,0,1,.156,13.266V2.341A2.188,2.188,0,0,1,2.341.156Z" transform="translate(2.818 11.4)"/>
  <path id="패스_1134" data-name="패스 1134" class="cls-2" d="M18.237,17.759V24.18a1.2,1.2,0,1,0,2.393,0V17.706a2.91,2.91,0,0,0-3.259-3.251H15.44a1.2,1.2,0,0,0,0,2.4h1.872a.885.885,0,0,1,.924.907" transform="translate(-8.813 -0.402)"/>
  <path id="패스_1135" data-name="패스 1135" class="cls-2" d="M48.341,14.455H46.418a4.114,4.114,0,0,0-1.653.3,3.241,3.241,0,0,1,1.165,2.255.976.976,0,0,1,.541-.161h1.87a1.2,1.2,0,1,0,0-2.4" transform="translate(-33.73 -0.402)"/>
  <path id="패스_1136" data-name="패스 1136" class="cls-2" d="M153.478,36.573a.862.862,0,0,0,.933.958.878.878,0,0,0,.945-.958V33.3a1.952,1.952,0,0,0-2.13-2.13,2.252,2.252,0,0,0-2.1,1.109,1.524,1.524,0,0,0-1.538-1.109,1.73,1.73,0,0,0-1.689.971.916.916,0,0,0-.92-.87.866.866,0,0,0-.932.971v4.335a.877.877,0,0,0,.945.958.868.868,0,0,0,.932-.958V33.838a.942.942,0,0,1,.933-1.071.917.917,0,0,1,.933.97v2.836a.859.859,0,0,0,.92.958.85.85,0,0,0,.907-.958V33.838a.942.942,0,0,1,.932-1.071.917.917,0,0,1,.933.97Z" transform="translate(-116.421 -14.046)"/>
  <path id="패스_1137" data-name="패스 1137" class="cls-2" d="M201.97,34.407a3.214,3.214,0,1,0,6.428,0,3.214,3.214,0,1,0-6.428,0m1.878,0c0-.895.479-1.676,1.336-1.676s1.336.781,1.336,1.676-.492,1.676-1.336,1.676-1.336-.781-1.336-1.676" transform="translate(-162.083 -14.048)"/>
  <path id="패스_1138" data-name="패스 1138" class="cls-2" d="M242.175,36.573a.887.887,0,0,0,.958.958.877.877,0,0,0,.945-.958V33.787a1.046,1.046,0,0,1,2.092.013v2.773a.878.878,0,0,0,.945.958.887.887,0,0,0,.958-.958v-3a2.217,2.217,0,0,0-2.332-2.407,1.849,1.849,0,0,0-1.714.958.928.928,0,0,0-1.853.113Z" transform="translate(-194.909 -14.046)"/>
  <path id="패스_1139" data-name="패스 1139" class="cls-2" d="M285.166,36.876c.378-.353.554-.844.239-1.2a.811.811,0,0,0-1.172-.05,2.127,2.127,0,0,1-1.462.554,1.407,1.407,0,0,1-1.5-1.3h3.415c.693,0,.933-.315.933-1.008a2.783,2.783,0,0,0-3.025-2.709,3,3,0,0,0-3.1,3.2,3.038,3.038,0,0,0,3.277,3.277,3.445,3.445,0,0,0,2.395-.769m-3.894-3.239a1.36,1.36,0,0,1,2.647,0Z" transform="translate(-225.379 -14.047)"/>
  <path id="패스_1140" data-name="패스 1140" class="cls-2" d="M317.44,32.266a.911.911,0,0,0-1.26-.542.87.87,0,0,0-.467,1.26l2.155,4.713-.189.467c-.176.454-.391.92-.844.92a2.755,2.755,0,0,1-.466-.063.74.74,0,0,0-.882.542.809.809,0,0,0,.491.958,2.345,2.345,0,0,0,.958.151c1.285,0,1.789-.945,2.382-2.231l2.5-5.457a.869.869,0,0,0-.466-1.26.911.911,0,0,0-1.26.542L318.764,35.4Z" transform="translate(-254.742 -14.427)"/>
  <path id="패스_1141" data-name="패스 1141" class="cls-2" d="M109.459,22.9a1.04,1.04,0,1,0,2.079,0V16.427h2.042c.6,0,1.084-.315,1.084-.945s-.479-.933-1.084-.933h-6.15c-.617,0-1.084.315-1.084.933s.466.945,1.084.945h2.029Z" transform="translate(-84.009 -0.479)"/>
  <rect id="마스킹" class="cls-3" width="70" height="34"/>
</svg>
