<svg xmlns="http://www.w3.org/2000/svg" width="26.927" height="24.907" viewBox="0 0 26.927 24.907">
  <defs>
    <style>
      .cls-1 {
        fill: #c4c3c3;
      }

      .cls-2 {
        fill: #3f52fc;
      }

      .cls-3 {
        fill: #fff;
      }
    </style>
  </defs>
  <g id="내정보아이콘" transform="translate(0 -0.416)">
    <path id="패스_1109" data-name="패스 1109" class="cls-1" d="M212.7,476.774a3.887,3.887,0,1,0,3.888,3.888A3.9,3.9,0,0,0,212.7,476.774Z" transform="translate(-189.662 -459.93)"/>
    <path id="패스_1110" data-name="패스 1110" class="cls-2" d="M116.2,453.61a4.569,4.569,0,0,1,2.709-4.174.847.847,0,0,0,.345-1.277,12.574,12.574,0,0,0-4.907-4.026.855.855,0,0,0-.807.064,6.488,6.488,0,0,1-6.937,0,.856.856,0,0,0-.808-.064c-4.5,2.009-7.769,7.1-8.064,13.151a.85.85,0,0,0,.847.895h22.192A4.569,4.569,0,0,1,116.2,453.61Z" transform="translate(-97.727 -432.857)"/>
    <path id="패스_1111" data-name="패스 1111" class="cls-2" d="M141.854,380.567a5.394,5.394,0,1,0,5.394,5.394A5.394,5.394,0,0,0,141.854,380.567Z" transform="translate(-129.481 -380.151)"/>
    <g id="그룹_1227" data-name="그룹 1227" transform="translate(21.296 19.922)">
      <path id="패스_1107" data-name="패스 1107" class="cls-3" d="M320.841,282.834l.52,1.27h.02l.521-1.27h.385v1.747h-.3v-1.2h-.016l-.485,1.2h-.225l-.486-1.2h-.015v1.206h-.3v-1.747Z" transform="translate(-320.456 -282.834)"/>
      <path id="패스_1108" data-name="패스 1108" class="cls-3" d="M330.693,282.834l.428.774h.018l.428-.774h.355l-.636,1.094v.654h-.313v-.654l-.636-1.094Z" transform="translate(-328.303 -282.834)"/>
    </g>
  </g>
</svg>
