<svg xmlns="http://www.w3.org/2000/svg" width="15" height="15" viewBox="0 0 15 15">
    <path d="M11.5 15.25a.608.608 0 1 0-.441-.178.6.6 0 0 0 .441.178zm-.506-2.869h1.125V7.637h-1.125zM11.5 19a7.257 7.257 0 0 1-2.906-.591 7.556 7.556 0 0 1-4-4 7.492 7.492 0 0 1 0-5.831A7.5 7.5 0 0 1 6.2 6.194a7.688 7.688 0 0 1 2.391-1.6 7.492 7.492 0 0 1 5.831 0 7.488 7.488 0 0 1 3.984 3.984 7.492 7.492 0 0 1 0 5.831 7.688 7.688 0 0 1-1.6 2.391 7.5 7.5 0 0 1-2.381 1.612A7.3 7.3 0 0 1 11.5 19z" transform="translate(-4 -4)" style="fill:#707070"/>
</svg>
