<svg xmlns="http://www.w3.org/2000/svg" width="17" height="19.125" viewBox="0 0 17 19.125">
    <path d="M11.777 26.375a1.551 1.551 0 0 1-1.133-.482 1.583 1.583 0 0 1-.482-1.162V9.318H9V8.043h4.845V7.25h7.31v.793H26v1.275h-1.162v15.414a1.583 1.583 0 0 1-.482 1.162 1.551 1.551 0 0 1-1.133.482zM23.563 9.318H11.437v15.414a.364.364 0 0 0 .1.269.328.328 0 0 0 .241.1h11.445a.327.327 0 0 0 .227-.113.352.352 0 0 0 .113-.255zM14.7 22.692H16V11.7h-1.3zm4.307 0h1.3V11.7H19zm-7.57-13.374z" transform="translate(-9 -7.25)" style="fill:#707070"/>
</svg>
