<svg data-name="휴대폰 비활성화" xmlns="http://www.w3.org/2000/svg" width="70" height="34" viewBox="0 0 70 34">
    <circle data-name="타원 110" cx="6.5" cy="6.5" r="6.5" transform="translate(33.961 15.335)" style="fill:#c7c7c7"/>
    <path d="M12.887 30.335A1.889 1.889 0 0 1 11 28.448V4.887A1.889 1.889 0 0 1 12.887 3h13.147a1.889 1.889 0 0 1 1.887 1.887v23.56a1.889 1.889 0 0 1-1.887 1.887zm-.423-4.979v3.091a.446.446 0 0 0 .423.423h13.147a.446.446 0 0 0 .423-.423v-3.091zm7 2.668a.89.89 0 0 0 .911-.911.857.857 0 0 0-.277-.651.9.9 0 0 0-.635-.26.89.89 0 0 0-.911.911.857.857 0 0 0 .277.651.9.9 0 0 0 .632.261zm-7-4.133h13.993V7.328H12.464zm0-18.028h13.993v-.976a.446.446 0 0 0-.423-.423H12.887a.446.446 0 0 0-.423.423zm0 19.493zm0-19.493z" transform="translate(14 -2)" style="fill:#707070"/>
    <path style="fill:none" d="M0 0h70v34H0z"/>
</svg>
