<svg xmlns="http://www.w3.org/2000/svg" width="15" height="14" viewBox="0 0 15 14">
    <path d="M4.145 6.283a.668.668 0 0 0 .493-.2.635.635 0 0 0 .2-.462.656.656 0 0 0-.2-.481.668.668 0 0 0-.493-.2.7.7 0 0 0-.5.2.641.641 0 0 0-.207.481.62.62 0 0 0 .207.462.7.7 0 0 0 .5.2zm3.395 0a.7.7 0 0 0 .5-.2.62.62 0 0 0 .207-.462.641.641 0 0 0-.207-.481.7.7 0 0 0-.5-.2.678.678 0 0 0-.484.2.641.641 0 0 0-.207.481.62.62 0 0 0 .207.462.678.678 0 0 0 .483.2zm3.316 0a.678.678 0 0 0 .484-.2.62.62 0 0 0 .207-.462.641.641 0 0 0-.207-.481.678.678 0 0 0-.484-.2.7.7 0 0 0-.5.2.641.641 0 0 0-.207.481.62.62 0 0 0 .207.462.7.7 0 0 0 .499.2zM0 14V1.094A1.041 1.041 0 0 1 .336.33 1.112 1.112 0 0 1 1.145 0h12.71a1.122 1.122 0 0 1 .8.33 1.028 1.028 0 0 1 .345.764v9.132a1.028 1.028 0 0 1-.345.764 1.122 1.122 0 0 1-.8.33H2.8zm.888-2.075 1.52-1.453h11.447a.26.26 0 0 0 .188-.066.236.236 0 0 0 .069-.179V1.094a.236.236 0 0 0-.069-.179.26.26 0 0 0-.188-.066H1.145a.26.26 0 0 0-.187.066.236.236 0 0 0-.069.179zm0-10.83z"/>
</svg>
