<svg xmlns="http://www.w3.org/2000/svg" width="20" height="20" viewBox="0 0 20 20">
    <circle data-name="타원 30" cx="10" cy="10" r="10" style="fill:#f0f0f0"/>
    <path d="m16.32 16.735-3.779-3.765a3.221 3.221 0 0 1-1.01.589 3.452 3.452 0 0 1-1.2.211A3.5 3.5 0 0 1 6.8 10.253a3.5 3.5 0 0 1 3.517-3.5 3.5 3.5 0 0 1 3.517 3.5 3.472 3.472 0 0 1-.211 1.192 3.412 3.412 0 0 1-.6 1.047l3.777 3.764zm-5.988-3.619a2.72 2.72 0 0 0 2.006-.836 2.773 2.773 0 0 0 .828-2.028A2.829 2.829 0 0 0 10.332 7.4a2.829 2.829 0 0 0-2.863 2.849 2.841 2.841 0 0 0 2.863 2.863z" transform="translate(-1.509 -1.68)" style="fill:#707070" data-name="검색 아이콘블루"/>
</svg>
