<svg data-name="거래등급 1등급" xmlns="http://www.w3.org/2000/svg" width="29.8" height="25.296" viewBox="0 0 29.8 25.296">
    <defs>
        <clipPath id="w34xk2wu7a">
            <path data-name="사각형 748" style="fill:none" d="M0 0h29.8v25.296H0z"/>
        </clipPath>
        <clipPath id="etliox4dub">
            <path data-name="패스 1060" d="M11.011 7.328a1.215 1.215 0 0 0-1.027.572l-2.175 3.476A1.281 1.281 0 0 0 7.9 12.86l5.982 7.315a1.2 1.2 0 0 0 1.847.028l6.326-7.289a1.28 1.28 0 0 0 .07-1.58l-2.525-3.5a1.213 1.213 0 0 0-.981-.506z" transform="translate(-7.615 -7.328)" style="fill:none"/>
        </clipPath>
        <clipPath id="2ks5598ehc">
            <path data-name="패스 1080" d="m14.392 1.16-.474.986a.568.568 0 0 1-.423.316l-1.06.158a.58.58 0 0 0-.311.982l.768.768a.584.584 0 0 1 .16.51l-.18 1.084a.563.563 0 0 0 .814.606l.948-.511a.546.546 0 0 1 .522 0l.949.511a.563.563 0 0 0 .813-.606l-.181-1.084a.585.585 0 0 1 .162-.51l.768-.768a.58.58 0 0 0-.312-.982l-1.06-.158a.564.564 0 0 1-.422-.316L15.4 1.16a.555.555 0 0 0-1.006 0" transform="translate(-11.954 -.839)" style="fill:none"/>
        </clipPath>
    </defs>
    <g data-name="그룹 612">
        <g data-name="그룹 611" style="clip-path:url(#w34xk2wu7a)">
            <path data-name="패스 1023" d="M17.692 11.229a.491.491 0 0 1-.266-.078.5.5 0 0 1-.23-.42V7.418a.5.5 0 0 1 .285-.45L28.239 1.89a.818.818 0 0 1 .353-.08.829.829 0 0 1 .826.83v.855A3.563 3.563 0 0 1 27.387 6.7L17.9 11.181a.493.493 0 0 1-.212.048" transform="translate(-.115 -.007)" style="fill:#ffefae"/>
            <path data-name="패스 1024" d="M28.588 2.306a.331.331 0 0 1 .33.332v.856a3.051 3.051 0 0 1-1.745 2.759l-9.484 4.476V7.416l10.76-5.078a.322.322 0 0 1 .14-.032m0-1a1.314 1.314 0 0 0-.563.127L17.265 6.515a1 1 0 0 0-.57.9v3.313a.993.993 0 0 0 .993 1 .985.985 0 0 0 .423-.095l9.483-4.476a4.062 4.062 0 0 0 2.316-3.66v-.859a1.327 1.327 0 0 0-1.322-1.328" transform="translate(-.111 -.005)" style="fill:#492c0c"/>
            <path data-name="패스 1025" d="M17.695 8.979v1.758l9.483-4.476A3.051 3.051 0 0 0 28.925 3.5v-.054z" transform="translate(-.118 -.013)" style="fill:#b28846"/>
            <path data-name="패스 1026" d="M27.836 24.86a.766.766 0 0 1-.332-.075l-9.21-4.347a.5.5 0 0 1-.286-.451v-2.836a.5.5 0 0 1 .231-.42.49.49 0 0 1 .265-.078.476.476 0 0 1 .212.048l8.119 3.832a3.118 3.118 0 0 1 1.78 2.813v.733a.779.779 0 0 1-.779.781" transform="translate(-.12 -.061)" style="fill:#b28846"/>
            <path data-name="패스 1027" d="m18.5 17.148 8.12 3.832a2.612 2.612 0 0 1 1.495 2.362v.733a.284.284 0 0 1-.282.284.275.275 0 0 1-.12-.028L18.5 19.985zm0-1a.986.986 0 0 0-.532.155 1 1 0 0 0-.461.841v2.837a1 1 0 0 0 .57.9l9.211 4.348a1.274 1.274 0 0 0 1.819-1.158v-.733a3.622 3.622 0 0 0-2.065-3.263l-8.119-3.833a.989.989 0 0 0-.423-.095" transform="translate(-.117 -.06)" style="fill:#492c0c"/>
            <path data-name="패스 1028" d="M18.508 18.657v-1.505l8.119 3.833a2.611 2.611 0 0 1 1.495 2.362v.047z" transform="translate(-.123 -.063)" style="fill:#ddc37a"/>
            <path data-name="패스 1029" d="M27.836 21.753a.766.766 0 0 1-.332-.075l-9.21-4.348a.5.5 0 0 1-.286-.451v-2.835a.5.5 0 0 1 .231-.42.49.49 0 0 1 .265-.078.476.476 0 0 1 .212.048l8.119 3.831a3.122 3.122 0 0 1 1.78 2.813v.733a.781.781 0 0 1-.779.782" transform="translate(-.12 -.05)" style="fill:#b28846"/>
            <path data-name="패스 1030" d="m18.5 14.041 8.119 3.832a2.612 2.612 0 0 1 1.495 2.362v.733a.284.284 0 0 1-.282.284.278.278 0 0 1-.12-.028L18.5 16.878zm0-1a.986.986 0 0 0-.532.155 1 1 0 0 0-.461.841v2.837a1 1 0 0 0 .57.9l9.211 4.348a1.274 1.274 0 0 0 1.819-1.158v-.733a3.624 3.624 0 0 0-2.065-3.264l-8.119-3.831a.972.972 0 0 0-.423-.1" transform="translate(-.117 -.048)" style="fill:#492c0c"/>
            <path data-name="패스 1031" d="M18.508 15.55v-1.505l8.119 3.833a2.611 2.611 0 0 1 1.495 2.362v.047z" transform="translate(-.123 -.052)" style="fill:#ddc37a"/>
            <path data-name="패스 1032" d="M2.093 24.86a.781.781 0 0 1-.779-.781v-.733a3.118 3.118 0 0 1 1.78-2.813l8.119-3.833a.476.476 0 0 1 .212-.048.49.49 0 0 1 .265.078.5.5 0 0 1 .231.42v2.836a.5.5 0 0 1-.286.451l-9.21 4.347a.766.766 0 0 1-.332.075" transform="translate(-.009 -.061)" style="fill:#b28846"/>
            <path data-name="패스 1033" d="M11.421 17.148v2.837L2.21 24.332a.275.275 0 0 1-.12.028.284.284 0 0 1-.282-.284v-.733A2.612 2.612 0 0 1 3.3 20.98zm0-1a.989.989 0 0 0-.423.095l-8.119 3.836a3.622 3.622 0 0 0-2.065 3.263v.733a1.274 1.274 0 0 0 1.819 1.158l9.211-4.348a1 1 0 0 0 .57-.9v-2.837a1 1 0 0 0-.461-.841.986.986 0 0 0-.532-.155" transform="translate(-.005 -.06)" style="fill:#492c0c"/>
            <path data-name="패스 1034" d="M11.427 18.657v-1.505l-8.118 3.833a2.611 2.611 0 0 0-1.495 2.362v.047z" transform="translate(-.012 -.063)" style="fill:#ddc37a"/>
            <path data-name="패스 1035" d="M2.093 21.753a.781.781 0 0 1-.779-.782v-.733a3.122 3.122 0 0 1 1.78-2.813l8.119-3.831a.476.476 0 0 1 .212-.048.49.49 0 0 1 .265.078.5.5 0 0 1 .231.42v2.835a.5.5 0 0 1-.286.451l-9.21 4.348a.766.766 0 0 1-.332.075" transform="translate(-.009 -.05)" style="fill:#b28846"/>
            <path data-name="패스 1036" d="M11.421 14.041v2.837L2.21 21.225a.278.278 0 0 1-.12.028.284.284 0 0 1-.282-.284v-.733A2.612 2.612 0 0 1 3.3 17.873zm0-1a.975.975 0 0 0-.423.1l-8.119 3.83a3.624 3.624 0 0 0-2.065 3.264v.733a1.274 1.274 0 0 0 1.819 1.158l9.211-4.348a1 1 0 0 0 .57-.9v-2.837a1 1 0 0 0-.461-.841.986.986 0 0 0-.532-.155" transform="translate(-.005 -.048)" style="fill:#492c0c"/>
            <path data-name="패스 1037" d="M11.427 15.55v-1.505l-8.118 3.833a2.611 2.611 0 0 0-1.495 2.362v.047z" transform="translate(-.012 -.052)" style="fill:#ddc37a"/>
            <path data-name="패스 1038" d="M17.692 14.858a.489.489 0 0 1-.266-.077.5.5 0 0 1-.23-.421v-3.313a.5.5 0 0 1 .285-.45l10.758-5.079a.818.818 0 0 1 .353-.08.83.83 0 0 1 .826.83v.857a3.562 3.562 0 0 1-2.031 3.209L17.9 14.81a.493.493 0 0 1-.212.048" transform="translate(-.115 -.02)" style="fill:#ffefae"/>
            <path data-name="패스 1039" d="M28.588 5.935a.331.331 0 0 1 .33.332v.856a3.051 3.051 0 0 1-1.745 2.759l-9.484 4.476v-3.313l10.76-5.078a.322.322 0 0 1 .14-.032m0-1a1.314 1.314 0 0 0-.563.127l-10.76 5.078a1 1 0 0 0-.57.9v3.313a.993.993 0 0 0 .993 1 .985.985 0 0 0 .423-.095l9.483-4.476a4.062 4.062 0 0 0 2.316-3.66v-.855a1.327 1.327 0 0 0-1.323-1.328" transform="translate(-.111 -.018)" style="fill:#492c0c"/>
            <path data-name="패스 1040" d="M17.695 12.608v1.758l9.483-4.476a3.051 3.051 0 0 0 1.746-2.76v-.055z" transform="translate(-.118 -.026)" style="fill:#b28846"/>
            <path data-name="패스 1041" d="M17.692 18.487a.49.49 0 0 1-.266-.078.5.5 0 0 1-.23-.42v-3.313a.5.5 0 0 1 .285-.45l10.758-5.078a.818.818 0 0 1 .353-.08.829.829 0 0 1 .826.83v.855a3.563 3.563 0 0 1-2.031 3.21L17.9 18.439a.493.493 0 0 1-.212.048" transform="translate(-.115 -.033)" style="fill:#ffefae"/>
            <path data-name="패스 1042" d="M28.588 9.564a.331.331 0 0 1 .33.332v.856a3.051 3.051 0 0 1-1.745 2.759l-9.484 4.476v-3.313L28.448 9.6a.322.322 0 0 1 .14-.032m0-1a1.314 1.314 0 0 0-.563.127l-10.76 5.078a1 1 0 0 0-.57.9v3.313a.993.993 0 0 0 .993 1 .985.985 0 0 0 .423-.095l9.483-4.476a4.063 4.063 0 0 0 2.316-3.66V9.9a1.327 1.327 0 0 0-1.323-1.328" transform="translate(-.111 -.032)" style="fill:#492c0c"/>
            <path data-name="패스 1043" d="M17.695 16.238V18l9.483-4.476a3.051 3.051 0 0 0 1.746-2.76V10.7z" transform="translate(-.118 -.039)" style="fill:#b28846"/>
            <path data-name="패스 1044" d="M12.226 11.229a.493.493 0 0 1-.212-.048L2.531 6.7A3.563 3.563 0 0 1 .5 3.495V2.64a.826.826 0 0 1 1.178-.751l10.76 5.079a.5.5 0 0 1 .285.45v3.313a.5.5 0 0 1-.23.42.491.491 0 0 1-.266.078" transform="translate(-.003 -.007)" style="fill:#ffefae"/>
            <path data-name="패스 1045" d="M1.323 2.306a.322.322 0 0 1 .14.032l10.76 5.078v3.313L2.739 6.253A3.051 3.051 0 0 1 .993 3.494v-.856a.331.331 0 0 1 .33-.332m0-1A1.327 1.327 0 0 0 0 2.638v.856a4.062 4.062 0 0 0 2.316 3.66l9.484 4.477a.994.994 0 0 0 .956-.06 1 1 0 0 0 .461-.842V7.416a1 1 0 0 0-.57-.9L1.886 1.437a1.314 1.314 0 0 0-.563-.127" transform="translate(0 -.005)" style="fill:#492c0c"/>
            <path data-name="패스 1046" d="M12.23 8.979v1.758L2.746 6.261A3.051 3.051 0 0 1 1 3.5v-.054z" transform="translate(-.007 -.013)" style="fill:#b28846"/>
            <path data-name="패스 1047" d="M12.226 14.858a.493.493 0 0 1-.212-.048l-9.483-4.476A3.562 3.562 0 0 1 .5 7.125v-.857a.826.826 0 0 1 1.178-.751l10.76 5.08a.5.5 0 0 1 .285.45v3.313a.5.5 0 0 1-.23.421.489.489 0 0 1-.266.077" transform="translate(-.003 -.02)" style="fill:#ffefae"/>
            <path data-name="패스 1048" d="M1.323 5.935a.322.322 0 0 1 .14.032l10.76 5.078v3.313L2.739 9.882A3.051 3.051 0 0 1 .993 7.123v-.856a.331.331 0 0 1 .33-.332m0-1A1.327 1.327 0 0 0 0 6.267v.856a4.062 4.062 0 0 0 2.316 3.66L11.8 15.26a.994.994 0 0 0 .956-.06 1 1 0 0 0 .461-.842v-3.313a1 1 0 0 0-.57-.9L1.886 5.066a1.314 1.314 0 0 0-.563-.127" transform="translate(0 -.018)" style="fill:#492c0c"/>
            <path data-name="패스 1049" d="M12.23 12.608v1.758L2.746 9.89A3.051 3.051 0 0 1 1 7.13v-.055z" transform="translate(-.007 -.026)" style="fill:#b28846"/>
            <path data-name="패스 1050" d="M12.226 18.487a.493.493 0 0 1-.212-.048l-9.483-4.476A3.563 3.563 0 0 1 .5 10.753V9.9a.826.826 0 0 1 1.178-.751l10.76 5.079a.5.5 0 0 1 .285.45v3.313a.5.5 0 0 1-.23.42.49.49 0 0 1-.266.078" transform="translate(-.003 -.033)" style="fill:#ffefae"/>
            <path data-name="패스 1051" d="M1.323 9.564a.322.322 0 0 1 .14.032l10.76 5.078v3.313l-9.484-4.476a3.051 3.051 0 0 1-1.746-2.759V9.9a.331.331 0 0 1 .33-.332m0-1A1.327 1.327 0 0 0 0 9.9v.856a4.063 4.063 0 0 0 2.316 3.66l9.484 4.473a.994.994 0 0 0 .956-.06 1 1 0 0 0 .461-.842v-3.313a1 1 0 0 0-.57-.9L1.886 8.695a1.314 1.314 0 0 0-.563-.127" transform="translate(0 -.032)" style="fill:#492c0c"/>
            <path data-name="패스 1052" d="M12.23 16.238V18l-9.484-4.48A3.051 3.051 0 0 1 1 10.76v-.06z" transform="translate(-.007 -.039)" style="fill:#b28846"/>
            <path data-name="패스 1053" d="M11 7.328h7.583a1.206 1.206 0 0 1 .977.507l2.514 3.5A1.282 1.282 0 0 1 22 12.91l-6.3 7.29a1.194 1.194 0 0 1-1.84-.028L7.9 12.857a1.283 1.283 0 0 1-.091-1.484L9.975 7.9A1.209 1.209 0 0 1 11 7.328" transform="translate(-.051 -.027)" style="fill:#ffefae"/>
        </g>
    </g>
    <g data-name="그룹 614">
        <g data-name="그룹 613" style="clip-path:url(#etliox4dub)" transform="translate(7.435 7.239)">
            <path data-name="패스 1054" d="m14.783 7.521-2.741 4.565h5.635z" transform="translate(-7.629 -7.329)" style="fill:#ddc37a"/>
            <path data-name="패스 1055" d="m6.656 11.93 5.221.155L9.06 7.074z" transform="translate(-7.613 -7.327)" style="fill:#b28846"/>
            <path data-name="패스 1056" d="m23.06 11.93-5.221.155 2.817-5.011z" transform="translate(-7.646 -7.327)" style="fill:#b28846"/>
            <path data-name="패스 1057" d="m12.042 12.365 2.075 8.826H15.6l2.075-8.826z" transform="translate(-7.629 -7.343)" style="fill:#b28846"/>
            <path data-name="패스 1058" d="M17.982 12.365 16.2 20.278l6.817-7.913z" transform="translate(-7.642 -7.343)" style="fill:#ddc37a"/>
            <path data-name="패스 1059" d="m11.729 12.365 1.779 7.913-6.818-7.913z" transform="translate(-7.613 -7.343)" style="fill:#82692f"/>
        </g>
    </g>
    <g data-name="그룹 616">
        <g data-name="그룹 615" style="clip-path:url(#w34xk2wu7a)">
            <path data-name="패스 1061" d="m19.639 7.831 2.514 3.5a1.284 1.284 0 0 1 .062 1.4h1.878a3.159 3.159 0 0 0-.516-2.482l-2.514-3.5a3.031 3.031 0 0 0-.67-.67l-1.157 1.4a1.229 1.229 0 0 1 .4.357" transform="translate(-.128 -.022)" style="fill:#ffefae"/>
            <path data-name="패스 1062" d="m19.639 7.831 2.514 3.5a1.284 1.284 0 0 1 .062 1.4h1.878a3.159 3.159 0 0 0-.516-2.482l-2.514-3.5a3.031 3.031 0 0 0-.67-.67l-1.157 1.4a1.229 1.229 0 0 1 .403.352z" transform="translate(-.128 -.022)" style="stroke:#492c0c;stroke-miterlimit:10;stroke-width:.75px;fill:none"/>
            <path data-name="패스 1063" d="M22.187 12.747a1.288 1.288 0 0 1-.131.183l-6.3 7.285a1.2 1.2 0 0 1-.884.416v1.826a2.957 2.957 0 0 0 2.207-1.028l6.3-7.285a3.094 3.094 0 0 0 .686-1.4z" transform="translate(-.099 -.047)" style="fill:#82692f"/>
            <path data-name="패스 1064" d="M22.187 12.747a1.288 1.288 0 0 1-.131.183l-6.3 7.285a1.2 1.2 0 0 1-.884.416v1.826a2.957 2.957 0 0 0 2.207-1.028l6.3-7.285a3.094 3.094 0 0 0 .686-1.4z" transform="translate(-.099 -.047)" style="stroke:#492c0c;stroke-miterlimit:10;stroke-width:.75px;fill:none"/>
            <path data-name="패스 1065" d="M14.783 20.634a1.2 1.2 0 0 1-.932-.447l-5.96-7.31a1.264 1.264 0 0 1-.089-.131h-1.9a3.111 3.111 0 0 0 .63 1.3l5.96 7.31a2.947 2.947 0 0 0 2.289 1.1h.024v-1.825h-.024" transform="translate(-.039 -.047)" style="fill:#ffefae"/>
            <path data-name="패스 1066" d="M14.783 20.634a1.2 1.2 0 0 1-.932-.447l-5.96-7.31a1.264 1.264 0 0 1-.089-.131h-1.9a3.111 3.111 0 0 0 .63 1.3l5.96 7.31a2.947 2.947 0 0 0 2.289 1.1h.024v-1.825z" transform="translate(-.039 -.047)" style="stroke:#492c0c;stroke-miterlimit:10;stroke-width:.75px;fill:none"/>
            <path data-name="패스 1067" d="M11.012 7.321H18.6a1.188 1.188 0 0 1 .575.15l1.157-1.4A2.941 2.941 0 0 0 18.6 5.5h-7.588a2.919 2.919 0 0 0-1.88.691l1.147 1.388a1.2 1.2 0 0 1 .733-.254" transform="translate(-.061 -.02)" style="fill:#ddc37a"/>
            <path data-name="패스 1068" d="M11.012 7.321H18.6a1.188 1.188 0 0 1 .575.15l1.157-1.4A2.941 2.941 0 0 0 18.6 5.5h-7.588a2.919 2.919 0 0 0-1.88.691l1.147 1.388a1.2 1.2 0 0 1 .733-.258z" transform="translate(-.061 -.02)" style="stroke:#492c0c;stroke-miterlimit:10;stroke-width:.75px;fill:none"/>
            <path data-name="패스 1069" d="M7.8 11.369 9.966 7.9a1.231 1.231 0 0 1 .291-.321L9.109 6.19a3.044 3.044 0 0 0-.633.721l-2.167 3.47a3.146 3.146 0 0 0-.4 2.34H7.8a1.28 1.28 0 0 1 0-1.353" transform="translate(-.039 -.023)" style="fill:#82692f"/>
            <path data-name="패스 1070" d="M7.8 11.369 9.966 7.9a1.231 1.231 0 0 1 .291-.321L9.109 6.19a3.044 3.044 0 0 0-.633.721l-2.167 3.47a3.146 3.146 0 0 0-.4 2.34H7.8a1.28 1.28 0 0 1 0-1.352z" transform="translate(-.039 -.023)" style="stroke:#492c0c;stroke-miterlimit:10;stroke-width:.75px;fill:none"/>
            <path data-name="패스 1071" d="m15.464 1.167.484 1.008a.57.57 0 0 0 .43.323l1.081.161a.594.594 0 0 1 .317 1l-.782.785a.6.6 0 0 0-.165.521l.185 1.109a.575.575 0 0 1-.829.621l-.967-.524a.561.561 0 0 0-.532 0l-.967.524a.575.575 0 0 1-.829-.621l.185-1.109a.6.6 0 0 0-.165-.521l-.782-.785a.593.593 0 0 1 .317-1l1.08-.159a.573.573 0 0 0 .43-.323l.484-1.008a.564.564 0 0 1 1.025 0" transform="translate(-.08 -.003)" style="fill:#fff"/>
        </g>
    </g>
    <g data-name="그룹 618">
        <g data-name="그룹 617" style="clip-path:url(#2ks5598ehc)" transform="translate(11.93 1)">
            <path data-name="패스 1072" d="M14.884.321v3.255L12.589.93s.547-.785.983-.9a2.835 2.835 0 0 1 1.311.288" transform="translate(-11.971 -.818)" style="fill:#82692f"/>
            <path data-name="패스 1073" d="m12.578 1.321 2.241 2.3-3.445-.206a2.808 2.808 0 0 1 .078-1.348 2.89 2.89 0 0 1 1.126-.748" transform="translate(-11.938 -.851)" style="fill:#ddc37a"/>
            <path data-name="패스 1074" d="M11.636 3.717h3.17l-2.577 2.356s-.766-.56-.875-1.009a3.054 3.054 0 0 1 .282-1.347" transform="translate(-11.939 -.913)" style="fill:#82692f"/>
            <path data-name="패스 1075" d="m12.611 6.053 2.241-2.3-.2 3.538a2.6 2.6 0 0 1-1.314-.079 3 3 0 0 1-.728-1.157" transform="translate(-11.971 -.914)" style="fill:#b28846"/>
            <path data-name="패스 1076" d="M14.944 7.02V3.765l2.295 2.646s-.547.785-.983.9a2.835 2.835 0 0 1-1.311-.288" transform="translate(-12.031 -.914)" style="fill:#82692f"/>
            <path data-name="패스 1077" d="m17.219 6.053-2.242-2.3 3.445.206a2.8 2.8 0 0 1-.077 1.348 2.89 2.89 0 0 1-1.126.748" transform="translate(-12.032 -.914)" style="fill:#ddc37a"/>
            <path data-name="패스 1078" d="M18.16 3.655h-3.17L17.567 1.3s.766.561.875 1.009a3.051 3.051 0 0 1-.282 1.347" transform="translate(-12.032 -.851)" style="fill:#ffefae"/>
            <path data-name="패스 1079" d="m17.219 1.287-2.242 2.3.2-3.538a2.6 2.6 0 0 1 1.313.082 2.993 2.993 0 0 1 .729 1.157" transform="translate(-12.032 -.817)" style="fill:#b28846"/>
        </g>
    </g>
    <g data-name="그룹 620">
        <g data-name="그룹 619" style="clip-path:url(#w34xk2wu7a)">
            <path data-name="패스 1081" d="m15.464 1.167.484 1.008a.57.57 0 0 0 .43.323l1.081.161a.594.594 0 0 1 .317 1l-.782.785a.6.6 0 0 0-.165.521l.185 1.109a.575.575 0 0 1-.829.621l-.967-.524a.561.561 0 0 0-.532 0l-.967.524a.575.575 0 0 1-.829-.621l.185-1.109a.6.6 0 0 0-.165-.521l-.782-.785a.593.593 0 0 1 .317-1l1.08-.159a.573.573 0 0 0 .43-.323l.484-1.008a.564.564 0 0 1 1.025-.002z" transform="translate(-.08 -.003)" style="stroke:#492c0c;stroke-miterlimit:10;stroke-width:.75px;fill:none"/>
        </g>
    </g>
</svg>
