<svg xmlns="http://www.w3.org/2000/svg" width="25" height="25" viewBox="0 0 25 25">
    <g transform="translate(-285 -13)">
        <circle data-name="도움말 원" cx="11.5" cy="11.5" r="11.5" transform="translate(286 14)" style="fill:none;stroke:#fff;stroke-width:2px"/>
        <path d="M12.07 11.312c.671-.437 1.2-.922 1.187-1.64a1.285 1.285 0 0 0-1.359-1.3 1.4 1.4 0 0 0-1.438 1.409H8.241c.04-2.2 1.672-3.25 3.672-3.25 2.18 0 3.719 1.133 3.719 3.063a3.017 3.017 0 0 1-1.687 2.718 2.163 2.163 0 0 0-1.282 2.125v.172H10.6v-.172c.008-1.945.531-2.539 1.469-3.125m-.391 4.219a1.3 1.3 0 0 1 1.3 1.3 1.318 1.318 0 0 1-1.3 1.312 1.3 1.3 0 0 1-1.312-1.312 1.282 1.282 0 0 1 1.312-1.3" transform="translate(286 13)" style="fill:#fff"/>
    </g>
</svg>
