<svg xmlns="http://www.w3.org/2000/svg" width="82" height="71" viewBox="0 0 82 71">
    <path data-name="패스 279" d="M41.3-108.12H24.8a1.8 1.8 0 0 1-1.805-1.805v-3.86a1.8 1.8 0 0 1 1.805-1.805h31.8a1.8 1.8 0 0 1 1.805 1.805v3.86a1.8 1.8 0 0 1-1.805 1.805h-8.922" transform="translate(18.465 152.435)" style="stroke-linecap:round;stroke:#000;stroke-miterlimit:10;fill:#f9c022"/>
    <path data-name="패스 280" d="M29.017-108.116H-2.169a2.11 2.11 0 0 1-2.111-2.111v-3.263a2.11 2.11 0 0 1 2.111-2.11h31.186a2.11 2.11 0 0 1 2.111 2.111v3.263a2.11 2.11 0 0 1-2.111 2.11z" transform="translate(9.543 152.432)" style="fill:#ffd833;stroke:#000;stroke-miterlimit:10"/>
    <path data-name="패스 281" d="M25.587-113.506H-5.6a2.11 2.11 0 0 1-2.111-2.111v-3.263a2.11 2.11 0 0 1 2.111-2.11h31.2a2.11 2.11 0 0 1 2.111 2.111v3.263a2.121 2.121 0 0 1-2.124 2.11z" transform="translate(8.21 150.558)" style="fill:#f9e26a;stroke:#000;stroke-miterlimit:10"/>
    <path data-name="패스 282" d="M29.017-118.9H-2.169a2.11 2.11 0 0 1-2.111-2.111v-3.263a2.11 2.11 0 0 1 2.111-2.111h31.186a2.11 2.11 0 0 1 2.111 2.111v3.263a2.119 2.119 0 0 1-2.111 2.111z" transform="translate(9.543 148.684)" style="stroke:#000;stroke-miterlimit:10;fill:#f9c022"/>
    <path data-name="패스 283" d="M31.6-124.3H.4a2.11 2.11 0 0 1-2.111-2.111v-3.263A2.11 2.11 0 0 1 .4-131.78h31.2a2.11 2.11 0 0 1 2.111 2.111v3.263A2.11 2.11 0 0 1 31.6-124.3z" transform="translate(10.541 146.807)" style="fill:#ffd833;stroke:#000;stroke-miterlimit:10"/>
    <path data-name="패스 284" d="M29.017-129.686H-2.169A2.11 2.11 0 0 1-4.28-131.8v-3.263a2.11 2.11 0 0 1 2.111-2.111h31.186a2.11 2.11 0 0 1 2.111 2.111v3.263a2.11 2.11 0 0 1-2.111 2.114z" transform="translate(9.543 145.154)" style="fill:#f9e26a;stroke:#000;stroke-miterlimit:10"/>
    <path data-name="패스 285" d="M2.731-142.56h27.451a1.8 1.8 0 0 1 1.805 1.805v3.86a1.8 1.8 0 0 1-1.805 1.805h-31.8a1.8 1.8 0 0 1-1.805-1.805v-3.86a1.8 1.8 0 0 1 1.805-1.805" transform="translate(9.877 143.06)" style="fill:#ffd833;stroke-linecap:round;stroke:#000;stroke-miterlimit:10"/>
    <path data-name="패스 286" d="M27.31-102.726h-31.2a2.11 2.11 0 0 1-2.11-2.11v-3.264a2.11 2.11 0 0 1 2.111-2.111h31.2a2.11 2.11 0 0 1 2.111 2.111v3.263a2.11 2.11 0 0 1-2.112 2.111z" transform="translate(8.874 154.305)" style="fill:#f9e26a;stroke:#000;stroke-miterlimit:10"/>
    <path data-name="패스 287" d="M29.017-97.336H-2.169a2.11 2.11 0 0 1-2.111-2.11v-3.263a2.11 2.11 0 0 1 2.111-2.111h31.186a2.11 2.11 0 0 1 2.111 2.111v3.263a2.11 2.11 0 0 1-2.111 2.11z" transform="translate(9.543 156.179)" style="stroke:#000;stroke-miterlimit:10;fill:#f9c022"/>
    <path data-name="패스 288" d="M28.17-91.946h-31.2a2.11 2.11 0 0 1-2.11-2.11v-3.263a2.11 2.11 0 0 1 2.111-2.111h31.2a2.11 2.11 0 0 1 2.111 2.111v3.263a2.11 2.11 0 0 1-2.112 2.11z" transform="translate(9.208 157.919)" style="fill:#f9e26a;stroke:#000;stroke-miterlimit:10"/>
    <path data-name="패스 289" d="M52.281-120.99h7.651a1.8 1.8 0 0 1 1.805 1.805v3.86a1.8 1.8 0 0 1-1.805 1.805h-31.8a1.8 1.8 0 0 1-1.805-1.805v-3.86a1.8 1.8 0 0 1 1.805-1.805h20.317" transform="translate(19.763 150.558)" style="fill:#f9e26a;stroke-linecap:round;stroke:#000;stroke-miterlimit:10"/>
    <path data-name="패스 290" d="M58.48-102.726h-31.2a2.11 2.11 0 0 1-2.111-2.111v-3.263a2.11 2.11 0 0 1 2.111-2.111h31.2a2.11 2.11 0 0 1 2.111 2.111v3.263a2.11 2.11 0 0 1-2.111 2.111z" transform="translate(19.312 154.305)" style="fill:#ffd833;stroke:#000;stroke-miterlimit:10"/>
    <path data-name="패스 291" d="M57.03-97.336h-31.2a2.11 2.11 0 0 1-2.111-2.111v-3.263a2.11 2.11 0 0 1 2.111-2.111h31.2a2.11 2.11 0 0 1 2.111 2.111v3.263a2.11 2.11 0 0 1-2.111 2.111z" transform="translate(18.749 156.179)" style="fill:#f9e26a;stroke:#000;stroke-miterlimit:10"/>
    <path data-name="패스 292" d="M43.875-91.95h-16.51a1.8 1.8 0 0 1-1.805-1.805v-3.86a1.8 1.8 0 0 1 1.805-1.805h31.8a1.8 1.8 0 0 1 1.805 1.805v3.86a1.8 1.8 0 0 1-1.805 1.805h-8.917" transform="translate(19.464 157.923)" style="stroke-linecap:round;stroke:#000;stroke-miterlimit:10;fill:#f9c022"/>
    <g data-name="그룹 239" transform="translate(24.548 33.982)">
        <circle data-name="타원 40" cx="18.259" cy="18.259" r="18.259" style="fill:#f9e26a;stroke:#000;stroke-miterlimit:10"/>
        <circle data-name="타원 41" cx="14.274" cy="14.274" r="14.274" transform="translate(5.138 3.985)" style="fill:#ffd833"/>
        <path data-name="패스 293" d="M20.366-101.657a38.39 38.39 0 0 1 1.041-11.733 14.229 14.229 0 0 0-5.318 5.013 14.282 14.282 0 0 0 4.624 19.661 13.915 13.915 0 0 0 3.652 1.6 38.571 38.571 0 0 1-3.999-14.541z" transform="translate(-8.827 118.514)" style="fill:#fcbf36"/>
        <path data-name="패스 294" d="M32.156-113.2a13.713 13.713 0 0 1 7.665 7.234 13.776 13.776 0 0 1-6.929 18.2 13.776 13.776 0 0 1-18.2-6.929 13.771 13.771 0 0 1 4.179-16.565 13.809 13.809 0 0 1 2.735-1.625" transform="translate(-9.01 118.587)" style="fill:none;stroke-linecap:round;stroke:#000;stroke-miterlimit:10"/>
        <g data-name="그룹 238">
            <path data-name="패스 295" d="M26.764-108.009a3.68 3.68 0 0 0-3.291-.264 2.64 2.64 0 0 0-1.527 2.791 4.063 4.063 0 0 0 2.36 2.472 8.015 8.015 0 0 1 2.944 1.916 3.341 3.341 0 0 1 .25 3.61 3.6 3.6 0 0 1-3.194 1.763 3.787 3.787 0 0 1-3.1-1.958" transform="translate(-6.006 120.395)" style="fill:none;stroke-linecap:round;stroke:#000;stroke-miterlimit:10"/>
            <path data-name="선 61" transform="translate(18.578 9.303)" style="fill:none;stroke-linecap:round;stroke:#000;stroke-miterlimit:10" d="M0 2.555V0"/>
            <path data-name="선 62" transform="translate(18.578 24.646)" style="fill:none;stroke-linecap:round;stroke:#000;stroke-miterlimit:10" d="M0 2.569V0"/>
        </g>
    </g>
</svg>
