<svg xmlns="http://www.w3.org/2000/svg" width="17.233" height="18.672" viewBox="0 0 17.233 18.672">
    <g data-name="아이템 아이콘">
        <path data-name="패스 847" d="M7.974.091c.093-.14.169-.091.245-.032a.2.2 0 0 1 .032.032C10.5 2.73 13.18 3.4 15.982 2.484a.2.2 0 0 1 .243.135.176.176 0 0 1 .008.058c-.1 15.15-8.117 14.995-8.117 14.995S.063 17.832 0 2.578a.126.126 0 0 1 .125-.128.267.267 0 0 1 .036 0C3.115 3.4 5.8 3.4 7.974.091" transform="translate(.5 .5)" style="fill:#0098f7;stroke:#000"/>
        <path data-name="패스 848" d="M11.38 6.752H7.969V3.3a.853.853 0 1 0-1.706 0v3.452h-3.41a.862.862 0 0 0 0 1.724h3.411v3.447a.853.853 0 1 0 1.706 0V8.476h3.41a.862.862 0 0 0 0-1.724" transform="translate(1.5 1.721)" style="fill:#fff"/>
    </g>
</svg>
