<svg id="거래등급_플래티넘_청록" data-name="거래등급 플래티넘_청록" xmlns="http://www.w3.org/2000/svg" xmlns:xlink="http://www.w3.org/1999/xlink" width="32.535" height="27.085" viewBox="0 0 32.535 27.085">
  <defs>
    <style>
      .cls-1, .cls-13 {
        fill: none;
      }

      .cls-2 {
        clip-path: url(#clip-path);
      }

      .cls-3 {
        fill: #b28846;
      }

      .cls-4 {
        fill: #490a0a;
      }

      .cls-5 {
        fill: #ddc37a;
      }

      .cls-6 {
        fill: #ffefae;
      }

      .cls-7 {
        fill: #cfe;
      }

      .cls-8 {
        clip-path: url(#clip-path-2);
      }

      .cls-9 {
        fill: #83ffd2;
      }

      .cls-10 {
        fill: #03d8be;
      }

      .cls-11 {
        fill: #00797f;
      }

      .cls-12 {
        fill: #02394f;
      }

      .cls-13 {
        stroke: #490a0a;
        stroke-miterlimit: 10;
        stroke-width: 0.75px;
      }

      .cls-14 {
        fill: #fff;
      }

      .cls-15 {
        clip-path: url(#clip-path-4);
      }
    </style>
    <clipPath id="clip-path">
      <rect id="사각형_774" data-name="사각형 774" class="cls-1" width="32.535" height="27.085" transform="translate(0 0)"/>
    </clipPath>
    <clipPath id="clip-path-2">
      <path id="패스_1498" data-name="패스 1498" class="cls-1" d="M11.9,8.207a1.329,1.329,0,0,0-1.125.63L8.4,12.635a1.4,1.4,0,0,0,.1,1.623l6.543,8a1.313,1.313,0,0,0,2.02.031l6.92-7.973a1.4,1.4,0,0,0,.077-1.728L21.3,8.762a1.323,1.323,0,0,0-1.073-.555Z"/>
    </clipPath>
    <clipPath id="clip-path-4">
      <path id="패스_1518" data-name="패스 1518" class="cls-1" d="M15.691,1.274l-.53,1.1a.627.627,0,0,1-.473.352L13.5,2.907a.65.65,0,0,0-.348,1.1l.858.859a.652.652,0,0,1,.181.57l-.2,1.214a.631.631,0,0,0,.911.679l1.061-.572a.611.611,0,0,1,.584,0l1.062.572a.631.631,0,0,0,.91-.679l-.2-1.214a.655.655,0,0,1,.18-.57l.859-.859a.65.65,0,0,0-.348-1.1L17.821,2.73a.627.627,0,0,1-.473-.352l-.531-1.1a.621.621,0,0,0-1.126,0"/>
    </clipPath>
  </defs>
  <g id="그룹_715" data-name="그룹 715" transform="translate(0 0)">
    <g id="그룹_714" data-name="그룹 714" class="cls-2">
      <path id="패스_1467" data-name="패스 1467" class="cls-3" d="M30.337,26.585a.8.8,0,0,1-.345-.078L19.88,21.748a.5.5,0,0,1-.287-.452v-3.1a.5.5,0,0,1,.713-.452l8.913,4.195a3.371,3.371,0,0,1,1.929,3.038v.8a.814.814,0,0,1-.811.811"/>
      <path id="패스_1468" data-name="패스 1468" class="cls-4" d="M20.093,18.192l8.913,4.195a2.856,2.856,0,0,1,1.641,2.585v.8a.309.309,0,0,1-.442.281L20.093,21.3Zm0-1a1,1,0,0,0-1,1v3.1a1,1,0,0,0,.574.905L29.779,26.96a1.31,1.31,0,0,0,1.868-1.186v-.8a3.872,3.872,0,0,0-2.215-3.49l-8.913-4.195a1,1,0,0,0-.426-.1"/>
      <path id="패스_1469" data-name="패스 1469" class="cls-5" d="M20.093,19.84V18.192l8.913,4.195a2.857,2.857,0,0,1,1.641,2.586v.052Z"/>
      <path id="패스_1470" data-name="패스 1470" class="cls-3" d="M30.337,23.2a.8.8,0,0,1-.345-.078L19.88,18.36a.5.5,0,0,1-.287-.452V14.8a.5.5,0,0,1,.713-.452l8.913,4.195a3.371,3.371,0,0,1,1.929,3.038v.8a.814.814,0,0,1-.811.812"/>
      <path id="패스_1471" data-name="패스 1471" class="cls-4" d="M20.093,14.8,29.006,19a2.856,2.856,0,0,1,1.641,2.585v.8a.309.309,0,0,1-.442.281L20.093,17.908Zm0-1a1,1,0,0,0-1,1v3.1a1,1,0,0,0,.574.9l10.112,4.759a1.31,1.31,0,0,0,1.868-1.186v-.8a3.872,3.872,0,0,0-2.215-3.49L20.519,13.9a1,1,0,0,0-.426-.1"/>
      <path id="패스_1472" data-name="패스 1472" class="cls-5" d="M20.093,16.451V14.8L29.006,19a2.857,2.857,0,0,1,1.641,2.586v.052Z"/>
      <path id="패스_1473" data-name="패스 1473" class="cls-3" d="M2.2,26.585a.812.812,0,0,1-.81-.811v-.8a3.372,3.372,0,0,1,1.928-3.038l8.913-4.195a.5.5,0,0,1,.213-.048.5.5,0,0,1,.5.5v3.1a.5.5,0,0,1-.287.452L2.543,26.507a.8.8,0,0,1-.346.078"/>
      <path id="패스_1474" data-name="패스 1474" class="cls-4" d="M12.441,18.192v3.1L2.329,26.055a.309.309,0,0,1-.442-.281v-.8a2.856,2.856,0,0,1,1.641-2.585Zm0-1a1,1,0,0,0-.426.1L3.1,21.482a3.872,3.872,0,0,0-2.215,3.49v.8A1.31,1.31,0,0,0,2.755,26.96L12.867,22.2a1,1,0,0,0,.574-.905v-3.1a1,1,0,0,0-1-1"/>
      <path id="패스_1475" data-name="패스 1475" class="cls-5" d="M12.441,19.84V18.192L3.528,22.387a2.857,2.857,0,0,0-1.641,2.586v.052Z"/>
      <path id="패스_1476" data-name="패스 1476" class="cls-3" d="M2.2,23.2a.812.812,0,0,1-.811-.812v-.8a3.372,3.372,0,0,1,1.928-3.038l8.913-4.195a.5.5,0,0,1,.213-.048.5.5,0,0,1,.5.5v3.105a.5.5,0,0,1-.287.452L2.543,23.119A.8.8,0,0,1,2.2,23.2"/>
      <path id="패스_1477" data-name="패스 1477" class="cls-4" d="M12.441,14.8v3.1L2.329,22.667a.309.309,0,0,1-.442-.281v-.8A2.856,2.856,0,0,1,3.528,19Zm0-1a1,1,0,0,0-.426.1L3.1,18.094a3.872,3.872,0,0,0-2.215,3.49v.8a1.31,1.31,0,0,0,1.868,1.186l10.112-4.759a1,1,0,0,0,.574-.9V14.8a1,1,0,0,0-1-1"/>
      <path id="패스_1478" data-name="패스 1478" class="cls-5" d="M12.441,16.451V14.8L3.528,19a2.857,2.857,0,0,0-1.641,2.586v.052Z"/>
      <path id="패스_1479" data-name="패스 1479" class="cls-6" d="M19.206,14.894a.5.5,0,0,1-.268-.078.5.5,0,0,1-.232-.422V10.768a.5.5,0,0,1,.287-.452L30.805,4.757a.86.86,0,0,1,1.229.781v.936a3.853,3.853,0,0,1-2.2,3.473l-10.411,4.9a.5.5,0,0,1-.213.048"/>
      <path id="패스_1480" data-name="패스 1480" class="cls-4" d="M31.172,5.175a.362.362,0,0,1,.362.363v.936a3.341,3.341,0,0,1-1.916,3.021l-10.412,4.9V10.768L31.018,5.21a.356.356,0,0,1,.154-.035m0-1a1.357,1.357,0,0,0-.58.13L18.78,9.864a1,1,0,0,0-.574.9v3.626a1,1,0,0,0,1.426.9l10.411-4.9a4.355,4.355,0,0,0,2.491-3.926V5.538a1.364,1.364,0,0,0-1.362-1.363"/>
      <path id="패스_1481" data-name="패스 1481" class="cls-5" d="M19.206,12.47v1.924l10.412-4.9a3.339,3.339,0,0,0,1.917-3.021v-.06Z"/>
      <path id="패스_1482" data-name="패스 1482" class="cls-6" d="M19.206,18.852a.5.5,0,0,1-.268-.078.5.5,0,0,1-.232-.422V14.726a.5.5,0,0,1,.287-.452L30.805,8.715a.86.86,0,0,1,1.229.781v.936a3.853,3.853,0,0,1-2.2,3.473L19.419,18.8a.5.5,0,0,1-.213.048"/>
      <path id="패스_1483" data-name="패스 1483" class="cls-4" d="M31.172,9.133a.362.362,0,0,1,.362.363v.936a3.339,3.339,0,0,1-1.916,3.021l-10.412,4.9V14.726L31.018,9.168a.356.356,0,0,1,.154-.035m0-1a1.357,1.357,0,0,0-.58.13L18.78,13.822a1,1,0,0,0-.574.9v3.626a1,1,0,0,0,1.426.905l10.411-4.9a4.355,4.355,0,0,0,2.491-3.926V9.5a1.364,1.364,0,0,0-1.362-1.363"/>
      <path id="패스_1484" data-name="패스 1484" class="cls-5" d="M19.206,16.428v1.924l10.412-4.9a3.339,3.339,0,0,0,1.917-3.021v-.06Z"/>
      <path id="패스_1485" data-name="패스 1485" class="cls-6" d="M13.329,14.894a.5.5,0,0,1-.213-.048L2.7,9.947A3.852,3.852,0,0,1,.5,6.474V5.538A.86.86,0,0,1,1.73,4.757l11.812,5.559a.5.5,0,0,1,.287.452v3.626a.5.5,0,0,1-.232.422.5.5,0,0,1-.268.078"/>
      <path id="패스_1486" data-name="패스 1486" class="cls-4" d="M1.362,5.175a.356.356,0,0,1,.154.035l11.812,5.558v3.626L2.917,9.495A3.34,3.34,0,0,1,1,6.474V5.538a.363.363,0,0,1,.362-.363m0-1A1.364,1.364,0,0,0,0,5.538v.936A4.355,4.355,0,0,0,2.491,10.4L12.9,15.3a1,1,0,0,0,1.426-.9V10.768a1,1,0,0,0-.574-.9L1.942,4.3a1.357,1.357,0,0,0-.58-.13"/>
      <path id="패스_1487" data-name="패스 1487" class="cls-5" d="M13.328,12.47v1.924L2.917,9.495A3.34,3.34,0,0,1,1,6.474v-.06Z"/>
      <path id="패스_1488" data-name="패스 1488" class="cls-6" d="M13.329,18.852a.5.5,0,0,1-.213-.048L2.7,13.9A3.852,3.852,0,0,1,.5,10.432V9.5A.86.86,0,0,1,1.73,8.715l11.812,5.559a.5.5,0,0,1,.287.452v3.626a.5.5,0,0,1-.232.422.5.5,0,0,1-.268.078"/>
      <path id="패스_1489" data-name="패스 1489" class="cls-4" d="M1.362,9.133a.359.359,0,0,1,.154.035l11.812,5.558v3.626l-10.412-4.9A3.338,3.338,0,0,1,1,10.432V9.5a.362.362,0,0,1,.362-.363m0-1A1.364,1.364,0,0,0,0,9.5v.936a4.355,4.355,0,0,0,2.491,3.926l10.411,4.9a1,1,0,0,0,1.426-.905V14.726a1,1,0,0,0-.574-.9L1.942,8.263a1.357,1.357,0,0,0-.58-.13"/>
      <path id="패스_1490" data-name="패스 1490" class="cls-5" d="M13.328,16.428v1.924l-10.411-4.9A3.34,3.34,0,0,1,1,10.432v-.06Z"/>
      <path id="패스_1491" data-name="패스 1491" class="cls-7" d="M11.9,8.206h8.325a1.325,1.325,0,0,1,1.073.555l2.76,3.827a1.4,1.4,0,0,1-.076,1.728L17.062,22.29a1.312,1.312,0,0,1-2.019-.031l-6.543-8a1.4,1.4,0,0,1-.1-1.624l2.379-3.8a1.325,1.325,0,0,1,1.123-.63"/>
    </g>
  </g>
  <g id="그룹_717" data-name="그룹 717" transform="translate(0 0)">
    <g id="그룹_716" data-name="그룹 716" class="cls-8">
      <path id="패스_1492" data-name="패스 1492" class="cls-9" d="M16.013,8.417l-3,4.994h6.164Z"/>
      <path id="패스_1493" data-name="패스 1493" class="cls-10" d="M7.141,13.242l5.711.169L9.77,7.93Z"/>
      <path id="패스_1494" data-name="패스 1494" class="cls-10" d="M25.048,13.242l-5.711.169L22.419,7.93Z"/>
      <path id="패스_1495" data-name="패스 1495" class="cls-11" d="M13.014,13.7l2.27,9.655h1.621L19.174,13.7Z"/>
      <path id="패스_1496" data-name="패스 1496" class="cls-9" d="M19.5,13.7l-1.945,8.656L25.011,13.7Z"/>
      <path id="패스_1497" data-name="패스 1497" class="cls-12" d="M12.69,13.7l1.945,8.656L7.178,13.7Z"/>
    </g>
  </g>
  <g id="그룹_719" data-name="그룹 719" transform="translate(0 0)">
    <g id="그룹_718" data-name="그룹 718" class="cls-2">
      <path id="패스_1499" data-name="패스 1499" class="cls-6" d="M21.277,8.774l2.76,3.827a1.4,1.4,0,0,1,.068,1.527h2.062a3.444,3.444,0,0,0-.567-2.716L22.84,7.585a3.288,3.288,0,0,0-.734-.732l-1.27,1.531a1.344,1.344,0,0,1,.441.39"/>
      <path id="패스_1500" data-name="패스 1500" class="cls-13" d="M21.277,8.774l2.76,3.827a1.4,1.4,0,0,1,.068,1.527h2.062a3.444,3.444,0,0,0-.567-2.716L22.84,7.585a3.288,3.288,0,0,0-.734-.732l-1.27,1.531A1.344,1.344,0,0,1,21.277,8.774Z"/>
      <path id="패스_1501" data-name="패스 1501" class="cls-3" d="M24.1,14.128a1.394,1.394,0,0,1-.144.2L17.041,22.3a1.312,1.312,0,0,1-.971.456v2a3.243,3.243,0,0,0,2.423-1.126l6.92-7.973a3.374,3.374,0,0,0,.754-1.53Z"/>
      <path id="패스_1502" data-name="패스 1502" class="cls-13" d="M24.1,14.128a1.394,1.394,0,0,1-.144.2L17.041,22.3a1.312,1.312,0,0,1-.971.456v2a3.243,3.243,0,0,0,2.423-1.126l6.92-7.973a3.374,3.374,0,0,0,.754-1.53Z"/>
      <path id="패스_1503" data-name="패스 1503" class="cls-6" d="M16.043,22.762a1.315,1.315,0,0,1-1.023-.49l-6.543-8a1.331,1.331,0,0,1-.1-.142H6.3a3.418,3.418,0,0,0,.691,1.427l6.543,8a3.241,3.241,0,0,0,2.513,1.2l.027,0v-2l-.027,0"/>
      <path id="패스_1504" data-name="패스 1504" class="cls-13" d="M16.043,22.762a1.315,1.315,0,0,1-1.023-.49l-6.543-8a1.331,1.331,0,0,1-.1-.142H6.3a3.418,3.418,0,0,0,.691,1.427l6.543,8a3.241,3.241,0,0,0,2.513,1.2l.027,0v-2Z"/>
      <path id="패스_1505" data-name="패스 1505" class="cls-5" d="M11.879,8.219H20.2a1.306,1.306,0,0,1,.632.165l1.27-1.531a3.23,3.23,0,0,0-1.9-.632H11.879a3.209,3.209,0,0,0-2.065.758L11.075,8.5a1.305,1.305,0,0,1,.8-.279"/>
      <path id="패스_1506" data-name="패스 1506" class="cls-13" d="M11.879,8.219H20.2a1.306,1.306,0,0,1,.632.165l1.27-1.531a3.23,3.23,0,0,0-1.9-.632H11.879a3.209,3.209,0,0,0-2.065.758L11.075,8.5A1.305,1.305,0,0,1,11.879,8.219Z"/>
      <path id="패스_1507" data-name="패스 1507" class="cls-3" d="M8.377,12.647l2.379-3.8a1.341,1.341,0,0,1,.319-.351L9.814,6.978a3.386,3.386,0,0,0-.695.79l-2.378,3.8A3.43,3.43,0,0,0,6.3,14.128H8.379a1.4,1.4,0,0,1,0-1.481"/>
      <path id="패스_1508" data-name="패스 1508" class="cls-13" d="M8.377,12.647l2.379-3.8a1.341,1.341,0,0,1,.319-.351L9.814,6.978a3.386,3.386,0,0,0-.695.79l-2.378,3.8A3.43,3.43,0,0,0,6.3,14.128H8.379A1.4,1.4,0,0,1,8.377,12.647Z"/>
      <path id="패스_1509" data-name="패스 1509" class="cls-14" d="M16.817,1.274l.531,1.1a.627.627,0,0,0,.472.352l1.187.178a.649.649,0,0,1,.347,1.1l-.858.859a.659.659,0,0,0-.181.571l.2,1.213a.631.631,0,0,1-.911.679l-1.061-.572a.611.611,0,0,0-.584,0L14.9,7.329a.631.631,0,0,1-.911-.679l.2-1.213a.656.656,0,0,0-.181-.571l-.858-.859a.649.649,0,0,1,.348-1.1l1.186-.178a.63.63,0,0,0,.473-.352l.53-1.1a.621.621,0,0,1,1.126,0"/>
    </g>
  </g>
  <g id="그룹_721" data-name="그룹 721" transform="translate(0 0)">
    <g id="그룹_720" data-name="그룹 720" class="cls-15">
      <path id="패스_1510" data-name="패스 1510" class="cls-11" d="M16.224.359V4L13.656,1.04s.611-.879,1.1-1a3.178,3.178,0,0,1,1.468.323"/>
      <path id="패스_1511" data-name="패스 1511" class="cls-9" d="M13.679,1.441l2.509,2.576-3.856-.229a3.139,3.139,0,0,1,.087-1.51,3.238,3.238,0,0,1,1.26-.837"/>
      <path id="패스_1512" data-name="패스 1512" class="cls-12" d="M12.625,4.054h3.549L13.289,6.691s-.857-.628-.979-1.13a3.419,3.419,0,0,1,.315-1.507"/>
      <path id="패스_1513" data-name="패스 1513" class="cls-10" d="M13.679,6.667l2.509-2.576L15.964,8.05a2.9,2.9,0,0,1-1.47-.089,3.356,3.356,0,0,1-.815-1.294"/>
      <path id="패스_1514" data-name="패스 1514" class="cls-11" d="M16.224,7.75V4.106l2.568,2.963s-.611.879-1.1,1a3.178,3.178,0,0,1-1.468-.323"/>
      <path id="패스_1515" data-name="패스 1515" class="cls-9" d="M18.769,6.667,16.26,4.091l3.856.229a3.139,3.139,0,0,1-.087,1.51,3.238,3.238,0,0,1-1.26.837"/>
      <path id="패스_1516" data-name="패스 1516" class="cls-7" d="M19.823,4.054H16.275l2.884-2.637s.857.628.979,1.13a3.419,3.419,0,0,1-.315,1.507"/>
      <path id="패스_1517" data-name="패스 1517" class="cls-10" d="M18.769,1.441,16.26,4.017,16.484.058a2.9,2.9,0,0,1,1.47.089,3.356,3.356,0,0,1,.815,1.294"/>
    </g>
  </g>
  <g id="그룹_723" data-name="그룹 723" transform="translate(0 0)">
    <g id="그룹_722" data-name="그룹 722" class="cls-2">
      <path id="패스_1519" data-name="패스 1519" class="cls-13" d="M16.817,1.274l.531,1.1a.627.627,0,0,0,.472.352l1.187.178a.649.649,0,0,1,.347,1.1l-.858.859a.659.659,0,0,0-.181.571l.2,1.213a.631.631,0,0,1-.911.679l-1.061-.572a.611.611,0,0,0-.584,0L14.9,7.329a.631.631,0,0,1-.911-.679l.2-1.213a.656.656,0,0,0-.181-.571l-.858-.859a.649.649,0,0,1,.348-1.1l1.186-.178a.63.63,0,0,0,.473-.352l.53-1.1A.621.621,0,0,1,16.817,1.274Z"/>
    </g>
  </g>
</svg>
