<svg xmlns="http://www.w3.org/2000/svg" width="143" height="52" viewBox="0 0 143 52">
    <defs>
        <clipPath id="5xk20cunnb">
            <path data-name="사각형 1201" style="fill:none" d="M0 0h39.657v33.155H0z"/>
        </clipPath>
        <clipPath id="lqrpwv7xzc">
            <path data-name="패스 1248" d="m20.823 10.417-1.25 2.534a1.477 1.477 0 0 1-1.114.808l-2.8.407a1.479 1.479 0 0 0-.82 2.524l2.023 1.972a1.482 1.482 0 0 1 .426 1.31l-.478 2.785a1.478 1.478 0 0 0 2.146 1.558L21.461 23a1.484 1.484 0 0 1 1.378 0l2.5 1.315a1.479 1.479 0 0 0 2.147-1.558l-.478-2.785a1.478 1.478 0 0 1 .426-1.31l2.023-1.972a1.48 1.48 0 0 0-.82-2.524l-2.8-.407a1.477 1.477 0 0 1-1.113-.808l-1.25-2.534a1.479 1.479 0 0 0-2.654 0" transform="translate(-14.394 -9.592)" style="fill:none"/>
        </clipPath>
        <linearGradient id="5775co66ta" x1="1.158" x2=".024" y2=".898" gradientUnits="objectBoundingBox">
            <stop offset="0" stop-color="#ffe6bb"/>
            <stop offset=".23" stop-color="#efcd89"/>
            <stop offset=".49" stop-color="#c69c6d"/>
            <stop offset=".778" stop-color="#ffe6bb"/>
            <stop offset="1" stop-color="#c69c6d"/>
        </linearGradient>
    </defs>
    <g data-name="거래등급 브론즈띠포함">
        <g data-name="그룹 1560">
            <path data-name="패스 1195" d="M20 0h102a20 20 0 0 1 20 20v11a20 20 0 0 1-20 20H20A20 20 0 0 1 0 31V20A20 20 0 0 1 20 0" style="stroke:#8c6239;fill:url(#5775co66ta)" transform="translate(.5 .5)"/>
        </g>
        <g data-name="그룹 1561" style="opacity:.35;mix-blend-mode:overlay;isolation:isolate">
            <path data-name="패스 1195" d="M18.592 0h94.817C123.677 0 132 7.374 132 16.471v9.059c0 9.096-8.323 16.47-18.592 16.47H18.592C8.323 42 0 34.626 0 25.529v-9.058C0 7.374 8.323 0 18.592 0" transform="translate(5.5 5)" style="fill:#fff"/>
        </g>
        <g data-name="그룹 1562" style="opacity:.75">
            <path data-name="패스 1195" d="M18.592 0h94.817C123.677 0 132 7.374 132 16.471v9.059c0 9.096-8.323 16.47-18.592 16.47H18.592C8.323 42 0 34.626 0 25.529v-9.058C0 7.374 8.323 0 18.592 0" transform="translate(5.5 5)" style="stroke:#c69c6d;fill:none"/>
        </g>
        <text transform="translate(20.357 33.696)" style="font-size:20px;font-family:Pretendard-Bold,Pretendard;font-weight:700;fill:#8c6239"><tspan x="0" y="0">브론즈</tspan></text>
        <g data-name="그룹 1563">
            <g data-name="그룹 1430">
                <g data-name="그룹 1429" style="clip-path:url(#5xk20cunnb)" transform="translate(87.643 9.422)">
                    <path data-name="패스 1215" d="M29.96 18.5a.418.418 0 0 1-.226-.066.423.423 0 0 1-.2-.356v-3.965a.421.421 0 0 1 .242-.381l12.9-6.073a.817.817 0 0 1 1.166.74v1.023a4.084 4.084 0 0 1-2.328 3.678L30.14 18.455a.42.42 0 0 1-.18.041" transform="translate(-4.615 -1.184)" style="fill:#efcd89"/>
                    <path data-name="패스 1216" d="M42.954 7.924a.4.4 0 0 1 .4.4v1.019a3.647 3.647 0 0 1-2.094 3.3L29.882 18v-3.966l12.9-6.073a.4.4 0 0 1 .169-.038m0-.844a1.234 1.234 0 0 0-.528.118l-12.9 6.073a.845.845 0 0 0-.484.764V18a.844.844 0 0 0 .844.844.854.854 0 0 0 .359-.08l11.374-5.353a4.509 4.509 0 0 0 2.579-4.064V8.32a1.241 1.241 0 0 0-1.239-1.24" transform="translate(-4.537 -1.106)" style="fill:#754c24"/>
                    <path data-name="패스 1217" d="M30.038 16.3v2.1l11.374-5.352a3.647 3.647 0 0 0 2.094-3.3v-.064z" transform="translate(-4.693 -1.513)" style="fill:#b38d63"/>
                    <path data-name="패스 1218" d="M29.96 23.621a.418.418 0 0 1-.226-.066.423.423 0 0 1-.2-.356v-3.962a.421.421 0 0 1 .242-.381l12.9-6.073a.817.817 0 0 1 1.166.739v1.023a4.085 4.085 0 0 1-2.336 3.681L30.14 23.58a.42.42 0 0 1-.18.041" transform="translate(-4.615 -1.985)" style="fill:#efcd89"/>
                    <path data-name="패스 1219" d="M42.954 13.049a.4.4 0 0 1 .4.4v1.023a3.647 3.647 0 0 1-2.094 3.3l-11.378 5.349v-3.962l12.9-6.073a.4.4 0 0 1 .169-.038m0-.844a1.234 1.234 0 0 0-.528.118L29.522 18.4a.845.845 0 0 0-.484.764v3.962a.844.844 0 0 0 1.2.764l11.374-5.353a4.509 4.509 0 0 0 2.579-4.064v-1.028a1.241 1.241 0 0 0-1.239-1.24" transform="translate(-4.537 -1.907)" style="fill:#754c24"/>
                    <path data-name="패스 1220" d="M30.038 21.425v2.1l11.374-5.353a3.647 3.647 0 0 0 2.094-3.3v-.066z" transform="translate(-4.693 -2.314)" style="fill:#b38d63"/>
                    <path data-name="패스 1221" d="M29.96 28.745a.418.418 0 0 1-.226-.066.423.423 0 0 1-.2-.356v-3.961a.421.421 0 0 1 .242-.381l12.9-6.073a.817.817 0 0 1 1.166.74v1.023a4.084 4.084 0 0 1-2.336 3.681L30.14 28.7a.42.42 0 0 1-.18.041" transform="translate(-4.615 -2.785)" style="fill:#efcd89"/>
                    <path data-name="패스 1222" d="M42.954 18.173a.4.4 0 0 1 .4.4v1.023a3.647 3.647 0 0 1-2.094 3.3l-11.378 5.349v-3.962l12.9-6.073a.4.4 0 0 1 .169-.038m0-.844a1.228 1.228 0 0 0-.527.118l-12.9 6.073a.845.845 0 0 0-.484.764v3.962a.844.844 0 0 0 1.2.764l11.374-5.353a4.509 4.509 0 0 0 2.579-4.064v-1.023a1.241 1.241 0 0 0-1.239-1.24" transform="translate(-4.537 -2.707)" style="fill:#754c24"/>
                    <path data-name="패스 1223" d="M30.038 26.549v2.1L41.412 23.3a3.647 3.647 0 0 0 2.094-3.3v-.066z" transform="translate(-4.693 -3.114)" style="fill:#b38d63"/>
                    <path data-name="패스 1224" d="M14.39 18.5a.42.42 0 0 1-.18-.041L2.836 13.1A4.084 4.084 0 0 1 .5 9.422V8.4a.82.82 0 0 1 .818-.818.828.828 0 0 1 .347.078l12.9 6.074a.421.421 0 0 1 .242.381v3.961a.423.423 0 0 1-.2.356.418.418 0 0 1-.226.066" transform="translate(-.078 -1.184)" style="fill:#efcd89"/>
                    <path data-name="패스 1225" d="M1.239 7.924a.4.4 0 0 1 .169.038l12.9 6.073V18l-11.37-5.357a3.647 3.647 0 0 1-2.094-3.3V8.32a.4.4 0 0 1 .4-.4m0-.844A1.241 1.241 0 0 0 0 8.32v1.023a4.509 4.509 0 0 0 2.579 4.064l11.374 5.353a.844.844 0 0 0 1.2-.764v-3.962a.845.845 0 0 0-.484-.764L1.767 7.2a1.228 1.228 0 0 0-.527-.118" transform="translate(0 -1.106)" style="fill:#754c24"/>
                    <path data-name="패스 1226" d="M14.468 16.3v2.1L3.094 13.051A3.647 3.647 0 0 1 1 9.751v-.067z" transform="translate(-.156 -1.513)" style="fill:#c69c6d"/>
                    <path data-name="패스 1227" d="M14.39 23.621a.42.42 0 0 1-.18-.041L2.836 18.227A4.085 4.085 0 0 1 .5 14.546v-1.023a.817.817 0 0 1 1.166-.739l12.9 6.073a.421.421 0 0 1 .242.381V23.2a.423.423 0 0 1-.2.356.418.418 0 0 1-.226.066" transform="translate(-.078 -1.985)" style="fill:#efcd89"/>
                    <path data-name="패스 1228" d="M1.239 13.049a.4.4 0 0 1 .169.038l12.9 6.073v3.962l-11.37-5.354a3.647 3.647 0 0 1-2.094-3.3v-1.023a.4.4 0 0 1 .4-.4m0-.844A1.241 1.241 0 0 0 0 13.445v1.023a4.509 4.509 0 0 0 2.579 4.064l11.374 5.353a.844.844 0 0 0 1.2-.764v-3.962a.845.845 0 0 0-.484-.764l-12.9-6.073a1.228 1.228 0 0 0-.527-.118" transform="translate(0 -1.907)" style="fill:#754c24"/>
                    <path data-name="패스 1229" d="M14.468 21.425v2.1l-11.374-5.35A3.647 3.647 0 0 1 1 14.875v-.066z" transform="translate(-.156 -2.314)" style="fill:#c69c6d"/>
                    <path data-name="패스 1230" d="M14.39 28.745a.42.42 0 0 1-.18-.041L2.836 23.351A4.084 4.084 0 0 1 .5 19.671v-1.024a.817.817 0 0 1 1.166-.74l12.9 6.073a.421.421 0 0 1 .242.381v3.961a.423.423 0 0 1-.2.356.418.418 0 0 1-.226.066" transform="translate(-.078 -2.785)" style="fill:#efcd89"/>
                    <path data-name="패스 1231" d="M1.239 18.173a.4.4 0 0 1 .169.038l12.9 6.073v3.962l-11.37-5.354a3.647 3.647 0 0 1-2.094-3.3v-1.023a.4.4 0 0 1 .4-.4m0-.844A1.241 1.241 0 0 0 0 18.569v1.023a4.509 4.509 0 0 0 2.579 4.064l11.374 5.353a.844.844 0 0 0 .812-.051.843.843 0 0 0 .392-.712v-3.963a.845.845 0 0 0-.484-.764l-12.9-6.073a1.231 1.231 0 0 0-.527-.118" transform="translate(0 -2.707)" style="fill:#754c24"/>
                    <path data-name="패스 1232" d="M14.468 26.549v2.1L3.094 23.3A3.647 3.647 0 0 1 1 20v-.066z" transform="translate(-.156 -3.114)" style="fill:#c69c6d"/>
                    <path data-name="패스 1233" d="M21.194 32.811a3.8 3.8 0 0 1-1.82-.468L10.6 27.524a3.779 3.779 0 0 1-1.962-3.331l.068-15.185A3.779 3.779 0 0 1 10.7 5.693L19.541.951a3.769 3.769 0 0 1 3.608.017l8.774 4.82a3.78 3.78 0 0 1 1.961 3.331L33.816 24.3a3.778 3.778 0 0 1-1.994 3.316l-8.841 4.741a3.788 3.788 0 0 1-1.787.451m.134-29.448a.922.922 0 0 0-.434.11l-8.84 4.744a.917.917 0 0 0-.485.806L11.5 24.2a.919.919 0 0 0 .477.812l8.773 4.818a.924.924 0 0 0 .443.115.931.931 0 0 0 .435-.11l8.841-4.735a.919.919 0 0 0 .485-.807l.068-15.185a.919.919 0 0 0-.476-.811l-8.774-4.819a.923.923 0 0 0-.444-.115" transform="translate(-1.35 -.078)" style="fill:#efcd89"/>
                    <path data-name="패스 1234" d="M21.251.844a3.356 3.356 0 0 1 1.618.416l8.774 4.819a3.358 3.358 0 0 1 1.742 2.96l-.068 15.185a3.355 3.355 0 0 1-1.772 2.946l-8.839 4.741a3.347 3.347 0 0 1-3.205-.016l-8.774-4.819a3.358 3.358 0 0 1-1.742-2.96l.066-15.185a3.356 3.356 0 0 1 1.772-2.946l8.84-4.741a3.36 3.36 0 0 1 1.588-.4m-.135 29.448a1.337 1.337 0 0 0 .635-.16l8.84-4.741a1.341 1.341 0 0 0 .708-1.176l.068-15.185a1.341 1.341 0 0 0-.7-1.182L21.9 3.028a1.338 1.338 0 0 0-1.281-.006l-8.84 4.741a1.339 1.339 0 0 0-.708 1.176L11 24.125a1.341 1.341 0 0 0 .7 1.182l8.774 4.819a1.342 1.342 0 0 0 .645.166M21.251 0a4.221 4.221 0 0 0-1.987.5l-8.84 4.741a4.2 4.2 0 0 0-2.217 3.686l-.068 15.185a4.2 4.2 0 0 0 2.18 3.7l8.774 4.819a4.188 4.188 0 0 0 4.01.02l8.84-4.741a4.2 4.2 0 0 0 2.217-3.686l.068-15.184a4.2 4.2 0 0 0-2.18-3.7L23.275.521A4.212 4.212 0 0 0 21.251 0m-.135 29.448a.5.5 0 0 1-.24-.062L12.1 24.567a.5.5 0 0 1-.258-.439l.068-15.185a.5.5 0 0 1 .262-.436l8.841-4.741a.5.5 0 0 1 .235-.06.5.5 0 0 1 .24.062l8.774 4.819a.5.5 0 0 1 .258.44l-.068 15.184a.5.5 0 0 1-.263.436l-8.839 4.741a.509.509 0 0 1-.236.06" transform="translate(-1.272)" style="fill:#754c24"/>
                    <path data-name="패스 1235" d="M11.531 24.655a1.342 1.342 0 0 0 .7 1.182L21 30.656a1.336 1.336 0 0 0 1.28.007l8.84-4.741a1.34 1.34 0 0 0 .708-1.176L31.9 9.56a1.341 1.341 0 0 0-.7-1.182l-8.773-4.819a1.338 1.338 0 0 0-1.281-.007l-8.84 4.741A1.342 1.342 0 0 0 11.6 9.47z" transform="translate(-1.801 -.53)" style="fill:#efcd89"/>
                    <path data-name="패스 1236" d="M12.306 9.2a1.341 1.341 0 0 0-.708 1.176l-.068 15.185a1.341 1.341 0 0 0 .7 1.182l8.77 4.82a1.964 1.964 0 0 0 .774.166V18.755z" transform="translate(-1.801 -1.437)" style="fill:#8c6239"/>
                    <path data-name="패스 1237" d="M23.671 18.755V31.73a1.964 1.964 0 0 0 .774-.166l8.774-4.819a1.343 1.343 0 0 0 .7-1.182l-.068-15.185a1.341 1.341 0 0 0-.712-1.178z" transform="translate(-3.698 -1.437)" style="fill:#c69c6d"/>
                    <path data-name="패스 1238" d="M21.7 3.314a1.339 1.339 0 0 1 .646.167L31.123 8.3a1.341 1.341 0 0 1 .7 1.182l-.068 15.184a1.341 1.341 0 0 1-.708 1.176L22.2 30.584a1.338 1.338 0 0 1-1.281-.006l-8.774-4.819a1.341 1.341 0 0 1-.7-1.182l.075-15.185a1.339 1.339 0 0 1 .708-1.176l8.84-4.74a1.338 1.338 0 0 1 .635-.161m0-.422a1.776 1.776 0 0 0-.834.21l-8.841 4.74A1.761 1.761 0 0 0 11.1 9.39l-.068 15.184a1.764 1.764 0 0 0 .915 1.554l8.774 4.819a1.758 1.758 0 0 0 1.682.008l8.84-4.741a1.761 1.761 0 0 0 .931-1.547l.068-15.184a1.765 1.765 0 0 0-.915-1.554l-8.775-4.818a1.762 1.762 0 0 0-.849-.219" transform="translate(-1.723 -.452)" style="fill:#754c24"/>
                    <path data-name="패스 1239" d="m23.476 10.417 1.25 2.534a1.48 1.48 0 0 0 1.114.809l2.8.406a1.48 1.48 0 0 1 .82 2.524l-2.023 1.972a1.48 1.48 0 0 0-.426 1.31l.478 2.785a1.48 1.48 0 0 1-2.147 1.559L22.839 23a1.478 1.478 0 0 0-1.377 0l-2.5 1.315a1.479 1.479 0 0 1-2.147-1.559l.478-2.785a1.48 1.48 0 0 0-.425-1.31l-2.025-1.971a1.48 1.48 0 0 1 .82-2.524l2.8-.406a1.481 1.481 0 0 0 1.115-.809l1.25-2.534a1.479 1.479 0 0 1 2.653 0" transform="translate(-2.249 -1.499)" style="fill:#fafcfc"/>
                </g>
            </g>
            <g data-name="그룹 1432">
                <g data-name="그룹 1431" style="clip-path:url(#lqrpwv7xzc)" transform="translate(99.788 17.515)">
                    <path data-name="패스 1240" d="M22.379 7.933V16.3l-6.053-6.8s1.441-2.018 2.595-2.306 3.459.742 3.459.742" transform="translate(-14.696 -9.209)" style="fill:#8c6239"/>
                    <path data-name="패스 1241" d="m15.78 11.025 5.914 5.913-9.088-.527s-.408-2.446.2-3.465 2.971-1.921 2.971-1.921" transform="translate(-14.094 -9.816)" style="fill:#efcd89"/>
                    <path data-name="패스 1242" d="M13.3 18.133h8.363l-6.8 6.053s-2.018-1.441-2.306-2.595.742-3.459.742-3.459" transform="translate(-14.1 -10.926)" style="fill:#8c6239"/>
                    <path data-name="패스 1243" d="m16.392 24.146 5.914-5.914-.527 9.088s-2.446.408-3.465-.2-1.921-2.971-1.921-2.971" transform="translate(-14.706 -10.942)" style="fill:#b38d63"/>
                    <path data-name="패스 1244" d="M23.5 26.636v-8.363l6.053 6.8s-1.441 2.018-2.595 2.306-3.459-.742-3.459-.742" transform="translate(-15.817 -10.948)" style="fill:#8c6239"/>
                    <path data-name="패스 1245" d="M29.513 24.146 23.6 18.232l9.087.527s.408 2.446-.2 3.465-2.971 1.921-2.971 1.921" transform="translate(-15.833 -10.942)" style="fill:#c69c6d"/>
                    <path data-name="패스 1246" d="M32 17.012h-8.36l6.8-6.053s2.018 1.441 2.306 2.595S32 17.012 32 17.012" transform="translate(-15.839 -9.806)" style="fill:#efcd89"/>
                    <path data-name="패스 1247" d="M29.513 10.413 23.6 16.326l.527-9.087s2.446-.408 3.465.2 1.921 2.971 1.921 2.971" transform="translate(-15.833 -9.203)" style="fill:#c69c6d"/>
                </g>
            </g>
            <g data-name="그룹 1434">
                <g data-name="그룹 1433" style="clip-path:url(#5xk20cunnb)" transform="translate(87.643 9.422)">
                    <path data-name="패스 1249" d="m23.476 10.417 1.25 2.534a1.48 1.48 0 0 0 1.114.809l2.8.406a1.48 1.48 0 0 1 .82 2.524l-2.023 1.972a1.48 1.48 0 0 0-.426 1.31l.478 2.785a1.48 1.48 0 0 1-2.147 1.559L22.839 23a1.478 1.478 0 0 0-1.377 0l-2.5 1.315a1.479 1.479 0 0 1-2.147-1.559l.478-2.785a1.48 1.48 0 0 0-.425-1.31l-2.025-1.971a1.48 1.48 0 0 1 .82-2.524l2.8-.406a1.481 1.481 0 0 0 1.115-.809l1.25-2.534a1.479 1.479 0 0 1 2.648 0z" transform="translate(-2.249 -1.499)" style="stroke:#754c24;stroke-miterlimit:10;stroke-width:.75px;fill:none"/>
                </g>
            </g>
        </g>
    </g>
</svg>
