<svg data-name="거래등급 골드" xmlns="http://www.w3.org/2000/svg" width="33.14" height="27.788" viewBox="0 0 33.14 27.788">
    <defs>
        <clipPath id="mj6flfg3oa">
            <path data-name="사각형 767" style="fill:none" d="M0 0h33.14v27.788H0z"/>
        </clipPath>
        <clipPath id="tv8e9db5eb">
            <path data-name="패스 1384" d="m16.12 8-1.02 2.074a1.211 1.211 0 0 1-.91.662l-2.287.332a1.209 1.209 0 0 0-.671 2.063l1.654 1.613a1.212 1.212 0 0 1 .348 1.071l-.392 2.276a1.21 1.21 0 0 0 1.758 1.275l2.045-1.075a1.209 1.209 0 0 1 1.126 0l2.045 1.075a1.21 1.21 0 0 0 1.754-1.276l-.391-2.276a1.212 1.212 0 0 1 .348-1.071l1.654-1.613a1.209 1.209 0 0 0-.67-2.063l-2.287-.332a1.211 1.211 0 0 1-.91-.662L18.289 8a1.21 1.21 0 0 0-2.169 0" transform="translate(-10.864 -7.328)" style="fill:none"/>
        </clipPath>
    </defs>
    <g data-name="그룹 691">
        <g data-name="그룹 690" style="clip-path:url(#mj6flfg3oa)">
            <path data-name="패스 1351" d="M22.357 14.948a.467.467 0 0 1-.253-.074.473.473 0 0 1-.219-.4v-3.259a.472.472 0 0 1 .271-.426l10.622-5a.786.786 0 0 1 .339-.076.8.8 0 0 1 .8.8v.842A3.488 3.488 0 0 1 31.92 10.5l-9.363 4.4a.469.469 0 0 1-.2.045" transform="translate(-1.246 -.325)" style="fill:#ffefae"/>
            <path data-name="패스 1352" d="M33.088 6.157a.326.326 0 0 1 .325.326v.842a3 3 0 0 1-1.723 2.716l-9.363 4.406v-3.26l10.622-5a.319.319 0 0 1 .139-.031m0-.943a1.25 1.25 0 0 0-.54.122l-10.621 5a.944.944 0 0 0-.542.853v3.261a.944.944 0 0 0 1.345.853l9.362-4.402a3.96 3.96 0 0 0 2.264-3.57v-.847a1.27 1.27 0 0 0-1.268-1.269" transform="translate(-1.217 -.297)" style="fill:#82692f"/>
            <path data-name="패스 1353" d="M22.385 12.841v1.731l9.363-4.406a3 3 0 0 0 1.723-2.716V7.4z" transform="translate(-1.274 -.421)" style="fill:#ddc37a"/>
            <path data-name="패스 1354" d="M22.357 18.722a.467.467 0 0 1-.253-.074.473.473 0 0 1-.219-.4V14.99a.472.472 0 0 1 .271-.426l10.622-5a.786.786 0 0 1 .339-.076.8.8 0 0 1 .8.8v.842a3.488 3.488 0 0 1-1.997 3.14l-9.363 4.406a.469.469 0 0 1-.2.045" transform="translate(-1.246 -.54)" style="fill:#ffefae"/>
            <path data-name="패스 1355" d="M33.088 9.931a.326.326 0 0 1 .325.326v.843a3 3 0 0 1-1.723 2.716l-9.363 4.406v-3.261l10.622-5a.319.319 0 0 1 .139-.031m0-.943a1.25 1.25 0 0 0-.54.122l-10.621 5a.944.944 0 0 0-.542.853v3.261a.944.944 0 0 0 1.345.853l9.363-4.406a3.96 3.96 0 0 0 2.264-3.57v-.842a1.27 1.27 0 0 0-1.268-1.269" transform="translate(-1.217 -.511)" style="fill:#82692f"/>
            <path data-name="패스 1356" d="M22.385 16.615v1.731l9.363-4.406a3 3 0 0 0 1.723-2.716v-.054z" transform="translate(-1.274 -.636)" style="fill:#ddc37a"/>
            <path data-name="패스 1357" d="M22.357 22.495a.467.467 0 0 1-.253-.074.473.473 0 0 1-.219-.4v-3.26a.472.472 0 0 1 .271-.426l10.622-5a.787.787 0 0 1 .34-.076.8.8 0 0 1 .8.8v.841a3.486 3.486 0 0 1-1.994 3.142l-9.367 4.408a.469.469 0 0 1-.2.045" transform="translate(-1.246 -.755)" style="fill:#ffefae"/>
            <path data-name="패스 1358" d="M33.088 13.705a.326.326 0 0 1 .325.326v.842a3 3 0 0 1-1.723 2.717L22.327 22v-3.265l10.622-5a.319.319 0 0 1 .139-.031m0-.943a1.263 1.263 0 0 0-.54.121l-10.621 5a.944.944 0 0 0-.542.853V22a.944.944 0 0 0 1.345.853l9.363-4.406a3.96 3.96 0 0 0 2.264-3.57v-.842a1.27 1.27 0 0 0-1.268-1.269" transform="translate(-1.217 -.726)" style="fill:#82692f"/>
            <path data-name="패스 1359" d="M22.385 20.389v1.731l9.363-4.406A3 3 0 0 0 33.471 15v-.054z" transform="translate(-1.274 -.85)" style="fill:#ddc37a"/>
            <path data-name="패스 1360" d="M12.058 14.948a.469.469 0 0 1-.2-.045L2.495 10.5A3.486 3.486 0 0 1 .5 7.354v-.842a.8.8 0 0 1 .8-.8.783.783 0 0 1 .339.076l10.622 5a.472.472 0 0 1 .271.426v3.261a.473.473 0 0 1-.219.4.467.467 0 0 1-.253.074" transform="translate(-.028 -.325)" style="fill:#ffefae"/>
            <path data-name="패스 1361" d="M1.268 6.157a.319.319 0 0 1 .139.031l10.622 5v3.261l-9.363-4.407A3 3 0 0 1 .943 7.326v-.843a.326.326 0 0 1 .325-.326m0-.943A1.271 1.271 0 0 0 0 6.483v.842A3.96 3.96 0 0 0 2.264 10.9l9.364 4.4a.951.951 0 0 0 .4.09.945.945 0 0 0 .943-.943v-3.26a.944.944 0 0 0-.541-.853l-10.622-5a1.263 1.263 0 0 0-.54-.121" transform="translate(0 -.297)" style="fill:#82692f"/>
            <path data-name="패스 1362" d="M12.086 12.841v1.731l-9.363-4.406A3 3 0 0 1 1 7.45V7.4z" transform="translate(-.057 -.421)" style="fill:#ddc37a"/>
            <path data-name="패스 1363" d="M12.058 18.722a.469.469 0 0 1-.2-.045L2.495 14.27A3.486 3.486 0 0 1 .5 11.128v-.842a.8.8 0 0 1 .8-.8.783.783 0 0 1 .339.076l10.622 5a.472.472 0 0 1 .271.426v3.26a.473.473 0 0 1-.219.4.467.467 0 0 1-.253.074" transform="translate(-.028 -.54)" style="fill:#ffefae"/>
            <path data-name="패스 1364" d="M1.268 9.931a.319.319 0 0 1 .139.031l10.622 5v3.261l-9.363-4.407A3 3 0 0 1 .943 11.1v-.842a.326.326 0 0 1 .325-.326m0-.943A1.271 1.271 0 0 0 0 10.257v.843a3.96 3.96 0 0 0 2.264 3.57l9.364 4.406a.951.951 0 0 0 .4.09.945.945 0 0 0 .943-.943v-3.262a.944.944 0 0 0-.541-.853l-10.622-5a1.263 1.263 0 0 0-.54-.121" transform="translate(0 -.511)" style="fill:#82692f"/>
            <path data-name="패스 1365" d="M12.086 16.615v1.731L2.723 13.94A3 3 0 0 1 1 11.224v-.054z" transform="translate(-.057 -.636)" style="fill:#ddc37a"/>
            <path data-name="패스 1366" d="M12.058 22.495a.469.469 0 0 1-.2-.045l-9.363-4.407A3.484 3.484 0 0 1 .5 14.9v-.84a.8.8 0 0 1 .8-.8.788.788 0 0 1 .34.076l10.621 5a.472.472 0 0 1 .271.426v3.26a.473.473 0 0 1-.219.4.467.467 0 0 1-.253.074" transform="translate(-.028 -.755)" style="fill:#ffefae"/>
            <path data-name="패스 1367" d="M1.268 13.705a.319.319 0 0 1 .139.031l10.622 5V22l-9.363-4.41a3 3 0 0 1-1.723-2.716v-.842a.326.326 0 0 1 .325-.326m0-.943A1.271 1.271 0 0 0 0 14.031v.842a3.96 3.96 0 0 0 2.264 3.57l9.364 4.406a.951.951 0 0 0 .4.09.945.945 0 0 0 .944-.939v-3.265a.944.944 0 0 0-.541-.853l-10.622-5a1.263 1.263 0 0 0-.54-.121" transform="translate(0 -.726)" style="fill:#82692f"/>
            <path data-name="패스 1368" d="M12.086 20.389v1.731l-9.363-4.406A3 3 0 0 1 1 15v-.054z" transform="translate(-.057 -.85)" style="fill:#ddc37a"/>
            <path data-name="패스 1369" d="M16.953 27.344a3.239 3.239 0 0 1-1.558-.4l-7.221-3.968a3.233 3.233 0 0 1-1.68-2.851l.057-12.5a3.232 3.232 0 0 1 1.706-2.837l7.277-3.9A3.222 3.222 0 0 1 18.622.9l7.222 3.967a3.234 3.234 0 0 1 1.679 2.852l-.057 12.5a3.232 3.232 0 0 1-1.706 2.838l-7.277 3.9a3.242 3.242 0 0 1-1.531.386M17.064 3.1a.631.631 0 0 0-.3.075l-7.277 3.9a.632.632 0 0 0-.335.555L9.1 20.137a.631.631 0 0 0 .327.557l7.222 3.967a.631.631 0 0 0 .6 0l7.277-3.9a.635.635 0 0 0 .335-.555l.056-12.5a.634.634 0 0 0-.329-.558l-7.219-3.965a.629.629 0 0 0-.3-.078" transform="translate(-.37 -.028)" style="fill:#ddc37a"/>
            <path data-name="패스 1370" d="M17.036.943a2.754 2.754 0 0 1 1.331.343l7.222 3.967a2.761 2.761 0 0 1 1.434 2.436l-.057 12.5a2.761 2.761 0 0 1-1.458 2.425l-7.277 3.9a2.752 2.752 0 0 1-2.638-.013l-7.221-3.965A2.766 2.766 0 0 1 6.937 20.1l.056-12.5a2.764 2.764 0 0 1 1.459-2.424l7.277-3.9a2.761 2.761 0 0 1 1.307-.33m-.111 24.24a1.108 1.108 0 0 0 .522-.132l7.277-3.9a1.1 1.1 0 0 0 .582-.968l.057-12.5a1.105 1.105 0 0 0-.572-.973l-7.223-3.971a1.1 1.1 0 0 0-1.054 0l-7.277 3.9a1.1 1.1 0 0 0-.582.969L8.6 20.107a1.105 1.105 0 0 0 .573.973l7.221 3.967a1.1 1.1 0 0 0 .532.137M17.036 0a3.715 3.715 0 0 0-1.753.442l-7.277 3.9A3.7 3.7 0 0 0 6.05 7.6l-.056 12.5a3.706 3.706 0 0 0 1.924 3.267l7.221 3.967a3.7 3.7 0 0 0 3.538.018l7.277-3.9a3.7 3.7 0 0 0 1.955-3.252l.057-12.5a3.707 3.707 0 0 0-1.923-3.267L18.821.459A3.726 3.726 0 0 0 17.036 0m-.111 24.24a.154.154 0 0 1-.077-.021l-7.223-3.966a.162.162 0 0 1-.084-.142L9.6 7.612a.159.159 0 0 1 .085-.141l7.277-3.9a.159.159 0 0 1 .076-.02.154.154 0 0 1 .077.021l7.222 3.967a.162.162 0 0 1 .084.142l-.057 12.5a.161.161 0 0 1-.085.141L17 24.22a.159.159 0 0 1-.076.02" transform="translate(-.341)" style="fill:#82692f"/>
            <path data-name="패스 1371" d="M8.755 20.264a1.1 1.1 0 0 0 .572.973L16.55 25.2a1.1 1.1 0 0 0 1.054 0l7.276-3.9a1.1 1.1 0 0 0 .583-.969l.057-12.5a1.106 1.106 0 0 0-.573-.973L17.724 2.9a1.1 1.1 0 0 0-1.053 0L9.393 6.8a1.1 1.1 0 0 0-.583.969z" transform="translate(-.498 -.157)" style="fill:#ffefae"/>
            <path data-name="패스 1372" d="M9.393 7.04a1.1 1.1 0 0 0-.583.969l-.056 12.5a1.1 1.1 0 0 0 .572.973l7.222 3.967a1.62 1.62 0 0 0 .638.137V14.9z" transform="translate(-.498 -.4)" style="fill:#b28846"/>
            <path data-name="패스 1373" d="M17.7 14.9v10.683a1.6 1.6 0 0 0 .637-.137l7.222-3.967a1.1 1.1 0 0 0 .572-.973l-.056-12.5a1.1 1.1 0 0 0-.582-.969z" transform="translate(-1.007 -.4)" style="fill:#ddc37a"/>
            <path data-name="패스 1374" d="M17.164 2.734a1.1 1.1 0 0 1 .532.137l7.222 3.967a1.105 1.105 0 0 1 .572.973l-.057 12.5a1.1 1.1 0 0 1-.582.968l-7.277 3.9a1.1 1.1 0 0 1-1.054 0l-7.22-3.97a1.105 1.105 0 0 1-.573-.973l.057-12.5a1.1 1.1 0 0 1 .582-.969l7.277-3.9a1.108 1.108 0 0 1 .522-.132m0-.472a1.585 1.585 0 0 0-.745.188l-7.277 3.9a1.573 1.573 0 0 0-.831 1.383l-.057 12.5a1.577 1.577 0 0 0 .818 1.388l7.222 3.967a1.571 1.571 0 0 0 1.5.008l7.277-3.9a1.573 1.573 0 0 0 .831-1.382l.057-12.5a1.575 1.575 0 0 0-.818-1.389l-7.218-3.969a1.587 1.587 0 0 0-.759-.2" transform="translate(-.47 -.129)" style="fill:#b28846"/>
            <path data-name="패스 1375" d="m18.34 8.006 1.029 2.085a1.217 1.217 0 0 0 .918.667l2.3.334a1.218 1.218 0 0 1 .675 2.078L21.6 14.792a1.219 1.219 0 0 0-.351 1.078l.393 2.293a1.218 1.218 0 0 1-1.766 1.284l-2.059-1.083a1.217 1.217 0 0 0-1.134 0l-2.059 1.083a1.218 1.218 0 0 1-1.766-1.284l.393-2.293a1.218 1.218 0 0 0-.35-1.078l-1.665-1.623a1.218 1.218 0 0 1 .674-2.078l2.3-.334a1.217 1.217 0 0 0 .917-.667l1.029-2.085a1.218 1.218 0 0 1 2.184 0" transform="translate(-.618 -.417)" style="fill:#fafcfc"/>
        </g>
    </g>
    <g data-name="그룹 693">
        <g data-name="그룹 692" transform="translate(10.287 6.973)" style="clip-path:url(#tv8e9db5eb)">
            <path data-name="패스 1376" d="M17.236 6.17v6.837l-4.949-5.558s1.178-1.65 2.121-1.886a6.276 6.276 0 0 1 2.828.607" transform="translate(-10.954 -7.214)" style="fill:#b28846"/>
            <path data-name="패스 1377" d="m12.152 8.383 4.834 4.834-7.43-.431a5.756 5.756 0 0 1 .167-2.833 6.266 6.266 0 0 1 2.429-1.571" transform="translate(-10.774 -7.395)" style="fill:#ffefae"/>
            <path data-name="패스 1378" d="M10.123 13.617h6.837l-5.56 4.949s-1.65-1.178-1.886-2.121a6.276 6.276 0 0 1 .607-2.828" transform="translate(-10.776 -7.726)" style="fill:#82692f"/>
            <path data-name="패스 1379" d="m12.335 18.525 4.834-4.834-.431 7.43a5.755 5.755 0 0 1-2.833-.167 6.266 6.266 0 0 1-1.571-2.429" transform="translate(-10.957 -7.731)" style="fill:#ddc37a"/>
            <path data-name="패스 1380" d="M17.57 20.558v-6.837l4.949 5.559s-1.178 1.65-2.121 1.886a6.276 6.276 0 0 1-2.828-.607" transform="translate(-11.288 -7.733)" style="fill:#82692f"/>
            <path data-name="패스 1381" d="m22.478 18.525-4.834-4.834 7.43.431a5.756 5.756 0 0 1-.167 2.833 6.266 6.266 0 0 1-2.429 1.571" transform="translate(-11.293 -7.731)" style="fill:#ddc37a"/>
            <path data-name="패스 1382" d="M24.511 13.283h-6.837l5.559-4.949s1.65 1.178 1.886 2.121a6.276 6.276 0 0 1-.607 2.828" transform="translate(-11.295 -7.392)" style="fill:#ffefae"/>
            <path data-name="패스 1383" d="m22.478 8.2-4.834 4.834.431-7.43a5.756 5.756 0 0 1 2.833.167 6.266 6.266 0 0 1 1.57 2.429" transform="translate(-11.293 -7.212)" style="fill:#ddc37a"/>
        </g>
    </g>
    <g data-name="그룹 695">
        <g data-name="그룹 694" style="clip-path:url(#mj6flfg3oa)">
            <path data-name="패스 1385" d="m18.34 8.006 1.029 2.085a1.217 1.217 0 0 0 .918.667l2.3.334a1.218 1.218 0 0 1 .675 2.078L21.6 14.792a1.219 1.219 0 0 0-.351 1.078l.393 2.293a1.218 1.218 0 0 1-1.766 1.284l-2.059-1.083a1.217 1.217 0 0 0-1.134 0l-2.059 1.083a1.218 1.218 0 0 1-1.766-1.284l.393-2.293a1.218 1.218 0 0 0-.35-1.078l-1.665-1.623a1.218 1.218 0 0 1 .674-2.078l2.3-.334a1.217 1.217 0 0 0 .917-.667l1.029-2.085a1.218 1.218 0 0 1 2.184.001z" transform="translate(-.618 -.417)" style="stroke:#82692f;stroke-miterlimit:10;stroke-width:.75px;fill:none"/>
        </g>
    </g>
</svg>
