<svg xmlns="http://www.w3.org/2000/svg" width="143" height="52" viewBox="0 0 143 52">
    <defs>
        <clipPath id="zfuur1d1pb">
            <path data-name="사각형 1203" style="fill:none" d="M0 0h40.386v33.764H0z"/>
        </clipPath>
        <clipPath id="90ympc2nac">
            <path data-name="패스 1284" d="m20.941 10.432-1.273 2.58a1.5 1.5 0 0 1-1.134.823l-2.847.414a1.507 1.507 0 0 0-.835 2.57l2.06 2.008a1.51 1.51 0 0 1 .434 1.334L16.858 23a1.505 1.505 0 0 0 2.185 1.587l2.547-1.339a1.511 1.511 0 0 1 1.4 0l2.546 1.339A1.506 1.506 0 0 0 27.726 23l-.486-2.836a1.5 1.5 0 0 1 .434-1.334l2.06-2.008a1.507 1.507 0 0 0-.835-2.57l-2.848-.414a1.5 1.5 0 0 1-1.133-.823l-1.273-2.58a1.506 1.506 0 0 0-2.7 0" transform="translate(-14.394 -9.592)" style="fill:none"/>
        </clipPath>
        <linearGradient id="r42iaviyza" x1="1.158" x2=".024" y2=".898" gradientUnits="objectBoundingBox">
            <stop offset="0" stop-color="#ebf1f2"/>
            <stop offset=".23" stop-color="#fafcfc"/>
            <stop offset=".49" stop-color="#ced6d8"/>
            <stop offset=".778" stop-color="#fafcfc"/>
            <stop offset="1" stop-color="#ced6d8"/>
        </linearGradient>
    </defs>
    <g data-name="거래등급 실버띠포함">
        <g data-name="그룹 1565">
            <path data-name="패스 1195" d="M20 0h102a20 20 0 0 1 20 20v11a20 20 0 0 1-20 20H20A20 20 0 0 1 0 31V20A20 20 0 0 1 20 0" style="fill:url(#r42iaviyza);stroke:#7e8c8e" transform="translate(.5 .5)"/>
        </g>
        <g data-name="그룹 1566" style="opacity:.35;mix-blend-mode:overlay;isolation:isolate">
            <path data-name="패스 1195" d="M18.592 0h94.817C123.677 0 132 7.374 132 16.471v9.059c0 9.096-8.323 16.47-18.592 16.47H18.592C8.323 42 0 34.626 0 25.529v-9.058C0 7.374 8.323 0 18.592 0" transform="translate(5.5 5)" style="fill:#fff"/>
        </g>
        <g data-name="그룹 1567" style="opacity:.75">
            <path data-name="패스 1195" d="M18.592 0h94.817C123.677 0 132 7.374 132 16.471v9.059c0 9.096-8.323 16.47-18.592 16.47H18.592C8.323 42 0 34.626 0 25.529v-9.058C0 7.374 8.323 0 18.592 0" transform="translate(5.5 5)" style="stroke:#a7b5b7;fill:none"/>
        </g>
        <text transform="translate(30.357 33.5)" style="font-size:20px;font-family:Pretendard-Bold,Pretendard;font-weight:700;fill:#7e8c8e"><tspan x="0" y="0">실버</tspan></text>
        <g data-name="그룹 1568">
            <g data-name="그룹 1438">
                <g data-name="그룹 1437" style="clip-path:url(#zfuur1d1pb)" transform="translate(86.914 9.5)">
                    <path data-name="패스 1251" d="M29.968 18.7a.425.425 0 0 1-.23-.067.431.431 0 0 1-.2-.363v-4.037a.429.429 0 0 1 .247-.388l13.14-6.185a.832.832 0 0 1 1.188.754v1.042a4.159 4.159 0 0 1-2.379 3.744l-11.583 5.455a.428.428 0 0 1-.183.041" transform="translate(-4.157 -1.067)" style="fill:#fafcfc"/>
                    <path data-name="패스 1252" d="M43.21 7.939a.4.4 0 0 1 .4.4v1.046a3.714 3.714 0 0 1-2.133 3.361L29.9 18.2v-4.038l13.138-6.184a.4.4 0 0 1 .172-.039m0-.859a1.251 1.251 0 0 0-.537.12l-13.142 6.184a.86.86 0 0 0-.493.778V18.2a.86.86 0 0 0 1.225.778l11.583-5.451a4.592 4.592 0 0 0 2.626-4.138V8.343A1.264 1.264 0 0 0 43.21 7.08" transform="translate(-4.086 -.996)" style="fill:#7e8c8e"/>
                    <path data-name="패스 1253" d="M30.038 16.422v2.141l11.583-5.451a3.714 3.714 0 0 0 2.133-3.361v-.067z" transform="translate(-4.227 -1.363)" style="fill:#ced6d8"/>
                    <path data-name="패스 1254" d="M29.968 23.82a.425.425 0 0 1-.23-.067.431.431 0 0 1-.2-.363v-4.033a.429.429 0 0 1 .247-.388l13.141-6.185a.832.832 0 0 1 1.188.754v1.042a4.159 4.159 0 0 1-2.379 3.748l-11.584 5.451a.428.428 0 0 1-.183.041" transform="translate(-4.157 -1.788)" style="fill:#fafcfc"/>
                    <path data-name="패스 1255" d="M43.21 13.064a.4.4 0 0 1 .4.4v1.046a3.714 3.714 0 0 1-2.13 3.36L29.9 23.321v-4.034L43.038 13.1a.4.4 0 0 1 .172-.039m0-.859a1.257 1.257 0 0 0-.538.12l-13.141 6.187a.86.86 0 0 0-.493.778v4.034a.86.86 0 0 0 1.225.778l11.583-5.451a4.592 4.592 0 0 0 2.626-4.138v-1.042A1.264 1.264 0 0 0 43.21 12.2" transform="translate(-4.086 -1.718)" style="fill:#7e8c8e"/>
                    <path data-name="패스 1256" d="M30.038 21.547v2.141l11.583-5.451a3.714 3.714 0 0 0 2.133-3.361v-.067z" transform="translate(-4.227 -2.084)" style="fill:#ced6d8"/>
                    <path data-name="패스 1257" d="M29.968 28.945a.425.425 0 0 1-.23-.067.431.431 0 0 1-.2-.363v-4.034a.429.429 0 0 1 .247-.388l13.141-6.184a.832.832 0 0 1 1.188.753V19.7a4.16 4.16 0 0 1-2.379 3.749L30.151 28.9a.428.428 0 0 1-.183.041" transform="translate(-4.157 -2.509)" style="fill:#fafcfc"/>
                    <path data-name="패스 1258" d="M43.21 18.188a.4.4 0 0 1 .4.4v1.041a3.714 3.714 0 0 1-2.133 3.361L29.9 28.445v-4.034l13.141-6.184a.4.4 0 0 1 .172-.039m0-.859a1.257 1.257 0 0 0-.538.12l-13.144 6.184a.86.86 0 0 0-.493.778v4.034a.86.86 0 0 0 .859.859.867.867 0 0 0 .366-.082l11.583-5.451a4.592 4.592 0 0 0 2.626-4.138v-1.041a1.264 1.264 0 0 0-1.262-1.263" transform="translate(-4.086 -2.439)" style="fill:#7e8c8e"/>
                    <path data-name="패스 1259" d="M30.038 26.671v2.141l11.583-5.451A3.714 3.714 0 0 0 43.754 20v-.067z" transform="translate(-4.227 -2.805)" style="fill:#ced6d8"/>
                    <path data-name="패스 1260" d="M14.645 18.7a.428.428 0 0 1-.183-.041L2.88 13.2A4.159 4.159 0 0 1 .5 9.456V8.413a.832.832 0 0 1 1.188-.753l13.141 6.185a.429.429 0 0 1 .247.388v4.033a.431.431 0 0 1-.2.363.425.425 0 0 1-.23.067" transform="translate(-.07 -1.067)" style="fill:#fafcfc"/>
                    <path data-name="패스 1261" d="M1.262 7.939a.4.4 0 0 1 .172.039l13.141 6.184V18.2L2.992 12.745a3.714 3.714 0 0 1-2.133-3.36V8.343a.4.4 0 0 1 .4-.4m0-.859A1.264 1.264 0 0 0 0 8.343v1.042a4.592 4.592 0 0 0 2.626 4.138l11.583 5.451a.86.86 0 0 0 .827-.052.859.859 0 0 0 .4-.725v-4.035a.86.86 0 0 0-.493-.778L1.8 7.2a1.253 1.253 0 0 0-.537-.12" transform="translate(0 -.996)" style="fill:#7e8c8e"/>
                    <path data-name="패스 1262" d="M14.716 16.422v2.141L3.133 13.112A3.714 3.714 0 0 1 1 9.751v-.067z" transform="translate(-.141 -1.363)" style="fill:#ced6d8"/>
                    <path data-name="패스 1263" d="M14.645 23.82a.428.428 0 0 1-.183-.041L2.88 18.328A4.159 4.159 0 0 1 .5 14.58v-1.043a.833.833 0 0 1 1.187-.754l13.142 6.186a.429.429 0 0 1 .247.388v4.033a.431.431 0 0 1-.2.363.425.425 0 0 1-.23.067" transform="translate(-.07 -1.788)" style="fill:#fafcfc"/>
                    <path data-name="패스 1264" d="M1.262 13.064a.4.4 0 0 1 .172.039l13.141 6.184v4.034L2.992 17.87a3.714 3.714 0 0 1-2.133-3.36v-1.042a.4.4 0 0 1 .4-.4m0-.859A1.264 1.264 0 0 0 0 13.468v1.042a4.592 4.592 0 0 0 2.626 4.138L14.209 24.1a.86.86 0 0 0 1.225-.778v-4.035a.86.86 0 0 0-.493-.778L1.8 12.325a1.251 1.251 0 0 0-.537-.12" transform="translate(0 -1.718)" style="fill:#7e8c8e"/>
                    <path data-name="패스 1265" d="M14.716 21.547v2.141L3.133 18.237A3.714 3.714 0 0 1 1 14.876v-.067z" transform="translate(-.141 -2.084)" style="fill:#ced6d8"/>
                    <path data-name="패스 1266" d="M14.645 28.945a.428.428 0 0 1-.183-.041L2.88 23.453A4.159 4.159 0 0 1 .5 19.7v-1.038a.832.832 0 0 1 1.188-.753l13.141 6.184a.429.429 0 0 1 .247.388v4.034a.431.431 0 0 1-.2.363.425.425 0 0 1-.23.067" transform="translate(-.07 -2.509)" style="fill:#fafcfc"/>
                    <path data-name="패스 1267" d="M1.262 18.188a.4.4 0 0 1 .172.039l13.141 6.184v4.034L2.992 22.994a3.714 3.714 0 0 1-2.133-3.36v-1.042a.4.4 0 0 1 .4-.4m0-.859A1.264 1.264 0 0 0 0 18.592v1.041a4.592 4.592 0 0 0 2.626 4.138l11.583 5.451a.86.86 0 0 0 .827-.052.859.859 0 0 0 .4-.725v-4.034a.86.86 0 0 0-.493-.778L1.8 17.449a1.251 1.251 0 0 0-.537-.12" transform="translate(0 -2.439)" style="fill:#7e8c8e"/>
                    <path data-name="패스 1268" d="M14.716 26.671v2.141L3.133 23.361A3.714 3.714 0 0 1 1 20v-.067z" transform="translate(-.141 -2.805)" style="fill:#ced6d8"/>
                    <path data-name="패스 1269" d="M21.425 33.4a3.861 3.861 0 0 1-1.853-.476l-8.935-4.907a3.849 3.849 0 0 1-2-3.393l.071-15.46a3.846 3.846 0 0 1 2.031-3.376l9-4.828a3.838 3.838 0 0 1 3.674.017l8.935 4.907a3.847 3.847 0 0 1 2 3.392l-.07 15.463a3.847 3.847 0 0 1-2.03 3.378l-9 4.827a3.853 3.853 0 0 1-1.821.459m.137-29.989a.949.949 0 0 0-.443.113l-9 4.828a.935.935 0 0 0-.494.821l-.073 15.464a.936.936 0 0 0 .485.827l8.934 4.906a.939.939 0 0 0 .451.117.943.943 0 0 0 .443-.113l9-4.827a.934.934 0 0 0 .494-.821l.07-15.463a.936.936 0 0 0-.485-.826l-8.933-4.908a.933.933 0 0 0-.45-.117" transform="translate(-1.216 -.07)" style="fill:#ebf1f2"/>
                    <path data-name="패스 1270" d="M21.492.859a3.418 3.418 0 0 1 1.647.424l8.935 4.907a3.419 3.419 0 0 1 1.774 3.01l-.07 15.463a3.417 3.417 0 0 1-1.8 3l-9 4.828a3.408 3.408 0 0 1-3.264-.016l-8.936-4.907A3.42 3.42 0 0 1 9 24.559L9.068 9.1a3.418 3.418 0 0 1 1.8-3l9-4.828a3.422 3.422 0 0 1 1.624-.413m-.137 29.989a1.361 1.361 0 0 0 .645-.163l9-4.828a1.365 1.365 0 0 0 .721-1.2L31.794 9.2a1.366 1.366 0 0 0-.709-1.2L22.15 3.084a1.362 1.362 0 0 0-1.3-.006l-9 4.828a1.364 1.364 0 0 0-.721 1.2L11.06 24.57a1.365 1.365 0 0 0 .708 1.2l8.932 4.909a1.367 1.367 0 0 0 .657.169M21.492 0a4.3 4.3 0 0 0-2.024.51l-9 4.828a4.276 4.276 0 0 0-2.259 3.753l-.07 15.463a4.277 4.277 0 0 0 2.22 3.771l8.935 4.907a4.265 4.265 0 0 0 4.084.021l9-4.828a4.275 4.275 0 0 0 2.257-3.753l.07-15.463a4.277 4.277 0 0 0-2.22-3.771L23.553.53A4.289 4.289 0 0 0 21.492 0m-.137 29.989a.5.5 0 0 1-.244-.064l-8.935-4.907a.506.506 0 0 1-.263-.447l.069-15.464a.507.507 0 0 1 .267-.444l9-4.828a.5.5 0 0 1 .24-.061.512.512 0 0 1 .244.064l8.936 4.907a.509.509 0 0 1 .263.448l-.07 15.463a.505.505 0 0 1-.268.444l-9 4.828a.518.518 0 0 1-.241.061" transform="translate(-1.145)" style="fill:#7e8c8e"/>
                    <path data-name="패스 1271" d="M11.531 25.046a1.367 1.367 0 0 0 .709 1.2l8.935 4.907a1.361 1.361 0 0 0 1.3.007l9-4.828a1.365 1.365 0 0 0 .721-1.2l.07-15.464a1.366 1.366 0 0 0-.709-1.2l-8.929-4.906a1.362 1.362 0 0 0-1.3-.007l-9 4.828a1.366 1.366 0 0 0-.721 1.2z" transform="translate(-1.623 -.477)" style="fill:#fafcfc"/>
                    <path data-name="패스 1272" d="M12.321 9.2a1.365 1.365 0 0 0-.721 1.2l-.069 15.464a1.368 1.368 0 0 0 .709 1.2l8.935 4.907a2 2 0 0 0 .788.169V18.931z" transform="translate(-1.623 -1.295)" style="fill:#a7b5b7"/>
                    <path data-name="패스 1273" d="M23.671 18.931v13.213a2 2 0 0 0 .788-.169l8.935-4.907a1.368 1.368 0 0 0 .709-1.2L34.034 10.4a1.365 1.365 0 0 0-.721-1.2z" transform="translate(-3.331 -1.295)" style="fill:#ced6d8"/>
                    <path data-name="패스 1274" d="M21.9 3.322a1.364 1.364 0 0 1 .658.17L31.492 8.4a1.368 1.368 0 0 1 .708 1.2l-.07 15.463a1.365 1.365 0 0 1-.721 1.2l-9 4.828a1.362 1.362 0 0 1-1.3-.006l-8.935-4.907a1.365 1.365 0 0 1-.708-1.2l.069-15.464a1.364 1.364 0 0 1 .721-1.2l9-4.827a1.362 1.362 0 0 1 .646-.164m0-.43a1.809 1.809 0 0 0-.849.214l-9 4.828a1.793 1.793 0 0 0-.953 1.574l-.069 15.463a1.8 1.8 0 0 0 .931 1.583l8.938 4.908a1.791 1.791 0 0 0 1.713.009l9-4.828a1.794 1.794 0 0 0 .948-1.575L32.63 9.6a1.8 1.8 0 0 0-.93-1.578l-8.937-4.907a1.794 1.794 0 0 0-.864-.223" transform="translate(-1.552 -.407)" style="fill:#a7b5b7"/>
                    <path data-name="패스 1275" d="m23.643 10.432 1.273 2.58a1.507 1.507 0 0 0 1.134.824l2.848.413a1.507 1.507 0 0 1 .835 2.57l-2.061 2.008a1.507 1.507 0 0 0-.434 1.334L27.727 23a1.507 1.507 0 0 1-2.186 1.588l-2.547-1.339a1.5 1.5 0 0 0-1.4 0l-2.547 1.339A1.507 1.507 0 0 1 16.858 23l.486-2.836a1.507 1.507 0 0 0-.433-1.334l-2.06-2.01a1.507 1.507 0 0 1 .835-2.57l2.847-.413a1.508 1.508 0 0 0 1.135-.824l1.273-2.58a1.506 1.506 0 0 1 2.7 0" transform="translate(-2.026 -1.35)" style="fill:#fafcfc"/>
                </g>
            </g>
            <g data-name="그룹 1440">
                <g data-name="그룹 1439" style="clip-path:url(#90ympc2nac)" transform="translate(99.283 17.742)">
                    <path data-name="패스 1276" d="M22.49 7.948v8.517l-6.164-6.924s1.468-2.055 2.642-2.348 3.522.755 3.522.755" transform="translate(-14.666 -9.247)" style="fill:#7e8c8e"/>
                    <path data-name="패스 1277" d="m15.84 11.025 6.022 6.022-9.254-.536s-.415-2.491.207-3.529 3.025-1.957 3.025-1.957" transform="translate(-14.124 -9.794)" style="fill:#ebf1f2"/>
                    <path data-name="패스 1278" d="M13.316 18.133h8.517L14.909 24.3s-2.055-1.468-2.348-2.642.755-3.522.755-3.522" transform="translate(-14.129 -10.794)" style="fill:#7e8c8e"/>
                    <path data-name="패스 1279" d="m16.392 24.255 6.022-6.023-.536 9.255s-2.491.415-3.529-.207-1.957-3.025-1.957-3.025" transform="translate(-14.675 -10.808)" style="fill:#a7b5b7"/>
                    <path data-name="패스 1280" d="M23.5 26.79v-8.517l6.164 6.927s-1.468 2.055-2.642 2.348-3.522-.758-3.522-.758" transform="translate(-15.676 -10.814)" style="fill:#7e8c8e"/>
                    <path data-name="패스 1281" d="M29.622 24.255 23.6 18.232l9.255.537s.415 2.491-.207 3.529-3.025 1.957-3.025 1.957" transform="translate(-15.69 -10.808)" style="fill:#a7b5b7"/>
                    <path data-name="패스 1282" d="M32.157 17.123H23.64l6.924-6.164s2.055 1.468 2.348 2.642-.755 3.522-.755 3.522" transform="translate(-15.695 -9.784)" style="fill:#ebf1f2"/>
                    <path data-name="패스 1283" d="M29.622 10.473 23.6 16.5l.537-9.254s2.491-.415 3.529.207 1.957 3.025 1.957 3.025" transform="translate(-15.69 -9.242)" style="fill:#a7b5b7"/>
                </g>
            </g>
            <g data-name="그룹 1442">
                <g data-name="그룹 1441" style="clip-path:url(#zfuur1d1pb)" transform="translate(86.914 9.5)">
                    <path data-name="패스 1285" d="m23.643 10.432 1.273 2.58a1.507 1.507 0 0 0 1.134.824l2.848.413a1.507 1.507 0 0 1 .835 2.57l-2.061 2.008a1.507 1.507 0 0 0-.434 1.334L27.727 23a1.507 1.507 0 0 1-2.186 1.588l-2.547-1.339a1.5 1.5 0 0 0-1.4 0l-2.547 1.339A1.507 1.507 0 0 1 16.858 23l.486-2.836a1.507 1.507 0 0 0-.433-1.334l-2.06-2.01a1.507 1.507 0 0 1 .835-2.57l2.847-.413a1.508 1.508 0 0 0 1.135-.824l1.273-2.58a1.506 1.506 0 0 1 2.702-.001z" transform="translate(-2.026 -1.35)" style="stroke-miterlimit:10;stroke-width:.75px;stroke:#7e8c8e;fill:none"/>
                </g>
            </g>
        </g>
    </g>
</svg>
