<svg data-name="거래등급 브론즈" xmlns="http://www.w3.org/2000/svg" width="33.137" height="27.785" viewBox="0 0 33.137 27.785">
    <defs>
        <clipPath id="9gralocpfa">
            <path data-name="사각형 765" style="fill:none" d="M0 0h33.137v27.785H0z"/>
        </clipPath>
        <clipPath id="hzvko12bsb">
            <path data-name="패스 1349" d="m16.155 8.007-1.029 2.085a1.219 1.219 0 0 1-.917.667l-2.3.334a1.218 1.218 0 0 0-.675 2.076l1.666 1.624a1.221 1.221 0 0 1 .351 1.078l-.394 2.291a1.218 1.218 0 0 0 1.767 1.284l2.059-1.083a1.217 1.217 0 0 1 1.133 0l2.059 1.083a1.218 1.218 0 0 0 1.766-1.284l-.393-2.291a1.22 1.22 0 0 1 .35-1.078l1.665-1.624a1.217 1.217 0 0 0-.674-2.076l-2.3-.334a1.219 1.219 0 0 1-.917-.667l-1.033-2.085a1.218 1.218 0 0 0-2.184 0" transform="translate(-10.864 -7.328)" style="fill:none"/>
        </clipPath>
    </defs>
    <g data-name="그룹 685">
        <g data-name="그룹 684" style="clip-path:url(#9gralocpfa)">
            <path data-name="패스 1316" d="M22.357 14.947a.467.467 0 0 1-.253-.074.473.473 0 0 1-.219-.4v-3.258a.471.471 0 0 1 .271-.426l10.621-5a.785.785 0 0 1 .339-.076.8.8 0 0 1 .8.8v.842a3.487 3.487 0 0 1-1.997 3.145l-9.362 4.4a.469.469 0 0 1-.2.045" transform="translate(-1.247 -.326)" style="fill:#efcd89"/>
            <path data-name="패스 1317" d="M33.087 6.157a.326.326 0 0 1 .325.326v.842a3 3 0 0 1-1.723 2.716l-9.362 4.406v-3.261l10.621-5a.319.319 0 0 1 .139-.031m0-.943a1.25 1.25 0 0 0-.54.122l-10.62 5a.944.944 0 0 0-.542.853v3.261a.943.943 0 0 0 1.345.853l9.362-4.406a3.96 3.96 0 0 0 2.264-3.569v-.843a1.27 1.27 0 0 0-1.268-1.269" transform="translate(-1.219 -.297)" style="fill:#754c24"/>
            <path data-name="패스 1318" d="M22.385 12.841v1.73l9.362-4.406A3 3 0 0 0 33.47 7.45V7.4z" transform="translate(-1.276 -.421)" style="fill:#b38d63"/>
            <path data-name="패스 1319" d="M22.357 18.721a.467.467 0 0 1-.253-.074.473.473 0 0 1-.219-.4v-3.26a.471.471 0 0 1 .271-.426l10.621-5a.785.785 0 0 1 .339-.076.8.8 0 0 1 .8.8v.842a3.487 3.487 0 0 1-1.993 3.142l-9.362 4.406a.469.469 0 0 1-.2.045" transform="translate(-1.247 -.541)" style="fill:#efcd89"/>
            <path data-name="패스 1320" d="M33.087 9.931a.326.326 0 0 1 .325.326v.843a3 3 0 0 1-1.723 2.716l-9.362 4.406V14.96l10.621-5a.319.319 0 0 1 .139-.031m0-.943a1.25 1.25 0 0 0-.54.122l-10.62 5a.944.944 0 0 0-.542.853v3.261a.943.943 0 0 0 1.345.853l9.362-4.406a3.96 3.96 0 0 0 2.263-3.569v-.842a1.27 1.27 0 0 0-1.268-1.269" transform="translate(-1.219 -.512)" style="fill:#754c24"/>
            <path data-name="패스 1321" d="M22.385 16.615v1.73l9.362-4.406a3 3 0 0 0 1.723-2.716v-.053z" transform="translate(-1.276 -.637)" style="fill:#b38d63"/>
            <path data-name="패스 1322" d="M22.357 22.494a.467.467 0 0 1-.253-.074.473.473 0 0 1-.219-.4v-3.26a.471.471 0 0 1 .271-.426l10.621-5a.786.786 0 0 1 .339-.076.8.8 0 0 1 .8.8v.842a3.485 3.485 0 0 1-1.993 3.142l-9.362 4.406a.469.469 0 0 1-.2.045" transform="translate(-1.247 -.756)" style="fill:#efcd89"/>
            <path data-name="패스 1323" d="M33.087 13.7a.326.326 0 0 1 .325.326v.842a3 3 0 0 1-1.723 2.716l-9.362 4.406v-3.256l10.621-5a.319.319 0 0 1 .139-.031m0-.943a1.263 1.263 0 0 0-.54.121l-10.62 5a.944.944 0 0 0-.542.853v3.261a.943.943 0 0 0 1.345.853l9.362-4.406a3.96 3.96 0 0 0 2.264-3.569v-.842a1.27 1.27 0 0 0-1.268-1.269" transform="translate(-1.219 -.727)" style="fill:#754c24"/>
            <path data-name="패스 1324" d="M22.385 20.389v1.73l9.362-4.406A3 3 0 0 0 33.47 15v-.054z" transform="translate(-1.276 -.852)" style="fill:#b38d63"/>
            <path data-name="패스 1325" d="M12.056 14.947a.469.469 0 0 1-.2-.045L2.494 10.5A3.485 3.485 0 0 1 .5 7.354v-.842a.8.8 0 0 1 .8-.8.782.782 0 0 1 .339.076l10.621 5a.471.471 0 0 1 .271.426v3.261a.473.473 0 0 1-.219.4.467.467 0 0 1-.253.074" transform="translate(-.029 -.326)" style="fill:#efcd89"/>
            <path data-name="패스 1326" d="M1.268 6.157a.319.319 0 0 1 .139.031l10.621 5v3.261l-9.362-4.408A3 3 0 0 1 .943 7.325v-.842a.326.326 0 0 1 .325-.326m0-.943A1.271 1.271 0 0 0 0 6.483v.842a3.96 3.96 0 0 0 2.264 3.569l9.363 4.406a.951.951 0 0 0 .4.09.945.945 0 0 0 .943-.943v-3.261a.944.944 0 0 0-.541-.853l-10.621-5a1.263 1.263 0 0 0-.54-.121" transform="translate(0 -.297)" style="fill:#754c24"/>
            <path data-name="패스 1327" d="M12.085 12.841v1.73l-9.362-4.405A3 3 0 0 1 1 7.45V7.4z" transform="translate(-.057 -.421)" style="fill:#c69c6d"/>
            <path data-name="패스 1328" d="M12.056 18.721a.469.469 0 0 1-.2-.045L2.494 14.27A3.485 3.485 0 0 1 .5 11.128v-.842a.8.8 0 0 1 .8-.8.782.782 0 0 1 .339.076l10.621 5a.471.471 0 0 1 .271.426v3.26a.473.473 0 0 1-.219.4.467.467 0 0 1-.253.074" transform="translate(-.029 -.541)" style="fill:#efcd89"/>
            <path data-name="패스 1329" d="M1.268 9.931a.319.319 0 0 1 .139.031l10.621 5v3.261l-9.362-4.408A3 3 0 0 1 .943 11.1v-.842a.326.326 0 0 1 .325-.326m0-.943A1.271 1.271 0 0 0 0 10.257v.843a3.96 3.96 0 0 0 2.264 3.569l9.363 4.406a.951.951 0 0 0 .4.09.945.945 0 0 0 .943-.943V14.96a.944.944 0 0 0-.541-.853l-10.621-5a1.263 1.263 0 0 0-.54-.121" transform="translate(0 -.512)" style="fill:#754c24"/>
            <path data-name="패스 1330" d="M12.085 16.615v1.73L2.723 13.94A3 3 0 0 1 1 11.224v-.054z" transform="translate(-.057 -.637)" style="fill:#c69c6d"/>
            <path data-name="패스 1331" d="M12.056 22.494a.469.469 0 0 1-.2-.045l-9.362-4.406A3.483 3.483 0 0 1 .5 14.9v-.84a.8.8 0 0 1 .8-.8.788.788 0 0 1 .34.076l10.62 5a.471.471 0 0 1 .271.426v3.26a.473.473 0 0 1-.219.4.467.467 0 0 1-.253.074" transform="translate(-.029 -.756)" style="fill:#efcd89"/>
            <path data-name="패스 1332" d="M1.268 13.7a.319.319 0 0 1 .139.031l10.621 5v3.261l-9.362-4.403a3 3 0 0 1-1.723-2.716v-.842a.326.326 0 0 1 .325-.326m0-.943A1.271 1.271 0 0 0 0 14.031v.842a3.96 3.96 0 0 0 2.264 3.569l9.363 4.406a.951.951 0 0 0 .4.09.945.945 0 0 0 .943-.943v-3.261a.944.944 0 0 0-.541-.853l-10.621-5a1.263 1.263 0 0 0-.54-.121" transform="translate(0 -.727)" style="fill:#754c24"/>
            <path data-name="패스 1333" d="M12.085 20.389v1.73l-9.362-4.405A3 3 0 0 1 1 15v-.054z" transform="translate(-.057 -.852)" style="fill:#c69c6d"/>
            <path data-name="패스 1334" d="M16.952 27.341a3.239 3.239 0 0 1-1.558-.4l-7.221-3.967a3.232 3.232 0 0 1-1.679-2.851l.057-12.5a3.232 3.232 0 0 1 1.705-2.835l7.276-3.9A3.222 3.222 0 0 1 18.621.9l7.221 3.966a3.234 3.234 0 0 1 1.679 2.852l-.057 12.5a3.232 3.232 0 0 1-1.706 2.837l-7.276 3.9a3.242 3.242 0 0 1-1.53.386M17.063 3.1a.631.631 0 0 0-.3.075l-7.276 3.9a.632.632 0 0 0-.335.554L9.1 20.135a.631.631 0 0 0 .327.557l7.221 3.966a.631.631 0 0 0 .6 0l7.276-3.9a.635.635 0 0 0 .335-.555l.056-12.5a.634.634 0 0 0-.329-.558l-7.218-3.962a.629.629 0 0 0-.3-.078" transform="translate(-.37 -.028)" style="fill:#efcd89"/>
            <path data-name="패스 1335" d="M17.035.943a2.753 2.753 0 0 1 1.331.343l7.221 3.966a2.761 2.761 0 0 1 1.434 2.436l-.057 12.5a2.761 2.761 0 0 1-1.458 2.424l-7.276 3.9a2.752 2.752 0 0 1-2.638-.013l-7.221-3.965A2.765 2.765 0 0 1 6.937 20.1l.056-12.5a2.764 2.764 0 0 1 1.458-2.425l7.276-3.9a2.761 2.761 0 0 1 1.307-.33m-.111 24.238a1.107 1.107 0 0 0 .522-.132l7.276-3.9a1.1 1.1 0 0 0 .582-.968l.057-12.5a1.105 1.105 0 0 0-.572-.973l-7.222-3.969a1.1 1.1 0 0 0-1.054 0l-7.276 3.9a1.1 1.1 0 0 0-.582.968L8.6 20.1a1.105 1.105 0 0 0 .573.973l7.221 3.966a1.1 1.1 0 0 0 .532.137M17.035 0a3.715 3.715 0 0 0-1.753.442l-7.276 3.9A3.7 3.7 0 0 0 6.05 7.6l-.056 12.5a3.705 3.705 0 0 0 1.924 3.26l7.221 3.966a3.7 3.7 0 0 0 3.538.018l7.276-3.9a3.7 3.7 0 0 0 1.955-3.251l.057-12.5a3.706 3.706 0 0 0-1.923-3.267L18.82.459A3.726 3.726 0 0 0 17.035 0m-.111 24.238a.154.154 0 0 1-.077-.021l-7.222-3.966a.162.162 0 0 1-.084-.142L9.6 7.611a.159.159 0 0 1 .085-.141l7.276-3.9a.159.159 0 0 1 .076-.02.154.154 0 0 1 .077.021l7.221 3.966a.162.162 0 0 1 .084.142l-.057 12.5a.161.161 0 0 1-.085.141L17 24.218a.159.159 0 0 1-.076.02" transform="translate(-.342)" style="fill:#754c24"/>
            <path data-name="패스 1336" d="M8.755 20.262a1.1 1.1 0 0 0 .572.973l7.222 3.965a1.1 1.1 0 0 0 1.054 0l7.275-3.9a1.1 1.1 0 0 0 .583-.968l.057-12.5a1.106 1.106 0 0 0-.573-.973L17.723 2.9a1.1 1.1 0 0 0-1.053 0L9.393 6.8a1.1 1.1 0 0 0-.583.968z" transform="translate(-.499 -.157)" style="fill:#efcd89"/>
            <path data-name="패스 1337" d="M9.393 7.04a1.1 1.1 0 0 0-.583.968l-.056 12.5a1.1 1.1 0 0 0 .572.973l7.221 3.966a1.62 1.62 0 0 0 .637.137V14.9z" transform="translate(-.499 -.401)" style="fill:#8c6239"/>
            <path data-name="패스 1338" d="M17.7 14.9v10.681a1.6 1.6 0 0 0 .637-.137l7.221-3.966a1.1 1.1 0 0 0 .572-.973l-.056-12.5a1.1 1.1 0 0 0-.582-.968z" transform="translate(-1.009 -.401)" style="fill:#c69c6d"/>
            <path data-name="패스 1339" d="M17.164 2.733a1.1 1.1 0 0 1 .532.137l7.221 3.966a1.105 1.105 0 0 1 .572.973l-.057 12.5a1.1 1.1 0 0 1-.582.968l-7.276 3.9a1.1 1.1 0 0 1-1.054 0l-7.22-3.97a1.105 1.105 0 0 1-.573-.973l.057-12.5a1.1 1.1 0 0 1 .582-.968l7.276-3.9a1.107 1.107 0 0 1 .522-.132m0-.471a1.585 1.585 0 0 0-.745.188l-7.276 3.9a1.573 1.573 0 0 0-.831 1.382l-.057 12.5a1.577 1.577 0 0 0 .818 1.388l7.221 3.966a1.571 1.571 0 0 0 1.5.008l7.276-3.9a1.573 1.573 0 0 0 .83-1.385l.057-12.5a1.575 1.575 0 0 0-.818-1.389l-7.216-3.964a1.587 1.587 0 0 0-.759-.2" transform="translate(-.471 -.129)" style="fill:#754c24"/>
            <path data-name="패스 1340" d="m18.339 8.006 1.029 2.085a1.217 1.217 0 0 0 .918.667l2.3.334a1.218 1.218 0 0 1 .675 2.077L21.6 14.792a1.219 1.219 0 0 0-.351 1.078l.393 2.292a1.217 1.217 0 0 1-1.766 1.283l-2.059-1.083a1.217 1.217 0 0 0-1.133 0l-2.059 1.083a1.217 1.217 0 0 1-1.766-1.283l.393-2.292a1.218 1.218 0 0 0-.35-1.078l-1.665-1.623a1.218 1.218 0 0 1 .674-2.077l2.3-.334a1.217 1.217 0 0 0 .917-.667l1.029-2.085a1.218 1.218 0 0 1 2.184 0" transform="translate(-.619 -.417)" style="fill:#fafcfc"/>
        </g>
    </g>
    <g data-name="그룹 687">
        <g data-name="그룹 686" style="clip-path:url(#hzvko12bsb)" transform="translate(10.245 6.911)">
            <path data-name="패스 1341" d="M17.269 6.175v6.883l-4.982-5.6s1.186-1.661 2.135-1.9a6.318 6.318 0 0 1 2.847.611" transform="translate(-10.945 -7.225)" style="fill:#8c6239"/>
            <path data-name="패스 1342" d="m12.17 8.383 4.867 4.867-7.48-.434a5.794 5.794 0 0 1 .168-2.852 6.308 6.308 0 0 1 2.445-1.581" transform="translate(-10.783 -7.388)" style="fill:#efcd89"/>
            <path data-name="패스 1343" d="M10.128 13.617h6.882l-5.6 4.982s-1.661-1.186-1.9-2.135a6.318 6.318 0 0 1 .611-2.847" transform="translate(-10.785 -7.686)" style="fill:#8c6239"/>
            <path data-name="패스 1344" d="m12.335 18.558 4.865-4.867-.434 7.48a5.794 5.794 0 0 1-2.85-.171 6.308 6.308 0 0 1-1.581-2.445" transform="translate(-10.948 -7.691)" style="fill:#b38d63"/>
            <path data-name="패스 1345" d="M17.57 20.6v-6.879l4.982 5.6s-1.186 1.661-2.135 1.9a6.318 6.318 0 0 1-2.847-.621" transform="translate(-11.246 -7.692)" style="fill:#8c6239"/>
            <path data-name="패스 1346" d="m22.511 18.558-4.867-4.867 7.48.434a5.794 5.794 0 0 1-.168 2.852 6.308 6.308 0 0 1-2.445 1.581" transform="translate(-11.25 -7.691)" style="fill:#c69c6d"/>
            <path data-name="패스 1347" d="M24.557 13.316h-6.883l5.6-4.982s1.661 1.186 1.9 2.135a6.318 6.318 0 0 1-.611 2.847" transform="translate(-11.252 -7.385)" style="fill:#efcd89"/>
            <path data-name="패스 1348" d="m22.511 8.218-4.867 4.867.434-7.48a5.794 5.794 0 0 1 2.852.168 6.308 6.308 0 0 1 1.581 2.445" transform="translate(-11.25 -7.224)" style="fill:#c69c6d"/>
        </g>
    </g>
    <g data-name="그룹 689">
        <g data-name="그룹 688" style="clip-path:url(#9gralocpfa)">
            <path data-name="패스 1350" d="m18.339 8.006 1.029 2.085a1.217 1.217 0 0 0 .918.667l2.3.334a1.218 1.218 0 0 1 .675 2.077L21.6 14.792a1.219 1.219 0 0 0-.351 1.078l.393 2.292a1.217 1.217 0 0 1-1.766 1.283l-2.059-1.083a1.217 1.217 0 0 0-1.133 0l-2.059 1.083a1.217 1.217 0 0 1-1.766-1.283l.393-2.292a1.218 1.218 0 0 0-.35-1.078l-1.665-1.623a1.218 1.218 0 0 1 .674-2.077l2.3-.334a1.217 1.217 0 0 0 .917-.667l1.029-2.085a1.218 1.218 0 0 1 2.182 0z" transform="translate(-.619 -.417)" style="stroke:#754c24;stroke-miterlimit:10;stroke-width:.75px;fill:none"/>
        </g>
    </g>
</svg>
