<svg xmlns="http://www.w3.org/2000/svg" width="143" height="52" viewBox="0 0 143 52">
    <defs>
        <clipPath id="rnpn22bwyb">
            <path data-name="사각형 1207" style="fill:none" d="M0 0h40.324v33.839H0z"/>
        </clipPath>
        <clipPath id="jpqb48tvic">
            <path data-name="패스 1354" d="M16.288 12.094a1.68 1.68 0 0 0-1.421.8l-3.008 4.8a1.771 1.771 0 0 0 .128 2.053l8.273 10.116a1.662 1.662 0 0 0 2.555.039l8.749-10.082a1.769 1.769 0 0 0 .1-2.186L28.171 12.8a1.675 1.675 0 0 0-1.356-.7z" transform="translate(-11.592 -12.094)" style="fill:none"/>
        </clipPath>
        <clipPath id="e05zy2r7kd">
            <path data-name="패스 1374" d="m22.08 1.8-.671 1.4a.792.792 0 0 1-.6.445l-1.5.224a.821.821 0 0 0-.44 1.39l1.085 1.088a.825.825 0 0 1 .228.721L19.93 8.6a.8.8 0 0 0 1.151.859l1.342-.724a.771.771 0 0 1 .738 0l1.342.724a.8.8 0 0 0 1.151-.859L25.4 7.065a.828.828 0 0 1 .229-.721l1.085-1.088a.821.821 0 0 0-.44-1.39l-1.5-.224a.8.8 0 0 1-.6-.445L23.5 1.8a.786.786 0 0 0-1.424 0" transform="translate(-18.632 -1.348)" style="fill:none"/>
        </clipPath>
        <linearGradient id="4yjo9ppbna" x1=".958" y1=".144" x2=".08" y2="1" gradientUnits="objectBoundingBox">
            <stop offset="0" stop-color="#cfe"/>
            <stop offset="1" stop-color="#fffc9f"/>
        </linearGradient>
    </defs>
    <g data-name="거래등급 플래티넘띠포함">
        <path data-name="패스 1614" d="M20 0h102a20 20 0 0 1 20 20v11a20 20 0 0 1-20 20H20A20 20 0 0 1 0 31V20A20 20 0 0 1 20 0" style="stroke:#03d8be;fill:url(#4yjo9ppbna)" transform="translate(.5 .5)"/>
        <g data-name="그룹 1576" style="opacity:.35;mix-blend-mode:overlay;isolation:isolate">
            <path data-name="패스 1195" d="M18.592 0h94.817C123.677 0 132 7.374 132 16.471v9.059c0 9.096-8.323 16.47-18.592 16.47H18.592C8.323 42 0 34.626 0 25.529v-9.058C0 7.374 8.323 0 18.592 0" transform="translate(5.5 5)" style="fill:#dffff9"/>
        </g>
        <g data-name="그룹 1577" style="opacity:.75">
            <path data-name="패스 1195" d="M18.592 0h94.817C123.677 0 132 7.374 132 16.471v9.059c0 9.096-8.323 16.47-18.592 16.47H18.592C8.323 42 0 34.626 0 25.529v-9.058C0 7.374 8.323 0 18.592 0" transform="translate(5.5 5)" style="stroke:#83ffd2;fill:none"/>
        </g>
        <text transform="translate(15.015 33.143)" style="fill:#05354a;font-size:20px;font-family:Pretendard-Bold,Pretendard;font-weight:700"><tspan x="0" y="0">플래티넘</tspan></text>
        <g data-name="그룹 1588">
            <g data-name="그룹 1454">
                <g data-name="그룹 1453" style="clip-path:url(#rnpn22bwyb)" transform="translate(87.177 8.304)">
                    <path data-name="패스 1323" d="M42.019 37.148a.808.808 0 0 1-.349-.079l-12.786-6.017a.431.431 0 0 1-.246-.389v-3.924a.43.43 0 0 1 .429-.429.424.424 0 0 1 .183.041l11.27 5.3a4.056 4.056 0 0 1 2.321 3.657v1.014a.823.823 0 0 1-.821.822" transform="translate(-4.068 -3.737)" style="fill:#b28846"/>
                    <path data-name="패스 1324" d="m29 26.668 11.27 5.3a3.612 3.612 0 0 1 2.075 3.269v1.014a.392.392 0 0 1-.559.355L29 30.593zm0-.858a.858.858 0 0 0-.858.858v3.925a.859.859 0 0 0 .492.776l12.786 6.017a1.249 1.249 0 0 0 1.78-1.131v-1.014a4.488 4.488 0 0 0-2.569-4.041l-11.27-5.3a.856.856 0 0 0-.361-.09" transform="translate(-3.997 -3.666)" style="fill:#490a0a"/>
                    <path data-name="패스 1325" d="M29.138 28.893V26.81l11.27 5.3a3.612 3.612 0 0 1 2.075 3.269v.066z" transform="translate(-4.139 -3.808)" style="fill:#ddc37a"/>
                    <path data-name="패스 1326" d="M42.02 32.155a.8.8 0 0 1-.351-.08l-12.785-6.016a.431.431 0 0 1-.246-.389v-3.924a.43.43 0 0 1 .429-.429.424.424 0 0 1 .183.041l11.27 5.3a4.056 4.056 0 0 1 2.321 3.657v1.014a.813.813 0 0 1-.249.589.822.822 0 0 1-.571.233" transform="translate(-4.068 -3.028)" style="fill:#b28846"/>
                    <path data-name="패스 1327" d="m29 21.675 11.27 5.3a3.612 3.612 0 0 1 2.075 3.269v1.014a.392.392 0 0 1-.559.355L29 25.6zm0-.858a.858.858 0 0 0-.858.858V25.6a.859.859 0 0 0 .492.776l12.786 6.017a1.249 1.249 0 0 0 1.78-1.131v-1.014a4.488 4.488 0 0 0-2.569-4.048l-11.27-5.3a.856.856 0 0 0-.361-.083" transform="translate(-3.997 -2.957)" style="fill:#490a0a"/>
                    <path data-name="패스 1328" d="M29.138 23.9v-2.083l11.27 5.3a3.612 3.612 0 0 1 2.075 3.269v.066z" transform="translate(-4.139 -3.099)" style="fill:#ddc37a"/>
                    <path data-name="패스 1329" d="M2.629 37.148a.823.823 0 0 1-.821-.822v-1.014a4.054 4.054 0 0 1 2.321-3.657l11.27-5.3a.424.424 0 0 1 .183-.041.43.43 0 0 1 .429.429v3.924a.431.431 0 0 1-.246.389L2.978 37.069a.808.808 0 0 1-.349.079" transform="translate(-.257 -3.737)" style="fill:#b28846"/>
                    <path data-name="패스 1330" d="M15.509 26.668v3.925L2.724 36.61a.392.392 0 0 1-.559-.355v-1.014a3.611 3.611 0 0 1 2.075-3.269zm0-.858a.856.856 0 0 0-.365.082L3.874 31.2a4.488 4.488 0 0 0-2.567 4.045v1.014a1.249 1.249 0 0 0 1.782 1.132l12.786-6.021a.859.859 0 0 0 .492-.776v-3.926a.858.858 0 0 0-.858-.858" transform="translate(-.186 -3.666)" style="fill:#490a0a"/>
                    <path data-name="패스 1331" d="M15.653 28.893V26.81l-11.27 5.3a3.612 3.612 0 0 0-2.075 3.269v.066z" transform="translate(-.328 -3.808)" style="fill:#ddc37a"/>
                    <path data-name="패스 1332" d="M2.628 32.155a.822.822 0 0 1-.82-.822v-1.014a4.054 4.054 0 0 1 2.321-3.657l11.27-5.3a.424.424 0 0 1 .183-.041.43.43 0 0 1 .429.429v3.92a.431.431 0 0 1-.246.389L2.978 32.075a.8.8 0 0 1-.35.08" transform="translate(-.257 -3.028)" style="fill:#b28846"/>
                    <path data-name="패스 1333" d="M15.509 21.675V25.6L2.724 31.617a.392.392 0 0 1-.559-.355v-1.014a3.611 3.611 0 0 1 2.075-3.269zm0-.858a.856.856 0 0 0-.365.082L3.874 26.2a4.488 4.488 0 0 0-2.567 4.045v1.014a1.249 1.249 0 0 0 1.782 1.132l12.786-6.017a.859.859 0 0 0 .492-.776v-3.923a.858.858 0 0 0-.858-.858" transform="translate(-.186 -2.957)" style="fill:#490a0a"/>
                    <path data-name="패스 1334" d="M15.653 23.9v-2.083l-11.27 5.3a3.612 3.612 0 0 0-2.075 3.273v.066z" transform="translate(-.328 -3.099)" style="fill:#ddc37a"/>
                    <path data-name="패스 1335" d="M27.76 19.642a.425.425 0 0 1-.23-.067.43.43 0 0 1-.2-.362v-4.585a.429.429 0 0 1 .246-.388l14.936-7.027a.868.868 0 0 1 .378-.086.888.888 0 0 1 .887.887V9.2a4.668 4.668 0 0 1-2.67 4.207L27.943 19.6a.427.427 0 0 1-.183.041" transform="translate(-3.882 -1.012)" style="fill:#ffefae"/>
                    <path data-name="패스 1336" d="M42.819 7.485a.459.459 0 0 1 .458.459v1.184a4.22 4.22 0 0 1-2.424 3.819l-13.164 6.2v-4.59l14.935-7.028a.456.456 0 0 1 .195-.044m0-.858a1.3 1.3 0 0 0-.56.126l-14.936 7.028a.859.859 0 0 0-.492.776v4.585a.858.858 0 0 0 1.223.776l13.164-6.2a5.1 5.1 0 0 0 2.916-4.6V7.944a1.318 1.318 0 0 0-1.316-1.317" transform="translate(-3.811 -.941)" style="fill:#490a0a"/>
                    <path data-name="패스 1337" d="M27.831 17.11v2.433L41 13.348a4.22 4.22 0 0 0 2.424-3.819v-.076z" transform="translate(-3.953 -1.343)" style="fill:#ddc37a"/>
                    <path data-name="패스 1338" d="M27.76 25.475a.425.425 0 0 1-.23-.067.43.43 0 0 1-.2-.362v-4.585a.429.429 0 0 1 .246-.388l14.934-7.027a.868.868 0 0 1 .378-.086.888.888 0 0 1 .887.887v1.185a4.668 4.668 0 0 1-2.67 4.207l-13.164 6.2a.427.427 0 0 1-.183.041" transform="translate(-3.882 -1.841)" style="fill:#ffefae"/>
                    <path data-name="패스 1339" d="M42.819 13.318a.459.459 0 0 1 .458.459v1.184a4.22 4.22 0 0 1-2.424 3.819l-13.164 6.2v-4.59l14.935-7.028a.456.456 0 0 1 .195-.044m0-.858a1.3 1.3 0 0 0-.56.126l-14.936 7.028a.859.859 0 0 0-.492.776v4.585a.858.858 0 0 0 1.223.776l13.164-6.2a5.1 5.1 0 0 0 2.916-4.6v-1.174a1.318 1.318 0 0 0-1.316-1.317" transform="translate(-3.811 -1.77)" style="fill:#490a0a"/>
                    <path data-name="패스 1340" d="M27.831 22.943v2.433L41 19.181a4.22 4.22 0 0 0 2.424-3.819v-.076z" transform="translate(-3.953 -2.171)" style="fill:#ddc37a"/>
                    <path data-name="패스 1341" d="M16.517 19.642a.427.427 0 0 1-.183-.041L3.17 13.405A4.668 4.668 0 0 1 .5 9.2V8.014a.888.888 0 0 1 .887-.887.868.868 0 0 1 .378.086L16.7 14.24a.429.429 0 0 1 .246.388v4.585a.43.43 0 0 1-.2.362.425.425 0 0 1-.23.067" transform="translate(-.071 -1.012)" style="fill:#ffefae"/>
                    <path data-name="패스 1342" d="M1.316 7.485a.456.456 0 0 1 .195.044l14.935 7.028v4.585l-13.164-6.2A4.22 4.22 0 0 1 .858 9.128V7.944a.459.459 0 0 1 .458-.459m0-.858A1.318 1.318 0 0 0 0 7.944v1.184a5.1 5.1 0 0 0 2.916 4.6l13.164 6.2a.858.858 0 0 0 1.223-.776v-4.595a.859.859 0 0 0-.492-.776L1.876 6.753a1.3 1.3 0 0 0-.56-.126" transform="translate(0 -.941)" style="fill:#490a0a"/>
                    <path data-name="패스 1343" d="M16.588 17.11v2.433l-13.164-6.2A4.22 4.22 0 0 1 1 9.529v-.076z" transform="translate(-.142 -1.343)" style="fill:#ddc37a"/>
                    <path data-name="패스 1344" d="M16.517 25.475a.427.427 0 0 1-.183-.041L3.17 19.238A4.668 4.668 0 0 1 .5 15.032v-1.185a.888.888 0 0 1 .887-.887.868.868 0 0 1 .378.086L16.7 20.073a.429.429 0 0 1 .246.388v4.585a.43.43 0 0 1-.2.362.425.425 0 0 1-.23.067" transform="translate(-.071 -1.841)" style="fill:#ffefae"/>
                    <path data-name="패스 1345" d="M1.316 13.318a.456.456 0 0 1 .195.044l14.935 7.028v4.585L3.282 18.78a4.22 4.22 0 0 1-2.424-3.819v-1.184a.459.459 0 0 1 .458-.459m0-.858A1.318 1.318 0 0 0 0 13.777v1.184a5.1 5.1 0 0 0 2.916 4.6l13.164 6.2a.858.858 0 0 0 1.223-.776V20.39a.859.859 0 0 0-.492-.776L1.876 12.586a1.3 1.3 0 0 0-.56-.126" transform="translate(0 -1.77)" style="fill:#490a0a"/>
                    <path data-name="패스 1346" d="M16.588 22.943v2.433l-13.164-6.2A4.22 4.22 0 0 1 1 15.362v-.076z" transform="translate(-.142 -2.171)" style="fill:#ddc37a"/>
                    <path data-name="패스 1347" d="M16.288 12.094h10.526a1.676 1.676 0 0 1 1.357.7l3.489 4.839a1.768 1.768 0 0 1-.1 2.185L22.814 29.9a1.661 1.661 0 0 1-2.554-.039l-8.273-10.115a1.773 1.773 0 0 1-.126-2.053l3.007-4.8a1.68 1.68 0 0 1 1.421-.8" transform="translate(-1.647 -1.718)" style="fill:#cfe"/>
                </g>
            </g>
            <g data-name="그룹 1456">
                <g data-name="그룹 1455" style="clip-path:url(#jpqb48tvic)" transform="translate(97.122 18.68)">
                    <path data-name="패스 1348" d="m22.5 12.405-3.791 6.314H26.5z" transform="translate(-12.602 -12.138)" style="fill:#83ffd2"/>
                    <path data-name="패스 1349" d="m10.05 18.4 7.221.214-3.9-6.931z" transform="translate(-11.373 -12.036)" style="fill:#03d8be"/>
                    <path data-name="패스 1350" d="m35.244 18.4-7.221.214 3.9-6.931z" transform="translate(-13.926 -12.036)" style="fill:#03d8be"/>
                    <path data-name="패스 1351" d="m18.706 20.19 2.87 12.21h2.05L26.5 20.19z" transform="translate(-12.602 -13.244)" style="fill:#00797f"/>
                    <path data-name="패스 1352" d="M27.855 20.19 25.4 31.134l9.424-10.944z" transform="translate(-13.552 -13.244)" style="fill:#83ffd2"/>
                    <path data-name="패스 1353" d="m17.074 20.19 2.46 10.945L10.1 20.19z" transform="translate(-11.38 -13.244)" style="fill:#02394f"/>
                </g>
            </g>
            <g data-name="그룹 1458">
                <g data-name="그룹 1457" style="clip-path:url(#rnpn22bwyb)" transform="translate(87.177 8.304)">
                    <path data-name="패스 1355" d="m30.791 12.529 3.49 4.838a1.774 1.774 0 0 1 .085 1.932h2.608a4.364 4.364 0 0 0-.716-3.435l-3.49-4.838a4.153 4.153 0 0 0-.929-.926l-1.606 1.936a1.7 1.7 0 0 1 .559.493" transform="translate(-4.295 -1.435)" style="fill:#ffefae"/>
                    <path data-name="패스 1356" d="m30.791 12.529 3.49 4.838a1.774 1.774 0 0 1 .085 1.932h2.608a4.364 4.364 0 0 0-.716-3.435l-3.49-4.838a4.153 4.153 0 0 0-.929-.926l-1.606 1.936a1.7 1.7 0 0 1 .558.493z" transform="translate(-4.295 -1.435)" style="stroke:#490a0a;stroke-miterlimit:10;stroke-width:.75px;fill:none"/>
                    <path data-name="패스 1357" d="M33.368 20.821a1.676 1.676 0 0 1-.182.254l-8.75 10.082a1.663 1.663 0 0 1-1.227.577v2.528a4.106 4.106 0 0 0 3.063-1.424l8.75-10.081a4.282 4.282 0 0 0 .954-1.935z" transform="translate(-3.297 -2.958)" style="fill:#b28846"/>
                    <path data-name="패스 1358" d="M33.368 20.821a1.676 1.676 0 0 1-.182.254l-8.75 10.082a1.663 1.663 0 0 1-1.227.577v2.528a4.106 4.106 0 0 0 3.063-1.424l8.75-10.081a4.282 4.282 0 0 0 .954-1.935z" transform="translate(-3.297 -2.958)" style="stroke:#490a0a;stroke-miterlimit:10;stroke-width:.75px;fill:none"/>
                    <path data-name="패스 1359" d="M21.129 31.738a1.665 1.665 0 0 1-1.294-.619L11.563 21a1.568 1.568 0 0 1-.124-.18H8.805a4.307 4.307 0 0 0 .874 1.8l8.273 10.117a4.1 4.1 0 0 0 3.177 1.52h.033v-2.523h-.033" transform="translate(-1.251 -2.958)" style="fill:#ffefae"/>
                    <path data-name="패스 1360" d="M21.129 31.738a1.665 1.665 0 0 1-1.294-.619L11.563 21a1.568 1.568 0 0 1-.124-.18H8.805a4.307 4.307 0 0 0 .874 1.8l8.273 10.117a4.1 4.1 0 0 0 3.177 1.52h.033v-2.523c-.01 0-.021.004-.033.004z" transform="translate(-1.251 -2.958)" style="stroke:#490a0a;stroke-miterlimit:10;stroke-width:.75px;fill:none"/>
                    <path data-name="패스 1361" d="M16.6 11.695h10.526a1.652 1.652 0 0 1 .8.208l1.606-1.936a4.081 4.081 0 0 0-2.4-.8H16.6a4.061 4.061 0 0 0-2.611.957l1.594 1.921a1.654 1.654 0 0 1 1.017-.353" transform="translate(-1.987 -1.302)" style="fill:#ddc37a"/>
                    <path data-name="패스 1362" d="M16.6 11.695h10.526a1.652 1.652 0 0 1 .8.208l1.606-1.936a4.081 4.081 0 0 0-2.4-.8H16.6a4.061 4.061 0 0 0-2.611.957l1.594 1.921a1.654 1.654 0 0 1 1.017-.35z" transform="translate(-1.987 -1.302)" style="stroke:#490a0a;stroke-miterlimit:10;stroke-width:.75px;fill:none"/>
                    <path data-name="패스 1363" d="m11.419 17.451 3.007-4.8a1.71 1.71 0 0 1 .4-.444l-1.594-1.921a4.224 4.224 0 0 0-.879 1l-3.008 4.8a4.34 4.34 0 0 0-.561 3.239h2.633a1.77 1.77 0 0 1 0-1.873" transform="translate(-1.234 -1.461)" style="fill:#b28846"/>
                    <path data-name="패스 1364" d="m11.419 17.451 3.007-4.8a1.71 1.71 0 0 1 .4-.444l-1.594-1.921a4.224 4.224 0 0 0-.879 1l-3.008 4.8a4.34 4.34 0 0 0-.561 3.239h2.633a1.77 1.77 0 0 1 .002-1.874z" transform="translate(-1.234 -1.461)" style="stroke:#490a0a;stroke-miterlimit:10;stroke-width:.75px;fill:none"/>
                    <path data-name="패스 1365" d="m23.5 1.8.671 1.4a.794.794 0 0 0 .6.445l1.5.224a.821.821 0 0 1 .44 1.391l-1.085 1.084a.83.83 0 0 0-.228.722l.256 1.534a.8.8 0 0 1-1.151.859l-1.342-.724a.773.773 0 0 0-.739 0l-1.342.724a.8.8 0 0 1-1.151-.859l.257-1.534a.83.83 0 0 0-.228-.722l-1.087-1.086a.821.821 0 0 1 .44-1.391l1.5-.224a.794.794 0 0 0 .6-.445l.671-1.4a.785.785 0 0 1 1.423 0" transform="translate(-2.647 -.191)" style="fill:#fff"/>
                </g>
            </g>
            <g data-name="그룹 1460">
                <g data-name="그룹 1459" style="clip-path:url(#e05zy2r7kd)" transform="translate(103.162 9.461)">
                    <path data-name="패스 1366" d="M22.9.457v4.607l-3.249-3.746s.773-1.111 1.392-1.27A4.028 4.028 0 0 1 22.9.457" transform="translate(-18.776 -1.159)" style="fill:#00797f"/>
                    <path data-name="패스 1367" d="m19.391 2.124 3.173 3.258-4.876-.291a3.973 3.973 0 0 1 .112-1.908 4.1 4.1 0 0 1 1.594-1.059" transform="translate(-18.487 -1.458)" style="fill:#83ffd2"/>
                    <path data-name="패스 1368" d="M18.062 5.975h4.487L18.9 9.31s-1.083-.794-1.237-1.429a4.321 4.321 0 0 1 .4-1.906" transform="translate(-18.49 -2.005)" style="fill:#02394f"/>
                    <path data-name="패스 1369" d="m19.685 9.287 3.173-3.258-.283 5.006a3.674 3.674 0 0 1-1.859-.112 4.239 4.239 0 0 1-1.03-1.636" transform="translate(-18.781 -2.013)" style="fill:#03d8be"/>
                    <path data-name="패스 1370" d="M23.436 10.658V6.051L26.683 9.8s-.773 1.111-1.392 1.27a4.016 4.016 0 0 1-1.856-.408" transform="translate(-19.314 -2.016)" style="fill:#00797f"/>
                    <path data-name="패스 1371" d="m26.661 9.287-3.173-3.258 4.876.291a3.973 3.973 0 0 1-.109 1.908 4.1 4.1 0 0 1-1.594 1.059" transform="translate(-19.322 -2.013)" style="fill:#83ffd2"/>
                    <path data-name="패스 1372" d="M28 5.423h-4.49l3.648-3.335s1.083.794 1.237 1.429A4.321 4.321 0 0 1 28 5.423" transform="translate(-19.325 -1.453)" style="fill:#cfe"/>
                    <path data-name="패스 1373" d="M26.661 1.822 23.488 5.08l.283-5.006a3.674 3.674 0 0 1 1.859.112 4.239 4.239 0 0 1 1.03 1.636" transform="translate(-19.322 -1.157)" style="fill:#03d8be"/>
                </g>
            </g>
            <g data-name="그룹 1462">
                <g data-name="그룹 1461" style="clip-path:url(#rnpn22bwyb)" transform="translate(87.177 8.304)">
                    <path data-name="패스 1375" d="m23.5 1.8.671 1.4a.794.794 0 0 0 .6.445l1.5.224a.821.821 0 0 1 .44 1.391l-1.085 1.084a.83.83 0 0 0-.228.722l.256 1.534a.8.8 0 0 1-1.151.859l-1.342-.724a.773.773 0 0 0-.739 0l-1.342.724a.8.8 0 0 1-1.151-.859l.257-1.534a.83.83 0 0 0-.228-.722l-1.087-1.086a.821.821 0 0 1 .44-1.391l1.5-.224a.794.794 0 0 0 .6-.445l.671-1.4A.785.785 0 0 1 23.5 1.8z" transform="translate(-2.647 -.191)" style="stroke:#490a0a;stroke-miterlimit:10;stroke-width:.75px;fill:none"/>
                </g>
            </g>
        </g>
    </g>
</svg>
