<svg xmlns="http://www.w3.org/2000/svg" width="143" height="52" viewBox="0 0 143 52">
    <defs>
        <clipPath id="a3tsy2iq0b">
            <path data-name="사각형 1205" style="fill:none" d="M0 0h40v33.442H0z"/>
        </clipPath>
        <clipPath id="zvxpcrup6c">
            <path data-name="패스 1320" d="m20.823 10.417-1.25 2.534a1.477 1.477 0 0 1-1.114.808l-2.8.407a1.479 1.479 0 0 0-.82 2.524l2.022 1.972a1.482 1.482 0 0 1 .426 1.309l-.478 2.785a1.479 1.479 0 0 0 2.146 1.559L21.46 23a1.484 1.484 0 0 1 1.378 0l2.5 1.315a1.479 1.479 0 0 0 2.147-1.559l-.478-2.785a1.478 1.478 0 0 1 .426-1.309l2.022-1.972a1.48 1.48 0 0 0-.82-2.524l-2.8-.407a1.477 1.477 0 0 1-1.113-.808l-1.25-2.534a1.479 1.479 0 0 0-2.654 0" transform="translate(-14.394 -9.592)" style="fill:none"/>
        </clipPath>
        <linearGradient id="r7276qynva" x1="1.158" x2=".024" y2=".898" gradientUnits="objectBoundingBox">
            <stop offset="0" stop-color="#ffefae"/>
            <stop offset=".23" stop-color="#fff3c1"/>
            <stop offset=".49" stop-color="#ddc37a"/>
            <stop offset=".778" stop-color="#ffefae"/>
            <stop offset="1" stop-color="#b28846"/>
        </linearGradient>
    </defs>
    <g data-name="거래등급 골드띠포함">
        <g data-name="그룹 1569">
            <path data-name="패스 1195" d="M20 0h102a20 20 0 0 1 20 20v11a20 20 0 0 1-20 20H20A20 20 0 0 1 0 31V20A20 20 0 0 1 20 0" style="fill:url(#r7276qynva);stroke:#82692f" transform="translate(.5 .5)"/>
        </g>
        <g data-name="그룹 1570" style="opacity:.35;mix-blend-mode:overlay;isolation:isolate">
            <path data-name="패스 1195" d="M18.592 0h94.817C123.677 0 132 7.374 132 16.471v9.059c0 9.096-8.323 16.47-18.592 16.47H18.592C8.323 42 0 34.626 0 25.529v-9.058C0 7.374 8.323 0 18.592 0" transform="translate(5.5 5)" style="fill:#fff"/>
        </g>
        <g data-name="그룹 1571" style="opacity:.75">
            <path data-name="패스 1195" d="M18.592 0h94.817C123.677 0 132 7.374 132 16.471v9.059c0 9.096-8.323 16.47-18.592 16.47H18.592C8.323 42 0 34.626 0 25.529v-9.058C0 7.374 8.323 0 18.592 0" transform="translate(5.5 5)" style="stroke:#b28846;fill:none"/>
        </g>
        <text transform="translate(30.357 33.5)" style="font-size:20px;font-family:Pretendard-Bold,Pretendard;font-weight:700;fill:#b28846"><tspan x="0" y="0">골드</tspan></text>
        <g data-name="그룹 1572">
            <g data-name="그룹 1446">
                <g data-name="그룹 1445" style="clip-path:url(#a3tsy2iq0b)" transform="translate(87.643 10.57)">
                    <path data-name="패스 1287" d="M29.964 18.59a.421.421 0 0 1-.228-.066.427.427 0 0 1-.2-.359V14.17a.425.425 0 0 1 .244-.385L42.8 7.66a.824.824 0 0 1 1.176.746v1.032a4.119 4.119 0 0 1-2.357 3.713l-11.471 5.4a.424.424 0 0 1-.181.041" transform="translate(-4.399 -1.129)" style="fill:#ffefae"/>
                    <path data-name="패스 1288" d="M43.075 7.931a.4.4 0 0 1 .4.4v1.032a3.678 3.678 0 0 1-2.112 3.329l-11.472 5.4v-4L42.9 7.969a.4.4 0 0 1 .17-.038m0-.851a1.239 1.239 0 0 0-.532.119l-13.011 6.125a.852.852 0 0 0-.489.77v4a.851.851 0 0 0 1.214.77l11.472-5.4a4.548 4.548 0 0 0 2.6-4.1V8.331a1.252 1.252 0 0 0-1.25-1.251" transform="translate(-4.325 -1.054)" style="fill:#82692f"/>
                    <path data-name="패스 1289" d="M30.038 16.357v2.121l11.472-5.4a3.678 3.678 0 0 0 2.113-3.328v-.066z" transform="translate(-4.474 -1.442)" style="fill:#ddc37a"/>
                    <path data-name="패스 1290" d="M29.964 23.715a.421.421 0 0 1-.228-.066.427.427 0 0 1-.2-.359v-4a.425.425 0 0 1 .244-.385l13.02-6.121a.824.824 0 0 1 1.176.746v1.031a4.119 4.119 0 0 1-2.357 3.713l-11.471 5.4a.424.424 0 0 1-.181.041" transform="translate(-4.399 -1.892)" style="fill:#ffefae"/>
                    <path data-name="패스 1291" d="M43.075 13.056a.4.4 0 0 1 .4.4v1.031a3.678 3.678 0 0 1-2.112 3.329l-11.472 5.4v-4L42.9 13.094a.4.4 0 0 1 .17-.038m0-.851a1.245 1.245 0 0 0-.533.119l-13.01 6.125a.852.852 0 0 0-.489.77v4a.851.851 0 0 0 .851.851.862.862 0 0 0 .363-.081l11.472-5.4a4.548 4.548 0 0 0 2.6-4.1v-1.033a1.252 1.252 0 0 0-1.25-1.251" transform="translate(-4.325 -1.818)" style="fill:#82692f"/>
                    <path data-name="패스 1292" d="M30.038 21.482V23.6l11.472-5.4a3.678 3.678 0 0 0 2.112-3.329v-.066z" transform="translate(-4.474 -2.205)" style="fill:#ddc37a"/>
                    <path data-name="패스 1293" d="M29.964 28.839a.421.421 0 0 1-.228-.066.427.427 0 0 1-.2-.359v-3.995a.425.425 0 0 1 .244-.385l13.02-6.126a.824.824 0 0 1 1.176.746v1.032a4.119 4.119 0 0 1-2.36 3.714l-11.471 5.4a.424.424 0 0 1-.181.041" transform="translate(-4.399 -2.655)" style="fill:#ffefae"/>
                    <path data-name="패스 1294" d="M43.075 18.18a.4.4 0 0 1 .4.4v1.031a3.678 3.678 0 0 1-2.112 3.329l-11.472 5.4v-4L42.9 18.218a.4.4 0 0 1 .17-.038m0-.851a1.245 1.245 0 0 0-.533.119l-13.01 6.125a.852.852 0 0 0-.489.77v4a.851.851 0 0 0 .851.851.862.862 0 0 0 .363-.081l11.472-5.4a4.548 4.548 0 0 0 2.6-4.1V18.58a1.252 1.252 0 0 0-1.25-1.251" transform="translate(-4.325 -2.581)" style="fill:#82692f"/>
                    <path data-name="패스 1295" d="M30.038 26.606v2.121l11.472-5.4A3.678 3.678 0 0 0 43.623 20v-.066z" transform="translate(-4.474 -2.969)" style="fill:#ddc37a"/>
                    <path data-name="패스 1296" d="M14.51 18.59a.424.424 0 0 1-.181-.041l-11.472-5.4A4.12 4.12 0 0 1 .5 9.438V8.406a.824.824 0 0 1 1.176-.746l13.015 6.125a.425.425 0 0 1 .244.385v3.995a.427.427 0 0 1-.2.359.421.421 0 0 1-.228.066" transform="translate(-.074 -1.129)" style="fill:#ffefae"/>
                    <path data-name="패스 1297" d="M1.25 7.931a.4.4 0 0 1 .17.038l13.015 6.125v4l-11.472-5.4A3.678 3.678 0 0 1 .851 9.363V8.331a.4.4 0 0 1 .4-.4m0-.851A1.252 1.252 0 0 0 0 8.331v1.032a4.548 4.548 0 0 0 2.6 4.1l11.472 5.4a.851.851 0 0 0 1.214-.77v-4a.852.852 0 0 0-.489-.77L1.782 7.2a1.241 1.241 0 0 0-.532-.12" transform="translate(0 -1.054)" style="fill:#82692f"/>
                    <path data-name="패스 1298" d="M14.585 16.357v2.121l-11.472-5.4A3.678 3.678 0 0 1 1 9.75v-.066z" transform="translate(-.149 -1.442)" style="fill:#ddc37a"/>
                    <path data-name="패스 1299" d="M14.51 23.715a.424.424 0 0 1-.181-.041l-11.472-5.4A4.12 4.12 0 0 1 .5 14.562v-1.031a.824.824 0 0 1 1.176-.746l13.015 6.125a.425.425 0 0 1 .244.385v4a.427.427 0 0 1-.2.359.421.421 0 0 1-.228.066" transform="translate(-.074 -1.892)" style="fill:#ffefae"/>
                    <path data-name="패스 1300" d="M1.25 13.056a.4.4 0 0 1 .17.038l13.015 6.125v4l-11.472-5.4a3.678 3.678 0 0 1-2.112-3.331v-1.032a.4.4 0 0 1 .4-.4m0-.851A1.252 1.252 0 0 0 0 13.456v1.031a4.548 4.548 0 0 0 2.6 4.1l11.472 5.4a.851.851 0 0 0 1.214-.77v-4a.852.852 0 0 0-.489-.77L1.782 12.324a1.239 1.239 0 0 0-.532-.124" transform="translate(0 -1.818)" style="fill:#82692f"/>
                    <path data-name="패스 1301" d="M14.585 21.482V23.6L3.112 18.2A3.678 3.678 0 0 1 1 14.875v-.066z" transform="translate(-.149 -2.205)" style="fill:#ddc37a"/>
                    <path data-name="패스 1302" d="M14.51 28.839a.424.424 0 0 1-.181-.041L2.857 23.4A4.12 4.12 0 0 1 .5 19.687v-1.032a.824.824 0 0 1 1.176-.746l13.015 6.126a.425.425 0 0 1 .244.385v3.995a.427.427 0 0 1-.2.359.421.421 0 0 1-.228.066" transform="translate(-.074 -2.655)" style="fill:#ffefae"/>
                    <path data-name="패스 1303" d="M1.25 18.18a.4.4 0 0 1 .17.038l13.015 6.125v4L2.963 22.94a3.678 3.678 0 0 1-2.112-3.328V18.58a.4.4 0 0 1 .4-.4m0-.851A1.252 1.252 0 0 0 0 18.58v1.031a4.548 4.548 0 0 0 2.6 4.1l11.472 5.4a.851.851 0 0 0 1.214-.77v-4a.852.852 0 0 0-.489-.77L1.782 17.448a1.239 1.239 0 0 0-.532-.119" transform="translate(0 -2.581)" style="fill:#82692f"/>
                    <path data-name="패스 1304" d="M14.585 26.606v2.121l-11.472-5.4A3.678 3.678 0 0 1 1 20v-.066z" transform="translate(-.149 -2.969)" style="fill:#ddc37a"/>
                    <path data-name="패스 1305" d="M21.3 33.091a3.831 3.831 0 0 1-1.837-.472l-8.849-4.86A3.807 3.807 0 0 1 8.64 24.4l.068-15.319a3.809 3.809 0 0 1 2.011-3.344L19.637.955a3.8 3.8 0 0 1 3.639.017l8.85 4.861A3.813 3.813 0 0 1 34.1 9.194l-.069 15.316a3.813 3.813 0 0 1-2.012 3.345l-8.917 4.782a3.821 3.821 0 0 1-1.8.454m.136-29.7A.946.946 0 0 0 21 3.5l-8.916 4.78a.924.924 0 0 0-.489.814l-.069 15.316a.926.926 0 0 0 .481.818l8.849 4.86a.932.932 0 0 0 .447.116.939.939 0 0 0 .439-.111l8.916-4.782a.929.929 0 0 0 .489-.814l.069-15.315a.929.929 0 0 0-.482-.818L21.886 3.5a.926.926 0 0 0-.446-.116" transform="translate(-1.287 -.074)" style="fill:#ddc37a"/>
                    <path data-name="패스 1306" d="M21.365.851a3.385 3.385 0 0 1 1.635.42l8.849 4.86A3.387 3.387 0 0 1 33.6 9.117l-.069 15.316a3.385 3.385 0 0 1-1.784 2.967l-8.916 4.782a3.382 3.382 0 0 1-3.231-.012l-8.85-4.86a3.387 3.387 0 0 1-1.76-2.986l.069-15.315a3.385 3.385 0 0 1 1.787-2.972l8.917-4.782a3.389 3.389 0 0 1 1.6-.4m-.136 29.7a1.348 1.348 0 0 0 .64-.162l8.917-4.782a1.352 1.352 0 0 0 .714-1.186l.069-15.316a1.353 1.353 0 0 0-.7-1.192l-8.851-4.863a1.349 1.349 0 0 0-1.292-.006l-8.916 4.783a1.351 1.351 0 0 0-.714 1.186l-.068 15.317a1.352 1.352 0 0 0 .7 1.192l8.85 4.86a1.354 1.354 0 0 0 .651.168M21.365 0a4.257 4.257 0 0 0-2 .5l-8.921 4.787A4.235 4.235 0 0 0 8.208 9l-.069 15.32a4.236 4.236 0 0 0 2.2 3.735l8.849 4.86a4.23 4.23 0 0 0 4.045.02l8.917-4.782a4.234 4.234 0 0 0 2.236-3.717l.069-15.316a4.236 4.236 0 0 0-2.2-3.735l-8.85-4.86A4.248 4.248 0 0 0 21.365 0m-.136 29.7a.5.5 0 0 1-.242-.063l-8.849-4.86a.5.5 0 0 1-.26-.443l.067-15.314a.5.5 0 0 1 .265-.44l8.917-4.78a.5.5 0 0 1 .237-.06.507.507 0 0 1 .242.063l8.85 4.86a.5.5 0 0 1 .26.443l-.068 15.314a.5.5 0 0 1-.265.44l-8.917 4.782a.513.513 0 0 1-.238.06" transform="translate(-1.212)" style="fill:#82692f"/>
                    <path data-name="패스 1307" d="M11.531 24.839a1.354 1.354 0 0 0 .7 1.192l8.849 4.86a1.348 1.348 0 0 0 1.291.007l8.917-4.782A1.352 1.352 0 0 0 32 24.93l.069-15.317a1.353 1.353 0 0 0-.7-1.192l-8.849-4.86a1.349 1.349 0 0 0-1.292-.007l-8.915 4.782a1.353 1.353 0 0 0-.713 1.186z" transform="translate(-1.717 -.505)" style="fill:#ffefae"/>
                    <path data-name="패스 1308" d="M12.313 9.2a1.352 1.352 0 0 0-.714 1.186L11.531 25.7a1.353 1.353 0 0 0 .7 1.192l8.849 4.86a1.981 1.981 0 0 0 .78.168V18.838z" transform="translate(-1.717 -1.37)" style="fill:#b28846"/>
                    <path data-name="패스 1309" d="M23.671 18.838v13.086a1.981 1.981 0 0 0 .78-.168L33.3 26.9a1.355 1.355 0 0 0 .7-1.2l-.068-15.317a1.352 1.352 0 0 0-.711-1.183z" transform="translate(-3.525 -1.37)" style="fill:#ddc37a"/>
                    <path data-name="패스 1310" d="M21.8 3.318a1.359 1.359 0 0 1 .652.168l8.848 4.86a1.355 1.355 0 0 1 .7 1.193l-.07 15.316a1.352 1.352 0 0 1-.714 1.186L22.3 30.823a1.349 1.349 0 0 1-1.292-.006l-8.849-4.86a1.352 1.352 0 0 1-.7-1.192l.068-15.317a1.351 1.351 0 0 1 .714-1.186l8.917-4.782a1.348 1.348 0 0 1 .64-.162m0-.426a1.787 1.787 0 0 0-.842.212l-8.919 4.782a1.776 1.776 0 0 0-.938 1.56l-.068 15.316a1.778 1.778 0 0 0 .922 1.568l8.85 4.86a1.774 1.774 0 0 0 1.7.009l8.917-4.782a1.777 1.777 0 0 0 .939-1.56l.069-15.316a1.78 1.78 0 0 0-.928-1.568l-8.85-4.86a1.786 1.786 0 0 0-.856-.22" transform="translate(-1.643 -.431)" style="fill:#b28846"/>
                    <path data-name="패스 1311" d="m23.555 10.424 1.261 2.556a1.492 1.492 0 0 0 1.123.816l2.82.409a1.493 1.493 0 0 1 .827 2.546l-2.04 1.989a1.493 1.493 0 0 0-.43 1.321l.484 2.809a1.492 1.492 0 0 1-2.165 1.573l-2.523-1.326a1.49 1.49 0 0 0-1.389 0L19 24.443a1.492 1.492 0 0 1-2.165-1.573l.482-2.809a1.492 1.492 0 0 0-.429-1.321l-2.041-1.989a1.492 1.492 0 0 1 .827-2.546l2.82-.409a1.494 1.494 0 0 0 1.124-.816l1.261-2.556a1.492 1.492 0 0 1 2.676 0" transform="translate(-2.144 -1.429)" style="fill:#fafcfc"/>
                </g>
            </g>
            <g data-name="그룹 1448">
                <g data-name="그룹 1447" style="clip-path:url(#zvxpcrup6c)" transform="translate(99.961 18.791)">
                    <path data-name="패스 1312" d="M22.379 7.933V16.3l-6.053-6.8s1.441-2.018 2.595-2.306 3.459.742 3.459.742" transform="translate(-14.696 -9.209)" style="fill:#b28846"/>
                    <path data-name="패스 1313" d="m15.78 11.025 5.913 5.913-9.087-.527s-.408-2.446.2-3.465 2.971-1.921 2.971-1.921" transform="translate(-14.094 -9.816)" style="fill:#ffefae"/>
                    <path data-name="패스 1314" d="M13.3 18.133h8.363l-6.8 6.053s-2.018-1.441-2.306-2.595.742-3.459.742-3.459" transform="translate(-14.1 -10.927)" style="fill:#82692f"/>
                    <path data-name="패스 1315" d="m16.392 24.146 5.913-5.914-.527 9.088s-2.446.408-3.465-.2-1.921-2.971-1.921-2.971" transform="translate(-14.706 -10.942)" style="fill:#ddc37a"/>
                    <path data-name="패스 1316" d="M23.5 26.636v-8.363l6.053 6.8s-1.441 2.018-2.595 2.306-3.459-.742-3.459-.742" transform="translate(-15.817 -10.948)" style="fill:#82692f"/>
                    <path data-name="패스 1317" d="M29.513 24.146 23.6 18.232l9.088.527s.408 2.446-.2 3.465-2.971 1.921-2.971 1.921" transform="translate(-15.833 -10.942)" style="fill:#ddc37a"/>
                    <path data-name="패스 1318" d="M32 17.012h-8.36l6.8-6.053s2.018 1.441 2.306 2.595S32 17.012 32 17.012" transform="translate(-15.839 -9.806)" style="fill:#ffefae"/>
                    <path data-name="패스 1319" d="M29.513 10.413 23.6 16.326l.527-9.087s2.446-.408 3.465.2 1.921 2.971 1.921 2.971" transform="translate(-15.833 -9.203)" style="fill:#ddc37a"/>
                </g>
            </g>
            <g data-name="그룹 1450">
                <g data-name="그룹 1449" style="clip-path:url(#a3tsy2iq0b)" transform="translate(87.643 10.57)">
                    <path data-name="패스 1321" d="m23.555 10.424 1.261 2.556a1.492 1.492 0 0 0 1.123.816l2.82.409a1.493 1.493 0 0 1 .827 2.546l-2.04 1.989a1.493 1.493 0 0 0-.43 1.321l.484 2.809a1.492 1.492 0 0 1-2.165 1.573l-2.523-1.326a1.49 1.49 0 0 0-1.389 0L19 24.443a1.492 1.492 0 0 1-2.165-1.573l.482-2.809a1.492 1.492 0 0 0-.429-1.321l-2.041-1.989a1.492 1.492 0 0 1 .827-2.546l2.82-.409a1.494 1.494 0 0 0 1.124-.816l1.261-2.556a1.492 1.492 0 0 1 2.676 0z" transform="translate(-2.144 -1.429)" style="stroke-miterlimit:10;stroke-width:.75px;stroke:#82692f;fill:none"/>
                </g>
            </g>
        </g>
    </g>
</svg>
