<svg data-name="거래등급 실버" xmlns="http://www.w3.org/2000/svg" width="33.137" height="27.204" viewBox="0 0 33.137 27.204">
    <defs>
        <clipPath id="mb3bv7avxa">
            <path data-name="사각형 746" style="fill:none" d="M0 0h33.137v27.204H0z"/>
        </clipPath>
        <clipPath id="scwazjcpvb">
            <path data-name="패스 1021" d="m14.35 6.954-.988 2a1.17 1.17 0 0 1-.882.64l-2.211.321a1.17 1.17 0 0 0-.648 2l1.6 1.56a1.173 1.173 0 0 1 .336 1.036l-.377 2.2a1.17 1.17 0 0 0 1.7 1.234l1.978-1.04a1.174 1.174 0 0 1 1.089 0l1.979 1.04a1.17 1.17 0 0 0 1.7-1.234l-.378-2.2a1.168 1.168 0 0 1 .337-1.036l1.6-1.56a1.17 1.17 0 0 0-.648-2l-2.22-.315a1.166 1.166 0 0 1-.88-.64l-.989-2a1.17 1.17 0 0 0-2.1 0" transform="translate(-9.266 -6.302)" style="fill:none"/>
        </clipPath>
    </defs>
    <g data-name="그룹 605">
        <g data-name="그룹 604" style="clip-path:url(#mb3bv7avxa)">
            <path data-name="패스 988" d="M18.978 13.968a.56.56 0 0 1-.3-.085.542.542 0 0 1-.258-.459v-3.15a.543.543 0 0 1 .319-.493l10.505-4.83a.881.881 0 0 1 1.253.776v.815a3.452 3.452 0 0 1-2.026 3.116l-9.258 4.258a.565.565 0 0 1-.237.052" transform="translate(2.083 .426)" style="fill:#fafcfc"/>
            <path data-name="패스 989" d="M29.675 5.458a.319.319 0 0 1 .325.315v.813a2.9 2.9 0 0 1-1.705 2.625l-9.26 4.257v-3.15l10.505-4.83a.325.325 0 0 1 .137-.03m0-1.088a1.448 1.448 0 0 0-.611.134L18.559 9.333a1.087 1.087 0 0 0-.639.984v3.151a1.083 1.083 0 0 0 .516.919 1.14 1.14 0 0 0 1.071.065l9.26-4.258a4 4 0 0 0 2.344-3.608v-.813a1.422 1.422 0 0 0-1.436-1.4" transform="translate(2.026 .382)" style="fill:#7e8c8e"/>
            <path data-name="패스 990" d="M18.92 11.621v1.673l9.26-4.258a2.9 2.9 0 0 0 1.705-2.625v-.052z" transform="translate(2.139 .556)" style="fill:#ced6d8"/>
            <path data-name="패스 991" d="M18.978 17.13a.56.56 0 0 1-.3-.085.542.542 0 0 1-.258-.459v-3.15a.543.543 0 0 1 .319-.493l10.505-4.83a.883.883 0 0 1 1.256.777v.81a3.448 3.448 0 0 1-2.026 3.116l-9.258 4.258a.565.565 0 0 1-.237.052" transform="translate(2.083 .703)" style="fill:#fafcfc"/>
            <path data-name="패스 992" d="M29.675 8.62a.319.319 0 0 1 .325.315v.813a2.9 2.9 0 0 1-1.705 2.625l-9.26 4.258V13.48l10.503-4.83a.325.325 0 0 1 .137-.03m0-1.088a1.461 1.461 0 0 0-.611.134L18.559 12.5a1.087 1.087 0 0 0-.639.984v3.152a1.082 1.082 0 0 0 .516.918 1.132 1.132 0 0 0 1.071.065l9.26-4.257a4 4 0 0 0 2.344-3.609v-.818a1.422 1.422 0 0 0-1.436-1.4" transform="translate(2.026 .659)" style="fill:#7e8c8e"/>
            <path data-name="패스 993" d="M18.92 14.784v1.673l9.26-4.257a2.9 2.9 0 0 0 1.705-2.625v-.053z" transform="translate(2.139 .833)" style="fill:#ced6d8"/>
            <path data-name="패스 994" d="M18.978 20.293a.56.56 0 0 1-.3-.085.542.542 0 0 1-.258-.459V16.6a.543.543 0 0 1 .319-.493l10.505-4.829a.881.881 0 0 1 1.253.776v.813a3.448 3.448 0 0 1-2.026 3.116l-9.258 4.258a.565.565 0 0 1-.237.052" transform="translate(2.083 .98)" style="fill:#fafcfc"/>
            <path data-name="패스 995" d="M29.675 11.782A.319.319 0 0 1 30 12.1v.813a2.9 2.9 0 0 1-1.705 2.625l-9.26 4.258v-3.154l10.505-4.83a.325.325 0 0 1 .137-.03m0-1.088a1.448 1.448 0 0 0-.611.134l-10.505 4.83a1.087 1.087 0 0 0-.639.984v3.152a1.082 1.082 0 0 0 .516.918 1.132 1.132 0 0 0 1.071.065l9.26-4.258a4 4 0 0 0 2.344-3.608V12.1a1.422 1.422 0 0 0-1.436-1.4" transform="translate(2.026 .936)" style="fill:#7e8c8e"/>
            <path data-name="패스 996" d="M18.92 17.946v1.673l9.26-4.258a2.9 2.9 0 0 0 1.705-2.625v-.052z" transform="translate(2.139 1.11)" style="fill:#ced6d8"/>
            <path data-name="패스 997" d="M12.02 13.968a.565.565 0 0 1-.237-.052L2.525 9.658A3.452 3.452 0 0 1 .5 6.543v-.815a.87.87 0 0 1 .878-.859.881.881 0 0 1 .376.083l10.5 4.83a.543.543 0 0 1 .319.493v3.151a.542.542 0 0 1-.258.459.56.56 0 0 1-.3.085" transform="translate(.056 .426)" style="fill:#fafcfc"/>
            <path data-name="패스 998" d="M1.435 5.458a.325.325 0 0 1 .137.03l10.505 4.83v3.151l-9.26-4.257a2.9 2.9 0 0 1-1.7-2.625v-.814a.318.318 0 0 1 .322-.315m0-1.088A1.421 1.421 0 0 0 0 5.773v.813a4 4 0 0 0 2.343 3.608l9.26 4.258a1.14 1.14 0 0 0 1.071-.065 1.083 1.083 0 0 0 .516-.919v-3.15a1.087 1.087 0 0 0-.639-.984L2.046 4.5a1.448 1.448 0 0 0-.611-.134" transform="translate(0 .382)" style="fill:#7e8c8e"/>
            <path data-name="패스 999" d="M11.965 11.621v1.673l-9.26-4.258A2.9 2.9 0 0 1 1 6.411v-.052z" transform="translate(.113 .556)" style="fill:#ced6d8"/>
            <path data-name="패스 1000" d="M12.02 17.13a.565.565 0 0 1-.237-.052L2.525 12.82A3.448 3.448 0 0 1 .5 9.7v-.81a.87.87 0 0 1 .879-.858.881.881 0 0 1 .373.08l10.506 4.831a.543.543 0 0 1 .319.493v3.151a.542.542 0 0 1-.258.459.56.56 0 0 1-.3.085" transform="translate(.056 .703)" style="fill:#fafcfc"/>
            <path data-name="패스 1001" d="M1.435 8.62a.325.325 0 0 1 .137.03l10.505 4.83v3.152l-9.26-4.258a2.9 2.9 0 0 1-1.7-2.625v-.814a.318.318 0 0 1 .322-.315m0-1.088A1.421 1.421 0 0 0 0 8.935v.813a4 4 0 0 0 2.343 3.608l9.26 4.258a1.132 1.132 0 0 0 1.071-.065 1.082 1.082 0 0 0 .516-.918V13.48a1.087 1.087 0 0 0-.639-.984L2.046 7.666a1.444 1.444 0 0 0-.611-.134" transform="translate(0 .659)" style="fill:#7e8c8e"/>
            <path data-name="패스 1002" d="M11.965 14.784v1.673L2.705 12.2A2.9 2.9 0 0 1 1 9.574v-.052z" transform="translate(.113 .833)" style="fill:#ced6d8"/>
            <path data-name="패스 1003" d="M12.02 20.293a.565.565 0 0 1-.237-.052l-9.258-4.258A3.448 3.448 0 0 1 .5 12.868v-.813a.87.87 0 0 1 .878-.859.881.881 0 0 1 .376.083l10.5 4.829a.543.543 0 0 1 .319.493v3.151a.542.542 0 0 1-.258.459.56.56 0 0 1-.3.085" transform="translate(.056 .98)" style="fill:#fafcfc"/>
            <path data-name="패스 1004" d="M1.435 11.782a.325.325 0 0 1 .137.03l10.505 4.83v3.152l-9.26-4.258a2.9 2.9 0 0 1-1.7-2.625V12.1a.318.318 0 0 1 .322-.315m0-1.088A1.421 1.421 0 0 0 0 12.1v.813a4 4 0 0 0 2.343 3.608l9.26 4.258a1.132 1.132 0 0 0 1.071-.065 1.082 1.082 0 0 0 .516-.918v-3.154a1.087 1.087 0 0 0-.639-.984l-10.505-4.83a1.448 1.448 0 0 0-.611-.134" transform="translate(0 .936)" style="fill:#7e8c8e"/>
            <path data-name="패스 1005" d="M11.965 17.946v1.673l-9.26-4.258A2.9 2.9 0 0 1 1 12.736v-.052z" transform="translate(.113 1.11)" style="fill:#ced6d8"/>
            <path data-name="패스 1006" d="M15.957 26.618a3.372 3.372 0 0 1-1.583-.4l-7.142-3.832a3.2 3.2 0 0 1-1.709-2.833l.056-12.078a3.2 3.2 0 0 1 1.736-2.82l7.2-3.772A3.344 3.344 0 0 1 17.652.9l7.143 3.832A3.206 3.206 0 0 1 26.5 7.566l-.057 12.077a3.2 3.2 0 0 1-1.735 2.821l-7.2 3.77a3.354 3.354 0 0 1-1.557.384m.11-23.424a.543.543 0 0 0-.253.063l-7.2 3.77a.519.519 0 0 0-.283.458l-.046 12.079a.524.524 0 0 0 .277.462l7.144 3.833a.541.541 0 0 0 .258.065.568.568 0 0 0 .255-.062l7.2-3.772a.521.521 0 0 0 .283-.458l.055-12.079a.519.519 0 0 0-.277-.461L16.325 3.26a.543.543 0 0 0-.258-.066" transform="translate(.624 .044)" style="fill:#ebf1f2"/>
            <path data-name="패스 1007" d="M16.125 1.088a2.779 2.779 0 0 1 1.315.332l7.143 3.833A2.656 2.656 0 0 1 26 7.606l-.056 12.078a2.661 2.661 0 0 1-1.444 2.344L17.3 25.8a2.788 2.788 0 0 1-2.609-.013l-7.136-3.834A2.655 2.655 0 0 1 6.137 19.6l.055-12.079a2.659 2.659 0 0 1 1.442-2.343l7.2-3.772a2.789 2.789 0 0 1 1.294-.319m-.11 23.424a1.114 1.114 0 0 0 .515-.127l7.2-3.772a1.06 1.06 0 0 0 .575-.935l.05-12.077a1.061 1.061 0 0 0-.567-.941l-7.142-3.833a1.1 1.1 0 0 0-.524-.133 1.117 1.117 0 0 0-.519.127L8.41 6.593a1.058 1.058 0 0 0-.575.935l-.057 12.078a1.068 1.068 0 0 0 .567.941l7.143 3.832a1.116 1.116 0 0 0 .528.133M16.125 0A3.94 3.94 0 0 0 14.3.448L7.108 4.22a3.741 3.741 0 0 0-2.029 3.3l-.055 12.074a3.74 3.74 0 0 0 1.995 3.313l7.143 3.832a3.921 3.921 0 0 0 3.671.018l7.2-3.772a3.746 3.746 0 0 0 2.029-3.3l.056-12.078a3.743 3.743 0 0 0-2-3.313L17.976.465A3.932 3.932 0 0 0 16.125 0m-.11 23.421-7.133-3.828.066-12.061 7.185-3.753 7.124 3.833-.067 12.059z" transform="translate(.568)" style="fill:#7e8c8e"/>
            <path data-name="패스 1008" d="M7.5 19.389a1.067 1.067 0 0 0 .567.941l7.143 3.832a1.113 1.113 0 0 0 1.043.005l7.2-3.772a1.063 1.063 0 0 0 .577-.935l.056-12.078a1.066 1.066 0 0 0-.567-.941L16.37 2.609a1.113 1.113 0 0 0-1.043 0l-7.2 3.77a1.064 1.064 0 0 0-.575.936z" transform="translate(.848 .217)" style="fill:#fafcfc"/>
            <path data-name="패스 1009" d="M8.13 6.061A1.063 1.063 0 0 0 7.554 7L7.5 19.075a1.06 1.06 0 0 0 .567.94l7.143 3.833a1.633 1.633 0 0 0 .63.132V13.661z" transform="translate(.848 .53)" style="fill:#a7b5b7"/>
            <path data-name="패스 1010" d="M14.991 13.661v10.32a1.638 1.638 0 0 0 .63-.133l7.143-3.832a1.067 1.067 0 0 0 .567-.941L23.274 7a1.064 1.064 0 0 0-.575-.936z" transform="translate(1.695 .53)" style="fill:#ced6d8"/>
            <path data-name="패스 1011" d="M15.9 2.52a1.118 1.118 0 0 1 .526.133l7.143 3.832a1.067 1.067 0 0 1 .567.941L24.08 19.5a1.066 1.066 0 0 1-.577.936l-7.2 3.77a1.109 1.109 0 0 1-1.042-.005l-7.139-3.829a1.06 1.06 0 0 1-.567-.941L7.61 7.354a1.063 1.063 0 0 1 .577-.935l7.2-3.772a1.115 1.115 0 0 1 .513-.127m0-.544a1.677 1.677 0 0 0-.779.192l-7.2 3.77a1.606 1.606 0 0 0-.87 1.413L7 19.43a1.6 1.6 0 0 0 .855 1.419L15 24.682a1.684 1.684 0 0 0 1.574.008l7.2-3.772a1.606 1.606 0 0 0 .87-1.413L24.7 7.427a1.607 1.607 0 0 0-.855-1.419l-7.151-3.832a1.67 1.67 0 0 0-.794-.2" transform="translate(.791 .173)" style="fill:#a7b5b7"/>
            <path data-name="패스 1012" d="m16.659 6.959 1.018 2.015a1.2 1.2 0 0 0 .906.644l2.276.323a1.17 1.17 0 0 1 .668 2.008l-1.647 1.567a1.162 1.162 0 0 0-.346 1.042l.388 2.215a1.2 1.2 0 0 1-1.748 1.24l-2.036-1.045a1.228 1.228 0 0 0-1.121 0l-2.036 1.045a1.2 1.2 0 0 1-1.748-1.24l.388-2.215a1.159 1.159 0 0 0-.346-1.042L9.63 11.948a1.17 1.17 0 0 1 .67-2.007l2.276-.323a1.2 1.2 0 0 0 .907-.644L14.5 6.959a1.218 1.218 0 0 1 2.16 0" transform="translate(1.048 .551)" style="fill:#fafcfc"/>
        </g>
    </g>
    <g data-name="그룹 607">
        <g data-name="그룹 606" style="clip-path:url(#scwazjcpvb)" transform="translate(10.504 6.719)">
            <path data-name="패스 1013" d="M15.245 5.417v6.614l-4.787-5.377s1.14-1.6 2.051-1.824a6.062 6.062 0 0 1 2.736.587" transform="translate(-9.169 -6.425)" style="fill:#7e8c8e"/>
            <path data-name="패스 1014" d="m10.7 7.187 4.676 4.676-7.187-.417a5.562 5.562 0 0 1 .161-2.74 6.074 6.074 0 0 1 2.35-1.519" transform="translate(-9.362 -6.23)" style="fill:#ebf1f2"/>
            <path data-name="패스 1015" d="M8.729 11.573h6.614L9.966 16.36s-1.6-1.14-1.824-2.051a6.062 6.062 0 0 1 .587-2.736" transform="translate(-9.36 -5.874)" style="fill:#7e8c8e"/>
            <path data-name="패스 1016" d="m10.5 16.311 4.676-4.676-.417 7.187a5.562 5.562 0 0 1-2.74-.161 6.074 6.074 0 0 1-1.519-2.35" transform="translate(-9.165 -5.869)" style="fill:#a7b5b7"/>
            <path data-name="패스 1017" d="M14.885 18.274V11.66l4.787 5.377s-1.14 1.6-2.051 1.824a6.062 6.062 0 0 1-2.736-.587" transform="translate(-8.809 -5.867)" style="fill:#7e8c8e"/>
            <path data-name="패스 1018" d="m19.623 16.311-4.676-4.676 7.187.417a5.562 5.562 0 0 1-.161 2.74 6.074 6.074 0 0 1-2.35 1.519" transform="translate(-8.804 -5.869)" style="fill:#a7b5b7"/>
            <path data-name="패스 1019" d="M21.586 11.933h-6.614l5.377-4.787s1.6 1.14 1.824 2.051a6.062 6.062 0 0 1-.587 2.736" transform="translate(-8.802 -6.233)" style="fill:#ebf1f2"/>
            <path data-name="패스 1020" d="m19.623 7.384-4.676 4.676.417-7.187a5.562 5.562 0 0 1 2.74.161 6.074 6.074 0 0 1 1.519 2.35" transform="translate(-8.804 -6.427)" style="fill:#a7b5b7"/>
        </g>
    </g>
    <g data-name="그룹 609">
        <g data-name="그룹 608" style="clip-path:url(#mb3bv7avxa)">
            <path data-name="패스 1022" d="m16.659 6.959 1.018 2.015a1.2 1.2 0 0 0 .906.644l2.276.323a1.17 1.17 0 0 1 .668 2.008l-1.647 1.567a1.162 1.162 0 0 0-.346 1.042l.388 2.215a1.2 1.2 0 0 1-1.748 1.24l-2.036-1.045a1.228 1.228 0 0 0-1.121 0l-2.036 1.045a1.2 1.2 0 0 1-1.748-1.24l.388-2.215a1.159 1.159 0 0 0-.346-1.042L9.63 11.948a1.17 1.17 0 0 1 .67-2.007l2.276-.323a1.2 1.2 0 0 0 .907-.644L14.5 6.959a1.218 1.218 0 0 1 2.159 0z" transform="translate(1.048 .551)" style="stroke:#7e8c8e;stroke-miterlimit:10;stroke-width:.75px;fill:none"/>
        </g>
    </g>
</svg>
