<svg data-name="거래등급 다이아" xmlns="http://www.w3.org/2000/svg" width="32.5" height="27.611" viewBox="0 0 32.5 27.611">
    <defs>
        <clipPath id="aaub53le3a">
            <path data-name="사각형 769" style="fill:none" d="M0 0h32.5v27.611H0z"/>
        </clipPath>
        <clipPath id="8g2rkn85lb">
            <path data-name="패스 1423" d="M12.632 8.506a1.414 1.414 0 0 0-1.2.67L8.9 13.219a1.488 1.488 0 0 0 .107 1.728l6.963 8.517a1.4 1.4 0 0 0 2.15.032l7.367-8.487a1.492 1.492 0 0 0 .081-1.84L22.635 9.1a1.409 1.409 0 0 0-1.143-.591z" transform="translate(-8.678 -8.506)" style="fill:none"/>
        </clipPath>
        <clipPath id="1ygyaxjg4c">
            <path data-name="패스 1443" d="m16.618 1.356-.564 1.175a.674.674 0 0 1-.5.375l-1.266.194a.691.691 0 0 0-.37 1.17l.913.914a.7.7 0 0 1 .193.608l-.216 1.291a.672.672 0 0 0 .969.723l1.129-.609a.648.648 0 0 1 .622 0l1.13.609a.672.672 0 0 0 .969-.723l-.215-1.291a.7.7 0 0 1 .192-.608l.913-.914a.691.691 0 0 0-.37-1.17l-1.262-.189a.67.67 0 0 1-.5-.375l-.566-1.175a.66.66 0 0 0-1.2 0" transform="translate(-13.716 -.973)" style="fill:none"/>
        </clipPath>
        <clipPath id="nisdsb6o9d">
            <path data-name="패스 1454" d="m23.488 4.512-.45.936a.533.533 0 0 1-.4.3l-1.006.15a.55.55 0 0 0-.294.931l.727.728a.554.554 0 0 1 .153.483l-.172 1.028a.536.536 0 0 0 .773.576l.9-.485a.518.518 0 0 1 .495 0l.9.485a.534.534 0 0 0 .771-.576l-.172-1.028a.557.557 0 0 1 .153-.483l.727-.728A.549.549 0 0 0 26.3 5.9l-1.005-.15a.535.535 0 0 1-.4-.3l-.449-.936a.526.526 0 0 0-.954 0" transform="translate(-21.177 -4.208)" style="fill:none"/>
        </clipPath>
        <clipPath id="eohfa9yire">
            <path data-name="패스 1465" d="m9.994 4.512-.45.936a.535.535 0 0 1-.4.3L8.139 5.9a.55.55 0 0 0-.3.931l.727.728a.554.554 0 0 1 .153.483l-.166 1.025a.534.534 0 0 0 .771.576l.9-.485a.518.518 0 0 1 .5 0l.9.485a.535.535 0 0 0 .772-.576l-.172-1.028a.557.557 0 0 1 .153-.483l.728-.728A.55.55 0 0 0 12.8 5.9l-1-.153a.533.533 0 0 1-.4-.3l-.449-.936a.526.526 0 0 0-.954 0" transform="translate(-7.683 -4.208)" style="fill:none"/>
        </clipPath>
    </defs>
    <g data-name="그룹 697">
        <g data-name="그룹 696" style="clip-path:url(#aaub53le3a)">
            <path data-name="패스 1386" d="M20.349 12.367a.466.466 0 0 1-.252-.073.472.472 0 0 1-.219-.4V8.261a.472.472 0 0 1 .27-.427L31.992 2.26a.835.835 0 0 1 1.19.756v.939a3.834 3.834 0 0 1-2.192 3.454l-10.44 4.913a.469.469 0 0 1-.2.045" transform="translate(-1.152 -.126)" style="fill:#cef4d8"/>
            <path data-name="패스 1387" d="M32.318 2.623a.364.364 0 0 1 .364.364v.939a3.347 3.347 0 0 1-1.923 3.029L20.32 11.867V8.231l11.843-5.573a.368.368 0 0 1 .154-.035m0-.942a1.308 1.308 0 0 0-.556.124L19.919 7.379a.94.94 0 0 0-.541.852v3.636a.942.942 0 0 0 1.342.853l10.44-4.913a4.309 4.309 0 0 0 2.463-3.881v-.939a1.307 1.307 0 0 0-1.306-1.306" transform="translate(-1.123 -.097)" style="fill:#0a0444"/>
            <path data-name="패스 1388" d="M20.378 10.071V12l10.44-4.913a3.347 3.347 0 0 0 1.921-3.027V4z" transform="translate(-1.181 -.232)" style="fill:#064156"/>
            <path data-name="패스 1389" d="M31.564 28.264a.788.788 0 0 1-.333-.073l-10.139-4.774a.47.47 0 0 1-.27-.426V19.88a.472.472 0 0 1 .219-.4.466.466 0 0 1 .252-.073.471.471 0 0 1 .2.044l8.937 4.206a3.347 3.347 0 0 1 1.915 3.018v.8a.78.78 0 0 1-.782.782" transform="translate(-1.207 -1.125)" style="fill:#c7e3f9"/>
            <path data-name="패스 1390" d="m21.264 19.851 8.936 4.205a2.867 2.867 0 0 1 1.646 2.593v.8a.312.312 0 0 1-.312.312.306.306 0 0 1-.132-.03l-10.138-4.768zm0-.942a.942.942 0 0 0-.942.942v3.112a.943.943 0 0 0 .541.853L31 28.587a1.253 1.253 0 0 0 1.787-1.134v-.8A3.821 3.821 0 0 0 30.6 23.2L21.665 19a.94.94 0 0 0-.4-.089" transform="translate(-1.178 -1.096)" style="fill:#0a0444"/>
            <path data-name="패스 1391" d="M21.322 21.561v-1.652l8.937 4.206a2.866 2.866 0 0 1 1.641 2.593v.052z" transform="translate(-1.236 -1.154)" style="fill:#064156"/>
            <path data-name="패스 1392" d="M31.564 24.658a.788.788 0 0 1-.333-.073l-10.139-4.774a.47.47 0 0 1-.27-.426v-3.111a.472.472 0 0 1 .219-.4.466.466 0 0 1 .252-.073.471.471 0 0 1 .2.044l8.937 4.206a3.349 3.349 0 0 1 1.915 3.018v.8a.78.78 0 0 1-.782.782" transform="translate(-1.207 -.916)" style="fill:#c7e3f9"/>
            <path data-name="패스 1393" d="M21.264 16.245 30.2 20.45a2.867 2.867 0 0 1 1.646 2.593v.8a.312.312 0 0 1-.312.312.306.306 0 0 1-.132-.03l-10.138-4.768zm0-.942a.942.942 0 0 0-.942.942v3.112a.943.943 0 0 0 .541.853L31 24.981a1.253 1.253 0 0 0 1.787-1.134v-.8A3.822 3.822 0 0 0 30.6 19.6l-8.937-4.206a.94.94 0 0 0-.4-.089" transform="translate(-1.178 -.887)" style="fill:#0a0444"/>
            <path data-name="패스 1394" d="M21.322 17.954V16.3l8.937 4.206A2.866 2.866 0 0 1 31.9 23.1v.052z" transform="translate(-1.236 -.945)" style="fill:#6590ce"/>
            <path data-name="패스 1395" d="M2.226 28.264a.782.782 0 0 1-.782-.782v-.8a3.348 3.348 0 0 1 1.916-3.023l8.94-4.206a.471.471 0 0 1 .2-.044.466.466 0 0 1 .252.073.472.472 0 0 1 .219.4v3.112a.47.47 0 0 1-.27.426L2.559 28.19a.779.779 0 0 1-.333.074" transform="translate(-.084 -1.125)" style="fill:#c7e3f9"/>
            <path data-name="패스 1396" d="M12.469 19.851v3.112L2.33 27.735a.306.306 0 0 1-.132.03.312.312 0 0 1-.312-.312v-.8a2.867 2.867 0 0 1 1.646-2.593zm0-.942a.94.94 0 0 0-.4.089L3.13 23.2a3.821 3.821 0 0 0-2.186 3.45v.8a1.253 1.253 0 0 0 1.787 1.134l10.139-4.768a.943.943 0 0 0 .541-.853v-3.112a.942.942 0 0 0-.942-.942" transform="translate(-.055 -1.096)" style="fill:#0a0444"/>
            <path data-name="패스 1397" d="M12.527 21.561v-1.652L3.59 24.115a2.866 2.866 0 0 0-1.646 2.592v.052z" transform="translate(-.113 -1.154)" style="fill:#064156"/>
            <path data-name="패스 1398" d="M2.226 24.658a.782.782 0 0 1-.782-.782v-.8a3.35 3.35 0 0 1 1.916-3.023l8.94-4.206a.471.471 0 0 1 .2-.044.466.466 0 0 1 .252.073.472.472 0 0 1 .219.4v3.112a.47.47 0 0 1-.27.426l-10.142 4.77a.779.779 0 0 1-.333.074" transform="translate(-.084 -.916)" style="fill:#c7e3f9"/>
            <path data-name="패스 1399" d="M12.469 16.245v3.112L2.33 24.129a.306.306 0 0 1-.132.03.312.312 0 0 1-.312-.312v-.8a2.867 2.867 0 0 1 1.646-2.597zm0-.942a.94.94 0 0 0-.4.089L3.13 19.6a3.822 3.822 0 0 0-2.186 3.444v.8a1.253 1.253 0 0 0 1.787 1.134L12.87 20.21a.943.943 0 0 0 .541-.853v-3.112a.942.942 0 0 0-.942-.942" transform="translate(-.055 -.887)" style="fill:#0a0444"/>
            <path data-name="패스 1400" d="M12.527 17.954V16.3L3.59 20.508A2.866 2.866 0 0 0 1.944 23.1v.052z" transform="translate(-.113 -.945)" style="fill:#6590ce"/>
            <path data-name="패스 1401" d="M20.349 16.579a.466.466 0 0 1-.252-.073.472.472 0 0 1-.219-.4v-3.633a.472.472 0 0 1 .27-.427l11.844-5.573a.833.833 0 0 1 1.19.755v.939a3.832 3.832 0 0 1-2.192 3.454l-10.44 4.913a.469.469 0 0 1-.2.045" transform="translate(-1.152 -.37)" style="fill:#c7e3f9"/>
            <path data-name="패스 1402" d="M32.318 6.835a.364.364 0 0 1 .364.365v.939a3.347 3.347 0 0 1-1.923 3.029L20.32 16.079v-3.635l11.843-5.573a.369.369 0 0 1 .154-.036m0-.942a1.3 1.3 0 0 0-.556.125l-11.842 5.573a.942.942 0 0 0-.541.853v3.635a.942.942 0 0 0 1.342.853l10.44-4.913a4.307 4.307 0 0 0 2.463-3.88V7.2a1.308 1.308 0 0 0-1.306-1.307" transform="translate(-1.123 -.341)" style="fill:#0a0444"/>
            <path data-name="패스 1403" d="M20.378 14.284v1.929l10.44-4.913a3.347 3.347 0 0 0 1.922-3.028v-.06z" transform="translate(-1.181 -.476)" style="fill:#6590ce"/>
            <path data-name="패스 1404" d="M20.349 20.792a.466.466 0 0 1-.252-.073.472.472 0 0 1-.219-.4v-3.633a.472.472 0 0 1 .27-.427l11.843-5.573a.833.833 0 0 1 1.19.755v.939a3.832 3.832 0 0 1-2.192 3.454L20.55 20.747a.469.469 0 0 1-.2.045" transform="translate(-1.152 -.615)" style="fill:#fceeff"/>
            <path data-name="패스 1405" d="M32.318 11.048a.364.364 0 0 1 .364.364v.939a3.347 3.347 0 0 1-1.923 3.029L20.32 20.292v-3.636l11.843-5.573a.368.368 0 0 1 .154-.035m0-.942a1.308 1.308 0 0 0-.556.124L19.919 15.8a.94.94 0 0 0-.541.852v3.636a.942.942 0 0 0 1.342.853l10.44-4.913a4.309 4.309 0 0 0 2.463-3.881v-.939a1.307 1.307 0 0 0-1.306-1.306" transform="translate(-1.123 -.586)" style="fill:#0a0444"/>
            <path data-name="패스 1406" d="M20.378 18.5v1.929l10.44-4.913a3.347 3.347 0 0 0 1.922-3.028v-.061z" transform="translate(-1.181 -.72)" style="fill:#d778ff"/>
            <path data-name="패스 1407" d="M13.332 12.367a.469.469 0 0 1-.2-.045L2.692 7.409A3.834 3.834 0 0 1 .5 3.955v-.939a.835.835 0 0 1 1.19-.756l11.843 5.574a.472.472 0 0 1 .27.427V11.9a.472.472 0 0 1-.219.4.466.466 0 0 1-.252.073" transform="translate(-.029 -.126)" style="fill:#fceeff"/>
            <path data-name="패스 1408" d="M1.306 2.623a.368.368 0 0 1 .154.035L13.3 8.231v3.636L2.865 6.954A3.347 3.347 0 0 1 .942 3.926v-.939a.364.364 0 0 1 .364-.364m0-.942A1.307 1.307 0 0 0 0 2.987v.939a4.309 4.309 0 0 0 2.463 3.881L12.9 12.72a.947.947 0 0 0 .4.089.942.942 0 0 0 .942-.942V8.231a.94.94 0 0 0-.541-.852L1.861 1.805a1.308 1.308 0 0 0-.556-.124" transform="translate(0 -.097)" style="fill:#0a0444"/>
            <path data-name="패스 1409" d="M13.361 10.071V12L2.922 7.088A3.347 3.347 0 0 1 1 4.06V4z" transform="translate(-.058 -.232)" style="fill:#d778ff"/>
            <path data-name="패스 1410" d="M13.332 16.579a.469.469 0 0 1-.2-.045l-10.44-4.913A3.832 3.832 0 0 1 .5 8.167v-.939a.833.833 0 0 1 1.19-.755l11.843 5.573a.472.472 0 0 1 .27.427v3.635a.472.472 0 0 1-.219.4.466.466 0 0 1-.252.073" transform="translate(-.029 -.37)" style="fill:#cef4d8"/>
            <path data-name="패스 1411" d="M1.306 6.835a.369.369 0 0 1 .154.036l11.84 5.573v3.635L2.865 11.167A3.347 3.347 0 0 1 .942 8.139V7.2a.364.364 0 0 1 .364-.365m0-.942A1.308 1.308 0 0 0 0 7.2v.939a4.307 4.307 0 0 0 2.463 3.88L12.9 16.932a.942.942 0 0 0 1.342-.853v-3.635a.942.942 0 0 0-.541-.853L1.861 6.018a1.3 1.3 0 0 0-.556-.125" transform="translate(0 -.341)" style="fill:#0a0444"/>
            <path data-name="패스 1412" d="M13.361 14.284v1.929L2.922 11.3A3.347 3.347 0 0 1 1 8.273v-.061z" transform="translate(-.058 -.476)" style="fill:#064156"/>
            <path data-name="패스 1413" d="M13.332 20.792a.469.469 0 0 1-.2-.045l-10.44-4.913A3.832 3.832 0 0 1 .5 12.38v-.939a.833.833 0 0 1 1.19-.755l11.843 5.573a.472.472 0 0 1 .27.427v3.635a.472.472 0 0 1-.219.4.466.466 0 0 1-.252.073" transform="translate(-.029 -.615)" style="fill:#fceeff"/>
            <path data-name="패스 1414" d="M1.306 11.048a.368.368 0 0 1 .154.035l11.84 5.573v3.636L2.865 15.379a3.347 3.347 0 0 1-1.923-3.028v-.939a.364.364 0 0 1 .364-.364m0-.942A1.307 1.307 0 0 0 0 11.412v.939a4.309 4.309 0 0 0 2.463 3.881L12.9 21.145a.942.942 0 0 0 1.342-.853v-3.636a.94.94 0 0 0-.542-.856L1.861 10.23a1.308 1.308 0 0 0-.556-.124" transform="translate(0 -.586)" style="fill:#0a0444"/>
            <path data-name="패스 1415" d="M13.361 18.5v1.929L2.922 15.514A3.347 3.347 0 0 1 1 12.486v-.061z" transform="translate(-.058 -.72)" style="fill:#6a56e2"/>
            <path data-name="패스 1416" d="M12.4 8.505h8.35a1.327 1.327 0 0 1 1.076.557l2.768 3.838a1.4 1.4 0 0 1-.076 1.733l-6.939 7.994a1.317 1.317 0 0 1-2.025-.03l-6.56-8.023a1.4 1.4 0 0 1-.1-1.628l2.384-3.809a1.333 1.333 0 0 1 1.122-.632" transform="translate(-.503 -.493)" style="fill:#fceeff"/>
        </g>
    </g>
    <g data-name="그룹 699">
        <g data-name="그룹 698" style="clip-path:url(#8g2rkn85lb)" transform="translate(7.677 7.461)">
            <path data-name="패스 1417" d="m17.008 8.73-3.191 5.315h6.561z" transform="translate(-8.678 -8.506)" style="fill:#cef4d8"/>
            <path data-name="패스 1418" d="m7.565 13.865 6.079.18-3.281-5.834z" transform="translate(-8.678 -8.506)" style="fill:#c7e3f9"/>
            <path data-name="패스 1419" d="m26.624 13.865-6.079.18 3.281-5.834z" transform="translate(-8.678 -8.506)" style="fill:#d778ff"/>
            <path data-name="패스 1420" d="m13.816 14.352 2.416 10.276h1.725l2.416-10.276z" transform="translate(-8.678 -8.506)" style="fill:#d778ff"/>
            <path data-name="패스 1421" d="m20.718 14.352-2.071 9.213 7.938-9.213z" transform="translate(-8.678 -8.506)" style="fill:#c7e3f9"/>
            <path data-name="패스 1422" d="m13.471 14.352 2.071 9.213L7.6 14.352z" transform="translate(-8.678 -8.506)" style="fill:#6a56e2"/>
        </g>
    </g>
    <g data-name="그룹 701">
        <g data-name="그룹 700" style="clip-path:url(#aaub53le3a)">
            <path data-name="패스 1424" d="m22.612 8.977 2.768 3.837a1.407 1.407 0 0 1 .068 1.532h2.068a3.461 3.461 0 0 0-.568-2.724l-2.769-3.836a3.323 3.323 0 0 0-.737-.735l-1.273 1.536a1.34 1.34 0 0 1 .443.391" transform="translate(-1.285 -.409)" style="fill:#c7e3f9"/>
            <path data-name="패스 1425" d="m22.612 8.977 2.768 3.837a1.407 1.407 0 0 1 .068 1.532h2.068a3.461 3.461 0 0 0-.568-2.724l-2.769-3.836a3.323 3.323 0 0 0-.737-.735l-1.273 1.536a1.34 1.34 0 0 1 .443.39z" transform="translate(-1.285 -.409)" style="stroke:#0a0444;stroke-miterlimit:10;stroke-width:.75px;fill:none"/>
            <path data-name="패스 1426" d="M25.153 14.8a1.436 1.436 0 0 1-.145.2l-6.939 7.994a1.311 1.311 0 0 1-.972.458v2a3.255 3.255 0 0 0 2.429-1.129l6.94-7.994a3.412 3.412 0 0 0 .756-1.535z" transform="translate(-.991 -.857)" style="fill:#6a56e2"/>
            <path data-name="패스 1427" d="M25.153 14.8a1.436 1.436 0 0 1-.145.2l-6.939 7.994a1.311 1.311 0 0 1-.972.458v2a3.255 3.255 0 0 0 2.429-1.129l6.94-7.994a3.412 3.412 0 0 0 .756-1.535z" transform="translate(-.991 -.857)" style="stroke:#0a0444;stroke-miterlimit:10;stroke-width:.75px;fill:none"/>
            <path data-name="패스 1428" d="M16.467 23.451a1.319 1.319 0 0 1-1.026-.491L8.88 14.938a1.615 1.615 0 0 1-.1-.143H6.693a3.427 3.427 0 0 0 .693 1.431l6.56 8.022a3.248 3.248 0 0 0 2.52 1.206h.026v-2h-.026" transform="translate(-.388 -.857)" style="fill:#cef4d8"/>
            <path data-name="패스 1429" d="M16.467 23.451a1.319 1.319 0 0 1-1.026-.491L8.88 14.938a1.615 1.615 0 0 1-.1-.143H6.693a3.427 3.427 0 0 0 .693 1.431l6.56 8.022a3.248 3.248 0 0 0 2.52 1.206h.026v-2z" transform="translate(-.388 -.857)" style="stroke:#0a0444;stroke-miterlimit:10;stroke-width:.75px;fill:none"/>
            <path data-name="패스 1430" d="M12.509 8.382h8.347a1.306 1.306 0 0 1 .633.166l1.274-1.536a3.238 3.238 0 0 0-1.907-.633h-8.347a3.217 3.217 0 0 0-2.07.759L11.7 8.662a1.313 1.313 0 0 1 .806-.28" transform="translate(-.605 -.37)" style="fill:#d778ff"/>
            <path data-name="패스 1431" d="M12.509 8.382h8.347a1.306 1.306 0 0 1 .633.166l1.274-1.536a3.238 3.238 0 0 0-1.907-.633h-8.347a3.217 3.217 0 0 0-2.07.759L11.7 8.662a1.313 1.313 0 0 1 .809-.28z" transform="translate(-.605 -.37)" style="stroke:#0a0444;stroke-miterlimit:10;stroke-width:.75px;fill:none"/>
            <path data-name="패스 1432" d="m8.775 12.869 2.385-3.808a1.379 1.379 0 0 1 .319-.352l-1.263-1.523a3.352 3.352 0 0 0-.7.791l-2.382 3.809a3.444 3.444 0 0 0-.446 2.569h2.089a1.4 1.4 0 0 1 0-1.486" transform="translate(-.383 -.416)" style="fill:#ffd67b"/>
            <path data-name="패스 1433" d="m8.775 12.869 2.385-3.808a1.379 1.379 0 0 1 .319-.352l-1.263-1.523a3.352 3.352 0 0 0-.7.791l-2.382 3.809a3.444 3.444 0 0 0-.446 2.569h2.089a1.4 1.4 0 0 1-.002-1.486z" transform="translate(-.383 -.416)" style="stroke:#0a0444;stroke-miterlimit:10;stroke-width:.75px;fill:none"/>
            <path data-name="패스 1434" d="m17.579 1.334.532 1.107a.629.629 0 0 0 .474.353l1.19.178a.651.651 0 0 1 .349 1.1l-.861.861a.66.66 0 0 0-.181.573l.2 1.216a.633.633 0 0 1-.914.681l-1.064-.575a.616.616 0 0 0-.586 0l-1.064.575a.633.633 0 0 1-.914-.681l.2-1.216a.66.66 0 0 0-.181-.573l-.861-.861a.651.651 0 0 1 .349-1.1l1.19-.178a.629.629 0 0 0 .474-.353l.532-1.107a.622.622 0 0 1 1.129 0" transform="translate(-.795 -.056)" style="fill:#fff"/>
        </g>
    </g>
    <g data-name="그룹 703">
        <g data-name="그룹 702" style="clip-path:url(#1ygyaxjg4c)" transform="translate(12.718 .973)">
            <path data-name="패스 1435" d="M17.185.382V4.26l-2.734-3.153S15.1.172 15.623.038a3.383 3.383 0 0 1 1.562.344" transform="translate(-13.716 -.973)" style="fill:#6590ce"/>
            <path data-name="패스 1436" d="m14.476 1.534 2.671 2.742-4.1-.244a3.347 3.347 0 0 1 .092-1.607 3.453 3.453 0 0 1 1.342-.891" transform="translate(-13.716 -.973)" style="fill:#c7e3f9"/>
            <path data-name="패스 1437" d="M13.355 4.315h3.777l-3.071 2.807s-.911-.668-1.041-1.2a3.636 3.636 0 0 1 .335-1.6" transform="translate(-13.716 -.973)" style="fill:#d778ff"/>
            <path data-name="패스 1438" d="m14.476 7.1 2.671-2.742-.238 4.214a3.1 3.1 0 0 1-1.565-.094 3.568 3.568 0 0 1-.868-1.378" transform="translate(-13.716 -.973)" style="fill:#fceeff"/>
            <path data-name="패스 1439" d="M17.185 8.248V4.37l2.734 3.153s-.651.935-1.172 1.069a3.383 3.383 0 0 1-1.562-.344" transform="translate(-13.716 -.973)" style="fill:#6a56e2"/>
            <path data-name="패스 1440" d="m19.894 7.1-2.671-2.746 4.1.244a3.347 3.347 0 0 1-.087 1.602 3.453 3.453 0 0 1-1.342.891" transform="translate(-13.716 -.973)" style="fill:#ffd67b"/>
            <path data-name="패스 1441" d="M21.016 4.315h-3.777l3.071-2.807s.911.668 1.041 1.2a3.636 3.636 0 0 1-.335 1.6" transform="translate(-13.716 -.973)" style="fill:#fff7c7"/>
            <path data-name="패스 1442" d="m19.894 1.534-2.671 2.742.238-4.214a3.1 3.1 0 0 1 1.565.094 3.568 3.568 0 0 1 .868 1.378" transform="translate(-13.716 -.973)" style="fill:#fceeff"/>
        </g>
    </g>
    <g data-name="그룹 705">
        <g data-name="그룹 704" style="clip-path:url(#aaub53le3a)">
            <path data-name="패스 1444" d="m17.579 1.334.532 1.107a.629.629 0 0 0 .474.353l1.19.178a.651.651 0 0 1 .349 1.1l-.861.861a.66.66 0 0 0-.181.573l.2 1.216a.633.633 0 0 1-.914.681l-1.064-.575a.616.616 0 0 0-.586 0l-1.064.575a.633.633 0 0 1-.914-.681l.2-1.216a.66.66 0 0 0-.181-.573l-.861-.861a.651.651 0 0 1 .349-1.1l1.19-.178a.629.629 0 0 0 .474-.353l.532-1.107a.622.622 0 0 1 1.136 0z" transform="translate(-.795 -.056)" style="stroke:#0a0444;stroke-miterlimit:10;stroke-width:.75px;fill:none"/>
            <path data-name="패스 1445" d="m24.253 4.494.424.882a.506.506 0 0 0 .377.282L26 5.8a.518.518 0 0 1 .278.877l-.685.687a.519.519 0 0 0-.144.455l.161.968a.5.5 0 0 1-.726.542l-.847-.457a.488.488 0 0 0-.466 0l-.847.457A.5.5 0 0 1 22 8.785l.162-.968a.525.525 0 0 0-.144-.455l-.686-.687a.518.518 0 0 1 .278-.877l.947-.14a.51.51 0 0 0 .378-.282l.423-.882a.5.5 0 0 1 .9 0" transform="translate(-1.228 -.244)" style="fill:#fff"/>
        </g>
    </g>
    <g data-name="그룹 707">
        <g data-name="그룹 706" style="clip-path:url(#nisdsb6o9d)" transform="translate(19.712 4.208)">
            <path data-name="패스 1446" d="M23.939 3.737v3.087l-2.176-2.51s.518-.744.933-.851a2.7 2.7 0 0 1 1.243.274" transform="translate(-21.177 -4.208)" style="fill:#6590ce"/>
            <path data-name="패스 1447" d="m21.783 4.654 2.126 2.183-3.267-.195a2.659 2.659 0 0 1 .073-1.279 2.749 2.749 0 0 1 1.068-.709" transform="translate(-21.177 -4.208)" style="fill:#c7e3f9"/>
            <path data-name="패스 1448" d="M20.89 6.868h3.01L21.452 9.1s-.725-.532-.829-.957a2.9 2.9 0 0 1 .267-1.277" transform="translate(-21.177 -4.208)" style="fill:#d778ff"/>
            <path data-name="패스 1449" d="M21.783 9.082 23.909 6.9l-.19 3.355a2.469 2.469 0 0 1-1.245-.075 2.839 2.839 0 0 1-.691-1.1" transform="translate(-21.177 -4.208)" style="fill:#fceeff"/>
            <path data-name="패스 1450" d="M23.939 10V6.912l2.176 2.51s-.518.744-.933.851A2.7 2.7 0 0 1 23.939 10" transform="translate(-21.177 -4.208)" style="fill:#6a56e2"/>
            <path data-name="패스 1451" d="M26.095 9.082 23.969 6.9l3.267.195a2.659 2.659 0 0 1-.073 1.279 2.749 2.749 0 0 1-1.068.709" transform="translate(-21.177 -4.208)" style="fill:#ffd67b"/>
            <path data-name="패스 1452" d="M26.988 6.868h-3.006l2.444-2.234s.725.532.829.957a2.9 2.9 0 0 1-.267 1.277" transform="translate(-21.177 -4.208)" style="fill:#fff7c7"/>
            <path data-name="패스 1453" d="m26.095 4.654-2.126 2.183.19-3.355a2.469 2.469 0 0 1 1.245.075 2.839 2.839 0 0 1 .691 1.1" transform="translate(-21.177 -4.208)" style="fill:#fceeff"/>
        </g>
    </g>
    <g data-name="그룹 709">
        <g data-name="그룹 708" style="clip-path:url(#aaub53le3a)">
            <path data-name="패스 1455" d="m24.253 4.494.424.882a.506.506 0 0 0 .377.282L26 5.8a.518.518 0 0 1 .278.877l-.685.687a.519.519 0 0 0-.144.455l.161.968a.5.5 0 0 1-.726.542l-.847-.457a.488.488 0 0 0-.466 0l-.847.457A.5.5 0 0 1 22 8.785l.162-.968a.525.525 0 0 0-.144-.455l-.686-.687a.518.518 0 0 1 .278-.877l.947-.14a.51.51 0 0 0 .378-.282l.423-.882a.5.5 0 0 1 .895 0z" transform="translate(-1.228 -.244)" style="stroke:#0a0444;stroke-miterlimit:10;stroke-width:.75px;fill:none"/>
            <path data-name="패스 1456" d="m10.758 4.494.424.882a.506.506 0 0 0 .377.282l.947.14a.518.518 0 0 1 .278.877l-.685.687a.519.519 0 0 0-.144.455l.161.968a.5.5 0 0 1-.726.542l-.847-.457a.488.488 0 0 0-.466 0l-.847.457a.5.5 0 0 1-.73-.542l.162-.968a.525.525 0 0 0-.144-.455l-.686-.687a.518.518 0 0 1 .28-.875l.947-.14a.51.51 0 0 0 .378-.282l.423-.882a.5.5 0 0 1 .9 0" transform="translate(-.445 -.244)" style="fill:#fff"/>
        </g>
    </g>
    <g data-name="그룹 711">
        <g data-name="그룹 710" style="clip-path:url(#eohfa9yire)" transform="translate(7.152 4.208)">
            <path data-name="패스 1457" d="M10.445 3.737v3.087l-2.176-2.51s.518-.744.933-.851a2.7 2.7 0 0 1 1.243.274" transform="translate(-7.683 -4.208)" style="fill:#6590ce"/>
            <path data-name="패스 1458" d="m8.288 4.654 2.126 2.183-3.267-.195a2.659 2.659 0 0 1 .073-1.279 2.749 2.749 0 0 1 1.068-.709" transform="translate(-7.683 -4.208)" style="fill:#c7e3f9"/>
            <path data-name="패스 1459" d="M7.395 6.868H10.4L7.957 9.1s-.725-.532-.829-.957a2.9 2.9 0 0 1 .267-1.277" transform="translate(-7.683 -4.208)" style="fill:#d778ff"/>
            <path data-name="패스 1460" d="M8.288 9.082 10.414 6.9l-.19 3.355a2.469 2.469 0 0 1-1.245-.075 2.839 2.839 0 0 1-.691-1.1" transform="translate(-7.683 -4.208)" style="fill:#fceeff"/>
            <path data-name="패스 1461" d="M10.445 10V6.912l2.176 2.51s-.518.744-.933.851A2.7 2.7 0 0 1 10.445 10" transform="translate(-7.683 -4.208)" style="fill:#6a56e2"/>
            <path data-name="패스 1462" d="M12.6 9.082 10.475 6.9l3.267.195a2.659 2.659 0 0 1-.073 1.279 2.749 2.749 0 0 1-1.068.709" transform="translate(-7.683 -4.208)" style="fill:#ffd67b"/>
            <path data-name="패스 1463" d="M13.494 6.868h-3.006l2.444-2.234s.725.532.829.957a2.9 2.9 0 0 1-.267 1.277" transform="translate(-7.683 -4.208)" style="fill:#fff7c7"/>
            <path data-name="패스 1464" d="m12.6 4.654-2.125 2.183.19-3.355a2.469 2.469 0 0 1 1.245.075 2.839 2.839 0 0 1 .691 1.1" transform="translate(-7.683 -4.208)" style="fill:#fceeff"/>
        </g>
    </g>
    <g data-name="그룹 713">
        <g data-name="그룹 712" style="clip-path:url(#aaub53le3a)">
            <path data-name="패스 1466" d="m10.758 4.494.424.882a.506.506 0 0 0 .377.282l.947.14a.518.518 0 0 1 .278.877l-.685.687a.519.519 0 0 0-.144.455l.161.968a.5.5 0 0 1-.726.542l-.847-.457a.488.488 0 0 0-.466 0l-.847.457a.5.5 0 0 1-.73-.542l.162-.968a.525.525 0 0 0-.144-.455l-.686-.687a.518.518 0 0 1 .28-.875l.947-.14a.51.51 0 0 0 .378-.282l.423-.882a.5.5 0 0 1 .898-.002z" transform="translate(-.445 -.244)" style="stroke:#0a0444;stroke-miterlimit:10;stroke-width:.75px;fill:none"/>
        </g>
    </g>
</svg>
