<svg xmlns="http://www.w3.org/2000/svg" width="17.4" height="13.9" viewBox="0 0 17.4 13.9">
    <path d="M3.958 13.9V8.845h-2A1.949 1.949 0 0 1 .588 8.3 1.7 1.7 0 0 1 0 7.02V4.955a1.7 1.7 0 0 1 .588-1.28 1.949 1.949 0 0 1 1.373-.549H7.63L13.264 0v11.971L7.63 8.845h-2.6V13.9zm2.674-7.914zM15.8 9.843V2.128a4.665 4.665 0 0 1 1.159 1.646 5.709 5.709 0 0 1 0 4.423A4.665 4.665 0 0 1 15.8 9.843zM1.961 4.157a.845.845 0 0 0-.588.249.741.741 0 0 0-.267.549v2.062a.741.741 0 0 0 .267.549.845.845 0 0 0 .588.249h5.955l4.243 2.361V1.8L7.916 4.161z"/>
</svg>
