<svg xmlns="http://www.w3.org/2000/svg" width="21" height="21" viewBox="0 0 21 21">
    <path d="M19.921 14.771a.912.912 0 0 0 .691-.292 1.1 1.1 0 0 0 0-1.458.964.964 0 0 0-1.382 0 1.1 1.1 0 0 0 0 1.458.912.912 0 0 0 .691.292zm-8.842-2.917h5.526v-1.312h-5.526zM7.625 26q-.884-3.179-1.755-6.344A24.359 24.359 0 0 1 5 13.167a5.8 5.8 0 0 1 1.6-4.142 5.2 5.2 0 0 1 3.924-1.692h5.8a6.019 6.019 0 0 1 1.81-1.692A4.436 4.436 0 0 1 20.474 5a1.041 1.041 0 0 1 .788.335 1.162 1.162 0 0 1 .318.831 1.009 1.009 0 0 1-.028.233l-.055.233a6.436 6.436 0 0 0-.276.846q-.111.438-.193.9l2.9 3.033H26v7.117l-3.012 1.05L21.164 26h-5.111v-2.333h-3.316V26zm.939-1.312h2.929v-2.334h5.8v2.333h2.929l1.741-6.1 2.791-1.021v-4.837H23.4l-3.62-3.821a6.359 6.359 0 0 1 .138-1.342q.138-.642.3-1.283a5.855 5.855 0 0 0-1.81.846 4.236 4.236 0 0 0-1.34 1.517h-6.542A4.019 4.019 0 0 0 7.5 9.973a4.478 4.478 0 0 0-1.257 3.194 21.544 21.544 0 0 0 .788 5.8q.787 2.833 1.533 5.72zm6.936-9.217z" transform="translate(-5 -5)" style="fill:#3f52fc"/>
</svg>
