<svg data-name="마일리지 현황" xmlns="http://www.w3.org/2000/svg" width="17" height="17" viewBox="0 0 17 17">
    <path data-name="마일리지 현황" d="M12.079 7.91a.738.738 0 0 0 .559-.236.891.891 0 0 0 0-1.181.78.78 0 0 0-1.118 0 .891.891 0 0 0 0 1.181.738.738 0 0 0 .559.236zM4.921 5.549h4.474V4.486H4.921zM2.125 17q-.716-2.574-1.42-5.135A19.719 19.719 0 0 1 0 6.611a4.692 4.692 0 0 1 1.3-3.353 4.207 4.207 0 0 1 3.174-1.369h4.7A4.873 4.873 0 0 1 10.639.52 3.591 3.591 0 0 1 12.526 0a.843.843 0 0 1 .638.272.941.941 0 0 1 .257.673.817.817 0 0 1-.022.189l-.045.189a5.21 5.21 0 0 0-.224.685q-.089.354-.157.732l2.349 2.456H17v5.761l-2.438.85L13.086 17H8.947v-1.889H6.263V17zm.761-1.062h2.371v-1.889h4.7v1.889h2.371L13.734 11l2.259-.826V6.257H14.9l-2.93-3.093a5.148 5.148 0 0 1 .112-1.086q.112-.519.246-1.039a4.74 4.74 0 0 0-1.465.685 3.429 3.429 0 0 0-1.085 1.228h-5.3a3.254 3.254 0 0 0-2.454 1.074 3.625 3.625 0 0 0-1.018 2.585 17.44 17.44 0 0 0 .638 4.7q.638 2.289 1.242 4.627zM8.5 8.476z"/>
</svg>
