<svg id="핀페이_비활성화" data-name="핀페이 비활성화" xmlns="http://www.w3.org/2000/svg" width="70" height="34" viewBox="0 0 70 34">
  <defs>
    <style>
      .cls-1 {
        fill: #707070;
      }

      .cls-2 {
        fill: none;
      }
    </style>
  </defs>
  <path id="패스_1142" data-name="패스 1142" class="cls-1" d="M71.344,107.423c0,.052-.025.078-.074.078h-.21q-.073,0-.073-.078V104.26q0-.078.073-.078h.21c.049,0,.074.026.074.078Z" transform="translate(-63.589 -83.029)"/>
  <path id="패스_1143" data-name="패스 1143" class="cls-1" d="M75.805,106.6c0-.052-.029-.078-.087-.078l-1.218.009q-.087,0-.087.078v2.042q0,.078-.073.078h-.2q-.073,0-.073-.078v-2.4q0-.078.073-.078h.206c.049,0,.074.026.074.078v.037c0,.052.034.073.1.064l1.016-.165a1.292,1.292,0,0,1,.137-.009.421.421,0,0,1,.476.476v2q0,.078-.073.078h-.2c-.049,0-.073-.026-.073-.078Z" transform="translate(-65.496 -84.26)"/>
  <path id="패스_1144" data-name="패스 1144" class="cls-1" d="M81.706,107.609a.506.506,0,0,1-.567-.577v-.22a.4.4,0,0,1,.2-.362l.312-.179a.493.493,0,0,1,.224-.05h1.052c.049,0,.074.026.074.078v.133c0,.052-.025.078-.074.078H81.56a.065.065,0,0,0-.074.073v.659a.065.065,0,0,0,.074.073h.988a.506.506,0,0,1,.568.577v.279a.4.4,0,0,1-.2.362l-.311.179a.5.5,0,0,1-.225.05H81.331q-.073,0-.073-.078v-.133q0-.078.073-.078H82.7a.065.065,0,0,0,.073-.073v-.719a.065.065,0,0,0-.073-.073Z" transform="translate(-69.867 -84.29)"/>
  <path id="패스_1145" data-name="패스 1145" class="cls-1" d="M87.942,106.24q0-.078.073-.078h.206q.073,0,.073.078v.041q0,.078.1.064l.934-.165a1.282,1.282,0,0,1,.137-.009.421.421,0,0,1,.476.476v1.488a.4.4,0,0,1-.2.362l-.311.179a.494.494,0,0,1-.224.05h-.833c-.058,0-.087.026-.087.078v.948q0,.078-.073.078h-.2q-.073,0-.073-.078Zm.348,2.124a.065.065,0,0,0,.073.073h1.158a.065.065,0,0,0,.073-.073V106.6q0-.078-.087-.078l-1.13.009c-.058,0-.087.026-.087.078Z" transform="translate(-74.075 -84.253)"/>
  <path id="패스_1146" data-name="패스 1146" class="cls-1" d="M95.513,103.81q0,.078-.073.078h-.224c-.048,0-.073-.026-.073-.078V103.6c0-.052.024-.078.073-.078h.224q.073,0,.073.078Zm-.013,3.2c0,.052-.025.078-.073.078h-.2c-.049,0-.073-.026-.073-.078V104.63c0-.052.024-.078.073-.078h.2c.048,0,.073.026.073.078Z" transform="translate(-78.53 -82.62)"/>
  <path id="패스_1147" data-name="패스 1147" class="cls-1" d="M99.617,106.42q0,.082-.078.082l-.97,0q-.082,0-.082.078v2.055c0,.052-.024.078-.073.078h-.188c-.055,0-.082-.026-.082-.078v-2.408a.073.073,0,0,1,.082-.082h.188c.048,0,.073.027.073.082v.064q0,.073.082.073a.1.1,0,0,0,.046-.009l.275-.142a.578.578,0,0,1,.293-.069h.357q.078,0,.078.082Z" transform="translate(-80.386 -84.246)"/>
  <path id="패스_1148" data-name="패스 1148" class="cls-1" d="M103.014,108.4a.065.065,0,0,0,.073.073h1.46q.064,0,.064.055a.088.088,0,0,1-.055.082l-.206.114a.407.407,0,0,1-.192.041h-.925a.506.506,0,0,1-.567-.577v-1.373a.394.394,0,0,1,.2-.362l.311-.179a.494.494,0,0,1,.224-.05h.7a.506.506,0,0,1,.568.577v.233a.506.506,0,0,1-.568.577h-1.012a.065.065,0,0,0-.073.073Zm1.3-1.813a.065.065,0,0,0-.073-.073h-1.158a.065.065,0,0,0-.073.073v.673a.065.065,0,0,0,.073.073h1.158a.065.065,0,0,0,.073-.073Z" transform="translate(-83.184 -84.29)"/>
  <path id="패스_1149" data-name="패스 1149" class="cls-1" d="M111.127,104.47q.087,0,.087-.078v-.925q0-.078.073-.078h.206q.073,0,.073.078v3.465a.069.069,0,0,1-.078.078h-.2q-.073,0-.073-.078v-.009q0-.078-.1-.064l-.934.165a1.282,1.282,0,0,1-.137.009.421.421,0,0,1-.476-.476v-1.5a.394.394,0,0,1,.2-.362l.311-.179a.494.494,0,0,1,.224-.05Zm-1.14.288a.065.065,0,0,0-.073.073v1.785q0,.078.087.078l1.131-.009q.087,0,.087-.078v-1.776a.065.065,0,0,0-.073-.073Z" transform="translate(-87.451 -82.539)"/>
  <path id="패스_1150" data-name="패스 1150" class="cls-1" d="M121.006,104.566c0,.052.034.073.1.064l.934-.165a1.283,1.283,0,0,1,.137-.009.421.421,0,0,1,.476.476v1.488a.394.394,0,0,1-.2.362l-.311.179a.493.493,0,0,1-.224.05h-.7a.506.506,0,0,1-.568-.577v-2.966c0-.052.024-.078.074-.078h.206c.048,0,.073.026.073.078Zm0,2.083a.065.065,0,0,0,.073.073h1.158a.065.065,0,0,0,.073-.073v-1.767q0-.078-.087-.078l-1.131.009c-.058,0-.087.026-.087.078Z" transform="translate(-94.31 -82.539)"/>
  <path id="패스_1151" data-name="패스 1151" class="cls-1" d="M129.469,108.661c0-.052-.034-.073-.1-.064l-1.021.165a1.282,1.282,0,0,1-.137.009.421.421,0,0,1-.476-.476v-2.019q0-.078.073-.078h.2q.073,0,.073.078v2.078q0,.078.087.078l1.222-.009c.058,0,.087-.026.087-.078v-2.069q0-.078.073-.078h.2q.073,0,.073.078V109.4a.407.407,0,0,1-.041.192l-.174.293a.088.088,0,0,1-.082.055q-.055,0-.055-.064Z" transform="translate(-98.688 -84.275)"/>
  <path id="패스_1152" data-name="패스 1152" class="cls-1" d="M141.605,107.423a.069.069,0,0,1-.078.078h-.2q-.073,0-.073-.078v-1.392q0-.078-.087-.078h-1.533q-.087,0-.087.078v1.392q0,.078-.073.078h-.206q-.073,0-.073-.078V104.26q0-.078.073-.078h.206q.073,0,.073.078V105.6q0,.078.087.078h1.533q.087,0,.087-.078V104.26q0-.078.073-.078h.2a.069.069,0,0,1,.078.078Z" transform="translate(-105.776 -83.029)"/>
  <path id="패스_1153" data-name="패스 1153" class="cls-1" d="M149.388,108.661q0-.078-.1-.064l-1.021.165a1.282,1.282,0,0,1-.137.009.421.421,0,0,1-.476-.476v-2.019q0-.078.073-.078h.2q.073,0,.073.078v2.078q0,.078.087.078l1.222-.009q.087,0,.087-.078v-2.069q0-.078.073-.078h.2q.073,0,.073.078V109.4a.407.407,0,0,1-.041.192l-.174.293a.088.088,0,0,1-.082.055q-.055,0-.055-.064Z" transform="translate(-111.01 -84.275)"/>
  <path id="패스_1154" data-name="패스 1154" class="cls-1" d="M155.316,108.354q0,.078.087.078l1.218-.009q.087,0,.087-.078v-2.069q0-.078.073-.078h.2q.073,0,.073.078v2.394q0,.078-.073.078h-.206q-.073,0-.073-.078v0q0-.078-.1-.064l-1.016.165a1.285,1.285,0,0,1-.137.009.421.421,0,0,1-.476-.476v-2.023q0-.078.073-.078h.2q.073,0,.073.078Z" transform="translate(-115.538 -84.275)"/>
  <path id="패스_1155" data-name="패스 1155" class="cls-1" d="M164.016,106.6q0-.078-.087-.078l-1.218.009q-.087,0-.087.078v2.042q0,.078-.073.078h-.2q-.073,0-.073-.078v-2.4q0-.078.073-.078h.206q.073,0,.073.078v.037q0,.078.1.064l1.016-.165a1.285,1.285,0,0,1,.137-.009.421.421,0,0,1,.476.476v2q0,.078-.073.078h-.2q-.073,0-.073-.078Z" transform="translate(-120.058 -84.26)"/>
  <path id="패스_1156" data-name="패스 1156" class="cls-1" d="M171.21,104.47q.087,0,.087-.078v-.925q0-.078.073-.078h.206q.073,0,.073.078v3.465a.069.069,0,0,1-.078.078h-.2q-.073,0-.073-.078v-.009q0-.078-.1-.064l-.934.165a1.282,1.282,0,0,1-.137.009.421.421,0,0,1-.476-.476v-1.5a.394.394,0,0,1,.2-.362l.311-.179a.494.494,0,0,1,.224-.05Zm-1.14.288a.065.065,0,0,0-.073.073v1.785q0,.078.087.078l1.131-.009q.087,0,.087-.078v-1.776a.065.065,0,0,0-.073-.073Z" transform="translate(-124.615 -82.539)"/>
  <path id="패스_1157" data-name="패스 1157" class="cls-1" d="M178.789,106.222a.065.065,0,0,1,.074.073v2.389a.069.069,0,0,1-.078.078h-.2c-.049,0-.073-.026-.073-.078v-.009q0-.078-.1-.064l-.911.165a1.279,1.279,0,0,1-.137.009.421.421,0,0,1-.476-.476v-1.5a.394.394,0,0,1,.2-.362l.311-.179a.494.494,0,0,1,.224-.05Zm-1.483.288a.065.065,0,0,0-.073.073v1.785q0,.078.087.078l1.108-.009q.087,0,.087-.078v-1.776a.065.065,0,0,0-.073-.073Z" transform="translate(-129.091 -84.29)"/>
  <path id="패스_1158" data-name="패스 1158" class="cls-1" d="M184.456,103.81q0,.078-.073.078h-.224q-.073,0-.073-.078V103.6q0-.078.073-.078h.224q.073,0,.073.078Zm-.014,3.2q0,.078-.073.078h-.2q-.073,0-.073-.078V104.63q0-.078.073-.078h.2q.073,0,.073.078Z" transform="translate(-133.545 -82.62)"/>
  <path id="패스_1159" data-name="패스 1159" class="cls-1" d="M191.565,107.149a.065.065,0,0,0,.073.073h1.721q.064,0,.064.055a.089.089,0,0,1-.055.082l-.206.114a.408.408,0,0,1-.192.041h-1.19a.506.506,0,0,1-.568-.577V104.8a.394.394,0,0,1,.2-.362l.311-.179a.5.5,0,0,1,.225-.05h1.378q.073,0,.073.078v.137q0,.078-.073.078h-1.685a.065.065,0,0,0-.073.073Z" transform="translate(-137.954 -83.043)"/>
  <path id="패스_1160" data-name="패스 1160" class="cls-1" d="M200.592,106.222a.065.065,0,0,1,.074.073v2.389a.069.069,0,0,1-.078.078h-.2c-.049,0-.074-.026-.074-.078v-.009c0-.052-.034-.073-.1-.064l-.911.165a1.28,1.28,0,0,1-.137.009.421.421,0,0,1-.476-.476v-1.5a.394.394,0,0,1,.2-.362l.311-.179a.493.493,0,0,1,.224-.05Zm-1.483.288a.065.065,0,0,0-.073.073v1.785c0,.052.029.078.087.078l1.107-.009q.087,0,.087-.078v-1.776a.065.065,0,0,0-.073-.073Z" transform="translate(-142.578 -84.29)"/>
  <path id="패스_1161" data-name="패스 1161" class="cls-1" d="M207.315,106.42c0,.055-.026.082-.078.082l-.97,0c-.055,0-.082.026-.082.078v2.055c0,.052-.025.078-.073.078h-.188q-.082,0-.082-.078v-2.408a.073.073,0,0,1,.082-.082h.188c.048,0,.073.027.073.082v.064c0,.049.027.073.082.073a.1.1,0,0,0,.046-.009l.274-.142a.578.578,0,0,1,.293-.069h.357c.052,0,.078.027.078.082Z" transform="translate(-147.003 -84.246)"/>
  <path id="패스_1162" data-name="패스 1162" class="cls-1" d="M212.021,104.47c.058,0,.087-.026.087-.078v-.925c0-.052.024-.078.074-.078h.206c.048,0,.073.026.073.078v3.465a.069.069,0,0,1-.078.078h-.2c-.049,0-.074-.026-.074-.078v-.009c0-.052-.034-.073-.1-.064l-.934.165a1.276,1.276,0,0,1-.137.009.421.421,0,0,1-.476-.476v-1.5a.394.394,0,0,1,.2-.362l.311-.179a.5.5,0,0,1,.224-.05Zm-1.14.288a.065.065,0,0,0-.073.073v1.785c0,.052.029.078.087.078l1.13-.009q.087,0,.087-.078v-1.776a.064.064,0,0,0-.073-.073Z" transform="translate(-149.86 -82.539)"/>
  <path id="패스_1163" data-name="패스 1163" class="cls-1" d="M99.437,88.428c0,.158-.075.237-.224.237H98.6q-.223,0-.223-.237V78.776a.21.21,0,0,1,.238-.238h.628c.149,0,.224.079.224.238v.041c0,.159.1.224.307.2l3.729-.5a3.777,3.777,0,0,1,.419-.028,1.284,1.284,0,0,1,1.453,1.452v2.85a1.2,1.2,0,0,1-.6,1.1l-.936.545a1.509,1.509,0,0,1-.685.154H99.7q-.266,0-.265.238Zm4.875-8.563a.235.235,0,0,0-.265-.265l-4.344.014q-.266,0-.265.237v3.632q0,.238.223.238h4.428a.2.2,0,0,0,.224-.224Z" transform="translate(-90.201 -73.254)"/>
  <path id="패스_1164" data-name="패스 1164" class="cls-1" d="M115.1,88.465c0,.158-.075.237-.224.237h-.643q-.223,0-.223-.237V78.813q0-.238.223-.238h.643c.149,0,.224.079.224.238Z" transform="translate(-96.444 -73.292)"/>
  <path id="패스_1165" data-name="패스 1165" class="cls-1" d="M122.008,79.557c-.065-.131-.145-.2-.238-.2q-.223,0-.223.237v8.885c0,.158-.075.237-.224.237h-.628q-.223,0-.223-.237V78.859q0-.238.223-.238h1.76a.368.368,0,0,1,.35.223l4.344,8.941c.065.13.144.2.237.2.149,0,.224-.079.224-.237V78.859q0-.238.223-.238h.628q.223,0,.223.238v9.625q0,.237-.223.237H126.7a.407.407,0,0,1-.349-.223Z" transform="translate(-99.027 -73.31)"/>
  <path id="패스_1166" data-name="패스 1166" class="cls-1" d="M147.235,88.428c0,.158-.075.237-.224.237H146.4q-.223,0-.223-.237V78.776a.21.21,0,0,1,.237-.238h.628c.149,0,.224.079.224.238v.041c0,.159.1.224.307.2l3.73-.5a3.775,3.775,0,0,1,.419-.028,1.284,1.284,0,0,1,1.453,1.452v2.85a1.2,1.2,0,0,1-.6,1.1l-.936.545a1.507,1.507,0,0,1-.685.154H147.5c-.178,0-.265.079-.265.238Zm4.875-8.563a.235.235,0,0,0-.265-.265l-4.344.014c-.178,0-.265.079-.265.237v3.632q0,.238.223.238h4.427a.2.2,0,0,0,.224-.224Z" transform="translate(-109.294 -73.254)"/>
  <path id="패스_1167" data-name="패스 1167" class="cls-1" d="M167.218,82.529a.2.2,0,0,1,.224.223v7.292a.21.21,0,0,1-.238.237h-.614q-.224,0-.224-.237v-.028c0-.159-.1-.223-.307-.2l-2.78.5a3.916,3.916,0,0,1-.419.028,1.284,1.284,0,0,1-1.453-1.453V84.331a1.2,1.2,0,0,1,.6-1.1l.949-.545a1.506,1.506,0,0,1,.685-.154Zm-4.526.88a.2.2,0,0,0-.223.223v5.448c0,.159.088.237.265.237l3.381-.028c.177,0,.265-.079.265-.238v-5.42a.2.2,0,0,0-.223-.223Z" transform="translate(-115.379 -74.871)"/>
  <path id="패스_1168" data-name="패스 1168" class="cls-1" d="M180.448,90c0-.159-.1-.223-.308-.2l-3.115.5a3.913,3.913,0,0,1-.419.028,1.284,1.284,0,0,1-1.453-1.453V82.72q0-.237.223-.237h.614q.223,0,.223.237v6.343c0,.159.089.237.265.237l3.73-.028c.177,0,.265-.079.265-.238V82.72q0-.237.223-.237h.6q.223,0,.223.237v9.541a1.241,1.241,0,0,1-.125.587l-.531.894a.269.269,0,0,1-.251.168c-.112,0-.168-.065-.168-.2Z" transform="translate(-120.869 -74.853)"/>
  <rect id="마스킹" class="cls-2" width="70" height="34"/>
</svg>
