<svg xmlns="http://www.w3.org/2000/svg" width="18.2" height="21.6" viewBox="0 0 18.2 21.6">
    <path d="M9.268 27a2.2 2.2 0 0 1-1.676-.747 2.567 2.567 0 0 1-.692-1.81v-2.987h3.326V5.4l1.463 1.35L13.18 5.4l1.49 1.35 1.49-1.35 1.49 1.35 1.49-1.35 1.517 1.35 1.49-1.35 1.49 1.35L25.1 5.4v19.044a2.567 2.567 0 0 1-.692 1.81 2.2 2.2 0 0 1-1.676.746zm13.464-1.293a1.094 1.094 0 0 0 .838-.359 1.28 1.28 0 0 0 .333-.9V7.612h-12.48v13.844h10.165v2.987a1.311 1.311 0 0 0 .319.9 1.053 1.053 0 0 0 .825.364zM12.94 11.891V10.57h6.04v1.321zm0 3.734v-1.292h6.04v1.293zm8.515-3.59a.69.69 0 0 1-.519-.244.807.807 0 0 1 0-1.12.673.673 0 0 1 1.038 0 .807.807 0 0 1 0 1.12.69.69 0 0 1-.519.244zm0 3.648a.69.69 0 0 1-.519-.244.807.807 0 0 1 0-1.12.673.673 0 0 1 1.038 0 .807.807 0 0 1 0 1.12.69.69 0 0 1-.519.244zM9.242 25.707h11.122v-2.93H8.1v1.666a1.28 1.28 0 0 0 .333.9 1.064 1.064 0 0 0 .812.359zm-1.144 0z" transform="translate(-6.9 -5.4)" style="fill:#3f52fc"/>
</svg>
