<svg xmlns="http://www.w3.org/2000/svg" width="21.056" height="21.055" viewBox="0 0 21.056 21.055">
    <path d="m26.752 27.4-7.746-7.76a6.205 6.205 0 0 1-2.1 1.242 7.147 7.147 0 0 1-2.405.424 6.673 6.673 0 0 1-4.886-2A6.618 6.618 0 0 1 7.6 14.429a6.824 6.824 0 0 1 6.868-6.879 6.673 6.673 0 0 1 4.886 2 6.618 6.618 0 0 1 2.012 4.879 7.037 7.037 0 0 1-.439 2.439 6.423 6.423 0 0 1-1.256 2.106l7.777 7.726zM14.5 20.368a5.78 5.78 0 0 0 4.236-1.712 5.721 5.721 0 0 0 1.725-4.227 5.894 5.894 0 0 0-5.961-5.97 5.894 5.894 0 0 0-5.96 5.969 5.721 5.721 0 0 0 1.725 4.227 5.78 5.78 0 0 0 4.235 1.713z" transform="translate(-7.1 -7.05)" style="fill:none;stroke:#3f52fc"/>
</svg>
