<svg xmlns="http://www.w3.org/2000/svg" width="16" height="15.274" viewBox="0 0 16 15.274">
    <path data-name="별로에요 아이콘" d="M5.888 6h8.477v9.776l-5.308 5.5-.745-.592a.574.574 0 0 1-.172-.267A1.34 1.34 0 0 1 8.083 20v-.2l.859-4.029H3.234a1.1 1.1 0 0 1-.8-.344 1.1 1.1 0 0 1-.344-.8v-1.563a1.411 1.411 0 0 0-.029-.277.459.459 0 0 1 .029-.277l2.404-5.536a1.658 1.658 0 0 1 .563-.687A1.383 1.383 0 0 1 5.888 6zm7.332 1.146H5.639l-2.405 5.708v1.776h7.122l-1.012 4.754 3.875-4.084zm0 8.153zm1.146.477V6h3.684v9.776z" transform="translate(-2.05 -6)" style="fill:#3f52fc"/>
</svg>
