<svg xmlns="http://www.w3.org/2000/svg" width="26" height="26" viewBox="0 0 26 26">
    <path d="M17 23.5a1.055 1.055 0 1 0-.764-.309A1.037 1.037 0 0 0 17 23.5zm-.878-4.972h1.95V10.3h-1.95zM17 30a12.579 12.579 0 0 1-5.038-1.024 13.1 13.1 0 0 1-6.939-6.939 12.986 12.986 0 0 1 0-10.107A12.992 12.992 0 0 1 7.819 7.8a13.326 13.326 0 0 1 4.144-2.779 12.986 12.986 0 0 1 10.107 0 12.98 12.98 0 0 1 6.906 6.906 12.986 12.986 0 0 1 0 10.107 13.326 13.326 0 0 1-2.776 4.147 12.992 12.992 0 0 1-4.127 2.795A12.659 12.659 0 0 1 17 30z" transform="translate(-4 -4)" style="fill:#d5152c"/>
</svg>
