<svg xmlns="http://www.w3.org/2000/svg" width="794.33" height="110.81" viewBox="0 0 794.33 110.81">
    <g data-name="입금완료(판매)">
        <g data-name="그룹 3913">
            <g data-name="그룹 3912">
                <path data-name="패스 5413" d="M931-412.71H201.78c-1.24 0-2.25-1.57-2.25-3.5s1.01-3.5 2.25-3.5H931c1.24 0 2.25 1.57 2.25 3.5s-1.01 3.5-2.25 3.5z" style="fill:#f0f0f0" transform="translate(-169.53 428.91)"/>
            </g>
        </g>
        <g data-name="그룹 3914">
            <path data-name="패스 5414" d="M553.51-385.88a3.939 3.939 0 0 1 1.55-1.42 4.669 4.669 0 0 1 2.18-.51 4.67 4.67 0 0 1 2.18.51 3.844 3.844 0 0 1 1.54 1.42 3.811 3.811 0 0 1 .56 2.04 3.88 3.88 0 0 1-.56 2.06 3.776 3.776 0 0 1-1.54 1.42 4.669 4.669 0 0 1-2.18.51 4.67 4.67 0 0 1-2.18-.51 3.867 3.867 0 0 1-1.55-1.42 3.8 3.8 0 0 1-.57-2.06 3.962 3.962 0 0 1 .57-2.04zm1.66 3.25a2.025 2.025 0 0 0 .84.8 2.593 2.593 0 0 0 1.23.28 2.473 2.473 0 0 0 1.2-.28 2.086 2.086 0 0 0 .84-.8 2.381 2.381 0 0 0 .31-1.2 2.248 2.248 0 0 0-.31-1.19 2.112 2.112 0 0 0-.85-.8 2.528 2.528 0 0 0-1.2-.28 2.58 2.58 0 0 0-1.22.28 2.05 2.05 0 0 0-.85.8 2.338 2.338 0 0 0-.3 1.19 2.283 2.283 0 0 0 .31 1.2zm.22 4.1h1.97v3.66h8.98v1.58h-10.95v-5.24zm10.51 1.16h-1.97v-11.48h1.97z" style="fill:#707070" transform="translate(-169.53 428.91)"/>
            <path data-name="패스 5415" d="M571.71-381.02a9.291 9.291 0 0 0 1.45-4.32h-4.25v-1.58h6.19a15.9 15.9 0 0 1-.17 2.34h1.85v-3.88h1.86v14.75h-1.86v-5.31h-2.48v-1.6h2.48v-2.36h-2.19a10.714 10.714 0 0 1-1.9 3.71 12.393 12.393 0 0 1-3.49 2.95l-1.14-1.39a10.966 10.966 0 0 0 3.65-3.31zm10.22 8.05h-1.86v-15.89h1.86z" style="fill:#707070" transform="translate(-169.53 428.91)"/>
            <path data-name="패스 5416" d="M590.63-387.77a3.423 3.423 0 0 1 1.42 1.13 2.9 2.9 0 0 1 .52 1.67 2.843 2.843 0 0 1-.38 1.42 3.341 3.341 0 0 1-1.04 1.08 4.01 4.01 0 0 1-1.55.59v1.28c1.49-.09 2.78-.21 3.88-.37l.16 1.42a38.681 38.681 0 0 1-4.46.51c-1.55.09-3.16.14-4.82.14h-.4l-.21-1.56c1.46 0 2.76-.02 3.88-.05v-1.36a4.256 4.256 0 0 1-1.59-.58 3.123 3.123 0 0 1-1.06-1.08 2.809 2.809 0 0 1-.37-1.44 2.844 2.844 0 0 1 .51-1.67 3.316 3.316 0 0 1 1.41-1.13 4.982 4.982 0 0 1 2.06-.4 4.887 4.887 0 0 1 2.04.4zm-4.71 9.98h1.95v2.9h9.05v1.58h-11zm.78-6.29a1.76 1.76 0 0 0 .76.6 2.8 2.8 0 0 0 1.12.21 2.488 2.488 0 0 0 1.55-.47 1.5 1.5 0 0 0 .59-1.24 1.537 1.537 0 0 0-.59-1.25 2.424 2.424 0 0 0-1.55-.46 3.022 3.022 0 0 0-1.12.2 1.62 1.62 0 0 0-.76.59 1.477 1.477 0 0 0-.26.91 1.477 1.477 0 0 0 .26.91zm7.71-4.77h1.95v5.13h2.14v1.62h-2.14v5.38h-1.95z" style="fill:#707070" transform="translate(-169.53 428.91)"/>
            <path data-name="패스 5417" d="M613.86-374.82h-14.52v-1.62h3.85v-2.62h-2.13v-5.19h9.14v-1.95h-9.18v-1.58h11.11v5.1h-9.12v2.04h9.49v1.58h-2.32v2.62h3.67v1.62zm-5.59-1.62v-2.62h-3.18v2.62z" style="fill:#707070" transform="translate(-169.53 428.91)"/>
        </g>
        <g data-name="그룹 3915">
            <path data-name="패스 5418" d="M907.04-380.87a9.433 9.433 0 0 0 1.72-4.76h-5.47v-1.55h7.44a14.745 14.745 0 0 1-.68 4.53 10.264 10.264 0 0 1-2.25 3.77 14.271 14.271 0 0 1-4.22 3.03l-1.02-1.53a11.634 11.634 0 0 0 4.48-3.49zm8.93 7.9h-1.95v-8.09h-3.36v-1.6h3.36v-6.21h1.95z" style="fill:#707070" transform="translate(-169.53 428.91)"/>
            <path data-name="패스 5419" d="M924.69-381.32h-4.11v3.09c.93-.01 1.77-.04 2.54-.09a22.924 22.924 0 0 0 2.38-.28l.14 1.58c-.98.16-1.92.27-2.81.33s-1.9.09-3.05.09h-1.09v-6.31h4.11v-2.76h-4.13v-1.58h6.01v5.93zm1.76-7.24h1.79v5.8h1.79v-6.1h1.86v15.89h-1.86v-8.21h-1.79v7.4h-1.79z" style="fill:#707070" transform="translate(-169.53 428.91)"/>
            <path data-name="패스 5420" d="M941.97-381.16h6.29v1.58h-14.48v-1.58h6.26v-2.02h1.93zm-4.96-3.23a5.715 5.715 0 0 0 1.78-.97 2.461 2.461 0 0 0 .84-1.23h-4.54v-1.56h11.87v1.56h-4.58a2.48 2.48 0 0 0 .84 1.23 5.694 5.694 0 0 0 1.79.98 10.313 10.313 0 0 0 2.56.54l-.7 1.53a10.33 10.33 0 0 1-3.69-1.02 4.919 4.919 0 0 1-2.18-2 4.934 4.934 0 0 1-2.18 2.01 10.021 10.021 0 0 1-3.67 1.01l-.69-1.53a11.758 11.758 0 0 0 2.55-.55zm-.88 7.1a4.4 4.4 0 0 1 1.9-.95 11.7 11.7 0 0 1 2.97-.33 11.484 11.484 0 0 1 2.95.33 4.3 4.3 0 0 1 1.89.95 2.009 2.009 0 0 1 .66 1.51 2.041 2.041 0 0 1-.65 1.52 4.248 4.248 0 0 1-1.89.95 11.567 11.567 0 0 1-2.96.33 11.648 11.648 0 0 1-2.97-.33 4.345 4.345 0 0 1-1.9-.95 2.015 2.015 0 0 1-.66-1.52 1.979 1.979 0 0 1 .66-1.51zm2.22 2.49a8.169 8.169 0 0 0 2.66.33 8.047 8.047 0 0 0 2.63-.33c.6-.22.91-.55.92-.98-.01-.42-.31-.74-.91-.95a8.661 8.661 0 0 0-2.64-.33 8.763 8.763 0 0 0-2.66.33c-.6.21-.9.53-.89.95-.01.43.29.76.89.98z" style="fill:#707070" transform="translate(-169.53 428.91)"/>
            <path data-name="패스 5421" d="M963.86-374.82h-14.52v-1.62h3.85v-2.62h-2.13v-5.19h9.14v-1.95h-9.18v-1.58h11.11v5.1h-9.12v2.04h9.49v1.58h-2.32v2.62h3.67v1.62zm-5.59-1.62v-2.62h-3.18v2.62z" style="fill:#707070" transform="translate(-169.53 428.91)"/>
        </g>
        <g data-name="그룹 3918">
            <g data-name="그룹 3916" transform="translate(-169.53 428.91)">
                <circle data-name="타원 168" cx="12.2" cy="12.2" r="12.2" transform="translate(187.63 -428.41)" style="fill:#3f52fc"/>
                <path data-name="패스 5422" d="M199.83-403.51a12.718 12.718 0 0 1-12.7-12.7 12.718 12.718 0 0 1 12.7-12.7 12.718 12.718 0 0 1 12.7 12.7 12.718 12.718 0 0 1-12.7 12.7zm0-24.4a11.715 11.715 0 0 0-11.7 11.7 11.715 11.715 0 0 0 11.7 11.7 11.715 11.715 0 0 0 11.7-11.7 11.715 11.715 0 0 0-11.7-11.7z" style="fill:#3f52fc"/>
            </g>
            <g data-name="그룹 3917">
                <path data-name="패스 5423" d="M201.18-409.79h-1.52v-10.5h-.07l-2.93 1.95v-1.52l3-2h1.52z" style="fill:#fff" transform="translate(-169.53 428.91)"/>
            </g>
        </g>
        <g data-name="그룹 3921">
            <g data-name="그룹 3919" transform="translate(-169.53 428.91)">
                <circle data-name="타원 169" cx="12.2" cy="12.2" r="12.2" transform="translate(571.05 -428.41)" style="fill:#fff"/>
                <path data-name="패스 5424" d="M583.25-403.51a12.718 12.718 0 0 1-12.7-12.7 12.718 12.718 0 0 1 12.7-12.7 12.718 12.718 0 0 1 12.7 12.7 12.718 12.718 0 0 1-12.7 12.7zm0-24.4a11.715 11.715 0 0 0-11.7 11.7 11.715 11.715 0 0 0 11.7 11.7 11.715 11.715 0 0 0 11.7-11.7 11.715 11.715 0 0 0-11.7-11.7z" style="fill:#707070"/>
            </g>
            <g data-name="그룹 3920">
                <path data-name="패스 5425" d="m579.36-410.89 4.12-4.33c.54-.58.95-1.04 1.24-1.4a4.552 4.552 0 0 0 .65-1.02 2.446 2.446 0 0 0 .22-1.03 1.851 1.851 0 0 0-.32-1.07 2.1 2.1 0 0 0-.86-.72 2.835 2.835 0 0 0-1.22-.26 2.581 2.581 0 0 0-1.24.29 1.977 1.977 0 0 0-.82.8 2.371 2.371 0 0 0-.29 1.18h-1.42a3.4 3.4 0 0 1 .49-1.86 3.4 3.4 0 0 1 1.37-1.26 4.222 4.222 0 0 1 1.96-.45 4.188 4.188 0 0 1 1.93.44 3.346 3.346 0 0 1 1.34 1.21 3.142 3.142 0 0 1 .48 1.7 3.916 3.916 0 0 1-.25 1.32 5.731 5.731 0 0 1-.84 1.4 20.858 20.858 0 0 1-1.68 1.88l-2.77 2.85v.1h5.75v1.33h-7.84z" style="fill:#707070" transform="translate(-169.53 428.91)"/>
            </g>
        </g>
        <g data-name="그룹 3924">
            <g data-name="그룹 3922" transform="translate(-169.53 428.91)">
                <circle data-name="타원 170" cx="12.2" cy="12.2" r="12.2" transform="translate(921.05 -428.41)" style="fill:#fff"/>
                <path data-name="패스 5426" d="M933.25-403.51a12.718 12.718 0 0 1-12.7-12.7 12.718 12.718 0 0 1 12.7-12.7 12.718 12.718 0 0 1 12.7 12.7 12.718 12.718 0 0 1-12.7 12.7zm0-24.4a11.715 11.715 0 0 0-11.7 11.7 11.715 11.715 0 0 0 11.7 11.7 11.715 11.715 0 0 0 11.7-11.7 11.715 11.715 0 0 0-11.7-11.7z" style="fill:#707070"/>
            </g>
            <g data-name="그룹 3923">
                <path data-name="패스 5427" d="M931.15-410.03a3.566 3.566 0 0 1-1.49-1.13 2.837 2.837 0 0 1-.58-1.67h1.52a1.68 1.68 0 0 0 .4.99 2.334 2.334 0 0 0 .95.65 3.693 3.693 0 0 0 1.32.23 3.56 3.56 0 0 0 1.42-.27 2.34 2.34 0 0 0 .98-.75 1.783 1.783 0 0 0 .35-1.1 2.043 2.043 0 0 0-.35-1.17 2.313 2.313 0 0 0-1-.8 3.979 3.979 0 0 0-1.58-.29h-.98v-1.32h.98a3.094 3.094 0 0 0 1.29-.26 2.054 2.054 0 0 0 .88-.73 1.876 1.876 0 0 0 .31-1.08 2 2 0 0 0-.27-1.05 1.918 1.918 0 0 0-.78-.71 2.638 2.638 0 0 0-1.19-.25 3.315 3.315 0 0 0-1.22.24 2.256 2.256 0 0 0-.93.66 1.661 1.661 0 0 0-.39 1h-1.45a2.808 2.808 0 0 1 .58-1.66 3.725 3.725 0 0 1 1.45-1.13 4.754 4.754 0 0 1 1.97-.4 4.155 4.155 0 0 1 1.95.44 3.212 3.212 0 0 1 1.29 1.18 2.937 2.937 0 0 1 .44 1.61 2.756 2.756 0 0 1-.54 1.74 2.869 2.869 0 0 1-1.51 1v.08a3.223 3.223 0 0 1 1.35.51 2.572 2.572 0 0 1 .87 1.01 3.106 3.106 0 0 1 .3 1.38 2.965 2.965 0 0 1-.55 1.76 3.678 3.678 0 0 1-1.5 1.24 5.015 5.015 0 0 1-2.15.45 5.407 5.407 0 0 1-2.14-.4z" style="fill:#707070" transform="translate(-169.53 428.91)"/>
            </g>
        </g>
        <g data-name="그룹 3925">
            <path data-name="패스 5428" d="M170.09-384.94a3.654 3.654 0 0 1 1.53-1.32 5.039 5.039 0 0 1 2.2-.47 5.026 5.026 0 0 1 2.19.47 3.654 3.654 0 0 1 1.53 1.32 3.456 3.456 0 0 1 .55 1.93 3.39 3.39 0 0 1-.55 1.91 3.7 3.7 0 0 1-1.53 1.31 5.026 5.026 0 0 1-2.19.47 5.071 5.071 0 0 1-2.2-.47 3.7 3.7 0 0 1-1.53-1.31 3.4 3.4 0 0 1-.56-1.91 3.385 3.385 0 0 1 .56-1.93zm1.65 3.03a1.933 1.933 0 0 0 .84.73 2.848 2.848 0 0 0 1.23.26 2.758 2.758 0 0 0 1.21-.26 2 2 0 0 0 .84-.73 2.016 2.016 0 0 0 .3-1.1 2.016 2.016 0 0 0-.3-1.1 1.933 1.933 0 0 0-.84-.73 2.787 2.787 0 0 0-1.21-.25 2.816 2.816 0 0 0-1.23.25 2 2 0 0 0-.84.73 2.04 2.04 0 0 0-.3 1.1 2.016 2.016 0 0 0 .3 1.1zm.23 3.74h1.93v1.63h6.63v-1.63h1.95v6.43h-10.51zm8.56 4.85v-1.69h-6.63v1.69zm1.95-5.59h-1.97v-8.53h1.97z" style="fill:#3f52fc" transform="translate(-169.53 428.91)"/>
            <path data-name="패스 5429" d="M197.55-385.43v.49c0 .68-.03 1.34-.08 1.97a17.513 17.513 0 0 1-.31 2.06h2.16v1.58H184.8v-1.58h10.38a15.438 15.438 0 0 0 .33-2.13c.05-.65.08-1.33.08-2.06h-9v-1.56h10.95v1.23zm-11.01 7.94h10.99v5.75h-10.99zm9.06 4.17v-2.64h-7.14v2.64z" style="fill:#3f52fc" transform="translate(-169.53 428.91)"/>
            <path data-name="패스 5430" d="M207.22-386.35a3.423 3.423 0 0 1 1.42 1.13 2.9 2.9 0 0 1 .52 1.67 2.843 2.843 0 0 1-.38 1.42 3.342 3.342 0 0 1-1.04 1.08 4.072 4.072 0 0 1-1.55.59v1.28c1.49-.09 2.78-.21 3.88-.37l.16 1.42a38.683 38.683 0 0 1-4.46.51c-1.56.09-3.16.14-4.82.14h-.4l-.21-1.56c1.46 0 2.76-.02 3.88-.05v-1.36a4.255 4.255 0 0 1-1.59-.58 3.123 3.123 0 0 1-1.06-1.08 2.809 2.809 0 0 1-.37-1.44 2.845 2.845 0 0 1 .51-1.67 3.392 3.392 0 0 1 1.41-1.13 4.982 4.982 0 0 1 2.06-.4 4.92 4.92 0 0 1 2.04.4zm-4.71 9.99h1.95v2.9h9.05v1.58h-11zm.77-6.29a1.76 1.76 0 0 0 .76.6 2.831 2.831 0 0 0 1.12.21 2.488 2.488 0 0 0 1.55-.47 1.5 1.5 0 0 0 .59-1.24 1.537 1.537 0 0 0-.59-1.25 2.424 2.424 0 0 0-1.55-.46 3.022 3.022 0 0 0-1.12.2 1.671 1.671 0 0 0-.76.59 1.477 1.477 0 0 0-.26.91 1.477 1.477 0 0 0 .26.91zm7.72-4.77h1.95v5.13h2.14v1.62h-2.14v5.38H211z" style="fill:#3f52fc" transform="translate(-169.53 428.91)"/>
            <path data-name="패스 5431" d="M230.44-373.39h-14.52v-1.62h3.85v-2.62h-2.13v-5.19h9.14v-1.95h-9.18v-1.58h11.11v5.1h-9.12v2.04h9.49v1.58h-2.32v2.62h3.67v1.62zm-5.59-1.62v-2.62h-3.18v2.62z" style="fill:#3f52fc" transform="translate(-169.53 428.91)"/>
        </g>
        <g data-name="그룹 3926">
            <path data-name="패스 5432" d="M342.53-337.14c-.01.93-.03 1.73-.07 2.42a19.642 19.642 0 0 1-.3 2.35h1.95v1.41h-5.61v5.84h-1.75v-5.84h-5.52v-1.41h9.16a18.84 18.84 0 0 0 .33-2.33c.05-.7.07-1.46.07-2.3h-8.05v-1.41h9.78v1.27z" style="fill:#3f52fc" transform="translate(-169.53 428.91)"/>
            <path data-name="패스 5433" d="M345.5-337.73h5.55v8.95h-5.55zm3.92 7.58v-6.2h-2.3v6.2zm7.83 5.01h-1.67v-7.23h-1.5v6.55h-1.64v-13.19h1.64v5.2h1.5v-5.45h1.67z" style="fill:#3f52fc" transform="translate(-169.53 428.91)"/>
            <path data-name="패스 5434" d="M364.37-333.02a6.627 6.627 0 0 0 1.23 2.05 5.667 5.667 0 0 0 1.88 1.43l-.97 1.38a5.72 5.72 0 0 1-2.04-1.61 8.141 8.141 0 0 1-1.37-2.43 8.5 8.5 0 0 1-1.4 2.65 5.84 5.84 0 0 1-2.1 1.73l-1.02-1.36a5.481 5.481 0 0 0 1.91-1.49 7.1 7.1 0 0 0 1.26-2.18 7.262 7.262 0 0 0 .45-2.39v-1.19h-3.08v-1.44h7.77v1.44h-2.95v1.19a6.569 6.569 0 0 0 .43 2.22zm3.85-6.24h1.73v5.5h2.17v1.45h-2.17v7.17h-1.73z" style="fill:#3f52fc" transform="translate(-169.53 428.91)"/>
            <path data-name="패스 5435" d="M376.62-332.13a8.309 8.309 0 0 0 1.66-4.22h-4.88v-1.44h6.64a10.572 10.572 0 0 1-6.42 10.11l-.98-1.34a11.374 11.374 0 0 0 3.98-3.11zm7.16-1.62h2.09v1.45h-2.09v7.12h-1.73v-14.09h1.73z" style="fill:#3f52fc" transform="translate(-169.53 428.91)"/>
            <path data-name="패스 5436" d="M391.09-337.04a3.4 3.4 0 0 1 1.36-1.18 4.428 4.428 0 0 1 1.95-.42 4.428 4.428 0 0 1 1.95.42 3.264 3.264 0 0 1 1.36 1.18 3.086 3.086 0 0 1 .49 1.72 3 3 0 0 1-.49 1.7 3.221 3.221 0 0 1-1.36 1.16 4.428 4.428 0 0 1-1.95.42 4.4 4.4 0 0 1-1.95-.42 3.366 3.366 0 0 1-1.36-1.16 3.005 3.005 0 0 1-.5-1.7 3.047 3.047 0 0 1 .5-1.72zm1.47 2.69a1.764 1.764 0 0 0 .75.65 2.575 2.575 0 0 0 1.1.23 2.515 2.515 0 0 0 1.08-.23 1.764 1.764 0 0 0 .75-.65 1.78 1.78 0 0 0 .27-.98 1.78 1.78 0 0 0-.27-.98 1.764 1.764 0 0 0-.75-.65 2.516 2.516 0 0 0-1.08-.23 2.575 2.575 0 0 0-1.1.23 1.764 1.764 0 0 0-.75.65 1.78 1.78 0 0 0-.27.98 1.936 1.936 0 0 0 .27.98zm.21 3.32h1.72v1.45h5.89v-1.45h1.73v5.72h-9.34v-5.72zm7.61 4.31v-1.5h-5.89v1.5zm1.73-4.96h-1.75v-7.58h1.75z" style="fill:#3f52fc" transform="translate(-169.53 428.91)"/>
            <path data-name="패스 5437" d="M415.5-337.48v.44c0 .6-.02 1.19-.07 1.75a17.658 17.658 0 0 1-.27 1.83h1.92v1.41h-12.91v-1.41h9.23a15.24 15.24 0 0 0 .3-1.89c.05-.57.07-1.18.07-1.83h-8v-1.39h9.73v1.09zm-9.78 7.06h9.77v5.11h-9.77zm8.05 3.7v-2.34h-6.34v2.34z" style="fill:#3f52fc" transform="translate(-169.53 428.91)"/>
            <path data-name="패스 5438" d="M418-333.43h12.88v1.39H418zm9.17-5.33a4.033 4.033 0 0 1 1.74.82 1.709 1.709 0 0 1 .6 1.32 1.744 1.744 0 0 1-.6 1.33 3.923 3.923 0 0 1-1.74.82 12.017 12.017 0 0 1-2.75.29 11.481 11.481 0 0 1-2.75-.29 3.923 3.923 0 0 1-1.74-.82 1.729 1.729 0 0 1-.6-1.33 1.724 1.724 0 0 1 .6-1.32 3.923 3.923 0 0 1 1.74-.82 12.606 12.606 0 0 1 2.75-.29 12.017 12.017 0 0 1 2.75.29zm-7.65 7.67h9.75v3.45h-8.03v1.05h8.42v1.33h-10.12v-3.61h8.03v-.94h-8.05v-1.28zm2.45-4.67a7.955 7.955 0 0 0 2.45.28 8.058 8.058 0 0 0 2.47-.28c.55-.19.82-.47.82-.86 0-.36-.28-.65-.84-.84a7.707 7.707 0 0 0-2.46-.3 7.611 7.611 0 0 0-2.44.3c-.56.2-.83.48-.83.84.01.38.28.67.83.86z" style="fill:#3f52fc" transform="translate(-169.53 428.91)"/>
            <path data-name="패스 5439" d="M441.72-338.29a2.947 2.947 0 0 1 1.26 1 2.523 2.523 0 0 1 .46 1.48 2.619 2.619 0 0 1-.34 1.27 2.837 2.837 0 0 1-.93.96 3.75 3.75 0 0 1-1.38.53v1.14q1.98-.12 3.45-.33l.14 1.27a34.575 34.575 0 0 1-3.97.46c-1.39.08-2.81.12-4.28.12h-.36l-.19-1.39c1.3 0 2.45-.02 3.45-.05v-1.21a3.655 3.655 0 0 1-1.41-.52 2.7 2.7 0 0 1-.94-.96 2.543 2.543 0 0 1-.33-1.28 2.516 2.516 0 0 1 .45-1.48 2.977 2.977 0 0 1 1.25-1 4.461 4.461 0 0 1 1.83-.36 4.318 4.318 0 0 1 1.84.35zm-4.19 8.87h1.73v2.58h8.05v1.41h-9.78zm.69-5.59a1.516 1.516 0 0 0 .68.53 2.583 2.583 0 0 0 1 .19 2.2 2.2 0 0 0 1.38-.41 1.351 1.351 0 0 0 .53-1.1 1.356 1.356 0 0 0-.53-1.11 2.2 2.2 0 0 0-1.38-.41 2.586 2.586 0 0 0-1 .18 1.553 1.553 0 0 0-.68.52 1.309 1.309 0 0 0-.23.81 1.3 1.3 0 0 0 .23.8zm6.86-4.24h1.73v4.56h1.91v1.44h-1.91v4.78h-1.73z" style="fill:#3f52fc" transform="translate(-169.53 428.91)"/>
            <path data-name="패스 5440" d="M462.36-326.78h-12.91v-1.44h3.42v-2.33h-1.89v-4.61h8.12v-1.73h-8.16v-1.41h9.88v4.53h-8.11v1.81h8.44v1.41h-2.06v2.33h3.27zm-4.97-1.44v-2.33h-2.83v2.33z" style="fill:#3f52fc" transform="translate(-169.53 428.91)"/>
            <path data-name="패스 5441" d="M463.3-337.68h3.33v-1.58h1.73v1.58h3.31v1.39h-8.38v-1.39zm1.15 3.25a2.763 2.763 0 0 1 1.23-.95 4.657 4.657 0 0 1 1.8-.34 4.4 4.4 0 0 1 1.79.34 2.789 2.789 0 0 1 1.22.95 2.393 2.393 0 0 1 .44 1.42 2.333 2.333 0 0 1-.44 1.4 2.844 2.844 0 0 1-1.22.94 4.587 4.587 0 0 1-1.8.33 4.638 4.638 0 0 1-1.81-.33 2.77 2.77 0 0 1-1.22-.94 2.333 2.333 0 0 1-.44-1.4 2.547 2.547 0 0 1 .45-1.42zm.93 4.9h1.73v2.7h7.88v1.41h-9.61v-4.11zm.8-2.51a2.168 2.168 0 0 0 1.29.35 2.268 2.268 0 0 0 1.32-.35 1.132 1.132 0 0 0 .5-.98 1.183 1.183 0 0 0-.49-1 2.087 2.087 0 0 0-1.3-.36 2.132 2.132 0 0 0-1.3.36 1.128 1.128 0 0 0-.48 1 1.078 1.078 0 0 0 .46.98zm8.24-2.77h1.97v1.44h-1.97v4.67h-1.73v-10.55h1.73z" style="fill:#3f52fc" transform="translate(-169.53 428.91)"/>
            <path data-name="패스 5442" d="M486.29-335.29a4.116 4.116 0 0 0 1.13 1.45 5.149 5.149 0 0 0 1.81.97l-.94 1.36a5.4 5.4 0 0 1-1.94-1.12 5.411 5.411 0 0 1-1.29-1.74 5.774 5.774 0 0 1-1.32 1.99 5.443 5.443 0 0 1-2.05 1.26l-.94-1.36a5.163 5.163 0 0 0 1.88-1.1 4.744 4.744 0 0 0 1.15-1.64 4.993 4.993 0 0 0 .39-1.95v-1.34h1.73v1.5a4.115 4.115 0 0 0 .39 1.72zm-3.04 6.02a3.619 3.619 0 0 1 1.66-.91 9.174 9.174 0 0 1 2.55-.31 8.95 8.95 0 0 1 2.52.31 3.634 3.634 0 0 1 1.64.91 2.01 2.01 0 0 1 .57 1.43 2.04 2.04 0 0 1-.57 1.45 3.643 3.643 0 0 1-1.64.92 8.926 8.926 0 0 1-2.52.32 9.148 9.148 0 0 1-2.55-.32 3.721 3.721 0 0 1-1.66-.92 2.008 2.008 0 0 1-.58-1.45 1.978 1.978 0 0 1 .58-1.43zm1.95 2.41a6.092 6.092 0 0 0 2.26.33 5.975 5.975 0 0 0 2.24-.33 1.066 1.066 0 0 0 .78-.98c0-.42-.26-.74-.79-.96a5.925 5.925 0 0 0-2.23-.34 5.842 5.842 0 0 0-2.25.34c-.53.23-.8.55-.8.96a1.064 1.064 0 0 0 .79.98zm5.11-12.4h1.73v3.44h1.97v1.44h-1.97v3.58h-1.73z" style="fill:#3f52fc" transform="translate(-169.53 428.91)"/>
            <path data-name="패스 5443" d="M500.94-336.34h-4.03v2.31h3.78v1.36h-3.78v2.75c.92-.01 1.71-.04 2.37-.08s1.33-.11 2.02-.22l.14 1.42c-.75.12-1.48.21-2.2.26s-1.61.07-2.66.07h-1.33v-9.27h5.69v1.4zm1.22-2.67h1.64v5.3h1.45v-5.55h1.67v14.12h-1.67v-7.17h-1.45v6.48h-1.64z" style="fill:#3f52fc" transform="translate(-169.53 428.91)"/>
            <path data-name="패스 5444" d="M509.31-337.04a3.4 3.4 0 0 1 1.36-1.18 4.428 4.428 0 0 1 1.95-.42 4.428 4.428 0 0 1 1.95.42 3.264 3.264 0 0 1 1.36 1.18 3.086 3.086 0 0 1 .49 1.72 3 3 0 0 1-.49 1.7 3.221 3.221 0 0 1-1.36 1.16 4.428 4.428 0 0 1-1.95.42 4.4 4.4 0 0 1-1.95-.42 3.366 3.366 0 0 1-1.36-1.16 3.005 3.005 0 0 1-.5-1.7 3.047 3.047 0 0 1 .5-1.72zm1.47 2.69a1.764 1.764 0 0 0 .75.65 2.575 2.575 0 0 0 1.1.23 2.516 2.516 0 0 0 1.08-.23 1.764 1.764 0 0 0 .75-.65 1.78 1.78 0 0 0 .27-.98 1.78 1.78 0 0 0-.27-.98 1.764 1.764 0 0 0-.75-.65 2.516 2.516 0 0 0-1.08-.23 2.575 2.575 0 0 0-1.1.23 1.764 1.764 0 0 0-.75.65 1.78 1.78 0 0 0-.27.98 1.842 1.842 0 0 0 .27.98zm.2 3.32h1.72v1.45h5.89v-1.45h1.73v5.72h-9.34zm7.61 4.31v-1.5h-5.89v1.5zm1.74-4.96h-1.75v-7.58h1.75z" style="fill:#3f52fc" transform="translate(-169.53 428.91)"/>
            <path data-name="패스 5445" d="M523.2-337.89h1.72v7.72a35.393 35.393 0 0 0 6.27-.64l.22 1.45a33.409 33.409 0 0 1-6.98.67h-1.22v-9.2zm10.97 12.75h-1.72v-14.12h1.72z" style="fill:#3f52fc" transform="translate(-169.53 428.91)"/>
            <path data-name="패스 5446" d="M536.8-337.92h6.61v1.41h-4.88v6.48c1.15 0 2.18-.04 3.09-.11s1.84-.18 2.78-.34l.2 1.47a27.074 27.074 0 0 1-3.03.35c-1 .06-2.2.09-3.61.09h-1.17v-9.35zm10.48 4.02h2.17v1.42h-2.17v7.36h-1.73v-14.14h1.73z" style="fill:#3f52fc" transform="translate(-169.53 428.91)"/>
            <path data-name="패스 5447" d="M551.16-326.57a1.214 1.214 0 0 1-.45-.45 1.184 1.184 0 0 1-.16-.61 1.174 1.174 0 0 1 .16-.6 1.266 1.266 0 0 1 .45-.44 1.184 1.184 0 0 1 .61-.16 1.174 1.174 0 0 1 .6.16 1.322 1.322 0 0 1 .44.44 1.149 1.149 0 0 1 .16.6 1.184 1.184 0 0 1-.16.61 1.266 1.266 0 0 1-.44.45 1.149 1.149 0 0 1-.6.16 1.074 1.074 0 0 1-.61-.16z" style="fill:#3f52fc" transform="translate(-169.53 428.91)"/>
            <path data-name="패스 5448" d="M560.98-332.29a8.2 8.2 0 0 0 1.29-3.84h-3.81v-1.41h5.53a12.81 12.81 0 0 1-.55 3.84h1.96v-5.22h1.64v13.11h-1.64v-6.5h-2.53a10.156 10.156 0 0 1-4.14 4.19l-.98-1.23a9.774 9.774 0 0 0 3.23-2.94zm9.06 7.15h-1.66v-14.12h1.66z" style="fill:#3f52fc" transform="translate(-169.53 428.91)"/>
            <path data-name="패스 5449" d="M572.43-336.95a3.447 3.447 0 0 1 1.36-1.2 4.3 4.3 0 0 1 1.95-.43 4.3 4.3 0 0 1 1.95.43 3.38 3.38 0 0 1 1.36 1.2 3.162 3.162 0 0 1 .49 1.75 3.086 3.086 0 0 1-.49 1.72 3.286 3.286 0 0 1-1.36 1.19 4.3 4.3 0 0 1-1.95.43 4.3 4.3 0 0 1-1.95-.43 3.387 3.387 0 0 1-1.37-1.19 3.094 3.094 0 0 1-.5-1.72 3.2 3.2 0 0 1 .51-1.75zm1.47 2.74a1.856 1.856 0 0 0 .75.66 2.575 2.575 0 0 0 1.1.23 2.516 2.516 0 0 0 1.08-.23 1.721 1.721 0 0 0 .75-.66 1.791 1.791 0 0 0 .27-.99 1.86 1.86 0 0 0-.27-1.01 1.721 1.721 0 0 0-.75-.66 2.378 2.378 0 0 0-1.08-.23 2.574 2.574 0 0 0-1.1.23 1.786 1.786 0 0 0-.75.66 1.86 1.86 0 0 0-.27 1.01 1.814 1.814 0 0 0 .27.99zm.17 3.65h9.38v5.25h-9.38zm7.67 3.84v-2.47h-5.95v2.47zm1.71-4.53h-1.75v-8h1.75z" style="fill:#3f52fc" transform="translate(-169.53 428.91)"/>
            <path data-name="패스 5450" d="M594.69-335.29a4.116 4.116 0 0 0 1.13 1.45 5.148 5.148 0 0 0 1.81.97l-.94 1.36a5.4 5.4 0 0 1-1.94-1.12 5.411 5.411 0 0 1-1.29-1.74 5.774 5.774 0 0 1-1.32 1.99 5.443 5.443 0 0 1-2.05 1.26l-.94-1.36a5.163 5.163 0 0 0 1.88-1.1 4.744 4.744 0 0 0 1.15-1.64 4.992 4.992 0 0 0 .39-1.95v-1.34h1.73v1.5a3.967 3.967 0 0 0 .39 1.72zm-3.04 6.02a3.568 3.568 0 0 1 1.66-.91 9.174 9.174 0 0 1 2.55-.31 8.951 8.951 0 0 1 2.52.31 3.634 3.634 0 0 1 1.64.91 2.01 2.01 0 0 1 .57 1.43 2.04 2.04 0 0 1-.57 1.45 3.643 3.643 0 0 1-1.64.92 8.926 8.926 0 0 1-2.52.32 9.148 9.148 0 0 1-2.55-.32 3.721 3.721 0 0 1-1.66-.92 2.008 2.008 0 0 1-.58-1.45 1.978 1.978 0 0 1 .58-1.43zm1.94 2.41a6.092 6.092 0 0 0 2.26.33 5.975 5.975 0 0 0 2.24-.33 1.066 1.066 0 0 0 .78-.98c0-.42-.26-.74-.79-.96a5.925 5.925 0 0 0-2.23-.34 5.842 5.842 0 0 0-2.25.34c-.53.23-.8.55-.8.96a1.077 1.077 0 0 0 .79.98zm5.12-12.4h1.73v3.44h1.97v1.44h-1.97v3.58h-1.73z" style="fill:#3f52fc" transform="translate(-169.53 428.91)"/>
            <path data-name="패스 5451" d="M603.65-335.83a3.927 3.927 0 0 1 1.07-1.75 2.345 2.345 0 0 1 1.61-.61 2.4 2.4 0 0 1 1.51.51 3.571 3.571 0 0 1 1.06 1.46 7.038 7.038 0 0 1 .5 2.27h1.36v-5.06h1.66v13.19h-1.66v-6.72h-1.34a7.428 7.428 0 0 1-.48 2.37 3.749 3.749 0 0 1-1.07 1.54 2.439 2.439 0 0 1-1.54.53 2.363 2.363 0 0 1-1.61-.61 3.841 3.841 0 0 1-1.07-1.75 8.62 8.62 0 0 1-.38-2.68 8.6 8.6 0 0 1 .38-2.69zm1.61 5.21c.25.58.61.86 1.06.86.47.01.84-.28 1.1-.87a6.543 6.543 0 0 0 .4-2.52 6.615 6.615 0 0 0-.4-2.52c-.26-.59-.63-.88-1.1-.87s-.81.29-1.06.88a6.807 6.807 0 0 0-.38 2.55 6.5 6.5 0 0 0 .38 2.49zm10.06 5.48h-1.67v-14.12h1.67z" style="fill:#3f52fc" transform="translate(-169.53 428.91)"/>
            <path data-name="패스 5452" d="M622.59-333.31a6.879 6.879 0 0 0 1.21 2.19 4.949 4.949 0 0 0 1.89 1.43l-1.05 1.39a5.879 5.879 0 0 1-2.02-1.64 7.759 7.759 0 0 1-1.3-2.49 8.806 8.806 0 0 1-1.34 2.65 5.979 5.979 0 0 1-2.05 1.75l-1.09-1.41a5.461 5.461 0 0 0 1.93-1.53 7.12 7.12 0 0 0 1.23-2.29 8.661 8.661 0 0 0 .43-2.62v-2.25h1.77v2.25a7.163 7.163 0 0 0 .39 2.57zm1.53-1.39h2.97v-4.56h1.72v14.14h-1.72v-8.17h-2.97z" style="fill:#3f52fc" transform="translate(-169.53 428.91)"/>
            <path data-name="패스 5453" d="M647.46-332.15h-5.59v1.06h3.98v3.47h-8.03v1.03h8.42v1.33h-10.12v-3.61h8.03v-.91h-8.05v-1.31h4.03v-1.06h-5.55v-1.38h12.88zm-11.25-6.67h9.59v4.41h-9.59zm7.86 3.04v-1.69h-6.16v1.69z" style="fill:#3f52fc" transform="translate(-169.53 428.91)"/>
            <path data-name="패스 5454" d="M661.29-331.18h-5.59v1.36h4.03v4.52h-9.8v-4.52h4.05v-1.36h-5.56v-1.39h12.88v1.39zm-11.72-7.66h10.53v1.39h-1.94v2.42h1.86v1.41h-10.38v-1.41h1.86v-2.42h-1.94v-1.39zm8.47 12.12v-1.77h-6.39v1.77zm-1.63-8.31v-2.42h-3.17v2.42z" style="fill:#3f52fc" transform="translate(-169.53 428.91)"/>
            <path data-name="패스 5455" d="M667.88-333.03a4.712 4.712 0 0 0 1.18-1.58 4.357 4.357 0 0 0 .4-1.84v-.38h-2.94v-1.41h7.62v1.41h-2.92v.39a4.039 4.039 0 0 0 .38 1.69 4.4 4.4 0 0 0 1.13 1.48 5.044 5.044 0 0 0 1.81 1l-.88 1.39a5.749 5.749 0 0 1-2-1.16 5.662 5.662 0 0 1-1.32-1.79 5.791 5.791 0 0 1-1.36 1.98 5.841 5.841 0 0 1-2.11 1.27l-.89-1.41a4.988 4.988 0 0 0 1.9-1.04zm.72 3.19h1.73v3.02h7.89v1.41h-9.62zm9.27.91h-1.73v-5.17h-2.5v-1.41h2.5v-3.73h1.73z" style="fill:#3f52fc" transform="translate(-169.53 428.91)"/>
            <path data-name="패스 5456" d="M686.74-337.11h-4.61v3.14c1.32-.01 2.42-.05 3.28-.11a19.057 19.057 0 0 0 2.58-.36l.19 1.34a19.081 19.081 0 0 1-2.64.39c-.9.07-2.08.1-3.54.1h-1.59v-5.89h6.33v1.39zm-4.97 5.52H691v3.75h-7.5v1.12h7.94v1.41h-9.66v-3.84h7.48v-1.05h-7.5v-1.39zm7.5-7.67H691v2.78h1.97v1.42H691v2.86h-1.73z" style="fill:#3f52fc" transform="translate(-169.53 428.91)"/>
            <path data-name="패스 5457" d="M697.49-330.14h12.91v1.42h-5.62v3.59h-1.72v-3.59h-5.56v-1.42zm12.17-6.2h-11.53v-1.41h4.92v-1.55h1.72v1.55h4.89v1.41zm-9.96 1.73a3.657 3.657 0 0 1 1.64-.81 10.625 10.625 0 0 1 2.57-.28 10.2 10.2 0 0 1 2.57.28 3.814 3.814 0 0 1 1.64.81 1.722 1.722 0 0 1 .57 1.3 1.722 1.722 0 0 1-.57 1.3 3.657 3.657 0 0 1-1.64.81 10.147 10.147 0 0 1-2.57.28 10.148 10.148 0 0 1-2.57-.28 3.706 3.706 0 0 1-1.64-.81 1.722 1.722 0 0 1-.57-1.3 1.722 1.722 0 0 1 .57-1.3zm1.98 2.12a6.385 6.385 0 0 0 2.18.28 7.237 7.237 0 0 0 2.27-.27c.51-.18.77-.46.78-.82-.01-.36-.26-.63-.77-.82a6.964 6.964 0 0 0-2.22-.28 6.608 6.608 0 0 0-2.22.28c-.5.19-.75.46-.75.82s.23.62.73.81z" style="fill:#3f52fc" transform="translate(-169.53 428.91)"/>
            <path data-name="패스 5458" d="M727.99-332.15h-5.59v1.06h3.98v3.47h-8.03v1.03h8.42v1.33h-10.12v-3.61h8.03v-.91h-8.05v-1.31h4.03v-1.06h-5.55v-1.38h12.88zm-11.25-6.67h9.59v4.41h-9.59zm7.86 3.04v-1.69h-6.16v1.69z" style="fill:#3f52fc" transform="translate(-169.53 428.91)"/>
            <path data-name="패스 5459" d="M741.82-331.18h-5.59v1.36h4.03v4.52h-9.8v-4.52h4.05v-1.36h-5.56v-1.39h12.88v1.39zm-11.72-7.66h10.53v1.39h-1.94v2.42h1.86v1.41h-10.38v-1.41h1.86v-2.42h-1.94v-1.39zm8.47 12.12v-1.77h-6.39v1.77zm-1.62-8.31v-2.42h-3.17v2.42z" style="fill:#3f52fc" transform="translate(-169.53 428.91)"/>
            <path data-name="패스 5460" d="M747.32-336.61a3.431 3.431 0 0 1 1.38-1.26 4.134 4.134 0 0 1 1.93-.46 4.017 4.017 0 0 1 1.93.46 3.474 3.474 0 0 1 1.37 1.26 3.4 3.4 0 0 1 .5 1.81 3.442 3.442 0 0 1-.5 1.83 3.4 3.4 0 0 1-1.37 1.26 4.157 4.157 0 0 1-1.93.45 4.128 4.128 0 0 1-1.93-.45 3.5 3.5 0 0 1-1.38-1.26 3.355 3.355 0 0 1-.5-1.83 3.4 3.4 0 0 1 .5-1.81zm1.47 2.89a1.833 1.833 0 0 0 .75.71 2.276 2.276 0 0 0 1.09.25 2.223 2.223 0 0 0 1.07-.25 1.833 1.833 0 0 0 .75-.71 2.075 2.075 0 0 0 .27-1.07 2 2 0 0 0-.27-1.05 1.833 1.833 0 0 0-.75-.71 2.251 2.251 0 0 0-1.07-.25 2.332 2.332 0 0 0-1.09.25 1.833 1.833 0 0 0-.75.71 2.052 2.052 0 0 0-.27 1.05 2.1 2.1 0 0 0 .27 1.07zm.2 3.65h1.75v3.25h7.98v1.41h-9.73zm9.35 1.03h-1.75v-10.2h1.75z" style="fill:#3f52fc" transform="translate(-169.53 428.91)"/>
            <path data-name="패스 5461" d="M763.5-332.29a8.2 8.2 0 0 0 1.29-3.84h-3.78v-1.41h5.5a13.843 13.843 0 0 1-.15 2.08h1.65v-3.45h1.66v13.11h-1.66v-4.72h-2.2v-1.42h2.2v-2.09h-1.95a9.576 9.576 0 0 1-1.69 3.3 10.951 10.951 0 0 1-3.1 2.62l-1.02-1.23a9.783 9.783 0 0 0 3.25-2.95zm9.09 7.15h-1.66v-14.12h1.66z" style="fill:#3f52fc" transform="translate(-169.53 428.91)"/>
            <path data-name="패스 5462" d="M789.87-325.12h-1.72v-7.66h-2.88v4.23h-6.72v-9.62h1.75v3.52h3.27v-3.52h1.7v3.97h2.88v-5.06h1.72v14.14zm-6.3-4.81v-3.36h-3.27v3.36z" style="fill:#3f52fc" transform="translate(-169.53 428.91)"/>
            <path data-name="패스 5463" d="M804.73-330.18h-12.91v-1.38h12.91zm-11.28.81h1.7v2.55h8.25v1.41h-9.95zm.03-9.41h9.7v1.34h-7.97v1.09h7.62v1.3h-7.62v1.12h8.08v1.33h-9.81v-6.18z" style="fill:#3f52fc" transform="translate(-169.53 428.91)"/>
            <path data-name="패스 5464" d="M805.68-333.43h12.88v1.39h-12.88zm9.17-5.33a4.033 4.033 0 0 1 1.74.82 1.709 1.709 0 0 1 .6 1.32 1.744 1.744 0 0 1-.6 1.33 3.923 3.923 0 0 1-1.74.82 12.017 12.017 0 0 1-2.75.29 11.481 11.481 0 0 1-2.75-.29 3.922 3.922 0 0 1-1.74-.82 1.729 1.729 0 0 1-.6-1.33 1.724 1.724 0 0 1 .6-1.32 3.923 3.923 0 0 1 1.74-.82 12.606 12.606 0 0 1 2.75-.29 12.016 12.016 0 0 1 2.75.29zm-7.65 7.67h9.75v3.45h-8.03v1.05h8.42v1.33h-10.12v-3.61h8.03v-.94h-8.05zm2.45-4.67a7.955 7.955 0 0 0 2.45.28 8.058 8.058 0 0 0 2.47-.28c.55-.19.82-.47.82-.86 0-.36-.28-.65-.84-.84a7.707 7.707 0 0 0-2.46-.3 7.611 7.611 0 0 0-2.44.3c-.56.2-.83.48-.83.84.01.38.28.67.83.86z" style="fill:#3f52fc" transform="translate(-169.53 428.91)"/>
            <path data-name="패스 5465" d="M823.29-333.87h12.91v1.41h-5.62v1.23h4.05v3.52h-8.03v1.11h8.5v1.34h-10.25v-3.67h8.06v-.98h-8.08v-1.31h4.05v-1.23h-5.58v-1.42zm11.42-.95h-9.75v-4.25h1.7v2.86h8.05z" style="fill:#3f52fc" transform="translate(-169.53 428.91)"/>
            <path data-name="패스 5466" d="M837.6-338.03h6.39v5.17h-4.62v2.97c1.16 0 2.18-.04 3.05-.09a24.411 24.411 0 0 0 2.64-.33l.14 1.42a26.945 26.945 0 0 1-2.95.35c-.98.06-2.14.1-3.47.1h-1.12v-5.83h4.64v-2.36h-4.69v-1.4zm11.36 12.91h-1.73v-7.52h-2.42v-1.42h2.42v-5.2h1.73z" style="fill:#3f52fc" transform="translate(-169.53 428.91)"/>
            <path data-name="패스 5467" d="M863.84-329.98h-5.61v4.83h-1.72v-4.83h-5.55v-1.41h12.88v1.41zm-9.8-4.4a5.091 5.091 0 0 0 1.67-1.22 2.627 2.627 0 0 0 .68-1.49h-4.24v-1.38h10.5v1.38h-4.24a2.574 2.574 0 0 0 .67 1.49 4.955 4.955 0 0 0 1.67 1.22 7.762 7.762 0 0 0 2.42.68l-.62 1.36a8.553 8.553 0 0 1-3.14-1.04 5.241 5.241 0 0 1-2-1.93 5.283 5.283 0 0 1-1.99 1.93 8.513 8.513 0 0 1-3.12 1.04l-.66-1.36a7.636 7.636 0 0 0 2.4-.68z" style="fill:#3f52fc" transform="translate(-169.53 428.91)"/>
            <path data-name="패스 5468" d="M869.49-333.25a6.856 6.856 0 0 0 .89 2.05 4.976 4.976 0 0 0 1.52 1.51l-.95 1.33a5 5 0 0 1-1.56-1.48 7.765 7.765 0 0 1-1.01-2.13 8.385 8.385 0 0 1-1.08 2.34 5.41 5.41 0 0 1-1.66 1.61l-1.08-1.3a5.52 5.52 0 0 0 1.66-1.57 6.684 6.684 0 0 0 .98-2.15 9.741 9.741 0 0 0 .33-2.42v-2.53h1.67v2.45a9.337 9.337 0 0 0 .29 2.29zm.89-1.15h2.02v-4.61h1.64v13.19h-1.64v-7.14h-2.02zm4.92-4.86h1.67v14.12h-1.67z" style="fill:#3f52fc" transform="translate(-169.53 428.91)"/>
            <path data-name="패스 5469" d="M891.52-326.86h-12.91v-1.42h2.98v-3.57a3.707 3.707 0 0 1-1.33-1.24 3.025 3.025 0 0 1-.46-1.67 3.065 3.065 0 0 1 .67-1.96 4.378 4.378 0 0 1 1.86-1.31 7.424 7.424 0 0 1 2.7-.46 7.62 7.62 0 0 1 2.71.46 4.448 4.448 0 0 1 1.88 1.31 3.074 3.074 0 0 1 .68 1.96 3.087 3.087 0 0 1-.45 1.64 3.758 3.758 0 0 1-1.3 1.23v3.61h2.97v1.42zm-9.57-6.66a2.731 2.731 0 0 0 1.24.82 5.485 5.485 0 0 0 1.85.29 5.587 5.587 0 0 0 1.86-.29 2.884 2.884 0 0 0 1.26-.82 1.882 1.882 0 0 0 .45-1.25 1.909 1.909 0 0 0-.45-1.26 2.8 2.8 0 0 0-1.26-.82 5.6 5.6 0 0 0-1.86-.28 5.6 5.6 0 0 0-1.86.28 2.678 2.678 0 0 0-1.24.82 1.953 1.953 0 0 0-.44 1.26 1.971 1.971 0 0 0 .45 1.25zm4.84 5.24v-2.95a8.24 8.24 0 0 1-1.75.18 8.876 8.876 0 0 1-1.72-.17v2.94h3.47z" style="fill:#3f52fc" transform="translate(-169.53 428.91)"/>
            <path data-name="패스 5470" d="M893.55-326.57a1.214 1.214 0 0 1-.45-.45 1.184 1.184 0 0 1-.16-.61 1.174 1.174 0 0 1 .16-.6 1.266 1.266 0 0 1 .45-.44 1.184 1.184 0 0 1 .61-.16 1.174 1.174 0 0 1 .6.16 1.237 1.237 0 0 1 .44.44 1.149 1.149 0 0 1 .16.6 1.184 1.184 0 0 1-.16.61 1.266 1.266 0 0 1-.44.45 1.124 1.124 0 0 1-.6.16 1.117 1.117 0 0 1-.61-.16z" style="fill:#3f52fc" transform="translate(-169.53 428.91)"/>
        </g>
        <g data-name="그룹 3927">
            <path data-name="패스 5471" d="M313.17-318.6h-72.41a7.793 7.793 0 0 1-7.79-7.79v-10.41a7.793 7.793 0 0 1 7.79-7.79h72.41a7.793 7.793 0 0 1 7.79 7.79v10.41a7.793 7.793 0 0 1-7.79 7.79z" style="fill:#3f52fc" transform="translate(-169.53 428.91)"/>
        </g>
        <g data-name="그룹 3928">
            <path data-name="패스 5472" d="M902.24-318.1h-661.9a8.3 8.3 0 0 1-8.29-8.29v-10.41a8.3 8.3 0 0 1 8.29-8.29h661.9a8.3 8.3 0 0 1 8.29 8.29v10.41a8.288 8.288 0 0 1-8.29 8.29zm-661.89-26a7.3 7.3 0 0 0-7.29 7.29v10.41a7.3 7.3 0 0 0 7.29 7.29h661.9a7.3 7.3 0 0 0 7.29-7.29v-10.41a7.3 7.3 0 0 0-7.29-7.29z" style="fill:#3f52fc" transform="translate(-169.53 428.91)"/>
        </g>
        <g data-name="그룹 3929">
            <path data-name="패스 5473" d="M250.52-337.04a3.4 3.4 0 0 1 1.36-1.18 4.428 4.428 0 0 1 1.95-.42 4.428 4.428 0 0 1 1.95.42 3.264 3.264 0 0 1 1.36 1.18 3.086 3.086 0 0 1 .49 1.72 3 3 0 0 1-.49 1.7 3.22 3.22 0 0 1-1.36 1.16 4.428 4.428 0 0 1-1.95.42 4.4 4.4 0 0 1-1.95-.42 3.366 3.366 0 0 1-1.36-1.16 3.005 3.005 0 0 1-.5-1.7 3.127 3.127 0 0 1 .5-1.72zm1.47 2.69a1.764 1.764 0 0 0 .75.65 2.575 2.575 0 0 0 1.1.23 2.516 2.516 0 0 0 1.08-.23 1.764 1.764 0 0 0 .75-.65 1.78 1.78 0 0 0 .27-.98 1.78 1.78 0 0 0-.27-.98 1.764 1.764 0 0 0-.75-.65 2.516 2.516 0 0 0-1.08-.23 2.575 2.575 0 0 0-1.1.23 1.764 1.764 0 0 0-.75.65 1.78 1.78 0 0 0-.27.98 1.936 1.936 0 0 0 .27.98zm.21 3.32h1.72v1.45h5.89v-1.45h1.73v5.72h-9.34v-5.72zm7.61 4.31v-1.5h-5.89v1.5zm1.73-4.96h-1.75v-7.58h1.75z" style="fill:#fff" transform="translate(-169.53 428.91)"/>
            <path data-name="패스 5474" d="M274.93-337.48v.44c0 .6-.02 1.19-.07 1.75a17.658 17.658 0 0 1-.27 1.83h1.92v1.41H263.6v-1.41h9.23a15.24 15.24 0 0 0 .3-1.89c.05-.57.07-1.18.07-1.83h-8v-1.39h9.73v1.09zm-9.78 7.06h9.77v5.11h-9.77zm8.05 3.7v-2.34h-6.34v2.34z" style="fill:#fff" transform="translate(-169.53 428.91)"/>
            <path data-name="패스 5475" d="M283.53-338.29a2.947 2.947 0 0 1 1.26 1 2.523 2.523 0 0 1 .46 1.48 2.619 2.619 0 0 1-.34 1.27 2.837 2.837 0 0 1-.93.96 3.75 3.75 0 0 1-1.38.53v1.14q1.98-.12 3.45-.33l.14 1.27a34.575 34.575 0 0 1-3.97.46c-1.39.08-2.81.12-4.28.12h-.36l-.19-1.39c1.3 0 2.45-.02 3.45-.05v-1.21a3.655 3.655 0 0 1-1.41-.52 2.7 2.7 0 0 1-.94-.96 2.543 2.543 0 0 1-.33-1.28 2.516 2.516 0 0 1 .45-1.48 2.977 2.977 0 0 1 1.25-1 4.461 4.461 0 0 1 1.83-.36 4.318 4.318 0 0 1 1.84.35zm-4.19 8.87h1.73v2.58h8.05v1.41h-9.78zm.69-5.59a1.516 1.516 0 0 0 .68.53 2.583 2.583 0 0 0 1 .19 2.2 2.2 0 0 0 1.38-.41 1.351 1.351 0 0 0 .53-1.1 1.356 1.356 0 0 0-.53-1.11 2.2 2.2 0 0 0-1.38-.41 2.586 2.586 0 0 0-1 .18 1.553 1.553 0 0 0-.68.52 1.309 1.309 0 0 0-.23.81 1.237 1.237 0 0 0 .23.8zm6.86-4.24h1.73v4.56h1.91v1.44h-1.91v4.78h-1.73z" style="fill:#fff" transform="translate(-169.53 428.91)"/>
            <path data-name="패스 5476" d="M304.17-326.78h-12.91v-1.44h3.42v-2.33h-1.89v-4.61h8.12v-1.73h-8.16v-1.41h9.88v4.53h-8.11v1.81h8.44v1.41h-2.06v2.33h3.27zm-4.97-1.44v-2.33h-2.83v2.33z" style="fill:#fff" transform="translate(-169.53 428.91)"/>
        </g>
    </g>
</svg>
