<svg xmlns="http://www.w3.org/2000/svg" width="300.13" height="102.23" viewBox="0 0 300.13 102.23">
    <g data-name="입금완료(판매)">
        <g data-name="그룹 3967">
            <path data-name="패스 5290" d="M291.21-45.5H8.79A7.793 7.793 0 0 1 1-53.29v-34.1a7.793 7.793 0 0 1 7.79-7.79H291.2a7.793 7.793 0 0 1 7.79 7.79v34.1a7.778 7.778 0 0 1-7.78 7.79z" style="fill:#fff" transform="translate(-.12 147.23)"/>
            <path data-name="패스 5291" d="M291.21-45H8.79A8.3 8.3 0 0 1 .5-53.29v-34.1a8.3 8.3 0 0 1 8.29-8.29H291.2a8.3 8.3 0 0 1 8.29 8.29v34.1a8.286 8.286 0 0 1-8.28 8.29zM8.79-94.69A7.3 7.3 0 0 0 1.5-87.4v34.1A7.3 7.3 0 0 0 8.79-46H291.2a7.3 7.3 0 0 0 7.29-7.29v-34.1a7.3 7.3 0 0 0-7.29-7.29H8.79z" style="fill:#3f52fc" transform="translate(-.12 147.23)"/>
        </g>
        <g data-name="그룹 3968">
            <path data-name="패스 5292" d="M168.56-87.93h-37.12a7.793 7.793 0 0 1-7.79-7.79v-1.35a7.793 7.793 0 0 1 7.79-7.79h37.12a7.793 7.793 0 0 1 7.79 7.79v1.35a7.793 7.793 0 0 1-7.79 7.79z" style="fill:#3f52fc" transform="translate(-.12 147.23)"/>
        </g>
        <g data-name="그룹 3969">
            <path data-name="패스 5293" d="M73.34-78.22c0 .67-.02 1.27-.05 1.79a13.37 13.37 0 0 1-.25 1.77h1.55v.76h-4.3v4.52h-.93v-4.52H65.1v-.76h7.01a12.14 12.14 0 0 0 .26-1.78c.03-.52.05-1.12.05-1.78v-.15H66.3v-.76h7.04v.91z" style="fill:#3f52fc" transform="translate(-.12 147.23)"/>
            <path data-name="패스 5294" d="M75.86-78.6h3.98v6.4h-3.98zm3.11 5.66v-4.92h-2.25v4.92zm5.43 3.54h-.89v-5.52h-1.45v4.99h-.88v-9.67h.88v3.91h1.45v-4.14h.89z" style="fill:#3f52fc" transform="translate(-.12 147.23)"/>
            <path data-name="패스 5295" d="M89.72-74.95a5.62 5.62 0 0 0 .98 1.53 4.334 4.334 0 0 0 1.37 1.04l-.53.73a4.763 4.763 0 0 1-1.58-1.29 5.947 5.947 0 0 1-1.05-1.93 7.15 7.15 0 0 1-.65 1.44 5.973 5.973 0 0 1-.93 1.21 4.561 4.561 0 0 1-1.1.82l-.56-.73a4.519 4.519 0 0 0 1.39-1.09 6 6 0 0 0 1.03-1.63 4.429 4.429 0 0 0 .39-1.77v-1.36h-2.43v-.76h5.67v.76h-2.34v1.36a4.027 4.027 0 0 0 .34 1.67zm3.27-4.87h.91v4.22h1.75v.79H93.9v5.41h-.91z" style="fill:#3f52fc" transform="translate(-.12 147.23)"/>
            <path data-name="패스 5296" d="M99.39-74.58a6.448 6.448 0 0 0 1.26-3.34h-3.88v-.77h4.82a7.83 7.83 0 0 1-1.17 4.21 8.574 8.574 0 0 1-3.61 3.1l-.52-.73a8.467 8.467 0 0 0 3.1-2.47zm4.89-.99h1.69v.77h-1.69v5.4h-.91v-10.42h.91z" style="fill:#3f52fc" transform="translate(-.12 147.23)"/>
            <path data-name="패스 5297" d="M110.19-78.16a2.364 2.364 0 0 1 .97-.85 3.207 3.207 0 0 1 1.41-.3 3.1 3.1 0 0 1 1.41.3 2.3 2.3 0 0 1 .97.85 2.306 2.306 0 0 1 .35 1.25 2.272 2.272 0 0 1-.35 1.24 2.364 2.364 0 0 1-.97.85 3.177 3.177 0 0 1-1.41.3 3.207 3.207 0 0 1-1.41-.3 2.238 2.238 0 0 1-.97-.85 2.3 2.3 0 0 1-.35-1.24 2.306 2.306 0 0 1 .35-1.25zm.78 2.09a1.592 1.592 0 0 0 .65.58 2.075 2.075 0 0 0 .95.21 2.033 2.033 0 0 0 .94-.21 1.658 1.658 0 0 0 .65-.58 1.517 1.517 0 0 0 .23-.84 1.6 1.6 0 0 0-.23-.84 1.449 1.449 0 0 0-.65-.57 2.2 2.2 0 0 0-.94-.21 2.075 2.075 0 0 0-.95.21 1.643 1.643 0 0 0-.65.57 1.5 1.5 0 0 0-.23.84 1.6 1.6 0 0 0 .23.84zm.48 2.37h.91v1.27h4.92v-1.27h.91v4.16h-6.75v-4.16zm5.83 3.41v-1.41h-4.92v1.41zm.92-3.94h-.91v-5.59h.91z" style="fill:#3f52fc" transform="translate(-.12 147.23)"/>
            <path data-name="패스 5298" d="M128.25-78.48c0 .56-.02 1.07-.05 1.52a11.535 11.535 0 0 1-.23 1.54h1.53v.76h-9.54v-.76h7.08a10.662 10.662 0 0 0 .23-1.42c.04-.43.06-.87.06-1.33v-.31h-6.16v-.76h7.08zm-7.11 5.26h7.16v3.68h-7.16zm6.25 2.93v-2.2h-5.33v2.2z" style="fill:#3f52fc" transform="translate(-.12 147.23)"/>
            <path data-name="패스 5299" d="M130.34-75.3h9.49v.75h-9.49zm6.72-4.12a2.855 2.855 0 0 1 1.26.61 1.285 1.285 0 0 1 .44.98 1.342 1.342 0 0 1-.44 1 2.757 2.757 0 0 1-1.26.62 8.119 8.119 0 0 1-1.98.21 8.673 8.673 0 0 1-1.99-.21 2.662 2.662 0 0 1-1.26-.62 1.342 1.342 0 0 1-.44-1 1.3 1.3 0 0 1 .44-.98 2.843 2.843 0 0 1 1.27-.61 8.263 8.263 0 0 1 1.99-.21 8.089 8.089 0 0 1 1.97.21zm-5.57 5.77h7.12v2.33h-6.19v1.08h6.5v.73h-7.42V-72h6.2v-.95h-6.22v-.7zm1.57-3.35a5.433 5.433 0 0 0 2.02.29 5.649 5.649 0 0 0 2.02-.29c.48-.19.72-.47.72-.83a.728.728 0 0 0-.33-.59 2.357 2.357 0 0 0-.94-.38 6.976 6.976 0 0 0-1.47-.13 7.076 7.076 0 0 0-1.48.13 2.513 2.513 0 0 0-.94.38.7.7 0 0 0-.32.59c.01.35.25.63.72.83z" style="fill:#3f52fc" transform="translate(-.12 147.23)"/>
            <path data-name="패스 5300" d="M148.24-79.07a2.154 2.154 0 0 1 .92.72 1.818 1.818 0 0 1 .33 1.08 1.816 1.816 0 0 1-.26.96 2 2 0 0 1-.74.7 2.906 2.906 0 0 1-1.1.35v1.02c1.07-.06 2.02-.15 2.87-.28l.07.69a24.4 24.4 0 0 1-2.95.33c-1.03.05-2.11.09-3.23.09h-.32l-.12-.76h.54c.85 0 1.59-.01 2.21-.04v-1.05a3.053 3.053 0 0 1-1.13-.34 1.884 1.884 0 0 1-.75-.7 1.877 1.877 0 0 1-.26-.97 1.818 1.818 0 0 1 .33-1.08 2.123 2.123 0 0 1 .91-.72 3.336 3.336 0 0 1 1.34-.26 3.336 3.336 0 0 1 1.34.26zm-2.84 2.5a1.393 1.393 0 0 0 .61.47 2.278 2.278 0 0 0 .89.17 2.278 2.278 0 0 0 .89-.17 1.452 1.452 0 0 0 .61-.47 1.115 1.115 0 0 0 .22-.69 1.174 1.174 0 0 0-.22-.71 1.377 1.377 0 0 0-.61-.47 2.278 2.278 0 0 0-.89-.17 2.278 2.278 0 0 0-.89.17 1.452 1.452 0 0 0-.61.47 1.136 1.136 0 0 0-.21.7 1.059 1.059 0 0 0 .21.7zm-.17 4.04h.93v2.12h6.07v.77h-7zm5.7-7.27h.93v3.53h1.56v.79h-1.56v3.66h-.93z" style="fill:#3f52fc" transform="translate(-.12 147.23)"/>
            <path data-name="패스 5301" d="M163.63-70.69h-9.54v-.77h2.68v-1.98h-1.49v-3.21h6.23v-1.63h-6.26v-.76h7.16v3.15h-6.22v1.69h6.47v.76h-1.63v1.98h2.59v.77zm-3.49-.77v-1.98h-2.46v1.98z" style="fill:#3f52fc" transform="translate(-.12 147.23)"/>
            <path data-name="패스 5302" d="M164.49-78.53h2.65v-1.28h.91v1.28h2.65v.75h-6.21v-.75zm.9 2.25a2.03 2.03 0 0 1 .88-.68 3.379 3.379 0 0 1 1.32-.24 3.278 3.278 0 0 1 1.3.24 2.09 2.09 0 0 1 .88.68 1.705 1.705 0 0 1 .32 1.03 1.7 1.7 0 0 1-.32 1.02 2.011 2.011 0 0 1-.88.67 3.314 3.314 0 0 1-1.3.23 3.576 3.576 0 0 1-1.32-.23 1.94 1.94 0 0 1-.88-.67 1.689 1.689 0 0 1-.31-1.02 1.768 1.768 0 0 1 .31-1.03zm.77 1.66a1.255 1.255 0 0 0 .57.42 2.283 2.283 0 0 0 .86.14 2.264 2.264 0 0 0 .85-.14 1.344 1.344 0 0 0 .58-.42 1 1 0 0 0 .21-.64 1.025 1.025 0 0 0-.21-.64 1.391 1.391 0 0 0-.57-.43 2.172 2.172 0 0 0-.84-.15 2.332 2.332 0 0 0-.87.15 1.344 1.344 0 0 0-.58.42 1.017 1.017 0 0 0-.2.64 1.069 1.069 0 0 0 .2.65zm-.07 2h.9v2.23h6.09v.77h-7v-3zm6.52-3.75h1.57v.77h-1.57v3.6h-.91v-7.8h.91z" style="fill:#3f52fc" transform="translate(-.12 147.23)"/>
            <path data-name="패스 5303" d="M181.66-76.78a3.7 3.7 0 0 0 .92 1.14 4.1 4.1 0 0 0 1.34.75l-.5.73a4.347 4.347 0 0 1-1.51-.93 4.243 4.243 0 0 1-1-1.44 4.394 4.394 0 0 1-1.01 1.62 4.5 4.5 0 0 1-1.59 1.05l-.49-.74a4.159 4.159 0 0 0 1.37-.83 3.86 3.86 0 0 0 .92-1.25 3.539 3.539 0 0 0 .33-1.51v-1.08h.9v1.15a2.785 2.785 0 0 0 .32 1.34zm-2.05 4.44a2.741 2.741 0 0 1 1.2-.65 6.7 6.7 0 0 1 1.85-.22 6.626 6.626 0 0 1 1.84.22 2.516 2.516 0 0 1 1.18.65 1.436 1.436 0 0 1 .41 1.02 1.443 1.443 0 0 1-.41 1.03 2.66 2.66 0 0 1-1.18.65 6.626 6.626 0 0 1-1.84.22 6.751 6.751 0 0 1-1.85-.22 2.645 2.645 0 0 1-1.19-.65 1.452 1.452 0 0 1-.42-1.03 1.372 1.372 0 0 1 .41-1.02zm.81 1.65a2 2 0 0 0 .88.4 5.925 5.925 0 0 0 1.36.14 5.925 5.925 0 0 0 1.36-.14 2.183 2.183 0 0 0 .88-.4.776.776 0 0 0 .31-.63.767.767 0 0 0-.31-.61 2.183 2.183 0 0 0-.88-.4 5.9 5.9 0 0 0-1.35-.14 5.9 5.9 0 0 0-1.35.14 2.121 2.121 0 0 0-.88.4.786.786 0 0 0-.3.61.744.744 0 0 0 .28.63zm4.66-9.13h.91v2.72h1.57v.77h-1.57v2.85h-.91z" style="fill:#3f52fc" transform="translate(-.12 147.23)"/>
            <path data-name="패스 5304" d="M192.76-77.86h-3.25v2h3.09v.74h-3.09v2.36c.82 0 1.49-.02 2.03-.06a15.238 15.238 0 0 0 1.62-.2l.08.76a14.171 14.171 0 0 1-1.67.22c-.55.04-1.22.06-2.03.06h-.91v-6.63h4.12v.75zm1.18-1.73h.89v3.97h1.43v-4.2h.89v10.42h-.89v-5.46h-1.43v4.93h-.89z" style="fill:#3f52fc" transform="translate(-.12 147.23)"/>
            <path data-name="패스 5305" d="M199.18-78.16a2.364 2.364 0 0 1 .97-.85 3.207 3.207 0 0 1 1.41-.3 3.1 3.1 0 0 1 1.41.3 2.3 2.3 0 0 1 .97.85 2.306 2.306 0 0 1 .35 1.25 2.272 2.272 0 0 1-.35 1.24 2.364 2.364 0 0 1-.97.85 3.177 3.177 0 0 1-1.41.3 3.207 3.207 0 0 1-1.41-.3 2.238 2.238 0 0 1-.97-.85 2.3 2.3 0 0 1-.35-1.24 2.307 2.307 0 0 1 .35-1.25zm.79 2.09a1.592 1.592 0 0 0 .65.58 2.075 2.075 0 0 0 .95.21 2.033 2.033 0 0 0 .94-.21 1.658 1.658 0 0 0 .65-.58 1.518 1.518 0 0 0 .23-.84 1.6 1.6 0 0 0-.23-.84 1.449 1.449 0 0 0-.65-.57 2.2 2.2 0 0 0-.94-.21 2.075 2.075 0 0 0-.95.21 1.643 1.643 0 0 0-.65.57 1.5 1.5 0 0 0-.23.84 1.44 1.44 0 0 0 .23.84zm.47 2.37h.91v1.27h4.92v-1.27h.91v4.16h-6.75v-4.16zm5.84 3.41v-1.41h-4.92v1.41zm.91-3.94h-.91v-5.59h.91z" style="fill:#3f52fc" transform="translate(-.12 147.23)"/>
            <path data-name="패스 5306" d="M209.64-78.78h.9v5.91c.86-.01 1.7-.05 2.51-.13a21.746 21.746 0 0 0 2.47-.38l.13.79a25.113 25.113 0 0 1-2.59.4q-1.26.12-2.58.12h-.84zm7.91 9.38h-.91v-10.42h.91z" style="fill:#3f52fc" transform="translate(-.12 147.23)"/>
            <path data-name="패스 5307" d="M219.79-78.8h4.86v.76h-3.95v5.27c.98 0 1.84-.03 2.56-.09a21.969 21.969 0 0 0 2.21-.29l.12.8a20.371 20.371 0 0 1-2.27.28c-.74.05-1.64.07-2.71.07h-.82v-6.8zm7.6 3.11h1.75v.77h-1.75v5.54h-.91v-10.44h.91z" style="fill:#3f52fc" transform="translate(-.12 147.23)"/>
            <path data-name="패스 5308" d="M230.43-70.38a.752.752 0 0 1-.28-.28.721.721 0 0 1-.1-.38.686.686 0 0 1 .1-.37.833.833 0 0 1 .28-.28.721.721 0 0 1 .38-.1.686.686 0 0 1 .37.1.9.9 0 0 1 .28.27.686.686 0 0 1 .1.37.732.732 0 0 1-.22.54.719.719 0 0 1-.53.23.7.7 0 0 1-.38-.1z" style="fill:#3f52fc" transform="translate(-.12 147.23)"/>
            <path data-name="패스 5309" d="M25.34-60.27a6.513 6.513 0 0 0 1.02-3.04h-3.13v-.76h4.04a8.042 8.042 0 0 1-.52 2.94h1.87v-4h.88v9.61h-.88v-4.86h-2.21a7.885 7.885 0 0 1-3.09 3.14l-.54-.67a7.527 7.527 0 0 0 2.56-2.36zM31.7-55h-.88v-10.42h.88z" style="fill:#3f52fc" transform="translate(-.12 147.23)"/>
            <path data-name="패스 5310" d="M33.74-63.68a2.317 2.317 0 0 1 .97-.86 3.211 3.211 0 0 1 1.41-.31 3.107 3.107 0 0 1 1.41.31 2.324 2.324 0 0 1 .97.86 2.351 2.351 0 0 1 .35 1.27 2.341 2.341 0 0 1-.35 1.26 2.317 2.317 0 0 1-.97.86 3.179 3.179 0 0 1-1.41.31 3.077 3.077 0 0 1-1.41-.31 2.324 2.324 0 0 1-.97-.86 2.341 2.341 0 0 1-.35-1.26 2.351 2.351 0 0 1 .35-1.27zm.79 2.11a1.592 1.592 0 0 0 .65.58 2.075 2.075 0 0 0 .95.21 2.063 2.063 0 0 0 .94-.21 1.531 1.531 0 0 0 .65-.58 1.615 1.615 0 0 0 .23-.85 1.65 1.65 0 0 0-.23-.86 1.553 1.553 0 0 0-.65-.59 2.063 2.063 0 0 0-.94-.21 2.105 2.105 0 0 0-.95.21 1.49 1.49 0 0 0-.65.59 1.676 1.676 0 0 0-.23.86 1.451 1.451 0 0 0 .23.85zm.45 2.68h6.77v3.75h-6.77zm5.87 3v-2.25h-4.97v2.25zm.9-3.56h-.91v-5.95h.91z" style="fill:#3f52fc" transform="translate(-.12 147.23)"/>
            <path data-name="패스 5311" d="M50.34-62.38a3.7 3.7 0 0 0 .92 1.14 4.1 4.1 0 0 0 1.34.75l-.5.73a4.347 4.347 0 0 1-1.51-.93 4.242 4.242 0 0 1-1-1.44 4.394 4.394 0 0 1-1.01 1.62 4.5 4.5 0 0 1-1.59 1.05l-.49-.74a4.159 4.159 0 0 0 1.37-.83 3.86 3.86 0 0 0 .92-1.25 3.539 3.539 0 0 0 .33-1.51v-1.08h.9v1.15a2.785 2.785 0 0 0 .32 1.34zm-2.04 4.44a2.741 2.741 0 0 1 1.2-.65 6.7 6.7 0 0 1 1.85-.22 6.626 6.626 0 0 1 1.84.22 2.516 2.516 0 0 1 1.18.65 1.436 1.436 0 0 1 .41 1.02 1.443 1.443 0 0 1-.41 1.03 2.66 2.66 0 0 1-1.18.65 6.626 6.626 0 0 1-1.84.22 6.751 6.751 0 0 1-1.85-.22 2.645 2.645 0 0 1-1.19-.65 1.452 1.452 0 0 1-.42-1.03 1.372 1.372 0 0 1 .41-1.02zm.8 1.65a2 2 0 0 0 .88.4 5.925 5.925 0 0 0 1.36.14 5.925 5.925 0 0 0 1.36-.14 2.183 2.183 0 0 0 .88-.4.776.776 0 0 0 .31-.63.767.767 0 0 0-.31-.61 2.183 2.183 0 0 0-.88-.4 5.9 5.9 0 0 0-1.35-.14 5.9 5.9 0 0 0-1.35.14 2.121 2.121 0 0 0-.88.4.786.786 0 0 0-.3.61.744.744 0 0 0 .28.63zm4.66-9.13h.91v2.72h1.57v.77h-1.57v2.85h-.91z" style="fill:#3f52fc" transform="translate(-.12 147.23)"/>
            <path data-name="패스 5312" d="M57.31-62.83a2.954 2.954 0 0 1 .78-1.26 1.753 1.753 0 0 1 1.18-.45 1.709 1.709 0 0 1 1.11.39 2.763 2.763 0 0 1 .78 1.11 5.213 5.213 0 0 1 .35 1.69h1.35v-3.84h.88v9.67h-.88v-5.06h-1.34a5.618 5.618 0 0 1-.33 1.75 2.664 2.664 0 0 1-.78 1.15 1.737 1.737 0 0 1-1.13.4 1.763 1.763 0 0 1-1.18-.44 2.774 2.774 0 0 1-.78-1.26 6.121 6.121 0 0 1-.28-1.92 5.96 5.96 0 0 1 .27-1.93zm.75 3.37a2.277 2.277 0 0 0 .48.96.941.941 0 0 0 .73.33.941.941 0 0 0 .73-.33 2.234 2.234 0 0 0 .48-.95 5.577 5.577 0 0 0 .17-1.44 5.849 5.849 0 0 0-.17-1.48 2.261 2.261 0 0 0-.48-.97.957.957 0 0 0-.74-.34.923.923 0 0 0-.73.34 2.333 2.333 0 0 0-.48.96 5.348 5.348 0 0 0-.16 1.46 5.685 5.685 0 0 0 .17 1.46zM65.83-55h-.89v-10.42h.89z" style="fill:#3f52fc" transform="translate(-.12 147.23)"/>
            <path data-name="패스 5313" d="M71.3-60.79a5.421 5.421 0 0 0 .98 1.6 4.226 4.226 0 0 0 1.37 1.05l-.55.75a4.739 4.739 0 0 1-1.58-1.34 6.147 6.147 0 0 1-1.04-2 6.574 6.574 0 0 1-1.05 2.12 4.854 4.854 0 0 1-1.58 1.41l-.6-.74a4.447 4.447 0 0 0 1.38-1.11 5.646 5.646 0 0 0 .99-1.68 5.3 5.3 0 0 0 .38-1.88v-1.9h.94v1.9a4.877 4.877 0 0 0 .36 1.82zm1.22-1.06H75v-3.56h.91v10.44H75v-6.13h-2.47v-.75z" style="fill:#3f52fc" transform="translate(-.12 147.23)"/>
            <path data-name="패스 5314" d="M90.15-60.26h-4.3v1.03h3.08v2.33h-6.19v1.05h6.5v.73h-7.42v-2.47h6.2v-.93H81.8v-.71h3.13v-1.03h-4.28v-.75h9.49v.75zm-8.26-4.8h7.03v3.18h-7.03zM88-62.63v-1.7h-5.2v1.7z" style="fill:#3f52fc" transform="translate(-.12 147.23)"/>
            <path data-name="패스 5315" d="M100.52-59.61h-4.3v1.23h3.14v3.25h-7.17v-3.25h3.13v-1.23h-4.29v-.76h9.49v.76zm-8.6-5.47h7.7v.76h-1.61v2.19h1.57v.76h-7.63v-.76h1.57v-2.19h-1.61v-.76zm6.54 9.19v-1.77H93.1v1.77zm-1.36-6.23v-2.19h-2.66v2.19z" style="fill:#3f52fc" transform="translate(-.12 147.23)"/>
            <path data-name="패스 5316" d="M105.82-60.64a3.846 3.846 0 0 0 .94-1.2 3.225 3.225 0 0 0 .34-1.42v-.54h-2.36v-.76h5.61v.76h-2.33v.54a2.759 2.759 0 0 0 .33 1.3 3.6 3.6 0 0 0 .91 1.12 4.242 4.242 0 0 0 1.33.75l-.48.74a4.309 4.309 0 0 1-1.53-.94 4.3 4.3 0 0 1-1-1.44 4.325 4.325 0 0 1-1.03 1.59 4.575 4.575 0 0 1-1.62 1.03l-.48-.75a3.879 3.879 0 0 0 1.37-.78zm.54 2.19h.93v2.46h6.06v.77h-6.98v-3.23zm6.69.69h-.93v-4h-2.14v-.76h2.14v-2.88h.93z" style="fill:#3f52fc" transform="translate(-.12 147.23)"/>
            <path data-name="패스 5317" d="M119.89-64.06h-3.73v2.74h.38c.93 0 1.72-.03 2.37-.08a14.538 14.538 0 0 0 1.95-.28l.12.74a15.253 15.253 0 0 1-1.98.29c-.65.05-1.48.08-2.45.08h-1.28v-4.24h4.63v.75zm-3.61 4.42h6.64v2.57h-5.72v1.18h6.11v.75h-7.01v-2.66h5.71v-1.09h-5.73v-.75zm5.73-5.78h.91v2.21h1.57v.76h-1.57v2.29h-.91z" style="fill:#3f52fc" transform="translate(-.12 147.23)"/>
            <path data-name="패스 5318" d="M128.16-58.67h9.54v.76h-4.35v2.93h-.9v-2.93h-4.29zm8.95-4.79h-8.45v-.76h3.8v-1.25h.9v1.25h3.75zm-7.2 1.4a2.576 2.576 0 0 1 1.17-.59 7.469 7.469 0 0 1 1.83-.2 7.441 7.441 0 0 1 1.82.2 2.576 2.576 0 0 1 1.17.59 1.279 1.279 0 0 1 .41.95 1.252 1.252 0 0 1-.41.93 2.576 2.576 0 0 1-1.17.59 7.4 7.4 0 0 1-1.82.21 6.978 6.978 0 0 1-1.83-.21 2.678 2.678 0 0 1-1.17-.59 1.242 1.242 0 0 1-.4-.93 1.254 1.254 0 0 1 .4-.95zm.83 1.49a2.073 2.073 0 0 0 .83.35 6.157 6.157 0 0 0 1.31.12 4.974 4.974 0 0 0 1.83-.27q.66-.27.66-.75c0-.33-.22-.58-.65-.76a4.983 4.983 0 0 0-1.8-.28 4.8 4.8 0 0 0-1.81.28c-.43.18-.64.44-.64.76a.634.634 0 0 0 .27.55z" style="fill:#3f52fc" transform="translate(-.12 147.23)"/>
            <path data-name="패스 5319" d="M151.04-60.26h-4.3v1.03h3.08v2.33h-6.19v1.05h6.5v.73h-7.42v-2.47h6.2v-.93h-6.22v-.71h3.13v-1.03h-4.28v-.75h9.49v.75zm-8.26-4.8h7.03v3.18h-7.03zm6.11 2.43v-1.7h-5.2v1.7z" style="fill:#3f52fc" transform="translate(-.12 147.23)"/>
            <path data-name="패스 5320" d="M161.41-59.61h-4.3v1.23h3.14v3.25h-7.17v-3.25h3.13v-1.23h-4.29v-.76h9.49v.76zm-8.6-5.47h7.7v.76h-1.61v2.19h1.57v.76h-7.63v-.76h1.57v-2.19h-1.61v-.76zm6.54 9.19v-1.77h-5.36v1.77zm-1.36-6.23v-2.19h-2.66v2.19z" style="fill:#3f52fc" transform="translate(-.12 147.23)"/>
            <path data-name="패스 5321" d="M165.9-63.44a2.459 2.459 0 0 1 .98-.91 2.952 2.952 0 0 1 1.4-.33 2.884 2.884 0 0 1 1.39.33 2.526 2.526 0 0 1 .98.91 2.468 2.468 0 0 1 .36 1.32 2.478 2.478 0 0 1-.36 1.33 2.459 2.459 0 0 1-.98.91 2.94 2.94 0 0 1-1.39.33 2.98 2.98 0 0 1-1.4-.33 2.459 2.459 0 0 1-.98-.91 2.471 2.471 0 0 1-.35-1.33 2.553 2.553 0 0 1 .35-1.32zm.78 2.23a1.578 1.578 0 0 0 .66.62 2.067 2.067 0 0 0 .94.22 1.935 1.935 0 0 0 .93-.22 1.714 1.714 0 0 0 .66-.62 1.717 1.717 0 0 0 .24-.91 1.682 1.682 0 0 0-.24-.9 1.714 1.714 0 0 0-.66-.62 1.941 1.941 0 0 0-.93-.23 1.947 1.947 0 0 0-.94.22 1.714 1.714 0 0 0-.66.62 1.613 1.613 0 0 0-.23.9 1.748 1.748 0 0 0 .23.92zm.5 2.65h.91v2.57h6.14v.77h-7.05zm6.72.77h-.91v-7.62h.91z" style="fill:#3f52fc" transform="translate(-.12 147.23)"/>
            <path data-name="패스 5322" d="M178.22-60.27a6.639 6.639 0 0 0 1.03-3.04h-3.12v-.76h4.03a8.988 8.988 0 0 1-.14 1.57h1.58v-2.62h.88v9.61h-.88v-3.61h-1.93v-.76h1.93v-1.85h-1.76a7.329 7.329 0 0 1-1.28 2.5 8.528 8.528 0 0 1-2.33 2l-.56-.67a7.807 7.807 0 0 0 2.55-2.37zm6.37 5.27h-.88v-10.42h.88z" style="fill:#3f52fc" transform="translate(-.12 147.23)"/>
            <path data-name="패스 5323" d="M197.69-54.97h-.91v-5.8h-2.5v3.16h-4.8v-6.98h.93v2.72h2.98v-2.72h.9v3.06h2.5v-3.88h.91v10.44zm-4.31-3.4v-2.77h-2.98v2.77z" style="fill:#3f52fc" transform="translate(-.12 147.23)"/>
            <path data-name="패스 5324" d="M208.92-58.89h-9.5v-.75h9.5zm-8.26.76h.91V-56h6.35v.77h-7.27v-2.9zm.02-6.89h7.05v.74h-6.13v1.09h5.85v.71h-5.85v1.12h6.19v.73h-7.11z" style="fill:#3f52fc" transform="translate(-.12 147.23)"/>
            <path data-name="패스 5325" d="M209.8-60.9h9.49v.75h-9.49zm6.72-4.12a2.855 2.855 0 0 1 1.26.61 1.285 1.285 0 0 1 .44.98 1.342 1.342 0 0 1-.44 1 2.757 2.757 0 0 1-1.26.62 8.119 8.119 0 0 1-1.98.21 8.673 8.673 0 0 1-1.99-.21 2.662 2.662 0 0 1-1.26-.62 1.342 1.342 0 0 1-.44-1 1.3 1.3 0 0 1 .44-.98 2.843 2.843 0 0 1 1.27-.61 8.263 8.263 0 0 1 1.99-.21 8.089 8.089 0 0 1 1.97.21zm-5.57 5.77h7.12v2.33h-6.19v1.08h6.5v.73h-7.42v-2.48h6.2v-.95h-6.22v-.71zm1.57-3.35a5.433 5.433 0 0 0 2.02.29 5.649 5.649 0 0 0 2.02-.29c.48-.19.72-.47.72-.83a.728.728 0 0 0-.33-.59 2.357 2.357 0 0 0-.94-.38 6.976 6.976 0 0 0-1.47-.13 7.076 7.076 0 0 0-1.48.13 2.513 2.513 0 0 0-.94.38.7.7 0 0 0-.32.59c.01.35.25.63.72.83z" style="fill:#3f52fc" transform="translate(-.12 147.23)"/>
            <path data-name="패스 5326" d="M223.17-61.23h9.54v.75h-4.35v1.11h3.12v2.38h-6.16v1.14h6.54v.74h-7.46v-2.54h6.19v-1h-6.21v-.71h3.11v-1.11h-4.3v-.76zm8.41-.92h-7.11v-3.09h.9v2.33h6.21z" style="fill:#3f52fc" transform="translate(-.12 147.23)"/>
            <path data-name="패스 5327" d="M233.91-64.44h4.69v3.64h-3.74v2.53c.97 0 1.81-.02 2.5-.07a20.156 20.156 0 0 0 2.12-.27l.07.77a21.289 21.289 0 0 1-2.2.27c-.72.05-1.59.08-2.6.08h-.8v-4.08h3.76v-2.12h-3.8v-.75zm8.27 9.47h-.91v-5.66h-2.03v-.77h2.03v-4.01h.91z" style="fill:#3f52fc" transform="translate(-.12 147.23)"/>
            <path data-name="패스 5328" d="M243.92-59.47h9.49v.76h-4.31V-55h-.9v-3.71h-4.28v-.76zm5.79-3.19a4.27 4.27 0 0 0 1.37 1.02 6.168 6.168 0 0 0 1.77.55l-.34.73a6.763 6.763 0 0 1-1.59-.47 5.926 5.926 0 0 1-1.36-.82 3.312 3.312 0 0 1-.9-1.1 3.312 3.312 0 0 1-.9 1.1 5.53 5.53 0 0 1-1.35.82 6.749 6.749 0 0 1-1.57.47l-.36-.73a5.811 5.811 0 0 0 1.76-.55 4.421 4.421 0 0 0 1.37-1.02 1.924 1.924 0 0 0 .53-1.27V-64h-3.34v-.75h7.7v.75h-3.33v.07a2.01 2.01 0 0 0 .54 1.27z" style="fill:#3f52fc" transform="translate(-.12 147.23)"/>
            <path data-name="패스 5329" d="M257.65-60.78a5.356 5.356 0 0 0 .76 1.51 3.864 3.864 0 0 0 1.17 1.08l-.53.71a4.125 4.125 0 0 1-1.27-1.23 6.321 6.321 0 0 1-.82-1.76 6.46 6.46 0 0 1-.86 1.9 4.279 4.279 0 0 1-1.34 1.31l-.59-.69a4.075 4.075 0 0 0 1.23-1.12 5.493 5.493 0 0 0 .81-1.58 5.646 5.646 0 0 0 .28-1.77v-2.02h.89v1.98a5.726 5.726 0 0 0 .27 1.68zm.78-.9h1.77v-3.52h.87v9.67h-.87v-5.37h-1.77zm3.9-3.74h.89V-55h-.89z" style="fill:#3f52fc" transform="translate(-.12 147.23)"/>
            <path data-name="패스 5330" d="M274.2-56.33h-9.54v-.77h2.37v-2.81a2.759 2.759 0 0 1-1.05-.91 2.194 2.194 0 0 1-.38-1.25 2.155 2.155 0 0 1 .49-1.4 3.069 3.069 0 0 1 1.35-.94 5.494 5.494 0 0 1 1.97-.34 5.455 5.455 0 0 1 1.97.34 3.152 3.152 0 0 1 1.35.94 2.19 2.19 0 0 1 .49 1.4 2.167 2.167 0 0 1-.36 1.23 2.724 2.724 0 0 1-1.02.9v2.84h2.37v.77zm-7.34-4.73a2.525 2.525 0 0 0 1.03.69 4.2 4.2 0 0 0 1.51.24 4.471 4.471 0 0 0 1.51-.24 2.321 2.321 0 0 0 1.04-.69 1.536 1.536 0 0 0 .38-1.02 1.446 1.446 0 0 0-.38-1.01 2.516 2.516 0 0 0-1.04-.68 4.377 4.377 0 0 0-1.5-.23 4.4 4.4 0 0 0-1.51.23 2.273 2.273 0 0 0-1.03.68 1.573 1.573 0 0 0-.37 1.01 1.57 1.57 0 0 0 .36 1.02zm4.05 3.95v-2.48a5.93 5.93 0 0 1-1.5.18 5.717 5.717 0 0 1-1.48-.18v2.47h2.98z" style="fill:#3f52fc" transform="translate(-.12 147.23)"/>
            <path data-name="패스 5331" d="M275.76-55.98a.753.753 0 0 1-.28-.28.721.721 0 0 1-.1-.38.686.686 0 0 1 .1-.37.833.833 0 0 1 .28-.28.721.721 0 0 1 .38-.1.686.686 0 0 1 .37.1.9.9 0 0 1 .28.27.686.686 0 0 1 .1.37.732.732 0 0 1-.22.54.719.719 0 0 1-.53.23.7.7 0 0 1-.38-.1z" style="fill:#3f52fc" transform="translate(-.12 147.23)"/>
        </g>
        <g data-name="그룹 3970">
            <path data-name="패스 5332" d="M130.27-99.98a2.364 2.364 0 0 1 .97-.85 3.207 3.207 0 0 1 1.41-.3 3.1 3.1 0 0 1 1.41.3 2.3 2.3 0 0 1 .97.85 2.306 2.306 0 0 1 .35 1.25 2.272 2.272 0 0 1-.35 1.24 2.364 2.364 0 0 1-.97.85 3.177 3.177 0 0 1-1.41.3 3.207 3.207 0 0 1-1.41-.3 2.238 2.238 0 0 1-.97-.85 2.3 2.3 0 0 1-.35-1.24 2.369 2.369 0 0 1 .35-1.25zm.79 2.08a1.592 1.592 0 0 0 .65.58 2.075 2.075 0 0 0 .95.21 2.033 2.033 0 0 0 .94-.21 1.658 1.658 0 0 0 .65-.58 1.518 1.518 0 0 0 .23-.84 1.6 1.6 0 0 0-.23-.84 1.449 1.449 0 0 0-.65-.57 2.2 2.2 0 0 0-.94-.21 2.075 2.075 0 0 0-.95.21 1.643 1.643 0 0 0-.65.57 1.5 1.5 0 0 0-.23.84 1.4 1.4 0 0 0 .23.84zm.47 2.38h.91v1.27h4.92v-1.27h.91v4.16h-6.75v-4.16zm5.84 3.41v-1.41h-4.92v1.41zm.91-3.94h-.91v-5.59h.91z" style="fill:#fff" transform="translate(-.12 147.23)"/>
            <path data-name="패스 5333" d="M148.34-100.31c0 .56-.02 1.07-.05 1.52a11.536 11.536 0 0 1-.23 1.54h1.53v.76h-9.54v-.76h7.08a10.662 10.662 0 0 0 .23-1.42c.04-.43.06-.87.06-1.33v-.31h-6.16v-.76h7.08zm-7.12 5.27h7.16v3.68h-7.16zm6.25 2.93v-2.2h-5.33v2.2z" style="fill:#fff" transform="translate(-.12 147.23)"/>
            <path data-name="패스 5334" d="M154.94-100.89a2.154 2.154 0 0 1 .92.72 1.818 1.818 0 0 1 .33 1.08 1.816 1.816 0 0 1-.26.96 2 2 0 0 1-.74.7 2.906 2.906 0 0 1-1.1.35v1.02c1.07-.06 2.02-.15 2.87-.28l.07.69a24.4 24.4 0 0 1-2.95.33c-1.03.05-2.11.09-3.23.09h-.32l-.12-.76h.54c.85 0 1.59-.01 2.21-.04v-1.05a3.053 3.053 0 0 1-1.13-.34 1.884 1.884 0 0 1-.75-.7 1.877 1.877 0 0 1-.26-.97 1.818 1.818 0 0 1 .33-1.08 2.123 2.123 0 0 1 .91-.72 3.336 3.336 0 0 1 1.34-.26 3.336 3.336 0 0 1 1.34.26zm-2.84 2.5a1.393 1.393 0 0 0 .61.47 2.278 2.278 0 0 0 .89.17 2.278 2.278 0 0 0 .89-.17 1.452 1.452 0 0 0 .61-.47 1.115 1.115 0 0 0 .22-.69 1.174 1.174 0 0 0-.22-.71 1.377 1.377 0 0 0-.61-.47 2.278 2.278 0 0 0-.89-.17 2.278 2.278 0 0 0-.89.17 1.452 1.452 0 0 0-.61.47 1.136 1.136 0 0 0-.21.7 1.059 1.059 0 0 0 .21.7zm-.17 4.04h.93v2.12h6.07v.77h-7zm5.7-7.28h.93v3.53h1.56v.79h-1.56v3.66h-.93z" style="fill:#fff" transform="translate(-.12 147.23)"/>
            <path data-name="패스 5335" d="M170.33-92.51h-9.54v-.77h2.68v-1.98h-1.49v-3.21h6.23v-1.63h-6.26v-.76h7.16v3.15h-6.22v1.69h6.47v.76h-1.63v1.98h2.59v.77zm-3.49-.78v-1.98h-2.46v1.98z" style="fill:#fff" transform="translate(-.12 147.23)"/>
        </g>
        <g data-name="그룹 3971">
            <path data-name="패스 5336" d="M288.49-136.23H12.45a3.5 3.5 0 0 1-3.5-3.5 3.5 3.5 0 0 1 3.5-3.5h276.04a3.5 3.5 0 0 1 3.5 3.5 3.491 3.491 0 0 1-3.5 3.5z" style="fill:#fff" transform="translate(-.12 147.23)"/>
        </g>
        <g data-name="그룹 3974">
            <g data-name="그룹 3972" transform="translate(-.12 147.23)">
                <circle data-name="타원 162" cx="7" cy="7" r="7" transform="translate(.62 -146.73)" style="fill:#3f52fc"/>
                <path data-name="패스 5337" d="M7.62-132.23a7.5 7.5 0 0 1-7.5-7.5 7.5 7.5 0 0 1 7.5-7.5 7.5 7.5 0 0 1 7.5 7.5 7.5 7.5 0 0 1-7.5 7.5zm0-14a6.513 6.513 0 0 0-6.5 6.5 6.513 6.513 0 0 0 6.5 6.5 6.513 6.513 0 0 0 6.5-6.5 6.506 6.506 0 0 0-6.5-6.5z" style="fill:#3f52fc"/>
            </g>
            <g data-name="그룹 3973">
                <path data-name="패스 5338" d="M8.4-136.04h-.88v-6.03h-.03l-1.68 1.12v-.87l1.72-1.15h.87z" style="fill:#fff" transform="translate(-.12 147.23)"/>
            </g>
        </g>
        <g data-name="그룹 3975">
            <path data-name="패스 5339" d="M.91-121.84a2.5 2.5 0 0 1 1.02-.88 3.293 3.293 0 0 1 1.46-.31 3.293 3.293 0 0 1 1.46.31 2.5 2.5 0 0 1 1.02.88 2.291 2.291 0 0 1 .37 1.29 2.2 2.2 0 0 1-.37 1.27 2.555 2.555 0 0 1-1.02.87 3.293 3.293 0 0 1-1.46.31 3.293 3.293 0 0 1-1.46-.31 2.555 2.555 0 0 1-1.02-.87 2.226 2.226 0 0 1-.37-1.27 2.246 2.246 0 0 1 .37-1.29zm1.11 2.02a1.342 1.342 0 0 0 .56.49 1.8 1.8 0 0 0 .82.17 1.924 1.924 0 0 0 .81-.17 1.406 1.406 0 0 0 .56-.49 1.293 1.293 0 0 0 .2-.73 1.439 1.439 0 0 0-.2-.74 1.218 1.218 0 0 0-.56-.49 1.924 1.924 0 0 0-.81-.17 1.937 1.937 0 0 0-.82.17 1.277 1.277 0 0 0-.56.49 1.388 1.388 0 0 0-.2.74 1.272 1.272 0 0 0 .2.73zm.15 2.49h1.29v1.09h4.42v-1.09h1.3v4.29H2.17zm5.71 3.23v-1.12H3.46v1.12zm1.3-3.72H7.86v-5.68h1.31v5.68z" style="fill:#3f52fc" transform="translate(-.12 147.23)"/>
            <path data-name="패스 5340" d="M19.22-122.17v.33c0 .45-.02.89-.05 1.31a9.347 9.347 0 0 1-.21 1.37h1.44v1.05h-9.68v-1.05h6.92a10.526 10.526 0 0 0 .22-1.42c.03-.43.05-.89.05-1.37h-6v-1.04h7.3v.82zm-7.34 5.29h7.32v3.83h-7.32v-3.83zm6.04 2.78v-1.76h-4.76v1.76z" style="fill:#3f52fc" transform="translate(-.12 147.23)"/>
            <path data-name="패스 5341" d="M25.66-122.78a2.214 2.214 0 0 1 .94.75 2 2 0 0 1 .35 1.11 1.924 1.924 0 0 1-.25.95 2.152 2.152 0 0 1-.69.72 2.613 2.613 0 0 1-1.03.4v.86c.99-.06 1.86-.14 2.59-.25l.11.95a25.108 25.108 0 0 1-2.98.34q-1.56.09-3.21.09h-.27l-.14-1.04c.98 0 1.84-.01 2.59-.04v-.91a2.914 2.914 0 0 1-1.06-.39 2.124 2.124 0 0 1-.71-.72 1.86 1.86 0 0 1-.25-.96 1.849 1.849 0 0 1 .34-1.11 2.276 2.276 0 0 1 .94-.75 3.317 3.317 0 0 1 1.37-.27 3.269 3.269 0 0 1 1.36.27zm-3.14 6.65h1.3v1.93h6.04v1.05h-7.34zm.52-4.19a1.219 1.219 0 0 0 .51.4 1.793 1.793 0 0 0 .75.14 1.641 1.641 0 0 0 1.03-.31 1.029 1.029 0 0 0 .4-.83 1 1 0 0 0-.4-.83 1.638 1.638 0 0 0-1.03-.3 1.967 1.967 0 0 0-.75.13 1.127 1.127 0 0 0-.51.39 1.045 1.045 0 0 0-.18.61 1.014 1.014 0 0 0 .18.6zm5.14-3.18h1.3v3.42h1.43v1.08h-1.43v3.59h-1.3z" style="fill:#3f52fc" transform="translate(-.12 147.23)"/>
            <path data-name="패스 5342" d="M41.14-114.15h-9.68v-1.08h2.57v-1.75h-1.42v-3.46h6.09v-1.3h-6.12v-1.05H40v3.4h-6.08v1.36h6.33v1.05H38.7v1.75h2.45v1.08zm-3.72-1.07v-1.75H35.3v1.75z" style="fill:#3f52fc" transform="translate(-.12 147.23)"/>
        </g>
        <g data-name="그룹 3976">
            <path data-name="패스 5343" d="M130.96-123.02a2.7 2.7 0 0 1 1.03-.95 3.041 3.041 0 0 1 1.45-.34 3.069 3.069 0 0 1 1.45.34 2.555 2.555 0 0 1 1.03.95 2.549 2.549 0 0 1 .37 1.36 2.535 2.535 0 0 1-.37 1.37 2.626 2.626 0 0 1-1.03.95 3.069 3.069 0 0 1-1.45.34 3.069 3.069 0 0 1-1.45-.34 2.555 2.555 0 0 1-1.03-.95 2.567 2.567 0 0 1-.38-1.37 2.558 2.558 0 0 1 .38-1.36zm1.1 2.17a1.3 1.3 0 0 0 .56.53 1.8 1.8 0 0 0 .82.19 1.631 1.631 0 0 0 .8-.19 1.364 1.364 0 0 0 .56-.53 1.614 1.614 0 0 0 .21-.8 1.481 1.481 0 0 0-.21-.79 1.386 1.386 0 0 0-.57-.53 1.78 1.78 0 0 0-.8-.19 1.67 1.67 0 0 0-.81.19 1.456 1.456 0 0 0-.57.53 1.475 1.475 0 0 0-.2.79 1.614 1.614 0 0 0 .21.8zm.15 2.73h1.31v2.44h5.99v1.05h-7.3zm7.01.78h-1.31V-125h1.31z" style="fill:#707070" transform="translate(-.12 147.23)"/>
            <path data-name="패스 5344" d="M143.09-119.78a6.247 6.247 0 0 0 .97-2.88h-2.84v-1.05h4.12a11.015 11.015 0 0 1-.11 1.56h1.24v-2.59h1.24v9.83h-1.24v-3.54h-1.65v-1.07h1.65v-1.57h-1.46a7.04 7.04 0 0 1-1.27 2.48 8.421 8.421 0 0 1-2.32 1.97l-.76-.93a7.51 7.51 0 0 0 2.43-2.21zm6.81 5.36h-1.24v-10.59h1.24z" style="fill:#707070" transform="translate(-.12 147.23)"/>
            <path data-name="패스 5345" d="M155.7-124.28a2.214 2.214 0 0 1 .94.75 2 2 0 0 1 .35 1.11 1.924 1.924 0 0 1-.25.95 2.152 2.152 0 0 1-.69.72 2.613 2.613 0 0 1-1.03.4v.86c.99-.06 1.86-.14 2.59-.25l.11.95a25.108 25.108 0 0 1-2.98.34q-1.56.09-3.21.09h-.27l-.14-1.04c.98 0 1.84-.01 2.59-.04v-.91a2.914 2.914 0 0 1-1.06-.39 2.124 2.124 0 0 1-.71-.72 1.859 1.859 0 0 1-.25-.96 1.849 1.849 0 0 1 .34-1.11 2.276 2.276 0 0 1 .94-.75 3.317 3.317 0 0 1 1.37-.27 3.269 3.269 0 0 1 1.36.27zm-3.14 6.65h1.3v1.93h6.04v1.05h-7.34zm.52-4.19a1.219 1.219 0 0 0 .51.4 1.793 1.793 0 0 0 .75.14 1.641 1.641 0 0 0 1.03-.31 1.029 1.029 0 0 0 .4-.83 1 1 0 0 0-.4-.83 1.638 1.638 0 0 0-1.03-.3 1.967 1.967 0 0 0-.75.13 1.127 1.127 0 0 0-.51.39 1.045 1.045 0 0 0-.18.61 1.014 1.014 0 0 0 .18.6zm5.14-3.18h1.3v3.42h1.43v1.08h-1.43v3.59h-1.3z" style="fill:#707070" transform="translate(-.12 147.23)"/>
            <path data-name="패스 5346" d="M171.18-115.65h-9.68v-1.08h2.57v-1.75h-1.42v-3.46h6.09v-1.3h-6.12v-1.05h7.41v3.4h-6.08v1.36h6.33v1.05h-1.55v1.75h2.45v1.08zm-3.72-1.07v-1.75h-2.12v1.75z" style="fill:#707070" transform="translate(-.12 147.23)"/>
        </g>
        <g data-name="그룹 3979">
            <g data-name="그룹 3977" transform="translate(-.12 147.23)">
                <circle data-name="타원 163" cx="7" cy="7" r="7" transform="translate(143.78 -146.73)" style="fill:#fff"/>
                <path data-name="패스 5347" d="M150.78-132.23a7.5 7.5 0 0 1-7.5-7.5 7.5 7.5 0 0 1 7.5-7.5 7.5 7.5 0 0 1 7.5 7.5 7.5 7.5 0 0 1-7.5 7.5zm0-14a6.513 6.513 0 0 0-6.5 6.5 6.513 6.513 0 0 0 6.5 6.5 6.513 6.513 0 0 0 6.5-6.5 6.506 6.506 0 0 0-6.5-6.5z" style="fill:#707070"/>
            </g>
            <g data-name="그룹 3978">
                <path data-name="패스 5348" d="m148.55-136.68 2.36-2.49c.31-.33.55-.6.71-.8a3.075 3.075 0 0 0 .38-.59 1.368 1.368 0 0 0 .13-.59 1.045 1.045 0 0 0-.18-.61 1.194 1.194 0 0 0-.5-.41 1.6 1.6 0 0 0-.7-.15 1.462 1.462 0 0 0-.71.17 1.157 1.157 0 0 0-.47.46 1.345 1.345 0 0 0-.17.68h-.81a2.011 2.011 0 0 1 .28-1.07 1.9 1.9 0 0 1 .79-.72 2.462 2.462 0 0 1 1.12-.26 2.385 2.385 0 0 1 1.11.25 1.983 1.983 0 0 1 .77.69 1.836 1.836 0 0 1 .28.98 1.944 1.944 0 0 1-.15.76 3.068 3.068 0 0 1-.48.8q-.345.435-.96 1.08l-1.59 1.64v.06h3.3v.77h-4.5z" style="fill:#707070" transform="translate(-.12 147.23)"/>
            </g>
        </g>
        <g data-name="그룹 3980">
            <path data-name="패스 5349" d="M261.54-119.68a6.293 6.293 0 0 0 1.15-3.18h-3.64v-1.03H264a9.917 9.917 0 0 1-.45 3.02 6.839 6.839 0 0 1-1.5 2.52 9.291 9.291 0 0 1-2.82 2.02l-.68-1.02a7.858 7.858 0 0 0 2.99-2.33zm5.95 5.27h-1.3v-5.39h-2.24v-1.07h2.24v-4.14h1.3z" style="fill:#707070" transform="translate(-.12 147.23)"/>
            <path data-name="패스 5350" d="M273.3-119.98h-2.74v2.06c.62-.01 1.18-.03 1.7-.06a14.7 14.7 0 0 0 1.58-.18l.09 1.05c-.66.11-1.28.18-1.87.22s-1.27.06-2.03.06h-.73v-4.21h2.74v-1.84h-2.75v-1.05h4.01zm1.17-4.83h1.2v3.87h1.2v-4.07h1.24v10.59h-1.24v-5.47h-1.2v4.93h-1.2z" style="fill:#707070" transform="translate(-.12 147.23)"/>
            <path data-name="패스 5351" d="M284.82-119.88h4.2v1.05h-9.66v-1.05h4.17v-1.35h1.29v1.35zm-3.31-2.15a3.811 3.811 0 0 0 1.19-.65 1.618 1.618 0 0 0 .56-.82h-3.02v-1.04h7.91v1.04h-3.05a1.618 1.618 0 0 0 .56.82 3.759 3.759 0 0 0 1.2.65 6.971 6.971 0 0 0 1.71.36l-.47 1.02a6.715 6.715 0 0 1-2.46-.68 3.365 3.365 0 0 1-1.46-1.34 3.279 3.279 0 0 1-1.45 1.34 6.919 6.919 0 0 1-2.45.68l-.46-1.02a6.8 6.8 0 0 0 1.69-.36zm-.58 4.74a2.8 2.8 0 0 1 1.27-.63 8.078 8.078 0 0 1 1.98-.22 7.538 7.538 0 0 1 1.97.22 2.865 2.865 0 0 1 1.26.63 1.342 1.342 0 0 1 .44 1 1.333 1.333 0 0 1-.44 1.01 2.864 2.864 0 0 1-1.26.63 8.051 8.051 0 0 1-1.97.22 7.619 7.619 0 0 1-1.98-.22 3.019 3.019 0 0 1-1.27-.63 1.348 1.348 0 0 1-.44-1.01 1.293 1.293 0 0 1 .44-1zm1.47 1.66a5.333 5.333 0 0 0 1.77.22 5.24 5.24 0 0 0 1.75-.22c.4-.15.61-.37.61-.66s-.21-.49-.61-.64a5.306 5.306 0 0 0-1.76-.22 5.613 5.613 0 0 0-1.77.22c-.4.14-.6.35-.59.64s.2.51.6.66z" style="fill:#707070" transform="translate(-.12 147.23)"/>
            <path data-name="패스 5352" d="M299.41-115.65h-9.68v-1.08h2.57v-1.75h-1.42v-3.46h6.09v-1.3h-6.12v-1.05h7.41v3.4h-6.08v1.36h6.33v1.05h-1.55v1.75h2.45v1.08zm-3.73-1.07v-1.75h-2.12v1.75z" style="fill:#707070" transform="translate(-.12 147.23)"/>
        </g>
        <g data-name="그룹 3983">
            <g data-name="그룹 3981" transform="translate(-.12 147.23)">
                <circle data-name="타원 164" cx="7" cy="7" r="7" transform="translate(285.75 -146.73)" style="fill:#fff"/>
                <path data-name="패스 5353" d="M292.75-132.23a7.5 7.5 0 0 1-7.5-7.5 7.5 7.5 0 0 1 7.5-7.5 7.5 7.5 0 0 1 7.5 7.5 7.5 7.5 0 0 1-7.5 7.5zm0-14a6.513 6.513 0 0 0-6.5 6.5 6.513 6.513 0 0 0 6.5 6.5 6.513 6.513 0 0 0 6.5-6.5 6.506 6.506 0 0 0-6.5-6.5z" style="fill:#707070"/>
            </g>
            <g data-name="그룹 3982">
                <path data-name="패스 5354" d="M291.55-136.18a1.94 1.94 0 0 1-.85-.65 1.637 1.637 0 0 1-.33-.96h.87a.966.966 0 0 0 .23.57 1.3 1.3 0 0 0 .54.37 2.056 2.056 0 0 0 .76.13 2.088 2.088 0 0 0 .81-.15 1.3 1.3 0 0 0 .56-.43 1.008 1.008 0 0 0 .2-.63 1.176 1.176 0 0 0-.2-.67 1.3 1.3 0 0 0-.58-.46 2.273 2.273 0 0 0-.91-.17h-.56v-.76h.56a1.747 1.747 0 0 0 .74-.15 1.1 1.1 0 0 0 .5-.42 1.1 1.1 0 0 0 .18-.62 1.135 1.135 0 0 0-.16-.61 1.059 1.059 0 0 0-.45-.41 1.48 1.48 0 0 0-.68-.15 1.822 1.822 0 0 0-.7.14 1.228 1.228 0 0 0-.53.38.925.925 0 0 0-.22.58h-.83a1.584 1.584 0 0 1 .33-.95 2.064 2.064 0 0 1 .83-.65 2.818 2.818 0 0 1 1.13-.23 2.343 2.343 0 0 1 1.12.25 1.878 1.878 0 0 1 .74.68 1.657 1.657 0 0 1 .25.92 1.609 1.609 0 0 1-.31 1 1.557 1.557 0 0 1-.87.57v.05a1.744 1.744 0 0 1 .77.29 1.478 1.478 0 0 1 .5.58 1.832 1.832 0 0 1 .17.79 1.723 1.723 0 0 1-.31 1.01 2.154 2.154 0 0 1-.86.71 2.926 2.926 0 0 1-1.24.26 2.623 2.623 0 0 1-1.2-.21z" style="fill:#707070" transform="translate(-.12 147.23)"/>
            </g>
        </g>
    </g>
</svg>
