<svg xmlns="http://www.w3.org/2000/svg" width="796.47" height="100.14" viewBox="0 0 796.47 100.14">
    <g data-name="거래종료(구매)">
        <g data-name="그룹 3952">
            <path data-name="패스 5547" d="M-306.94 66.26h-695.7c-1.19 0-2.15-1.57-2.15-3.5s.96-3.5 2.15-3.5h695.7c1.19 0 2.15 1.57 2.15 3.5s-.97 3.5-2.15 3.5z" style="fill:#3f52fc" transform="translate(1070.66 -50.06)"/>
        </g>
        <g data-name="그룹 3953">
            <path data-name="패스 5548" d="M-661.74 66.26h-372.94a3.517 3.517 0 0 1-3.53-3.5 3.517 3.517 0 0 1 3.53-3.5h372.94a3.517 3.517 0 0 1 3.53 3.5 3.51 3.51 0 0 1-3.53 3.5z" style="fill:#3f52fc" transform="translate(1070.66 -50.06)"/>
        </g>
        <g data-name="그룹 3954">
            <path data-name="패스 5549" d="M-684.53 93.1a3.939 3.939 0 0 1 1.55-1.42 4.67 4.67 0 0 1 2.18-.51 4.67 4.67 0 0 1 2.18.51 3.845 3.845 0 0 1 1.54 1.42 3.811 3.811 0 0 1 .56 2.04 3.88 3.88 0 0 1-.56 2.06 3.776 3.776 0 0 1-1.54 1.42 4.67 4.67 0 0 1-2.18.51 4.67 4.67 0 0 1-2.18-.51 3.867 3.867 0 0 1-1.55-1.42 3.8 3.8 0 0 1-.57-2.06 3.733 3.733 0 0 1 .57-2.04zm1.65 3.24a2.025 2.025 0 0 0 .84.8 2.593 2.593 0 0 0 1.23.28 2.473 2.473 0 0 0 1.2-.28 2.086 2.086 0 0 0 .84-.8 2.381 2.381 0 0 0 .31-1.2 2.248 2.248 0 0 0-.31-1.19 2.112 2.112 0 0 0-.85-.8 2.528 2.528 0 0 0-1.2-.28 2.58 2.58 0 0 0-1.22.28 2.05 2.05 0 0 0-.85.8 2.338 2.338 0 0 0-.3 1.19 2.428 2.428 0 0 0 .31 1.2zm.22 4.11h1.97v3.66h8.98v1.58h-10.95v-5.24zm10.52 1.16h-1.97V90.13h1.97z" style="fill:#3f52fc" transform="translate(1070.66 -50.06)"/>
            <path data-name="패스 5550" d="M-669.82 98.85h14.48v1.62h-6.31V106h-1.93v-5.54h-6.24zm8.97-5.47a5.92 5.92 0 0 0 2 1.63 8.441 8.441 0 0 0 2.93.89l-.77 1.58a9.526 9.526 0 0 1-3.55-1.23 6.481 6.481 0 0 1-2.33-2.29 6.449 6.449 0 0 1-2.32 2.29 9.327 9.327 0 0 1-3.52 1.23l-.77-1.58a8.478 8.478 0 0 0 2.91-.89 5.8 5.8 0 0 0 1.98-1.62 3.224 3.224 0 0 0 .7-1.96v-.81h2.06v.81a3.072 3.072 0 0 0 .68 1.95z" style="fill:#3f52fc" transform="translate(1070.66 -50.06)"/>
            <path data-name="패스 5551" d="M-653.77 91.99h5.94v1.58h-3.97v7.07c.92-.01 1.75-.05 2.5-.11a22.8 22.8 0 0 0 2.27-.3l.14 1.6a19.9 19.9 0 0 1-2.61.35c-.86.06-1.92.09-3.19.11h-1.07v-10.3zm13.18 14.01h-1.86v-8.1h-1.79v7.29h-1.79V90.41h1.79v5.92h1.79v-6.22h1.86z" style="fill:#3f52fc" transform="translate(1070.66 -50.06)"/>
            <path data-name="패스 5552" d="M-633.99 98.14a9.2 9.2 0 0 0 1.81-4.79h-5.62V91.8h7.61a12.648 12.648 0 0 1-1.71 6.64 12.756 12.756 0 0 1-5.69 4.75l-1.02-1.56a12.219 12.219 0 0 0 4.62-3.49zm8.55 7.86h-1.97V90.11h1.97z" style="fill:#3f52fc" transform="translate(1070.66 -50.06)"/>
        </g>
        <g data-name="그룹 3955">
            <path data-name="패스 5553" d="M-331 98.11a9.433 9.433 0 0 0 1.72-4.76h-5.47V91.8h7.44a14.746 14.746 0 0 1-.68 4.53 10.264 10.264 0 0 1-2.25 3.77 14.27 14.27 0 0 1-4.22 3.03l-1.02-1.53a11.808 11.808 0 0 0 4.48-3.49zm8.93 7.89h-1.95v-8.09h-3.36v-1.6h3.36V90.1h1.95z" style="fill:#3f52fc" transform="translate(1070.66 -50.06)"/>
            <path data-name="패스 5554" d="M-313.35 97.65h-4.11v3.09c.93-.01 1.77-.04 2.54-.09a22.92 22.92 0 0 0 2.38-.28l.14 1.58c-.98.16-1.92.27-2.81.33s-1.9.09-3.05.09h-1.09v-6.31h4.11V93.3h-4.13v-1.58h6.01v5.93zm1.75-7.24h1.79v5.8h1.79v-6.1h1.86V106h-1.86v-8.21h-1.79v7.4h-1.79z" style="fill:#3f52fc" transform="translate(1070.66 -50.06)"/>
            <path data-name="패스 5555" d="M-296.08 97.81h6.29v1.58h-14.48v-1.58h6.26v-2.02h1.93zm-4.96-3.23a5.715 5.715 0 0 0 1.78-.97 2.46 2.46 0 0 0 .84-1.23h-4.54v-1.56h11.87v1.56h-4.58a2.48 2.48 0 0 0 .84 1.23 5.693 5.693 0 0 0 1.79.98 10.315 10.315 0 0 0 2.56.54l-.7 1.53a10.33 10.33 0 0 1-3.69-1.02 4.919 4.919 0 0 1-2.18-2 4.934 4.934 0 0 1-2.18 2.01 10.218 10.218 0 0 1-3.67 1.02l-.69-1.53a11.175 11.175 0 0 0 2.55-.56zm-.88 7.1a4.284 4.284 0 0 1 1.9-.94 12.2 12.2 0 0 1 2.98-.33 11.485 11.485 0 0 1 2.95.33 4.405 4.405 0 0 1 1.89.94 1.994 1.994 0 0 1 .66 1.51 2.042 2.042 0 0 1-.65 1.52 4.247 4.247 0 0 1-1.89.95 11.567 11.567 0 0 1-2.96.33 11.787 11.787 0 0 1-2.98-.33 4.289 4.289 0 0 1-1.9-.95 2.015 2.015 0 0 1-.66-1.52 2.009 2.009 0 0 1 .66-1.51zm2.22 2.49a8.169 8.169 0 0 0 2.66.33 8.047 8.047 0 0 0 2.63-.33c.6-.22.91-.55.92-.98-.01-.42-.31-.74-.91-.95a8.662 8.662 0 0 0-2.64-.33 8.763 8.763 0 0 0-2.66.33c-.6.21-.9.53-.89.95-.01.43.29.76.89.98z" style="fill:#3f52fc" transform="translate(1070.66 -50.06)"/>
            <path data-name="패스 5556" d="M-274.19 104.16h-14.52v-1.62h3.85v-2.62h-2.13v-5.19h9.14v-1.95h-9.18V91.2h11.11v5.1h-9.12v2.04h9.49v1.58h-2.32v2.62h3.67v1.62zm-5.59-1.62v-2.62h-3.18v2.62z" style="fill:#3f52fc" transform="translate(1070.66 -50.06)"/>
        </g>
        <g data-name="그룹 3956" transform="translate(1070.66 -50.06)">
            <circle data-name="타원 174" cx="12.2" cy="12.2" r="12.2" transform="translate(-1050.41 50.56)" style="fill:#3f52fc"/>
            <path data-name="패스 5557" d="M-1038.21 75.46a12.718 12.718 0 0 1-12.7-12.7 12.718 12.718 0 0 1 12.7-12.7 12.718 12.718 0 0 1 12.7 12.7 12.718 12.718 0 0 1-12.7 12.7zm0-24.39a11.715 11.715 0 0 0-11.7 11.7 11.715 11.715 0 0 0 11.7 11.7 11.715 11.715 0 0 0 11.7-11.7 11.715 11.715 0 0 0-11.7-11.7z" style="fill:#3f52fc"/>
        </g>
        <g data-name="그룹 3957">
            <path data-name="패스 5558" d="M-1036.86 69.18h-1.52v-10.5h-.07l-2.93 1.95v-1.52l3-2h1.52z" style="fill:#fff" transform="translate(1070.66 -50.06)"/>
        </g>
        <g data-name="그룹 3958" transform="translate(1070.66 -50.06)">
            <circle data-name="타원 175" cx="12.2" cy="12.2" r="12.2" transform="translate(-666.99 50.56)" style="fill:#3f52fc"/>
            <path data-name="패스 5559" d="M-654.79 75.46a12.718 12.718 0 0 1-12.7-12.7 12.718 12.718 0 0 1 12.7-12.7 12.718 12.718 0 0 1 12.7 12.7 12.718 12.718 0 0 1-12.7 12.7zm0-24.39a11.715 11.715 0 0 0-11.7 11.7 11.715 11.715 0 0 0 11.7 11.7 11.715 11.715 0 0 0 11.7-11.7 11.721 11.721 0 0 0-11.7-11.7z" style="fill:#3f52fc"/>
        </g>
        <g data-name="그룹 3959">
            <path data-name="패스 5560" d="m-658.69 68.08 4.12-4.33c.54-.58.95-1.04 1.24-1.4a4.551 4.551 0 0 0 .65-1.02 2.446 2.446 0 0 0 .22-1.03 1.851 1.851 0 0 0-.32-1.07 2.1 2.1 0 0 0-.86-.72 2.835 2.835 0 0 0-1.22-.26 2.581 2.581 0 0 0-1.24.29 1.977 1.977 0 0 0-.82.8 2.371 2.371 0 0 0-.29 1.18h-1.42a3.492 3.492 0 0 1 .49-1.86 3.4 3.4 0 0 1 1.37-1.26 4.222 4.222 0 0 1 1.96-.45 4.188 4.188 0 0 1 1.93.44 3.346 3.346 0 0 1 1.34 1.21 3.142 3.142 0 0 1 .48 1.7 3.916 3.916 0 0 1-.25 1.32 5.732 5.732 0 0 1-.84 1.4 20.861 20.861 0 0 1-1.68 1.88l-2.77 2.85v.1h5.75v1.33h-7.84z" style="fill:#fff" transform="translate(1070.66 -50.06)"/>
        </g>
        <g data-name="그룹 3960" transform="translate(1070.66 -50.06)">
            <circle data-name="타원 176" cx="12.2" cy="12.2" r="12.2" transform="translate(-316.99 50.56)" style="fill:#3f52fc"/>
            <path data-name="패스 5561" d="M-304.79 75.46a12.718 12.718 0 0 1-12.7-12.7 12.718 12.718 0 0 1 12.7-12.7 12.718 12.718 0 0 1 12.7 12.7 12.718 12.718 0 0 1-12.7 12.7zm0-24.39a11.715 11.715 0 0 0-11.7 11.7 11.715 11.715 0 0 0 11.7 11.7 11.715 11.715 0 0 0 11.7-11.7 11.721 11.721 0 0 0-11.7-11.7z" style="fill:#3f52fc"/>
        </g>
        <g data-name="그룹 3961">
            <path data-name="패스 5562" d="M-306.89 68.95a3.566 3.566 0 0 1-1.49-1.13 2.837 2.837 0 0 1-.58-1.67h1.52a1.68 1.68 0 0 0 .4.99 2.334 2.334 0 0 0 .95.65 3.692 3.692 0 0 0 1.32.23 3.56 3.56 0 0 0 1.42-.27 2.34 2.34 0 0 0 .98-.75 1.783 1.783 0 0 0 .35-1.1 2.042 2.042 0 0 0-.35-1.17 2.314 2.314 0 0 0-1-.8 3.979 3.979 0 0 0-1.58-.29h-.98v-1.32h.98a3.094 3.094 0 0 0 1.29-.26 2.054 2.054 0 0 0 .88-.73 1.876 1.876 0 0 0 .31-1.08 2 2 0 0 0-.27-1.05 1.918 1.918 0 0 0-.78-.71 2.638 2.638 0 0 0-1.19-.25 3.315 3.315 0 0 0-1.22.24 2.256 2.256 0 0 0-.93.66 1.661 1.661 0 0 0-.39 1h-1.45a2.807 2.807 0 0 1 .58-1.66 3.725 3.725 0 0 1 1.45-1.13 4.754 4.754 0 0 1 1.97-.4 4.155 4.155 0 0 1 1.95.44 3.213 3.213 0 0 1 1.29 1.18 2.937 2.937 0 0 1 .44 1.61 2.756 2.756 0 0 1-.54 1.74 2.869 2.869 0 0 1-1.51 1V63a3.224 3.224 0 0 1 1.35.51 2.572 2.572 0 0 1 .87 1.01 3.106 3.106 0 0 1 .3 1.38 2.965 2.965 0 0 1-.55 1.76 3.678 3.678 0 0 1-1.5 1.24 5.015 5.015 0 0 1-2.15.45 5.373 5.373 0 0 1-2.14-.4z" style="fill:#fff" transform="translate(1070.66 -50.06)"/>
        </g>
        <g data-name="그룹 3962">
            <path data-name="패스 5563" d="M-1070.1 94.03a3.654 3.654 0 0 1 1.53-1.32 5.039 5.039 0 0 1 2.2-.47 5.025 5.025 0 0 1 2.19.47 3.655 3.655 0 0 1 1.53 1.32 3.456 3.456 0 0 1 .55 1.93 3.39 3.39 0 0 1-.55 1.91 3.7 3.7 0 0 1-1.53 1.31 5.026 5.026 0 0 1-2.19.47 5.07 5.07 0 0 1-2.2-.47 3.7 3.7 0 0 1-1.53-1.31 3.4 3.4 0 0 1-.56-1.91 3.571 3.571 0 0 1 .56-1.93zm1.66 3.04a1.932 1.932 0 0 0 .84.73 2.848 2.848 0 0 0 1.23.26 2.758 2.758 0 0 0 1.21-.26 2 2 0 0 0 .84-.73 2.016 2.016 0 0 0 .3-1.1 2.015 2.015 0 0 0-.3-1.1 1.932 1.932 0 0 0-.84-.73 2.787 2.787 0 0 0-1.21-.25 2.816 2.816 0 0 0-1.23.25 2 2 0 0 0-.84.73 2.04 2.04 0 0 0-.3 1.1 2.039 2.039 0 0 0 .3 1.1zm.23 3.73h1.93v1.63h6.63v-1.63h1.95v6.43h-10.51zm8.56 4.85v-1.69h-6.63v1.69zm1.95-5.59h-1.97v-8.53h1.97z" style="fill:#3f52fc" transform="translate(1070.66 -50.06)"/>
            <path data-name="패스 5564" d="M-1042.63 93.54v.49c0 .68-.03 1.34-.08 1.97a17.491 17.491 0 0 1-.31 2.06h2.16v1.58h-14.52v-1.58h10.38a15.419 15.419 0 0 0 .33-2.13c.05-.65.08-1.33.08-2.06h-9v-1.56h10.95v1.23zm-11.01 7.95h10.99v5.75h-10.99zm9.06 4.16v-2.64h-7.14v2.64z" style="fill:#3f52fc" transform="translate(1070.66 -50.06)"/>
            <path data-name="패스 5565" d="M-1032.97 92.63a3.424 3.424 0 0 1 1.42 1.13 2.9 2.9 0 0 1 .52 1.67 2.843 2.843 0 0 1-.38 1.42 3.341 3.341 0 0 1-1.04 1.08 4.071 4.071 0 0 1-1.55.59v1.28c1.49-.09 2.78-.21 3.88-.37l.16 1.42a38.687 38.687 0 0 1-4.46.51c-1.56.09-3.16.14-4.82.14h-.4l-.21-1.56c1.46 0 2.76-.02 3.88-.05v-1.36a4.255 4.255 0 0 1-1.59-.58 3.124 3.124 0 0 1-1.06-1.08 2.809 2.809 0 0 1-.37-1.44 2.845 2.845 0 0 1 .51-1.67 3.392 3.392 0 0 1 1.41-1.13 4.983 4.983 0 0 1 2.06-.4 4.886 4.886 0 0 1 2.04.4zm-4.71 9.98h1.95v2.9h9.05v1.58h-11zm.78-6.29a1.76 1.76 0 0 0 .76.6 2.831 2.831 0 0 0 1.12.21 2.488 2.488 0 0 0 1.55-.47 1.5 1.5 0 0 0 .59-1.24 1.537 1.537 0 0 0-.59-1.25 2.424 2.424 0 0 0-1.55-.46 3.022 3.022 0 0 0-1.12.2 1.672 1.672 0 0 0-.76.59 1.477 1.477 0 0 0-.26.91 1.478 1.478 0 0 0 .26.91zm7.71-4.76h1.95v5.13h2.14v1.62h-2.14v5.38h-1.95z" style="fill:#3f52fc" transform="translate(1070.66 -50.06)"/>
            <path data-name="패스 5566" d="M-1009.75 105.58h-14.52v-1.62h3.85v-2.62h-2.13v-5.19h9.14V94.2h-9.18v-1.58h11.11v5.1h-9.12v2.04h9.49v1.58h-2.32v2.62h3.67v1.62zm-5.58-1.61v-2.62h-3.18v2.62z" style="fill:#3f52fc" transform="translate(1070.66 -50.06)"/>
        </g>
        <g data-name="그룹 3963">
            <path data-name="패스 5567" d="M-776.98 136.19h-5.59v1.06h3.98v3.47h-8.03v1.03h8.42v1.33h-10.12v-3.61h8.03v-.91h-8.05v-1.31h4.03v-1.06h-5.55v-1.38h12.88zm-11.25-6.68h9.59v4.41h-9.59zm7.86 3.05v-1.69h-6.16v1.69z" style="fill:#3f52fc" transform="translate(1070.66 -50.06)"/>
            <path data-name="패스 5568" d="M-763.15 137.15h-5.59v1.36h4.03v4.52h-9.8v-4.52h4.05v-1.36h-5.56v-1.39h12.88v1.39zm-11.72-7.65h10.53v1.39h-1.94v2.42h1.86v1.41h-10.38v-1.41h1.86v-2.42h-1.94v-1.39zm8.47 12.12v-1.77h-6.39v1.77zm-1.62-8.31v-2.42h-3.17v2.42z" style="fill:#3f52fc" transform="translate(1070.66 -50.06)"/>
            <path data-name="패스 5569" d="M-757.64 131.73a3.431 3.431 0 0 1 1.38-1.26 4.164 4.164 0 0 1 1.93-.46 4.016 4.016 0 0 1 1.93.46 3.474 3.474 0 0 1 1.37 1.26 3.4 3.4 0 0 1 .5 1.81 3.442 3.442 0 0 1-.5 1.83 3.4 3.4 0 0 1-1.37 1.26 4.157 4.157 0 0 1-1.93.45 4.128 4.128 0 0 1-1.93-.45 3.5 3.5 0 0 1-1.38-1.26 3.355 3.355 0 0 1-.5-1.83 3.229 3.229 0 0 1 .5-1.81zm1.46 2.89a1.833 1.833 0 0 0 .75.71 2.276 2.276 0 0 0 1.09.25 2.223 2.223 0 0 0 1.07-.25 1.833 1.833 0 0 0 .75-.71 2.075 2.075 0 0 0 .27-1.07 2 2 0 0 0-.27-1.05 1.833 1.833 0 0 0-.75-.71 2.251 2.251 0 0 0-1.07-.25 2.332 2.332 0 0 0-1.09.25 1.833 1.833 0 0 0-.75.71 2.052 2.052 0 0 0-.27 1.05 2.323 2.323 0 0 0 .27 1.07zm.2 3.64h1.75v3.25h7.98v1.41h-9.73zm9.35 1.03h-1.75v-10.2h1.75z" style="fill:#3f52fc" transform="translate(1070.66 -50.06)"/>
            <path data-name="패스 5570" d="M-744.57 136.84h12.88v1.44h-5.61v4.92h-1.72v-4.92h-5.55v-1.44zm7.98-4.86a5.311 5.311 0 0 0 1.77 1.45 7.745 7.745 0 0 0 2.61.79l-.69 1.41a8.413 8.413 0 0 1-3.16-1.1 5.63 5.63 0 0 1-2.07-2.04 5.834 5.834 0 0 1-2.06 2.04 8.5 8.5 0 0 1-3.13 1.1l-.69-1.41a7.481 7.481 0 0 0 2.59-.79 5.229 5.229 0 0 0 1.76-1.44 2.853 2.853 0 0 0 .62-1.74v-.72h1.83v.72a2.785 2.785 0 0 0 .62 1.73z" style="fill:#3f52fc" transform="translate(1070.66 -50.06)"/>
            <path data-name="패스 5571" d="M-719.41 135.83h-6.81v-5.88h6.81zm-3.65 5.5a4.819 4.819 0 0 0 1.61-.94 1.951 1.951 0 0 0 .67-1.12h-4.02v-1.31h4.06v-1.23h1.75v1.23h4.08v1.31h-4.03a1.888 1.888 0 0 0 .66 1.1 5.179 5.179 0 0 0 1.59.94 8.916 8.916 0 0 0 2.31.53l-.59 1.33a8.931 8.931 0 0 1-2.95-.8 5.05 5.05 0 0 1-1.93-1.52 5.05 5.05 0 0 1-1.95 1.52 9.294 9.294 0 0 1-2.98.8l-.59-1.33a9.129 9.129 0 0 0 2.31-.51zm1.93-6.86v-3.14h-3.38v3.14zm4.2-5.39h1.72v8.05h-1.72z" style="fill:#3f52fc" transform="translate(1070.66 -50.06)"/>
            <path data-name="패스 5572" d="M-708.57 131.73a3.431 3.431 0 0 1 1.38-1.26 4.164 4.164 0 0 1 1.93-.46 4.016 4.016 0 0 1 1.93.46 3.474 3.474 0 0 1 1.37 1.26 3.4 3.4 0 0 1 .5 1.81 3.442 3.442 0 0 1-.5 1.83 3.4 3.4 0 0 1-1.37 1.26 4.157 4.157 0 0 1-1.93.45 4.128 4.128 0 0 1-1.93-.45 3.5 3.5 0 0 1-1.38-1.26 3.355 3.355 0 0 1-.5-1.83 3.4 3.4 0 0 1 .5-1.81zm1.47 2.89a1.833 1.833 0 0 0 .75.71 2.276 2.276 0 0 0 1.09.25 2.223 2.223 0 0 0 1.07-.25 1.833 1.833 0 0 0 .75-.71 2.075 2.075 0 0 0 .27-1.07 2 2 0 0 0-.27-1.05 1.833 1.833 0 0 0-.75-.71 2.251 2.251 0 0 0-1.07-.25 2.332 2.332 0 0 0-1.09.25 1.833 1.833 0 0 0-.75.71 2.052 2.052 0 0 0-.27 1.05 2.1 2.1 0 0 0 .27 1.07zm.2 3.64h1.75v3.25h7.98v1.41h-9.73zm9.35 1.03h-1.75v-10.2h1.75z" style="fill:#3f52fc" transform="translate(1070.66 -50.06)"/>
            <path data-name="패스 5573" d="M-692.39 136.04a8.2 8.2 0 0 0 1.29-3.84h-3.78v-1.41h5.5a13.843 13.843 0 0 1-.15 2.08h1.65v-3.45h1.66v13.11h-1.66v-4.72h-2.2v-1.42h2.2v-2.09h-1.95a9.576 9.576 0 0 1-1.69 3.3 10.951 10.951 0 0 1-3.1 2.62l-1.02-1.23a9.784 9.784 0 0 0 3.25-2.95zm9.09 7.16h-1.66v-14.12h1.66z" style="fill:#3f52fc" transform="translate(1070.66 -50.06)"/>
            <path data-name="패스 5574" d="M-677.76 136.21a8.309 8.309 0 0 0 1.66-4.22h-4.88v-1.44h6.64a10.572 10.572 0 0 1-6.42 10.11l-.98-1.34a11.374 11.374 0 0 0 3.98-3.11zm7.16-1.62h2.09v1.45h-2.09v7.12h-1.73v-14.09h1.73z" style="fill:#3f52fc" transform="translate(1070.66 -50.06)"/>
            <path data-name="패스 5575" d="M-657.94 130.04a2.947 2.947 0 0 1 1.26 1 2.523 2.523 0 0 1 .46 1.48 2.619 2.619 0 0 1-.34 1.27 2.837 2.837 0 0 1-.93.96 3.75 3.75 0 0 1-1.38.53v1.14q1.98-.12 3.45-.33l.14 1.27a34.58 34.58 0 0 1-3.97.46c-1.39.08-2.81.12-4.28.12h-.36l-.19-1.39c1.3 0 2.45-.02 3.45-.05v-1.21a3.654 3.654 0 0 1-1.41-.52 2.7 2.7 0 0 1-.94-.96 2.543 2.543 0 0 1-.33-1.28 2.516 2.516 0 0 1 .45-1.48 2.977 2.977 0 0 1 1.25-1 4.46 4.46 0 0 1 1.83-.36 4.644 4.644 0 0 1 1.84.35zm-4.19 8.88h1.73v2.58h8.05v1.41h-9.78v-3.99zm.69-5.59a1.516 1.516 0 0 0 .68.53 2.583 2.583 0 0 0 1 .19 2.2 2.2 0 0 0 1.38-.41 1.351 1.351 0 0 0 .53-1.1 1.356 1.356 0 0 0-.53-1.11 2.2 2.2 0 0 0-1.38-.41 2.586 2.586 0 0 0-1 .18 1.553 1.553 0 0 0-.68.52 1.309 1.309 0 0 0-.23.81 1.237 1.237 0 0 0 .23.8zm6.85-4.24h1.73v4.56h1.91v1.44h-1.91v4.78h-1.73z" style="fill:#3f52fc" transform="translate(1070.66 -50.06)"/>
            <path data-name="패스 5576" d="M-637.3 141.56h-12.91v-1.44h3.42v-2.33h-1.89v-4.61h8.12v-1.73h-8.16v-1.41h9.88v4.53h-8.11v1.81h8.44v1.41h-2.06v2.33h3.27v1.44zm-4.97-1.44v-2.33h-2.83v2.33z" style="fill:#3f52fc" transform="translate(1070.66 -50.06)"/>
            <path data-name="패스 5577" d="M-627.98 136.34h-2.86v2.46c1.27-.05 2.48-.13 3.64-.26l.14 1.28a41.592 41.592 0 0 1-4.22.4c-1.43.06-3.04.1-4.83.1l-.22-1.44h.89c.92 0 1.88-.01 2.86-.02v-2.52h-2.77v-5.97h7.3v1.38h-5.58v3.19h5.64v1.4zm1.63-7.26h1.73v14.14h-1.73z" style="fill:#3f52fc" transform="translate(1070.66 -50.06)"/>
            <path data-name="패스 5578" d="M-616.98 130.62a3.723 3.723 0 0 1 1.25 1.45 6.141 6.141 0 0 1 .61 2.21h2.7v-5.2h1.72v14.14h-1.72v-7.53h-2.68a6.289 6.289 0 0 1-.57 2.34 3.853 3.853 0 0 1-1.26 1.53 3.027 3.027 0 0 1-1.76.54 3.075 3.075 0 0 1-1.89-.61 3.906 3.906 0 0 1-1.28-1.75 7.115 7.115 0 0 1-.46-2.64 6.865 6.865 0 0 1 .46-2.63 3.873 3.873 0 0 1 1.29-1.74 3.066 3.066 0 0 1 1.88-.61 2.932 2.932 0 0 1 1.71.5zm-3.43 6.32a2.63 2.63 0 0 0 .68 1.18 1.477 1.477 0 0 0 1.03.41 1.5 1.5 0 0 0 1.03-.41 2.552 2.552 0 0 0 .69-1.18 6.25 6.25 0 0 0 .25-1.84 5.934 5.934 0 0 0-.25-1.84 2.64 2.64 0 0 0-.69-1.18 1.5 1.5 0 0 0-1.03-.41 1.5 1.5 0 0 0-1.03.41 2.687 2.687 0 0 0-.68 1.18 6.153 6.153 0 0 0-.24 1.83 6.29 6.29 0 0 0 .24 1.85z" style="fill:#3f52fc" transform="translate(1070.66 -50.06)"/>
            <path data-name="패스 5579" d="M-601.04 136.19a8.375 8.375 0 0 0 1.53-4.23h-4.86v-1.38h6.61a13.156 13.156 0 0 1-.61 4.03 9.323 9.323 0 0 1-2 3.36 12.838 12.838 0 0 1-3.75 2.7l-.91-1.36a10.734 10.734 0 0 0 3.99-3.12zm7.94 7.01h-1.73v-7.19h-2.98v-1.42h2.98v-5.52h1.73z" style="fill:#3f52fc" transform="translate(1070.66 -50.06)"/>
            <path data-name="패스 5580" d="M-585.35 135.78h-3.66v2.75a48.7 48.7 0 0 0 2.26-.08 20.142 20.142 0 0 0 2.11-.25l.12 1.41a23.727 23.727 0 0 1-2.5.29c-.79.05-1.69.08-2.71.08h-.97v-5.61h3.66v-2.45h-3.67v-1.41h5.34v5.27zm1.56-6.44h1.59v5.16h1.59v-5.42h1.66v14.12h-1.66v-7.3h-1.59v6.58h-1.59z" style="fill:#3f52fc" transform="translate(1070.66 -50.06)"/>
            <path data-name="패스 5581" d="M-573.37 136.21a8.309 8.309 0 0 0 1.66-4.22h-4.88v-1.44h6.64a10.572 10.572 0 0 1-6.42 10.11l-.98-1.34a11.374 11.374 0 0 0 3.98-3.11zm7.16-1.62h2.09v1.45h-2.09v7.12h-1.73v-14.09h1.73z" style="fill:#3f52fc" transform="translate(1070.66 -50.06)"/>
            <path data-name="패스 5582" d="M-552.37 135.92h5.59v1.41h-12.88v-1.41h5.56v-1.8h1.72v1.8zm-4.41-2.87a5.158 5.158 0 0 0 1.59-.86 2.159 2.159 0 0 0 .75-1.09h-4.03v-1.39h10.55v1.39H-552a2.159 2.159 0 0 0 .75 1.09 5.164 5.164 0 0 0 1.59.87 9.162 9.162 0 0 0 2.28.48l-.62 1.36a8.907 8.907 0 0 1-3.28-.91 4.4 4.4 0 0 1-1.94-1.78 4.473 4.473 0 0 1-1.94 1.79 9.108 9.108 0 0 1-3.27.9l-.61-1.36a9.55 9.55 0 0 0 2.26-.49zm-.78 6.31a3.774 3.774 0 0 1 1.69-.84 10.7 10.7 0 0 1 2.64-.29 10.418 10.418 0 0 1 2.62.29 3.787 3.787 0 0 1 1.68.84 1.775 1.775 0 0 1 .59 1.34 1.786 1.786 0 0 1-.58 1.35 3.787 3.787 0 0 1-1.68.84 10.558 10.558 0 0 1-2.63.29 10.587 10.587 0 0 1-2.64-.29 3.774 3.774 0 0 1-1.69-.84 1.8 1.8 0 0 1-.59-1.35 1.79 1.79 0 0 1 .59-1.34zm1.97 2.22a7.068 7.068 0 0 0 2.36.3 7.056 7.056 0 0 0 2.34-.3c.54-.2.81-.49.82-.88-.01-.38-.28-.66-.81-.85a7.378 7.378 0 0 0-2.34-.29 7.689 7.689 0 0 0-2.36.29c-.53.19-.8.47-.79.85-.02.39.25.68.78.88z" style="fill:#3f52fc" transform="translate(1070.66 -50.06)"/>
            <path data-name="패스 5583" d="M-532.91 141.56h-12.91v-1.44h3.42v-2.33h-1.89v-4.61h8.12v-1.73h-8.16v-1.41h9.88v4.53h-8.11v1.81h8.44v1.41h-2.06v2.33h3.27v1.44zm-4.97-1.44v-2.33h-2.83v2.33z" style="fill:#3f52fc" transform="translate(1070.66 -50.06)"/>
            <path data-name="패스 5584" d="M-523.59 136.34h-2.86v2.46c1.27-.05 2.48-.13 3.64-.26l.14 1.28a41.592 41.592 0 0 1-4.22.4c-1.43.06-3.04.1-4.83.1l-.22-1.44h.89c.92 0 1.88-.01 2.86-.02v-2.52h-2.77v-5.97h7.3v1.38h-5.58v3.19h5.64v1.4zm1.63-7.26h1.73v14.14h-1.73z" style="fill:#3f52fc" transform="translate(1070.66 -50.06)"/>
            <path data-name="패스 5585" d="M-517.49 131.46a3.323 3.323 0 0 1 1.34-1.2 4.158 4.158 0 0 1 1.91-.43 4.121 4.121 0 0 1 1.65.33 3.407 3.407 0 0 1 1.27.93 3.235 3.235 0 0 1 .69 1.37h2.55v-3.38h1.73v7.97h-1.73v-3.19h-2.54a3.1 3.1 0 0 1-.68 1.41 3.49 3.49 0 0 1-1.28.95 4.2 4.2 0 0 1-1.68.34 4.1 4.1 0 0 1-1.91-.43 3.316 3.316 0 0 1-1.34-1.2 3.2 3.2 0 0 1-.48-1.73 3.281 3.281 0 0 1 .5-1.74zm4.92 8.57a3.677 3.677 0 0 0 1.32 1.43 3.97 3.97 0 0 0 1.32-1.48 3.992 3.992 0 0 0 .47-1.75v-.66h1.7v.66a3.419 3.419 0 0 0 .29 1.45 3.456 3.456 0 0 0 .92 1.22 4.35 4.35 0 0 0 1.54.82l-.88 1.3a4.7 4.7 0 0 1-1.7-1 4.428 4.428 0 0 1-1.06-1.53 5.359 5.359 0 0 1-1.02 1.58 4.357 4.357 0 0 1-1.58 1.06 4.436 4.436 0 0 1-1.61-1.02 4.448 4.448 0 0 1-1-1.55 4.755 4.755 0 0 1-1.07 1.48 4.946 4.946 0 0 1-1.63.99l-.84-1.3a4.245 4.245 0 0 0 1.49-.85 3.459 3.459 0 0 0 .91-1.23 3.471 3.471 0 0 0 .31-1.4v-.66h1.69v.66a3.892 3.892 0 0 0 .43 1.78zm-3.47-5.84a1.776 1.776 0 0 0 .73.68 2.31 2.31 0 0 0 1.07.24 2.214 2.214 0 0 0 1.04-.24 1.84 1.84 0 0 0 .73-.68 1.935 1.935 0 0 0 .26-1 1.935 1.935 0 0 0-.26-1 1.754 1.754 0 0 0-.73-.67 2.238 2.238 0 0 0-1.04-.23 2.471 2.471 0 0 0-1.07.23 1.7 1.7 0 0 0-.73.67 1.935 1.935 0 0 0-.26 1 1.891 1.891 0 0 0 .26 1z" style="fill:#3f52fc" transform="translate(1070.66 -50.06)"/>
            <path data-name="패스 5586" d="M-504.34 135.33h12.88v1.42h-12.88zm3.21-2.81a4.834 4.834 0 0 0 1.72-1.24 2.43 2.43 0 0 0 .62-1.52v-.53h1.78v.53a2.321 2.321 0 0 0 .61 1.5 4.958 4.958 0 0 0 1.72 1.26 8.046 8.046 0 0 0 2.52.69l-.61 1.38a8.807 8.807 0 0 1-3.11-.98 5.377 5.377 0 0 1-2.04-1.83 5.438 5.438 0 0 1-2.04 1.82 9.028 9.028 0 0 1-3.1.98l-.64-1.38a7.812 7.812 0 0 0 2.57-.68zm.06 6.37h6.22v-1.34h1.73v5.48h-9.67v-5.48h1.72zm6.22 2.76v-1.44h-6.22v1.44z" style="fill:#3f52fc" transform="translate(1070.66 -50.06)"/>
            <path data-name="패스 5587" d="M-489.69 130.45h1.72v7.72a35.392 35.392 0 0 0 6.27-.64l.22 1.45a33.407 33.407 0 0 1-6.98.67h-1.22v-9.2zm10.96 12.75h-1.72v-14.12h1.72z" style="fill:#3f52fc" transform="translate(1070.66 -50.06)"/>
            <path data-name="패스 5588" d="M-476.1 130.42h6.61v1.41h-4.88v6.48c1.15 0 2.18-.04 3.09-.11s1.84-.18 2.78-.34l.2 1.47a27.078 27.078 0 0 1-3.03.35c-1 .06-2.2.09-3.61.09h-1.17v-9.35zm10.48 4.02h2.17v1.42h-2.17v7.36h-1.73v-14.14h1.73z" style="fill:#3f52fc" transform="translate(1070.66 -50.06)"/>
            <path data-name="패스 5589" d="M-461.74 141.77a1.215 1.215 0 0 1-.45-.45 1.184 1.184 0 0 1-.16-.61 1.174 1.174 0 0 1 .16-.6 1.266 1.266 0 0 1 .45-.44 1.184 1.184 0 0 1 .61-.16 1.174 1.174 0 0 1 .6.16 1.322 1.322 0 0 1 .44.44 1.149 1.149 0 0 1 .16.6 1.184 1.184 0 0 1-.16.61 1.266 1.266 0 0 1-.44.45 1.149 1.149 0 0 1-.6.16 1.1 1.1 0 0 1-.61-.16z" style="fill:#3f52fc" transform="translate(1070.66 -50.06)"/>
        </g>
        <g data-name="그룹 3964">
            <path data-name="패스 5590" d="M-808.29 149.7h-72.41a7.793 7.793 0 0 1-7.79-7.79V131.5a7.793 7.793 0 0 1 7.79-7.79h72.41a7.793 7.793 0 0 1 7.79 7.79v10.41a7.793 7.793 0 0 1-7.79 7.79z" style="fill:#3f52fc" transform="translate(1070.66 -50.06)"/>
        </g>
        <g data-name="그룹 3965">
            <path data-name="패스 5591" d="M-455.31 150.2h-425.48a8.3 8.3 0 0 1-8.29-8.29V131.5a8.3 8.3 0 0 1 8.29-8.29h425.48a8.3 8.3 0 0 1 8.29 8.29v10.41a8.288 8.288 0 0 1-8.29 8.29zm-425.48-26a7.3 7.3 0 0 0-7.29 7.29v10.41a7.3 7.3 0 0 0 7.29 7.29h425.48a7.3 7.3 0 0 0 7.29-7.29v-10.41a7.3 7.3 0 0 0-7.29-7.29h-425.48z" style="fill:#3f52fc" transform="translate(1070.66 -50.06)"/>
        </g>
        <g data-name="그룹 3966">
            <path data-name="패스 5592" d="M-867.79 136.19a8.375 8.375 0 0 0 1.53-4.23h-4.86v-1.38h6.61a13.156 13.156 0 0 1-.61 4.03 9.323 9.323 0 0 1-2 3.36 12.838 12.838 0 0 1-3.75 2.7l-.91-1.36a10.734 10.734 0 0 0 3.99-3.12zm7.93 7.01h-1.73v-7.19h-2.98v-1.42h2.98v-5.52h1.73z" style="fill:#fff" transform="translate(1070.66 -50.06)"/>
            <path data-name="패스 5593" d="M-852.11 135.78h-3.66v2.75a48.7 48.7 0 0 0 2.26-.08 20.142 20.142 0 0 0 2.11-.25l.12 1.41a23.727 23.727 0 0 1-2.5.29c-.79.05-1.69.08-2.71.08h-.97v-5.61h3.66v-2.45h-3.67v-1.41h5.34v5.27zm1.57-6.44h1.59v5.16h1.59v-5.42h1.66v14.12h-1.66v-7.3h-1.59v6.58h-1.59z" style="fill:#fff" transform="translate(1070.66 -50.06)"/>
            <path data-name="패스 5594" d="M-836.75 135.92h5.59v1.41h-12.88v-1.41h5.56v-1.8h1.72v1.8zm-4.41-2.87a5.158 5.158 0 0 0 1.59-.86 2.159 2.159 0 0 0 .75-1.09h-4.03v-1.39h10.55v1.39h-4.07a2.159 2.159 0 0 0 .75 1.09 5.164 5.164 0 0 0 1.59.87 9.162 9.162 0 0 0 2.28.48l-.62 1.36a8.907 8.907 0 0 1-3.28-.91 4.4 4.4 0 0 1-1.94-1.78 4.473 4.473 0 0 1-1.94 1.79 9.108 9.108 0 0 1-3.27.9l-.61-1.36a9.575 9.575 0 0 0 2.25-.49zm-.78 6.31a3.774 3.774 0 0 1 1.69-.84 10.7 10.7 0 0 1 2.64-.29 10.418 10.418 0 0 1 2.62.29 3.787 3.787 0 0 1 1.68.84 1.775 1.775 0 0 1 .59 1.34 1.786 1.786 0 0 1-.58 1.35 3.787 3.787 0 0 1-1.68.84 10.558 10.558 0 0 1-2.63.29 10.587 10.587 0 0 1-2.64-.29 3.774 3.774 0 0 1-1.69-.84 1.8 1.8 0 0 1-.59-1.35 1.79 1.79 0 0 1 .59-1.34zm1.97 2.22a7.068 7.068 0 0 0 2.36.3 7.056 7.056 0 0 0 2.34-.3c.54-.2.81-.49.82-.88-.01-.38-.28-.66-.81-.85a7.378 7.378 0 0 0-2.34-.29 7.689 7.689 0 0 0-2.36.29c-.53.19-.8.47-.79.85-.02.39.25.68.78.88z" style="fill:#fff" transform="translate(1070.66 -50.06)"/>
            <path data-name="패스 5595" d="M-817.29 141.56h-12.91v-1.44h3.42v-2.33h-1.89v-4.61h8.12v-1.73h-8.16v-1.41h9.88v4.53h-8.11v1.81h8.44v1.41h-2.06v2.33h3.27v1.44zm-4.97-1.44v-2.33h-2.83v2.33z" style="fill:#fff" transform="translate(1070.66 -50.06)"/>
        </g>
    </g>
</svg>
