<svg xmlns="http://www.w3.org/2000/svg" width="300.29" height="102.69" viewBox="0 0 300.29 102.69">
  <defs>
    <style>
      .cls-1 {
        fill: #fff;
      }

      .cls-2 {
        fill: #3f52fc;
      }

      .cls-3 {
        fill: #707070;
      }
    </style>
  </defs>
  <g id="인수대기" transform="translate(355.49 -2.53)">
    <g id="그룹_4040" data-name="그룹 4040" transform="translate(0 2)">
      <path id="패스_5530" data-name="패스 5530" class="cls-1" d="M-64.4,102.72H-346.81a7.793,7.793,0,0,1-7.79-7.79V60.83a7.793,7.793,0,0,1,7.79-7.79H-64.4a7.793,7.793,0,0,1,7.79,7.79v34.1A7.793,7.793,0,0,1-64.4,102.72Z"/>
      <path id="패스_5531" data-name="패스 5531" class="cls-2" d="M-64.4,103.22H-346.81a8.3,8.3,0,0,1-8.29-8.29V60.83a8.3,8.3,0,0,1,8.29-8.29H-64.4a8.3,8.3,0,0,1,8.29,8.29v34.1A8.3,8.3,0,0,1-64.4,103.22Zm-282.42-49.7a7.3,7.3,0,0,0-7.29,7.29v34.1a7.3,7.3,0,0,0,7.29,7.29H-64.4a7.3,7.3,0,0,0,7.29-7.29V60.81a7.3,7.3,0,0,0-7.29-7.29H-346.82Z"/>
    </g>
    <g id="그룹_4041" data-name="그룹 4041" transform="translate(0 2)">
      <path id="패스_5532" data-name="패스 5532" class="cls-2" d="M-187.05,60.28h-37.12a7.793,7.793,0,0,1-7.79-7.79V51.14a7.793,7.793,0,0,1,7.79-7.79h37.12a7.793,7.793,0,0,1,7.79,7.79v1.35A7.787,7.787,0,0,1-187.05,60.28Z"/>
    </g>
    <g id="그룹_4042" data-name="그룹 4042" transform="translate(0 2)">
      <path id="패스_5533" data-name="패스 5533" class="cls-2" d="M-335.79,70.79h-.98v3.16c.44-.03.91-.07,1.43-.13l.06.63a37.886,37.886,0,0,1-5.61.34h-.23l-.1-.7c.39,0,.8-.01,1.24-.02V70.78h-.97V70.1h5.16v.69Zm-3.96,4.77h.83v2.27h5.59v.71h-6.41V75.56Zm2.16-1.55V70.79h-1.56v3.28Q-338.46,74.055-337.59,74.01Zm2.98-4.81h.84v2.9h1.44v.72h-1.44v3.41h-.84Z"/>
      <path id="패스_5534" data-name="패스 5534" class="cls-2" d="M-331.38,70.31h3.65v5.87h-3.65Zm2.86,5.19V70.99h-2.06V75.5Zm4.97,3.24h-.82V73.68h-1.33v4.58h-.81V69.4h.81v3.59h1.33V69.2h.82Z"/>
      <path id="패스_5535" data-name="패스 5535" class="cls-2" d="M-318.67,73.65a4.929,4.929,0,0,0,.9,1.4,4.029,4.029,0,0,0,1.26.95l-.48.67a4.313,4.313,0,0,1-1.44-1.18,5.753,5.753,0,0,1-.97-1.77,6.533,6.533,0,0,1-.6,1.32,5.658,5.658,0,0,1-.86,1.11,4.069,4.069,0,0,1-1.01.75l-.52-.67a4.18,4.18,0,0,0,1.27-1,5.369,5.369,0,0,0,.94-1.49,4.4,4.4,0,0,0,.36-1.62V70.87h-2.22v-.7h5.2v.7H-319v1.25A3.909,3.909,0,0,0-318.67,73.65Zm2.99-4.46h.84v3.87h1.6v.72h-1.6v4.96h-.84Z"/>
      <path id="패스_5536" data-name="패스 5536" class="cls-2" d="M-309.81,73.99a5.8,5.8,0,0,0,1.15-3.06h-3.56v-.71h4.42a7.212,7.212,0,0,1-1.07,3.86,7.872,7.872,0,0,1-3.31,2.84l-.47-.67A7.7,7.7,0,0,0-309.81,73.99Zm4.48-.91h1.55v.71h-1.55v4.95h-.84V69.19h.84Z"/>
      <path id="패스_5537" data-name="패스 5537" class="cls-2" d="M-291.75,73.92h-3.94v.95h2.83V77h-5.67v.97h5.96v.67h-6.8V76.37h5.68v-.85h-5.7v-.66h2.87v-.95h-3.92v-.69h8.7v.7Zm-7.58-4.41h6.45v2.91h-6.45Zm5.61,2.24V70.19h-4.77v1.56Z"/>
      <path id="패스_5538" data-name="패스 5538" class="cls-2" d="M-282.25,74.51h-3.94v1.13h2.88v2.98h-6.57V75.64h2.87V74.51h-3.93v-.7h8.7v.7Zm-7.88-5.01h7.06v.7h-1.47v2.01h1.44v.7h-6.99v-.7h1.44V70.2h-1.47v-.7Zm5.99,8.42V76.3h-4.91v1.62h4.91Zm-1.24-5.71V70.2h-2.44v2.01Z"/>
      <path id="패스_5539" data-name="패스 5539" class="cls-2" d="M-278.13,71a2.325,2.325,0,0,1,.9-.83,2.715,2.715,0,0,1,1.28-.3,2.715,2.715,0,0,1,1.28.3,2.325,2.325,0,0,1,.9.83,2.241,2.241,0,0,1,.33,1.21,2.3,2.3,0,0,1-.33,1.22,2.276,2.276,0,0,1-.9.84,2.715,2.715,0,0,1-1.28.3,2.715,2.715,0,0,1-1.28-.3,2.276,2.276,0,0,1-.9-.84,2.276,2.276,0,0,1-.33-1.22A2.332,2.332,0,0,1-278.13,71Zm.71,2.04a1.494,1.494,0,0,0,.6.57,1.76,1.76,0,0,0,.86.2,1.837,1.837,0,0,0,.85-.2,1.564,1.564,0,0,0,.6-.57,1.562,1.562,0,0,0,.22-.83,1.5,1.5,0,0,0-.22-.82,1.641,1.641,0,0,0-.6-.57,1.728,1.728,0,0,0-.85-.21,1.849,1.849,0,0,0-.86.2,1.5,1.5,0,0,0-.6.57,1.532,1.532,0,0,0-.21.83A1.626,1.626,0,0,0-277.42,73.04Zm.46,2.43h.84v2.35h5.63v.71h-6.47Zm6.16.71h-.84V69.2h.84Z"/>
      <path id="패스_5540" data-name="패스 5540" class="cls-2" d="M-266.84,73.9a5.948,5.948,0,0,0,.94-2.79h-2.86v-.7h3.7a7.638,7.638,0,0,1-.13,1.44h1.45V69.44h.81v8.81h-.81V74.94h-1.77v-.7h1.77v-1.7h-1.62a6.576,6.576,0,0,1-1.18,2.29,7.744,7.744,0,0,1-2.14,1.83l-.52-.61A6.6,6.6,0,0,0-266.84,73.9Zm5.84,4.84h-.81V69.19h.81Z"/>
      <path id="패스_5541" data-name="패스 5541" class="cls-2" d="M-250.93,74.29h-8.74v-.67h8.74v.67Zm-7.69.77h6.6v2.03h-5.74V78h6.05v.61h-6.9V76.5h5.75v-.82h-5.76Zm.05-5.58h6.51v1.98h-5.64v.84h5.81v.61h-6.65V70.88h5.63V70.1h-5.66Z"/>
      <path id="패스_5542" data-name="패스 5542" class="cls-2" d="M-243.26,69.88a2,2,0,0,1,.84.66,1.7,1.7,0,0,1,.3.99,1.637,1.637,0,0,1-.24.88,1.825,1.825,0,0,1-.68.64,2.616,2.616,0,0,1-1,.32v.93c.98-.05,1.85-.14,2.63-.25l.06.63a24.9,24.9,0,0,1-2.71.31c-.95.06-1.94.08-2.96.08h-.3l-.11-.7h.49c.78,0,1.46-.01,2.03-.03v-.97a2.761,2.761,0,0,1-1.03-.31,1.782,1.782,0,0,1-.69-.64,1.672,1.672,0,0,1-.24-.89,1.659,1.659,0,0,1,.3-.99,1.928,1.928,0,0,1,.84-.66,3.172,3.172,0,0,1,1.23-.24A3.048,3.048,0,0,1-243.26,69.88Zm-2.6,2.29a1.3,1.3,0,0,0,.56.43,2.1,2.1,0,0,0,.82.16,1.936,1.936,0,0,0,.82-.16,1.358,1.358,0,0,0,.56-.43,1.082,1.082,0,0,0,.2-.64,1.135,1.135,0,0,0-.2-.65,1.225,1.225,0,0,0-.56-.43,2.1,2.1,0,0,0-.82-.15,1.936,1.936,0,0,0-.82.16,1.3,1.3,0,0,0-.56.44.97.97,0,0,0-.19.64A1.019,1.019,0,0,0-245.86,72.17Zm-.15,3.7h.85v1.94h5.56v.71h-6.41Zm5.22-6.67h.85v3.23h1.43v.72h-1.43V76.5h-.85Z"/>
      <path id="패스_5543" data-name="패스 5543" class="cls-2" d="M-229.15,77.56h-8.74v-.71h2.46V75.03h-1.36V72.09h5.71V70.6h-5.74v-.7h6.56v2.89h-5.7v1.55h5.93v.7h-1.49v1.82h2.37v.7Zm-3.2-.71V75.03h-2.26v1.82Z"/>
      <path id="패스_5544" data-name="패스 5544" class="cls-2" d="M-228.44,70.73h2.46V69.31h.84v1.42h2.38v.7h-5.68v-.7Zm.85,2.55a2.15,2.15,0,0,1,.83-.78,2.54,2.54,0,0,1,1.21-.28,2.528,2.528,0,0,1,1.2.28,2.178,2.178,0,0,1,.84.78,2.152,2.152,0,0,1,.31,1.13,2.187,2.187,0,0,1-.31,1.14,2.11,2.11,0,0,1-.84.78,2.5,2.5,0,0,1-1.2.28,2.54,2.54,0,0,1-1.21-.28,2.017,2.017,0,0,1-.83-.78,2.156,2.156,0,0,1-.3-1.14A2.145,2.145,0,0,1-227.59,73.28Zm.7,1.9a1.316,1.316,0,0,0,.55.52,1.488,1.488,0,0,0,.79.18,1.661,1.661,0,0,0,.78-.18,1.377,1.377,0,0,0,.55-.52,1.5,1.5,0,0,0,.2-.77,1.55,1.55,0,0,0-.2-.77,1.339,1.339,0,0,0-.55-.53,1.581,1.581,0,0,0-.78-.19,1.592,1.592,0,0,0-.79.19,1.4,1.4,0,0,0-.55.53,1.523,1.523,0,0,0-.2.77A1.523,1.523,0,0,0-226.89,75.18Zm5.9-2.05h1.6v.7h-1.6v4.91h-.84V69.19h.84Z"/>
      <path id="패스_5545" data-name="패스 5545" class="cls-2" d="M-215.14,70.3a2.463,2.463,0,0,1,.83,1.03h2.51V69.19h.84v9.57h-.84V75.05h-2.45a2.589,2.589,0,0,1-.84,1.13,1.914,1.914,0,0,1-1.22.39,2.038,2.038,0,0,1-1.25-.41,2.645,2.645,0,0,1-.85-1.16,4.735,4.735,0,0,1-.3-1.76,4.681,4.681,0,0,1,.3-1.75,2.658,2.658,0,0,1,.85-1.17,2.038,2.038,0,0,1,1.25-.41A2.154,2.154,0,0,1-215.14,70.3Zm-2.56,4.31a2.014,2.014,0,0,0,.56.9,1.234,1.234,0,0,0,.83.32,1.21,1.21,0,0,0,.82-.32,2.014,2.014,0,0,0,.56-.9,4.262,4.262,0,0,0,.2-1.35,4.262,4.262,0,0,0-.2-1.35,2.109,2.109,0,0,0-.56-.91,1.228,1.228,0,0,0-.82-.32,1.234,1.234,0,0,0-.83.32,2.05,2.05,0,0,0-.56.91,4.262,4.262,0,0,0-.2,1.35A4.262,4.262,0,0,0-217.7,74.61Zm3.77-1.35a5.467,5.467,0,0,1-.11,1.1h2.23V72.04h-2.27A4.341,4.341,0,0,1-213.93,73.26Z"/>
      <path id="패스_5546" data-name="패스 5546" class="cls-2" d="M-206.06,71a2.325,2.325,0,0,1,.9-.83,2.715,2.715,0,0,1,1.28-.3,2.715,2.715,0,0,1,1.28.3,2.325,2.325,0,0,1,.9.83,2.242,2.242,0,0,1,.33,1.21,2.3,2.3,0,0,1-.33,1.22,2.276,2.276,0,0,1-.9.84,2.715,2.715,0,0,1-1.28.3,2.715,2.715,0,0,1-1.28-.3,2.276,2.276,0,0,1-.9-.84,2.276,2.276,0,0,1-.33-1.22A2.332,2.332,0,0,1-206.06,71Zm.71,2.04a1.494,1.494,0,0,0,.6.57,1.76,1.76,0,0,0,.86.2,1.808,1.808,0,0,0,.85-.2,1.641,1.641,0,0,0,.6-.57,1.562,1.562,0,0,0,.22-.83,1.5,1.5,0,0,0-.22-.82,1.641,1.641,0,0,0-.6-.57,1.728,1.728,0,0,0-.85-.21,1.849,1.849,0,0,0-.86.2,1.5,1.5,0,0,0-.6.57,1.532,1.532,0,0,0-.21.83A1.626,1.626,0,0,0-205.35,73.04Zm.46,2.43h.84v2.35h5.63v.71h-6.47Zm6.16.71h-.84V69.2h.84Z"/>
      <path id="패스_5547" data-name="패스 5547" class="cls-2" d="M-197.1,74.57h8.7v.71h-3.95v3.46h-.83V75.28h-3.92Zm5.29-3.25a4.076,4.076,0,0,0,1.31.99,5.311,5.311,0,0,0,1.67.52l-.34.69a6.271,6.271,0,0,1-1.46-.43,5.311,5.311,0,0,1-1.26-.77,3.414,3.414,0,0,1-.85-1.03,3.448,3.448,0,0,1-.85,1.04,5.311,5.311,0,0,1-1.26.77,5.823,5.823,0,0,1-1.46.43l-.34-.69a5.644,5.644,0,0,0,1.68-.52,4.12,4.12,0,0,0,1.3-.98,1.917,1.917,0,0,0,.5-1.25v-.55h.87v.55A1.8,1.8,0,0,0-191.81,71.32Z"/>
      <path id="패스_5548" data-name="패스 5548" class="cls-2" d="M-182.29,74.6v-.7a2.567,2.567,0,0,1-1.34-.45,1.15,1.15,0,0,1-.49-.96,1.076,1.076,0,0,1,.28-.75,1.835,1.835,0,0,1,.78-.49,3.793,3.793,0,0,1,1.17-.17,3.814,3.814,0,0,1,1.18.17,1.69,1.69,0,0,1,.78.49,1.123,1.123,0,0,1,.28.75,1.176,1.176,0,0,1-.49.96,2.494,2.494,0,0,1-1.32.45v.67c.99-.05,1.86-.13,2.63-.24l.08.61a22.7,22.7,0,0,1-2.67.3c-.92.05-1.91.08-2.96.08h-.4l-.1-.69C-183.78,74.63-182.91,74.62-182.29,74.6Zm-2.35-4.53h2.35v-.96h.84v.96h2.34v.64h-5.53Zm.93,6.01h6.33v2.66h-.85V76.75h-5.48Zm.57-3.15a1.022,1.022,0,0,0,.5.29,2.857,2.857,0,0,0,.76.1,2.5,2.5,0,0,0,.76-.1,1.2,1.2,0,0,0,.5-.29.62.62,0,0,0,.18-.44.676.676,0,0,0-.39-.6,2,2,0,0,0-1.05-.21,2,2,0,0,0-1.05.21.665.665,0,0,0-.38.6A.675.675,0,0,0-183.14,72.93Zm5.76-.84h1.43v.71h-1.43v2.8h-.85V69.2h.85Z"/>
      <path id="패스_5549" data-name="패스 5549" class="cls-2" d="M-174.03,73.38a3.539,3.539,0,0,0,.86-1.12,2.9,2.9,0,0,0,.31-1.31V70.6h-2.16v-.71h5.15v.71h-2.14v.34a2.6,2.6,0,0,0,.3,1.2,3.254,3.254,0,0,0,.83,1.03,3.752,3.752,0,0,0,1.22.68l-.44.68a3.957,3.957,0,0,1-1.4-.86,3.886,3.886,0,0,1-.92-1.32,4.06,4.06,0,0,1-.94,1.48,4.135,4.135,0,0,1-1.49.97l-.44-.68A3.809,3.809,0,0,0-174.03,73.38Zm.63,2.62a2.406,2.406,0,0,1,1.11-.61,6.149,6.149,0,0,1,1.71-.21,6.149,6.149,0,0,1,1.71.21,2.459,2.459,0,0,1,1.11.61,1.321,1.321,0,0,1,.39.96,1.321,1.321,0,0,1-.39.96,2.459,2.459,0,0,1-1.11.61,6.519,6.519,0,0,1-1.71.22,6.124,6.124,0,0,1-1.71-.22,2.368,2.368,0,0,1-1.1-.61,1.312,1.312,0,0,1-.38-.96A1.344,1.344,0,0,1-173.4,76Zm.73,1.54a1.911,1.911,0,0,0,.81.38,5.107,5.107,0,0,0,1.25.13,5.224,5.224,0,0,0,1.27-.13,2,2,0,0,0,.83-.38.768.768,0,0,0,.29-.59.776.776,0,0,0-.28-.6,1.9,1.9,0,0,0-.82-.39,5.249,5.249,0,0,0-1.26-.13,5.137,5.137,0,0,0-1.26.13,1.96,1.96,0,0,0-.82.39.787.787,0,0,0-.29.6A.809.809,0,0,0-172.67,77.54Zm5.26-2.66h-.85v-2.5h-1.92v-.7h1.92V69.19h.85Z"/>
      <path id="패스_5550" data-name="패스 5550" class="cls-2" d="M-165.16,71.51a2.773,2.773,0,0,1,.87-1.17,2.088,2.088,0,0,1,1.26-.41,2.088,2.088,0,0,1,1.26.41,2.565,2.565,0,0,1,.86,1.17,4.519,4.519,0,0,1,.31,1.75,4.519,4.519,0,0,1-.31,1.75,2.742,2.742,0,0,1-.86,1.16,2.088,2.088,0,0,1-1.26.41,2.088,2.088,0,0,1-1.26-.41,2.679,2.679,0,0,1-.87-1.16,4.519,4.519,0,0,1-.31-1.75A4.713,4.713,0,0,1-165.16,71.51Zm.71,3.1a2.039,2.039,0,0,0,.58.9,1.278,1.278,0,0,0,.84.32,1.285,1.285,0,0,0,.85-.32,1.944,1.944,0,0,0,.57-.9,4,4,0,0,0,.2-1.35,4.262,4.262,0,0,0-.2-1.35,2.22,2.22,0,0,0-.57-.91,1.285,1.285,0,0,0-.85-.32,1.259,1.259,0,0,0-.84.32,2.168,2.168,0,0,0-.58.91,4,4,0,0,0-.2,1.35A4.262,4.262,0,0,0-164.45,74.61Zm6.5,4.15h-.85V69.19h.85Z"/>
      <path id="패스_5551" data-name="패스 5551" class="cls-2" d="M-152.17,73.1V70.52h-.96v-.68h5.17v.68h-.97v2.45c.46-.04.94-.08,1.44-.14l.04.62a27.473,27.473,0,0,1-2.76.27c-.99.06-1.96.08-2.91.08h-.17l-.11-.7Q-153.025,73.115-152.17,73.1Zm.26,1.51h6.25v2.28h-5.39v1.05h5.76v.69h-6.58V76.26h5.38v-.97h-5.41v-.68Zm2.17-1.59v-2.5h-1.61v2.56C-150.63,73.06-150.09,73.04-149.74,73.02Zm4.08,1.13h-.85V69.19h.85Z"/>
      <path id="패스_5552" data-name="패스 5552" class="cls-2" d="M-135.3,77.52h-8.74v-.71h2.17V74.24a2.483,2.483,0,0,1-.97-.83,1.994,1.994,0,0,1-.34-1.15,1.98,1.98,0,0,1,.45-1.28,2.848,2.848,0,0,1,1.24-.86,5.084,5.084,0,0,1,1.81-.31,5.084,5.084,0,0,1,1.81.31,2.848,2.848,0,0,1,1.24.86,1.98,1.98,0,0,1,.45,1.28,2,2,0,0,1-.33,1.13,2.488,2.488,0,0,1-.93.82v2.6h2.17v.71Zm-6.73-4.34a2.2,2.2,0,0,0,.95.63,4.015,4.015,0,0,0,1.39.22,3.919,3.919,0,0,0,1.38-.22,2.264,2.264,0,0,0,.95-.63,1.388,1.388,0,0,0,.34-.93,1.388,1.388,0,0,0-.34-.93,2.159,2.159,0,0,0-.95-.62,4,4,0,0,0-1.38-.21,4.274,4.274,0,0,0-1.39.21,2.188,2.188,0,0,0-.95.62,1.388,1.388,0,0,0-.34.93A1.388,1.388,0,0,0-142.03,73.18Zm3.71,3.63V74.54a5.491,5.491,0,0,1-1.38.17,5.154,5.154,0,0,1-1.35-.16v2.27h2.73Z"/>
      <path id="패스_5553" data-name="패스 5553" class="cls-2" d="M-134.52,70.37h2.43V69.2h.84v1.17h2.43v.69h-5.69v-.69Zm.83,2.06a1.766,1.766,0,0,1,.81-.62,3.038,3.038,0,0,1,1.21-.22,3.022,3.022,0,0,1,1.2.22,1.835,1.835,0,0,1,.81.62,1.588,1.588,0,0,1,.29.94,1.558,1.558,0,0,1-.29.93,1.835,1.835,0,0,1-.81.62,2.991,2.991,0,0,1-1.2.21,3.228,3.228,0,0,1-1.21-.21,1.765,1.765,0,0,1-.81-.62,1.58,1.58,0,0,1-.29-.93A1.661,1.661,0,0,1-133.69,72.43Zm.71,1.52a1.14,1.14,0,0,0,.52.38,2.146,2.146,0,0,0,.79.13,2.128,2.128,0,0,0,.78-.13,1.25,1.25,0,0,0,.53-.38.919.919,0,0,0,.19-.58,1.013,1.013,0,0,0-.19-.59,1.157,1.157,0,0,0-.52-.39,2.034,2.034,0,0,0-.77-.14,2.1,2.1,0,0,0-.79.14,1.135,1.135,0,0,0-.53.39,1.013,1.013,0,0,0-.19.59A.855.855,0,0,0-132.98,73.95Zm-.07,1.84h.83v2.04h5.59v.71h-6.41V75.79Zm5.97-3.44h1.44v.71h-1.44v3.3h-.84V69.2h.84Z"/>
      <path id="패스_5554" data-name="패스 5554" class="cls-2" d="M-118.78,71.97a3.215,3.215,0,0,0,.84,1.04,3.908,3.908,0,0,0,1.23.69l-.46.67a3.916,3.916,0,0,1-1.39-.86,4.03,4.03,0,0,1-.92-1.32,3.979,3.979,0,0,1-.92,1.48,4.125,4.125,0,0,1-1.46.96l-.45-.68a3.884,3.884,0,0,0,1.25-.76,3.519,3.519,0,0,0,.84-1.15,3.265,3.265,0,0,0,.3-1.38v-.99h.83v1.05A2.885,2.885,0,0,0-118.78,71.97Zm-1.88,4.08a2.352,2.352,0,0,1,1.1-.59,6.074,6.074,0,0,1,1.69-.2,6.341,6.341,0,0,1,1.68.2,2.419,2.419,0,0,1,1.08.59,1.3,1.3,0,0,1,.38.93,1.267,1.267,0,0,1-.38.94,2.326,2.326,0,0,1-1.08.59,6.367,6.367,0,0,1-1.69.2,6.367,6.367,0,0,1-1.69-.2,2.287,2.287,0,0,1-1.09-.6,1.306,1.306,0,0,1-.38-.94A1.294,1.294,0,0,1-120.66,76.05Zm.74,1.5a1.987,1.987,0,0,0,.8.37,5.021,5.021,0,0,0,1.24.13,5.021,5.021,0,0,0,1.24-.13,2.036,2.036,0,0,0,.81-.37.719.719,0,0,0,.28-.57.714.714,0,0,0-.28-.56,2.036,2.036,0,0,0-.81-.37,5.553,5.553,0,0,0-1.24-.13,5.021,5.021,0,0,0-1.24.13,2.036,2.036,0,0,0-.81.37.663.663,0,0,0-.27.56A.784.784,0,0,0-119.92,77.55Zm4.27-8.36h.84v2.49h1.44v.71h-1.44V75h-.84Z"/>
      <path id="패스_5555" data-name="패스 5555" class="cls-2" d="M-108.6,70.98h-2.98v1.84h2.84v.68h-2.84v2.16c.75,0,1.37-.02,1.86-.05a12.45,12.45,0,0,0,1.48-.18l.08.7a11.888,11.888,0,0,1-1.53.2c-.5.04-1.12.05-1.86.05h-.83V70.3h3.78Zm1.07-1.59h.82v3.64h1.31V69.18h.82v9.55h-.82V73.72h-1.31v4.52h-.82Z"/>
      <path id="패스_5556" data-name="패스 5556" class="cls-2" d="M-102.72,70.71a2.188,2.188,0,0,1,.89-.78,2.977,2.977,0,0,1,1.29-.27,2.977,2.977,0,0,1,1.29.27,2.052,2.052,0,0,1,.89.78,2.1,2.1,0,0,1,.32,1.14,2.081,2.081,0,0,1-.32,1.14,2.188,2.188,0,0,1-.89.78,2.98,2.98,0,0,1-1.29.28,2.843,2.843,0,0,1-1.29-.28,2.052,2.052,0,0,1-.89-.78,2.081,2.081,0,0,1-.32-1.14A2.168,2.168,0,0,1-102.72,70.71Zm.72,1.91a1.412,1.412,0,0,0,.6.53,1.859,1.859,0,0,0,.87.19,1.916,1.916,0,0,0,.87-.19,1.623,1.623,0,0,0,.6-.53,1.435,1.435,0,0,0,.21-.77,1.435,1.435,0,0,0-.21-.77,1.412,1.412,0,0,0-.6-.53,1.859,1.859,0,0,0-.87-.19,1.858,1.858,0,0,0-.87.19,1.54,1.54,0,0,0-.6.53,1.435,1.435,0,0,0-.21.77A1.411,1.411,0,0,0-102,72.62Zm.44,2.18h.84v1.16h4.51V74.8h.84v3.81h-6.19V74.8Zm5.35,3.12V76.63h-4.51v1.29Zm.83-3.61h-.84V69.19h.84Z"/>
      <path id="패스_5557" data-name="패스 5557" class="cls-2" d="M-93.13,70.14h.83v5.41c.79-.01,1.56-.05,2.3-.12a19.961,19.961,0,0,0,2.26-.35l.12.72a20.64,20.64,0,0,1-2.37.36c-.77.07-1.56.11-2.37.11h-.77V70.14Zm7.25,8.6h-.84V69.19h.84Z"/>
      <path id="패스_5558" data-name="패스 5558" class="cls-2" d="M-83.83,70.12h4.46v.7h-3.62v4.83c.9,0,1.68-.03,2.35-.08s1.34-.14,2.02-.26l.11.73a19.37,19.37,0,0,1-2.08.26c-.68.05-1.51.06-2.48.06h-.75V70.12Zm6.97,2.85h1.6v.71h-1.6v5.08h-.84V69.19h.84Z"/>
      <path id="패스_5559" data-name="패스 5559" class="cls-2" d="M-74.08,77.84a.666.666,0,0,1-.25-.25.7.7,0,0,1-.09-.35.665.665,0,0,1,.09-.34.666.666,0,0,1,.25-.25.7.7,0,0,1,.35-.09.665.665,0,0,1,.34.09.6.6,0,0,1,.25.25.692.692,0,0,1,.09.34.72.72,0,0,1-.2.5.651.651,0,0,1-.49.21A1.042,1.042,0,0,1-74.08,77.84Z"/>
      <path id="패스_5560" data-name="패스 5560" class="cls-2" d="M-303.25,87.12h-3.94v.95h2.83v2.14h-5.67v.97h5.96v.67h-6.8V89.58h5.68v-.85h-5.7v-.66h2.87v-.95h-3.92v-.69h8.7v.69Zm-7.58-4.41h6.45v2.91h-6.45Zm5.61,2.24V83.39h-4.77v1.56Z"/>
      <path id="패스_5561" data-name="패스 5561" class="cls-2" d="M-293.75,87.71h-3.94v1.13h2.88v2.98h-6.57V88.84h2.87V87.71h-3.93v-.7h8.7v.7Zm-7.88-5.01h7.06v.7h-1.47v2.01h1.44v.7h-6.99v-.7h1.44V83.4h-1.47v-.7Zm5.99,8.42V89.5h-4.91v1.62Zm-1.24-5.71V83.4h-2.44v2.01Z"/>
      <path id="패스_5562" data-name="패스 5562" class="cls-2" d="M-292.94,86.53h8.7v.69h-8.7Zm6.17-3.78a2.676,2.676,0,0,1,1.16.56,1.158,1.158,0,0,1,.4.89,1.185,1.185,0,0,1-.4.91,2.638,2.638,0,0,1-1.15.57,7.834,7.834,0,0,1-1.82.2,7.469,7.469,0,0,1-1.83-.2,2.681,2.681,0,0,1-1.16-.57,1.2,1.2,0,0,1-.4-.91,1.144,1.144,0,0,1,.4-.89,2.621,2.621,0,0,1,1.16-.56,7.424,7.424,0,0,1,1.82-.19A7.946,7.946,0,0,1-286.77,82.75Zm-5.12,5.29h6.53v2.14h-5.67v.99h5.96v.67h-6.8V89.56h5.68v-.87h-5.7v-.65Zm1.45-3.07a5.019,5.019,0,0,0,1.85.27,5.056,5.056,0,0,0,1.85-.27c.44-.18.66-.43.66-.77a.66.66,0,0,0-.3-.54,2.216,2.216,0,0,0-.87-.35,6.631,6.631,0,0,0-1.35-.12,6.5,6.5,0,0,0-1.35.12,2.229,2.229,0,0,0-.86.35.649.649,0,0,0-.29.54C-291.1,84.54-290.88,84.79-290.44,84.97Z"/>
      <path id="패스_5563" data-name="패스 5563" class="cls-2" d="M-279.38,86.77a3.466,3.466,0,0,0,.86-1.1,2.858,2.858,0,0,0,.31-1.3v-.49h-2.16v-.7h5.15v.7h-2.14v.49a2.532,2.532,0,0,0,.3,1.19,3.4,3.4,0,0,0,.83,1.03,3.859,3.859,0,0,0,1.22.69l-.44.68a3.957,3.957,0,0,1-1.4-.86,3.886,3.886,0,0,1-.92-1.32,3.927,3.927,0,0,1-.95,1.46,4.367,4.367,0,0,1-1.48.95l-.44-.69A3.856,3.856,0,0,0-279.38,86.77Zm.49,2h.85v2.26h5.55v.71h-6.4Zm6.13.63h-.85V85.74h-1.97v-.7h1.97V82.4h.85Z"/>
      <path id="패스_5564" data-name="패스 5564" class="cls-2" d="M-266.48,83.64h-3.42v2.51h.35c.86,0,1.58-.02,2.17-.07a16.038,16.038,0,0,0,1.79-.25l.11.68a12.662,12.662,0,0,1-1.82.26c-.6.05-1.35.07-2.25.07h-1.18V82.95h4.24v.69Zm-3.31,4.05h6.09v2.35h-5.24v1.08h5.6v.69h-6.42V89.37h5.23v-1h-5.25v-.68Zm5.25-5.3h.84v2.03h1.44v.7h-1.44v2.09h-.84Z"/>
      <path id="패스_5565" data-name="패스 5565" class="cls-2" d="M-261.25,82.94h.83V84.4h2.78V82.94h.84v4.44h-4.45V82.94Zm3.61,3.76V85.08h-2.78V86.7Zm-2.55,1.81h6.07v.68h-5.23v1.93h5.41v.69h-6.25Zm6-3.81h1.44v.71h-1.44v2.57h-.84V82.39h.84Z"/>
      <path id="패스_5566" data-name="패스 5566" class="cls-2" d="M-248.17,83.24a2.139,2.139,0,0,1,.89.79,2.282,2.282,0,0,1,.33,1.17,2.106,2.106,0,0,1-.33,1.17,2.2,2.2,0,0,1-.89.79,2.843,2.843,0,0,1-1.29.28,2.843,2.843,0,0,1-1.29-.28,2.139,2.139,0,0,1-.89-.79,2.184,2.184,0,0,1-.32-1.17,2.184,2.184,0,0,1,.32-1.17,2.074,2.074,0,0,1,.89-.79,2.843,2.843,0,0,1,1.29-.28A2.9,2.9,0,0,1-248.17,83.24Zm-2.57,7.35a2.9,2.9,0,0,0,.68-.86,2.051,2.051,0,0,0,.24-.94v-.54h.81v.54a2.5,2.5,0,0,0,.35,1.28,2.6,2.6,0,0,0,1.01.99,2.677,2.677,0,0,0,.75-.67,2.8,2.8,0,0,0,.47-.81,2.19,2.19,0,0,0,.16-.8v-.54h.83v.54a2.1,2.1,0,0,0,.23.97,2.829,2.829,0,0,0,.67.85,3.184,3.184,0,0,0,1.04.58l-.43.64a3.429,3.429,0,0,1-1.19-.74,3.226,3.226,0,0,1-.75-1.09,3.543,3.543,0,0,1-.69,1.13,3.042,3.042,0,0,1-1.09.77,2.875,2.875,0,0,1-1.11-.75,3.3,3.3,0,0,1-.68-1.12,3.574,3.574,0,0,1-.75,1.07,3.524,3.524,0,0,1-1.15.73l-.43-.64A2.92,2.92,0,0,0-250.74,90.59Zm-.19-4.59a1.433,1.433,0,0,0,.6.54,1.879,1.879,0,0,0,.86.2,1.921,1.921,0,0,0,.87-.2A1.433,1.433,0,0,0-248,86a1.4,1.4,0,0,0,.22-.79,1.426,1.426,0,0,0-.22-.79,1.519,1.519,0,0,0-.6-.55,1.887,1.887,0,0,0-.87-.19,1.845,1.845,0,0,0-.86.19,1.392,1.392,0,0,0-.6.55,1.506,1.506,0,0,0-.21.79A1.505,1.505,0,0,0-250.93,86Zm5.41-3.61h.84V84.7h1.44v.7h-1.44v2.44h-.84Z"/>
      <path id="패스_5567" data-name="패스 5567" class="cls-2" d="M-242.23,83.32h4.46v.7h-3.62v4.83c.9,0,1.68-.03,2.35-.08a20.3,20.3,0,0,0,2.02-.26l.11.73a19.37,19.37,0,0,1-2.08.26c-.68.04-1.51.06-2.48.06h-.75V83.32Zm6.97,2.85h1.6v.71h-1.6v5.08h-.84V82.39h.84Z"/>
      <path id="패스_5568" data-name="패스 5568" class="cls-2" d="M-228.3,84.08h2.23V82.4h.85v6.97h-.85V86.82h-2.23v.86h-4.38V83.22h4.38Zm-.83,2.93V83.93h-2.72v3.08Zm-2.27,1.74h.85v2.28h5.54v.71h-6.39Zm5.33-2.62V84.79h-2.23v1.34Z"/>
      <path id="패스_5569" data-name="패스 5569" class="cls-2" d="M-212.17,87.12h-3.94v.95h2.83v2.14h-5.67v.97h5.96v.67h-6.8V89.58h5.68v-.85h-5.7v-.66h2.87v-.95h-3.92v-.69h8.7v.69Zm-7.57-4.41h6.45v2.91h-6.45Zm5.6,2.24V83.39h-4.77v1.56Z"/>
      <path id="패스_5570" data-name="패스 5570" class="cls-2" d="M-202.66,87.71h-3.94v1.13h2.88v2.98h-6.57V88.84h2.87V87.71h-3.93v-.7h8.7v.7Zm-7.89-5.01h7.06v.7h-1.47v2.01h1.44v.7h-6.99v-.7h1.44V83.4h-1.47v-.7Zm6,8.42V89.5h-4.91v1.62Zm-1.25-5.71V83.4h-2.44v2.01Z"/>
      <path id="패스_5571" data-name="패스 5571" class="cls-2" d="M-201.31,84.2a2.325,2.325,0,0,1,.9-.83,2.715,2.715,0,0,1,1.28-.3,2.715,2.715,0,0,1,1.28.3,2.325,2.325,0,0,1,.9.83,2.242,2.242,0,0,1,.33,1.21,2.3,2.3,0,0,1-.33,1.22,2.276,2.276,0,0,1-.9.84,2.715,2.715,0,0,1-1.28.3,2.715,2.715,0,0,1-1.28-.3,2.276,2.276,0,0,1-.9-.84,2.276,2.276,0,0,1-.33-1.22A2.431,2.431,0,0,1-201.31,84.2Zm.72,2.04a1.494,1.494,0,0,0,.6.57,1.76,1.76,0,0,0,.86.2,1.808,1.808,0,0,0,.85-.2,1.641,1.641,0,0,0,.6-.57,1.562,1.562,0,0,0,.22-.83,1.5,1.5,0,0,0-.22-.82,1.641,1.641,0,0,0-.6-.57,1.728,1.728,0,0,0-.85-.21,1.849,1.849,0,0,0-.86.2,1.5,1.5,0,0,0-.6.57,1.625,1.625,0,0,0-.21.83A1.45,1.45,0,0,0-200.59,86.24Zm.45,2.43h.84v2.35h5.63v.71h-6.47Zm6.17.71h-.84V82.4h.84Z"/>
      <path id="패스_5572" data-name="패스 5572" class="cls-2" d="M-192.35,87.77h8.7v.71h-3.95v3.46h-.83V88.48h-3.92Zm5.29-3.25a4.076,4.076,0,0,0,1.31.99,5.311,5.311,0,0,0,1.67.52l-.34.69a6.271,6.271,0,0,1-1.46-.43,5.311,5.311,0,0,1-1.26-.77,3.414,3.414,0,0,1-.85-1.03,3.448,3.448,0,0,1-.85,1.04,5.311,5.311,0,0,1-1.26.77,5.823,5.823,0,0,1-1.46.43l-.34-.69a5.644,5.644,0,0,0,1.68-.52,4.12,4.12,0,0,0,1.3-.98,1.917,1.917,0,0,0,.5-1.25v-.55h.87v.55A1.843,1.843,0,0,0-187.06,84.52Z"/>
      <path id="패스_5573" data-name="패스 5573" class="cls-2" d="M-172.17,91.96H-173V86.64h-2.29v2.9h-4.4v-6.4h.85v2.49h2.73V83.14h.83v2.8h2.29V82.38h.84v9.58Zm-3.95-3.11V86.31h-2.73v2.54Z"/>
      <path id="패스_5574" data-name="패스 5574" class="cls-2" d="M-161.88,88.37h-8.71v-.69h8.71Zm-7.57.7h.84v1.96h5.82v.71h-6.66Zm.02-6.31h6.47v.68h-5.62v1h5.36v.66h-5.36v1.03h5.67v.67h-6.52Z"/>
      <path id="패스_5575" data-name="패스 5575" class="cls-2" d="M-161.07,86.53h8.7v.69h-8.7Zm6.17-3.78a2.676,2.676,0,0,1,1.16.56,1.158,1.158,0,0,1,.4.89,1.185,1.185,0,0,1-.4.91,2.638,2.638,0,0,1-1.15.57,7.834,7.834,0,0,1-1.82.2,7.469,7.469,0,0,1-1.83-.2,2.681,2.681,0,0,1-1.16-.57,1.2,1.2,0,0,1-.4-.91,1.144,1.144,0,0,1,.4-.89,2.621,2.621,0,0,1,1.16-.56,7.424,7.424,0,0,1,1.82-.19A7.946,7.946,0,0,1-154.9,82.75Zm-5.12,5.29h6.53v2.14h-5.67v.99h5.96v.67H-160V89.56h5.68v-.87h-5.7Zm1.45-3.07a5.019,5.019,0,0,0,1.85.27,5.056,5.056,0,0,0,1.85-.27c.44-.18.66-.43.66-.77a.66.66,0,0,0-.3-.54,2.216,2.216,0,0,0-.87-.35,6.631,6.631,0,0,0-1.35-.12,6.5,6.5,0,0,0-1.35.12,2.229,2.229,0,0,0-.86.35.649.649,0,0,0-.29.54C-159.23,84.54-159.01,84.79-158.57,84.97Z"/>
      <path id="패스_5576" data-name="패스 5576" class="cls-2" d="M-148.81,86.23h8.74v.69h-3.99v1.02h2.86v2.18h-5.65v1.04h5.99v.68h-6.84V89.5h5.67v-.91h-5.69v-.66h2.85V86.91h-3.94v-.68Zm7.71-.84h-6.52V82.55h.83v2.14h5.69Z"/>
      <path id="패스_5577" data-name="패스 5577" class="cls-2" d="M-138.96,83.28h4.3v3.34h-3.43v2.32c.89,0,1.66-.02,2.29-.06a16.9,16.9,0,0,0,1.94-.25l.06.71a17.68,17.68,0,0,1-2.02.25c-.66.04-1.46.07-2.39.07h-.73V85.92h3.45V83.98h-3.48v-.7Zm7.57,8.68h-.84V86.77h-1.86v-.71h1.86V82.39h.84Z"/>
      <path id="패스_5578" data-name="패스 5578" class="cls-2" d="M-129.79,87.84h8.7v.7h-3.95v3.41h-.83V88.54h-3.92Zm5.3-2.93a4,4,0,0,0,1.26.94,5.532,5.532,0,0,0,1.62.5l-.31.67a6.8,6.8,0,0,1-1.46-.43,4.937,4.937,0,0,1-1.24-.75,3.1,3.1,0,0,1-.82-1.01,3.234,3.234,0,0,1-.82,1.01,4.937,4.937,0,0,1-1.24.75,5.979,5.979,0,0,1-1.44.43l-.33-.67a5.532,5.532,0,0,0,1.62-.5,3.851,3.851,0,0,0,1.26-.94,1.781,1.781,0,0,0,.49-1.17v-.06h-3.06v-.69h7.06v.69h-3.05v.06A1.649,1.649,0,0,0-124.49,84.91Z"/>
      <path id="패스_5579" data-name="패스 5579" class="cls-2" d="M-117.2,86.64a4.661,4.661,0,0,0,.7,1.39,3.576,3.576,0,0,0,1.07.99l-.48.66a3.8,3.8,0,0,1-1.17-1.13,5.466,5.466,0,0,1-.75-1.62,5.933,5.933,0,0,1-.79,1.75,3.867,3.867,0,0,1-1.22,1.2l-.54-.63a3.671,3.671,0,0,0,1.13-1.03,5.094,5.094,0,0,0,.74-1.45,5.279,5.279,0,0,0,.26-1.62V83.3h.82v1.82A4.5,4.5,0,0,0-117.2,86.64Zm.71-.82h1.62V82.6h.79v8.86h-.79V86.54h-1.62Zm3.58-3.43h.82v9.55h-.82Z"/>
      <path id="패스_5580" data-name="패스 5580" class="cls-2" d="M-102.03,90.72h-8.74v-.71h2.17V87.44a2.483,2.483,0,0,1-.97-.83,1.994,1.994,0,0,1-.34-1.15,1.98,1.98,0,0,1,.45-1.28,2.848,2.848,0,0,1,1.24-.86,5.084,5.084,0,0,1,1.81-.31,5.084,5.084,0,0,1,1.81.31,2.848,2.848,0,0,1,1.24.86,1.98,1.98,0,0,1,.45,1.28,2,2,0,0,1-.33,1.13,2.488,2.488,0,0,1-.93.82v2.6H-102v.71Zm-6.73-4.34a2.2,2.2,0,0,0,.95.63,4.015,4.015,0,0,0,1.39.22,3.919,3.919,0,0,0,1.38-.22,2.264,2.264,0,0,0,.95-.63,1.388,1.388,0,0,0,.34-.93,1.388,1.388,0,0,0-.34-.93,2.159,2.159,0,0,0-.95-.62,4,4,0,0,0-1.38-.21,4.274,4.274,0,0,0-1.39.21,2.188,2.188,0,0,0-.95.62,1.388,1.388,0,0,0-.34.93A1.388,1.388,0,0,0-108.76,86.38Zm3.71,3.63V87.74a5.491,5.491,0,0,1-1.38.17,5.154,5.154,0,0,1-1.35-.16v2.27h2.73Z"/>
      <path id="패스_5581" data-name="패스 5581" class="cls-2" d="M-100.61,91.04a.666.666,0,0,1-.25-.25.7.7,0,0,1-.09-.35.665.665,0,0,1,.09-.34.666.666,0,0,1,.25-.25.7.7,0,0,1,.35-.09.665.665,0,0,1,.34.09.6.6,0,0,1,.25.25.692.692,0,0,1,.09.34.72.72,0,0,1-.2.5.651.651,0,0,1-.49.21A1.125,1.125,0,0,1-100.61,91.04Z"/>
    </g>
    <g id="그룹_4043" data-name="그룹 4043" transform="translate(0 3)">
      <path id="패스_5582" data-name="패스 5582" class="cls-1" d="M-225.33,48.55a2.459,2.459,0,0,1,.98-.91,2.952,2.952,0,0,1,1.4-.33,2.884,2.884,0,0,1,1.39.33,2.526,2.526,0,0,1,.98.91,2.468,2.468,0,0,1,.36,1.32,2.478,2.478,0,0,1-.36,1.33,2.459,2.459,0,0,1-.98.91,2.94,2.94,0,0,1-1.39.33,2.98,2.98,0,0,1-1.4-.33,2.459,2.459,0,0,1-.98-.91,2.471,2.471,0,0,1-.35-1.33A2.461,2.461,0,0,1-225.33,48.55Zm.78,2.23a1.578,1.578,0,0,0,.66.62,2.067,2.067,0,0,0,.94.22,1.935,1.935,0,0,0,.93-.22,1.714,1.714,0,0,0,.66-.62,1.717,1.717,0,0,0,.24-.91,1.682,1.682,0,0,0-.24-.9,1.714,1.714,0,0,0-.66-.62,1.941,1.941,0,0,0-.93-.23,1.947,1.947,0,0,0-.94.22,1.714,1.714,0,0,0-.66.62,1.613,1.613,0,0,0-.23.9A1.748,1.748,0,0,0-224.55,50.78Zm.5,2.65h.91V56H-217v.77h-7.05Zm6.72.77h-.91V46.58h.91Z"/>
      <path id="패스_5583" data-name="패스 5583" class="cls-1" d="M-215.56,52.45h9.49v.77h-4.31v3.77h-.9V53.22h-4.28v-.77Zm5.78-3.55a4.487,4.487,0,0,0,1.42,1.08,5.9,5.9,0,0,0,1.83.57l-.38.75a6.763,6.763,0,0,1-1.59-.47,5.717,5.717,0,0,1-1.37-.84,3.674,3.674,0,0,1-.93-1.13,3.513,3.513,0,0,1-.93,1.13,5.6,5.6,0,0,1-1.37.84,6.763,6.763,0,0,1-1.59.47l-.38-.75a5.9,5.9,0,0,0,1.83-.57,4.614,4.614,0,0,0,1.42-1.07,2.015,2.015,0,0,0,.54-1.36v-.6h.95v.6A2.042,2.042,0,0,0-209.78,48.9Z"/>
      <path id="패스_5584" data-name="패스 5584" class="cls-1" d="M-204.8,47.85h3.9v.76h-2.99v5.02c.77,0,1.42-.03,1.96-.07a13.311,13.311,0,0,0,1.63-.23l.08.77a13.306,13.306,0,0,1-1.73.24c-.57.04-1.3.06-2.18.06h-.67V47.85Zm8.52,9.14h-.88V51.53h-1.54v4.92h-.84V46.81h.84v3.96h1.54v-4.2h.88Z"/>
      <path id="패스_5585" data-name="패스 5585" class="cls-1" d="M-191.49,51.83a6.377,6.377,0,0,0,1.27-3.36h-3.98v-.75h4.92a7.907,7.907,0,0,1-1.2,4.24,8.6,8.6,0,0,1-3.7,3.09l-.5-.75A8.609,8.609,0,0,0-191.49,51.83Zm5.29,5.16h-.93V46.58h.93Z"/>
    </g>
    <g id="그룹_4044" data-name="그룹 4044">
      <path id="패스_5586" data-name="패스 5586" class="cls-1" d="M-67.12,13.53H-343.16a3.5,3.5,0,0,1-3.5-3.5h0a3.5,3.5,0,0,1,3.5-3.5H-67.12a3.5,3.5,0,0,1,3.5,3.5h0A3.491,3.491,0,0,1-67.12,13.53Z"/>
    </g>
    <g id="그룹_4045" data-name="그룹 4045">
      <path id="패스_5587" data-name="패스 5587" class="cls-2" d="M-206.05,13.53H-343.16a3.5,3.5,0,0,1-3.5-3.5h0a3.5,3.5,0,0,1,3.5-3.5h137.11a3.5,3.5,0,0,1,3.5,3.5h0A3.5,3.5,0,0,1-206.05,13.53Z"/>
    </g>
    <g id="그룹_4048" data-name="그룹 4048">
      <g id="그룹_4046" data-name="그룹 4046">
        <circle id="타원_174" data-name="타원 174" class="cls-2" cx="7" cy="7" r="7" transform="translate(-354.99 3.03)"/>
        <path id="패스_5588" data-name="패스 5588" class="cls-2" d="M-347.99,17.53a7.5,7.5,0,0,1-7.5-7.5,7.5,7.5,0,0,1,7.5-7.5,7.5,7.5,0,0,1,7.5,7.5A7.5,7.5,0,0,1-347.99,17.53Zm0-14a6.513,6.513,0,0,0-6.5,6.5,6.513,6.513,0,0,0,6.5,6.5,6.513,6.513,0,0,0,6.5-6.5A6.506,6.506,0,0,0-347.99,3.53Z"/>
      </g>
      <g id="그룹_4047" data-name="그룹 4047">
        <path id="패스_5589" data-name="패스 5589" class="cls-1" d="M-347.21,13.72h-.87V7.69h-.04l-1.68,1.12V7.94l1.72-1.15h.87Z"/>
      </g>
    </g>
    <g id="그룹_4049" data-name="그룹 4049">
      <path id="패스_5590" data-name="패스 5590" class="cls-2" d="M-353.7,27.92a2.5,2.5,0,0,1,1.02-.88,3.293,3.293,0,0,1,1.46-.31,3.293,3.293,0,0,1,1.46.31,2.5,2.5,0,0,1,1.02.88,2.291,2.291,0,0,1,.37,1.29,2.2,2.2,0,0,1-.37,1.27,2.555,2.555,0,0,1-1.02.87,3.293,3.293,0,0,1-1.46.31,3.293,3.293,0,0,1-1.46-.31,2.555,2.555,0,0,1-1.02-.87,2.226,2.226,0,0,1-.37-1.27A2.246,2.246,0,0,1-353.7,27.92Zm1.11,2.02a1.342,1.342,0,0,0,.56.49,1.8,1.8,0,0,0,.82.17,1.924,1.924,0,0,0,.81-.17,1.334,1.334,0,0,0,.56-.49,1.294,1.294,0,0,0,.2-.73,1.439,1.439,0,0,0-.2-.74,1.218,1.218,0,0,0-.56-.49,1.924,1.924,0,0,0-.81-.17,1.937,1.937,0,0,0-.82.17,1.277,1.277,0,0,0-.56.49,1.388,1.388,0,0,0-.2.74A1.272,1.272,0,0,0-352.59,29.94Zm.15,2.49h1.29v1.09h4.42V32.43h1.3v4.29h-7.01Zm5.71,3.23V34.54h-4.42v1.12Zm1.3-3.72h-1.31V26.26h1.31Z"/>
      <path id="패스_5591" data-name="패스 5591" class="cls-2" d="M-335.39,27.59v.33c0,.45-.02.89-.05,1.31a9.349,9.349,0,0,1-.21,1.37h1.44v1.05h-9.68V30.6h6.92a10.529,10.529,0,0,0,.22-1.42c.03-.43.05-.89.05-1.37h-6V26.77h7.3v.82Zm-7.34,5.29h7.32v3.83h-7.32Zm6.04,2.78V33.9h-4.76v1.76Z"/>
      <path id="패스_5592" data-name="패스 5592" class="cls-2" d="M-328.94,26.98a2.214,2.214,0,0,1,.94.75,2,2,0,0,1,.35,1.11,1.924,1.924,0,0,1-.25.95,2.152,2.152,0,0,1-.69.72,2.613,2.613,0,0,1-1.03.4v.86c.99-.06,1.86-.14,2.59-.25l.11.95a25.109,25.109,0,0,1-2.98.34q-1.56.09-3.21.09h-.27l-.14-1.04c.98,0,1.84-.01,2.59-.04v-.91a2.914,2.914,0,0,1-1.06-.39,2.124,2.124,0,0,1-.71-.72,1.86,1.86,0,0,1-.25-.96,1.849,1.849,0,0,1,.34-1.11,2.276,2.276,0,0,1,.94-.75,3.317,3.317,0,0,1,1.37-.27A3.3,3.3,0,0,1-328.94,26.98Zm-3.15,6.65h1.3v1.93h6.04v1.05h-7.34Zm.52-4.19a1.219,1.219,0,0,0,.51.4,1.793,1.793,0,0,0,.75.14,1.641,1.641,0,0,0,1.03-.31,1.029,1.029,0,0,0,.4-.83,1,1,0,0,0-.4-.83,1.638,1.638,0,0,0-1.03-.3,1.967,1.967,0,0,0-.75.13,1.127,1.127,0,0,0-.51.39,1.045,1.045,0,0,0-.18.61A1.014,1.014,0,0,0-331.57,29.44Zm5.14-3.18h1.3v3.42h1.43v1.08h-1.43v3.59h-1.3Z"/>
      <path id="패스_5593" data-name="패스 5593" class="cls-2" d="M-313.46,35.62h-9.68V34.54h2.57V32.79H-322V29.33h6.09v-1.3h-6.12V26.98h7.41v3.4h-6.08v1.36h6.33v1.05h-1.55v1.75h2.45v1.08Zm-3.73-1.08V32.79h-2.12v1.75Z"/>
    </g>
    <g id="그룹_4050" data-name="그룹 4050">
      <path id="패스_5594" data-name="패스 5594" class="cls-2" d="M-223.65,26.74a2.7,2.7,0,0,1,1.03-.95,3.041,3.041,0,0,1,1.45-.34,3.069,3.069,0,0,1,1.45.34,2.555,2.555,0,0,1,1.03.95,2.549,2.549,0,0,1,.37,1.36,2.535,2.535,0,0,1-.37,1.37,2.626,2.626,0,0,1-1.03.95,3.069,3.069,0,0,1-1.45.34,3.069,3.069,0,0,1-1.45-.34,2.555,2.555,0,0,1-1.03-.95,2.567,2.567,0,0,1-.38-1.37A2.558,2.558,0,0,1-223.65,26.74Zm1.1,2.17a1.3,1.3,0,0,0,.56.53,1.8,1.8,0,0,0,.82.19,1.631,1.631,0,0,0,.8-.19,1.364,1.364,0,0,0,.56-.53,1.614,1.614,0,0,0,.21-.8,1.481,1.481,0,0,0-.21-.79,1.386,1.386,0,0,0-.57-.53,1.78,1.78,0,0,0-.8-.19,1.67,1.67,0,0,0-.81.19,1.455,1.455,0,0,0-.57.53,1.475,1.475,0,0,0-.2.79A1.727,1.727,0,0,0-222.55,28.91Zm.15,2.73h1.31v2.44h5.99v1.05h-7.3Zm7.01.78h-1.31V24.77h1.31Z"/>
      <path id="패스_5595" data-name="패스 5595" class="cls-2" d="M-213.85,30.58h9.66v1.08h-4.21v3.69h-1.29V31.66h-4.16Zm5.99-3.65a3.843,3.843,0,0,0,1.33,1.08,5.634,5.634,0,0,0,1.95.59l-.52,1.05a6.409,6.409,0,0,1-2.37-.82,4.14,4.14,0,0,1-1.55-1.53,4.371,4.371,0,0,1-1.55,1.53,6.2,6.2,0,0,1-2.35.82l-.52-1.05a5.579,5.579,0,0,0,1.94-.59,3.8,3.8,0,0,0,1.32-1.08,2.164,2.164,0,0,0,.47-1.3v-.54h1.37v.54A2.245,2.245,0,0,0-207.86,26.93Z"/>
      <path id="패스_5596" data-name="패스 5596" class="cls-2" d="M-203.15,26.01h3.96v1.05h-2.65v4.71c.61-.01,1.17-.03,1.66-.07s1-.11,1.51-.2l.09,1.07a11.871,11.871,0,0,1-1.74.23c-.57.03-1.28.06-2.13.07h-.71V26.01Zm8.79,9.34h-1.24v-5.4h-1.2v4.86H-198V24.95h1.2V28.9h1.2V24.75h1.24Z"/>
      <path id="패스_5597" data-name="패스 5597" class="cls-2" d="M-189.95,30.1a6.121,6.121,0,0,0,1.21-3.19h-3.75V25.88h5.07a8.469,8.469,0,0,1-1.14,4.43,8.5,8.5,0,0,1-3.79,3.16l-.68-1.04A8.306,8.306,0,0,0-189.95,30.1Zm5.69,5.25h-1.31V24.75h1.31Z"/>
    </g>
    <g id="그룹_4053" data-name="그룹 4053">
      <g id="그룹_4051" data-name="그룹 4051">
        <circle id="타원_175" data-name="타원 175" class="cls-2" cx="7" cy="7" r="7" transform="translate(-211.83 3.03)"/>
        <path id="패스_5598" data-name="패스 5598" class="cls-2" d="M-204.83,17.53a7.5,7.5,0,0,1-7.5-7.5,7.5,7.5,0,0,1,7.5-7.5,7.5,7.5,0,0,1,7.5,7.5A7.5,7.5,0,0,1-204.83,17.53Zm0-14a6.513,6.513,0,0,0-6.5,6.5,6.513,6.513,0,0,0,6.5,6.5,6.513,6.513,0,0,0,6.5-6.5A6.506,6.506,0,0,0-204.83,3.53Z"/>
      </g>
      <g id="그룹_4052" data-name="그룹 4052">
        <path id="패스_5599" data-name="패스 5599" class="cls-1" d="M-207.06,13.08l2.36-2.49c.31-.33.55-.6.71-.8a3.075,3.075,0,0,0,.38-.59,1.368,1.368,0,0,0,.13-.59,1.045,1.045,0,0,0-.18-.61,1.194,1.194,0,0,0-.5-.41,1.6,1.6,0,0,0-.7-.15,1.462,1.462,0,0,0-.71.17,1.157,1.157,0,0,0-.47.46,1.345,1.345,0,0,0-.17.68h-.81a2.011,2.011,0,0,1,.28-1.07,1.9,1.9,0,0,1,.79-.72,2.462,2.462,0,0,1,1.12-.26,2.385,2.385,0,0,1,1.11.25,1.983,1.983,0,0,1,.77.69,1.836,1.836,0,0,1,.28.98,1.944,1.944,0,0,1-.15.76,3.068,3.068,0,0,1-.48.8q-.345.435-.96,1.08l-1.59,1.64v.06h3.3v.77h-4.5Z"/>
      </g>
    </g>
    <g id="그룹_4054" data-name="그룹 4054">
      <path id="패스_5600" data-name="패스 5600" class="cls-3" d="M-93.07,30.08a6.293,6.293,0,0,0,1.15-3.18h-3.64V25.87h4.96a9.917,9.917,0,0,1-.45,3.02,6.839,6.839,0,0,1-1.5,2.52,9.29,9.29,0,0,1-2.82,2.02l-.68-1.02A7.9,7.9,0,0,0-93.07,30.08Zm5.95,5.27h-1.3V29.96h-2.24V28.89h2.24V24.75h1.3Z"/>
      <path id="패스_5601" data-name="패스 5601" class="cls-3" d="M-81.31,29.78h-2.74v2.06c.62-.01,1.18-.03,1.7-.06a14.706,14.706,0,0,0,1.58-.18l.09,1.05c-.66.11-1.28.18-1.87.22s-1.27.06-2.03.06h-.73V28.72h2.74V26.88h-2.75V25.83h4.01v3.95Zm1.17-4.83h1.2v3.87h1.2V24.75h1.24V35.34h-1.24V29.87h-1.2V34.8h-1.2Z"/>
      <path id="패스_5602" data-name="패스 5602" class="cls-3" d="M-69.79,29.88h4.2v1.05h-9.66V29.88h4.17V28.53h1.29Zm-3.31-2.15a3.811,3.811,0,0,0,1.19-.65,1.618,1.618,0,0,0,.56-.82h-3.02V25.22h7.91v1.04h-3.05a1.618,1.618,0,0,0,.56.82,3.759,3.759,0,0,0,1.2.65,6.971,6.971,0,0,0,1.71.36l-.47,1.02a6.715,6.715,0,0,1-2.46-.68,3.365,3.365,0,0,1-1.46-1.34,3.279,3.279,0,0,1-1.45,1.34,6.919,6.919,0,0,1-2.45.68l-.46-1.02A6.706,6.706,0,0,0-73.1,27.73Zm-.58,4.74a2.8,2.8,0,0,1,1.27-.63,8.078,8.078,0,0,1,1.98-.22,7.538,7.538,0,0,1,1.97.22,2.864,2.864,0,0,1,1.26.63,1.342,1.342,0,0,1,.44,1,1.333,1.333,0,0,1-.44,1.01,2.864,2.864,0,0,1-1.26.63,8.051,8.051,0,0,1-1.97.22,7.619,7.619,0,0,1-1.98-.22,3.019,3.019,0,0,1-1.27-.63,1.348,1.348,0,0,1-.44-1.01A1.293,1.293,0,0,1-73.68,32.47Zm1.48,1.66a5.333,5.333,0,0,0,1.77.22,5.24,5.24,0,0,0,1.75-.22c.4-.15.61-.37.61-.66s-.21-.49-.61-.64a5.306,5.306,0,0,0-1.76-.22,5.613,5.613,0,0,0-1.77.22c-.4.14-.6.35-.59.64S-72.61,33.98-72.2,34.13Z"/>
      <path id="패스_5603" data-name="패스 5603" class="cls-3" d="M-55.2,34.12h-9.68V33.04h2.57V31.29h-1.42V27.83h6.09v-1.3h-6.12V25.48h7.41v3.4h-6.08v1.36h6.33v1.05h-1.55v1.75h2.45v1.08Zm-3.72-1.08V31.29h-2.12v1.75Z"/>
    </g>
    <g id="그룹_4057" data-name="그룹 4057">
      <g id="그룹_4055" data-name="그룹 4055">
        <circle id="타원_176" data-name="타원 176" class="cls-1" cx="7" cy="7" r="7" transform="translate(-69.86 3.03)"/>
        <path id="패스_5604" data-name="패스 5604" class="cls-3" d="M-62.86,17.53a7.5,7.5,0,0,1-7.5-7.5,7.5,7.5,0,0,1,7.5-7.5,7.5,7.5,0,0,1,7.5,7.5A7.5,7.5,0,0,1-62.86,17.53Zm0-14a6.513,6.513,0,0,0-6.5,6.5,6.513,6.513,0,0,0,6.5,6.5,6.513,6.513,0,0,0,6.5-6.5A6.506,6.506,0,0,0-62.86,3.53Z"/>
      </g>
      <g id="그룹_4056" data-name="그룹 4056">
        <path id="패스_5605" data-name="패스 5605" class="cls-3" d="M-64.06,13.58a1.939,1.939,0,0,1-.85-.65,1.637,1.637,0,0,1-.33-.96h.87a.967.967,0,0,0,.23.57,1.3,1.3,0,0,0,.54.37,2.056,2.056,0,0,0,.76.13,2.088,2.088,0,0,0,.81-.15,1.3,1.3,0,0,0,.56-.43,1.008,1.008,0,0,0,.2-.63,1.176,1.176,0,0,0-.2-.67,1.3,1.3,0,0,0-.58-.46,2.273,2.273,0,0,0-.91-.17h-.56V9.78h.56a1.747,1.747,0,0,0,.74-.15,1.1,1.1,0,0,0,.5-.42,1.1,1.1,0,0,0,.18-.62,1.135,1.135,0,0,0-.16-.61,1.059,1.059,0,0,0-.45-.41,1.48,1.48,0,0,0-.68-.15,1.822,1.822,0,0,0-.7.14,1.228,1.228,0,0,0-.53.38.925.925,0,0,0-.22.58h-.83a1.584,1.584,0,0,1,.33-.95,2.064,2.064,0,0,1,.83-.65,2.818,2.818,0,0,1,1.13-.23,2.343,2.343,0,0,1,1.12.25,1.878,1.878,0,0,1,.74.68,1.657,1.657,0,0,1,.25.92,1.609,1.609,0,0,1-.31,1,1.557,1.557,0,0,1-.87.57v.05a1.744,1.744,0,0,1,.77.29,1.478,1.478,0,0,1,.5.58,1.832,1.832,0,0,1,.17.79,1.723,1.723,0,0,1-.31,1.01,2.154,2.154,0,0,1-.86.71,2.926,2.926,0,0,1-1.24.26A2.763,2.763,0,0,1-64.06,13.58Z"/>
      </g>
    </g>
  </g>
</svg>
