<svg xmlns="http://www.w3.org/2000/svg" width="300.29" height="102.206" viewBox="0 0 300.29 102.206">
  <defs>
    <style>
      .cls-1 {
        fill: #fff;
      }

      .cls-2 {
        fill: #3f52fc;
      }

      .cls-3 {
        fill: #707070;
      }
    </style>
  </defs>
  <g id="인계완료" transform="translate(-0.12 -2.53)">
    <g id="그룹_3985" data-name="그룹 3985" transform="translate(0 1.516)">
      <path id="패스_5355" data-name="패스 5355" class="cls-1" d="M291.21,102.72H8.79A7.793,7.793,0,0,1,1,94.93V60.83a7.793,7.793,0,0,1,7.79-7.79H291.2a7.793,7.793,0,0,1,7.79,7.79v34.1A7.778,7.778,0,0,1,291.21,102.72Z"/>
      <path id="패스_5356" data-name="패스 5356" class="cls-2" d="M291.21,103.22H8.79A8.3,8.3,0,0,1,.5,94.93V60.83a8.3,8.3,0,0,1,8.29-8.29H291.2a8.3,8.3,0,0,1,8.29,8.29v34.1A8.286,8.286,0,0,1,291.21,103.22ZM8.79,53.52A7.3,7.3,0,0,0,1.5,60.81v34.1a7.3,7.3,0,0,0,7.29,7.29H291.2a7.3,7.3,0,0,0,7.29-7.29V60.81a7.3,7.3,0,0,0-7.29-7.29H8.79Z"/>
    </g>
    <g id="그룹_3986" data-name="그룹 3986" transform="translate(0 1.516)">
      <path id="패스_5357" data-name="패스 5357" class="cls-2" d="M168.56,60.28H131.44a7.793,7.793,0,0,1-7.79-7.79V51.14a7.793,7.793,0,0,1,7.79-7.79h37.12a7.793,7.793,0,0,1,7.79,7.79v1.35A7.787,7.787,0,0,1,168.56,60.28Z"/>
    </g>
    <g id="그룹_3987" data-name="그룹 3987" transform="translate(0 1.516)">
      <path id="패스_5358" data-name="패스 5358" class="cls-2" d="M37.33,73.92H33.39v.95h2.83V77H30.55v.97h5.96v.67h-6.8V76.37h5.68v-.85h-5.7v-.66h2.87v-.95H28.64v-.69h8.7v.7Zm-7.58-4.41H36.2v2.91H29.75Zm5.61,2.24V70.19H30.59v1.56Z"/>
      <path id="패스_5359" data-name="패스 5359" class="cls-2" d="M46.83,74.51H42.89v1.13h2.88v2.98H39.2V75.64h2.87V74.51H38.14v-.7h8.7v.7ZM38.95,69.5h7.06v.7H44.54v2.01h1.44v.7H38.99v-.7h1.44V70.2H38.96v-.7Zm5.99,8.42V76.3H40.03v1.62h4.91ZM43.7,72.21V70.2H41.26v2.01Z"/>
      <path id="패스_5360" data-name="패스 5360" class="cls-2" d="M50.95,71a2.325,2.325,0,0,1,.9-.83,2.881,2.881,0,0,1,2.56,0,2.325,2.325,0,0,1,.9.83,2.242,2.242,0,0,1,.33,1.21,2.3,2.3,0,0,1-.33,1.22,2.276,2.276,0,0,1-.9.84,2.881,2.881,0,0,1-2.56,0,2.274,2.274,0,0,1-1.23-2.06A2.332,2.332,0,0,1,50.95,71Zm.72,2.04a1.494,1.494,0,0,0,.6.57,1.76,1.76,0,0,0,.86.2,1.808,1.808,0,0,0,.85-.2,1.641,1.641,0,0,0,.6-.57,1.562,1.562,0,0,0,.22-.83,1.5,1.5,0,0,0-.22-.82,1.641,1.641,0,0,0-.6-.57,1.728,1.728,0,0,0-.85-.21,1.849,1.849,0,0,0-.86.2,1.5,1.5,0,0,0-.6.57,1.625,1.625,0,0,0-.21.83A1.45,1.45,0,0,0,51.67,73.04Zm.45,2.43h.84v2.35h5.63v.71H52.12Zm6.17.71h-.84V69.2h.84Z"/>
      <path id="패스_5361" data-name="패스 5361" class="cls-2" d="M62.24,73.9a5.948,5.948,0,0,0,.94-2.79H60.32v-.7h3.7a7.638,7.638,0,0,1-.13,1.44h1.45V69.44h.81v8.81h-.81V74.94H63.57v-.7h1.77v-1.7H63.72a6.576,6.576,0,0,1-1.18,2.29,7.744,7.744,0,0,1-2.14,1.83l-.52-.61A6.6,6.6,0,0,0,62.24,73.9Zm5.84,4.84h-.81V69.19h.81Z"/>
      <path id="패스_5362" data-name="패스 5362" class="cls-2" d="M72.18,75.38h8.74v.7H76.93v2.69H76.1V76.08H72.17v-.7Zm8.19-4.4H72.62v-.7H76.1V69.13h.83v1.15h3.44v.7Zm-6.59,1.28a2.343,2.343,0,0,1,1.07-.54,6.821,6.821,0,0,1,1.68-.19,6.344,6.344,0,0,1,1.67.19,2.388,2.388,0,0,1,1.07.54,1.178,1.178,0,0,1,.37.87,1.115,1.115,0,0,1-.37.85,2.5,2.5,0,0,1-1.07.54,6.293,6.293,0,0,1-1.67.19,6.821,6.821,0,0,1-1.68-.19,2.555,2.555,0,0,1-1.07-.54,1.115,1.115,0,0,1-.37-.85A1.157,1.157,0,0,1,73.78,72.26Zm.76,1.37a1.793,1.793,0,0,0,.76.32,5.843,5.843,0,0,0,1.2.11,4.614,4.614,0,0,0,1.67-.24q.6-.24.6-.69c0-.3-.2-.53-.6-.7a4.266,4.266,0,0,0-1.65-.25,4.525,4.525,0,0,0-1.66.25c-.39.17-.59.4-.59.7A.637.637,0,0,0,74.54,73.63Z"/>
      <path id="패스_5363" data-name="패스 5363" class="cls-2" d="M91.99,70.65c0,.62-.01,1.16-.05,1.64a12.322,12.322,0,0,1-.23,1.62h1.42v.7H89.2v4.15h-.85V74.61H84.44v-.7h6.42a11.278,11.278,0,0,0,.24-1.63c.03-.48.05-1.02.05-1.64V70.5H85.53v-.7h6.46v.85Z"/>
      <path id="패스_5364" data-name="패스 5364" class="cls-2" d="M94.3,70.31h3.65v5.87H94.3Zm2.86,5.19V70.99H95.1V75.5Zm4.98,3.24h-.82V73.68H99.99v4.58h-.81V69.4h.81v3.59h1.33V69.2h.82Z"/>
      <path id="패스_5365" data-name="패스 5365" class="cls-2" d="M107.01,73.65a4.929,4.929,0,0,0,.9,1.4,4.029,4.029,0,0,0,1.26.95l-.48.67a4.413,4.413,0,0,1-1.44-1.18,5.552,5.552,0,0,1-.97-1.77,6.534,6.534,0,0,1-.6,1.32,5.657,5.657,0,0,1-.86,1.11,4.069,4.069,0,0,1-1.01.75l-.52-.67a4.064,4.064,0,0,0,1.27-1,5.369,5.369,0,0,0,.94-1.49,4.207,4.207,0,0,0,.36-1.62V70.87h-2.22v-.7h5.2v.7h-2.15v1.25A3.891,3.891,0,0,0,107.01,73.65Zm3-4.46h.84v3.87h1.6v.72h-1.6v4.96h-.84Z"/>
      <path id="패스_5366" data-name="패스 5366" class="cls-2" d="M113.46,75.94c1.08,0,2.12-.02,3.09-.06a26.077,26.077,0,0,0,2.77-.26l.06.62a21.856,21.856,0,0,1-2.94.34c-1,.05-2.1.08-3.31.08l-.12-.72Zm3.95-5.77a2.2,2.2,0,0,1,.91.79,2.239,2.239,0,0,1,0,2.34,2.2,2.2,0,0,1-.91.79,3.275,3.275,0,0,1-2.65,0,2.224,2.224,0,0,1-.92-.79,2.239,2.239,0,0,1,0-2.34,2.164,2.164,0,0,1,.92-.79,3.017,3.017,0,0,1,1.33-.28A2.973,2.973,0,0,1,117.41,70.17Zm-2.85,2.74a1.531,1.531,0,0,0,.62.53,2.25,2.25,0,0,0,1.81,0,1.531,1.531,0,0,0,.62-.53,1.493,1.493,0,0,0,0-1.56,1.459,1.459,0,0,0-.62-.53,2.015,2.015,0,0,0-.9-.19,2.059,2.059,0,0,0-.91.19,1.541,1.541,0,0,0-.62.53,1.393,1.393,0,0,0-.22.78A1.348,1.348,0,0,0,114.56,72.91Zm5.4-3.72h.84v9.57h-.84Z"/>
      <path id="패스_5367" data-name="패스 5367" class="cls-2" d="M125.78,71a2.325,2.325,0,0,1,.9-.83,2.881,2.881,0,0,1,2.56,0,2.325,2.325,0,0,1,.9.83,2.242,2.242,0,0,1,.33,1.21,2.3,2.3,0,0,1-.33,1.22,2.276,2.276,0,0,1-.9.84,2.881,2.881,0,0,1-2.56,0,2.274,2.274,0,0,1-1.23-2.06A2.332,2.332,0,0,1,125.78,71Zm.72,2.04a1.494,1.494,0,0,0,.6.57,1.76,1.76,0,0,0,.86.2,1.808,1.808,0,0,0,.85-.2,1.641,1.641,0,0,0,.6-.57,1.562,1.562,0,0,0,.22-.83,1.5,1.5,0,0,0-.22-.82,1.641,1.641,0,0,0-.6-.57,1.728,1.728,0,0,0-.85-.21,1.849,1.849,0,0,0-.86.2,1.5,1.5,0,0,0-.6.57,1.625,1.625,0,0,0-.21.83A1.45,1.45,0,0,0,126.5,73.04Zm.45,2.43h.84v2.35h5.63v.71h-6.47Zm6.17.71h-.84V69.2h.84Z"/>
      <path id="패스_5368" data-name="패스 5368" class="cls-2" d="M134.74,74.57h8.7v.71h-3.95v3.46h-.83V75.28h-3.92Zm5.29-3.25a4.076,4.076,0,0,0,1.31.99,5.311,5.311,0,0,0,1.67.52l-.34.69a6.271,6.271,0,0,1-1.46-.43,5.311,5.311,0,0,1-1.26-.77,3.414,3.414,0,0,1-.85-1.03,3.448,3.448,0,0,1-.85,1.04,5.311,5.311,0,0,1-1.26.77,5.823,5.823,0,0,1-1.46.43l-.34-.69a5.644,5.644,0,0,0,1.68-.52,4.12,4.12,0,0,0,1.3-.98,1.917,1.917,0,0,0,.5-1.25v-.55h.87v.55A1.843,1.843,0,0,0,140.03,71.32Z"/>
      <path id="패스_5369" data-name="패스 5369" class="cls-2" d="M151.15,69.88a2,2,0,0,1,.84.66,1.7,1.7,0,0,1,.3.99,1.637,1.637,0,0,1-.24.88,1.825,1.825,0,0,1-.68.64,2.616,2.616,0,0,1-1,.32v.93c.98-.05,1.86-.14,2.63-.25l.06.63a24.9,24.9,0,0,1-2.71.31c-.95.05-1.94.08-2.96.08h-.3l-.11-.7h.49c.78,0,1.46-.01,2.03-.03v-.97a2.761,2.761,0,0,1-1.03-.31,1.782,1.782,0,0,1-.69-.64,1.777,1.777,0,0,1,.06-1.88,1.928,1.928,0,0,1,.84-.66,3,3,0,0,1,1.23-.24A3.048,3.048,0,0,1,151.15,69.88Zm-2.61,2.29a1.3,1.3,0,0,0,.56.43,2.1,2.1,0,0,0,.82.16,1.936,1.936,0,0,0,.82-.16,1.447,1.447,0,0,0,.56-.43,1.082,1.082,0,0,0,.2-.64,1.135,1.135,0,0,0-.2-.65,1.225,1.225,0,0,0-.56-.43,2.1,2.1,0,0,0-.82-.15,1.936,1.936,0,0,0-.82.16,1.3,1.3,0,0,0-.56.44,1.029,1.029,0,0,0-.19.64A1.087,1.087,0,0,0,148.54,72.17Zm-.15,3.7h.85v1.94h5.56v.71h-6.41Zm5.22-6.67h.85v3.23h1.43v.72h-1.43V76.5h-.85Z"/>
      <path id="패스_5370" data-name="패스 5370" class="cls-2" d="M165.26,77.56h-8.74v-.71h2.46V75.03h-1.36V72.09h5.71V70.6h-5.74v-.7h6.56v2.89h-5.7v1.55h5.93v.7h-1.49v1.82h2.37v.7Zm-3.2-.71V75.03H159.8v1.82Z"/>
      <path id="패스_5371" data-name="패스 5371" class="cls-2" d="M174.75,74.29h-8.74v-.67h8.74Zm-7.69.77h6.6v2.03h-5.74V78h6.05v.61h-6.9V76.5h5.75v-.82h-5.76v-.62Zm.05-5.58h6.51v1.98h-5.64v.84h5.81v.61h-6.65V70.88h5.63V70.1h-5.66Z"/>
      <path id="패스_5372" data-name="패스 5372" class="cls-2" d="M181.33,74a5.759,5.759,0,0,0,1.16-3.08h-3.65v-.69h4.51a7.167,7.167,0,0,1-1.1,3.88,7.865,7.865,0,0,1-3.39,2.83l-.46-.69A7.551,7.551,0,0,0,181.33,74Zm4.85,4.74h-.85V69.19h.85Z"/>
      <path id="패스_5373" data-name="패스 5373" class="cls-2" d="M188.21,70.12h4.46v.7h-3.62v4.83c.9,0,1.68-.03,2.35-.08s1.34-.14,2.02-.26l.11.73a19.37,19.37,0,0,1-2.08.26c-.68.05-1.51.06-2.48.06h-.75V70.12Zm6.97,2.85h1.6v.71h-1.6v5.08h-.84V69.19h.84Z"/>
      <path id="패스_5374" data-name="패스 5374" class="cls-2" d="M197.84,70.08h4.45v3.39h-3.57v2.26c.84,0,1.63-.02,2.37-.07s1.52-.14,2.33-.27l.09.71c-.83.13-1.62.22-2.38.27s-1.58.08-2.47.08h-.79V72.8h3.58V70.79h-3.6v-.71Zm7.34,8.68h-.84V69.19h.84Z"/>
      <path id="패스_5375" data-name="패스 5375" class="cls-2" d="M206.8,74.07h8.74v.69H206.8Zm1.13,1.66h.84V77.8h5.81v.7h-6.65Zm6.6-2.96h-6.54V69.55h.84V72.1h5.7Z"/>
      <path id="패스_5376" data-name="패스 5376" class="cls-2" d="M222.57,71.97a3.215,3.215,0,0,0,.84,1.04,3.908,3.908,0,0,0,1.23.69l-.46.67a3.916,3.916,0,0,1-1.39-.86,4.03,4.03,0,0,1-.92-1.32,3.979,3.979,0,0,1-.92,1.48,4.125,4.125,0,0,1-1.46.96l-.45-.68a3.884,3.884,0,0,0,1.25-.76,3.519,3.519,0,0,0,.84-1.15,3.265,3.265,0,0,0,.3-1.38v-.99h.83v1.05A2.751,2.751,0,0,0,222.57,71.97Zm-1.88,4.08a2.352,2.352,0,0,1,1.1-.59,6.074,6.074,0,0,1,1.69-.2,6.341,6.341,0,0,1,1.68.2,2.419,2.419,0,0,1,1.08.59,1.3,1.3,0,0,1,.38.93,1.267,1.267,0,0,1-.38.94,2.326,2.326,0,0,1-1.08.59,7.24,7.24,0,0,1-3.38,0,2.287,2.287,0,0,1-1.09-.6,1.328,1.328,0,0,1,0-1.86Zm.74,1.5a1.987,1.987,0,0,0,.8.37,5.979,5.979,0,0,0,2.48,0,2.036,2.036,0,0,0,.81-.37.71.71,0,0,0,0-1.13,2.036,2.036,0,0,0-.81-.37,5.553,5.553,0,0,0-1.24-.13,5.021,5.021,0,0,0-1.24.13,2.036,2.036,0,0,0-.81.37.663.663,0,0,0-.27.56A.784.784,0,0,0,221.43,77.55Zm4.27-8.36h.84v2.49h1.44v.71h-1.44V75h-.84Z"/>
      <path id="패스_5377" data-name="패스 5377" class="cls-2" d="M232.75,70.98h-2.98v1.84h2.84v.68h-2.84v2.16c.75,0,1.37-.02,1.86-.05a12.449,12.449,0,0,0,1.48-.18l.08.7a11.888,11.888,0,0,1-1.53.2c-.5.04-1.12.05-1.86.05h-.83V70.3h3.78Zm1.07-1.59h.82v3.64h1.31V69.18h.82v9.55h-.82V73.72h-1.31v4.52h-.82Z"/>
      <path id="패스_5378" data-name="패스 5378" class="cls-2" d="M238.63,70.71a2.188,2.188,0,0,1,.89-.78,3.217,3.217,0,0,1,2.58,0,2.052,2.052,0,0,1,.89.78,2.1,2.1,0,0,1,.32,1.14,2.081,2.081,0,0,1-.32,1.14,2.188,2.188,0,0,1-.89.78,2.98,2.98,0,0,1-1.29.28,2.843,2.843,0,0,1-1.29-.28,2.052,2.052,0,0,1-.89-.78,2.191,2.191,0,0,1,0-2.28Zm.72,1.91a1.412,1.412,0,0,0,.6.53,1.858,1.858,0,0,0,.87.19,1.916,1.916,0,0,0,.87-.19,1.623,1.623,0,0,0,.6-.53,1.517,1.517,0,0,0,0-1.54,1.412,1.412,0,0,0-.6-.53,2.087,2.087,0,0,0-1.74,0,1.54,1.54,0,0,0-.6.53,1.435,1.435,0,0,0-.21.77A1.411,1.411,0,0,0,239.35,72.62Zm.44,2.18h.84v1.16h4.51V74.8h.84v3.81h-6.19V74.8Zm5.35,3.12V76.63h-4.51v1.29Zm.83-3.61h-.84V69.19h.84Z"/>
      <path id="패스_5379" data-name="패스 5379" class="cls-2" d="M248.22,70.14h.83v5.41c.79-.01,1.56-.05,2.3-.12a19.961,19.961,0,0,0,2.26-.35l.12.72a20.64,20.64,0,0,1-2.37.36c-.77.07-1.56.11-2.37.11h-.77Zm7.25,8.6h-.84V69.19h.84Z"/>
      <path id="패스_5380" data-name="패스 5380" class="cls-2" d="M257.52,70.12h4.46v.7h-3.62v4.83c.9,0,1.68-.03,2.35-.08s1.34-.14,2.02-.26l.11.73a19.37,19.37,0,0,1-2.08.26c-.68.05-1.51.06-2.48.06h-.75V70.12Zm6.97,2.85h1.6v.71h-1.6v5.08h-.84V69.19h.84Z"/>
      <path id="패스_5381" data-name="패스 5381" class="cls-2" d="M267.27,77.84a.667.667,0,0,1-.25-.25.7.7,0,0,1-.09-.35.677.677,0,0,1,.34-.59.7.7,0,0,1,.35-.09.665.665,0,0,1,.34.09.6.6,0,0,1,.25.25.692.692,0,0,1,.09.34.72.72,0,0,1-.2.5.65.65,0,0,1-.49.21A1.042,1.042,0,0,1,267.27,77.84Z"/>
      <path id="패스_5382" data-name="패스 5382" class="cls-2" d="M59.33,83.85c0,.62-.01,1.16-.05,1.64a12.323,12.323,0,0,1-.23,1.62h1.42v.7H56.53v4.15h-.85V87.81H51.77v-.7h6.42a11.278,11.278,0,0,0,.24-1.63c.03-.48.05-1.02.05-1.64V83.7H52.86V83h6.46v.85Z"/>
      <path id="패스_5383" data-name="패스 5383" class="cls-2" d="M61.64,83.51h3.65v5.87H61.64ZM64.5,88.7V84.19H62.44V88.7Zm4.97,3.24h-.82V86.88H67.32v4.58h-.81V82.6h.81v3.59h1.33V82.4h.82Z"/>
      <path id="패스_5384" data-name="패스 5384" class="cls-2" d="M74.35,86.85a4.929,4.929,0,0,0,.9,1.4,4.029,4.029,0,0,0,1.26.95l-.48.67a4.413,4.413,0,0,1-1.44-1.18,5.552,5.552,0,0,1-.97-1.77,6.534,6.534,0,0,1-.6,1.32,5.657,5.657,0,0,1-.86,1.11,4.069,4.069,0,0,1-1.01.75l-.52-.67a4.064,4.064,0,0,0,1.27-1,5.369,5.369,0,0,0,.94-1.49,4.207,4.207,0,0,0,.36-1.62V84.07H70.98v-.7h5.2v.7H74.03v1.25A3.891,3.891,0,0,0,74.35,86.85Zm3-4.46h.84v3.87h1.6v.72h-1.6v4.96h-.84Z"/>
      <path id="패스_5385" data-name="패스 5385" class="cls-2" d="M83.21,87.19a5.892,5.892,0,0,0,1.16-3.06H80.81v-.71h4.42a7.212,7.212,0,0,1-1.07,3.86,7.8,7.8,0,0,1-3.31,2.84l-.47-.67A7.741,7.741,0,0,0,83.21,87.19Zm4.48-.91h1.55v.71H87.69v4.95h-.84V82.39h.84Z"/>
      <path id="패스_5386" data-name="패스 5386" class="cls-2" d="M101.27,87.12H97.33v.95h2.83v2.14H94.49v.97h5.96v.67h-6.8V89.58h5.68v-.85h-5.7v-.66H96.5v-.95H92.58v-.69h8.7v.69ZM93.7,82.71h6.45v2.91H93.7Zm5.61,2.24V83.39H94.54v1.56Z"/>
      <path id="패스_5387" data-name="패스 5387" class="cls-2" d="M110.78,87.71h-3.94v1.13h2.88v2.98h-6.57V88.84h2.87V87.71h-3.93v-.7h8.7v.7Zm-7.89-5.01h7.06v.7h-1.47v2.01h1.44v.7h-6.99v-.7h1.44V83.4H102.9v-.7Zm6,8.42V89.5h-4.91v1.62Zm-1.25-5.71V83.4H105.2v2.01Z"/>
      <path id="패스_5388" data-name="패스 5388" class="cls-2" d="M114.89,84.2a2.325,2.325,0,0,1,.9-.83,2.881,2.881,0,0,1,2.56,0,2.325,2.325,0,0,1,.9.83,2.242,2.242,0,0,1,.33,1.21,2.3,2.3,0,0,1-.33,1.22,2.276,2.276,0,0,1-.9.84,2.881,2.881,0,0,1-2.56,0,2.274,2.274,0,0,1-1.23-2.06A2.431,2.431,0,0,1,114.89,84.2Zm.72,2.04a1.494,1.494,0,0,0,.6.57,1.76,1.76,0,0,0,.86.2,1.808,1.808,0,0,0,.85-.2,1.641,1.641,0,0,0,.6-.57,1.562,1.562,0,0,0,.22-.83,1.5,1.5,0,0,0-.22-.82,1.641,1.641,0,0,0-.6-.57,1.728,1.728,0,0,0-.85-.21,1.849,1.849,0,0,0-.86.2,1.5,1.5,0,0,0-.6.57,1.625,1.625,0,0,0-.21.83A1.45,1.45,0,0,0,115.61,86.24Zm.45,2.43h.84v2.35h5.63v.71h-6.47V88.67Zm6.17.71h-.84V82.4h.84Z"/>
      <path id="패스_5389" data-name="패스 5389" class="cls-2" d="M123.85,87.77h8.7v.71H128.6v3.46h-.83V88.48h-3.92v-.71Zm5.29-3.25a4.076,4.076,0,0,0,1.31.99,5.311,5.311,0,0,0,1.67.52l-.34.69a6.271,6.271,0,0,1-1.46-.43,5.311,5.311,0,0,1-1.26-.77,3.414,3.414,0,0,1-.85-1.03,3.448,3.448,0,0,1-.85,1.04,5.311,5.311,0,0,1-1.26.77,5.823,5.823,0,0,1-1.46.43l-.34-.69a5.644,5.644,0,0,0,1.68-.52,4.12,4.12,0,0,0,1.3-.98,1.917,1.917,0,0,0,.5-1.25v-.55h.87v.55A1.843,1.843,0,0,0,129.14,84.52Z"/>
      <path id="패스_5390" data-name="패스 5390" class="cls-2" d="M142.09,87.49h-8.74v-.67h8.74Zm-7.69.77H141v2.03h-5.74v.91h6.05v.61h-6.9V89.7h5.75v-.82H134.4v-.62Zm.05-5.58h6.51v1.98h-5.64v.84h5.81v.61h-6.65V84.08h5.63V83.3h-5.66Z"/>
      <path id="패스_5391" data-name="패스 5391" class="cls-2" d="M145.57,83.93h2.46V82.51h.84v1.42h2.38v.7h-5.68v-.7Zm.85,2.55a2.15,2.15,0,0,1,.83-.78,2.733,2.733,0,0,1,2.41,0,2.083,2.083,0,0,1,.83.78,2.152,2.152,0,0,1,.31,1.13,2.187,2.187,0,0,1-.31,1.14,2.15,2.15,0,0,1-.83.78,2.473,2.473,0,0,1-1.2.28,2.54,2.54,0,0,1-1.21-.28,2.017,2.017,0,0,1-.83-.78,2.3,2.3,0,0,1,0-2.27Zm.7,1.9a1.316,1.316,0,0,0,.55.52,1.613,1.613,0,0,0,.79.18,1.661,1.661,0,0,0,.78-.18,1.449,1.449,0,0,0,.55-.52,1.5,1.5,0,0,0,.2-.77,1.55,1.55,0,0,0-.2-.77,1.339,1.339,0,0,0-.55-.53,1.554,1.554,0,0,0-.78-.19,1.592,1.592,0,0,0-.79.19,1.4,1.4,0,0,0-.55.53,1.523,1.523,0,0,0-.2.77A1.631,1.631,0,0,0,147.12,88.38Zm5.9-2.05h1.6v.7h-1.6v4.91h-.84V82.39h.84Z"/>
      <path id="패스_5392" data-name="패스 5392" class="cls-2" d="M159.97,84.08h2.23V82.4h.85v6.97h-.85V86.82h-2.23v.86h-4.38V83.22h4.38Zm-.83,2.93V83.93h-2.72v3.08Zm-2.27,1.74h.85v2.28h5.54v.71h-6.39Zm5.33-2.62V84.79h-2.23v1.34Z"/>
      <path id="패스_5393" data-name="패스 5393" class="cls-2" d="M171.36,84.12h-3.53v-.69h4.38a7.354,7.354,0,0,1-1.03,3.86,7.7,7.7,0,0,1-3.31,2.83l-.46-.68A6.257,6.257,0,0,0,171.36,84.12Zm3.95,7.82h-.84V86.93h-2.28v-.7h2.28V82.38h.84Z"/>
      <path id="패스_5394" data-name="패스 5394" class="cls-2" d="M180.81,86.77h-2.76v2.17c.62,0,1.2-.02,1.72-.06s1.08-.1,1.65-.2l.08.69a15.3,15.3,0,0,1-1.79.22q-.84.06-1.86.06h-.62V86.07h2.76V84.14h-2.78v-.71h3.6v3.34Zm1.27-4.17h.77v3.57h1.41V82.39h.81v9.55h-.81V86.87h-1.41v4.58h-.77Z"/>
      <path id="패스_5395" data-name="패스 5395" class="cls-2" d="M189.32,87.19a5.892,5.892,0,0,0,1.16-3.06h-3.56v-.71h4.42a7.212,7.212,0,0,1-1.07,3.86,7.8,7.8,0,0,1-3.31,2.84l-.47-.67A7.742,7.742,0,0,0,189.32,87.19Zm4.48-.91h1.55v.71H193.8v4.95h-.84V82.39h.84Z"/>
      <path id="패스_5396" data-name="패스 5396" class="cls-2" d="M203.44,87.15h3.94v.7h-8.7v-.7h3.93V85.79h.83Zm-2.68-1.94a3.7,3.7,0,0,0,1.22-.73,1.42,1.42,0,0,0,.5-.95h-3.01v-.69h7.13v.69h-3.03a1.379,1.379,0,0,0,.5.95,3.7,3.7,0,0,0,1.22.73,6.371,6.371,0,0,0,1.59.38l-.31.67a6.782,6.782,0,0,1-1.51-.35,4.488,4.488,0,0,1-1.25-.66,2.531,2.531,0,0,1-.79-.92,2.721,2.721,0,0,1-.79.92,4.489,4.489,0,0,1-1.25.66,6.782,6.782,0,0,1-1.51.35l-.31-.67A6.344,6.344,0,0,0,200.76,85.21Zm-.64,4.17a2.548,2.548,0,0,1,1.13-.56,7.084,7.084,0,0,1,1.78-.19,6.97,6.97,0,0,1,1.76.19,2.548,2.548,0,0,1,1.13.56,1.23,1.23,0,0,1,.4.89,1.177,1.177,0,0,1-.4.89,2.548,2.548,0,0,1-1.13.56,6.971,6.971,0,0,1-1.76.19,7.138,7.138,0,0,1-1.78-.19,2.548,2.548,0,0,1-1.13-.56,1.211,1.211,0,0,1,0-1.78Zm.75,1.43a2.075,2.075,0,0,0,.83.34,6.057,6.057,0,0,0,1.3.12,5.164,5.164,0,0,0,1.82-.26c.43-.17.65-.42.66-.73s-.22-.55-.64-.72a4.861,4.861,0,0,0-1.77-.26,5.258,5.258,0,0,0-1.83.25c-.43.17-.65.41-.64.72A.628.628,0,0,0,200.87,90.81Z"/>
      <path id="패스_5397" data-name="패스 5397" class="cls-2" d="M216.93,90.76h-8.74v-.71h2.46V88.23h-1.36V85.29H215V83.8h-5.74v-.7h6.56v2.89h-5.7v1.55h5.93v.7h-1.49v1.82h2.37v.7Zm-3.2-.71V88.23h-2.26v1.82Z"/>
      <path id="패스_5398" data-name="패스 5398" class="cls-2" d="M220.47,86.92V85.89H218.6V82.87h4.53v.7h-3.68v1.64h3.77v.68h-1.9v.99c1-.05,1.87-.13,2.62-.23l.05.61a24.235,24.235,0,0,1-2.91.31c-1.01.05-2.08.08-3.22.08l-.13-.7C218.9,86.96,219.81,86.94,220.47,86.92Zm-1.19,1.4h.84v1.02h4.63V88.32h.83v3.49h-6.29V88.32Zm5.47,2.8V90h-4.63v1.13h4.63Zm.83-3.23h-.85V82.4h.85Z"/>
      <path id="패스_5399" data-name="패스 5399" class="cls-2" d="M227.82,83.34h.83v5.41c.79-.01,1.56-.05,2.3-.12a19.961,19.961,0,0,0,2.26-.35l.12.72a20.64,20.64,0,0,1-2.37.36c-.77.07-1.56.11-2.37.11h-.77Zm7.26,8.6h-.84V82.39h.84Z"/>
      <path id="패스_5400" data-name="패스 5400" class="cls-2" d="M237.13,83.32h4.46v.7h-3.62v4.83c.9,0,1.68-.03,2.35-.08s1.34-.14,2.02-.26l.11.73a19.37,19.37,0,0,1-2.08.26c-.68.05-1.51.06-2.48.06h-.75V83.32Zm6.97,2.85h1.6v.71h-1.6v5.08h-.84V82.39h.84Z"/>
      <path id="패스_5401" data-name="패스 5401" class="cls-2" d="M246.88,91.04a.666.666,0,0,1-.25-.25.7.7,0,0,1-.09-.35.677.677,0,0,1,.34-.59.7.7,0,0,1,.35-.09.665.665,0,0,1,.34.09.6.6,0,0,1,.25.25.692.692,0,0,1,.09.34.72.72,0,0,1-.2.5.651.651,0,0,1-.49.21A.971.971,0,0,1,246.88,91.04Z"/>
    </g>
    <g id="그룹_3988" data-name="그룹 3988" transform="translate(0 1.516)">
      <path id="패스_5402" data-name="패스 5402" class="cls-1" d="M130.28,48.55a2.459,2.459,0,0,1,.98-.91,2.952,2.952,0,0,1,1.4-.33,2.884,2.884,0,0,1,1.39.33,2.526,2.526,0,0,1,.98.91,2.519,2.519,0,0,1-.98,3.56,2.94,2.94,0,0,1-1.39.33,2.98,2.98,0,0,1-1.4-.33,2.586,2.586,0,0,1-.98-3.56Zm.78,2.23a1.578,1.578,0,0,0,.66.62,2.067,2.067,0,0,0,.94.22,1.935,1.935,0,0,0,.93-.22,1.674,1.674,0,0,0,.9-1.53,1.682,1.682,0,0,0-.24-.9,1.714,1.714,0,0,0-.66-.62,2.055,2.055,0,0,0-1.87-.01,1.714,1.714,0,0,0-.66.62,1.613,1.613,0,0,0-.23.9A1.66,1.66,0,0,0,131.06,50.78Zm.5,2.65h.91V56h6.14v.77h-7.05Zm6.72.77h-.91V46.58h.91Z"/>
      <path id="패스_5403" data-name="패스 5403" class="cls-1" d="M142.6,51.72a6.639,6.639,0,0,0,1.03-3.04h-3.12v-.76h4.03a8.988,8.988,0,0,1-.14,1.57h1.58V46.87h.88v9.61h-.88V52.87h-1.93V52.1h1.93V50.25h-1.76a7.329,7.329,0,0,1-1.28,2.5,8.528,8.528,0,0,1-2.33,2l-.56-.67A7.679,7.679,0,0,0,142.6,51.72Zm6.37,5.27h-.88V46.58h.88Z"/>
      <path id="패스_5404" data-name="패스 5404" class="cls-1" d="M154.94,47.33a2.154,2.154,0,0,1,.92.72,1.918,1.918,0,0,1,.07,2.04,2,2,0,0,1-.74.7,2.906,2.906,0,0,1-1.1.35v1.02c1.07-.06,2.02-.15,2.87-.28l.07.69a24.4,24.4,0,0,1-2.95.33c-1.03.05-2.11.1-3.23.1h-.32l-.12-.76h.54c.85,0,1.59-.01,2.21-.04V51.15a3.053,3.053,0,0,1-1.13-.34,1.843,1.843,0,0,1-1.01-1.67,1.818,1.818,0,0,1,.33-1.08,2.124,2.124,0,0,1,.91-.72,3.336,3.336,0,0,1,1.34-.26A3.174,3.174,0,0,1,154.94,47.33Zm-2.84,2.49a1.393,1.393,0,0,0,.61.47,2.415,2.415,0,0,0,1.78,0,1.452,1.452,0,0,0,.61-.47,1.115,1.115,0,0,0,.22-.69,1.174,1.174,0,0,0-.22-.71,1.377,1.377,0,0,0-.61-.47,2.415,2.415,0,0,0-1.78,0,1.452,1.452,0,0,0-.61.47,1.136,1.136,0,0,0-.21.7A1.059,1.059,0,0,0,152.1,49.82Zm-.17,4.04h.93v2.12h6.07v.77h-7Zm5.7-7.27h.93v3.53h1.56v.79h-1.56v3.66h-.93Z"/>
      <path id="패스_5405" data-name="패스 5405" class="cls-1" d="M170.33,55.7h-9.54v-.77h2.68V52.95h-1.49V49.74h6.23V48.11h-6.26v-.76h7.16V50.5h-6.22v1.69h6.47v.76h-1.63v1.98h2.59v.77Zm-3.49-.77V52.95h-2.46v1.98Z"/>
    </g>
    <g id="그룹_3989" data-name="그룹 3989">
      <path id="패스_5406" data-name="패스 5406" class="cls-1" d="M288.49,13.53H12.45a3.5,3.5,0,0,1-3.5-3.5h0a3.5,3.5,0,0,1,3.5-3.5H288.49a3.5,3.5,0,0,1,3.5,3.5h0A3.491,3.491,0,0,1,288.49,13.53Z"/>
    </g>
    <g id="그룹_3990" data-name="그룹 3990">
      <path id="패스_5407" data-name="패스 5407" class="cls-2" d="M149.55,13.53H12.45a3.5,3.5,0,0,1-3.5-3.5h0a3.5,3.5,0,0,1,3.5-3.5H149.56a3.5,3.5,0,0,1,3.5,3.5h0A3.506,3.506,0,0,1,149.55,13.53Z"/>
    </g>
    <g id="그룹_3993" data-name="그룹 3993">
      <g id="그룹_3991" data-name="그룹 3991">
        <circle id="타원_165" data-name="타원 165" class="cls-2" cx="7" cy="7" r="7" transform="translate(0.62 3.03)"/>
        <path id="패스_5408" data-name="패스 5408" class="cls-2" d="M7.62,17.53a7.5,7.5,0,1,1,7.5-7.5A7.5,7.5,0,0,1,7.62,17.53Zm0-14a6.5,6.5,0,1,0,6.5,6.5A6.513,6.513,0,0,0,7.62,3.53Z"/>
      </g>
      <g id="그룹_3992" data-name="그룹 3992">
        <path id="패스_5409" data-name="패스 5409" class="cls-1" d="M8.4,13.72H7.52V7.69H7.49L5.8,8.81V7.94L7.52,6.79H8.4Z"/>
      </g>
    </g>
    <g id="그룹_3994" data-name="그룹 3994">
      <path id="패스_5410" data-name="패스 5410" class="cls-2" d="M1.91,27.92a2.5,2.5,0,0,1,1.02-.88,3.293,3.293,0,0,1,1.46-.31,3.293,3.293,0,0,1,1.46.31,2.5,2.5,0,0,1,1.02.88,2.291,2.291,0,0,1,.37,1.29,2.2,2.2,0,0,1-.37,1.27,2.555,2.555,0,0,1-1.02.87,3.293,3.293,0,0,1-1.46.31,3.293,3.293,0,0,1-1.46-.31,2.555,2.555,0,0,1-1.02-.87,2.4,2.4,0,0,1,0-2.56Zm1.11,2.02a1.342,1.342,0,0,0,.56.49,1.8,1.8,0,0,0,.82.17,1.924,1.924,0,0,0,.81-.17,1.334,1.334,0,0,0,.56-.49,1.293,1.293,0,0,0,.2-.73,1.439,1.439,0,0,0-.2-.74,1.218,1.218,0,0,0-.56-.49,1.924,1.924,0,0,0-.81-.17,1.937,1.937,0,0,0-.82.17,1.277,1.277,0,0,0-.56.49,1.388,1.388,0,0,0-.2.74A1.272,1.272,0,0,0,3.02,29.94Zm.15,2.49H4.46v1.09H8.88V32.43h1.3v4.29H3.17Zm5.71,3.23V34.54H4.46v1.12Zm1.3-3.72H8.86V26.26h1.31v5.68Z"/>
      <path id="패스_5411" data-name="패스 5411" class="cls-2" d="M20.22,27.59v.33c0,.45-.02.89-.05,1.31a9.347,9.347,0,0,1-.21,1.37H21.4v1.05H11.72V30.6h6.92a10.526,10.526,0,0,0,.22-1.42c.03-.43.05-.89.05-1.37h-6V26.77h7.3v.82Zm-7.34,5.29H20.2v3.83H12.88V32.88Zm6.04,2.78V33.9H14.16v1.76Z"/>
      <path id="패스_5412" data-name="패스 5412" class="cls-2" d="M26.66,26.98a2.214,2.214,0,0,1,.94.75,2,2,0,0,1,.35,1.11,1.924,1.924,0,0,1-.25.95,2.152,2.152,0,0,1-.69.72,2.613,2.613,0,0,1-1.03.4v.86c.99-.06,1.86-.14,2.59-.25l.11.95a25.109,25.109,0,0,1-2.98.34q-1.56.09-3.21.09h-.27l-.14-1.04c.98,0,1.84-.01,2.59-.04v-.91a2.914,2.914,0,0,1-1.06-.39,2.124,2.124,0,0,1-.71-.72,1.976,1.976,0,0,1,.09-2.07,2.276,2.276,0,0,1,.94-.75,3.317,3.317,0,0,1,1.37-.27A3.269,3.269,0,0,1,26.66,26.98Zm-3.14,6.65h1.3v1.93h6.04v1.05H23.52Zm.52-4.19a1.219,1.219,0,0,0,.51.4,1.793,1.793,0,0,0,.75.14,1.641,1.641,0,0,0,1.03-.31,1.029,1.029,0,0,0,.4-.83,1,1,0,0,0-.4-.83,1.638,1.638,0,0,0-1.03-.3,1.967,1.967,0,0,0-.75.13,1.127,1.127,0,0,0-.51.39,1.045,1.045,0,0,0-.18.61A1.014,1.014,0,0,0,24.04,29.44Zm5.14-3.18h1.3v3.42h1.43v1.08H30.48v3.59h-1.3Z"/>
      <path id="패스_5413" data-name="패스 5413" class="cls-2" d="M42.14,35.62H32.46V34.54h2.57V32.79H33.61V29.33H39.7v-1.3H33.58V26.98H41v3.4H34.92v1.36h6.33v1.05H39.7v1.75h2.45v1.08Zm-3.72-1.08V32.79H36.3v1.75Z"/>
    </g>
    <g id="그룹_3995" data-name="그룹 3995">
      <path id="패스_5414" data-name="패스 5414" class="cls-2" d="M131.96,26.74a2.7,2.7,0,0,1,1.03-.95,3.262,3.262,0,0,1,2.9,0,2.641,2.641,0,0,1,1.03,3.68,2.626,2.626,0,0,1-1.03.95,3.262,3.262,0,0,1-2.9,0,2.617,2.617,0,0,1-1.03-3.68Zm1.1,2.17a1.3,1.3,0,0,0,.56.53,1.8,1.8,0,0,0,.82.19,1.631,1.631,0,0,0,.8-.19,1.364,1.364,0,0,0,.56-.53,1.614,1.614,0,0,0,.21-.8,1.481,1.481,0,0,0-.21-.79,1.386,1.386,0,0,0-.57-.53,1.78,1.78,0,0,0-.8-.19,1.67,1.67,0,0,0-.81.19,1.455,1.455,0,0,0-.57.53,1.475,1.475,0,0,0-.2.79A1.614,1.614,0,0,0,133.06,28.91Zm.15,2.73h1.31v2.44h5.99v1.05h-7.3Zm7.01.78h-1.31V24.77h1.31Z"/>
      <path id="패스_5415" data-name="패스 5415" class="cls-2" d="M144.09,29.98a6.247,6.247,0,0,0,.97-2.88h-2.84V26.05h4.12a11.015,11.015,0,0,1-.11,1.56h1.24V25.02h1.24v9.83h-1.24V31.3h-1.65V30.23h1.65V28.66h-1.46a7.04,7.04,0,0,1-1.27,2.48,8.421,8.421,0,0,1-2.32,1.97l-.76-.93A7.379,7.379,0,0,0,144.09,29.98Zm6.81,5.37h-1.24V24.75h1.24Z"/>
      <path id="패스_5416" data-name="패스 5416" class="cls-2" d="M156.7,25.48a2.214,2.214,0,0,1,.94.75,2,2,0,0,1,.35,1.11,1.924,1.924,0,0,1-.25.95,2.152,2.152,0,0,1-.69.72,2.613,2.613,0,0,1-1.03.4v.86c.99-.06,1.86-.14,2.59-.25l.11.95a25.108,25.108,0,0,1-2.98.34q-1.56.09-3.21.09h-.27l-.14-1.04c.98,0,1.84-.01,2.59-.04v-.91a2.914,2.914,0,0,1-1.06-.39,2.124,2.124,0,0,1-.71-.72,1.976,1.976,0,0,1,.09-2.07,2.276,2.276,0,0,1,.94-.75,3.317,3.317,0,0,1,1.37-.27A3.269,3.269,0,0,1,156.7,25.48Zm-3.14,6.65h1.3v1.93h6.04v1.05h-7.34Zm.52-4.19a1.219,1.219,0,0,0,.51.4,1.793,1.793,0,0,0,.75.14,1.641,1.641,0,0,0,1.03-.31,1.029,1.029,0,0,0,.4-.83,1,1,0,0,0-.4-.83,1.638,1.638,0,0,0-1.03-.3,1.967,1.967,0,0,0-.75.13,1.127,1.127,0,0,0-.51.39,1.045,1.045,0,0,0-.18.61A1.014,1.014,0,0,0,154.08,27.94Zm5.14-3.18h1.3v3.42h1.43v1.08h-1.43v3.59h-1.3Z"/>
      <path id="패스_5417" data-name="패스 5417" class="cls-2" d="M172.18,34.12H162.5V33.04h2.57V31.29h-1.42V27.83h6.09v-1.3h-6.12V25.48h7.41v3.4h-6.08v1.36h6.33v1.05h-1.55v1.75h2.45v1.08Zm-3.72-1.08V31.29h-2.12v1.75Z"/>
    </g>
    <g id="그룹_3998" data-name="그룹 3998">
      <g id="그룹_3996" data-name="그룹 3996">
        <circle id="타원_166" data-name="타원 166" class="cls-2" cx="7" cy="7" r="7" transform="translate(143.78 3.03)"/>
        <path id="패스_5418" data-name="패스 5418" class="cls-2" d="M150.78,17.53a7.5,7.5,0,1,1,7.5-7.5A7.5,7.5,0,0,1,150.78,17.53Zm0-14a6.5,6.5,0,1,0,6.5,6.5A6.513,6.513,0,0,0,150.78,3.53Z"/>
      </g>
      <g id="그룹_3997" data-name="그룹 3997">
        <path id="패스_5419" data-name="패스 5419" class="cls-1" d="M148.55,13.08l2.36-2.49c.31-.33.55-.6.71-.8A3.075,3.075,0,0,0,152,9.2a1.368,1.368,0,0,0,.13-.59,1.045,1.045,0,0,0-.18-.61,1.194,1.194,0,0,0-.5-.41,1.6,1.6,0,0,0-.7-.15,1.462,1.462,0,0,0-.71.17,1.157,1.157,0,0,0-.47.46,1.345,1.345,0,0,0-.17.68h-.81a2.011,2.011,0,0,1,.28-1.07,1.9,1.9,0,0,1,.79-.72,2.462,2.462,0,0,1,1.12-.26,2.385,2.385,0,0,1,1.11.25,1.983,1.983,0,0,1,.77.69,1.836,1.836,0,0,1,.28.98,1.944,1.944,0,0,1-.15.76,3.068,3.068,0,0,1-.48.8q-.345.435-.96,1.08l-1.59,1.64v.06h3.3v.77h-4.5Z"/>
      </g>
    </g>
    <g id="그룹_3999" data-name="그룹 3999">
      <path id="패스_5420" data-name="패스 5420" class="cls-3" d="M262.54,30.08a6.293,6.293,0,0,0,1.15-3.18h-3.64V25.87H265a9.917,9.917,0,0,1-.45,3.02,6.839,6.839,0,0,1-1.5,2.52,9.291,9.291,0,0,1-2.82,2.02l-.68-1.02A7.858,7.858,0,0,0,262.54,30.08Zm5.95,5.27h-1.3V29.96h-2.24V28.89h2.24V24.75h1.3Z"/>
      <path id="패스_5421" data-name="패스 5421" class="cls-3" d="M274.3,29.78h-2.74v2.06c.62-.01,1.18-.03,1.7-.06a14.7,14.7,0,0,0,1.58-.18l.09,1.05c-.66.11-1.28.18-1.87.22s-1.27.06-2.03.06h-.73V28.72h2.74V26.88h-2.75V25.83h4.01Zm1.17-4.83h1.2v3.87h1.2V24.75h1.24V35.34h-1.24V29.87h-1.2V34.8h-1.2Z"/>
      <path id="패스_5422" data-name="패스 5422" class="cls-3" d="M285.82,29.88h4.2v1.05h-9.66V29.88h4.17V28.53h1.29v1.35Zm-3.31-2.15a3.811,3.811,0,0,0,1.19-.65,1.618,1.618,0,0,0,.56-.82h-3.02V25.22h7.91v1.04H286.1a1.618,1.618,0,0,0,.56.82,3.759,3.759,0,0,0,1.2.65,6.971,6.971,0,0,0,1.71.36l-.47,1.02a6.715,6.715,0,0,1-2.46-.68,3.365,3.365,0,0,1-1.46-1.34,3.279,3.279,0,0,1-1.45,1.34,6.919,6.919,0,0,1-2.45.68l-.46-1.02A6.8,6.8,0,0,0,282.51,27.73Zm-.58,4.74a2.8,2.8,0,0,1,1.27-.63,8.078,8.078,0,0,1,1.98-.22,7.538,7.538,0,0,1,1.97.22,2.865,2.865,0,0,1,1.26.63,1.368,1.368,0,0,1,0,2.01,2.864,2.864,0,0,1-1.26.63,8.051,8.051,0,0,1-1.97.22,7.619,7.619,0,0,1-1.98-.22,3.019,3.019,0,0,1-1.27-.63,1.348,1.348,0,0,1-.44-1.01A1.293,1.293,0,0,1,281.93,32.47Zm1.47,1.66a5.333,5.333,0,0,0,1.77.22,5.24,5.24,0,0,0,1.75-.22c.4-.15.61-.37.61-.66s-.21-.49-.61-.64a5.306,5.306,0,0,0-1.76-.22,5.613,5.613,0,0,0-1.77.22c-.4.14-.6.35-.59.64S283,33.98,283.4,34.13Z"/>
      <path id="패스_5423" data-name="패스 5423" class="cls-3" d="M300.41,34.12h-9.68V33.04h2.57V31.29h-1.42V27.83h6.09v-1.3h-6.12V25.48h7.41v3.4h-6.08v1.36h6.33v1.05h-1.55v1.75h2.45v1.08Zm-3.73-1.08V31.29h-2.12v1.75Z"/>
    </g>
    <g id="그룹_4002" data-name="그룹 4002">
      <g id="그룹_4000" data-name="그룹 4000">
        <circle id="타원_167" data-name="타원 167" class="cls-1" cx="7" cy="7" r="7" transform="translate(285.75 3.03)"/>
        <path id="패스_5424" data-name="패스 5424" class="cls-3" d="M292.75,17.53a7.5,7.5,0,1,1,7.5-7.5A7.5,7.5,0,0,1,292.75,17.53Zm0-14a6.5,6.5,0,1,0,6.5,6.5A6.513,6.513,0,0,0,292.75,3.53Z"/>
      </g>
      <g id="그룹_4001" data-name="그룹 4001">
        <path id="패스_5425" data-name="패스 5425" class="cls-3" d="M291.55,13.58a1.94,1.94,0,0,1-.85-.65,1.637,1.637,0,0,1-.33-.96h.87a.966.966,0,0,0,.23.57,1.3,1.3,0,0,0,.54.37,2.056,2.056,0,0,0,.76.13,2.088,2.088,0,0,0,.81-.15,1.3,1.3,0,0,0,.56-.43,1.008,1.008,0,0,0,.2-.63,1.176,1.176,0,0,0-.2-.67,1.3,1.3,0,0,0-.58-.46,2.273,2.273,0,0,0-.91-.17h-.56V9.78h.56a1.747,1.747,0,0,0,.74-.15,1.117,1.117,0,0,0,.68-1.04,1.135,1.135,0,0,0-.16-.61,1.059,1.059,0,0,0-.45-.41,1.48,1.48,0,0,0-.68-.15,1.822,1.822,0,0,0-.7.14,1.228,1.228,0,0,0-.53.38.925.925,0,0,0-.22.58h-.83a1.584,1.584,0,0,1,.33-.95,2.064,2.064,0,0,1,.83-.65,2.818,2.818,0,0,1,1.13-.23,2.343,2.343,0,0,1,1.12.25,1.878,1.878,0,0,1,.74.68,1.657,1.657,0,0,1,.25.92,1.609,1.609,0,0,1-.31,1,1.557,1.557,0,0,1-.87.57v.05a1.744,1.744,0,0,1,.77.29,1.478,1.478,0,0,1,.5.58,1.832,1.832,0,0,1,.17.79,1.723,1.723,0,0,1-.31,1.01,2.154,2.154,0,0,1-.86.71,2.926,2.926,0,0,1-1.24.26A2.763,2.763,0,0,1,291.55,13.58Z"/>
      </g>
    </g>
  </g>
</svg>
